<svg viewBox="0 0 330 200" xmlns="http://www.w3.org/2000/svg"><g><g><g><g><g><line x1="46" y1="168.62391074618955" x2="41" y2="168.62391074618955" style="visibility: inherit;" fill="rgb(0, 0, 0)" stroke="rgb(204, 204, 204)" stroke-width="1px"></line><line x1="46" y1="155.3078169076524" x2="41" y2="155.3078169076524" style="visibility: inherit;" fill="rgb(0, 0, 0)" stroke="rgb(204, 204, 204)" stroke-width="1px"></line><line x1="46" y1="141.99172306911527" x2="41" y2="141.99172306911527" style="visibility: inherit;" fill="rgb(0, 0, 0)" stroke="rgb(204, 204, 204)" stroke-width="1px"></line><line x1="46" y1="128.6756292305781" x2="41" y2="128.6756292305781" style="visibility: inherit;" fill="rgb(0, 0, 0)" stroke="rgb(204, 204, 204)" stroke-width="1px"></line><line x1="46" y1="115.35953539204095" x2="41" y2="115.35953539204095" style="visibility: inherit;" fill="rgb(0, 0, 0)" stroke="rgb(204, 204, 204)" stroke-width="1px"></line><line x1="46" y1="102.04344155350381" x2="41" y2="102.04344155350381" style="visibility: inherit;" fill="rgb(0, 0, 0)" stroke="rgb(204, 204, 204)" stroke-width="1px"></line><line x1="46" y1="88.72734771496665" x2="41" y2="88.72734771496665" style="visibility: inherit;" fill="rgb(0, 0, 0)" stroke="rgb(204, 204, 204)" stroke-width="1px"></line><line x1="46" y1="75.41125387642951" x2="41" y2="75.41125387642951" style="visibility: inherit;" fill="rgb(0, 0, 0)" stroke="rgb(204, 204, 204)" stroke-width="1px"></line><line x1="46" y1="62.09516003789234" x2="41" y2="62.09516003789234" style="visibility: inherit;" fill="rgb(0, 0, 0)" stroke="rgb(204, 204, 204)" stroke-width="1px"></line><line x1="46" y1="48.779066199355185" x2="41" y2="48.779066199355185" style="visibility: inherit;" fill="rgb(0, 0, 0)" stroke="rgb(204, 204, 204)" stroke-width="1px"></line><line x1="46" y1="35.46297236081804" x2="41" y2="35.46297236081804" style="visibility: inherit;" fill="rgb(0, 0, 0)" stroke="rgb(204, 204, 204)" stroke-width="1px"></line><line x1="46" y1="22.146878522280872" x2="41" y2="22.146878522280872" style="visibility: inherit;" fill="rgb(0, 0, 0)" stroke="rgb(204, 204, 204)" stroke-width="1px"></line><line x1="46" y1="8.830784683743758" x2="41" y2="8.830784683743758" style="visibility: inherit;" fill="rgb(0, 0, 0)" stroke="rgb(204, 204, 204)" stroke-width="1px"></line></g><g transform="translate(36, 0)"><text x="0" y="168.62391074618955" dx="0em" dy="0.3em" style="text-anchor: end; visibility: inherit; font-family: &quot;Helvetica Neue&quot;, sans-serif; font-size: 12px; font-weight: 200;" fill="rgb(50, 49, 63)" stroke="none" stroke-width="1px">0</text><text x="0" y="155.3078169076524" dx="0em" dy="0.3em" style="text-anchor: end; visibility: hidden; font-family: &quot;Helvetica Neue&quot;, sans-serif; font-size: 12px; font-weight: 200;" fill="rgb(50, 49, 63)" stroke="none" stroke-width="1px">0.05</text><text x="0" y="141.99172306911527" dx="0em" dy="0.3em" style="text-anchor: end; visibility: inherit; font-family: &quot;Helvetica Neue&quot;, sans-serif; font-size: 12px; font-weight: 200;" fill="rgb(50, 49, 63)" stroke="none" stroke-width="1px">0.1</text><text x="0" y="128.6756292305781" dx="0em" dy="0.3em" style="text-anchor: end; visibility: hidden; font-family: &quot;Helvetica Neue&quot;, sans-serif; font-size: 12px; font-weight: 200;" fill="rgb(50, 49, 63)" stroke="none" stroke-width="1px">0.15</text><text x="0" y="115.35953539204095" dx="0em" dy="0.3em" style="text-anchor: end; visibility: inherit; font-family: &quot;Helvetica Neue&quot;, sans-serif; font-size: 12px; font-weight: 200;" fill="rgb(50, 49, 63)" stroke="none" stroke-width="1px">0.2</text><text x="0" y="102.04344155350381" dx="0em" dy="0.3em" style="text-anchor: end; visibility: hidden; font-family: &quot;Helvetica Neue&quot;, sans-serif; font-size: 12px; font-weight: 200;" fill="rgb(50, 49, 63)" stroke="none" stroke-width="1px">0.25</text><text x="0" y="88.72734771496665" dx="0em" dy="0.3em" style="text-anchor: end; visibility: inherit; font-family: &quot;Helvetica Neue&quot;, sans-serif; font-size: 12px; font-weight: 200;" fill="rgb(50, 49, 63)" stroke="none" stroke-width="1px">0.3</text><text x="0" y="75.41125387642951" dx="0em" dy="0.3em" style="text-anchor: end; visibility: hidden; font-family: &quot;Helvetica Neue&quot;, sans-serif; font-size: 12px; font-weight: 200;" fill="rgb(50, 49, 63)" stroke="none" stroke-width="1px">0.35</text><text x="0" y="62.09516003789234" dx="0em" dy="0.3em" style="text-anchor: end; visibility: inherit; font-family: &quot;Helvetica Neue&quot;, sans-serif; font-size: 12px; font-weight: 200;" fill="rgb(50, 49, 63)" stroke="none" stroke-width="1px">0.4</text><text x="0" y="48.779066199355185" dx="0em" dy="0.3em" style="text-anchor: end; visibility: hidden; font-family: &quot;Helvetica Neue&quot;, sans-serif; font-size: 12px; font-weight: 200;" fill="rgb(50, 49, 63)" stroke="none" stroke-width="1px">0.45</text><text x="0" y="35.46297236081804" dx="0em" dy="0.3em" style="text-anchor: end; visibility: inherit; font-family: &quot;Helvetica Neue&quot;, sans-serif; font-size: 12px; font-weight: 200;" fill="rgb(50, 49, 63)" stroke="none" stroke-width="1px">0.5</text><text x="0" y="22.146878522280872" dx="0em" dy="0.3em" style="text-anchor: end; visibility: hidden; font-family: &quot;Helvetica Neue&quot;, sans-serif; font-size: 12px; font-weight: 200;" fill="rgb(50, 49, 63)" stroke="none" stroke-width="1px">0.55</text><text x="0" y="8.830784683743758" dx="0em" dy="0.3em" style="text-anchor: end; visibility: inherit; font-family: &quot;Helvetica Neue&quot;, sans-serif; font-size: 12px; font-weight: 200;" fill="rgb(50, 49, 63)" stroke="none" stroke-width="1px">0.6</text></g><line x1="46" y1="0" x2="46" y2="177" fill="rgb(0, 0, 0)" stroke="rgb(204, 204, 204)" stroke-width="1px"></line></g></g><g transform="translate(46, 0)" clip-path="url(#clip_0)"><clipPath id="clip_0"><rect width="284" height="177"></rect></clipPath><g><g><g><line x1="12.521995117555504" y1="0" x2="12.521995117555504" y2="177" fill="rgb(0, 0, 0)" stroke="rgb(60, 60, 60)" stroke-width="1px" opacity="0.25"></line><line x1="37.86552675411587" y1="0" x2="37.86552675411587" y2="177" fill="rgb(0, 0, 0)" stroke="rgb(60, 60, 60)" stroke-width="1px" opacity="0.25"></line><line x1="63.209058390676226" y1="0" x2="63.209058390676226" y2="177" fill="rgb(0, 0, 0)" stroke="rgb(60, 60, 60)" stroke-width="1px" opacity="0.25"></line><line x1="88.55259002723659" y1="0" x2="88.55259002723659" y2="177" fill="rgb(0, 0, 0)" stroke="rgb(60, 60, 60)" stroke-width="1px" opacity="0.25"></line><line x1="113.89612166379695" y1="0" x2="113.89612166379695" y2="177" fill="rgb(0, 0, 0)" stroke="rgb(60, 60, 60)" stroke-width="1px" opacity="0.25"></line><line x1="139.2396533003573" y1="0" x2="139.2396533003573" y2="177" fill="rgb(0, 0, 0)" stroke="rgb(60, 60, 60)" stroke-width="1px" opacity="0.25"></line><line x1="164.5831849369177" y1="0" x2="164.5831849369177" y2="177" fill="rgb(0, 0, 0)" stroke="rgb(60, 60, 60)" stroke-width="1px" opacity="0.25"></line><line x1="189.92671657347805" y1="0" x2="189.92671657347805" y2="177" fill="rgb(0, 0, 0)" stroke="rgb(60, 60, 60)" stroke-width="1px" opacity="0.25"></line><line x1="215.27024821003843" y1="0" x2="215.27024821003843" y2="177" fill="rgb(0, 0, 0)" stroke="rgb(60, 60, 60)" stroke-width="1px" opacity="0.25"></line><line x1="240.61377984659876" y1="0" x2="240.61377984659876" y2="177" fill="rgb(0, 0, 0)" stroke="rgb(60, 60, 60)" stroke-width="1px" opacity="0.25"></line><line x1="265.9573114831591" y1="0" x2="265.9573114831591" y2="177" fill="rgb(0, 0, 0)" stroke="rgb(60, 60, 60)" stroke-width="1px" opacity="0.25"></line></g><g><line x1="0" y1="168.62391074618955" x2="284" y2="168.62391074618955" fill="rgb(0, 0, 0)" stroke="rgb(60, 60, 60)" stroke-width="1px" opacity="0.25"></line><line x1="0" y1="155.3078169076524" x2="284" y2="155.3078169076524" fill="rgb(0, 0, 0)" stroke="rgb(60, 60, 60)" stroke-width="1px" opacity="0.25"></line><line x1="0" y1="141.99172306911527" x2="284" y2="141.99172306911527" fill="rgb(0, 0, 0)" stroke="rgb(60, 60, 60)" stroke-width="1px" opacity="0.25"></line><line x1="0" y1="128.6756292305781" x2="284" y2="128.6756292305781" fill="rgb(0, 0, 0)" stroke="rgb(60, 60, 60)" stroke-width="1px" opacity="0.25"></line><line x1="0" y1="115.35953539204095" x2="284" y2="115.35953539204095" fill="rgb(0, 0, 0)" stroke="rgb(60, 60, 60)" stroke-width="1px" opacity="0.25"></line><line x1="0" y1="102.04344155350381" x2="284" y2="102.04344155350381" fill="rgb(0, 0, 0)" stroke="rgb(60, 60, 60)" stroke-width="1px" opacity="0.25"></line><line x1="0" y1="88.72734771496665" x2="284" y2="88.72734771496665" fill="rgb(0, 0, 0)" stroke="rgb(60, 60, 60)" stroke-width="1px" opacity="0.25"></line><line x1="0" y1="75.41125387642951" x2="284" y2="75.41125387642951" fill="rgb(0, 0, 0)" stroke="rgb(60, 60, 60)" stroke-width="1px" opacity="0.25"></line><line x1="0" y1="62.09516003789234" x2="284" y2="62.09516003789234" fill="rgb(0, 0, 0)" stroke="rgb(60, 60, 60)" stroke-width="1px" opacity="0.25"></line><line x1="0" y1="48.779066199355185" x2="284" y2="48.779066199355185" fill="rgb(0, 0, 0)" stroke="rgb(60, 60, 60)" stroke-width="1px" opacity="0.25"></line><line x1="0" y1="35.46297236081804" x2="284" y2="35.46297236081804" fill="rgb(0, 0, 0)" stroke="rgb(60, 60, 60)" stroke-width="1px" opacity="0.25"></line><line x1="0" y1="22.146878522280872" x2="284" y2="22.146878522280872" fill="rgb(0, 0, 0)" stroke="rgb(60, 60, 60)" stroke-width="1px" opacity="0.25"></line><line x1="0" y1="8.830784683743758" x2="284" y2="8.830784683743758" fill="rgb(0, 0, 0)" stroke="rgb(60, 60, 60)" stroke-width="1px" opacity="0.25"></line></g></g></g><g><g><line x1="0" y1="168.62391074618955" x2="284" y2="168.62391074618955" fill="rgb(0, 0, 0)" stroke="rgb(153, 153, 153)" stroke-width="1.5px"></line></g></g><g><g><line x1="12.521995117555504" y1="0" x2="12.521995117555504" y2="177" fill="rgb(0, 0, 0)" stroke="rgb(153, 153, 153)" stroke-width="1.5px"></line></g></g><g><g><g><g><g><path stroke="rgb(0, 119, 187)" stroke-width="2px" d="M18.005017500062067,151.99851791106403L18.480766275943576,150.47245490689747L18.706070272192598,156.69498788733162L19.181261490378105,152.5177676769027L19.407731289082406,154.71916261456875L19.632173605255787,154.84552955423092L20.104678409087818,152.53395432199346L20.32932347351429,155.77083132884127L20.803805072813972,152.38769180928023L21.029159756126266,151.40228361386653L21.50343860717286,149.87877395640933L21.976703716953985,148.84151307689606L22.45214837045586,148.69635433986903L22.927086153325,144.31429267652308L23.402429432700323,142.25401848622965L23.878685079214566,141.51289723819804L24.100846477540653,143.46674407058077L24.572185478917408,138.51910795255313L24.794904434939497,141.07764591956052L25.016457588506306,141.7548219769043L25.48445124370703,136.00937301773416L25.95107634819938,135.32568508185318L26.172629501766192,137.93217926204298L26.639710789828,132.92162284178283L26.860655698635533,137.5613909924621L27.328294544393344,142.1962008680162L27.54812433780887,136.7239157352561L27.76526771687092,130.98384142736364L28.232298317869454,139.30830523270433L28.698619299982166,137.99702575704498L61.3375399534428,84.38018653522838L61.798944290418014,91.06545790173178L62.014972554088054,97.45719957244239L62.47718788407564,85.99112943562318L62.69199965822713,93.30195225417967L62.90762242539098,78.72766526041389L63.12278900898538,88.37518356328685L122.70061661552784,53.60641610434709L123.17261454872714,62.659905642630434L123.39284983864884,50.36247735578597L123.6131865026971,51.2097336133088L124.08021710369565,71.04600603168909L124.29974277473153,59.50960528290487L124.76758436874243,65.51650087572858L125.23441222148787,59.43568570974392L125.45338033482776,66.57284615711913L125.67285531880037,59.721664767711076L125.89131656150751,47.25141649308486L126.11074085841685,55.12729010749702L163.4045586546278,49.290855511774L163.60781377835303,39.255645035375295L164.0524913844481,41.314333348524116L164.26000422148826,50.63673358003504L164.46756774559168,57.544528638228684L164.90910275376385,46.33936830634383L165.35590921651638,42.05146115797697L165.8039828558508,58.691504635878445L166.0131176789157,39.77993252806499L166.22159357015803,47.41147875009784L166.4302215225902,43.262410327752036L166.63925497152854,49.98510781855278L169.02930206604603,63.903411236056044L169.27361371102245,75.04992288735544L169.51721573711308,76.0342866689105L216.24511249797035,55.51096053245277L216.46342167948768,58.2704010489862L216.6838090305992,46.32865610278492L225.63808425430216,37.58866781386311L225.86379374705737,42.48111269816894L226.0917334705966,44.27943318854278L226.57761965913272,54.20788415669571L226.80535663441884,49.563904508118426L227.03334704502134,60.24519941071763L227.5190304853044,47.464313309928286L227.7460578417047,46.67510037312002L228.2316905949245,41.432909074089395L228.71788090584025,47.74139127821829L228.94450276573437,47.39554295513781L229.17330416934922,50.42636100657383L229.401345267015,40.61200559218514L229.89042474053736,46.61798084687328L230.11937820534203,47.24088750995361L230.34782479951397,47.220525235090406L230.83553572232793,44.34201943517735L231.06418506475302,43.96330602856091L231.5516932393139,44.1235824353916L232.03864385617877,37.635078702200474L232.2679014433631,55.352726876655055L232.49650009872485,59.00650722268611L232.72459188345388,51.93163650175407L232.95334260000547,51.33395981372138L233.44110420988275,48.82661225359158L233.9286630715069,41.94585866841706L234.15781928456465,41.78509873486786L234.64568226856844,46.45209047355178L235.13243013718022,48.504762660700266L235.36097810547872,46.783743562777175L235.58912057727105,44.22273607118004L235.8164013689877,47.8037631023401L236.29772572182927,40.54025835796938L236.78051999950574,38.908684471670426L237.00582399575475,45.624088720516596L237.4860839202676,39.290215330025376L237.7113372294533,46.05656117248432L238.192864330548,46.00571351379182L238.41776283029083,34.63365915466866L238.89989817614472,42.33642550264588L254.24114886876708,43.37223972967453L254.7186210047999,48.86408441023562L254.94078240312598,39.12683175736382L255.41997789931008,41.99425066631176L255.64330510009142,41.320727083736415L256.12199372564277,34.557164765764156L256.6001754805614,36.21409962838746L257.0784079225433,45.14962804769439L257.3015323750716,41.92499796999064L257.5247582017264,44.76299133447708L257.7478319671914,36.130429652482945L258.22530410322423,43.86175711368111L258.7032831098897,43.02289434571108L258.92655962360783,32.91567662318013L259.40469069146314,41.67162921727626L259.6298933135857,41.892894012682035L259.85438631682234,40.49813846879101L260.33839708401734,38.278861158747304L260.8239284631106,40.87593752370711L261.0523750572825,42.582675729659826L261.2884753980087,39.9305436666842L261.77664250439216,33.55315857438666L262.0072686422848,48.03645045863698L262.23809752843067,37.67473341147445L262.46958534639896,42.375170042630344L262.7006676678611,33.36018561548576L263.19086225677546,39.64627270534507L263.42077877578237,42.3198843870714L263.90990893636797,36.906120140104434L264.1404337001341,32.42653312723067L264.3713132733432,43.33081261685098L264.60122979235007,43.58514482817165L265.0908161365051,52.819514976625555L265.58014904534383,36.9838982435235L265.9573114831591,44.87486187220637" style="fill: none;" fill="none"></path></g></g></g></g><g opacity="0.2"><g><g><g><path stroke="rgb(0, 119, 187)" stroke-width="2px" d="M18.005017500062067,151.99851791106403L18.480766275943576,150.39462569368496L18.706070272192598,157.02852187761587L19.181261490378105,152.29331038396538L19.407731289082406,154.83746649474168L19.632173605255787,154.85232060976222L20.104678409087818,152.40972846870613L20.32932347351429,155.94478362304687L20.803805072813972,152.20587925344282L21.029159756126266,151.34932700905517L21.50343860717286,149.79689935943324L21.976703716953985,148.785769868408L22.45214837045586,148.68855339615104L22.927086153325,144.07879726574262L23.402429432700323,142.14329774470704L23.878685079214566,141.47306880442605L24.100846477540653,143.5717453229006L24.572185478917408,138.2532181295611L24.794904434939497,141.215143744974L25.016457588506306,141.7912139462663L25.48445124370703,135.7006081105501L25.95107634819938,135.28894315906086L26.172629501766192,138.07225429174758L26.639710789828,132.6523516326856L26.860655698635533,137.81073575082314L27.328294544393344,142.44527916480575L27.54812433780887,136.42983086510776L27.76526771687092,130.6753653581302L28.232298317869454,139.7556684087553L28.698619299982166,137.92655657552902L61.3375399534428,81.49877578674295L61.798944290418014,91.42472959792953L62.014972554088054,97.80069675390314L62.47718788407564,85.37493388559392L62.69199965822713,93.69484157319589L62.90762242539098,77.9444317128037L63.12278900898538,88.89364871971102L122.70061661552784,51.73791542952523L123.17261454872714,63.14644723004082L123.39284983864884,49.701603970507676L123.6131865026971,51.25526582525154L124.08021710369565,72.11202277914684L124.29974277473153,58.889630110947024L124.76758436874243,65.83931612887295L125.23441222148787,59.108897961097725L125.45338033482776,66.95640272489166L125.67285531880037,59.35347693751106L125.89131656150751,46.58125562690367L126.11074085841685,55.55054569689112L163.4045586546278,48.97720096553388L163.60781377835303,38.716344999235844L164.0524913844481,41.424968863772364L164.26000422148826,51.13772663778748L164.46756774559168,57.91575893113476L164.90910275376385,45.737194252680894L165.35590921651638,41.8210256842502L165.8039828558508,59.585753547757236L166.0131176789157,38.76360989634898L166.22159357015803,47.82160399490678L166.4302215225902,43.03943615542363L166.63925497152854,50.346390823853966L169.02930206604603,64.65139171476277L169.27361371102245,75.64894511519131L169.51721573711308,76.08718714610683L216.24511249797035,54.40802098244292L216.46342167948768,58.41869553406862L216.6838090305992,45.68689741758334L225.63808425430216,37.118974028051696L225.86379374705737,42.74403650122434L226.0917334705966,44.37607633396857L226.57761965913272,54.74144685361435L226.80535663441884,49.314333420576304L227.03334704502134,60.819220527717164L227.5190304853044,46.77745852474362L227.7460578417047,46.63268745449278L228.2316905949245,41.15118962598552L228.71788090584025,48.08041403102183L228.94450276573437,47.37695679657392L229.17330416934922,50.58923953199344L229.401345267015,40.08457447929385L229.89042474053736,46.9407466403286L230.11937820534203,47.27436299975034L230.34782479951397,47.21943095056142L230.83553572232793,44.187326288922804L231.06418506475302,43.942953674780654L231.5516932393139,44.13219581447311L232.03864385617877,37.28638145205008L232.2679014433631,56.304887105208465L232.49650009872485,59.20286422758346L232.72459188345388,51.551427432452144L232.95334260000547,51.301840202457214L233.44110420988275,48.69186544056038L233.9286630715069,41.576081605357075L234.15781928456465,41.776459370683426L234.64568226856844,46.70289824876028L235.13243013718022,48.61507486464606L235.36097810547872,46.691254654458845L235.58912057727105,44.08510553158945L235.8164013689877,47.99621028736556L236.29772572182927,40.14991194915706L236.78051999950574,38.82100241877134L237.00582399575475,45.98497978130811L237.4860839202676,38.94982803506747L237.7113372294533,46.42018987423921L238.192864330548,46.00298092096432L238.41776283029083,34.02251608584325L238.89989817614472,42.75037817255824L254.24114886876708,43.42790519393L254.7186210047999,49.159220425734645L254.94078240312598,38.60354420699875L255.41997789931008,42.14834799440064L255.64330510009142,41.284531401216555L256.12199372564277,34.19368565278563L256.6001754805614,36.30314459992991L257.0784079225433,45.62983031258864L257.3015323750716,41.75170383515095L257.5247582017264,44.91550731086147L257.7478319671914,35.666509056295666L258.22530410322423,44.277244680088984L258.7032831098897,42.97781320644188L258.92655962360783,32.37250686148457L259.40469069146314,42.14218093729622L259.6298933135857,41.90478495532241L259.85438631682234,40.423183218276336L260.33839708401734,38.15959546558375L260.8239284631106,41.01550643267754L261.0523750572825,42.67439717170788L261.2884753980087,39.78801602157171L261.77664250439216,33.210432926644614L262.0072686422848,48.81479385810667L262.23809752843067,37.11788665762273L262.46958534639896,42.627775172439584L262.7006676678611,32.87571332277304L263.19086225677546,39.98409192724475L263.42077877578237,42.463566363644674L263.90990893636797,36.615180227991345L264.1404337001341,32.18579662811942L264.3713132733432,43.9168170994333L264.60122979235007,43.59881283952819L265.0908161365051,53.31577722907143L265.58014904534383,36.132879852176615L265.9573114831591,45.298928410734106" style="fill: none;" fill="none"></path></g></g></g></g></g></g><g transform="translate(46, 177)" clip-path="url(#clip_1)"><clipPath id="clip_1"><rect width="284" height="23"></rect></clipPath><g><g><line x1="12.521995117555504" y1="0" x2="12.521995117555504" y2="5" style="visibility: inherit;" fill="rgb(0, 0, 0)" stroke="rgb(204, 204, 204)" stroke-width="1px"></line><line x1="37.86552675411587" y1="0" x2="37.86552675411587" y2="5" style="visibility: inherit;" fill="rgb(0, 0, 0)" stroke="rgb(204, 204, 204)" stroke-width="1px"></line><line x1="63.209058390676226" y1="0" x2="63.209058390676226" y2="5" style="visibility: inherit;" fill="rgb(0, 0, 0)" stroke="rgb(204, 204, 204)" stroke-width="1px"></line><line x1="88.55259002723659" y1="0" x2="88.55259002723659" y2="5" style="visibility: inherit;" fill="rgb(0, 0, 0)" stroke="rgb(204, 204, 204)" stroke-width="1px"></line><line x1="113.89612166379695" y1="0" x2="113.89612166379695" y2="5" style="visibility: inherit;" fill="rgb(0, 0, 0)" stroke="rgb(204, 204, 204)" stroke-width="1px"></line><line x1="139.2396533003573" y1="0" x2="139.2396533003573" y2="5" style="visibility: inherit;" fill="rgb(0, 0, 0)" stroke="rgb(204, 204, 204)" stroke-width="1px"></line><line x1="164.5831849369177" y1="0" x2="164.5831849369177" y2="5" style="visibility: inherit;" fill="rgb(0, 0, 0)" stroke="rgb(204, 204, 204)" stroke-width="1px"></line><line x1="189.92671657347805" y1="0" x2="189.92671657347805" y2="5" style="visibility: inherit;" fill="rgb(0, 0, 0)" stroke="rgb(204, 204, 204)" stroke-width="1px"></line><line x1="215.27024821003843" y1="0" x2="215.27024821003843" y2="5" style="visibility: inherit;" fill="rgb(0, 0, 0)" stroke="rgb(204, 204, 204)" stroke-width="1px"></line><line x1="240.61377984659876" y1="0" x2="240.61377984659876" y2="5" style="visibility: inherit;" fill="rgb(0, 0, 0)" stroke="rgb(204, 204, 204)" stroke-width="1px"></line><line x1="265.9573114831591" y1="0" x2="265.9573114831591" y2="5" style="visibility: inherit;" fill="rgb(0, 0, 0)" stroke="rgb(204, 204, 204)" stroke-width="1px"></line></g><g transform="translate(0, 8)"><text x="12.521995117555504" y="0" dx="0em" dy="0.95em" style="text-anchor: middle; visibility: inherit; font-family: &quot;Helvetica Neue&quot;, sans-serif; font-size: 12px; font-weight: 200;" fill="rgb(50, 49, 63)" stroke="none" stroke-width="1px">0</text><text x="37.86552675411587" y="0" dx="0em" dy="0.95em" style="text-anchor: middle; visibility: hidden; font-family: &quot;Helvetica Neue&quot;, sans-serif; font-size: 12px; font-weight: 200;" fill="rgb(50, 49, 63)" stroke="none" stroke-width="1px">500k</text><text x="63.209058390676226" y="0" dx="0em" dy="0.95em" style="text-anchor: middle; visibility: inherit; font-family: &quot;Helvetica Neue&quot;, sans-serif; font-size: 12px; font-weight: 200;" fill="rgb(50, 49, 63)" stroke="none" stroke-width="1px">1M</text><text x="88.55259002723659" y="0" dx="0em" dy="0.95em" style="text-anchor: middle; visibility: hidden; font-family: &quot;Helvetica Neue&quot;, sans-serif; font-size: 12px; font-weight: 200;" fill="rgb(50, 49, 63)" stroke="none" stroke-width="1px">1.5M</text><text x="113.89612166379695" y="0" dx="0em" dy="0.95em" style="text-anchor: middle; visibility: inherit; font-family: &quot;Helvetica Neue&quot;, sans-serif; font-size: 12px; font-weight: 200;" fill="rgb(50, 49, 63)" stroke="none" stroke-width="1px">2M</text><text x="139.2396533003573" y="0" dx="0em" dy="0.95em" style="text-anchor: middle; visibility: hidden; font-family: &quot;Helvetica Neue&quot;, sans-serif; font-size: 12px; font-weight: 200;" fill="rgb(50, 49, 63)" stroke="none" stroke-width="1px">2.5M</text><text x="164.5831849369177" y="0" dx="0em" dy="0.95em" style="text-anchor: middle; visibility: inherit; font-family: &quot;Helvetica Neue&quot;, sans-serif; font-size: 12px; font-weight: 200;" fill="rgb(50, 49, 63)" stroke="none" stroke-width="1px">3M</text><text x="189.92671657347805" y="0" dx="0em" dy="0.95em" style="text-anchor: middle; visibility: hidden; font-family: &quot;Helvetica Neue&quot;, sans-serif; font-size: 12px; font-weight: 200;" fill="rgb(50, 49, 63)" stroke="none" stroke-width="1px">3.5M</text><text x="215.27024821003843" y="0" dx="0em" dy="0.95em" style="text-anchor: middle; visibility: inherit; font-family: &quot;Helvetica Neue&quot;, sans-serif; font-size: 12px; font-weight: 200;" fill="rgb(50, 49, 63)" stroke="none" stroke-width="1px">4M</text><text x="240.61377984659876" y="0" dx="0em" dy="0.95em" style="text-anchor: middle; visibility: hidden; font-family: &quot;Helvetica Neue&quot;, sans-serif; font-size: 12px; font-weight: 200;" fill="rgb(50, 49, 63)" stroke="none" stroke-width="1px">4.5M</text><text x="265.9573114831591" y="0" dx="0em" dy="0.95em" style="text-anchor: middle; visibility: inherit; font-family: &quot;Helvetica Neue&quot;, sans-serif; font-size: 12px; font-weight: 200;" fill="rgb(50, 49, 63)" stroke="none" stroke-width="1px">5M</text></g><line x1="0" y1="0" x2="284" y2="0" fill="rgb(0, 0, 0)" stroke="rgb(204, 204, 204)" stroke-width="1px"></line></g></g></g></g></svg>