<svg viewBox="0 0 330 200" xmlns="http://www.w3.org/2000/svg"><g><g><g><g><g><line x1="46" y1="177" x2="41" y2="177" style="visibility: inherit;" fill="rgb(0, 0, 0)" stroke="rgb(204, 204, 204)" stroke-width="1px"></line><line x1="46" y1="159.3" x2="41" y2="159.3" style="visibility: inherit;" fill="rgb(0, 0, 0)" stroke="rgb(204, 204, 204)" stroke-width="1px"></line><line x1="46" y1="141.60000000000002" x2="41" y2="141.60000000000002" style="visibility: inherit;" fill="rgb(0, 0, 0)" stroke="rgb(204, 204, 204)" stroke-width="1px"></line><line x1="46" y1="123.89999999999999" x2="41" y2="123.89999999999999" style="visibility: inherit;" fill="rgb(0, 0, 0)" stroke="rgb(204, 204, 204)" stroke-width="1px"></line><line x1="46" y1="106.2" x2="41" y2="106.2" style="visibility: inherit;" fill="rgb(0, 0, 0)" stroke="rgb(204, 204, 204)" stroke-width="1px"></line><line x1="46" y1="88.5" x2="41" y2="88.5" style="visibility: inherit;" fill="rgb(0, 0, 0)" stroke="rgb(204, 204, 204)" stroke-width="1px"></line><line x1="46" y1="70.79999999999998" x2="41" y2="70.79999999999998" style="visibility: inherit;" fill="rgb(0, 0, 0)" stroke="rgb(204, 204, 204)" stroke-width="1px"></line><line x1="46" y1="53.10000000000001" x2="41" y2="53.10000000000001" style="visibility: inherit;" fill="rgb(0, 0, 0)" stroke="rgb(204, 204, 204)" stroke-width="1px"></line><line x1="46" y1="35.400000000000006" x2="41" y2="35.400000000000006" style="visibility: inherit;" fill="rgb(0, 0, 0)" stroke="rgb(204, 204, 204)" stroke-width="1px"></line><line x1="46" y1="17.700000000000017" x2="41" y2="17.700000000000017" style="visibility: inherit;" fill="rgb(0, 0, 0)" stroke="rgb(204, 204, 204)" stroke-width="1px"></line><line x1="46" y1="0" x2="41" y2="0" style="visibility: inherit;" fill="rgb(0, 0, 0)" stroke="rgb(204, 204, 204)" stroke-width="1px"></line></g><g transform="translate(36, 0)"><text x="0" y="177" dx="0em" dy="0.3em" style="text-anchor: end; visibility: hidden; font-family: &quot;Helvetica Neue&quot;, sans-serif; font-size: 12px; font-weight: 200;" fill="rgb(50, 49, 63)" stroke="none" stroke-width="1px">0.25</text><text x="0" y="159.3" dx="0em" dy="0.3em" style="text-anchor: end; visibility: inherit; font-family: &quot;Helvetica Neue&quot;, sans-serif; font-size: 12px; font-weight: 200;" fill="rgb(50, 49, 63)" stroke="none" stroke-width="1px">0.3</text><text x="0" y="141.60000000000002" dx="0em" dy="0.3em" style="text-anchor: end; visibility: hidden; font-family: &quot;Helvetica Neue&quot;, sans-serif; font-size: 12px; font-weight: 200;" fill="rgb(50, 49, 63)" stroke="none" stroke-width="1px">0.35</text><text x="0" y="123.89999999999999" dx="0em" dy="0.3em" style="text-anchor: end; visibility: inherit; font-family: &quot;Helvetica Neue&quot;, sans-serif; font-size: 12px; font-weight: 200;" fill="rgb(50, 49, 63)" stroke="none" stroke-width="1px">0.4</text><text x="0" y="106.2" dx="0em" dy="0.3em" style="text-anchor: end; visibility: hidden; font-family: &quot;Helvetica Neue&quot;, sans-serif; font-size: 12px; font-weight: 200;" fill="rgb(50, 49, 63)" stroke="none" stroke-width="1px">0.45</text><text x="0" y="88.5" dx="0em" dy="0.3em" style="text-anchor: end; visibility: inherit; font-family: &quot;Helvetica Neue&quot;, sans-serif; font-size: 12px; font-weight: 200;" fill="rgb(50, 49, 63)" stroke="none" stroke-width="1px">0.5</text><text x="0" y="70.79999999999998" dx="0em" dy="0.3em" style="text-anchor: end; visibility: hidden; font-family: &quot;Helvetica Neue&quot;, sans-serif; font-size: 12px; font-weight: 200;" fill="rgb(50, 49, 63)" stroke="none" stroke-width="1px">0.55</text><text x="0" y="53.10000000000001" dx="0em" dy="0.3em" style="text-anchor: end; visibility: inherit; font-family: &quot;Helvetica Neue&quot;, sans-serif; font-size: 12px; font-weight: 200;" fill="rgb(50, 49, 63)" stroke="none" stroke-width="1px">0.6</text><text x="0" y="35.400000000000006" dx="0em" dy="0.3em" style="text-anchor: end; visibility: hidden; font-family: &quot;Helvetica Neue&quot;, sans-serif; font-size: 12px; font-weight: 200;" fill="rgb(50, 49, 63)" stroke="none" stroke-width="1px">0.65</text><text x="0" y="17.700000000000017" dx="0em" dy="0.3em" style="text-anchor: end; visibility: inherit; font-family: &quot;Helvetica Neue&quot;, sans-serif; font-size: 12px; font-weight: 200;" fill="rgb(50, 49, 63)" stroke="none" stroke-width="1px">0.7</text><text x="0" y="0" dx="0em" dy="0.3em" style="text-anchor: end; visibility: hidden; font-family: &quot;Helvetica Neue&quot;, sans-serif; font-size: 12px; font-weight: 200;" fill="rgb(50, 49, 63)" stroke="none" stroke-width="1px">0.75</text></g><line x1="46" y1="0" x2="46" y2="177" fill="rgb(0, 0, 0)" stroke="rgb(204, 204, 204)" stroke-width="1px"></line></g></g><g transform="translate(46, 0)" clip-path="url(#clip_0)"><clipPath id="clip_0"><rect width="284" height="177"></rect></clipPath><g><g><g><line x1="0" y1="0" x2="0" y2="177" fill="rgb(0, 0, 0)" stroke="rgb(60, 60, 60)" stroke-width="1px" opacity="0.25"></line><line x1="23.666666666666664" y1="0" x2="23.666666666666664" y2="177" fill="rgb(0, 0, 0)" stroke="rgb(60, 60, 60)" stroke-width="1px" opacity="0.25"></line><line x1="47.33333333333333" y1="0" x2="47.33333333333333" y2="177" fill="rgb(0, 0, 0)" stroke="rgb(60, 60, 60)" stroke-width="1px" opacity="0.25"></line><line x1="71" y1="0" x2="71" y2="177" fill="rgb(0, 0, 0)" stroke="rgb(60, 60, 60)" stroke-width="1px" opacity="0.25"></line><line x1="94.66666666666666" y1="0" x2="94.66666666666666" y2="177" fill="rgb(0, 0, 0)" stroke="rgb(60, 60, 60)" stroke-width="1px" opacity="0.25"></line><line x1="118.33333333333334" y1="0" x2="118.33333333333334" y2="177" fill="rgb(0, 0, 0)" stroke="rgb(60, 60, 60)" stroke-width="1px" opacity="0.25"></line><line x1="142" y1="0" x2="142" y2="177" fill="rgb(0, 0, 0)" stroke="rgb(60, 60, 60)" stroke-width="1px" opacity="0.25"></line><line x1="165.66666666666669" y1="0" x2="165.66666666666669" y2="177" fill="rgb(0, 0, 0)" stroke="rgb(60, 60, 60)" stroke-width="1px" opacity="0.25"></line><line x1="189.33333333333331" y1="0" x2="189.33333333333331" y2="177" fill="rgb(0, 0, 0)" stroke="rgb(60, 60, 60)" stroke-width="1px" opacity="0.25"></line><line x1="213" y1="0" x2="213" y2="177" fill="rgb(0, 0, 0)" stroke="rgb(60, 60, 60)" stroke-width="1px" opacity="0.25"></line><line x1="236.66666666666669" y1="0" x2="236.66666666666669" y2="177" fill="rgb(0, 0, 0)" stroke="rgb(60, 60, 60)" stroke-width="1px" opacity="0.25"></line><line x1="260.3333333333333" y1="0" x2="260.3333333333333" y2="177" fill="rgb(0, 0, 0)" stroke="rgb(60, 60, 60)" stroke-width="1px" opacity="0.25"></line><line x1="284" y1="0" x2="284" y2="177" fill="rgb(0, 0, 0)" stroke="rgb(60, 60, 60)" stroke-width="1px" opacity="0.25"></line></g><g><line x1="0" y1="177" x2="284" y2="177" fill="rgb(0, 0, 0)" stroke="rgb(60, 60, 60)" stroke-width="1px" opacity="0.25"></line><line x1="0" y1="159.3" x2="284" y2="159.3" fill="rgb(0, 0, 0)" stroke="rgb(60, 60, 60)" stroke-width="1px" opacity="0.25"></line><line x1="0" y1="141.60000000000002" x2="284" y2="141.60000000000002" fill="rgb(0, 0, 0)" stroke="rgb(60, 60, 60)" stroke-width="1px" opacity="0.25"></line><line x1="0" y1="123.89999999999999" x2="284" y2="123.89999999999999" fill="rgb(0, 0, 0)" stroke="rgb(60, 60, 60)" stroke-width="1px" opacity="0.25"></line><line x1="0" y1="106.2" x2="284" y2="106.2" fill="rgb(0, 0, 0)" stroke="rgb(60, 60, 60)" stroke-width="1px" opacity="0.25"></line><line x1="0" y1="88.5" x2="284" y2="88.5" fill="rgb(0, 0, 0)" stroke="rgb(60, 60, 60)" stroke-width="1px" opacity="0.25"></line><line x1="0" y1="70.79999999999998" x2="284" y2="70.79999999999998" fill="rgb(0, 0, 0)" stroke="rgb(60, 60, 60)" stroke-width="1px" opacity="0.25"></line><line x1="0" y1="53.10000000000001" x2="284" y2="53.10000000000001" fill="rgb(0, 0, 0)" stroke="rgb(60, 60, 60)" stroke-width="1px" opacity="0.25"></line><line x1="0" y1="35.400000000000006" x2="284" y2="35.400000000000006" fill="rgb(0, 0, 0)" stroke="rgb(60, 60, 60)" stroke-width="1px" opacity="0.25"></line><line x1="0" y1="17.700000000000017" x2="284" y2="17.700000000000017" fill="rgb(0, 0, 0)" stroke="rgb(60, 60, 60)" stroke-width="1px" opacity="0.25"></line><line x1="0" y1="0" x2="284" y2="0" fill="rgb(0, 0, 0)" stroke="rgb(60, 60, 60)" stroke-width="1px" opacity="0.25"></line></g></g></g><g><g><line x1="0" y1="265.5" x2="284" y2="265.5" fill="rgb(0, 0, 0)" stroke="rgb(153, 153, 153)" stroke-width="1.5px"></line></g></g><g><g><line x1="23.666666666666664" y1="0" x2="23.666666666666664" y2="177" fill="rgb(0, 0, 0)" stroke="rgb(153, 153, 153)" stroke-width="1.5px"></line></g></g><g><g><g><g><g><path stroke="rgb(0, 119, 187)" stroke-width="2px" d="M28.786902666666666,162.686088681221L29.231173333333334,159.75719776242036L29.44157,162.90228905006393L29.88532,150.8658873443696L30.096805333333332,153.02732126045302L30.306397333333333,156.93520444397694L30.747638666666667,148.51676244629923L30.957420000000003,150.2053442447538L31.400507333333334,147.297161726419L31.610951333333333,142.83997243613095L32.05384933333333,140.2756314763275L32.49580066666667,140.21788741579962L32.939787333333335,131.96235511119164L33.38330066666667,132.92892207199498L33.82719266666667,124.36047302327756L34.27193666666667,123.12013158097618L34.47939866666667,143.06757032350333L34.91955133333334,125.5348299800481L35.127534000000004,121.64636003255997L35.334428,129.33547881656182L35.771456666666666,116.28977666592675L36.20720733333333,127.30952733835677L36.414101333333335,117.86619155059394L36.850277999999996,124.03046770130553L37.05660400000001,109.30030750671014L37.493301333333335,115.70617686374374L37.698586000000006,107.92635348830456L37.901362,112.34967572908685L38.33749133333333,121.99635966790194L38.772957999999996,116.57276748528875L69.25231133333334,71.52770605532778L69.68318666666666,74.48869508994892L69.88492133333334,79.167679485869L70.316554,70.64248906949834L70.51715266666666,73.71323581127687L70.71850866666666,70.94857102158672L70.91943866666666,72.92550546198757L126.55527533333334,57.25146761580065L126.99604333333333,58.71607866322233L127.20170666666667,58.20651524714826L127.40746466666667,59.6411539377179L127.843594,61.10193964321728L128.04859466666667,57.89001023447955L128.48548133333333,58.164385757282375L128.92142133333334,57.95927693565008L129.12590133333333,61.016163916111836L129.33085466666668,57.30137709290459L129.53486133333334,58.134365467062025L129.73976733333333,59.27231769273618L164.56602466666666,53.633882166047954L164.75583133333336,56.92488072365137L165.17108666666667,55.33996593555342L165.36486933333336,57.6691768918398L165.55869933333332,57.130680754666756L165.97101999999998,55.5695436864884L166.38826333333333,53.07988408553199L166.80669,49.812536599067116L167.00198733333335,56.14573352024277L167.19666933333335,58.00240032840523L167.39149333333333,52.18151727212873L167.586696,51.373420973217165L169.8186046666667,48.630037161747026L170.04675133333333,51.411397460882895L170.27423533333334,53.01387326092822L213.910362,35.71405696639161L214.11422666666664,36.94967865610329L214.320032,36.86664072937643L222.68184399999998,37.227562401310735L222.89261933333333,38.414466541622545L223.10547733333334,36.430113648496416L223.5592146666667,36.328911650946964L223.77188333333334,36.32375034907193L223.98478866666667,36.1044051733231L224.43833666666666,37.26171570440306L224.6503426666667,33.66915245557257L225.10384333333332,36.18810263010786L225.55786466666666,34.709868007375604L225.76949199999999,37.19059430893975L225.98315466666668,37.90136992981206L226.19610733333334,38.44883072557607L226.65282666666667,33.87576997849655L226.86663133333332,38.97385836439574L227.0799626666667,35.94743139235834L227.535404,37.10765540867175L227.74892466666665,37.751065389054276L228.20417666666665,36.54235484655956L228.658908,35.38522076635826L228.87299666666667,39.26992230392986L229.08647000000002,37.49618439451507L229.29946999999999,38.136056997471655L229.51308533333332,36.70804405149104L229.968574,38.68010039552797L230.42387333333335,35.567293129748776L230.63786733333333,37.74555425322228L231.09345066666666,37.27238699102685L231.54799266666666,37.97856867304961L231.76141866666666,36.48091017365027L231.974466,38.15730532865862L232.18670866666668,37.439440928776264L232.63618599999998,37.03767323818491L233.087036,35.62958397762637L233.29743266666668,38.55207161530984L233.74591600000002,37.38654669294439L233.95626533333333,37.61923421165005L234.405932,37.411999301808834L234.61595,37.036273715209575L235.0661846666667,38.40471081863137L249.39237533333335,36.06445950042652L249.83825533333334,38.136066344324206L250.04571733333336,38.89900418930662L250.49320666666668,37.62334222751343L250.70175733333332,36.90099757151836L251.14877333333334,36.352926731021114L251.595316,36.03284582840948L252.04190599999998,37.69625010046087L252.25026733333334,37.26987247923606L252.45872333333332,36.152657401961505L252.66703733333333,37.191149251612586L253.11291733333331,37.90139823188838L253.5592706666667,39.325220038220806L253.767774,36.549589393274005L254.21426933333333,37.50352207291576L254.42457133333335,37.4791453231264L254.63421066666666,37.33182745204303L255.0861966666667,36.520973711772L255.53960266666667,37.136906066961814L255.752934,37.022243960232345L255.97341266666666,39.7185670930148L256.42928,38.03029654179991L256.6446466666667,38.6014806396316L256.8602026666667,38.703638345072136L257.076374,38.197637148950065L257.2921666666667,37.514545192004164L257.74992733333335,37.47970750219994L257.96463133333333,35.798182357993255L258.421398,37.97641155321597L258.63667,38.52570518876274L258.85227333333336,36.28973218659843L259.06697733333334,35.44538435109334L259.52416999999997,36.35171777323052L259.981126,35.95975685511104L260.3333333333333,38.49588311561047" style="fill: none;" fill="none"></path></g></g></g></g><g opacity="0.2"><g><g><g><path stroke="rgb(0, 119, 187)" stroke-width="2px" d="M28.786902666666666,162.686088681221L29.231173333333334,159.60782432556152L29.44157,163.0708690881729L29.88532,150.21912753582L30.096805333333332,153.1434776186943L30.306397333333333,157.14521706104279L30.747638666666667,148.06434881687164L30.957420000000003,150.29608994722366L31.400507333333334,147.14087373018265L31.610951333333333,142.60043960809708L32.05384933333333,140.1378217935562L32.49580066666667,140.21478420495987L32.939787333333335,131.51869636774063L33.38330066666667,132.98086613416672L33.82719266666667,123.89999788999557L34.27193666666667,123.05347466468811L34.47939866666667,144.1395612359047L34.91955133333334,124.59260684251785L35.127534000000004,121.43739062547684L35.334428,129.74869805574417L35.771456666666666,115.58869045972824L36.20720733333333,127.90173733234406L36.414101333333335,117.35869932174683L36.850277999999996,124.36174070835114L37.05660400000001,108.5086972117424L37.493301333333335,116.0504332780838L37.698586000000006,107.50825971364975L37.901362,112.58738851547241L38.33749133333333,122.51477998495102L38.772957999999996,116.28129941225052L69.25231133333334,69.10694932937622L69.68318666666666,74.64782094955444L69.88492133333334,79.41913175582886L70.316554,70.1843386888504L70.51715266666666,73.87826013565063L70.71850866666666,70.79999577999115L70.91943866666666,73.0317474603653L126.55527533333334,56.40913259983063L126.99604333333333,58.794788002967834L127.20170666666667,58.17913091182709L127.40746466666667,59.718252539634705L127.843594,61.18044340610504L128.04859466666667,57.71739864349365L128.48548133333333,58.17913091182709L128.92142133333334,57.948254227638245L129.12590133333333,61.18044340610504L129.33085466666668,57.101741552352905L129.53486133333334,58.17913091182709L129.73976733333333,59.3334721326828L164.56602466666666,53.33086824417114L164.75583133333336,57.101741552352905L165.17108666666667,55.254791378974915L165.36486933333336,57.79435050487518L165.55869933333332,57.101741552352905L165.97101999999998,55.48564696311951L166.38826333333333,52.94608783721924L166.80669,49.63694679737091L167.00198733333335,56.48608446121216L167.19666933333335,58.10217905044556L167.39149333333333,51.868698477745056L167.586696,51.32999324798584L169.8186046666667,48.4826055765152L170.04675133333333,51.56086993217468L170.27423533333334,53.0999915599823L213.910362,34.78435134887695L214.11422666666664,37.01608192920685L214.320032,36.86217820644379L222.68184399999998,37.24695861339569L222.89261933333333,38.478251695632935L223.10547733333334,36.32347297668457L223.5592146666667,36.32347297668457L223.77188333333334,36.32347297668457L223.98478866666667,36.09261739253998L224.43833666666666,37.32391047477722L224.6503426666667,33.47608530521393L225.10384333333332,36.32347297668457L225.55786466666666,34.63042652606964L225.76949199999999,37.32391047477722L225.98315466666668,37.93956756591797L226.19610733333334,38.478251695632935L226.65282666666667,33.63001012802124L226.86663133333332,39.247833609580994L227.0799626666667,35.784788846969604L227.535404,37.17000675201416L227.74892466666665,37.78564274311066L228.20417666666665,36.47739779949188L228.658908,35.32303547859192L228.87299666666667,39.478689193725586L229.08647000000002,37.40086233615875L229.29946999999999,38.17044425010681L229.51308533333332,36.631301522254944L229.968574,38.78608024120331L230.42387333333335,35.4000084400177L230.63786733333333,37.86261570453644L231.09345066666666,37.24695861339569L231.54799266666666,38.0165194272995L231.76141866666666,36.4004248380661L231.974466,38.24739611148834L232.18670866666668,37.40086233615875L232.63618599999998,37.01608192920685L233.087036,35.55391216278076L233.29743266666668,38.70912837982178L233.74591600000002,37.32391047477722L233.95626533333333,37.631739020347595L234.405932,37.40086233615875L234.61595,37.01608192920685L235.0661846666667,38.478251695632935L249.39237533333335,35.938692569732666L249.83825533333334,38.24739611148834L250.04571733333336,38.94000506401062L250.49320666666668,37.554787158966064L250.70175733333332,36.86217820644379L251.14877333333334,36.32347297668457L251.595316,36.0156444311142L252.04190599999998,37.78564274311066L252.25026733333334,37.24695861339569L252.45872333333332,36.09261739253998L252.66703733333333,37.24695861339569L253.11291733333331,37.93956756591797L253.5592706666667,39.401737332344055L253.767774,36.4004248380661L254.21426933333333,37.554787158966064L254.42457133333335,37.477835297584534L254.63421066666666,37.32391047477722L255.0861966666667,36.47739779949188L255.53960266666667,37.17000675201416L255.752934,37.01608192920685L255.97341266666666,39.86346960067749L256.42928,37.93956756591797L256.6446466666667,38.63217651844025L256.8602026666667,38.70912837982178L257.076374,38.17044425010681L257.2921666666667,37.477835297584534L257.74992733333335,37.477835297584534L257.96463133333333,35.70781588554382L258.421398,38.09347128868103L258.63667,38.555224657058716L258.85227333333336,36.16956925392151L259.06697733333334,35.4000084400177L259.52416999999997,36.4004248380661L259.981126,35.938692569732666L260.3333333333333,38.63217651844025" style="fill: none;" fill="none"></path></g></g></g></g></g></g><g transform="translate(46, 177)" clip-path="url(#clip_1)"><clipPath id="clip_1"><rect width="284" height="23"></rect></clipPath><g><g><line x1="0" y1="0" x2="0" y2="5" style="visibility: inherit;" fill="rgb(0, 0, 0)" stroke="rgb(204, 204, 204)" stroke-width="1px"></line><line x1="23.666666666666664" y1="0" x2="23.666666666666664" y2="5" style="visibility: inherit;" fill="rgb(0, 0, 0)" stroke="rgb(204, 204, 204)" stroke-width="1px"></line><line x1="47.33333333333333" y1="0" x2="47.33333333333333" y2="5" style="visibility: inherit;" fill="rgb(0, 0, 0)" stroke="rgb(204, 204, 204)" stroke-width="1px"></line><line x1="71" y1="0" x2="71" y2="5" style="visibility: inherit;" fill="rgb(0, 0, 0)" stroke="rgb(204, 204, 204)" stroke-width="1px"></line><line x1="94.66666666666666" y1="0" x2="94.66666666666666" y2="5" style="visibility: inherit;" fill="rgb(0, 0, 0)" stroke="rgb(204, 204, 204)" stroke-width="1px"></line><line x1="118.33333333333334" y1="0" x2="118.33333333333334" y2="5" style="visibility: inherit;" fill="rgb(0, 0, 0)" stroke="rgb(204, 204, 204)" stroke-width="1px"></line><line x1="142" y1="0" x2="142" y2="5" style="visibility: inherit;" fill="rgb(0, 0, 0)" stroke="rgb(204, 204, 204)" stroke-width="1px"></line><line x1="165.66666666666669" y1="0" x2="165.66666666666669" y2="5" style="visibility: inherit;" fill="rgb(0, 0, 0)" stroke="rgb(204, 204, 204)" stroke-width="1px"></line><line x1="189.33333333333331" y1="0" x2="189.33333333333331" y2="5" style="visibility: inherit;" fill="rgb(0, 0, 0)" stroke="rgb(204, 204, 204)" stroke-width="1px"></line><line x1="213" y1="0" x2="213" y2="5" style="visibility: inherit;" fill="rgb(0, 0, 0)" stroke="rgb(204, 204, 204)" stroke-width="1px"></line><line x1="236.66666666666669" y1="0" x2="236.66666666666669" y2="5" style="visibility: inherit;" fill="rgb(0, 0, 0)" stroke="rgb(204, 204, 204)" stroke-width="1px"></line><line x1="260.3333333333333" y1="0" x2="260.3333333333333" y2="5" style="visibility: inherit;" fill="rgb(0, 0, 0)" stroke="rgb(204, 204, 204)" stroke-width="1px"></line><line x1="284" y1="0" x2="284" y2="5" style="visibility: inherit;" fill="rgb(0, 0, 0)" stroke="rgb(204, 204, 204)" stroke-width="1px"></line></g><g transform="translate(0, 8)"><text x="0" y="0" dx="0em" dy="0.95em" style="text-anchor: middle; visibility: hidden; font-family: &quot;Helvetica Neue&quot;, sans-serif; font-size: 12px; font-weight: 200;" fill="rgb(50, 49, 63)" stroke="none" stroke-width="1px">-500k</text><text x="23.666666666666664" y="0" dx="0em" dy="0.95em" style="text-anchor: middle; visibility: inherit; font-family: &quot;Helvetica Neue&quot;, sans-serif; font-size: 12px; font-weight: 200;" fill="rgb(50, 49, 63)" stroke="none" stroke-width="1px">0</text><text x="47.33333333333333" y="0" dx="0em" dy="0.95em" style="text-anchor: middle; visibility: hidden; font-family: &quot;Helvetica Neue&quot;, sans-serif; font-size: 12px; font-weight: 200;" fill="rgb(50, 49, 63)" stroke="none" stroke-width="1px">500k</text><text x="71" y="0" dx="0em" dy="0.95em" style="text-anchor: middle; visibility: inherit; font-family: &quot;Helvetica Neue&quot;, sans-serif; font-size: 12px; font-weight: 200;" fill="rgb(50, 49, 63)" stroke="none" stroke-width="1px">1M</text><text x="94.66666666666666" y="0" dx="0em" dy="0.95em" style="text-anchor: middle; visibility: hidden; font-family: &quot;Helvetica Neue&quot;, sans-serif; font-size: 12px; font-weight: 200;" fill="rgb(50, 49, 63)" stroke="none" stroke-width="1px">1.5M</text><text x="118.33333333333334" y="0" dx="0em" dy="0.95em" style="text-anchor: middle; visibility: inherit; font-family: &quot;Helvetica Neue&quot;, sans-serif; font-size: 12px; font-weight: 200;" fill="rgb(50, 49, 63)" stroke="none" stroke-width="1px">2M</text><text x="142" y="0" dx="0em" dy="0.95em" style="text-anchor: middle; visibility: hidden; font-family: &quot;Helvetica Neue&quot;, sans-serif; font-size: 12px; font-weight: 200;" fill="rgb(50, 49, 63)" stroke="none" stroke-width="1px">2.5M</text><text x="165.66666666666669" y="0" dx="0em" dy="0.95em" style="text-anchor: middle; visibility: inherit; font-family: &quot;Helvetica Neue&quot;, sans-serif; font-size: 12px; font-weight: 200;" fill="rgb(50, 49, 63)" stroke="none" stroke-width="1px">3M</text><text x="189.33333333333331" y="0" dx="0em" dy="0.95em" style="text-anchor: middle; visibility: hidden; font-family: &quot;Helvetica Neue&quot;, sans-serif; font-size: 12px; font-weight: 200;" fill="rgb(50, 49, 63)" stroke="none" stroke-width="1px">3.5M</text><text x="213" y="0" dx="0em" dy="0.95em" style="text-anchor: middle; visibility: inherit; font-family: &quot;Helvetica Neue&quot;, sans-serif; font-size: 12px; font-weight: 200;" fill="rgb(50, 49, 63)" stroke="none" stroke-width="1px">4M</text><text x="236.66666666666669" y="0" dx="0em" dy="0.95em" style="text-anchor: middle; visibility: hidden; font-family: &quot;Helvetica Neue&quot;, sans-serif; font-size: 12px; font-weight: 200;" fill="rgb(50, 49, 63)" stroke="none" stroke-width="1px">4.5M</text><text x="260.3333333333333" y="0" dx="0em" dy="0.95em" style="text-anchor: middle; visibility: inherit; font-family: &quot;Helvetica Neue&quot;, sans-serif; font-size: 12px; font-weight: 200;" fill="rgb(50, 49, 63)" stroke="none" stroke-width="1px">5M</text><text x="284" y="0" dx="0em" dy="0.95em" style="text-anchor: middle; visibility: hidden; font-family: &quot;Helvetica Neue&quot;, sans-serif; font-size: 12px; font-weight: 200;" fill="rgb(50, 49, 63)" stroke="none" stroke-width="1px">5.5M</text></g><line x1="0" y1="0" x2="284" y2="0" fill="rgb(0, 0, 0)" stroke="rgb(204, 204, 204)" stroke-width="1px"></line></g></g></g></g></svg>