<svg viewBox="0 0 330 200" xmlns="http://www.w3.org/2000/svg"><g><g><g><g><g><line x1="46" y1="160.98265670444405" x2="41" y2="160.98265670444405" style="visibility: inherit;" fill="rgb(0, 0, 0)" stroke="rgb(204, 204, 204)" stroke-width="1px"></line><line x1="46" y1="133.44255353837858" x2="41" y2="133.44255353837858" style="visibility: inherit;" fill="rgb(0, 0, 0)" stroke="rgb(204, 204, 204)" stroke-width="1px"></line><line x1="46" y1="105.9024503723131" x2="41" y2="105.9024503723131" style="visibility: inherit;" fill="rgb(0, 0, 0)" stroke="rgb(204, 204, 204)" stroke-width="1px"></line><line x1="46" y1="78.36234720624762" x2="41" y2="78.36234720624762" style="visibility: inherit;" fill="rgb(0, 0, 0)" stroke="rgb(204, 204, 204)" stroke-width="1px"></line><line x1="46" y1="50.82224404018213" x2="41" y2="50.82224404018213" style="visibility: inherit;" fill="rgb(0, 0, 0)" stroke="rgb(204, 204, 204)" stroke-width="1px"></line><line x1="46" y1="23.282140874116664" x2="41" y2="23.282140874116664" style="visibility: inherit;" fill="rgb(0, 0, 0)" stroke="rgb(204, 204, 204)" stroke-width="1px"></line></g><g transform="translate(36, 0)"><text x="0" y="160.98265670444405" dx="0em" dy="0.3em" style="text-anchor: end; visibility: inherit; font-family: &quot;Helvetica Neue&quot;, sans-serif; font-size: 12px; font-weight: 200;" fill="rgb(50, 49, 63)" stroke="none" stroke-width="1px">0</text><text x="0" y="133.44255353837858" dx="0em" dy="0.3em" style="text-anchor: end; visibility: inherit; font-family: &quot;Helvetica Neue&quot;, sans-serif; font-size: 12px; font-weight: 200;" fill="rgb(50, 49, 63)" stroke="none" stroke-width="1px">0.05</text><text x="0" y="105.9024503723131" dx="0em" dy="0.3em" style="text-anchor: end; visibility: inherit; font-family: &quot;Helvetica Neue&quot;, sans-serif; font-size: 12px; font-weight: 200;" fill="rgb(50, 49, 63)" stroke="none" stroke-width="1px">0.1</text><text x="0" y="78.36234720624762" dx="0em" dy="0.3em" style="text-anchor: end; visibility: inherit; font-family: &quot;Helvetica Neue&quot;, sans-serif; font-size: 12px; font-weight: 200;" fill="rgb(50, 49, 63)" stroke="none" stroke-width="1px">0.15</text><text x="0" y="50.82224404018213" dx="0em" dy="0.3em" style="text-anchor: end; visibility: inherit; font-family: &quot;Helvetica Neue&quot;, sans-serif; font-size: 12px; font-weight: 200;" fill="rgb(50, 49, 63)" stroke="none" stroke-width="1px">0.2</text><text x="0" y="23.282140874116664" dx="0em" dy="0.3em" style="text-anchor: end; visibility: inherit; font-family: &quot;Helvetica Neue&quot;, sans-serif; font-size: 12px; font-weight: 200;" fill="rgb(50, 49, 63)" stroke="none" stroke-width="1px">0.25</text></g><line x1="46" y1="0" x2="46" y2="177" fill="rgb(0, 0, 0)" stroke="rgb(204, 204, 204)" stroke-width="1px"></line></g></g><g transform="translate(46, 0)" clip-path="url(#clip_0)"><clipPath id="clip_0"><rect width="284" height="177"></rect></clipPath><g><g><g><line x1="10.33383326570893" y1="0" x2="10.33383326570893" y2="177" fill="rgb(0, 0, 0)" stroke="rgb(60, 60, 60)" stroke-width="1px" opacity="0.25"></line><line x1="35.851497045042" y1="0" x2="35.851497045042" y2="177" fill="rgb(0, 0, 0)" stroke="rgb(60, 60, 60)" stroke-width="1px" opacity="0.25"></line><line x1="61.36916082437506" y1="0" x2="61.36916082437506" y2="177" fill="rgb(0, 0, 0)" stroke="rgb(60, 60, 60)" stroke-width="1px" opacity="0.25"></line><line x1="86.88682460370812" y1="0" x2="86.88682460370812" y2="177" fill="rgb(0, 0, 0)" stroke="rgb(60, 60, 60)" stroke-width="1px" opacity="0.25"></line><line x1="112.40448838304117" y1="0" x2="112.40448838304117" y2="177" fill="rgb(0, 0, 0)" stroke="rgb(60, 60, 60)" stroke-width="1px" opacity="0.25"></line><line x1="137.92215216237423" y1="0" x2="137.92215216237423" y2="177" fill="rgb(0, 0, 0)" stroke="rgb(60, 60, 60)" stroke-width="1px" opacity="0.25"></line><line x1="163.4398159417073" y1="0" x2="163.4398159417073" y2="177" fill="rgb(0, 0, 0)" stroke="rgb(60, 60, 60)" stroke-width="1px" opacity="0.25"></line><line x1="188.95747972104036" y1="0" x2="188.95747972104036" y2="177" fill="rgb(0, 0, 0)" stroke="rgb(60, 60, 60)" stroke-width="1px" opacity="0.25"></line><line x1="214.47514350037343" y1="0" x2="214.47514350037343" y2="177" fill="rgb(0, 0, 0)" stroke="rgb(60, 60, 60)" stroke-width="1px" opacity="0.25"></line><line x1="239.99280727970648" y1="0" x2="239.99280727970648" y2="177" fill="rgb(0, 0, 0)" stroke="rgb(60, 60, 60)" stroke-width="1px" opacity="0.25"></line><line x1="265.51047105903956" y1="0" x2="265.51047105903956" y2="177" fill="rgb(0, 0, 0)" stroke="rgb(60, 60, 60)" stroke-width="1px" opacity="0.25"></line></g><g><line x1="0" y1="160.98265670444405" x2="284" y2="160.98265670444405" fill="rgb(0, 0, 0)" stroke="rgb(60, 60, 60)" stroke-width="1px" opacity="0.25"></line><line x1="0" y1="133.44255353837858" x2="284" y2="133.44255353837858" fill="rgb(0, 0, 0)" stroke="rgb(60, 60, 60)" stroke-width="1px" opacity="0.25"></line><line x1="0" y1="105.9024503723131" x2="284" y2="105.9024503723131" fill="rgb(0, 0, 0)" stroke="rgb(60, 60, 60)" stroke-width="1px" opacity="0.25"></line><line x1="0" y1="78.36234720624762" x2="284" y2="78.36234720624762" fill="rgb(0, 0, 0)" stroke="rgb(60, 60, 60)" stroke-width="1px" opacity="0.25"></line><line x1="0" y1="50.82224404018213" x2="284" y2="50.82224404018213" fill="rgb(0, 0, 0)" stroke="rgb(60, 60, 60)" stroke-width="1px" opacity="0.25"></line><line x1="0" y1="23.282140874116664" x2="284" y2="23.282140874116664" fill="rgb(0, 0, 0)" stroke="rgb(60, 60, 60)" stroke-width="1px" opacity="0.25"></line></g></g></g><g><g><line x1="0" y1="160.98265670444405" x2="284" y2="160.98265670444405" fill="rgb(0, 0, 0)" stroke="rgb(153, 153, 153)" stroke-width="1.5px"></line></g></g><g><g><line x1="10.33383326570893" y1="0" x2="10.33383326570893" y2="177" fill="rgb(0, 0, 0)" stroke="rgb(153, 153, 153)" stroke-width="1.5px"></line></g></g><g><g><g><g><g><path stroke="rgb(0, 119, 187)" stroke-width="2px" d="M15.854528789040081,149.3447214350873L16.333546373505722,150.1037253793723L16.560398404503992,153.21130744251184L17.038854600366488,149.44919396901133L17.266880443898607,152.5151582996553L17.492864874328383,152.11277580885132L17.968616197830265,150.62918157262544L18.194804769570275,151.7871960953146L18.67254647084695,150.37838602223604L18.89944953717278,148.92534100183929L19.376987097139217,149.614559969056L19.853503950554487,147.51709663150854L20.332215323054772,148.4505839729053L20.810416342279474,144.61463960632418L21.289025644124646,143.8365924901414L21.76855358186587,143.2383071693356L21.992241422555505,145.70126095873857L22.46681893352354,140.29864993038305L22.69106816281632,143.0204303602875L22.91414357957525,143.56337748902004L23.385352758924412,138.51412344254354L23.855183984429495,138.84430930472283L24.078259401188422,140.28549459460544L24.548549944641533,136.77753736621048L24.77101293746976,138.57410580688412L25.24186486952601,141.87658380761172L25.463205085147948,139.69455383858912L25.681840428409274,135.80349292638812L26.15207993653482,139.94065726275386L26.621604950074552,139.6029154194881L59.48478342492643,94.88258567520174L59.949358011692965,99.37293840739005L60.166870577748,104.72623815012476L60.63226172975548,92.67203332318707L60.848549447949104,101.26180660257747L61.06565373138368,90.23617029599095L61.282298696870214,98.75395177089901L121.26947788596416,64.88494583243276L121.74471885619046,73.92474734802518L121.96646735443285,64.16040494814338L122.18831792333037,63.85524026057314L122.65855743145593,81.89735143215991L122.87959143511252,70.85805324784887L123.350647508479,76.71927090899703L123.82068287529431,70.84007248705046L124.04115549034776,75.47375685394859L124.26213845867677,69.78473075564163L124.48210072045464,58.008490085525196L124.7030326534561,67.30971110557525L162.25309146998563,59.87751851638235L162.45774313349588,51.459524356307156L162.90547606216808,53.315796182348976L163.11441469319325,63.11135021252258L163.32340435954598,69.69042742090052L163.7679730979095,57.91888173734772L164.21784951033916,54.53982158513459L164.66900180595778,69.17263991051996L164.87957356746486,52.585102300132164L165.08948186971364,63.32782718257572L165.2995432779451,54.70307218322388L165.510012968797,61.67396332821683L167.91648176917082,74.58990854147329L168.16247204800356,84.46168843144446L168.40774783225052,86.15218550825128L215.45670595530925,54.47660602418013L215.67651511110444,56.909836401597744L215.8984167153295,44.112317517458564L224.91421561118835,32.50896758592356L225.14147592480708,41.83057270342968L225.37098179283842,40.962480554232684L225.86020644281578,52.051263833570445L226.08950816953688,47.16158422542853L226.31906507289577,57.87124463431718L226.8080855815629,46.186139670565325L227.03667281369815,42.96232204250546L227.52564228703775,40.237140120348556L228.01517314898047,47.068075276778586L228.24335209849525,44.36703484033532L228.47372556709507,48.81941147933338L228.70333350578153,37.552009170353074L229.1957733813951,42.063723171281424L229.42629995597758,44.71396514423853L229.65631617728448,43.170137738778436L230.14737809905398,41.447120593387694L230.3775984616711,42.71919889297604L230.86845624213038,41.3334275587051L231.35875263398648,31.839422394515452L231.58958542053432,53.820730782580654L231.81975474782394,58.18186264972694L232.0494137218379,51.82011132518727L232.27973615511016,51.656060951038896L232.7708491122072,47.64462185373506L233.261757927994,38.460353679294656L233.49248864388673,40.63512309063654L233.98370367163892,43.97858950385179L234.4737959221848,44.759655097685425L234.7039142141468,44.60886137805326L234.93362422348835,42.84158054690349L235.16246663226144,46.361068043852185L235.6470981027585,36.86038869872519L236.1332095977548,35.266598735905774L236.3600616287531,45.37463242905258L236.84362135737143,35.89935128033983L237.07042235304215,43.791299970979225L237.55525796484946,43.84863525431234L237.7817017132273,30.930895978768262L238.26714974896532,38.96133191495318L253.71380819983656,38.04119225122267L254.19456098543918,45.992239520434424L254.41824882612883,35.89147583070016L254.90073681286844,39.605446284322454L255.12559846609193,37.16656089637456L255.60757609955598,29.898952985382977L256.08904337974445,30.966038142126024L256.57056169526044,40.38885447151901L256.79521920717366,38.64738684242474L257.0199787897421,42.16002014829573L257.24458526632776,32.70673782919022L257.7253380519304,38.93660702359486L258.2066011908086,39.992782381219484L258.4314118087045,27.691823877714967L258.9128280535654,37.55617665847032L259.1395780139086,38.32431064101712L259.3656134796659,36.71206879946101L259.8529498225236,33.68332685771995L260.3418172252081,36.24743344714636L260.57183344651503,37.878832244449L260.8095560022833,34.77184479841293L261.30107724200076,27.9641266889534L261.5332879823927,44.60944586706003L261.76570286409486,31.56528345158364L261.9987812050553,38.75512408530517L262.2314512633953,28.934436227180527L262.7250139162151,34.35455551662599L262.95651016202123,36.55951543177673L263.44900107296235,32.8946756956972L263.68110974269916,27.092949059691534L263.9135756597289,38.76445163860623L264.145071905535,39.7628570770336L264.63802213442415,49.11344057633906L265.1307171866755,31.07802501294347L265.51047105903956,40.709716661399256" style="fill: none;" fill="none"></path></g></g></g></g><g opacity="0.2"><g><g><g><path stroke="rgb(0, 119, 187)" stroke-width="2px" d="M15.854528789040081,149.3447214350873L16.333546373505722,150.14243458053085L16.560398404503992,153.3778769486782L17.038854600366488,149.24704187660387L17.266880443898607,152.6799244988415L17.492864874328383,152.09115146749141L17.968616197830265,150.54945206291404L18.194804769570275,151.84942869869096L18.67254647084695,150.30267547036698L18.89944953717278,148.84725322940508L19.376987097139217,149.65159913378523L19.853503950554487,147.40437731621358L20.332215323054772,148.50075031053566L20.810416342279474,144.40849296491677L21.289025644124646,143.79477963142136L21.76855358186587,143.20615484967163L21.992241422555505,145.83362201591407L22.46681893352354,140.00830940093508L22.69106816281632,143.1667009629483L22.91414357957525,143.59255589109102L23.385352758924412,138.24277259283826L23.855183984429495,138.86205375042476L24.078259401188422,140.36294501587415L24.548549944641533,136.58901700936312L24.77101293746976,138.6706547957928L25.24186486952601,142.05406155053808L25.463205085147948,139.57728984657632L25.681840428409274,135.59438427884095L26.15207993653482,140.16299170021927L26.621604950074552,139.5847649094707L59.48478342492643,92.47928028325379L59.949358011692965,99.61425346465202L60.166870577748,105.0139286526321L60.63226172975548,92.02423095630212L60.848549447949104,101.72342771664376L61.06565373138368,89.64364400343467L61.282298696870214,99.2117039892555L121.26947788596416,63.06479904332656L121.74471885619046,74.41055333042267L121.96646735443285,63.63566157365024L122.18831792333037,63.83884047230539L122.65855743145593,82.8669485551851L122.87959143511252,70.26479275533057L123.350647508479,77.03425731649813L123.82068287529431,70.52411977944321L124.04115549034776,75.72277466502531L124.26213845867677,69.4789980569971L124.48210072045464,57.37562572917541L124.7030326534561,67.80956597598889L162.25309146998563,59.47810669125185L162.45774313349588,51.007134786060746L162.90547606216808,53.41555367774215L163.11441469319325,63.63777092436541L163.32340435954598,70.04399216023378L163.7679730979095,57.286269693236875L164.21784951033916,54.35822825767106L164.66900180595778,69.95901897753224L164.87957356746486,51.69367509451594L165.08948186971364,63.905149594593226L165.2995432779451,54.239571124249224L165.510012968797,62.04858445402783L167.91648176917082,75.28402150867674L168.16247204800356,84.99220558043132L168.40774783225052,86.2430341393547L215.45670595530925,52.77433568309726L215.67651511110444,57.040600099435764L215.8984167153295,43.424568873526965L224.91421561118835,31.885394512679824L225.14147592480708,42.331523031135475L225.37098179283842,40.91582860522419L225.86020644281578,52.647183693682365L226.08950816953688,46.89880903047043L226.31906507289577,58.44679013574323L226.8080855815629,45.55817301814028L227.03667281369815,42.78907156934309L227.52564228703775,40.09068671884174L228.01517314898047,47.43517505863099L228.24335209849525,44.22187882109549L228.47372556709507,49.058685671734736L228.70333350578153,36.946490184306725L229.1957733813951,42.3061861997823L229.42629995597758,44.85639121443958L229.65631617728448,43.08717125018154L230.14737809905398,41.35452430844046L230.3775984616711,42.78756137272211L230.86845624213038,41.258955126620975L231.35875263398648,31.329207153868794L231.58958542053432,55.00202343568003L231.81975474782394,58.41623327693924L232.0494137218379,51.47822584831525L232.27973615511016,51.647244756010906L232.7708491122072,47.429043988653405L233.261757927994,37.96678394600019L233.49248864388673,40.75199689461803L233.98370367163892,44.15826999602672L234.4737959221848,44.801630171748116L234.7039142141468,44.6007576059761L234.93362422348835,42.74660549696816L235.16246663226144,46.55020804632255L235.6470981027585,36.34981478239064L236.1332095977548,35.18094722051717L236.3600616287531,45.917846041645305L236.84362135737143,35.39014228288528L237.07042235304215,44.215419447504615L237.55525796484946,43.85171649714687L237.7817017132273,30.23668659725851L238.26714974896532,39.3928938040421L253.71380819983656,37.991743228198146L254.19456098543918,46.41953500065546L254.41824882612883,35.348652913759764L254.90073681286844,39.80503795253608L255.12559846609193,37.03549329386101L255.60757609955598,29.508386069196888L256.08904337974445,31.023384130528456L256.57056169526044,40.8952439686729L256.79521920717366,38.55379901409617L257.0199787897421,42.348791801192874L257.24458526632776,32.19871106599277L257.7253380519304,39.271405051955924L258.2066011908086,40.049542068510135L258.4314118087045,27.030760775840662L258.9128280535654,38.08629466881649L259.1395780139086,38.36559076020558L259.3656134796659,36.62542566572088L259.8529498225236,33.52055990405421L260.3418172252081,36.38523053467085L260.57183344651503,37.96650488792892L260.8095560022833,34.604872870333026L261.30107724200076,27.598274609309073L261.5332879823927,45.50397829918168L261.76570286409486,30.864279991953197L261.9987812050553,39.1415117273703L262.2314512633953,28.406664803825038L262.7250139162151,34.6458369536773L262.95651016202123,36.67801169697452L263.44900107296235,32.69772435055489L263.68110974269916,26.781159746270788L263.9135756597289,39.3916872882634L264.145071905535,39.81651216381948L264.63802213442415,49.615948224879176L265.1307171866755,30.108787717123448L265.51047105903956,41.2273312810739" style="fill: none;" fill="none"></path></g></g></g></g></g></g><g transform="translate(46, 177)" clip-path="url(#clip_1)"><clipPath id="clip_1"><rect width="284" height="23"></rect></clipPath><g><g><line x1="10.33383326570893" y1="0" x2="10.33383326570893" y2="5" style="visibility: inherit;" fill="rgb(0, 0, 0)" stroke="rgb(204, 204, 204)" stroke-width="1px"></line><line x1="35.851497045042" y1="0" x2="35.851497045042" y2="5" style="visibility: inherit;" fill="rgb(0, 0, 0)" stroke="rgb(204, 204, 204)" stroke-width="1px"></line><line x1="61.36916082437506" y1="0" x2="61.36916082437506" y2="5" style="visibility: inherit;" fill="rgb(0, 0, 0)" stroke="rgb(204, 204, 204)" stroke-width="1px"></line><line x1="86.88682460370812" y1="0" x2="86.88682460370812" y2="5" style="visibility: inherit;" fill="rgb(0, 0, 0)" stroke="rgb(204, 204, 204)" stroke-width="1px"></line><line x1="112.40448838304117" y1="0" x2="112.40448838304117" y2="5" style="visibility: inherit;" fill="rgb(0, 0, 0)" stroke="rgb(204, 204, 204)" stroke-width="1px"></line><line x1="137.92215216237423" y1="0" x2="137.92215216237423" y2="5" style="visibility: inherit;" fill="rgb(0, 0, 0)" stroke="rgb(204, 204, 204)" stroke-width="1px"></line><line x1="163.4398159417073" y1="0" x2="163.4398159417073" y2="5" style="visibility: inherit;" fill="rgb(0, 0, 0)" stroke="rgb(204, 204, 204)" stroke-width="1px"></line><line x1="188.95747972104036" y1="0" x2="188.95747972104036" y2="5" style="visibility: inherit;" fill="rgb(0, 0, 0)" stroke="rgb(204, 204, 204)" stroke-width="1px"></line><line x1="214.47514350037343" y1="0" x2="214.47514350037343" y2="5" style="visibility: inherit;" fill="rgb(0, 0, 0)" stroke="rgb(204, 204, 204)" stroke-width="1px"></line><line x1="239.99280727970648" y1="0" x2="239.99280727970648" y2="5" style="visibility: inherit;" fill="rgb(0, 0, 0)" stroke="rgb(204, 204, 204)" stroke-width="1px"></line><line x1="265.51047105903956" y1="0" x2="265.51047105903956" y2="5" style="visibility: inherit;" fill="rgb(0, 0, 0)" stroke="rgb(204, 204, 204)" stroke-width="1px"></line></g><g transform="translate(0, 8)"><text x="10.33383326570893" y="0" dx="0em" dy="0.95em" style="text-anchor: middle; visibility: inherit; font-family: &quot;Helvetica Neue&quot;, sans-serif; font-size: 12px; font-weight: 200;" fill="rgb(50, 49, 63)" stroke="none" stroke-width="1px">0</text><text x="35.851497045042" y="0" dx="0em" dy="0.95em" style="text-anchor: middle; visibility: hidden; font-family: &quot;Helvetica Neue&quot;, sans-serif; font-size: 12px; font-weight: 200;" fill="rgb(50, 49, 63)" stroke="none" stroke-width="1px">500k</text><text x="61.36916082437506" y="0" dx="0em" dy="0.95em" style="text-anchor: middle; visibility: inherit; font-family: &quot;Helvetica Neue&quot;, sans-serif; font-size: 12px; font-weight: 200;" fill="rgb(50, 49, 63)" stroke="none" stroke-width="1px">1M</text><text x="86.88682460370812" y="0" dx="0em" dy="0.95em" style="text-anchor: middle; visibility: hidden; font-family: &quot;Helvetica Neue&quot;, sans-serif; font-size: 12px; font-weight: 200;" fill="rgb(50, 49, 63)" stroke="none" stroke-width="1px">1.5M</text><text x="112.40448838304117" y="0" dx="0em" dy="0.95em" style="text-anchor: middle; visibility: inherit; font-family: &quot;Helvetica Neue&quot;, sans-serif; font-size: 12px; font-weight: 200;" fill="rgb(50, 49, 63)" stroke="none" stroke-width="1px">2M</text><text x="137.92215216237423" y="0" dx="0em" dy="0.95em" style="text-anchor: middle; visibility: hidden; font-family: &quot;Helvetica Neue&quot;, sans-serif; font-size: 12px; font-weight: 200;" fill="rgb(50, 49, 63)" stroke="none" stroke-width="1px">2.5M</text><text x="163.4398159417073" y="0" dx="0em" dy="0.95em" style="text-anchor: middle; visibility: inherit; font-family: &quot;Helvetica Neue&quot;, sans-serif; font-size: 12px; font-weight: 200;" fill="rgb(50, 49, 63)" stroke="none" stroke-width="1px">3M</text><text x="188.95747972104036" y="0" dx="0em" dy="0.95em" style="text-anchor: middle; visibility: hidden; font-family: &quot;Helvetica Neue&quot;, sans-serif; font-size: 12px; font-weight: 200;" fill="rgb(50, 49, 63)" stroke="none" stroke-width="1px">3.5M</text><text x="214.47514350037343" y="0" dx="0em" dy="0.95em" style="text-anchor: middle; visibility: inherit; font-family: &quot;Helvetica Neue&quot;, sans-serif; font-size: 12px; font-weight: 200;" fill="rgb(50, 49, 63)" stroke="none" stroke-width="1px">4M</text><text x="239.99280727970648" y="0" dx="0em" dy="0.95em" style="text-anchor: middle; visibility: hidden; font-family: &quot;Helvetica Neue&quot;, sans-serif; font-size: 12px; font-weight: 200;" fill="rgb(50, 49, 63)" stroke="none" stroke-width="1px">4.5M</text><text x="265.51047105903956" y="0" dx="0em" dy="0.95em" style="text-anchor: middle; visibility: inherit; font-family: &quot;Helvetica Neue&quot;, sans-serif; font-size: 12px; font-weight: 200;" fill="rgb(50, 49, 63)" stroke="none" stroke-width="1px">5M</text></g><line x1="0" y1="0" x2="284" y2="0" fill="rgb(0, 0, 0)" stroke="rgb(204, 204, 204)" stroke-width="1px"></line></g></g></g></g></svg>