<svg viewBox="0 0 330 200" xmlns="http://www.w3.org/2000/svg"><g><g><g><g><g><line x1="55" y1="177" x2="50" y2="177" style="visibility: inherit;" fill="rgb(0, 0, 0)" stroke="rgb(204, 204, 204)" stroke-width="1px"></line><line x1="55" y1="159.3" x2="50" y2="159.3" style="visibility: inherit;" fill="rgb(0, 0, 0)" stroke="rgb(204, 204, 204)" stroke-width="1px"></line><line x1="55" y1="141.6" x2="50" y2="141.6" style="visibility: inherit;" fill="rgb(0, 0, 0)" stroke="rgb(204, 204, 204)" stroke-width="1px"></line><line x1="55" y1="123.89999999999999" x2="50" y2="123.89999999999999" style="visibility: inherit;" fill="rgb(0, 0, 0)" stroke="rgb(204, 204, 204)" stroke-width="1px"></line><line x1="55" y1="106.2" x2="50" y2="106.2" style="visibility: inherit;" fill="rgb(0, 0, 0)" stroke="rgb(204, 204, 204)" stroke-width="1px"></line><line x1="55" y1="88.5" x2="50" y2="88.5" style="visibility: inherit;" fill="rgb(0, 0, 0)" stroke="rgb(204, 204, 204)" stroke-width="1px"></line><line x1="55" y1="70.8" x2="50" y2="70.8" style="visibility: inherit;" fill="rgb(0, 0, 0)" stroke="rgb(204, 204, 204)" stroke-width="1px"></line><line x1="55" y1="53.10000000000001" x2="50" y2="53.10000000000001" style="visibility: inherit;" fill="rgb(0, 0, 0)" stroke="rgb(204, 204, 204)" stroke-width="1px"></line><line x1="55" y1="35.400000000000006" x2="50" y2="35.400000000000006" style="visibility: inherit;" fill="rgb(0, 0, 0)" stroke="rgb(204, 204, 204)" stroke-width="1px"></line><line x1="55" y1="17.69999999999999" x2="50" y2="17.69999999999999" style="visibility: inherit;" fill="rgb(0, 0, 0)" stroke="rgb(204, 204, 204)" stroke-width="1px"></line><line x1="55" y1="0" x2="50" y2="0" style="visibility: inherit;" fill="rgb(0, 0, 0)" stroke="rgb(204, 204, 204)" stroke-width="1px"></line></g><g transform="translate(45, 0)"><text x="0" y="177" dx="0em" dy="0.3em" style="text-anchor: end; visibility: hidden; font-family: &quot;Helvetica Neue&quot;, sans-serif; font-size: 12px; font-weight: 200;" fill="rgb(50, 49, 63)" stroke="none" stroke-width="1px">-0.05</text><text x="0" y="159.3" dx="0em" dy="0.3em" style="text-anchor: end; visibility: inherit; font-family: &quot;Helvetica Neue&quot;, sans-serif; font-size: 12px; font-weight: 200;" fill="rgb(50, 49, 63)" stroke="none" stroke-width="1px">0</text><text x="0" y="141.6" dx="0em" dy="0.3em" style="text-anchor: end; visibility: hidden; font-family: &quot;Helvetica Neue&quot;, sans-serif; font-size: 12px; font-weight: 200;" fill="rgb(50, 49, 63)" stroke="none" stroke-width="1px">0.05</text><text x="0" y="123.89999999999999" dx="0em" dy="0.3em" style="text-anchor: end; visibility: inherit; font-family: &quot;Helvetica Neue&quot;, sans-serif; font-size: 12px; font-weight: 200;" fill="rgb(50, 49, 63)" stroke="none" stroke-width="1px">0.1</text><text x="0" y="106.2" dx="0em" dy="0.3em" style="text-anchor: end; visibility: hidden; font-family: &quot;Helvetica Neue&quot;, sans-serif; font-size: 12px; font-weight: 200;" fill="rgb(50, 49, 63)" stroke="none" stroke-width="1px">0.15</text><text x="0" y="88.5" dx="0em" dy="0.3em" style="text-anchor: end; visibility: inherit; font-family: &quot;Helvetica Neue&quot;, sans-serif; font-size: 12px; font-weight: 200;" fill="rgb(50, 49, 63)" stroke="none" stroke-width="1px">0.2</text><text x="0" y="70.8" dx="0em" dy="0.3em" style="text-anchor: end; visibility: hidden; font-family: &quot;Helvetica Neue&quot;, sans-serif; font-size: 12px; font-weight: 200;" fill="rgb(50, 49, 63)" stroke="none" stroke-width="1px">0.25</text><text x="0" y="53.10000000000001" dx="0em" dy="0.3em" style="text-anchor: end; visibility: inherit; font-family: &quot;Helvetica Neue&quot;, sans-serif; font-size: 12px; font-weight: 200;" fill="rgb(50, 49, 63)" stroke="none" stroke-width="1px">0.3</text><text x="0" y="35.400000000000006" dx="0em" dy="0.3em" style="text-anchor: end; visibility: hidden; font-family: &quot;Helvetica Neue&quot;, sans-serif; font-size: 12px; font-weight: 200;" fill="rgb(50, 49, 63)" stroke="none" stroke-width="1px">0.35</text><text x="0" y="17.69999999999999" dx="0em" dy="0.3em" style="text-anchor: end; visibility: inherit; font-family: &quot;Helvetica Neue&quot;, sans-serif; font-size: 12px; font-weight: 200;" fill="rgb(50, 49, 63)" stroke="none" stroke-width="1px">0.4</text><text x="0" y="0" dx="0em" dy="0.3em" style="text-anchor: end; visibility: hidden; font-family: &quot;Helvetica Neue&quot;, sans-serif; font-size: 12px; font-weight: 200;" fill="rgb(50, 49, 63)" stroke="none" stroke-width="1px">0.45</text></g><line x1="55" y1="0" x2="55" y2="177" fill="rgb(0, 0, 0)" stroke="rgb(204, 204, 204)" stroke-width="1px"></line></g></g><g transform="translate(55, 0)" clip-path="url(#clip_0)"><clipPath id="clip_0"><rect width="275" height="177"></rect></clipPath><g><g><g><line x1="0" y1="0" x2="0" y2="177" fill="rgb(0, 0, 0)" stroke="rgb(60, 60, 60)" stroke-width="1px" opacity="0.25"></line><line x1="22.916666666666664" y1="0" x2="22.916666666666664" y2="177" fill="rgb(0, 0, 0)" stroke="rgb(60, 60, 60)" stroke-width="1px" opacity="0.25"></line><line x1="45.83333333333333" y1="0" x2="45.83333333333333" y2="177" fill="rgb(0, 0, 0)" stroke="rgb(60, 60, 60)" stroke-width="1px" opacity="0.25"></line><line x1="68.75" y1="0" x2="68.75" y2="177" fill="rgb(0, 0, 0)" stroke="rgb(60, 60, 60)" stroke-width="1px" opacity="0.25"></line><line x1="91.66666666666666" y1="0" x2="91.66666666666666" y2="177" fill="rgb(0, 0, 0)" stroke="rgb(60, 60, 60)" stroke-width="1px" opacity="0.25"></line><line x1="114.58333333333334" y1="0" x2="114.58333333333334" y2="177" fill="rgb(0, 0, 0)" stroke="rgb(60, 60, 60)" stroke-width="1px" opacity="0.25"></line><line x1="137.5" y1="0" x2="137.5" y2="177" fill="rgb(0, 0, 0)" stroke="rgb(60, 60, 60)" stroke-width="1px" opacity="0.25"></line><line x1="160.41666666666669" y1="0" x2="160.41666666666669" y2="177" fill="rgb(0, 0, 0)" stroke="rgb(60, 60, 60)" stroke-width="1px" opacity="0.25"></line><line x1="183.33333333333331" y1="0" x2="183.33333333333331" y2="177" fill="rgb(0, 0, 0)" stroke="rgb(60, 60, 60)" stroke-width="1px" opacity="0.25"></line><line x1="206.25" y1="0" x2="206.25" y2="177" fill="rgb(0, 0, 0)" stroke="rgb(60, 60, 60)" stroke-width="1px" opacity="0.25"></line><line x1="229.16666666666669" y1="0" x2="229.16666666666669" y2="177" fill="rgb(0, 0, 0)" stroke="rgb(60, 60, 60)" stroke-width="1px" opacity="0.25"></line><line x1="252.08333333333331" y1="0" x2="252.08333333333331" y2="177" fill="rgb(0, 0, 0)" stroke="rgb(60, 60, 60)" stroke-width="1px" opacity="0.25"></line><line x1="275" y1="0" x2="275" y2="177" fill="rgb(0, 0, 0)" stroke="rgb(60, 60, 60)" stroke-width="1px" opacity="0.25"></line></g><g><line x1="0" y1="177" x2="275" y2="177" fill="rgb(0, 0, 0)" stroke="rgb(60, 60, 60)" stroke-width="1px" opacity="0.25"></line><line x1="0" y1="159.3" x2="275" y2="159.3" fill="rgb(0, 0, 0)" stroke="rgb(60, 60, 60)" stroke-width="1px" opacity="0.25"></line><line x1="0" y1="141.6" x2="275" y2="141.6" fill="rgb(0, 0, 0)" stroke="rgb(60, 60, 60)" stroke-width="1px" opacity="0.25"></line><line x1="0" y1="123.89999999999999" x2="275" y2="123.89999999999999" fill="rgb(0, 0, 0)" stroke="rgb(60, 60, 60)" stroke-width="1px" opacity="0.25"></line><line x1="0" y1="106.2" x2="275" y2="106.2" fill="rgb(0, 0, 0)" stroke="rgb(60, 60, 60)" stroke-width="1px" opacity="0.25"></line><line x1="0" y1="88.5" x2="275" y2="88.5" fill="rgb(0, 0, 0)" stroke="rgb(60, 60, 60)" stroke-width="1px" opacity="0.25"></line><line x1="0" y1="70.8" x2="275" y2="70.8" fill="rgb(0, 0, 0)" stroke="rgb(60, 60, 60)" stroke-width="1px" opacity="0.25"></line><line x1="0" y1="53.10000000000001" x2="275" y2="53.10000000000001" fill="rgb(0, 0, 0)" stroke="rgb(60, 60, 60)" stroke-width="1px" opacity="0.25"></line><line x1="0" y1="35.400000000000006" x2="275" y2="35.400000000000006" fill="rgb(0, 0, 0)" stroke="rgb(60, 60, 60)" stroke-width="1px" opacity="0.25"></line><line x1="0" y1="17.69999999999999" x2="275" y2="17.69999999999999" fill="rgb(0, 0, 0)" stroke="rgb(60, 60, 60)" stroke-width="1px" opacity="0.25"></line><line x1="0" y1="0" x2="275" y2="0" fill="rgb(0, 0, 0)" stroke="rgb(60, 60, 60)" stroke-width="1px" opacity="0.25"></line></g></g></g><g><g><line x1="0" y1="159.3" x2="275" y2="159.3" fill="rgb(0, 0, 0)" stroke="rgb(153, 153, 153)" stroke-width="1.5px"></line></g></g><g><g><line x1="22.916666666666664" y1="0" x2="22.916666666666664" y2="177" fill="rgb(0, 0, 0)" stroke="rgb(153, 153, 153)" stroke-width="1.5px"></line></g></g><g><g><g><g><g><path stroke="rgb(0, 119, 187)" stroke-width="2px" d="M27.874641666666665,140.6035409152508L28.304833333333335,141.1509149104782L28.5085625,146.07919238308287L28.93825,141.47175595416888L29.14303333333333,144.9943080544994L29.345983333333333,144.63208283809928L29.773241666666667,144.01349807381186L29.976375,146.71263023915105L30.405420833333334,142.91606445528686L30.60919583333333,142.95908504979312L31.038058333333336,142.45379606871336L31.466004166666668,141.6609904601635L31.895920833333335,139.32668716611738L32.325379166666664,136.74049030806836L32.755204166666665,135.5969421679087L33.185854166666665,136.05475583859777L33.386741666666666,137.60666448679876L33.81294583333334,128.68973800710216L34.0143375,134.49363804225067L34.214675,133.39487927644214L34.63785416666666,127.55756258586672L35.05979583333333,129.50538433770637L35.260133333333336,133.96578262773053L35.6824875,127.60135370327106L35.88227500000001,129.11524103234893L36.30513333333334,135.39049759633724L36.503912500000006,131.7168105103095L36.7002625,125.75599182475145L37.122570833333334,130.03426895762937L37.5442375,132.1326516757826L67.05769583333334,90.79119306328211L67.47491666666666,92.20056477955816L67.67025833333334,101.3550725501037L68.0882125,85.43655594638032L68.28245416666667,96.76412631356918L68.47742916666667,83.0194525860319L68.67199166666667,94.73298786698689L122.54472083333333,57.938865317789364L122.97152083333333,76.06881614816216L123.17066666666666,60.894995235245375L123.36990416666667,64.48684030989499L123.79221249999999,84.64014204633636L123.99071666666667,70.18605921558652L124.41375833333333,74.4138073726465L124.83588333333333,70.02191347590312L125.03388333333334,74.21505330543192L125.23234166666667,71.14727469711268L125.42988333333334,49.899920269182005L125.62829583333333,69.59052426963336L159.35090416666668,56.120418579558674L159.53469583333336,43.16318202642816L159.93679166666666,45.97353333077075L160.12443333333334,60.9291918822438L160.31212083333332,67.38085253243486L160.71137499999998,55.87604787841089L161.11539583333334,49.76265480290678L161.5205625,69.75112412534071L161.70967083333332,41.94104555139401L161.89818333333332,52.41034518753055L162.08683333333332,43.98075206293669L162.27585,57.43654550883289L164.4370291666667,78.68295411093662L164.65794583333332,93.00591587514883L164.87822083333333,96.75246815799923L207.13151249999999,56.53217372995698L207.32891666666666,58.755059144655945L207.5282,41.98617072210885L215.625025,26.941611660915754L215.82912083333335,39.60343589476278L216.03523333333334,38.39148773616421L216.47459166666667,56.14692189425588L216.68052083333333,48.556030137140056L216.88667916666665,62.55287312534922L217.32585416666666,45.141960926370245L217.53114166666668,42.389354901825726L217.97027083333333,34.852958815688964L218.40990416666665,47.42661610191976L218.614825,45.531519986941845L218.82171666666667,48.822140136676495L219.02792083333333,35.62666369173647L219.47016666666667,42.10579593450407L219.67719583333331,43.85668006406425L219.88376666666667,42.02115370658413L220.32477500000002,41.45618827979163L220.53152916666667,42.02165560548565L220.97235416666666,38.359861666292744L221.412675,22.72524965747482L221.61997916666667,55.400396468295256L221.82668750000002,62.74430733686361L222.03293749999997,54.79932940752555L222.23978333333332,54.509743762230016L222.6808375,48.757855201875145L223.12170833333334,35.08122691861081L223.32892083333334,39.279272334497335L223.77006666666665,41.612216084743324L224.21020416666664,46.11941306801518L224.41686666666666,45.1591471097947L224.6231625,42.65916295012693L224.82867916666666,46.155246361021256L225.2639125,33.228076819511415L225.700475,32.604233550223256L225.90420416666666,43.10078598042213L226.33847500000002,33.65998201367432L226.54215833333333,44.72394553398945L226.977575,42.00132765511242L227.1809375,25.322397697352585L227.61690416666667,33.768708321709994L241.48909583333332,35.03441848483507L241.92084583333332,43.52422351248731L242.12173333333334,29.316357973180118L242.55504166666668,36.044938363952525L242.75698333333332,33.53528494803757L243.18983333333335,19.66990726692282L243.622225,23.837661755381447L244.05466249999998,37.0755612258705L244.25642083333335,33.937504789089616L244.45827083333333,37.46556365495488L244.65998333333334,27.751825109556165L245.0917333333333,37.13250295825716L245.52394166666667,38.8853913765858L245.72583749999998,20.405736257615416L246.15818333333334,34.98404153726611L246.36182083333335,36.22611123822975L246.56481666666667,31.700900401322514L247.0024791666667,28.45086462694414L247.44151666666667,31.26171182770034L247.6480875,34.60824497581825L247.86157916666664,30.025694887730566L248.303,23.555718326744994L248.5115416666667,42.86784495399897L248.72026666666667,24.934473411371442L248.9295875,33.77424445777601L249.13854166666667,20.458422433015755L249.58179583333333,28.5976393004224L249.78969583333333,30.566677355140285L250.2319875,24.210918846491865L250.4404375,19.49236090049442L250.64920833333332,36.46542633576723L250.85710833333331,37.14621166442217L251.29981249999997,51.539529837528605L251.7422875,23.7272671306703L252.08333333333331,38.4685634003871" style="fill: none;" fill="none"></path></g></g></g></g><g opacity="0.2"><g><g><g><path stroke="rgb(0, 119, 187)" stroke-width="2px" d="M27.874641666666665,140.6035409152508L28.304833333333335,141.17883098423482L28.5085625,146.34335298389198L28.93825,141.22418157309295L29.14303333333333,145.1836114704609L29.345983333333333,144.6126165792346L29.773241666666667,143.9802548468113L29.976375,146.85768370628358L30.405420833333334,142.71203404963018L30.60919583333333,142.96139701008798L31.038058333333336,142.4266414448619L31.466004166666668,141.61838446855546L31.895920833333335,139.20123988687993L32.325379166666664,136.6015060722828L32.755204166666665,135.5354869991541L33.185854166666665,136.07935910224916L33.386741666666666,137.6900652676821L33.81294583333334,128.21053542494775L34.0143375,134.80554415583612L34.214675,133.33583112359048L34.63785416666666,127.24386063516141L35.05979583333333,129.61006179749967L35.260133333333336,134.20548790991307L35.6824875,127.25932433009149L35.88227500000001,129.19659851789476L36.30513333333334,135.72773477733136L36.503912500000006,131.5193837016821L36.7002625,125.43565278053285L37.122570833333334,130.2641869068146L37.5442375,132.24542039930822L67.05769583333334,88.56947084069252L67.47491666666666,92.27630551457405L67.67025833333334,101.84704293608665L68.0882125,84.58108245134353L68.28245416666667,97.3728787779808L68.47742916666667,82.28080310225486L68.67199166666667,95.36248238682747L122.54472083333333,55.961520481109616L122.97152083333333,77.0431338429451L123.17066666666666,60.07954226732254L123.36990416666667,64.67986886501312L123.79221249999999,85.72319619655609L123.99071666666667,69.40928553342819L124.41375833333333,74.64100985527038L124.83588333333333,69.78588967323303L125.03388333333334,74.4403959095478L125.23234166666667,70.98240988254547L125.42988333333334,48.758070874214184L125.62829583333333,70.648712682724L159.35090416666668,55.39652459621429L159.53469583333336,42.46685003042222L159.93679166666666,46.124563801288616L160.12443333333334,61.73292063474655L160.31212083333332,67.72756980657577L160.71137499999998,55.25777070522308L161.11539583333334,49.434116291999814L161.5205625,70.82532005310058L161.70967083333332,40.446510243415844L161.89818333333332,52.97297351360321L162.08683333333332,43.52773915529252L162.27585,58.15967034101486L164.4370291666667,79.82475267648697L164.65794583333332,93.77564300894737L164.87822083333333,96.95381079912185L207.13151249999999,54.3707037448883L207.32891666666666,58.87451874017715L207.5282,41.08499758243562L215.625025,26.133105325698864L215.82912083333335,40.28389220237733L216.03523333333334,38.32635669708253L216.47459166666667,57.10111277103424L216.68052083333333,48.14808969497682L216.88667916666665,63.305074381828305L217.32585416666666,44.20628492832185L217.53114166666668,42.24142770767213L217.97027083333333,34.447947013378155L218.40990416666665,48.102334249019634L218.614825,45.429676043987286L218.82171666666667,48.998980629444134L219.02792083333333,34.91752849817277L219.47016666666667,42.45398955345155L219.67719583333331,43.95077394247056L219.88376666666667,41.922511088848125L220.32477500000002,41.42582659721376L220.53152916666667,42.05204426050187L220.97235416666666,38.16307400465013L221.412675,21.88503341674806L221.61997916666667,57.15638433694839L221.82668750000002,63.13897483348846L222.03293749999997,54.372360098361966L222.23978333333332,54.49418120384216L222.6808375,48.448744225502026L223.12170833333334,34.346234250068676L223.32892083333334,39.5048785686493L223.77006666666665,41.737590301036846L224.21020416666664,46.36163334846498L224.41686666666666,45.10754166841508L224.6231625,42.52481185197831L224.82867916666666,46.3431286096573L225.2639125,32.533360648155224L225.700475,32.57070772647859L225.90420416666666,43.66487889289857L226.33847500000002,33.152625846862804L226.54215833333333,45.31853156089784L226.977575,41.85501204729081L227.1809375,24.426058995723736L227.61690416666667,34.22261964082719L241.48909583333332,35.102438735961925L241.92084583333332,43.980472254753124L242.12173333333334,28.55281620025636L242.55504166666668,36.40653752088548L242.75698333333332,33.40041421651841L243.18983333333335,18.92477105855943L243.622225,24.061640131473553L244.05466249999998,37.7869762659073L244.25642083333335,33.76886318922044L244.45827083333333,37.6551642894745L244.65998333333334,27.229801225662243L245.0917333333333,37.636627900600445L245.52394166666667,38.9795929670334L245.72583749999998,19.41262518167497L246.15818333333334,35.767491030693066L246.36182083333335,36.29286103248597L246.56481666666667,31.457712042331707L247.0024791666667,28.276205170154583L247.44151666666667,31.412768948078167L247.6480875,34.78809027671815L247.86157916666664,29.779425072669994L248.303,23.2080167412758L248.5115416666667,43.905693697929394L248.72026666666667,23.9707200407982L248.9295875,34.24930064678193L249.13854166666667,19.74281977415086L249.58179583333333,29.035047161579143L249.78969583333333,30.672494995594036L250.2319875,23.869355428218853L250.4404375,19.238781917095196L250.64920833333332,37.377572107315075L250.85710833333331,37.18279759883882L251.29981249999997,52.31303797960281L251.7422875,22.23261444568635L252.08333333333331,39.260772156715404" style="fill: none;" fill="none"></path></g></g></g></g></g></g><g transform="translate(55, 177)" clip-path="url(#clip_1)"><clipPath id="clip_1"><rect width="275" height="23"></rect></clipPath><g><g><line x1="0" y1="0" x2="0" y2="5" style="visibility: inherit;" fill="rgb(0, 0, 0)" stroke="rgb(204, 204, 204)" stroke-width="1px"></line><line x1="22.916666666666664" y1="0" x2="22.916666666666664" y2="5" style="visibility: inherit;" fill="rgb(0, 0, 0)" stroke="rgb(204, 204, 204)" stroke-width="1px"></line><line x1="45.83333333333333" y1="0" x2="45.83333333333333" y2="5" style="visibility: inherit;" fill="rgb(0, 0, 0)" stroke="rgb(204, 204, 204)" stroke-width="1px"></line><line x1="68.75" y1="0" x2="68.75" y2="5" style="visibility: inherit;" fill="rgb(0, 0, 0)" stroke="rgb(204, 204, 204)" stroke-width="1px"></line><line x1="91.66666666666666" y1="0" x2="91.66666666666666" y2="5" style="visibility: inherit;" fill="rgb(0, 0, 0)" stroke="rgb(204, 204, 204)" stroke-width="1px"></line><line x1="114.58333333333334" y1="0" x2="114.58333333333334" y2="5" style="visibility: inherit;" fill="rgb(0, 0, 0)" stroke="rgb(204, 204, 204)" stroke-width="1px"></line><line x1="137.5" y1="0" x2="137.5" y2="5" style="visibility: inherit;" fill="rgb(0, 0, 0)" stroke="rgb(204, 204, 204)" stroke-width="1px"></line><line x1="160.41666666666669" y1="0" x2="160.41666666666669" y2="5" style="visibility: inherit;" fill="rgb(0, 0, 0)" stroke="rgb(204, 204, 204)" stroke-width="1px"></line><line x1="183.33333333333331" y1="0" x2="183.33333333333331" y2="5" style="visibility: inherit;" fill="rgb(0, 0, 0)" stroke="rgb(204, 204, 204)" stroke-width="1px"></line><line x1="206.25" y1="0" x2="206.25" y2="5" style="visibility: inherit;" fill="rgb(0, 0, 0)" stroke="rgb(204, 204, 204)" stroke-width="1px"></line><line x1="229.16666666666669" y1="0" x2="229.16666666666669" y2="5" style="visibility: inherit;" fill="rgb(0, 0, 0)" stroke="rgb(204, 204, 204)" stroke-width="1px"></line><line x1="252.08333333333331" y1="0" x2="252.08333333333331" y2="5" style="visibility: inherit;" fill="rgb(0, 0, 0)" stroke="rgb(204, 204, 204)" stroke-width="1px"></line><line x1="275" y1="0" x2="275" y2="5" style="visibility: inherit;" fill="rgb(0, 0, 0)" stroke="rgb(204, 204, 204)" stroke-width="1px"></line></g><g transform="translate(0, 8)"><text x="0" y="0" dx="0em" dy="0.95em" style="text-anchor: middle; visibility: hidden; font-family: &quot;Helvetica Neue&quot;, sans-serif; font-size: 12px; font-weight: 200;" fill="rgb(50, 49, 63)" stroke="none" stroke-width="1px">-500k</text><text x="22.916666666666664" y="0" dx="0em" dy="0.95em" style="text-anchor: middle; visibility: inherit; font-family: &quot;Helvetica Neue&quot;, sans-serif; font-size: 12px; font-weight: 200;" fill="rgb(50, 49, 63)" stroke="none" stroke-width="1px">0</text><text x="45.83333333333333" y="0" dx="0em" dy="0.95em" style="text-anchor: middle; visibility: hidden; font-family: &quot;Helvetica Neue&quot;, sans-serif; font-size: 12px; font-weight: 200;" fill="rgb(50, 49, 63)" stroke="none" stroke-width="1px">500k</text><text x="68.75" y="0" dx="0em" dy="0.95em" style="text-anchor: middle; visibility: inherit; font-family: &quot;Helvetica Neue&quot;, sans-serif; font-size: 12px; font-weight: 200;" fill="rgb(50, 49, 63)" stroke="none" stroke-width="1px">1M</text><text x="91.66666666666666" y="0" dx="0em" dy="0.95em" style="text-anchor: middle; visibility: hidden; font-family: &quot;Helvetica Neue&quot;, sans-serif; font-size: 12px; font-weight: 200;" fill="rgb(50, 49, 63)" stroke="none" stroke-width="1px">1.5M</text><text x="114.58333333333334" y="0" dx="0em" dy="0.95em" style="text-anchor: middle; visibility: inherit; font-family: &quot;Helvetica Neue&quot;, sans-serif; font-size: 12px; font-weight: 200;" fill="rgb(50, 49, 63)" stroke="none" stroke-width="1px">2M</text><text x="137.5" y="0" dx="0em" dy="0.95em" style="text-anchor: middle; visibility: hidden; font-family: &quot;Helvetica Neue&quot;, sans-serif; font-size: 12px; font-weight: 200;" fill="rgb(50, 49, 63)" stroke="none" stroke-width="1px">2.5M</text><text x="160.41666666666669" y="0" dx="0em" dy="0.95em" style="text-anchor: middle; visibility: inherit; font-family: &quot;Helvetica Neue&quot;, sans-serif; font-size: 12px; font-weight: 200;" fill="rgb(50, 49, 63)" stroke="none" stroke-width="1px">3M</text><text x="183.33333333333331" y="0" dx="0em" dy="0.95em" style="text-anchor: middle; visibility: hidden; font-family: &quot;Helvetica Neue&quot;, sans-serif; font-size: 12px; font-weight: 200;" fill="rgb(50, 49, 63)" stroke="none" stroke-width="1px">3.5M</text><text x="206.25" y="0" dx="0em" dy="0.95em" style="text-anchor: middle; visibility: inherit; font-family: &quot;Helvetica Neue&quot;, sans-serif; font-size: 12px; font-weight: 200;" fill="rgb(50, 49, 63)" stroke="none" stroke-width="1px">4M</text><text x="229.16666666666669" y="0" dx="0em" dy="0.95em" style="text-anchor: middle; visibility: hidden; font-family: &quot;Helvetica Neue&quot;, sans-serif; font-size: 12px; font-weight: 200;" fill="rgb(50, 49, 63)" stroke="none" stroke-width="1px">4.5M</text><text x="252.08333333333331" y="0" dx="0em" dy="0.95em" style="text-anchor: middle; visibility: inherit; font-family: &quot;Helvetica Neue&quot;, sans-serif; font-size: 12px; font-weight: 200;" fill="rgb(50, 49, 63)" stroke="none" stroke-width="1px">5M</text><text x="275" y="0" dx="0em" dy="0.95em" style="text-anchor: middle; visibility: hidden; font-family: &quot;Helvetica Neue&quot;, sans-serif; font-size: 12px; font-weight: 200;" fill="rgb(50, 49, 63)" stroke="none" stroke-width="1px">5.5M</text></g><line x1="0" y1="0" x2="275" y2="0" fill="rgb(0, 0, 0)" stroke="rgb(204, 204, 204)" stroke-width="1px"></line></g></g></g></g></svg>