<svg viewBox="0 0 330 200" xmlns="http://www.w3.org/2000/svg"><g><g><g><g><g><line x1="55" y1="177" x2="50" y2="177" style="visibility: inherit;" fill="rgb(0, 0, 0)" stroke="rgb(204, 204, 204)" stroke-width="1px"></line><line x1="55" y1="160.9090909090909" x2="50" y2="160.9090909090909" style="visibility: inherit;" fill="rgb(0, 0, 0)" stroke="rgb(204, 204, 204)" stroke-width="1px"></line><line x1="55" y1="144.8181818181818" x2="50" y2="144.8181818181818" style="visibility: inherit;" fill="rgb(0, 0, 0)" stroke="rgb(204, 204, 204)" stroke-width="1px"></line><line x1="55" y1="128.72727272727272" x2="50" y2="128.72727272727272" style="visibility: inherit;" fill="rgb(0, 0, 0)" stroke="rgb(204, 204, 204)" stroke-width="1px"></line><line x1="55" y1="112.63636363636364" x2="50" y2="112.63636363636364" style="visibility: inherit;" fill="rgb(0, 0, 0)" stroke="rgb(204, 204, 204)" stroke-width="1px"></line><line x1="55" y1="96.54545454545455" x2="50" y2="96.54545454545455" style="visibility: inherit;" fill="rgb(0, 0, 0)" stroke="rgb(204, 204, 204)" stroke-width="1px"></line><line x1="55" y1="80.45454545454547" x2="50" y2="80.45454545454547" style="visibility: inherit;" fill="rgb(0, 0, 0)" stroke="rgb(204, 204, 204)" stroke-width="1px"></line><line x1="55" y1="64.36363636363639" x2="50" y2="64.36363636363639" style="visibility: inherit;" fill="rgb(0, 0, 0)" stroke="rgb(204, 204, 204)" stroke-width="1px"></line><line x1="55" y1="48.27272727272728" x2="50" y2="48.27272727272728" style="visibility: inherit;" fill="rgb(0, 0, 0)" stroke="rgb(204, 204, 204)" stroke-width="1px"></line><line x1="55" y1="32.18181818181819" x2="50" y2="32.18181818181819" style="visibility: inherit;" fill="rgb(0, 0, 0)" stroke="rgb(204, 204, 204)" stroke-width="1px"></line><line x1="55" y1="16.090909090909093" x2="50" y2="16.090909090909093" style="visibility: inherit;" fill="rgb(0, 0, 0)" stroke="rgb(204, 204, 204)" stroke-width="1px"></line><line x1="55" y1="0" x2="50" y2="0" style="visibility: inherit;" fill="rgb(0, 0, 0)" stroke="rgb(204, 204, 204)" stroke-width="1px"></line></g><g transform="translate(45, 0)"><text x="0" y="177" dx="0em" dy="0.3em" style="text-anchor: end; visibility: hidden; font-family: &quot;Helvetica Neue&quot;, sans-serif; font-size: 12px; font-weight: 200;" fill="rgb(50, 49, 63)" stroke="none" stroke-width="1px">-0.05</text><text x="0" y="160.9090909090909" dx="0em" dy="0.3em" style="text-anchor: end; visibility: inherit; font-family: &quot;Helvetica Neue&quot;, sans-serif; font-size: 12px; font-weight: 200;" fill="rgb(50, 49, 63)" stroke="none" stroke-width="1px">0</text><text x="0" y="144.8181818181818" dx="0em" dy="0.3em" style="text-anchor: end; visibility: hidden; font-family: &quot;Helvetica Neue&quot;, sans-serif; font-size: 12px; font-weight: 200;" fill="rgb(50, 49, 63)" stroke="none" stroke-width="1px">0.05</text><text x="0" y="128.72727272727272" dx="0em" dy="0.3em" style="text-anchor: end; visibility: inherit; font-family: &quot;Helvetica Neue&quot;, sans-serif; font-size: 12px; font-weight: 200;" fill="rgb(50, 49, 63)" stroke="none" stroke-width="1px">0.1</text><text x="0" y="112.63636363636364" dx="0em" dy="0.3em" style="text-anchor: end; visibility: hidden; font-family: &quot;Helvetica Neue&quot;, sans-serif; font-size: 12px; font-weight: 200;" fill="rgb(50, 49, 63)" stroke="none" stroke-width="1px">0.15</text><text x="0" y="96.54545454545455" dx="0em" dy="0.3em" style="text-anchor: end; visibility: inherit; font-family: &quot;Helvetica Neue&quot;, sans-serif; font-size: 12px; font-weight: 200;" fill="rgb(50, 49, 63)" stroke="none" stroke-width="1px">0.2</text><text x="0" y="80.45454545454547" dx="0em" dy="0.3em" style="text-anchor: end; visibility: hidden; font-family: &quot;Helvetica Neue&quot;, sans-serif; font-size: 12px; font-weight: 200;" fill="rgb(50, 49, 63)" stroke="none" stroke-width="1px">0.25</text><text x="0" y="64.36363636363639" dx="0em" dy="0.3em" style="text-anchor: end; visibility: inherit; font-family: &quot;Helvetica Neue&quot;, sans-serif; font-size: 12px; font-weight: 200;" fill="rgb(50, 49, 63)" stroke="none" stroke-width="1px">0.3</text><text x="0" y="48.27272727272728" dx="0em" dy="0.3em" style="text-anchor: end; visibility: hidden; font-family: &quot;Helvetica Neue&quot;, sans-serif; font-size: 12px; font-weight: 200;" fill="rgb(50, 49, 63)" stroke="none" stroke-width="1px">0.35</text><text x="0" y="32.18181818181819" dx="0em" dy="0.3em" style="text-anchor: end; visibility: inherit; font-family: &quot;Helvetica Neue&quot;, sans-serif; font-size: 12px; font-weight: 200;" fill="rgb(50, 49, 63)" stroke="none" stroke-width="1px">0.4</text><text x="0" y="16.090909090909093" dx="0em" dy="0.3em" style="text-anchor: end; visibility: hidden; font-family: &quot;Helvetica Neue&quot;, sans-serif; font-size: 12px; font-weight: 200;" fill="rgb(50, 49, 63)" stroke="none" stroke-width="1px">0.45</text><text x="0" y="0" dx="0em" dy="0.3em" style="text-anchor: end; visibility: hidden; font-family: &quot;Helvetica Neue&quot;, sans-serif; font-size: 12px; font-weight: 200;" fill="rgb(50, 49, 63)" stroke="none" stroke-width="1px">0.5</text></g><line x1="55" y1="0" x2="55" y2="177" fill="rgb(0, 0, 0)" stroke="rgb(204, 204, 204)" stroke-width="1px"></line></g></g><g transform="translate(55, 0)" clip-path="url(#clip_0)"><clipPath id="clip_0"><rect width="275" height="177"></rect></clipPath><g><g><g><line x1="0" y1="0" x2="0" y2="177" fill="rgb(0, 0, 0)" stroke="rgb(60, 60, 60)" stroke-width="1px" opacity="0.25"></line><line x1="22.916666666666664" y1="0" x2="22.916666666666664" y2="177" fill="rgb(0, 0, 0)" stroke="rgb(60, 60, 60)" stroke-width="1px" opacity="0.25"></line><line x1="45.83333333333333" y1="0" x2="45.83333333333333" y2="177" fill="rgb(0, 0, 0)" stroke="rgb(60, 60, 60)" stroke-width="1px" opacity="0.25"></line><line x1="68.75" y1="0" x2="68.75" y2="177" fill="rgb(0, 0, 0)" stroke="rgb(60, 60, 60)" stroke-width="1px" opacity="0.25"></line><line x1="91.66666666666666" y1="0" x2="91.66666666666666" y2="177" fill="rgb(0, 0, 0)" stroke="rgb(60, 60, 60)" stroke-width="1px" opacity="0.25"></line><line x1="114.58333333333334" y1="0" x2="114.58333333333334" y2="177" fill="rgb(0, 0, 0)" stroke="rgb(60, 60, 60)" stroke-width="1px" opacity="0.25"></line><line x1="137.5" y1="0" x2="137.5" y2="177" fill="rgb(0, 0, 0)" stroke="rgb(60, 60, 60)" stroke-width="1px" opacity="0.25"></line><line x1="160.41666666666669" y1="0" x2="160.41666666666669" y2="177" fill="rgb(0, 0, 0)" stroke="rgb(60, 60, 60)" stroke-width="1px" opacity="0.25"></line><line x1="183.33333333333331" y1="0" x2="183.33333333333331" y2="177" fill="rgb(0, 0, 0)" stroke="rgb(60, 60, 60)" stroke-width="1px" opacity="0.25"></line><line x1="206.25" y1="0" x2="206.25" y2="177" fill="rgb(0, 0, 0)" stroke="rgb(60, 60, 60)" stroke-width="1px" opacity="0.25"></line><line x1="229.16666666666669" y1="0" x2="229.16666666666669" y2="177" fill="rgb(0, 0, 0)" stroke="rgb(60, 60, 60)" stroke-width="1px" opacity="0.25"></line><line x1="252.08333333333331" y1="0" x2="252.08333333333331" y2="177" fill="rgb(0, 0, 0)" stroke="rgb(60, 60, 60)" stroke-width="1px" opacity="0.25"></line><line x1="275" y1="0" x2="275" y2="177" fill="rgb(0, 0, 0)" stroke="rgb(60, 60, 60)" stroke-width="1px" opacity="0.25"></line></g><g><line x1="0" y1="177" x2="275" y2="177" fill="rgb(0, 0, 0)" stroke="rgb(60, 60, 60)" stroke-width="1px" opacity="0.25"></line><line x1="0" y1="160.9090909090909" x2="275" y2="160.9090909090909" fill="rgb(0, 0, 0)" stroke="rgb(60, 60, 60)" stroke-width="1px" opacity="0.25"></line><line x1="0" y1="144.8181818181818" x2="275" y2="144.8181818181818" fill="rgb(0, 0, 0)" stroke="rgb(60, 60, 60)" stroke-width="1px" opacity="0.25"></line><line x1="0" y1="128.72727272727272" x2="275" y2="128.72727272727272" fill="rgb(0, 0, 0)" stroke="rgb(60, 60, 60)" stroke-width="1px" opacity="0.25"></line><line x1="0" y1="112.63636363636364" x2="275" y2="112.63636363636364" fill="rgb(0, 0, 0)" stroke="rgb(60, 60, 60)" stroke-width="1px" opacity="0.25"></line><line x1="0" y1="96.54545454545455" x2="275" y2="96.54545454545455" fill="rgb(0, 0, 0)" stroke="rgb(60, 60, 60)" stroke-width="1px" opacity="0.25"></line><line x1="0" y1="80.45454545454547" x2="275" y2="80.45454545454547" fill="rgb(0, 0, 0)" stroke="rgb(60, 60, 60)" stroke-width="1px" opacity="0.25"></line><line x1="0" y1="64.36363636363639" x2="275" y2="64.36363636363639" fill="rgb(0, 0, 0)" stroke="rgb(60, 60, 60)" stroke-width="1px" opacity="0.25"></line><line x1="0" y1="48.27272727272728" x2="275" y2="48.27272727272728" fill="rgb(0, 0, 0)" stroke="rgb(60, 60, 60)" stroke-width="1px" opacity="0.25"></line><line x1="0" y1="32.18181818181819" x2="275" y2="32.18181818181819" fill="rgb(0, 0, 0)" stroke="rgb(60, 60, 60)" stroke-width="1px" opacity="0.25"></line><line x1="0" y1="16.090909090909093" x2="275" y2="16.090909090909093" fill="rgb(0, 0, 0)" stroke="rgb(60, 60, 60)" stroke-width="1px" opacity="0.25"></line><line x1="0" y1="0" x2="275" y2="0" fill="rgb(0, 0, 0)" stroke="rgb(60, 60, 60)" stroke-width="1px" opacity="0.25"></line></g></g></g><g><g><line x1="0" y1="160.9090909090909" x2="275" y2="160.9090909090909" fill="rgb(0, 0, 0)" stroke="rgb(153, 153, 153)" stroke-width="1.5px"></line></g></g><g><g><line x1="22.916666666666664" y1="0" x2="22.916666666666664" y2="177" fill="rgb(0, 0, 0)" stroke="rgb(153, 153, 153)" stroke-width="1.5px"></line></g></g><g><g><g><g><g><path stroke="rgb(0, 119, 187)" stroke-width="2px" d="M27.874641666666665,129.7476727854122L28.304833333333335,125.64008586903302L28.5085625,128.19771969401435L28.93825,126.80078220395245L29.14303333333333,126.50608054819284L29.345983333333333,128.01807898392272L29.773241666666667,117.48048783997561L29.976375,121.52415270149358L30.405420833333334,124.18852100384834L30.60919583333333,121.23310534682444L31.038058333333336,124.1364330566457L31.466004166666668,111.39788328313261L31.895920833333335,111.9772868042576L32.325379166666664,108.09615596156684L32.755204166666665,110.43085102285038L33.185854166666665,103.883144672693L33.386741666666666,105.56041638268356L33.81294583333334,107.06124946000872L34.0143375,107.69645992857691L34.214675,107.84058925879881L34.63785416666666,103.00614612966433L35.05979583333333,98.0295294014276L35.260133333333336,99.37724137984061L35.6824875,97.36027634177859L35.88227500000001,96.32629782212976L36.30513333333334,100.7801578536287L36.503912500000006,94.93644143068522L36.7002625,97.65521899388796L37.122570833333334,98.2035710536986L37.5442375,93.91116673328942L67.05769583333334,65.42362238647227L67.47491666666666,70.82376063450488L67.67025833333334,70.2797879787718L68.0882125,63.99495487734204L68.28245416666667,63.67442838916912L68.47742916666667,64.14226045568029L68.67199166666667,64.57580974426375L122.54472083333333,58.34083936378592L122.97152083333333,48.37651295653825L123.17066666666666,52.41216522698208L123.36990416666667,47.99966151134467L123.79221249999999,51.83427782165259L123.99071666666667,51.73188699661185L124.41375833333333,54.29653778000794L124.83588333333333,52.11817397924614L125.03388333333334,54.05552669136415L125.23234166666667,52.701794927458195L125.42988333333334,50.88226159840856L125.62829583333333,49.29968411429478L159.35090416666668,53.01791493765225L159.53469583333336,54.66008146186746L159.93679166666666,51.876002982262804L160.12443333333334,50.87739074131191L160.31212083333332,54.141224874662726L160.71137499999998,49.61486936981696L161.11539583333334,46.85139705570495L161.5205625,48.23748578412582L161.70967083333332,52.703031098055504L161.89818333333332,55.388922130005994L162.08683333333332,48.67289956291518L162.27585,46.058465953386815L164.4370291666667,46.148597031950715L164.65794583333332,45.110337716133046L164.87822083333333,43.56760520669411L207.13151249999999,30.52781957323009L207.32891666666666,31.948484303988636L207.5282,30.94084677411641L215.625025,26.755314196070856L215.82912083333335,31.83057559397011L216.03523333333334,29.63127480611473L216.47459166666667,30.375734704425156L216.68052083333333,28.88667634279841L216.88667916666665,29.406646880088346L217.32585416666666,29.656632570140005L217.53114166666668,28.701024005516615L217.97027083333333,32.33949664744321L218.40990416666665,31.258744660499048L218.614825,28.96895438266648L218.82171666666667,31.422047793970194L219.02792083333333,28.008925007657524L219.47016666666667,29.92054954362078L219.67719583333331,31.13537835820412L219.88376666666667,30.899378370881408L220.32477500000002,31.073565032069467L220.53152916666667,31.194182148114976L220.97235416666666,32.056957859524374L221.412675,30.61117813647394L221.61997916666667,32.250691847580526L221.82668750000002,30.807281230406375L222.03293749999997,30.659178224713884L222.23978333333332,30.688869503531862L222.6808375,31.39802986880943L223.12170833333334,28.19392275401586L223.32892083333334,28.44020314435278L223.77006666666665,31.91650493033248L224.21020416666664,29.11423375275291L224.41686666666666,27.705003831013897L224.6231625,29.458115178312255L224.82867916666666,31.931173911956108L225.2639125,29.971606109306748L225.700475,28.307397802822777L225.90420416666666,33.362268610138415L226.33847500000002,28.741033315123303L226.54215833333333,27.239036223395118L226.977575,28.465992995507747L227.1809375,27.299498231311333L227.61690416666667,31.038949273384617L241.48909583333332,29.218456542681793L241.92084583333332,30.391925505098385L242.12173333333334,30.079327101098556L242.55504166666668,29.6909392614115L242.75698333333332,27.62268221563056L243.18983333333335,30.347785546527064L243.622225,27.432714183521625L244.05466249999998,28.47587057147419L244.25642083333335,28.3428488867182L244.45827083333333,30.2355359183193L244.65998333333334,27.240766791941496L245.0917333333333,28.503325786611896L245.52394166666667,27.450380332090873L245.72583749999998,26.763523068069105L246.15818333333334,27.585117586095038L246.36182083333335,28.409154080788795L246.56481666666667,29.940961226350453L247.0024791666667,27.03952082210955L247.44151666666667,31.472624810815006L247.6480875,28.38394975659969L247.86157916666664,28.524383585701145L248.303,27.563187876169337L248.5115416666667,29.22741537196535L248.72026666666667,28.753622992626333L248.9295875,30.442708058262156L249.13854166666667,29.634982626010213L249.58179583333333,29.1468542436657L249.78969583333333,29.34542688881598L250.2319875,31.106047102809043L250.4404375,28.88667774300768L250.64920833333332,29.481136015715634L250.85710833333331,29.623186983948642L251.29981249999997,28.587584684295962L251.7422875,29.242415077071513L252.08333333333331,28.270209060178757" style="fill: none;" fill="none"></path></g></g></g></g><g opacity="0.2"><g><g><g><path stroke="rgb(0, 119, 187)" stroke-width="2px" d="M27.874641666666665,129.7476727854122L28.304833333333335,125.43059893629768L28.5085625,128.33481142466718L28.93825,126.72571965239266L29.14303333333333,126.4902431585572L29.345983333333333,128.09933493083173L29.773241666666667,116.9141894849864L29.976375,121.74146240407771L30.405420833333334,124.33170623399995L30.60919583333333,121.07427900487727L31.038058333333336,124.29246015169404L31.466004166666668,110.71330368518831L31.895920833333335,112.00842440128328L32.325379166666664,107.8875809636983L32.755204166666665,110.55631935596467L33.185854166666665,103.5312658277425L33.386741666666666,105.65055427226153L33.81294583333334,107.14190539988604L34.0143375,107.73059663447467L34.214675,107.84833488139239L34.63785416666666,102.74633938615973L35.05979583333333,97.76208213784479L35.260133333333336,99.44966847246344L35.6824875,97.25188306786798L35.88227500000001,96.27073101022027L36.30513333333334,101.01951176469977L36.503912500000006,94.62239555337213L36.7002625,97.8013282201507L37.122570833333334,98.23303992098029L37.5442375,93.68048957803033L67.05769583333334,63.892679539593786L67.47491666666666,71.11396827481012L67.67025833333334,70.25055446408014L68.0882125,63.65720304575834L68.28245416666667,63.65720304575834L68.47742916666667,64.16740211573514L68.67199166666667,64.59910902110013L122.54472083333333,58.005767193707555L122.97152083333333,47.84102228554815L123.17066666666666,52.629044326868936L123.36990416666667,47.76253012093633L123.79221249999999,52.04035309228031L123.99071666666667,51.72638443383305L124.41375833333333,54.43436411294071L124.83588333333333,52.001107009974405L125.03388333333334,54.159641536799356L125.23234166666667,52.629044326868936L125.42988333333334,50.78447845849125L125.62829583333333,49.21463516625492L159.35090416666668,53.21773556145756L159.53469583333336,54.74833277138798L159.93679166666666,51.72638443383305L160.12443333333334,50.82372454079716L160.31212083333332,54.31662586602299L160.71137499999998,49.371619495478555L161.11539583333334,46.70288589867681L161.5205625,48.31197527321905L161.70967083333332,52.9430129853162L161.89818333333332,55.53326400843534L162.08683333333332,48.31197527321905L162.27585,45.91796425255865L164.4370291666667,46.1534407463941L164.65794583333332,45.05454085089946L164.87822083333333,43.48469755866313L207.13151249999999,29.827051325277864L207.32891666666666,32.024831934408724L207.5282,30.886695547537386L215.625025,26.530380411581575L215.82912083333335,32.10332409902054L216.03523333333334,29.5130826668306L216.47459166666667,30.415742559866487L216.68052083333333,28.80665318532425L216.88667916666665,29.434590502218782L217.32585416666666,29.67006699605423L217.53114166666668,28.649668856100618L217.97027083333333,32.53503100438553L218.40990416666665,31.20066420598465L218.614825,28.84589926763016L218.82171666666667,31.553878946737825L219.02792083333333,27.825501127676546L219.47016666666667,30.023281736807405L219.67719583333331,31.20066420598465L219.88376666666667,30.886695547537386L220.32477500000002,31.082925959066927L220.53152916666667,31.20066420598465L220.97235416666666,32.10332409902054L221.412675,30.533480806784212L221.61997916666667,32.33880059285599L221.82668750000002,30.729711218313753L222.03293749999997,30.651219053701936L222.23978333333332,30.690465136007845L222.6808375,31.4361406998201L223.12170833333334,28.021731539206087L223.32892083333334,28.453438444571077L223.77006666666665,32.10332409902054L224.21020416666664,28.963637514547884L224.41686666666666,27.629270716147005L224.6231625,29.552328749136507L224.82867916666666,32.06407801671463L225.2639125,29.866297407583772L225.700475,28.217961950735628L225.90420416666666,33.63392130895096L226.33847500000002,28.492684526876985L226.54215833333333,27.158317728476106L226.977575,28.531930609182893L227.1809375,27.236809893087923L227.61690416666667,31.23991028829056L241.48909583333332,29.120621843771517L241.92084583333332,30.454988642172395L242.12173333333334,30.062527819113313L242.55504166666668,29.67006699605423L242.75698333333332,27.51153246922928L243.18983333333335,30.494234724478304L243.622225,27.27605597539383L244.05466249999998,28.531930609182893L244.25642083333335,28.335700197653352L244.45827083333333,30.33725039525467L244.65998333333334,27.07982556386429L245.0917333333333,28.5711766914888L245.52394166666667,27.393794222311556L245.72583749999998,26.726610823111116L246.15818333333334,27.629270716147005L246.36182083333335,28.453438444571077L246.56481666666667,30.023281736807405L247.0024791666667,26.88359515233475L247.44151666666667,31.710863275961458L247.6480875,28.217961950735628L247.86157916666664,28.531930609182893L248.303,27.51153246922928L248.5115416666667,29.316852255301058L248.72026666666667,28.728161020712434L248.9295875,30.533480806784212L249.13854166666667,29.591574831442415L249.58179583333333,29.120621843771517L249.78969583333333,29.356098337606966L250.2319875,31.20066420598465L250.4404375,28.767407103018343L250.64920833333332,29.5130826668306L250.85710833333331,29.630820913748323L251.29981249999997,28.531930609182893L251.7422875,29.27760617299515L252.08333333333331,28.217961950735628" style="fill: none;" fill="none"></path></g></g></g></g></g></g><g transform="translate(55, 177)" clip-path="url(#clip_1)"><clipPath id="clip_1"><rect width="275" height="23"></rect></clipPath><g><g><line x1="0" y1="0" x2="0" y2="5" style="visibility: inherit;" fill="rgb(0, 0, 0)" stroke="rgb(204, 204, 204)" stroke-width="1px"></line><line x1="22.916666666666664" y1="0" x2="22.916666666666664" y2="5" style="visibility: inherit;" fill="rgb(0, 0, 0)" stroke="rgb(204, 204, 204)" stroke-width="1px"></line><line x1="45.83333333333333" y1="0" x2="45.83333333333333" y2="5" style="visibility: inherit;" fill="rgb(0, 0, 0)" stroke="rgb(204, 204, 204)" stroke-width="1px"></line><line x1="68.75" y1="0" x2="68.75" y2="5" style="visibility: inherit;" fill="rgb(0, 0, 0)" stroke="rgb(204, 204, 204)" stroke-width="1px"></line><line x1="91.66666666666666" y1="0" x2="91.66666666666666" y2="5" style="visibility: inherit;" fill="rgb(0, 0, 0)" stroke="rgb(204, 204, 204)" stroke-width="1px"></line><line x1="114.58333333333334" y1="0" x2="114.58333333333334" y2="5" style="visibility: inherit;" fill="rgb(0, 0, 0)" stroke="rgb(204, 204, 204)" stroke-width="1px"></line><line x1="137.5" y1="0" x2="137.5" y2="5" style="visibility: inherit;" fill="rgb(0, 0, 0)" stroke="rgb(204, 204, 204)" stroke-width="1px"></line><line x1="160.41666666666669" y1="0" x2="160.41666666666669" y2="5" style="visibility: inherit;" fill="rgb(0, 0, 0)" stroke="rgb(204, 204, 204)" stroke-width="1px"></line><line x1="183.33333333333331" y1="0" x2="183.33333333333331" y2="5" style="visibility: inherit;" fill="rgb(0, 0, 0)" stroke="rgb(204, 204, 204)" stroke-width="1px"></line><line x1="206.25" y1="0" x2="206.25" y2="5" style="visibility: inherit;" fill="rgb(0, 0, 0)" stroke="rgb(204, 204, 204)" stroke-width="1px"></line><line x1="229.16666666666669" y1="0" x2="229.16666666666669" y2="5" style="visibility: inherit;" fill="rgb(0, 0, 0)" stroke="rgb(204, 204, 204)" stroke-width="1px"></line><line x1="252.08333333333331" y1="0" x2="252.08333333333331" y2="5" style="visibility: inherit;" fill="rgb(0, 0, 0)" stroke="rgb(204, 204, 204)" stroke-width="1px"></line><line x1="275" y1="0" x2="275" y2="5" style="visibility: inherit;" fill="rgb(0, 0, 0)" stroke="rgb(204, 204, 204)" stroke-width="1px"></line></g><g transform="translate(0, 8)"><text x="0" y="0" dx="0em" dy="0.95em" style="text-anchor: middle; visibility: hidden; font-family: &quot;Helvetica Neue&quot;, sans-serif; font-size: 12px; font-weight: 200;" fill="rgb(50, 49, 63)" stroke="none" stroke-width="1px">-500k</text><text x="22.916666666666664" y="0" dx="0em" dy="0.95em" style="text-anchor: middle; visibility: inherit; font-family: &quot;Helvetica Neue&quot;, sans-serif; font-size: 12px; font-weight: 200;" fill="rgb(50, 49, 63)" stroke="none" stroke-width="1px">0</text><text x="45.83333333333333" y="0" dx="0em" dy="0.95em" style="text-anchor: middle; visibility: hidden; font-family: &quot;Helvetica Neue&quot;, sans-serif; font-size: 12px; font-weight: 200;" fill="rgb(50, 49, 63)" stroke="none" stroke-width="1px">500k</text><text x="68.75" y="0" dx="0em" dy="0.95em" style="text-anchor: middle; visibility: inherit; font-family: &quot;Helvetica Neue&quot;, sans-serif; font-size: 12px; font-weight: 200;" fill="rgb(50, 49, 63)" stroke="none" stroke-width="1px">1M</text><text x="91.66666666666666" y="0" dx="0em" dy="0.95em" style="text-anchor: middle; visibility: hidden; font-family: &quot;Helvetica Neue&quot;, sans-serif; font-size: 12px; font-weight: 200;" fill="rgb(50, 49, 63)" stroke="none" stroke-width="1px">1.5M</text><text x="114.58333333333334" y="0" dx="0em" dy="0.95em" style="text-anchor: middle; visibility: inherit; font-family: &quot;Helvetica Neue&quot;, sans-serif; font-size: 12px; font-weight: 200;" fill="rgb(50, 49, 63)" stroke="none" stroke-width="1px">2M</text><text x="137.5" y="0" dx="0em" dy="0.95em" style="text-anchor: middle; visibility: hidden; font-family: &quot;Helvetica Neue&quot;, sans-serif; font-size: 12px; font-weight: 200;" fill="rgb(50, 49, 63)" stroke="none" stroke-width="1px">2.5M</text><text x="160.41666666666669" y="0" dx="0em" dy="0.95em" style="text-anchor: middle; visibility: inherit; font-family: &quot;Helvetica Neue&quot;, sans-serif; font-size: 12px; font-weight: 200;" fill="rgb(50, 49, 63)" stroke="none" stroke-width="1px">3M</text><text x="183.33333333333331" y="0" dx="0em" dy="0.95em" style="text-anchor: middle; visibility: hidden; font-family: &quot;Helvetica Neue&quot;, sans-serif; font-size: 12px; font-weight: 200;" fill="rgb(50, 49, 63)" stroke="none" stroke-width="1px">3.5M</text><text x="206.25" y="0" dx="0em" dy="0.95em" style="text-anchor: middle; visibility: inherit; font-family: &quot;Helvetica Neue&quot;, sans-serif; font-size: 12px; font-weight: 200;" fill="rgb(50, 49, 63)" stroke="none" stroke-width="1px">4M</text><text x="229.16666666666669" y="0" dx="0em" dy="0.95em" style="text-anchor: middle; visibility: hidden; font-family: &quot;Helvetica Neue&quot;, sans-serif; font-size: 12px; font-weight: 200;" fill="rgb(50, 49, 63)" stroke="none" stroke-width="1px">4.5M</text><text x="252.08333333333331" y="0" dx="0em" dy="0.95em" style="text-anchor: middle; visibility: inherit; font-family: &quot;Helvetica Neue&quot;, sans-serif; font-size: 12px; font-weight: 200;" fill="rgb(50, 49, 63)" stroke="none" stroke-width="1px">5M</text><text x="275" y="0" dx="0em" dy="0.95em" style="text-anchor: middle; visibility: hidden; font-family: &quot;Helvetica Neue&quot;, sans-serif; font-size: 12px; font-weight: 200;" fill="rgb(50, 49, 63)" stroke="none" stroke-width="1px">5.5M</text></g><line x1="0" y1="0" x2="275" y2="0" fill="rgb(0, 0, 0)" stroke="rgb(204, 204, 204)" stroke-width="1px"></line></g></g></g></g></svg>