<svg viewBox="0 0 330 200" xmlns="http://www.w3.org/2000/svg"><g><g><g><g><g><line x1="55" y1="177" x2="50" y2="177" style="visibility: inherit;" fill="rgb(0, 0, 0)" stroke="rgb(204, 204, 204)" stroke-width="1px"></line><line x1="55" y1="162.25" x2="50" y2="162.25" style="visibility: inherit;" fill="rgb(0, 0, 0)" stroke="rgb(204, 204, 204)" stroke-width="1px"></line><line x1="55" y1="147.5" x2="50" y2="147.5" style="visibility: inherit;" fill="rgb(0, 0, 0)" stroke="rgb(204, 204, 204)" stroke-width="1px"></line><line x1="55" y1="132.75" x2="50" y2="132.75" style="visibility: inherit;" fill="rgb(0, 0, 0)" stroke="rgb(204, 204, 204)" stroke-width="1px"></line><line x1="55" y1="118" x2="50" y2="118" style="visibility: inherit;" fill="rgb(0, 0, 0)" stroke="rgb(204, 204, 204)" stroke-width="1px"></line><line x1="55" y1="103.25" x2="50" y2="103.25" style="visibility: inherit;" fill="rgb(0, 0, 0)" stroke="rgb(204, 204, 204)" stroke-width="1px"></line><line x1="55" y1="88.50000000000001" x2="50" y2="88.50000000000001" style="visibility: inherit;" fill="rgb(0, 0, 0)" stroke="rgb(204, 204, 204)" stroke-width="1px"></line><line x1="55" y1="73.75000000000001" x2="50" y2="73.75000000000001" style="visibility: inherit;" fill="rgb(0, 0, 0)" stroke="rgb(204, 204, 204)" stroke-width="1px"></line><line x1="55" y1="59.00000000000003" x2="50" y2="59.00000000000003" style="visibility: inherit;" fill="rgb(0, 0, 0)" stroke="rgb(204, 204, 204)" stroke-width="1px"></line><line x1="55" y1="44.25000000000003" x2="50" y2="44.25000000000003" style="visibility: inherit;" fill="rgb(0, 0, 0)" stroke="rgb(204, 204, 204)" stroke-width="1px"></line><line x1="55" y1="29.5" x2="50" y2="29.5" style="visibility: inherit;" fill="rgb(0, 0, 0)" stroke="rgb(204, 204, 204)" stroke-width="1px"></line><line x1="55" y1="14.75" x2="50" y2="14.75" style="visibility: inherit;" fill="rgb(0, 0, 0)" stroke="rgb(204, 204, 204)" stroke-width="1px"></line><line x1="55" y1="0" x2="50" y2="0" style="visibility: inherit;" fill="rgb(0, 0, 0)" stroke="rgb(204, 204, 204)" stroke-width="1px"></line></g><g transform="translate(45, 0)"><text x="0" y="177" dx="0em" dy="0.3em" style="text-anchor: end; visibility: hidden; font-family: &quot;Helvetica Neue&quot;, sans-serif; font-size: 12px; font-weight: 200;" fill="rgb(50, 49, 63)" stroke="none" stroke-width="1px">-0.05</text><text x="0" y="162.25" dx="0em" dy="0.3em" style="text-anchor: end; visibility: inherit; font-family: &quot;Helvetica Neue&quot;, sans-serif; font-size: 12px; font-weight: 200;" fill="rgb(50, 49, 63)" stroke="none" stroke-width="1px">0</text><text x="0" y="147.5" dx="0em" dy="0.3em" style="text-anchor: end; visibility: hidden; font-family: &quot;Helvetica Neue&quot;, sans-serif; font-size: 12px; font-weight: 200;" fill="rgb(50, 49, 63)" stroke="none" stroke-width="1px">0.05</text><text x="0" y="132.75" dx="0em" dy="0.3em" style="text-anchor: end; visibility: inherit; font-family: &quot;Helvetica Neue&quot;, sans-serif; font-size: 12px; font-weight: 200;" fill="rgb(50, 49, 63)" stroke="none" stroke-width="1px">0.1</text><text x="0" y="118" dx="0em" dy="0.3em" style="text-anchor: end; visibility: hidden; font-family: &quot;Helvetica Neue&quot;, sans-serif; font-size: 12px; font-weight: 200;" fill="rgb(50, 49, 63)" stroke="none" stroke-width="1px">0.15</text><text x="0" y="103.25" dx="0em" dy="0.3em" style="text-anchor: end; visibility: inherit; font-family: &quot;Helvetica Neue&quot;, sans-serif; font-size: 12px; font-weight: 200;" fill="rgb(50, 49, 63)" stroke="none" stroke-width="1px">0.2</text><text x="0" y="88.50000000000001" dx="0em" dy="0.3em" style="text-anchor: end; visibility: hidden; font-family: &quot;Helvetica Neue&quot;, sans-serif; font-size: 12px; font-weight: 200;" fill="rgb(50, 49, 63)" stroke="none" stroke-width="1px">0.25</text><text x="0" y="73.75000000000001" dx="0em" dy="0.3em" style="text-anchor: end; visibility: inherit; font-family: &quot;Helvetica Neue&quot;, sans-serif; font-size: 12px; font-weight: 200;" fill="rgb(50, 49, 63)" stroke="none" stroke-width="1px">0.3</text><text x="0" y="59.00000000000003" dx="0em" dy="0.3em" style="text-anchor: end; visibility: hidden; font-family: &quot;Helvetica Neue&quot;, sans-serif; font-size: 12px; font-weight: 200;" fill="rgb(50, 49, 63)" stroke="none" stroke-width="1px">0.35</text><text x="0" y="44.25000000000003" dx="0em" dy="0.3em" style="text-anchor: end; visibility: inherit; font-family: &quot;Helvetica Neue&quot;, sans-serif; font-size: 12px; font-weight: 200;" fill="rgb(50, 49, 63)" stroke="none" stroke-width="1px">0.4</text><text x="0" y="29.5" dx="0em" dy="0.3em" style="text-anchor: end; visibility: hidden; font-family: &quot;Helvetica Neue&quot;, sans-serif; font-size: 12px; font-weight: 200;" fill="rgb(50, 49, 63)" stroke="none" stroke-width="1px">0.45</text><text x="0" y="14.75" dx="0em" dy="0.3em" style="text-anchor: end; visibility: inherit; font-family: &quot;Helvetica Neue&quot;, sans-serif; font-size: 12px; font-weight: 200;" fill="rgb(50, 49, 63)" stroke="none" stroke-width="1px">0.5</text><text x="0" y="0" dx="0em" dy="0.3em" style="text-anchor: end; visibility: hidden; font-family: &quot;Helvetica Neue&quot;, sans-serif; font-size: 12px; font-weight: 200;" fill="rgb(50, 49, 63)" stroke="none" stroke-width="1px">0.55</text></g><line x1="55" y1="0" x2="55" y2="177" fill="rgb(0, 0, 0)" stroke="rgb(204, 204, 204)" stroke-width="1px"></line></g></g><g transform="translate(55, 0)" clip-path="url(#clip_0)"><clipPath id="clip_0"><rect width="275" height="177"></rect></clipPath><g><g><g><line x1="0" y1="0" x2="0" y2="177" fill="rgb(0, 0, 0)" stroke="rgb(60, 60, 60)" stroke-width="1px" opacity="0.25"></line><line x1="22.916666666666664" y1="0" x2="22.916666666666664" y2="177" fill="rgb(0, 0, 0)" stroke="rgb(60, 60, 60)" stroke-width="1px" opacity="0.25"></line><line x1="45.83333333333333" y1="0" x2="45.83333333333333" y2="177" fill="rgb(0, 0, 0)" stroke="rgb(60, 60, 60)" stroke-width="1px" opacity="0.25"></line><line x1="68.75" y1="0" x2="68.75" y2="177" fill="rgb(0, 0, 0)" stroke="rgb(60, 60, 60)" stroke-width="1px" opacity="0.25"></line><line x1="91.66666666666666" y1="0" x2="91.66666666666666" y2="177" fill="rgb(0, 0, 0)" stroke="rgb(60, 60, 60)" stroke-width="1px" opacity="0.25"></line><line x1="114.58333333333334" y1="0" x2="114.58333333333334" y2="177" fill="rgb(0, 0, 0)" stroke="rgb(60, 60, 60)" stroke-width="1px" opacity="0.25"></line><line x1="137.5" y1="0" x2="137.5" y2="177" fill="rgb(0, 0, 0)" stroke="rgb(60, 60, 60)" stroke-width="1px" opacity="0.25"></line><line x1="160.41666666666669" y1="0" x2="160.41666666666669" y2="177" fill="rgb(0, 0, 0)" stroke="rgb(60, 60, 60)" stroke-width="1px" opacity="0.25"></line><line x1="183.33333333333331" y1="0" x2="183.33333333333331" y2="177" fill="rgb(0, 0, 0)" stroke="rgb(60, 60, 60)" stroke-width="1px" opacity="0.25"></line><line x1="206.25" y1="0" x2="206.25" y2="177" fill="rgb(0, 0, 0)" stroke="rgb(60, 60, 60)" stroke-width="1px" opacity="0.25"></line><line x1="229.16666666666669" y1="0" x2="229.16666666666669" y2="177" fill="rgb(0, 0, 0)" stroke="rgb(60, 60, 60)" stroke-width="1px" opacity="0.25"></line><line x1="252.08333333333331" y1="0" x2="252.08333333333331" y2="177" fill="rgb(0, 0, 0)" stroke="rgb(60, 60, 60)" stroke-width="1px" opacity="0.25"></line><line x1="275" y1="0" x2="275" y2="177" fill="rgb(0, 0, 0)" stroke="rgb(60, 60, 60)" stroke-width="1px" opacity="0.25"></line></g><g><line x1="0" y1="177" x2="275" y2="177" fill="rgb(0, 0, 0)" stroke="rgb(60, 60, 60)" stroke-width="1px" opacity="0.25"></line><line x1="0" y1="162.25" x2="275" y2="162.25" fill="rgb(0, 0, 0)" stroke="rgb(60, 60, 60)" stroke-width="1px" opacity="0.25"></line><line x1="0" y1="147.5" x2="275" y2="147.5" fill="rgb(0, 0, 0)" stroke="rgb(60, 60, 60)" stroke-width="1px" opacity="0.25"></line><line x1="0" y1="132.75" x2="275" y2="132.75" fill="rgb(0, 0, 0)" stroke="rgb(60, 60, 60)" stroke-width="1px" opacity="0.25"></line><line x1="0" y1="118" x2="275" y2="118" fill="rgb(0, 0, 0)" stroke="rgb(60, 60, 60)" stroke-width="1px" opacity="0.25"></line><line x1="0" y1="103.25" x2="275" y2="103.25" fill="rgb(0, 0, 0)" stroke="rgb(60, 60, 60)" stroke-width="1px" opacity="0.25"></line><line x1="0" y1="88.50000000000001" x2="275" y2="88.50000000000001" fill="rgb(0, 0, 0)" stroke="rgb(60, 60, 60)" stroke-width="1px" opacity="0.25"></line><line x1="0" y1="73.75000000000001" x2="275" y2="73.75000000000001" fill="rgb(0, 0, 0)" stroke="rgb(60, 60, 60)" stroke-width="1px" opacity="0.25"></line><line x1="0" y1="59.00000000000003" x2="275" y2="59.00000000000003" fill="rgb(0, 0, 0)" stroke="rgb(60, 60, 60)" stroke-width="1px" opacity="0.25"></line><line x1="0" y1="44.25000000000003" x2="275" y2="44.25000000000003" fill="rgb(0, 0, 0)" stroke="rgb(60, 60, 60)" stroke-width="1px" opacity="0.25"></line><line x1="0" y1="29.5" x2="275" y2="29.5" fill="rgb(0, 0, 0)" stroke="rgb(60, 60, 60)" stroke-width="1px" opacity="0.25"></line><line x1="0" y1="14.75" x2="275" y2="14.75" fill="rgb(0, 0, 0)" stroke="rgb(60, 60, 60)" stroke-width="1px" opacity="0.25"></line><line x1="0" y1="0" x2="275" y2="0" fill="rgb(0, 0, 0)" stroke="rgb(60, 60, 60)" stroke-width="1px" opacity="0.25"></line></g></g></g><g><g><line x1="0" y1="162.25" x2="275" y2="162.25" fill="rgb(0, 0, 0)" stroke="rgb(153, 153, 153)" stroke-width="1.5px"></line></g></g><g><g><line x1="22.916666666666664" y1="0" x2="22.916666666666664" y2="177" fill="rgb(0, 0, 0)" stroke="rgb(153, 153, 153)" stroke-width="1.5px"></line></g></g><g><g><g><g><g><path stroke="rgb(0, 119, 187)" stroke-width="2px" d="M27.874641666666665,118.55389638245107L28.304833333333335,115.62602683829479L28.5085625,117.80134198173766L28.93825,113.86255109015092L29.14303333333333,114.28468609900956L29.345983333333333,116.1167713628144L29.773241666666667,108.34499098138164L29.976375,110.92728750864148L30.405420833333334,111.54569574315428L30.60919583333333,108.81272913146061L31.038058333333336,109.62729677415422L31.466004166666668,102.93278563724641L31.895920833333335,101.05336412961823L32.325379166666664,99.20536447676972L32.755204166666665,98.13769844265046L33.185854166666665,94.46213031973099L33.386741666666666,100.48508526819397L33.81294583333334,96.6260245394986L34.0143375,95.88409816644753L34.214675,98.06565524884097L34.63785416666666,92.122254461131L35.05979583333333,92.38372440877971L35.260133333333336,90.60596782462713L35.6824875,90.963075126706L35.88227500000001,86.63984250394546L36.30513333333334,90.76080273535125L36.503912500000006,85.40301844832562L36.7002625,88.10843294096213L37.122570833333334,90.99144957145896L37.5442375,87.26427615259811L67.05769583333334,59.76008169301663L67.47491666666666,63.61382775842017L67.67025833333334,64.18026941954379L68.0882125,58.796953409253604L68.28245416666667,59.26220551630489L68.47742916666667,58.89655947838757L68.67199166666667,59.52037136601291L122.54472083333333,51.39494074590199L122.97152083333333,46.77538247264991L123.17066666666666,48.447682880493375L123.36990416666667,46.21623348585743L123.79221249999999,49.10055599828554L123.99071666666667,48.118489670775546L124.41375833333333,49.43119206361885L124.83588333333333,48.31056994586169L125.03388333333334,50.336533933389575L125.23234166666667,48.41514554536835L125.42988333333334,47.8888509616429L125.62829583333333,46.88859605770352L159.35090416666668,47.55791099758977L159.53469583333336,49.01323699921862L159.93679166666666,47.16008746193347L160.12443333333334,47.16291822354887L160.31212083333332,48.876277696136725L160.71137499999998,45.926602717124695L161.11539583333334,44.024015965581015L161.5205625,44.024325429269226L161.70967083333332,47.333956747802404L161.89818333333332,49.66374010831832L162.08683333333332,44.70131691261659L162.27585,43.24119010625475L164.4370291666667,42.232247982829506L164.65794583333332,42.0055740987807L164.87822083333333,41.721454506923095L207.13151249999999,30.123297517176752L207.32891666666666,31.28393649500461L207.5282,30.856422142789143L215.625025,28.167454867190997L215.82912083333335,30.73641980363925L216.03523333333334,29.426781135423738L216.47459166666667,29.846696503429456L216.68052083333333,29.08938108306222L216.88667916666665,29.03128471303461L217.32585416666666,29.612370126264835L217.53114166666668,28.065069990479657L217.97027083333333,30.5365153988931L218.40990416666665,29.572330562946945L218.614825,29.250597912542617L218.82171666666667,30.577512382638588L219.02792083333333,28.893031692999386L219.47016666666667,28.94340278971336L219.67719583333331,31.068017311738714L219.88376666666667,29.98880271256985L220.32477500000002,30.167383767914714L220.53152916666667,30.877354401444762L220.97235416666666,31.010904291771737L221.412675,29.84961033666599L221.61997916666667,31.600940836717967L221.82668750000002,30.541626976297096L222.03293749999997,30.468137029135903L222.23978333333332,30.152891594190976L222.6808375,31.012894912470415L223.12170833333334,28.311714590330325L223.32892083333334,29.01109700549415L223.77006666666665,30.72104238854439L224.21020416666664,29.523338275270874L224.41686666666666,28.46936820173562L224.6231625,29.77840350353162L224.82867916666666,31.091137407863727L225.2639125,29.6979576734214L225.700475,28.750833014812372L225.90420416666666,31.85640064094318L226.33847500000002,28.958254994172933L226.54215833333333,28.576828566285172L226.977575,29.160889086844236L227.1809375,28.43141000953696L227.61690416666667,30.30211279968279L241.48909583333332,29.307290090205015L241.92084583333332,30.599868623979063L242.12173333333334,30.412704189019365L242.55504166666668,29.994319967179763L242.75698333333332,28.62966787990851L243.18983333333335,29.825508667677894L243.622225,28.21221966797728L244.05466249999998,29.29804692850496L244.25642083333335,29.080864895020795L244.45827083333333,29.575968834986696L244.65998333333334,28.47205236028111L245.0917333333333,29.311298395812486L245.52394166666667,29.217820331739034L245.72583749999998,28.239630726992715L246.15818333333334,28.71538822110395L246.36182083333335,29.206893853108625L246.56481666666667,29.718675923734736L247.0024791666667,28.304112586053122L247.44151666666667,30.64604795928429L247.6480875,28.95493017155664L247.86157916666664,29.803167163992498L248.303,28.950881474865383L248.5115416666667,30.056046620643457L248.72026666666667,29.606229819404575L248.9295875,30.576176326299674L249.13854166666667,29.51595010609637L249.58179583333333,29.617623121031272L249.78969583333333,29.330784280742137L250.2319875,30.58160188741678L250.4404375,29.671971361878605L250.64920833333332,29.489300593190592L250.85710833333331,29.59679905559335L251.29981249999997,29.037698089353967L251.7422875,29.3012081041266L252.08333333333331,29.061561174697772" style="fill: none;" fill="none"></path></g></g></g></g><g opacity="0.2"><g><g><g><path stroke="rgb(0, 119, 187)" stroke-width="2px" d="M27.874641666666665,118.55389638245107L28.304833333333335,115.47670549154283L28.5085625,117.91794104874135L28.93825,113.65090547502042L29.14303333333333,114.30737181007862L29.345983333333333,116.21522901952268L29.773241666666667,107.92732945084573L29.976375,111.06606213748456L30.405420833333334,111.57892948389055L30.60919583333333,108.66585737466814L31.038058333333336,109.6710722744465L31.466004166666668,102.57301738858224L31.895920833333335,100.95236255228521L32.325379166666664,99.1060515344143L32.755204166666665,98.08032123744489L33.185854166666665,94.26460242271425L33.386741666666666,100.80876356363298L33.81294583333334,96.41863560676576L34.0143375,95.84422646462919L34.214675,98.18289382755758L34.63785416666666,91.80285146832468L35.05979583333333,92.3977760076523L35.260133333333336,90.51042979955675L35.6824875,90.98226635158063L35.88227500000001,86.40750861167909L36.30513333333334,90.98226635158063L36.503912500000006,85.11508694291118L36.7002625,88.25382402539256L37.122570833333334,91.14638513326646L37.5442375,87.0639749467373L67.05769583333334,58.28198483586313L67.47491666666666,63.82093107700349L67.67025833333334,64.21071043610574L68.0882125,58.5076498091221L68.28245416666667,59.28720852732661L68.47742916666667,58.87690937519075L68.67199166666667,59.55389550328256L122.54472083333333,50.958273768425L122.97152083333333,46.52712380886078L123.17066666666666,48.53755360841754L123.36990416666667,46.096313655376434L123.79221249999999,49.25556173920634L123.99071666666667,48.06571266055107L124.41375833333333,49.501737713813796L124.83588333333333,48.250346839427976L125.03388333333334,50.44541081786157L125.23234166666667,48.31188863515857L125.42988333333334,47.8605674803257L125.62829583333333,46.83484157919884L159.35090416666668,47.593880504369764L159.53469583333336,49.09144735336305L159.93679166666666,47.06049776077273L160.12443333333334,47.16307035088542L160.31212083333332,48.96835497021678L160.71137499999998,45.76808488368991L161.11539583333334,43.921769469976454L161.5205625,44.02434206008914L161.70967083333332,47.51181891560557L161.89818333333332,49.78894448280337L162.08683333333332,44.434632420539856L162.27585,43.16272175312045L164.4370291666667,42.178026646375685L164.65794583333332,41.99339246749881L164.87822083333333,41.706185698509245L207.13151249999999,29.50000351667407L207.32891666666666,31.34631013870242L207.5282,30.83344718813899L215.625025,28.022947669029236L215.82912083333335,30.874477982521086L216.03523333333334,29.35640013217926L216.47459166666667,29.86926308274272L216.68052083333333,29.048682361841202L216.88667916666665,29.028162568807602L217.32585416666666,29.643598109483747L217.53114166666668,27.98191687464714L217.97027083333333,30.669332802295713L218.40990416666665,29.520514518022566L218.614825,29.233307749032974L218.82171666666667,30.648821800947218L219.02792083333333,28.802506387233734L219.47016666666667,28.946109771728516L219.67719583333331,31.182195752859144L219.88376666666667,29.93080487847331L220.32477500000002,30.176980853080778L220.53152916666667,30.91550877690318L220.97235416666666,31.018081367015867L221.412675,29.78720149397853L221.61997916666667,31.695058703422575L221.82668750000002,30.484698623418836L222.03293749999997,30.46418762207034L222.23978333333332,30.135950058698683L222.6808375,31.059112161397962L223.12170833333334,28.166551053524017L223.32892083333334,29.048682361841202L223.77006666666665,30.812936186790495L224.21020416666664,29.458972722291946L224.41686666666666,28.412727028131485L224.6231625,29.848752081394224L224.82867916666666,31.16168475151065L225.2639125,29.623087108135252L225.700475,28.699933797121048L225.90420416666666,32.02329626679423L226.33847500000002,28.802506387233734L226.54215833333333,28.556330412626266L226.977575,29.19227695465088L227.1809375,28.392207235097885L227.61690416666667,30.40264582633975L241.48909583333332,29.253827542066574L241.92084583333332,30.669332802295713L242.12173333333334,30.40264582633975L242.55504166666668,29.971835672855406L242.75698333333332,28.556330412626266L243.18983333333335,29.889774084091215L243.622225,28.125520259141922L244.05466249999998,29.35640013217926L244.25642083333335,29.069193363189697L244.45827083333333,29.602576106786756L244.65998333333334,28.412727028131485L245.0917333333333,29.35640013217926L245.52394166666667,29.21279674768448L245.72583749999998,28.187062054872513L246.15818333333334,28.74095579981804L246.36182083333335,29.233307749032974L246.56481666666667,29.746179491281538L247.0024791666667,28.228092849254608L247.44151666666667,30.7719053924084L247.6480875,28.864048182964325L247.86157916666664,29.848752081394224L248.303,28.90507897734642L248.5115416666667,30.115439057350187L248.72026666666667,29.582056313753156L248.9295875,30.628302007913618L249.13854166666667,29.458972722291946L249.58179583333333,29.623087108135252L249.78969583333333,29.315369337797165L250.2319875,30.648821800947218L250.4404375,29.623087108135252L250.64920833333332,29.479483723640442L250.85710833333331,29.602576106786756L251.29981249999997,29.007651567459106L251.7422875,29.315369337797165L252.08333333333331,29.048682361841202" style="fill: none;" fill="none"></path></g></g></g></g></g></g><g transform="translate(55, 177)" clip-path="url(#clip_1)"><clipPath id="clip_1"><rect width="275" height="23"></rect></clipPath><g><g><line x1="0" y1="0" x2="0" y2="5" style="visibility: inherit;" fill="rgb(0, 0, 0)" stroke="rgb(204, 204, 204)" stroke-width="1px"></line><line x1="22.916666666666664" y1="0" x2="22.916666666666664" y2="5" style="visibility: inherit;" fill="rgb(0, 0, 0)" stroke="rgb(204, 204, 204)" stroke-width="1px"></line><line x1="45.83333333333333" y1="0" x2="45.83333333333333" y2="5" style="visibility: inherit;" fill="rgb(0, 0, 0)" stroke="rgb(204, 204, 204)" stroke-width="1px"></line><line x1="68.75" y1="0" x2="68.75" y2="5" style="visibility: inherit;" fill="rgb(0, 0, 0)" stroke="rgb(204, 204, 204)" stroke-width="1px"></line><line x1="91.66666666666666" y1="0" x2="91.66666666666666" y2="5" style="visibility: inherit;" fill="rgb(0, 0, 0)" stroke="rgb(204, 204, 204)" stroke-width="1px"></line><line x1="114.58333333333334" y1="0" x2="114.58333333333334" y2="5" style="visibility: inherit;" fill="rgb(0, 0, 0)" stroke="rgb(204, 204, 204)" stroke-width="1px"></line><line x1="137.5" y1="0" x2="137.5" y2="5" style="visibility: inherit;" fill="rgb(0, 0, 0)" stroke="rgb(204, 204, 204)" stroke-width="1px"></line><line x1="160.41666666666669" y1="0" x2="160.41666666666669" y2="5" style="visibility: inherit;" fill="rgb(0, 0, 0)" stroke="rgb(204, 204, 204)" stroke-width="1px"></line><line x1="183.33333333333331" y1="0" x2="183.33333333333331" y2="5" style="visibility: inherit;" fill="rgb(0, 0, 0)" stroke="rgb(204, 204, 204)" stroke-width="1px"></line><line x1="206.25" y1="0" x2="206.25" y2="5" style="visibility: inherit;" fill="rgb(0, 0, 0)" stroke="rgb(204, 204, 204)" stroke-width="1px"></line><line x1="229.16666666666669" y1="0" x2="229.16666666666669" y2="5" style="visibility: inherit;" fill="rgb(0, 0, 0)" stroke="rgb(204, 204, 204)" stroke-width="1px"></line><line x1="252.08333333333331" y1="0" x2="252.08333333333331" y2="5" style="visibility: inherit;" fill="rgb(0, 0, 0)" stroke="rgb(204, 204, 204)" stroke-width="1px"></line><line x1="275" y1="0" x2="275" y2="5" style="visibility: inherit;" fill="rgb(0, 0, 0)" stroke="rgb(204, 204, 204)" stroke-width="1px"></line></g><g transform="translate(0, 8)"><text x="0" y="0" dx="0em" dy="0.95em" style="text-anchor: middle; visibility: hidden; font-family: &quot;Helvetica Neue&quot;, sans-serif; font-size: 12px; font-weight: 200;" fill="rgb(50, 49, 63)" stroke="none" stroke-width="1px">-500k</text><text x="22.916666666666664" y="0" dx="0em" dy="0.95em" style="text-anchor: middle; visibility: inherit; font-family: &quot;Helvetica Neue&quot;, sans-serif; font-size: 12px; font-weight: 200;" fill="rgb(50, 49, 63)" stroke="none" stroke-width="1px">0</text><text x="45.83333333333333" y="0" dx="0em" dy="0.95em" style="text-anchor: middle; visibility: hidden; font-family: &quot;Helvetica Neue&quot;, sans-serif; font-size: 12px; font-weight: 200;" fill="rgb(50, 49, 63)" stroke="none" stroke-width="1px">500k</text><text x="68.75" y="0" dx="0em" dy="0.95em" style="text-anchor: middle; visibility: inherit; font-family: &quot;Helvetica Neue&quot;, sans-serif; font-size: 12px; font-weight: 200;" fill="rgb(50, 49, 63)" stroke="none" stroke-width="1px">1M</text><text x="91.66666666666666" y="0" dx="0em" dy="0.95em" style="text-anchor: middle; visibility: hidden; font-family: &quot;Helvetica Neue&quot;, sans-serif; font-size: 12px; font-weight: 200;" fill="rgb(50, 49, 63)" stroke="none" stroke-width="1px">1.5M</text><text x="114.58333333333334" y="0" dx="0em" dy="0.95em" style="text-anchor: middle; visibility: inherit; font-family: &quot;Helvetica Neue&quot;, sans-serif; font-size: 12px; font-weight: 200;" fill="rgb(50, 49, 63)" stroke="none" stroke-width="1px">2M</text><text x="137.5" y="0" dx="0em" dy="0.95em" style="text-anchor: middle; visibility: hidden; font-family: &quot;Helvetica Neue&quot;, sans-serif; font-size: 12px; font-weight: 200;" fill="rgb(50, 49, 63)" stroke="none" stroke-width="1px">2.5M</text><text x="160.41666666666669" y="0" dx="0em" dy="0.95em" style="text-anchor: middle; visibility: inherit; font-family: &quot;Helvetica Neue&quot;, sans-serif; font-size: 12px; font-weight: 200;" fill="rgb(50, 49, 63)" stroke="none" stroke-width="1px">3M</text><text x="183.33333333333331" y="0" dx="0em" dy="0.95em" style="text-anchor: middle; visibility: hidden; font-family: &quot;Helvetica Neue&quot;, sans-serif; font-size: 12px; font-weight: 200;" fill="rgb(50, 49, 63)" stroke="none" stroke-width="1px">3.5M</text><text x="206.25" y="0" dx="0em" dy="0.95em" style="text-anchor: middle; visibility: inherit; font-family: &quot;Helvetica Neue&quot;, sans-serif; font-size: 12px; font-weight: 200;" fill="rgb(50, 49, 63)" stroke="none" stroke-width="1px">4M</text><text x="229.16666666666669" y="0" dx="0em" dy="0.95em" style="text-anchor: middle; visibility: hidden; font-family: &quot;Helvetica Neue&quot;, sans-serif; font-size: 12px; font-weight: 200;" fill="rgb(50, 49, 63)" stroke="none" stroke-width="1px">4.5M</text><text x="252.08333333333331" y="0" dx="0em" dy="0.95em" style="text-anchor: middle; visibility: inherit; font-family: &quot;Helvetica Neue&quot;, sans-serif; font-size: 12px; font-weight: 200;" fill="rgb(50, 49, 63)" stroke="none" stroke-width="1px">5M</text><text x="275" y="0" dx="0em" dy="0.95em" style="text-anchor: middle; visibility: hidden; font-family: &quot;Helvetica Neue&quot;, sans-serif; font-size: 12px; font-weight: 200;" fill="rgb(50, 49, 63)" stroke="none" stroke-width="1px">5.5M</text></g><line x1="0" y1="0" x2="275" y2="0" fill="rgb(0, 0, 0)" stroke="rgb(204, 204, 204)" stroke-width="1px"></line></g></g></g></g></svg>