<svg viewBox="0 0 330 200" xmlns="http://www.w3.org/2000/svg"><g><g><g><g><g><line x1="55" y1="171.22980955385043" x2="50" y2="171.22980955385043" style="visibility: inherit;" fill="rgb(0, 0, 0)" stroke="rgb(204, 204, 204)" stroke-width="1px"></line><line x1="55" y1="158.58795532247305" x2="50" y2="158.58795532247305" style="visibility: inherit;" fill="rgb(0, 0, 0)" stroke="rgb(204, 204, 204)" stroke-width="1px"></line><line x1="55" y1="145.94610109109567" x2="50" y2="145.94610109109567" style="visibility: inherit;" fill="rgb(0, 0, 0)" stroke="rgb(204, 204, 204)" stroke-width="1px"></line><line x1="55" y1="133.30424685971832" x2="50" y2="133.30424685971832" style="visibility: inherit;" fill="rgb(0, 0, 0)" stroke="rgb(204, 204, 204)" stroke-width="1px"></line><line x1="55" y1="120.66239262834097" x2="50" y2="120.66239262834097" style="visibility: inherit;" fill="rgb(0, 0, 0)" stroke="rgb(204, 204, 204)" stroke-width="1px"></line><line x1="55" y1="108.02053839696359" x2="50" y2="108.02053839696359" style="visibility: inherit;" fill="rgb(0, 0, 0)" stroke="rgb(204, 204, 204)" stroke-width="1px"></line><line x1="55" y1="95.37868416558621" x2="50" y2="95.37868416558621" style="visibility: inherit;" fill="rgb(0, 0, 0)" stroke="rgb(204, 204, 204)" stroke-width="1px"></line><line x1="55" y1="82.73682993420886" x2="50" y2="82.73682993420886" style="visibility: inherit;" fill="rgb(0, 0, 0)" stroke="rgb(204, 204, 204)" stroke-width="1px"></line><line x1="55" y1="70.09497570283148" x2="50" y2="70.09497570283148" style="visibility: inherit;" fill="rgb(0, 0, 0)" stroke="rgb(204, 204, 204)" stroke-width="1px"></line><line x1="55" y1="57.45312147145411" x2="50" y2="57.45312147145411" style="visibility: inherit;" fill="rgb(0, 0, 0)" stroke="rgb(204, 204, 204)" stroke-width="1px"></line><line x1="55" y1="44.811267240076745" x2="50" y2="44.811267240076745" style="visibility: inherit;" fill="rgb(0, 0, 0)" stroke="rgb(204, 204, 204)" stroke-width="1px"></line><line x1="55" y1="32.169413008699365" x2="50" y2="32.169413008699365" style="visibility: inherit;" fill="rgb(0, 0, 0)" stroke="rgb(204, 204, 204)" stroke-width="1px"></line><line x1="55" y1="19.527558777322014" x2="50" y2="19.527558777322014" style="visibility: inherit;" fill="rgb(0, 0, 0)" stroke="rgb(204, 204, 204)" stroke-width="1px"></line><line x1="55" y1="6.885704545944634" x2="50" y2="6.885704545944634" style="visibility: inherit;" fill="rgb(0, 0, 0)" stroke="rgb(204, 204, 204)" stroke-width="1px"></line></g><g transform="translate(45, 0)"><text x="0" y="171.22980955385043" dx="0em" dy="0.3em" style="text-anchor: end; visibility: inherit; font-family: &quot;Helvetica Neue&quot;, sans-serif; font-size: 12px; font-weight: 200;" fill="rgb(50, 49, 63)" stroke="none" stroke-width="1px">-0.02</text><text x="0" y="158.58795532247305" dx="0em" dy="0.3em" style="text-anchor: end; visibility: hidden; font-family: &quot;Helvetica Neue&quot;, sans-serif; font-size: 12px; font-weight: 200;" fill="rgb(50, 49, 63)" stroke="none" stroke-width="1px">0</text><text x="0" y="145.94610109109567" dx="0em" dy="0.3em" style="text-anchor: end; visibility: inherit; font-family: &quot;Helvetica Neue&quot;, sans-serif; font-size: 12px; font-weight: 200;" fill="rgb(50, 49, 63)" stroke="none" stroke-width="1px">0.02</text><text x="0" y="133.30424685971832" dx="0em" dy="0.3em" style="text-anchor: end; visibility: hidden; font-family: &quot;Helvetica Neue&quot;, sans-serif; font-size: 12px; font-weight: 200;" fill="rgb(50, 49, 63)" stroke="none" stroke-width="1px">0.04</text><text x="0" y="120.66239262834097" dx="0em" dy="0.3em" style="text-anchor: end; visibility: inherit; font-family: &quot;Helvetica Neue&quot;, sans-serif; font-size: 12px; font-weight: 200;" fill="rgb(50, 49, 63)" stroke="none" stroke-width="1px">0.06</text><text x="0" y="108.02053839696359" dx="0em" dy="0.3em" style="text-anchor: end; visibility: hidden; font-family: &quot;Helvetica Neue&quot;, sans-serif; font-size: 12px; font-weight: 200;" fill="rgb(50, 49, 63)" stroke="none" stroke-width="1px">0.08</text><text x="0" y="95.37868416558621" dx="0em" dy="0.3em" style="text-anchor: end; visibility: inherit; font-family: &quot;Helvetica Neue&quot;, sans-serif; font-size: 12px; font-weight: 200;" fill="rgb(50, 49, 63)" stroke="none" stroke-width="1px">0.1</text><text x="0" y="82.73682993420886" dx="0em" dy="0.3em" style="text-anchor: end; visibility: hidden; font-family: &quot;Helvetica Neue&quot;, sans-serif; font-size: 12px; font-weight: 200;" fill="rgb(50, 49, 63)" stroke="none" stroke-width="1px">0.12</text><text x="0" y="70.09497570283148" dx="0em" dy="0.3em" style="text-anchor: end; visibility: inherit; font-family: &quot;Helvetica Neue&quot;, sans-serif; font-size: 12px; font-weight: 200;" fill="rgb(50, 49, 63)" stroke="none" stroke-width="1px">0.14</text><text x="0" y="57.45312147145411" dx="0em" dy="0.3em" style="text-anchor: end; visibility: hidden; font-family: &quot;Helvetica Neue&quot;, sans-serif; font-size: 12px; font-weight: 200;" fill="rgb(50, 49, 63)" stroke="none" stroke-width="1px">0.16</text><text x="0" y="44.811267240076745" dx="0em" dy="0.3em" style="text-anchor: end; visibility: inherit; font-family: &quot;Helvetica Neue&quot;, sans-serif; font-size: 12px; font-weight: 200;" fill="rgb(50, 49, 63)" stroke="none" stroke-width="1px">0.18</text><text x="0" y="32.169413008699365" dx="0em" dy="0.3em" style="text-anchor: end; visibility: hidden; font-family: &quot;Helvetica Neue&quot;, sans-serif; font-size: 12px; font-weight: 200;" fill="rgb(50, 49, 63)" stroke="none" stroke-width="1px">0.2</text><text x="0" y="19.527558777322014" dx="0em" dy="0.3em" style="text-anchor: end; visibility: inherit; font-family: &quot;Helvetica Neue&quot;, sans-serif; font-size: 12px; font-weight: 200;" fill="rgb(50, 49, 63)" stroke="none" stroke-width="1px">0.22</text><text x="0" y="6.885704545944634" dx="0em" dy="0.3em" style="text-anchor: end; visibility: hidden; font-family: &quot;Helvetica Neue&quot;, sans-serif; font-size: 12px; font-weight: 200;" fill="rgb(50, 49, 63)" stroke="none" stroke-width="1px">0.24</text></g><line x1="55" y1="0" x2="55" y2="177" fill="rgb(0, 0, 0)" stroke="rgb(204, 204, 204)" stroke-width="1px"></line></g></g><g transform="translate(55, 0)" clip-path="url(#clip_0)"><clipPath id="clip_0"><rect width="275" height="177"></rect></clipPath><g><g><g><line x1="8.834000489353214" y1="0" x2="8.834000489353214" y2="177" fill="rgb(0, 0, 0)" stroke="rgb(60, 60, 60)" stroke-width="1px" opacity="0.25"></line><line x1="32.214456382558495" y1="0" x2="32.214456382558495" y2="177" fill="rgb(0, 0, 0)" stroke="rgb(60, 60, 60)" stroke-width="1px" opacity="0.25"></line><line x1="55.59491227576378" y1="0" x2="55.59491227576378" y2="177" fill="rgb(0, 0, 0)" stroke="rgb(60, 60, 60)" stroke-width="1px" opacity="0.25"></line><line x1="78.97536816896907" y1="0" x2="78.97536816896907" y2="177" fill="rgb(0, 0, 0)" stroke="rgb(60, 60, 60)" stroke-width="1px" opacity="0.25"></line><line x1="102.35582406217435" y1="0" x2="102.35582406217435" y2="177" fill="rgb(0, 0, 0)" stroke="rgb(60, 60, 60)" stroke-width="1px" opacity="0.25"></line><line x1="125.73627995537963" y1="0" x2="125.73627995537963" y2="177" fill="rgb(0, 0, 0)" stroke="rgb(60, 60, 60)" stroke-width="1px" opacity="0.25"></line><line x1="149.11673584858494" y1="0" x2="149.11673584858494" y2="177" fill="rgb(0, 0, 0)" stroke="rgb(60, 60, 60)" stroke-width="1px" opacity="0.25"></line><line x1="172.4971917417902" y1="0" x2="172.4971917417902" y2="177" fill="rgb(0, 0, 0)" stroke="rgb(60, 60, 60)" stroke-width="1px" opacity="0.25"></line><line x1="195.87764763499547" y1="0" x2="195.87764763499547" y2="177" fill="rgb(0, 0, 0)" stroke="rgb(60, 60, 60)" stroke-width="1px" opacity="0.25"></line><line x1="219.25810352820073" y1="0" x2="219.25810352820073" y2="177" fill="rgb(0, 0, 0)" stroke="rgb(60, 60, 60)" stroke-width="1px" opacity="0.25"></line><line x1="242.63855942140603" y1="0" x2="242.63855942140603" y2="177" fill="rgb(0, 0, 0)" stroke="rgb(60, 60, 60)" stroke-width="1px" opacity="0.25"></line><line x1="266.0190153146113" y1="0" x2="266.0190153146113" y2="177" fill="rgb(0, 0, 0)" stroke="rgb(60, 60, 60)" stroke-width="1px" opacity="0.25"></line></g><g><line x1="0" y1="171.22980955385043" x2="275" y2="171.22980955385043" fill="rgb(0, 0, 0)" stroke="rgb(60, 60, 60)" stroke-width="1px" opacity="0.25"></line><line x1="0" y1="158.58795532247305" x2="275" y2="158.58795532247305" fill="rgb(0, 0, 0)" stroke="rgb(60, 60, 60)" stroke-width="1px" opacity="0.25"></line><line x1="0" y1="145.94610109109567" x2="275" y2="145.94610109109567" fill="rgb(0, 0, 0)" stroke="rgb(60, 60, 60)" stroke-width="1px" opacity="0.25"></line><line x1="0" y1="133.30424685971832" x2="275" y2="133.30424685971832" fill="rgb(0, 0, 0)" stroke="rgb(60, 60, 60)" stroke-width="1px" opacity="0.25"></line><line x1="0" y1="120.66239262834097" x2="275" y2="120.66239262834097" fill="rgb(0, 0, 0)" stroke="rgb(60, 60, 60)" stroke-width="1px" opacity="0.25"></line><line x1="0" y1="108.02053839696359" x2="275" y2="108.02053839696359" fill="rgb(0, 0, 0)" stroke="rgb(60, 60, 60)" stroke-width="1px" opacity="0.25"></line><line x1="0" y1="95.37868416558621" x2="275" y2="95.37868416558621" fill="rgb(0, 0, 0)" stroke="rgb(60, 60, 60)" stroke-width="1px" opacity="0.25"></line><line x1="0" y1="82.73682993420886" x2="275" y2="82.73682993420886" fill="rgb(0, 0, 0)" stroke="rgb(60, 60, 60)" stroke-width="1px" opacity="0.25"></line><line x1="0" y1="70.09497570283148" x2="275" y2="70.09497570283148" fill="rgb(0, 0, 0)" stroke="rgb(60, 60, 60)" stroke-width="1px" opacity="0.25"></line><line x1="0" y1="57.45312147145411" x2="275" y2="57.45312147145411" fill="rgb(0, 0, 0)" stroke="rgb(60, 60, 60)" stroke-width="1px" opacity="0.25"></line><line x1="0" y1="44.811267240076745" x2="275" y2="44.811267240076745" fill="rgb(0, 0, 0)" stroke="rgb(60, 60, 60)" stroke-width="1px" opacity="0.25"></line><line x1="0" y1="32.169413008699365" x2="275" y2="32.169413008699365" fill="rgb(0, 0, 0)" stroke="rgb(60, 60, 60)" stroke-width="1px" opacity="0.25"></line><line x1="0" y1="19.527558777322014" x2="275" y2="19.527558777322014" fill="rgb(0, 0, 0)" stroke="rgb(60, 60, 60)" stroke-width="1px" opacity="0.25"></line><line x1="0" y1="6.885704545944634" x2="275" y2="6.885704545944634" fill="rgb(0, 0, 0)" stroke="rgb(60, 60, 60)" stroke-width="1px" opacity="0.25"></line></g></g></g><g><g><line x1="0" y1="158.58795532247305" x2="275" y2="158.58795532247305" fill="rgb(0, 0, 0)" stroke="rgb(153, 153, 153)" stroke-width="1.5px"></line></g></g><g><g><line x1="8.834000489353214" y1="0" x2="8.834000489353214" y2="177" fill="rgb(0, 0, 0)" stroke="rgb(153, 153, 153)" stroke-width="1.5px"></line></g></g><g><g><g><g><g><path stroke="rgb(0, 119, 187)" stroke-width="2px" d="M13.89231536093639,155.48050443446584L14.33121327896364,156.21992611979803L14.539065531854234,156.48882763542602L14.977449079851834,156.16884122775815L15.186376833713517,156.8058872499534L15.393434151103742,155.0613945624181L15.829339370776662,151.72772010646526L16.036583731814034,153.11549936176556L16.474312627046622,153.2269046099509L16.682211640849005,151.54006332268443L17.119753492434448,151.03180912555612L17.556360125784163,147.32049745092783L17.994977478340694,149.8405293508958L18.433127221779362,148.66844548222227L18.87165105251232,147.60513811783852L19.311016579657434,144.5328815414661L19.515969656017273,146.8894521083276L19.9507993747191,145.38994835671423L20.15626682110859,147.79460081446632L20.360658766526992,148.19756891686296L20.79240226505092,142.68288478031167L21.222883218956618,143.54936144168258L21.42727516437502,139.8170543041693L21.858176966486788,141.1759641804393L22.062007780963754,142.29305555304467L22.49342395310518,141.68650965604087L22.69622602752284,138.86537146010704L22.89654977361582,140.1395453186298L23.32740481481581,145.4314283887938L23.757605203250787,139.7842217950599L53.86835912987415,88.59540713033492L54.29402370986584,95.88357890695849L54.49331871589952,94.61042144486618L54.9197314704798,87.87600421737106L55.117904214630606,94.4150676145287L55.316825133369996,90.31464093511119L55.515325203903316,92.50490774666977L110.47833472220923,60.429484697224865L110.91377233276428,56.921494431805186L111.11694849447623,59.912509855739245L111.32021817801177,53.417397855516086L111.75107321921176,62.36639182104322L111.95359472815869,57.37321536950674L112.38519794394726,63.34654326340966L112.8158659415001,57.63274059857524L113.0178730804174,61.44985210638552L113.22034782845255,53.06138874628232L113.421887358252,57.88979352995452L113.62431534537535,50.39451536807242L148.02940436681553,52.0836401668159L148.21691562307902,51.29482655773826L148.62714910218122,52.19881192831194L148.81858827503476,55.58196219211828L149.01007420880012,58.71968827926095L149.41740851137152,46.84578619513994L149.82960594876874,50.23959292852045L150.2429724089606,51.871761395426304L150.43590793099136,57.76090351611897L150.62823556116888,67.35226539540626L150.8207034740817,61.54037230634668L151.0135454742889,57.25269728461882L153.2184627477535,51.683990415326775L153.443850342564,47.390492185929844L153.6685832846095,46.18314353258563L196.7770002513835,34.43932991398867L196.97839949844757,36.34054380441404L197.18171594289487,31.817267180088464L205.4424050972586,31.00803237819477L205.65063143744348,34.71779738887264L205.86091525774697,31.660504851651126L206.3091653581315,27.999053180202708L206.51926213478785,30.85613699915467L206.7295927160031,30.594965446060314L207.1776557727405,33.52509256523874L207.38709789663187,29.116011208162632L207.83511419245744,35.410980570786506L208.2836448583127,32.36080491904741L208.49271289490972,28.37109039227559L208.7037916507136,32.54045227787475L208.91416899284067,28.503103848395625L209.36536503066773,25.894552404553252L209.57658406920694,31.830479356896717L209.7873354986283,30.822346355669083L210.23726899183714,26.819663112802857L210.44820746490564,30.155532009516435L210.89795391446734,30.40595632418632L211.34718599399937,33.94481638289443L211.5586855980093,34.5934548387975L211.76957731016603,31.144505097788567L211.9800014132049,28.81174531565418L212.19103340809696,30.857342942811613L212.64101366221757,30.92718349319628L213.09080687269105,30.944421343836808L213.3022129548774,30.312710302634542L213.75228673082162,33.891497689842566L214.20133176670652,27.79795548944398L214.41217671795144,30.516236205663176L214.6226475819021,29.678072640252452L214.83232351035235,32.702375445881444L215.2763651286761,30.973592982868695L215.72176281344167,26.84678228435959L215.92961506633227,35.11070457792175L216.3726747055085,27.36811251745823L216.5804801974873,28.433307886455026L217.0247088594582,33.62072072941976L217.23218702505451,29.02669379726001L217.67697681796687,34.59111335783757L231.82991494471258,29.30239172387246L232.27040273374055,35.62643912376484L232.4753558101004,33.74844631419796L232.91743347012914,31.97419656902747L233.12346204746007,30.691879235897602L233.56507209837093,35.20768493373865L234.0062145401639,30.770378172881635L234.4474037428687,32.20907724405569L234.65324527655247,34.79304844742765L234.85918033205982,35.814860349093266L235.06497510483183,30.64820886847349L235.50546289385983,28.697996187333956L235.94641829200566,29.7384776499089L236.1524001084248,29.282277216922296L236.59349578930602,29.395887021708006L236.80125452037305,29.060836306462278L237.00835859867504,31.32061210847428L237.4548785453235,29.746376268032037L237.90280131932553,31.2834852351194L238.11355274874686,29.501997794103147L238.33136507584797,29.37173186457531L238.7817194172629,24.439750218391367L238.99448156589105,32.290613129143026L239.20743075816637,29.0334415766861L239.42098784229492,34.48779712212118L239.63417083912915,30.75394546602729L240.08639561701554,30.81178727725711L240.29850311287868,32.55266856076835L240.74974591161754,34.437530129669L240.96241453842214,29.605995962722915L241.17541049160923,28.462353878050862L241.3875179874724,30.046415314439542L241.83918163441734,29.69154642513135L242.29061147680335,31.044657543349047L242.63855942140603,32.46103652723383" style="fill: none;" fill="none"></path></g></g></g></g><g opacity="0.2"><g><g><g><path stroke="rgb(0, 119, 187)" stroke-width="2px" d="M13.89231536093639,155.48050443446584L14.33121327896364,156.25763662574997L14.539065531854234,156.5032410255652L14.977449079851834,156.15164718980378L15.186376833713517,156.84012236832538L15.393434151103742,154.96764419743633L15.829339370776662,151.5485658448615L16.036583731814034,153.19007970102456L16.474312627046622,153.23289161485837L16.682211640849005,151.4494111565618L17.119753492434448,151.004495148682L17.556360125784163,147.1210486675706L17.994977478340694,149.97595783024076L18.433127221779362,148.60545678116605L18.87165105251232,147.5479951509433L19.311016579657434,144.36777607740396L19.515969656017273,147.01609604816946L19.9507993747191,145.3093638558372L20.15626682110859,147.9238287126174L20.360658766526992,148.21922473690745L20.79240226505092,142.3865213546382L21.222883218956618,143.59592657311558L21.42727516437502,139.616477208265L21.858176966486788,141.24899305682473L22.062007780963754,142.3530889144808L22.49342395310518,141.6539134065707L22.69622602752284,138.71376129362375L22.89654977361582,140.20802041534705L23.32740481481581,145.71581831142643L23.757605203250787,139.48073650920065L53.86835912987415,85.8444803148439L54.29402370986584,96.27525094131865L54.49331871589952,94.54200097008564L54.9197314704798,87.51409138428124L55.117904214630606,94.76648198044548L55.316825133369996,90.09428080797706L55.515325203903316,92.62261439302327L110.47833472220923,58.70572645115355L110.91377233276428,56.732972299522345L111.11694849447623,60.07324935692009L111.32021817801177,53.06834547194245L111.75107321921176,62.84731773489136L111.95359472815869,57.10487817348107L112.38519794394726,63.66755456223899L112.8158659415001,57.325676387925554L113.0178730804174,61.65498665527733L113.22034782845255,52.610586184253606L113.421887358252,58.14927576806545L113.62431534537535,49.99171327507348L148.02940436681553,52.17441505062615L148.21691562307902,51.252435099294686L148.62714910218122,52.24739280702559L148.81858827503476,55.763775325368144L149.01007420880012,58.88831212588293L149.41740851137152,46.20767343824829L149.82960594876874,50.42197874875481L150.2429724089606,51.95947540155085L150.43590793099136,58.07739060585061L150.62823556116888,67.86771266183791L150.8207034740817,61.228036639811336L151.0135454742889,57.02227428555862L153.2184627477535,51.3847237658706L153.443850342564,47.15975624314879L153.6685832846095,46.11825967450284L196.7770002513835,33.80820821267312L196.97839949844757,36.44271652139159L197.18171594289487,31.574182767190052L205.4424050972586,30.964543468925456L205.65063143744348,34.91716305330317L205.86091525774697,31.49620356672142L206.3091653581315,27.802283912295565L206.51926213478785,31.009678911448162L206.7295927160031,30.58092988314374L207.1776557727405,33.6825598814433L207.38709789663187,28.879063737972018L207.83511419245744,35.74927713295068L208.2836448583127,32.196886101093014L208.49271289490972,28.15668002255444L208.7037916507136,32.76451703674255L208.91416899284067,28.28613359559961L209.36536503066773,25.754366815895708L209.57658406920694,32.14948069996262L209.7873354986283,30.76816850207308L210.23726899183714,26.604555794166203L210.44820746490564,30.334804205230228L210.89795391446734,30.41941432212957L211.34718599399937,34.13499748193988L211.5586855980093,34.628313175205335L211.76957731016603,30.95915584932547L211.9800014132049,28.68638098595042L212.19103340809696,30.967274954386966L212.64101366221757,30.93093677883337L213.09080687269105,30.94534771937174L213.3022129548774,30.27876165869219L213.75228673082162,34.08382451465562L214.20133176670652,27.470483780044248L214.41217671795144,30.662318730981582L214.6226475819021,29.633029076673978L214.83232351035235,32.864903836911026L215.2763651286761,30.88068686525685L215.72176281344167,26.62500425946604L215.92961506633227,35.55481420592142L216.3726747055085,26.952019582702036L216.5804801974873,28.49055231619036L217.0247088594582,33.89949634058013L217.23218702505451,28.779807207649696L217.67697681796687,34.89014960398029L231.82991494471258,29.01817169928637L232.27040273374055,35.96629836232597L232.4753558101004,33.64752151621278L232.91743347012914,31.878847004218528L233.12346204746007,30.622966502504937L233.56507209837093,35.45036785322219L234.0062145401639,30.53191384748257L234.4474037428687,32.286394053992325L234.65324527655247,34.93191307479535L234.85918033205982,35.86977331746516L235.06497510483183,30.370548989114553L235.50546289385983,28.59319023713573L235.94641829200566,29.794393935041995L236.1524001084248,29.257760649923L236.59349578930602,29.401992501206507L236.80125452037305,29.042830419763106L237.00835859867504,31.44205422217567L237.4548785453235,29.661775606427625L237.90280131932553,31.366090669599316L238.11355274874686,29.406259269875704L238.33136507584797,29.36473127194526L238.7817194172629,24.17470167892307L238.99448156589105,32.71252462381986L239.20743075816637,28.858398637618336L239.42098784229492,34.780918442265744L239.63417083912915,30.553285366490087L240.08639561701554,30.8148957412958L240.29850311287868,32.64622487842806L240.74974591161754,34.53882406013682L240.96241453842214,29.34634554911463L241.17541049160923,28.40089366064487L241.3875179874724,30.13154401123174L241.83918163441734,29.67247549430445L242.29061147680335,31.11737478995505L242.63855942140603,32.53715383827506" style="fill: none;" fill="none"></path></g></g></g></g></g></g><g transform="translate(55, 177)" clip-path="url(#clip_1)"><clipPath id="clip_1"><rect width="275" height="23"></rect></clipPath><g><g><line x1="8.834000489353214" y1="0" x2="8.834000489353214" y2="5" style="visibility: inherit;" fill="rgb(0, 0, 0)" stroke="rgb(204, 204, 204)" stroke-width="1px"></line><line x1="32.214456382558495" y1="0" x2="32.214456382558495" y2="5" style="visibility: inherit;" fill="rgb(0, 0, 0)" stroke="rgb(204, 204, 204)" stroke-width="1px"></line><line x1="55.59491227576378" y1="0" x2="55.59491227576378" y2="5" style="visibility: inherit;" fill="rgb(0, 0, 0)" stroke="rgb(204, 204, 204)" stroke-width="1px"></line><line x1="78.97536816896907" y1="0" x2="78.97536816896907" y2="5" style="visibility: inherit;" fill="rgb(0, 0, 0)" stroke="rgb(204, 204, 204)" stroke-width="1px"></line><line x1="102.35582406217435" y1="0" x2="102.35582406217435" y2="5" style="visibility: inherit;" fill="rgb(0, 0, 0)" stroke="rgb(204, 204, 204)" stroke-width="1px"></line><line x1="125.73627995537963" y1="0" x2="125.73627995537963" y2="5" style="visibility: inherit;" fill="rgb(0, 0, 0)" stroke="rgb(204, 204, 204)" stroke-width="1px"></line><line x1="149.11673584858494" y1="0" x2="149.11673584858494" y2="5" style="visibility: inherit;" fill="rgb(0, 0, 0)" stroke="rgb(204, 204, 204)" stroke-width="1px"></line><line x1="172.4971917417902" y1="0" x2="172.4971917417902" y2="5" style="visibility: inherit;" fill="rgb(0, 0, 0)" stroke="rgb(204, 204, 204)" stroke-width="1px"></line><line x1="195.87764763499547" y1="0" x2="195.87764763499547" y2="5" style="visibility: inherit;" fill="rgb(0, 0, 0)" stroke="rgb(204, 204, 204)" stroke-width="1px"></line><line x1="219.25810352820073" y1="0" x2="219.25810352820073" y2="5" style="visibility: inherit;" fill="rgb(0, 0, 0)" stroke="rgb(204, 204, 204)" stroke-width="1px"></line><line x1="242.63855942140603" y1="0" x2="242.63855942140603" y2="5" style="visibility: inherit;" fill="rgb(0, 0, 0)" stroke="rgb(204, 204, 204)" stroke-width="1px"></line><line x1="266.0190153146113" y1="0" x2="266.0190153146113" y2="5" style="visibility: inherit;" fill="rgb(0, 0, 0)" stroke="rgb(204, 204, 204)" stroke-width="1px"></line></g><g transform="translate(0, 8)"><text x="8.834000489353214" y="0" dx="0em" dy="0.95em" style="text-anchor: middle; visibility: inherit; font-family: &quot;Helvetica Neue&quot;, sans-serif; font-size: 12px; font-weight: 200;" fill="rgb(50, 49, 63)" stroke="none" stroke-width="1px">0</text><text x="32.214456382558495" y="0" dx="0em" dy="0.95em" style="text-anchor: middle; visibility: hidden; font-family: &quot;Helvetica Neue&quot;, sans-serif; font-size: 12px; font-weight: 200;" fill="rgb(50, 49, 63)" stroke="none" stroke-width="1px">500k</text><text x="55.59491227576378" y="0" dx="0em" dy="0.95em" style="text-anchor: middle; visibility: inherit; font-family: &quot;Helvetica Neue&quot;, sans-serif; font-size: 12px; font-weight: 200;" fill="rgb(50, 49, 63)" stroke="none" stroke-width="1px">1M</text><text x="78.97536816896907" y="0" dx="0em" dy="0.95em" style="text-anchor: middle; visibility: hidden; font-family: &quot;Helvetica Neue&quot;, sans-serif; font-size: 12px; font-weight: 200;" fill="rgb(50, 49, 63)" stroke="none" stroke-width="1px">1.5M</text><text x="102.35582406217435" y="0" dx="0em" dy="0.95em" style="text-anchor: middle; visibility: inherit; font-family: &quot;Helvetica Neue&quot;, sans-serif; font-size: 12px; font-weight: 200;" fill="rgb(50, 49, 63)" stroke="none" stroke-width="1px">2M</text><text x="125.73627995537963" y="0" dx="0em" dy="0.95em" style="text-anchor: middle; visibility: hidden; font-family: &quot;Helvetica Neue&quot;, sans-serif; font-size: 12px; font-weight: 200;" fill="rgb(50, 49, 63)" stroke="none" stroke-width="1px">2.5M</text><text x="149.11673584858494" y="0" dx="0em" dy="0.95em" style="text-anchor: middle; visibility: inherit; font-family: &quot;Helvetica Neue&quot;, sans-serif; font-size: 12px; font-weight: 200;" fill="rgb(50, 49, 63)" stroke="none" stroke-width="1px">3M</text><text x="172.4971917417902" y="0" dx="0em" dy="0.95em" style="text-anchor: middle; visibility: hidden; font-family: &quot;Helvetica Neue&quot;, sans-serif; font-size: 12px; font-weight: 200;" fill="rgb(50, 49, 63)" stroke="none" stroke-width="1px">3.5M</text><text x="195.87764763499547" y="0" dx="0em" dy="0.95em" style="text-anchor: middle; visibility: inherit; font-family: &quot;Helvetica Neue&quot;, sans-serif; font-size: 12px; font-weight: 200;" fill="rgb(50, 49, 63)" stroke="none" stroke-width="1px">4M</text><text x="219.25810352820073" y="0" dx="0em" dy="0.95em" style="text-anchor: middle; visibility: hidden; font-family: &quot;Helvetica Neue&quot;, sans-serif; font-size: 12px; font-weight: 200;" fill="rgb(50, 49, 63)" stroke="none" stroke-width="1px">4.5M</text><text x="242.63855942140603" y="0" dx="0em" dy="0.95em" style="text-anchor: middle; visibility: inherit; font-family: &quot;Helvetica Neue&quot;, sans-serif; font-size: 12px; font-weight: 200;" fill="rgb(50, 49, 63)" stroke="none" stroke-width="1px">5M</text><text x="266.0190153146113" y="0" dx="0em" dy="0.95em" style="text-anchor: middle; visibility: hidden; font-family: &quot;Helvetica Neue&quot;, sans-serif; font-size: 12px; font-weight: 200;" fill="rgb(50, 49, 63)" stroke="none" stroke-width="1px">5.5M</text></g><line x1="0" y1="0" x2="275" y2="0" fill="rgb(0, 0, 0)" stroke="rgb(204, 204, 204)" stroke-width="1px"></line></g></g></g></g></svg>