<svg viewBox="0 0 330 200" xmlns="http://www.w3.org/2000/svg"><g><g><g><g><g><line x1="55" y1="177" x2="50" y2="177" style="visibility: inherit;" fill="rgb(0, 0, 0)" stroke="rgb(204, 204, 204)" stroke-width="1px"></line><line x1="55" y1="154.875" x2="50" y2="154.875" style="visibility: inherit;" fill="rgb(0, 0, 0)" stroke="rgb(204, 204, 204)" stroke-width="1px"></line><line x1="55" y1="132.75" x2="50" y2="132.75" style="visibility: inherit;" fill="rgb(0, 0, 0)" stroke="rgb(204, 204, 204)" stroke-width="1px"></line><line x1="55" y1="110.625" x2="50" y2="110.625" style="visibility: inherit;" fill="rgb(0, 0, 0)" stroke="rgb(204, 204, 204)" stroke-width="1px"></line><line x1="55" y1="88.5" x2="50" y2="88.5" style="visibility: inherit;" fill="rgb(0, 0, 0)" stroke="rgb(204, 204, 204)" stroke-width="1px"></line><line x1="55" y1="66.375" x2="50" y2="66.375" style="visibility: inherit;" fill="rgb(0, 0, 0)" stroke="rgb(204, 204, 204)" stroke-width="1px"></line><line x1="55" y1="44.25" x2="50" y2="44.25" style="visibility: inherit;" fill="rgb(0, 0, 0)" stroke="rgb(204, 204, 204)" stroke-width="1px"></line><line x1="55" y1="22.12500000000003" x2="50" y2="22.12500000000003" style="visibility: inherit;" fill="rgb(0, 0, 0)" stroke="rgb(204, 204, 204)" stroke-width="1px"></line><line x1="55" y1="0" x2="50" y2="0" style="visibility: inherit;" fill="rgb(0, 0, 0)" stroke="rgb(204, 204, 204)" stroke-width="1px"></line></g><g transform="translate(45, 0)"><text x="0" y="177" dx="0em" dy="0.3em" style="text-anchor: end; visibility: hidden; font-family: &quot;Helvetica Neue&quot;, sans-serif; font-size: 12px; font-weight: 200;" fill="rgb(50, 49, 63)" stroke="none" stroke-width="1px">-0.02</text><text x="0" y="154.875" dx="0em" dy="0.3em" style="text-anchor: end; visibility: inherit; font-family: &quot;Helvetica Neue&quot;, sans-serif; font-size: 12px; font-weight: 200;" fill="rgb(50, 49, 63)" stroke="none" stroke-width="1px">0</text><text x="0" y="132.75" dx="0em" dy="0.3em" style="text-anchor: end; visibility: hidden; font-family: &quot;Helvetica Neue&quot;, sans-serif; font-size: 12px; font-weight: 200;" fill="rgb(50, 49, 63)" stroke="none" stroke-width="1px">0.02</text><text x="0" y="110.625" dx="0em" dy="0.3em" style="text-anchor: end; visibility: inherit; font-family: &quot;Helvetica Neue&quot;, sans-serif; font-size: 12px; font-weight: 200;" fill="rgb(50, 49, 63)" stroke="none" stroke-width="1px">0.04</text><text x="0" y="88.5" dx="0em" dy="0.3em" style="text-anchor: end; visibility: hidden; font-family: &quot;Helvetica Neue&quot;, sans-serif; font-size: 12px; font-weight: 200;" fill="rgb(50, 49, 63)" stroke="none" stroke-width="1px">0.06</text><text x="0" y="66.375" dx="0em" dy="0.3em" style="text-anchor: end; visibility: inherit; font-family: &quot;Helvetica Neue&quot;, sans-serif; font-size: 12px; font-weight: 200;" fill="rgb(50, 49, 63)" stroke="none" stroke-width="1px">0.08</text><text x="0" y="44.25" dx="0em" dy="0.3em" style="text-anchor: end; visibility: hidden; font-family: &quot;Helvetica Neue&quot;, sans-serif; font-size: 12px; font-weight: 200;" fill="rgb(50, 49, 63)" stroke="none" stroke-width="1px">0.1</text><text x="0" y="22.12500000000003" dx="0em" dy="0.3em" style="text-anchor: end; visibility: inherit; font-family: &quot;Helvetica Neue&quot;, sans-serif; font-size: 12px; font-weight: 200;" fill="rgb(50, 49, 63)" stroke="none" stroke-width="1px">0.12</text><text x="0" y="0" dx="0em" dy="0.3em" style="text-anchor: end; visibility: hidden; font-family: &quot;Helvetica Neue&quot;, sans-serif; font-size: 12px; font-weight: 200;" fill="rgb(50, 49, 63)" stroke="none" stroke-width="1px">0.14</text></g><line x1="55" y1="0" x2="55" y2="177" fill="rgb(0, 0, 0)" stroke="rgb(204, 204, 204)" stroke-width="1px"></line></g></g><g transform="translate(55, 0)" clip-path="url(#clip_0)"><clipPath id="clip_0"><rect width="275" height="177"></rect></clipPath><g><g><g><line x1="0" y1="0" x2="0" y2="177" fill="rgb(0, 0, 0)" stroke="rgb(60, 60, 60)" stroke-width="1px" opacity="0.25"></line><line x1="22.916666666666664" y1="0" x2="22.916666666666664" y2="177" fill="rgb(0, 0, 0)" stroke="rgb(60, 60, 60)" stroke-width="1px" opacity="0.25"></line><line x1="45.83333333333333" y1="0" x2="45.83333333333333" y2="177" fill="rgb(0, 0, 0)" stroke="rgb(60, 60, 60)" stroke-width="1px" opacity="0.25"></line><line x1="68.75" y1="0" x2="68.75" y2="177" fill="rgb(0, 0, 0)" stroke="rgb(60, 60, 60)" stroke-width="1px" opacity="0.25"></line><line x1="91.66666666666666" y1="0" x2="91.66666666666666" y2="177" fill="rgb(0, 0, 0)" stroke="rgb(60, 60, 60)" stroke-width="1px" opacity="0.25"></line><line x1="114.58333333333334" y1="0" x2="114.58333333333334" y2="177" fill="rgb(0, 0, 0)" stroke="rgb(60, 60, 60)" stroke-width="1px" opacity="0.25"></line><line x1="137.5" y1="0" x2="137.5" y2="177" fill="rgb(0, 0, 0)" stroke="rgb(60, 60, 60)" stroke-width="1px" opacity="0.25"></line><line x1="160.41666666666669" y1="0" x2="160.41666666666669" y2="177" fill="rgb(0, 0, 0)" stroke="rgb(60, 60, 60)" stroke-width="1px" opacity="0.25"></line><line x1="183.33333333333331" y1="0" x2="183.33333333333331" y2="177" fill="rgb(0, 0, 0)" stroke="rgb(60, 60, 60)" stroke-width="1px" opacity="0.25"></line><line x1="206.25" y1="0" x2="206.25" y2="177" fill="rgb(0, 0, 0)" stroke="rgb(60, 60, 60)" stroke-width="1px" opacity="0.25"></line><line x1="229.16666666666669" y1="0" x2="229.16666666666669" y2="177" fill="rgb(0, 0, 0)" stroke="rgb(60, 60, 60)" stroke-width="1px" opacity="0.25"></line><line x1="252.08333333333331" y1="0" x2="252.08333333333331" y2="177" fill="rgb(0, 0, 0)" stroke="rgb(60, 60, 60)" stroke-width="1px" opacity="0.25"></line><line x1="275" y1="0" x2="275" y2="177" fill="rgb(0, 0, 0)" stroke="rgb(60, 60, 60)" stroke-width="1px" opacity="0.25"></line></g><g><line x1="0" y1="177" x2="275" y2="177" fill="rgb(0, 0, 0)" stroke="rgb(60, 60, 60)" stroke-width="1px" opacity="0.25"></line><line x1="0" y1="154.875" x2="275" y2="154.875" fill="rgb(0, 0, 0)" stroke="rgb(60, 60, 60)" stroke-width="1px" opacity="0.25"></line><line x1="0" y1="132.75" x2="275" y2="132.75" fill="rgb(0, 0, 0)" stroke="rgb(60, 60, 60)" stroke-width="1px" opacity="0.25"></line><line x1="0" y1="110.625" x2="275" y2="110.625" fill="rgb(0, 0, 0)" stroke="rgb(60, 60, 60)" stroke-width="1px" opacity="0.25"></line><line x1="0" y1="88.5" x2="275" y2="88.5" fill="rgb(0, 0, 0)" stroke="rgb(60, 60, 60)" stroke-width="1px" opacity="0.25"></line><line x1="0" y1="66.375" x2="275" y2="66.375" fill="rgb(0, 0, 0)" stroke="rgb(60, 60, 60)" stroke-width="1px" opacity="0.25"></line><line x1="0" y1="44.25" x2="275" y2="44.25" fill="rgb(0, 0, 0)" stroke="rgb(60, 60, 60)" stroke-width="1px" opacity="0.25"></line><line x1="0" y1="22.12500000000003" x2="275" y2="22.12500000000003" fill="rgb(0, 0, 0)" stroke="rgb(60, 60, 60)" stroke-width="1px" opacity="0.25"></line><line x1="0" y1="0" x2="275" y2="0" fill="rgb(0, 0, 0)" stroke="rgb(60, 60, 60)" stroke-width="1px" opacity="0.25"></line></g></g></g><g><g><line x1="0" y1="154.875" x2="275" y2="154.875" fill="rgb(0, 0, 0)" stroke="rgb(153, 153, 153)" stroke-width="1.5px"></line></g></g><g><g><line x1="22.916666666666664" y1="0" x2="22.916666666666664" y2="177" fill="rgb(0, 0, 0)" stroke="rgb(153, 153, 153)" stroke-width="1.5px"></line></g></g><g><g><g><g><g><path stroke="rgb(0, 119, 187)" stroke-width="2px" d="M27.874641666666665,154.875L28.304833333333335,154.875L28.5085625,154.875L28.93825,154.875L29.14303333333333,154.875L29.345983333333333,154.875L29.773241666666667,154.21054983668944L29.976375,154.84111304170003L30.405420833333334,154.8732717651268L30.60919583333333,154.87491186002146L31.038058333333336,154.21054534214682L31.466004166666668,153.51221248702095L31.895920833333335,154.1410476741238L32.325379166666664,151.51531755670072L32.755204166666665,151.38140532071213L33.185854166666665,154.03237650864205L33.386741666666666,148.18752445258156L33.81294583333334,149.21833744536747L34.0143375,147.94200846035454L34.214675,149.87026635358637L34.63785416666666,151.96195793317582L35.05979583333333,149.41083355287776L35.260133333333336,150.60962665712756L35.6824875,142.6973629084401L35.88227500000001,147.60943875897127L36.30513333333334,150.51775552263834L36.503912500000006,142.69267748058118L36.7002625,146.28029984337124L37.122570833333334,147.12771831883026L37.5442375,145.84203621343366L67.05769583333334,125.17851095415838L67.47491666666666,133.42697527718184L67.67025833333334,119.89419176851783L68.0882125,125.84852302553247L68.28245416666667,119.50769070368372L68.47742916666667,123.83545933316114L68.67199166666667,119.4050244553728L122.54472083333333,95.92331688714708L122.97152083333333,102.69915053157443L123.17066666666666,92.41351837720646L123.36990416666667,81.92219435793585L123.79221249999999,98.6628436300695L123.99071666666667,96.19436709043315L124.41375833333333,92.74622513439654L124.83588333333333,95.22816883446556L125.03388333333334,101.99925117912558L125.23234166666667,94.37117173737022L125.42988333333334,101.29109361448545L125.62829583333333,85.03275354579016L159.35090416666668,92.84142964538182L159.53469583333336,83.27291925798933L159.93679166666666,84.11382665360885L160.12443333333334,80.83446718919646L160.31212083333332,85.98281773616523L160.71137499999998,80.26533502171857L161.11539583333334,87.28269342100037L161.5205625,92.29172977725547L161.70967083333332,67.96253381658943L161.89818333333332,82.6685462834092L162.08683333333332,86.07635576997008L162.27585,90.23685441898812L164.4370291666667,79.153389467166L164.65794583333332,64.6346756100218L164.87822083333333,67.88092547943704L207.13151249999999,62.06642780858283L207.32891666666666,65.09214199081059L207.5282,69.23315769023382L215.625025,48.84639304127279L215.82912083333335,35.18211232495105L216.03523333333334,47.774240440331624L216.47459166666667,49.74534039959258L216.68052083333333,50.51031721020317L216.88667916666665,41.247028871760904L217.32585416666666,46.09019904615414L217.53114166666668,43.01494716160687L217.97027083333333,39.53586357390594L218.40990416666665,39.35843031093319L218.614825,46.65833123224019L218.82171666666667,41.715020477720714L219.02792083333333,40.13401802571602L219.47016666666667,49.355689056447176L219.67719583333331,53.812690733291745L219.88376666666667,48.724399939157024L220.32477500000002,41.15594709093753L220.53152916666667,57.381208169180354L220.97235416666666,57.544245771482466L221.412675,54.230307125758515L221.61997916666667,49.410149087861086L221.82668750000002,55.144369620270396L222.03293749999997,49.45676627508119L222.23978333333332,51.160042820689014L222.6808375,49.91801632099083L223.12170833333334,43.210165842623525L223.32892083333334,42.8680654682268L223.77006666666665,43.51506906182081L224.21020416666664,46.20586909584719L224.41686666666666,49.000902748335605L224.6231625,47.15009732654775L224.82867916666666,54.36465626775514L225.2639125,45.43029661797334L225.700475,55.60584785699437L225.90420416666666,44.82914667633625L226.33847500000002,38.96393703646888L226.54215833333333,50.624908529519786L226.977575,50.55517518482945L227.1809375,49.88716807156197L227.61690416666667,34.570741138807534L241.48909583333332,54.38755981486865L241.92084583333332,58.72047113078912L242.12173333333334,50.9680488774942L242.55504166666668,55.22382250954168L242.75698333333332,52.11861340133474L243.18983333333335,49.302452707915464L243.622225,49.15882851255108L244.05466249999998,52.47374942017652L244.25642083333335,51.31390896108887L244.45827083333333,44.61025779264506L244.65998333333334,50.91287088808477L245.0917333333333,50.56986126511627L245.52394166666667,53.210162803245595L245.72583749999998,57.3315224578198L246.15818333333334,50.232761782484474L246.36182083333335,52.528520016943105L246.56481666666667,44.007752243805356L247.0024791666667,54.868847381223546L247.44151666666667,50.10716535357808L247.6480875,48.535418144791606L247.86157916666664,50.44861117520833L248.303,53.86842976134855L248.5115416666667,56.70064335999477L248.72026666666667,48.871685523118884L248.9295875,56.44580940384506L249.13854166666667,40.885288260948386L249.58179583333333,53.380700292721286L249.78969583333333,55.34686773171826L250.2319875,46.80929082801197L250.4404375,50.36057868205256L250.64920833333332,53.863940104197624L250.85710833333331,62.68046297982215L251.29981249999997,53.8278034906956L251.7422875,54.70521928212666L252.08333333333331,40.79651816474072" style="fill: none;" fill="none"></path></g></g></g></g><g opacity="0.2"><g><g><g><path stroke="rgb(0, 119, 187)" stroke-width="2px" d="M27.874641666666665,154.875L28.304833333333335,154.875L28.5085625,154.875L28.93825,154.875L29.14303333333333,154.875L29.345983333333333,154.875L29.773241666666667,154.17484176742437L29.976375,154.875L30.405420833333334,154.875L30.60919583333333,154.875L31.038058333333336,154.17484176742437L31.466004166666668,153.47468353484874L31.895920833333335,154.17484176742437L32.325379166666664,151.37420877272962L32.755204166666665,151.37420877272962L33.185854166666665,154.17484176742437L33.386741666666666,147.87341754545923L33.81294583333334,149.27373413939495L34.0143375,147.87341754545923L34.214675,149.9738924363628L34.63785416666666,152.07436706969747L35.05979583333333,149.27373413939495L35.260133333333336,150.67405073333066L35.6824875,142.27215168485418L35.88227500000001,147.87341754545923L36.30513333333334,150.67405073333066L36.503912500000006,142.27215168485418L36.7002625,146.47310146666132L37.122570833333334,147.17325924849138L37.5442375,145.77294265455566L67.05769583333334,124.0680369939655L67.47491666666666,133.8702541817911L67.67025833333334,119.16692943032831L68.0882125,126.16851343028247L68.28245416666667,119.16692943032831L68.47742916666667,124.0680369939655L68.67199166666667,119.16692943032831L122.54472083333333,94.66139161214232L122.97152083333333,103.06328911520541L123.17066666666666,91.8607604848221L123.36990416666667,81.35838242433965L123.79221249999999,99.56249917577952L123.99071666666667,96.06170923635364L124.41375833333333,92.56091929692775L124.83588333333333,95.36155042424798L125.03388333333334,102.36313442420214L125.23234166666667,93.96123280003667L125.42988333333334,101.66297561209649L125.62829583333333,84.15901767276227L159.35090416666668,93.26107398793101L159.53469583333336,82.75870004855096L159.93679166666666,84.15901767276227L160.12443333333334,80.65823185443878L160.31212083333332,86.25949410907924L160.71137499999998,79.95807304233313L161.11539583333334,87.65981173329055L161.5205625,92.56091929692775L161.70967083333332,66.65506385453045L161.89818333333332,83.45885886065662L162.08683333333332,86.25949410907924L162.27585,90.46044286061078L164.4370291666667,78.55775541812181L164.65794583333332,63.85442860610783L164.87822083333333,68.05538147874177L207.13151249999999,61.753952169790864L207.32891666666666,65.25474623031914L207.5282,69.45569910295308L215.625025,47.75079241208732L215.82912083333335,34.44778322428468L216.03523333333334,48.45095122419298L216.47459166666667,49.85126884840429L216.68052083333333,50.551427660509944L216.88667916666665,40.74921253323555L217.32585416666666,46.35047478787601L217.53114166666668,42.84968072734773L217.97027083333333,39.34889490902424L218.40990416666665,39.34889490902424L218.614825,47.050633599981666L218.82171666666667,41.44936310313642L219.02792083333333,40.049053721129894L219.47016666666667,49.85126884840429L219.67719583333331,54.05221347883344L219.88376666666667,48.45095122419298L220.32477500000002,40.74921253323555L220.53152916666667,58.25316635146737L220.97235416666666,57.553007539361715L221.412675,54.05221347883344L221.61997916666667,49.15111003629863L221.82668750000002,55.45253110304475L222.03293749999997,49.15111003629863L222.23978333333332,51.251578230410814L222.6808375,49.85126884840429L223.12170833333334,42.84968072734773L223.32892083333334,42.84968072734773L223.77006666666665,43.54983953945339L224.21020416666664,46.35047478787601L224.41686666666666,49.15111003629863L224.6231625,47.050633599981666L224.82867916666666,54.75237229093909L225.2639125,44.9501571636647L225.700475,56.152689915150404L225.90420416666666,44.24999835155904L226.33847500000002,38.64873609691861L226.54215833333333,51.251578230410814L226.977575,50.551427660509944L227.1809375,49.85126884840429L227.61690416666667,33.74762441217902L241.48909583333332,55.45253110304475L241.92084583333332,58.95332516357303L242.12173333333334,50.551427660509944L242.55504166666668,55.45253110304475L242.75698333333332,51.95173704251647L243.18983333333335,49.15111003629863L243.622225,49.15111003629863L244.05466249999998,52.651895854622126L244.25642083333335,51.251578230410814L244.45827083333333,44.24999835155904L244.65998333333334,51.251578230410814L245.0917333333333,50.551427660509944L245.52394166666667,53.35205466672778L245.72583749999998,57.553007539361715L246.15818333333334,49.85126884840429L246.36182083333335,52.651895854622126L246.56481666666667,43.54983953945339L247.0024791666667,55.45253110304475L247.44151666666667,49.85126884840429L247.6480875,48.45095122419298L247.86157916666664,50.551427660509944L248.303,54.05221347883344L248.5115416666667,56.85284872725606L248.72026666666667,48.45095122419298L248.9295875,56.85284872725606L249.13854166666667,40.049053721129894L249.58179583333333,54.05221347883344L249.78969583333333,55.45253110304475L250.2319875,46.35047478787601L250.4404375,50.551427660509944L250.64920833333332,54.05221347883344L250.85710833333331,63.154269794002175L251.29981249999997,53.35205466672778L251.7422875,54.75237229093909L252.08333333333331,40.049053721129894" style="fill: none;" fill="none"></path></g></g></g></g></g></g><g transform="translate(55, 177)" clip-path="url(#clip_1)"><clipPath id="clip_1"><rect width="275" height="23"></rect></clipPath><g><g><line x1="0" y1="0" x2="0" y2="5" style="visibility: inherit;" fill="rgb(0, 0, 0)" stroke="rgb(204, 204, 204)" stroke-width="1px"></line><line x1="22.916666666666664" y1="0" x2="22.916666666666664" y2="5" style="visibility: inherit;" fill="rgb(0, 0, 0)" stroke="rgb(204, 204, 204)" stroke-width="1px"></line><line x1="45.83333333333333" y1="0" x2="45.83333333333333" y2="5" style="visibility: inherit;" fill="rgb(0, 0, 0)" stroke="rgb(204, 204, 204)" stroke-width="1px"></line><line x1="68.75" y1="0" x2="68.75" y2="5" style="visibility: inherit;" fill="rgb(0, 0, 0)" stroke="rgb(204, 204, 204)" stroke-width="1px"></line><line x1="91.66666666666666" y1="0" x2="91.66666666666666" y2="5" style="visibility: inherit;" fill="rgb(0, 0, 0)" stroke="rgb(204, 204, 204)" stroke-width="1px"></line><line x1="114.58333333333334" y1="0" x2="114.58333333333334" y2="5" style="visibility: inherit;" fill="rgb(0, 0, 0)" stroke="rgb(204, 204, 204)" stroke-width="1px"></line><line x1="137.5" y1="0" x2="137.5" y2="5" style="visibility: inherit;" fill="rgb(0, 0, 0)" stroke="rgb(204, 204, 204)" stroke-width="1px"></line><line x1="160.41666666666669" y1="0" x2="160.41666666666669" y2="5" style="visibility: inherit;" fill="rgb(0, 0, 0)" stroke="rgb(204, 204, 204)" stroke-width="1px"></line><line x1="183.33333333333331" y1="0" x2="183.33333333333331" y2="5" style="visibility: inherit;" fill="rgb(0, 0, 0)" stroke="rgb(204, 204, 204)" stroke-width="1px"></line><line x1="206.25" y1="0" x2="206.25" y2="5" style="visibility: inherit;" fill="rgb(0, 0, 0)" stroke="rgb(204, 204, 204)" stroke-width="1px"></line><line x1="229.16666666666669" y1="0" x2="229.16666666666669" y2="5" style="visibility: inherit;" fill="rgb(0, 0, 0)" stroke="rgb(204, 204, 204)" stroke-width="1px"></line><line x1="252.08333333333331" y1="0" x2="252.08333333333331" y2="5" style="visibility: inherit;" fill="rgb(0, 0, 0)" stroke="rgb(204, 204, 204)" stroke-width="1px"></line><line x1="275" y1="0" x2="275" y2="5" style="visibility: inherit;" fill="rgb(0, 0, 0)" stroke="rgb(204, 204, 204)" stroke-width="1px"></line></g><g transform="translate(0, 8)"><text x="0" y="0" dx="0em" dy="0.95em" style="text-anchor: middle; visibility: hidden; font-family: &quot;Helvetica Neue&quot;, sans-serif; font-size: 12px; font-weight: 200;" fill="rgb(50, 49, 63)" stroke="none" stroke-width="1px">-500k</text><text x="22.916666666666664" y="0" dx="0em" dy="0.95em" style="text-anchor: middle; visibility: inherit; font-family: &quot;Helvetica Neue&quot;, sans-serif; font-size: 12px; font-weight: 200;" fill="rgb(50, 49, 63)" stroke="none" stroke-width="1px">0</text><text x="45.83333333333333" y="0" dx="0em" dy="0.95em" style="text-anchor: middle; visibility: hidden; font-family: &quot;Helvetica Neue&quot;, sans-serif; font-size: 12px; font-weight: 200;" fill="rgb(50, 49, 63)" stroke="none" stroke-width="1px">500k</text><text x="68.75" y="0" dx="0em" dy="0.95em" style="text-anchor: middle; visibility: inherit; font-family: &quot;Helvetica Neue&quot;, sans-serif; font-size: 12px; font-weight: 200;" fill="rgb(50, 49, 63)" stroke="none" stroke-width="1px">1M</text><text x="91.66666666666666" y="0" dx="0em" dy="0.95em" style="text-anchor: middle; visibility: hidden; font-family: &quot;Helvetica Neue&quot;, sans-serif; font-size: 12px; font-weight: 200;" fill="rgb(50, 49, 63)" stroke="none" stroke-width="1px">1.5M</text><text x="114.58333333333334" y="0" dx="0em" dy="0.95em" style="text-anchor: middle; visibility: inherit; font-family: &quot;Helvetica Neue&quot;, sans-serif; font-size: 12px; font-weight: 200;" fill="rgb(50, 49, 63)" stroke="none" stroke-width="1px">2M</text><text x="137.5" y="0" dx="0em" dy="0.95em" style="text-anchor: middle; visibility: hidden; font-family: &quot;Helvetica Neue&quot;, sans-serif; font-size: 12px; font-weight: 200;" fill="rgb(50, 49, 63)" stroke="none" stroke-width="1px">2.5M</text><text x="160.41666666666669" y="0" dx="0em" dy="0.95em" style="text-anchor: middle; visibility: inherit; font-family: &quot;Helvetica Neue&quot;, sans-serif; font-size: 12px; font-weight: 200;" fill="rgb(50, 49, 63)" stroke="none" stroke-width="1px">3M</text><text x="183.33333333333331" y="0" dx="0em" dy="0.95em" style="text-anchor: middle; visibility: hidden; font-family: &quot;Helvetica Neue&quot;, sans-serif; font-size: 12px; font-weight: 200;" fill="rgb(50, 49, 63)" stroke="none" stroke-width="1px">3.5M</text><text x="206.25" y="0" dx="0em" dy="0.95em" style="text-anchor: middle; visibility: inherit; font-family: &quot;Helvetica Neue&quot;, sans-serif; font-size: 12px; font-weight: 200;" fill="rgb(50, 49, 63)" stroke="none" stroke-width="1px">4M</text><text x="229.16666666666669" y="0" dx="0em" dy="0.95em" style="text-anchor: middle; visibility: hidden; font-family: &quot;Helvetica Neue&quot;, sans-serif; font-size: 12px; font-weight: 200;" fill="rgb(50, 49, 63)" stroke="none" stroke-width="1px">4.5M</text><text x="252.08333333333331" y="0" dx="0em" dy="0.95em" style="text-anchor: middle; visibility: inherit; font-family: &quot;Helvetica Neue&quot;, sans-serif; font-size: 12px; font-weight: 200;" fill="rgb(50, 49, 63)" stroke="none" stroke-width="1px">5M</text><text x="275" y="0" dx="0em" dy="0.95em" style="text-anchor: middle; visibility: hidden; font-family: &quot;Helvetica Neue&quot;, sans-serif; font-size: 12px; font-weight: 200;" fill="rgb(50, 49, 63)" stroke="none" stroke-width="1px">5.5M</text></g><line x1="0" y1="0" x2="275" y2="0" fill="rgb(0, 0, 0)" stroke="rgb(204, 204, 204)" stroke-width="1px"></line></g></g></g></g></svg>