<svg viewBox="0 0 330 200" xmlns="http://www.w3.org/2000/svg"><g><g><g><g><g><line x1="55" y1="177" x2="50" y2="177" style="visibility: inherit;" fill="rgb(0, 0, 0)" stroke="rgb(204, 204, 204)" stroke-width="1px"></line><line x1="55" y1="151.71428571428572" x2="50" y2="151.71428571428572" style="visibility: inherit;" fill="rgb(0, 0, 0)" stroke="rgb(204, 204, 204)" stroke-width="1px"></line><line x1="55" y1="126.42857142857142" x2="50" y2="126.42857142857142" style="visibility: inherit;" fill="rgb(0, 0, 0)" stroke="rgb(204, 204, 204)" stroke-width="1px"></line><line x1="55" y1="101.14285714285712" x2="50" y2="101.14285714285712" style="visibility: inherit;" fill="rgb(0, 0, 0)" stroke="rgb(204, 204, 204)" stroke-width="1px"></line><line x1="55" y1="75.85714285714285" x2="50" y2="75.85714285714285" style="visibility: inherit;" fill="rgb(0, 0, 0)" stroke="rgb(204, 204, 204)" stroke-width="1px"></line><line x1="55" y1="50.57142857142857" x2="50" y2="50.57142857142857" style="visibility: inherit;" fill="rgb(0, 0, 0)" stroke="rgb(204, 204, 204)" stroke-width="1px"></line><line x1="55" y1="25.285714285714278" x2="50" y2="25.285714285714278" style="visibility: inherit;" fill="rgb(0, 0, 0)" stroke="rgb(204, 204, 204)" stroke-width="1px"></line><line x1="55" y1="0" x2="50" y2="0" style="visibility: inherit;" fill="rgb(0, 0, 0)" stroke="rgb(204, 204, 204)" stroke-width="1px"></line></g><g transform="translate(45, 0)"><text x="0" y="177" dx="0em" dy="0.3em" style="text-anchor: end; visibility: hidden; font-family: &quot;Helvetica Neue&quot;, sans-serif; font-size: 12px; font-weight: 200;" fill="rgb(50, 49, 63)" stroke="none" stroke-width="1px">-0.05</text><text x="0" y="151.71428571428572" dx="0em" dy="0.3em" style="text-anchor: end; visibility: inherit; font-family: &quot;Helvetica Neue&quot;, sans-serif; font-size: 12px; font-weight: 200;" fill="rgb(50, 49, 63)" stroke="none" stroke-width="1px">0</text><text x="0" y="126.42857142857142" dx="0em" dy="0.3em" style="text-anchor: end; visibility: inherit; font-family: &quot;Helvetica Neue&quot;, sans-serif; font-size: 12px; font-weight: 200;" fill="rgb(50, 49, 63)" stroke="none" stroke-width="1px">0.05</text><text x="0" y="101.14285714285712" dx="0em" dy="0.3em" style="text-anchor: end; visibility: inherit; font-family: &quot;Helvetica Neue&quot;, sans-serif; font-size: 12px; font-weight: 200;" fill="rgb(50, 49, 63)" stroke="none" stroke-width="1px">0.1</text><text x="0" y="75.85714285714285" dx="0em" dy="0.3em" style="text-anchor: end; visibility: inherit; font-family: &quot;Helvetica Neue&quot;, sans-serif; font-size: 12px; font-weight: 200;" fill="rgb(50, 49, 63)" stroke="none" stroke-width="1px">0.15</text><text x="0" y="50.57142857142857" dx="0em" dy="0.3em" style="text-anchor: end; visibility: inherit; font-family: &quot;Helvetica Neue&quot;, sans-serif; font-size: 12px; font-weight: 200;" fill="rgb(50, 49, 63)" stroke="none" stroke-width="1px">0.2</text><text x="0" y="25.285714285714278" dx="0em" dy="0.3em" style="text-anchor: end; visibility: inherit; font-family: &quot;Helvetica Neue&quot;, sans-serif; font-size: 12px; font-weight: 200;" fill="rgb(50, 49, 63)" stroke="none" stroke-width="1px">0.25</text><text x="0" y="0" dx="0em" dy="0.3em" style="text-anchor: end; visibility: hidden; font-family: &quot;Helvetica Neue&quot;, sans-serif; font-size: 12px; font-weight: 200;" fill="rgb(50, 49, 63)" stroke="none" stroke-width="1px">0.3</text></g><line x1="55" y1="0" x2="55" y2="177" fill="rgb(0, 0, 0)" stroke="rgb(204, 204, 204)" stroke-width="1px"></line></g></g><g transform="translate(55, 0)" clip-path="url(#clip_0)"><clipPath id="clip_0"><rect width="275" height="177"></rect></clipPath><g><g><g><line x1="0" y1="0" x2="0" y2="177" fill="rgb(0, 0, 0)" stroke="rgb(60, 60, 60)" stroke-width="1px" opacity="0.25"></line><line x1="22.916666666666664" y1="0" x2="22.916666666666664" y2="177" fill="rgb(0, 0, 0)" stroke="rgb(60, 60, 60)" stroke-width="1px" opacity="0.25"></line><line x1="45.83333333333333" y1="0" x2="45.83333333333333" y2="177" fill="rgb(0, 0, 0)" stroke="rgb(60, 60, 60)" stroke-width="1px" opacity="0.25"></line><line x1="68.75" y1="0" x2="68.75" y2="177" fill="rgb(0, 0, 0)" stroke="rgb(60, 60, 60)" stroke-width="1px" opacity="0.25"></line><line x1="91.66666666666666" y1="0" x2="91.66666666666666" y2="177" fill="rgb(0, 0, 0)" stroke="rgb(60, 60, 60)" stroke-width="1px" opacity="0.25"></line><line x1="114.58333333333334" y1="0" x2="114.58333333333334" y2="177" fill="rgb(0, 0, 0)" stroke="rgb(60, 60, 60)" stroke-width="1px" opacity="0.25"></line><line x1="137.5" y1="0" x2="137.5" y2="177" fill="rgb(0, 0, 0)" stroke="rgb(60, 60, 60)" stroke-width="1px" opacity="0.25"></line><line x1="160.41666666666669" y1="0" x2="160.41666666666669" y2="177" fill="rgb(0, 0, 0)" stroke="rgb(60, 60, 60)" stroke-width="1px" opacity="0.25"></line><line x1="183.33333333333331" y1="0" x2="183.33333333333331" y2="177" fill="rgb(0, 0, 0)" stroke="rgb(60, 60, 60)" stroke-width="1px" opacity="0.25"></line><line x1="206.25" y1="0" x2="206.25" y2="177" fill="rgb(0, 0, 0)" stroke="rgb(60, 60, 60)" stroke-width="1px" opacity="0.25"></line><line x1="229.16666666666669" y1="0" x2="229.16666666666669" y2="177" fill="rgb(0, 0, 0)" stroke="rgb(60, 60, 60)" stroke-width="1px" opacity="0.25"></line><line x1="252.08333333333331" y1="0" x2="252.08333333333331" y2="177" fill="rgb(0, 0, 0)" stroke="rgb(60, 60, 60)" stroke-width="1px" opacity="0.25"></line><line x1="275" y1="0" x2="275" y2="177" fill="rgb(0, 0, 0)" stroke="rgb(60, 60, 60)" stroke-width="1px" opacity="0.25"></line></g><g><line x1="0" y1="177" x2="275" y2="177" fill="rgb(0, 0, 0)" stroke="rgb(60, 60, 60)" stroke-width="1px" opacity="0.25"></line><line x1="0" y1="151.71428571428572" x2="275" y2="151.71428571428572" fill="rgb(0, 0, 0)" stroke="rgb(60, 60, 60)" stroke-width="1px" opacity="0.25"></line><line x1="0" y1="126.42857142857142" x2="275" y2="126.42857142857142" fill="rgb(0, 0, 0)" stroke="rgb(60, 60, 60)" stroke-width="1px" opacity="0.25"></line><line x1="0" y1="101.14285714285712" x2="275" y2="101.14285714285712" fill="rgb(0, 0, 0)" stroke="rgb(60, 60, 60)" stroke-width="1px" opacity="0.25"></line><line x1="0" y1="75.85714285714285" x2="275" y2="75.85714285714285" fill="rgb(0, 0, 0)" stroke="rgb(60, 60, 60)" stroke-width="1px" opacity="0.25"></line><line x1="0" y1="50.57142857142857" x2="275" y2="50.57142857142857" fill="rgb(0, 0, 0)" stroke="rgb(60, 60, 60)" stroke-width="1px" opacity="0.25"></line><line x1="0" y1="25.285714285714278" x2="275" y2="25.285714285714278" fill="rgb(0, 0, 0)" stroke="rgb(60, 60, 60)" stroke-width="1px" opacity="0.25"></line><line x1="0" y1="0" x2="275" y2="0" fill="rgb(0, 0, 0)" stroke="rgb(60, 60, 60)" stroke-width="1px" opacity="0.25"></line></g></g></g><g><g><line x1="0" y1="151.71428571428572" x2="275" y2="151.71428571428572" fill="rgb(0, 0, 0)" stroke="rgb(153, 153, 153)" stroke-width="1.5px"></line></g></g><g><g><line x1="22.916666666666664" y1="0" x2="22.916666666666664" y2="177" fill="rgb(0, 0, 0)" stroke="rgb(153, 153, 153)" stroke-width="1.5px"></line></g></g><g><g><g><g><g><path stroke="rgb(0, 119, 187)" stroke-width="2px" d="M27.874641666666665,135.5018877408334L28.304833333333335,137.40918479075577L28.5085625,140.43883901911337L28.93825,136.08738650719914L29.14303333333333,135.73199462664388L29.345983333333333,135.7138697630358L29.773241666666667,130.80691869577066L29.976375,134.76182967920573L30.405420833333334,134.22929509471632L30.60919583333333,133.23428038249432L31.038058333333336,131.74843837585325L31.466004166666668,128.5020980638614L31.895920833333335,129.17089303808467L32.325379166666664,127.90340244373155L32.755204166666665,126.40366416710171L33.185854166666665,125.32594823397257L33.386741666666666,128.24130051969115L33.81294583333334,123.55070445633997L34.0143375,125.08032400305123L34.214675,123.92348491496065L34.63785416666666,120.29343418482883L35.05979583333333,121.9772630413548L35.260133333333336,122.49700350048248L35.6824875,119.01920778032444L35.88227500000001,119.27570538604122L36.30513333333334,120.82400630592312L36.503912500000006,120.70272308149211L36.7002625,116.5914954394376L37.122570833333334,119.51900957888716L37.5442375,119.23444761255425L67.05769583333334,80.8060832970179L67.47491666666666,81.01556622985376L67.67025833333334,86.93350583558593L68.0882125,77.9238802178638L68.28245416666667,79.76722130612343L68.47742916666667,76.32355180974032L68.67199166666667,80.98720369534763L122.54472083333333,62.435297915398436L122.97152083333333,61.68939729196602L123.17066666666666,60.28301313262271L123.36990416666667,56.706983269070676L123.79221249999999,66.10303694449875L123.99071666666667,63.077931410520065L124.41375833333333,64.35874549675302L124.83588333333333,61.75412464956415L125.03388333333334,63.523620687023126L125.23234166666667,62.178770516467665L125.42988333333334,58.83950107814762L125.62829583333333,60.53816156840797L159.35090416666668,59.49006506625891L159.53469583333336,57.801271104838435L159.93679166666666,58.64961707720546L160.12443333333334,60.661972814787276L160.31212083333332,62.66694180947741L160.71137499999998,57.863164957366166L161.11539583333334,55.54896253494884L161.5205625,64.17501465544387L161.70967083333332,55.40362963735106L161.89818333333332,61.96489754427938L162.08683333333332,56.39226623137519L162.27585,59.61236630584257L164.4370291666667,59.67646454826401L164.65794583333332,64.38551725812296L164.87822083333333,64.29193704455339L207.13151249999999,46.23164747200855L207.32891666666666,47.446533747686004L207.5282,43.23657801139893L215.625025,39.35069504653657L215.82912083333335,41.55546672006059L216.03523333333334,41.000419120457735L216.47459166666667,45.31077787014226L216.68052083333333,42.059677515409504L216.88667916666665,46.59964794540571L217.32585416666666,45.49621883024605L217.53114166666668,39.265690156952786L217.97027083333333,41.78475366249563L218.40990416666665,44.783414838210064L218.614825,43.03400770609801L218.82171666666667,43.478776415477654L219.02792083333333,40.063906589148104L219.47016666666667,41.35821831692999L219.67719583333331,41.99159230862301L219.88376666666667,42.7581294266617L220.32477500000002,41.69587025298816L220.53152916666667,42.743047601824316L220.97235416666666,40.59374851322795L221.412675,39.449532933933625L221.61997916666667,48.06850314251034L221.82668750000002,46.672483011991915L222.03293749999997,44.59882027188556L222.23978333333332,46.36202670375479L222.6808375,45.38397328554544L223.12170833333334,39.7939541072904L223.32892083333334,41.845063593013776L223.77006666666665,41.51580856504475L224.21020416666664,41.23201874635572L224.41686666666666,42.21877832232752L224.6231625,41.2011261144674L224.82867916666666,43.98603916833943L225.2639125,39.85615479774026L225.700475,39.078166601263575L225.90420416666666,42.442673764700174L226.33847500000002,38.275597452771194L226.54215833333333,42.43511835858587L226.977575,42.07988983120629L227.1809375,37.956729190849416L227.61690416666667,40.8836347473856L241.48909583333332,39.59781246230304L241.92084583333332,43.403657319420546L242.12173333333334,40.560688367907744L242.55504166666668,41.350178567187925L242.75698333333332,40.65620752288888L243.18983333333335,39.7864602451987L243.622225,38.540623705966595L244.05466249999998,39.67856547053566L244.25642083333335,40.8045774467634L244.45827083333333,39.860771200826065L244.65998333333334,38.37754261381741L245.0917333333333,41.67270689687811L245.52394166666667,42.14112655662774L245.72583749999998,37.726230072042114L246.15818333333334,43.10796004617225L246.36182083333335,40.94610094966208L246.56481666666667,39.46750290819179L247.0024791666667,39.22522345719062L247.44151666666667,39.7468556783069L247.6480875,40.17394491286595L247.86157916666664,39.79524047254634L248.303,38.07383426536157L248.5115416666667,43.69305195360769L248.72026666666667,38.87336236493067L248.9295875,41.76474494510248L249.13854166666667,38.24102308297171L249.58179583333333,39.396288026500315L249.78969583333333,39.82232406085146L250.2319875,38.87619466233724L250.4404375,38.06033854949973L250.64920833333332,40.121308159755586L250.85710833333331,40.52679104260005L251.29981249999997,43.85152836970565L251.7422875,38.480951519461684L252.08333333333331,41.444358559262156" style="fill: none;" fill="none"></path></g></g></g></g><g opacity="0.2"><g><g><g><path stroke="rgb(0, 119, 187)" stroke-width="2px" d="M27.874641666666665,135.5018877408334L28.304833333333335,137.50645694030183L28.5085625,140.60123151540756L28.93825,135.85356707658087L29.14303333333333,135.7128957190684L29.345983333333333,135.7128957190684L29.773241666666667,130.54321532377173L29.976375,134.9743696791785L30.405420833333334,134.20067627089364L30.60919583333333,133.1808075159788L31.038058333333336,131.66858806780405L31.466004166666668,128.3276372041021L31.895920833333335,129.20683460150445L32.325379166666664,127.83528651084218L32.755204166666665,126.32306706266743L33.185854166666665,125.26803093935762L33.386741666666666,128.3979738248246L33.81294583333334,123.29862816631794L34.0143375,125.16252695024014L34.214675,123.86131548030036L34.63785416666666,120.09835242799349L35.05979583333333,122.06775331710065L35.260133333333336,122.52493475803307L35.6824875,118.83230832644871L35.88227500000001,119.28948976738113L36.30513333333334,120.90721320467335L36.503912500000006,120.69620522643838L36.7002625,116.3705548601491L37.122570833333334,119.67633647152356L37.5442375,119.21915503059114L67.05769583333334,78.74091303348541L67.47491666666666,81.0268240060125L67.67025833333334,87.25154052461896L68.0882125,77.43969591174807L68.28245416666667,79.8662838935852L68.47742916666667,76.13848632574081L68.67199166666667,81.23783198424748L122.54472083333333,61.438304032598225L122.97152083333333,61.6493120108332L123.17066666666666,60.20743295124599L123.36990416666667,56.51480463572911L123.79221249999999,66.60798819575992L123.99071666666667,62.91535988024303L124.41375833333333,64.42757744448525L124.83588333333333,61.61415029423577L125.03388333333334,63.618714783872875L125.23234166666667,62.106497219630654L125.42988333333334,58.66004613467625L125.62829583333333,60.629448907715926L159.35090416666668,59.43373954296112L159.53469583333336,57.710514000483926L159.93679166666666,58.695207851273665L160.12443333333334,60.77011838129589L160.31212083333332,62.77469040666307L160.71137499999998,57.60500624350139L161.11539583333334,55.42459549222673L161.5205625,64.63858542272023L161.70967083333332,54.93224856683186L161.89818333333332,62.317505197865614L162.08683333333332,56.09278867925916L162.27585,59.78541699477604L164.4370291666667,59.67990923779351L164.65794583333332,64.63858542272023L164.87822083333333,64.2869079709053L207.13151249999999,45.26107342754091L207.32891666666666,47.51182268347057L207.5282,43.01033170734132L215.625025,39.141864665916984L215.82912083333335,41.67395286900657L216.03523333333334,40.97059042964662L216.47459166666667,45.54241991043091L216.68052083333333,41.88496084724153L216.88667916666665,46.843629496438155L217.32585416666666,45.43691968917847L217.53114166666668,38.930856687681995L217.97027083333333,41.920130099569064L218.40990416666665,44.944565228053506L218.614825,42.93999320268631L218.82171666666667,43.502678632736206L219.02792083333333,39.88038882187436L219.47016666666667,41.427775638444075L219.67719583333331,42.025630320821506L219.88376666666667,42.79932372910636L220.32477500000002,41.638783616679035L220.53152916666667,42.79932372910636L220.97235416666666,40.478243504251736L221.412675,39.38804189647945L221.61997916666667,48.53169332231792L221.82668750000002,46.597459801605766L222.03293749999997,44.48738001925605L222.23978333333332,46.45678279229571L222.6808375,45.33141193219592L223.12170833333334,39.49354211773189L223.32892083333334,41.955291816166465L223.77006666666665,41.49811414309909L224.21020416666664,41.216767660209115L224.41686666666666,42.27180755138397L224.6231625,41.14643669128418L224.82867916666666,44.135702567441115L225.2639125,39.63421159131187L225.700475,39.03635690893444L225.90420416666666,42.62348500319888L226.33847500000002,38.05165552241462L226.54215833333333,42.658654255526386L226.977575,42.060799573148984L227.1809375,37.73514732292722L227.61690416666667,41.04092893430163L241.48909583333332,39.528711370059426L241.92084583333332,43.60818638971875L242.12173333333334,40.407904999596724L242.55504166666668,41.39260638611657L242.75698333333332,40.618912977831684L243.18983333333335,39.739719348294386L243.622225,38.47367147888454L244.05466249999998,39.739719348294386L244.25642083333335,40.86509020839418L244.45827083333333,39.81005031721932L244.65998333333334,38.297832752977115L245.0917333333333,41.849791594914024L245.52394166666667,42.166299794401425L245.72583749999998,37.488970092364724L246.15818333333334,43.397178411483765L246.36182083333335,40.82992095606667L246.56481666666667,39.38804189647945L247.0024791666667,39.212203170572025L247.44151666666667,39.77488860062192L247.6480875,40.196897021361764L247.86157916666664,39.77488860062192L248.303,37.981324553489685L248.5115416666667,43.99503309386117L248.72026666666667,38.614348488194594L248.9295875,41.920130099569064L249.13854166666667,38.05165552241462L249.58179583333333,39.458372865404385L249.78969583333333,39.84521956954683L250.2319875,38.82534893069948L250.4404375,38.01649380581719L250.64920833333332,40.23206627368927L250.85710833333331,40.54858200890678L251.29981249999997,44.03020234618867L251.7422875,38.192332531724674L252.08333333333331,41.60361436435153" style="fill: none;" fill="none"></path></g></g></g></g></g></g><g transform="translate(55, 177)" clip-path="url(#clip_1)"><clipPath id="clip_1"><rect width="275" height="23"></rect></clipPath><g><g><line x1="0" y1="0" x2="0" y2="5" style="visibility: inherit;" fill="rgb(0, 0, 0)" stroke="rgb(204, 204, 204)" stroke-width="1px"></line><line x1="22.916666666666664" y1="0" x2="22.916666666666664" y2="5" style="visibility: inherit;" fill="rgb(0, 0, 0)" stroke="rgb(204, 204, 204)" stroke-width="1px"></line><line x1="45.83333333333333" y1="0" x2="45.83333333333333" y2="5" style="visibility: inherit;" fill="rgb(0, 0, 0)" stroke="rgb(204, 204, 204)" stroke-width="1px"></line><line x1="68.75" y1="0" x2="68.75" y2="5" style="visibility: inherit;" fill="rgb(0, 0, 0)" stroke="rgb(204, 204, 204)" stroke-width="1px"></line><line x1="91.66666666666666" y1="0" x2="91.66666666666666" y2="5" style="visibility: inherit;" fill="rgb(0, 0, 0)" stroke="rgb(204, 204, 204)" stroke-width="1px"></line><line x1="114.58333333333334" y1="0" x2="114.58333333333334" y2="5" style="visibility: inherit;" fill="rgb(0, 0, 0)" stroke="rgb(204, 204, 204)" stroke-width="1px"></line><line x1="137.5" y1="0" x2="137.5" y2="5" style="visibility: inherit;" fill="rgb(0, 0, 0)" stroke="rgb(204, 204, 204)" stroke-width="1px"></line><line x1="160.41666666666669" y1="0" x2="160.41666666666669" y2="5" style="visibility: inherit;" fill="rgb(0, 0, 0)" stroke="rgb(204, 204, 204)" stroke-width="1px"></line><line x1="183.33333333333331" y1="0" x2="183.33333333333331" y2="5" style="visibility: inherit;" fill="rgb(0, 0, 0)" stroke="rgb(204, 204, 204)" stroke-width="1px"></line><line x1="206.25" y1="0" x2="206.25" y2="5" style="visibility: inherit;" fill="rgb(0, 0, 0)" stroke="rgb(204, 204, 204)" stroke-width="1px"></line><line x1="229.16666666666669" y1="0" x2="229.16666666666669" y2="5" style="visibility: inherit;" fill="rgb(0, 0, 0)" stroke="rgb(204, 204, 204)" stroke-width="1px"></line><line x1="252.08333333333331" y1="0" x2="252.08333333333331" y2="5" style="visibility: inherit;" fill="rgb(0, 0, 0)" stroke="rgb(204, 204, 204)" stroke-width="1px"></line><line x1="275" y1="0" x2="275" y2="5" style="visibility: inherit;" fill="rgb(0, 0, 0)" stroke="rgb(204, 204, 204)" stroke-width="1px"></line></g><g transform="translate(0, 8)"><text x="0" y="0" dx="0em" dy="0.95em" style="text-anchor: middle; visibility: hidden; font-family: &quot;Helvetica Neue&quot;, sans-serif; font-size: 12px; font-weight: 200;" fill="rgb(50, 49, 63)" stroke="none" stroke-width="1px">-500k</text><text x="22.916666666666664" y="0" dx="0em" dy="0.95em" style="text-anchor: middle; visibility: inherit; font-family: &quot;Helvetica Neue&quot;, sans-serif; font-size: 12px; font-weight: 200;" fill="rgb(50, 49, 63)" stroke="none" stroke-width="1px">0</text><text x="45.83333333333333" y="0" dx="0em" dy="0.95em" style="text-anchor: middle; visibility: hidden; font-family: &quot;Helvetica Neue&quot;, sans-serif; font-size: 12px; font-weight: 200;" fill="rgb(50, 49, 63)" stroke="none" stroke-width="1px">500k</text><text x="68.75" y="0" dx="0em" dy="0.95em" style="text-anchor: middle; visibility: inherit; font-family: &quot;Helvetica Neue&quot;, sans-serif; font-size: 12px; font-weight: 200;" fill="rgb(50, 49, 63)" stroke="none" stroke-width="1px">1M</text><text x="91.66666666666666" y="0" dx="0em" dy="0.95em" style="text-anchor: middle; visibility: hidden; font-family: &quot;Helvetica Neue&quot;, sans-serif; font-size: 12px; font-weight: 200;" fill="rgb(50, 49, 63)" stroke="none" stroke-width="1px">1.5M</text><text x="114.58333333333334" y="0" dx="0em" dy="0.95em" style="text-anchor: middle; visibility: inherit; font-family: &quot;Helvetica Neue&quot;, sans-serif; font-size: 12px; font-weight: 200;" fill="rgb(50, 49, 63)" stroke="none" stroke-width="1px">2M</text><text x="137.5" y="0" dx="0em" dy="0.95em" style="text-anchor: middle; visibility: hidden; font-family: &quot;Helvetica Neue&quot;, sans-serif; font-size: 12px; font-weight: 200;" fill="rgb(50, 49, 63)" stroke="none" stroke-width="1px">2.5M</text><text x="160.41666666666669" y="0" dx="0em" dy="0.95em" style="text-anchor: middle; visibility: inherit; font-family: &quot;Helvetica Neue&quot;, sans-serif; font-size: 12px; font-weight: 200;" fill="rgb(50, 49, 63)" stroke="none" stroke-width="1px">3M</text><text x="183.33333333333331" y="0" dx="0em" dy="0.95em" style="text-anchor: middle; visibility: hidden; font-family: &quot;Helvetica Neue&quot;, sans-serif; font-size: 12px; font-weight: 200;" fill="rgb(50, 49, 63)" stroke="none" stroke-width="1px">3.5M</text><text x="206.25" y="0" dx="0em" dy="0.95em" style="text-anchor: middle; visibility: inherit; font-family: &quot;Helvetica Neue&quot;, sans-serif; font-size: 12px; font-weight: 200;" fill="rgb(50, 49, 63)" stroke="none" stroke-width="1px">4M</text><text x="229.16666666666669" y="0" dx="0em" dy="0.95em" style="text-anchor: middle; visibility: hidden; font-family: &quot;Helvetica Neue&quot;, sans-serif; font-size: 12px; font-weight: 200;" fill="rgb(50, 49, 63)" stroke="none" stroke-width="1px">4.5M</text><text x="252.08333333333331" y="0" dx="0em" dy="0.95em" style="text-anchor: middle; visibility: inherit; font-family: &quot;Helvetica Neue&quot;, sans-serif; font-size: 12px; font-weight: 200;" fill="rgb(50, 49, 63)" stroke="none" stroke-width="1px">5M</text><text x="275" y="0" dx="0em" dy="0.95em" style="text-anchor: middle; visibility: hidden; font-family: &quot;Helvetica Neue&quot;, sans-serif; font-size: 12px; font-weight: 200;" fill="rgb(50, 49, 63)" stroke="none" stroke-width="1px">5.5M</text></g><line x1="0" y1="0" x2="275" y2="0" fill="rgb(0, 0, 0)" stroke="rgb(204, 204, 204)" stroke-width="1px"></line></g></g></g></g></svg>