<svg viewBox="0 0 330 200" xmlns="http://www.w3.org/2000/svg"><g><g><g><g><g><line x1="55" y1="177" x2="50" y2="177" style="visibility: inherit;" fill="rgb(0, 0, 0)" stroke="rgb(204, 204, 204)" stroke-width="1px"></line><line x1="55" y1="159.3" x2="50" y2="159.3" style="visibility: inherit;" fill="rgb(0, 0, 0)" stroke="rgb(204, 204, 204)" stroke-width="1px"></line><line x1="55" y1="141.6" x2="50" y2="141.6" style="visibility: inherit;" fill="rgb(0, 0, 0)" stroke="rgb(204, 204, 204)" stroke-width="1px"></line><line x1="55" y1="123.89999999999999" x2="50" y2="123.89999999999999" style="visibility: inherit;" fill="rgb(0, 0, 0)" stroke="rgb(204, 204, 204)" stroke-width="1px"></line><line x1="55" y1="106.2" x2="50" y2="106.2" style="visibility: inherit;" fill="rgb(0, 0, 0)" stroke="rgb(204, 204, 204)" stroke-width="1px"></line><line x1="55" y1="88.5" x2="50" y2="88.5" style="visibility: inherit;" fill="rgb(0, 0, 0)" stroke="rgb(204, 204, 204)" stroke-width="1px"></line><line x1="55" y1="70.8" x2="50" y2="70.8" style="visibility: inherit;" fill="rgb(0, 0, 0)" stroke="rgb(204, 204, 204)" stroke-width="1px"></line><line x1="55" y1="53.10000000000001" x2="50" y2="53.10000000000001" style="visibility: inherit;" fill="rgb(0, 0, 0)" stroke="rgb(204, 204, 204)" stroke-width="1px"></line><line x1="55" y1="35.400000000000006" x2="50" y2="35.400000000000006" style="visibility: inherit;" fill="rgb(0, 0, 0)" stroke="rgb(204, 204, 204)" stroke-width="1px"></line><line x1="55" y1="17.69999999999999" x2="50" y2="17.69999999999999" style="visibility: inherit;" fill="rgb(0, 0, 0)" stroke="rgb(204, 204, 204)" stroke-width="1px"></line><line x1="55" y1="0" x2="50" y2="0" style="visibility: inherit;" fill="rgb(0, 0, 0)" stroke="rgb(204, 204, 204)" stroke-width="1px"></line></g><g transform="translate(45, 0)"><text x="0" y="177" dx="0em" dy="0.3em" style="text-anchor: end; visibility: hidden; font-family: &quot;Helvetica Neue&quot;, sans-serif; font-size: 12px; font-weight: 200;" fill="rgb(50, 49, 63)" stroke="none" stroke-width="1px">-0.05</text><text x="0" y="159.3" dx="0em" dy="0.3em" style="text-anchor: end; visibility: inherit; font-family: &quot;Helvetica Neue&quot;, sans-serif; font-size: 12px; font-weight: 200;" fill="rgb(50, 49, 63)" stroke="none" stroke-width="1px">0</text><text x="0" y="141.6" dx="0em" dy="0.3em" style="text-anchor: end; visibility: hidden; font-family: &quot;Helvetica Neue&quot;, sans-serif; font-size: 12px; font-weight: 200;" fill="rgb(50, 49, 63)" stroke="none" stroke-width="1px">0.05</text><text x="0" y="123.89999999999999" dx="0em" dy="0.3em" style="text-anchor: end; visibility: inherit; font-family: &quot;Helvetica Neue&quot;, sans-serif; font-size: 12px; font-weight: 200;" fill="rgb(50, 49, 63)" stroke="none" stroke-width="1px">0.1</text><text x="0" y="106.2" dx="0em" dy="0.3em" style="text-anchor: end; visibility: hidden; font-family: &quot;Helvetica Neue&quot;, sans-serif; font-size: 12px; font-weight: 200;" fill="rgb(50, 49, 63)" stroke="none" stroke-width="1px">0.15</text><text x="0" y="88.5" dx="0em" dy="0.3em" style="text-anchor: end; visibility: inherit; font-family: &quot;Helvetica Neue&quot;, sans-serif; font-size: 12px; font-weight: 200;" fill="rgb(50, 49, 63)" stroke="none" stroke-width="1px">0.2</text><text x="0" y="70.8" dx="0em" dy="0.3em" style="text-anchor: end; visibility: hidden; font-family: &quot;Helvetica Neue&quot;, sans-serif; font-size: 12px; font-weight: 200;" fill="rgb(50, 49, 63)" stroke="none" stroke-width="1px">0.25</text><text x="0" y="53.10000000000001" dx="0em" dy="0.3em" style="text-anchor: end; visibility: inherit; font-family: &quot;Helvetica Neue&quot;, sans-serif; font-size: 12px; font-weight: 200;" fill="rgb(50, 49, 63)" stroke="none" stroke-width="1px">0.3</text><text x="0" y="35.400000000000006" dx="0em" dy="0.3em" style="text-anchor: end; visibility: hidden; font-family: &quot;Helvetica Neue&quot;, sans-serif; font-size: 12px; font-weight: 200;" fill="rgb(50, 49, 63)" stroke="none" stroke-width="1px">0.35</text><text x="0" y="17.69999999999999" dx="0em" dy="0.3em" style="text-anchor: end; visibility: inherit; font-family: &quot;Helvetica Neue&quot;, sans-serif; font-size: 12px; font-weight: 200;" fill="rgb(50, 49, 63)" stroke="none" stroke-width="1px">0.4</text><text x="0" y="0" dx="0em" dy="0.3em" style="text-anchor: end; visibility: hidden; font-family: &quot;Helvetica Neue&quot;, sans-serif; font-size: 12px; font-weight: 200;" fill="rgb(50, 49, 63)" stroke="none" stroke-width="1px">0.45</text></g><line x1="55" y1="0" x2="55" y2="177" fill="rgb(0, 0, 0)" stroke="rgb(204, 204, 204)" stroke-width="1px"></line></g></g><g transform="translate(55, 0)" clip-path="url(#clip_0)"><clipPath id="clip_0"><rect width="275" height="177"></rect></clipPath><g><g><g><line x1="0" y1="0" x2="0" y2="177" fill="rgb(0, 0, 0)" stroke="rgb(60, 60, 60)" stroke-width="1px" opacity="0.25"></line><line x1="22.916666666666664" y1="0" x2="22.916666666666664" y2="177" fill="rgb(0, 0, 0)" stroke="rgb(60, 60, 60)" stroke-width="1px" opacity="0.25"></line><line x1="45.83333333333333" y1="0" x2="45.83333333333333" y2="177" fill="rgb(0, 0, 0)" stroke="rgb(60, 60, 60)" stroke-width="1px" opacity="0.25"></line><line x1="68.75" y1="0" x2="68.75" y2="177" fill="rgb(0, 0, 0)" stroke="rgb(60, 60, 60)" stroke-width="1px" opacity="0.25"></line><line x1="91.66666666666666" y1="0" x2="91.66666666666666" y2="177" fill="rgb(0, 0, 0)" stroke="rgb(60, 60, 60)" stroke-width="1px" opacity="0.25"></line><line x1="114.58333333333334" y1="0" x2="114.58333333333334" y2="177" fill="rgb(0, 0, 0)" stroke="rgb(60, 60, 60)" stroke-width="1px" opacity="0.25"></line><line x1="137.5" y1="0" x2="137.5" y2="177" fill="rgb(0, 0, 0)" stroke="rgb(60, 60, 60)" stroke-width="1px" opacity="0.25"></line><line x1="160.41666666666669" y1="0" x2="160.41666666666669" y2="177" fill="rgb(0, 0, 0)" stroke="rgb(60, 60, 60)" stroke-width="1px" opacity="0.25"></line><line x1="183.33333333333331" y1="0" x2="183.33333333333331" y2="177" fill="rgb(0, 0, 0)" stroke="rgb(60, 60, 60)" stroke-width="1px" opacity="0.25"></line><line x1="206.25" y1="0" x2="206.25" y2="177" fill="rgb(0, 0, 0)" stroke="rgb(60, 60, 60)" stroke-width="1px" opacity="0.25"></line><line x1="229.16666666666669" y1="0" x2="229.16666666666669" y2="177" fill="rgb(0, 0, 0)" stroke="rgb(60, 60, 60)" stroke-width="1px" opacity="0.25"></line><line x1="252.08333333333331" y1="0" x2="252.08333333333331" y2="177" fill="rgb(0, 0, 0)" stroke="rgb(60, 60, 60)" stroke-width="1px" opacity="0.25"></line><line x1="275" y1="0" x2="275" y2="177" fill="rgb(0, 0, 0)" stroke="rgb(60, 60, 60)" stroke-width="1px" opacity="0.25"></line></g><g><line x1="0" y1="177" x2="275" y2="177" fill="rgb(0, 0, 0)" stroke="rgb(60, 60, 60)" stroke-width="1px" opacity="0.25"></line><line x1="0" y1="159.3" x2="275" y2="159.3" fill="rgb(0, 0, 0)" stroke="rgb(60, 60, 60)" stroke-width="1px" opacity="0.25"></line><line x1="0" y1="141.6" x2="275" y2="141.6" fill="rgb(0, 0, 0)" stroke="rgb(60, 60, 60)" stroke-width="1px" opacity="0.25"></line><line x1="0" y1="123.89999999999999" x2="275" y2="123.89999999999999" fill="rgb(0, 0, 0)" stroke="rgb(60, 60, 60)" stroke-width="1px" opacity="0.25"></line><line x1="0" y1="106.2" x2="275" y2="106.2" fill="rgb(0, 0, 0)" stroke="rgb(60, 60, 60)" stroke-width="1px" opacity="0.25"></line><line x1="0" y1="88.5" x2="275" y2="88.5" fill="rgb(0, 0, 0)" stroke="rgb(60, 60, 60)" stroke-width="1px" opacity="0.25"></line><line x1="0" y1="70.8" x2="275" y2="70.8" fill="rgb(0, 0, 0)" stroke="rgb(60, 60, 60)" stroke-width="1px" opacity="0.25"></line><line x1="0" y1="53.10000000000001" x2="275" y2="53.10000000000001" fill="rgb(0, 0, 0)" stroke="rgb(60, 60, 60)" stroke-width="1px" opacity="0.25"></line><line x1="0" y1="35.400000000000006" x2="275" y2="35.400000000000006" fill="rgb(0, 0, 0)" stroke="rgb(60, 60, 60)" stroke-width="1px" opacity="0.25"></line><line x1="0" y1="17.69999999999999" x2="275" y2="17.69999999999999" fill="rgb(0, 0, 0)" stroke="rgb(60, 60, 60)" stroke-width="1px" opacity="0.25"></line><line x1="0" y1="0" x2="275" y2="0" fill="rgb(0, 0, 0)" stroke="rgb(60, 60, 60)" stroke-width="1px" opacity="0.25"></line></g></g></g><g><g><line x1="0" y1="159.3" x2="275" y2="159.3" fill="rgb(0, 0, 0)" stroke="rgb(153, 153, 153)" stroke-width="1.5px"></line></g></g><g><g><line x1="22.916666666666664" y1="0" x2="22.916666666666664" y2="177" fill="rgb(0, 0, 0)" stroke="rgb(153, 153, 153)" stroke-width="1.5px"></line></g></g><g><g><g><g><g><path stroke="rgb(0, 119, 187)" stroke-width="2px" d="M27.874641666666665,129.98052846193315L28.304833333333335,129.5823379027855L28.5085625,131.26871870564673L28.93825,127.96698276863955L29.14303333333333,127.40146151213702L29.345983333333333,128.28373953532628L29.773241666666667,120.3389225251168L29.976375,123.2978692514861L30.405420833333334,124.1963593967619L30.60919583333333,121.04158554180634L31.038058333333336,120.53026057535024L31.466004166666668,114.21979645996424L31.895920833333335,113.10365305907295L32.325379166666664,112.74302661740884L32.755204166666665,108.16903768574923L33.185854166666665,105.0155075917699L33.386741666666666,114.59664571999045L33.81294583333334,107.86641739447758L34.0143375,106.47188375330798L34.214675,109.53127559299249L34.63785416666666,102.00119453829748L35.05979583333333,105.44853645959967L35.260133333333336,101.88642157379364L35.6824875,100.48993118977191L35.88227500000001,98.15259065278727L36.30513333333334,98.96786861634916L36.503912500000006,94.38376701237809L36.7002625,96.13575215809209L37.122570833333334,101.45819544305907L37.5442375,96.8469770049178L67.05769583333334,57.64393721850429L67.47491666666666,60.45715643210826L67.67025833333334,61.32485654603069L68.0882125,55.48188007824008L68.28245416666667,57.753710934000935L68.47742916666667,54.83251298954525L68.67199166666667,55.99180615650826L122.54472083333333,43.29525855524611L122.97152083333333,39.09670877835859L123.17066666666666,39.63016660210161L123.36990416666667,38.69952768584321L123.79221249999999,42.530162018862484L123.99071666666667,40.529488639424926L124.41375833333333,43.371073889859446L124.83588333333333,41.67039801604204L125.03388333333334,43.80305720523458L125.23234166666667,40.59440629392989L125.42988333333334,42.13619422508694L125.62829583333333,39.481467219695105L159.35090416666668,38.925563348581136L159.53469583333336,40.57927343848124L159.93679166666666,38.37413519733096L160.12443333333334,38.89244734377624L160.31212083333332,41.09154905335981L160.71137499999998,37.699403259967795L161.11539583333334,35.05003290617125L161.5205625,35.66249888049194L161.70967083333332,37.88976036363283L161.89818333333332,41.88144761702148L162.08683333333332,38.417188152100806L162.27585,35.22680752962603L164.4370291666667,33.82590765272755L164.65794583333332,33.07696169361944L164.87822083333333,34.27695591485718L207.13151249999999,22.423519667011988L207.32891666666666,22.963733146239463L207.5282,21.869913246119154L215.625025,22.164557428073977L215.82912083333335,24.001823074607586L216.03523333333334,23.207762154289497L216.47459166666667,21.555287657004385L216.68052083333333,20.886963129541186L216.88667916666665,21.039772041238905L217.32585416666666,21.491446029881104L217.53114166666668,20.299648866485285L217.97027083333333,23.018951269675256L218.40990416666665,22.316600092589L218.614825,21.019231789069664L218.82171666666667,22.097804733457792L219.02792083333333,21.77902502842494L219.47016666666667,18.795789742346756L219.67719583333331,22.311480257600238L219.88376666666667,21.743196611513895L220.32477500000002,21.644130348585463L220.53152916666667,21.31200690065083L220.97235416666666,21.80903313592978L221.412675,20.409297546178408L221.61997916666667,24.192650020513895L221.82668750000002,22.796981534691753L222.03293749999997,22.702434501608167L222.23978333333332,22.97795780280387L222.6808375,22.267793569107226L223.12170833333334,21.250361987612763L223.32892083333334,22.0395085766055L223.77006666666665,23.691732442993043L224.21020416666664,21.766863604326574L224.41686666666666,21.92568256510191L224.6231625,22.14403372303542L224.82867916666666,22.87939556611866L225.2639125,21.772160292248316L225.700475,20.7111201593693L225.90420416666666,24.161317105144292L226.33847500000002,21.814180362402965L226.54215833333333,21.57766672290282L226.977575,21.845939715200302L227.1809375,20.901786384509194L227.61690416666667,22.58242162061319L241.48909583333332,22.06071774924618L241.92084583333332,23.879717585367047L242.12173333333334,23.365070308600878L242.55504166666668,21.539942432567614L242.75698333333332,22.918670707282814L243.18983333333335,23.082437586577925L243.622225,22.156312372459382L244.05466249999998,21.75864097770736L244.25642083333335,21.154311408473376L244.45827083333333,22.361681065594695L244.65998333333334,20.83463745609464L245.0917333333333,21.317448631776102L245.52394166666667,22.089655864100166L245.72583749999998,20.493693102293093L246.15818333333334,20.90290560422892L246.36182083333335,22.021788301052908L246.56481666666667,23.013338655524564L247.0024791666667,21.265026858684365L247.44151666666667,22.57758895646046L247.6480875,22.247374757943703L247.86157916666664,21.669843434053405L248.303,20.51900853700306L248.5115416666667,22.79651928163102L248.72026666666667,22.56224333274608L248.9295875,23.39133085900187L249.13854166666667,22.358959391951316L249.58179583333333,22.5399277783724L249.78969583333333,21.567953972474925L250.2319875,23.410705898606068L250.4404375,22.803828253116762L250.64920833333332,22.492532293313843L250.85710833333331,22.102859262196233L251.29981249999997,21.73255694074828L251.7422875,20.989445588325793L252.08333333333331,20.624485852797932" style="fill: none;" fill="none"></path></g></g></g></g><g opacity="0.2"><g><g><g><path stroke="rgb(0, 119, 187)" stroke-width="2px" d="M27.874641666666665,129.98052846193315L28.304833333333335,129.56203018426896L28.5085625,131.35911040306092L28.93825,127.78956844210626L29.14303333333333,127.37107016444207L29.345983333333333,128.33115382790567L29.773241666666667,119.91196187138559L29.976375,123.456885355711L30.405420833333334,124.24464495778085L30.60919583333333,120.87204553484918L31.038058333333336,120.50278157293798L31.466004166666668,113.88066719770433L31.895920833333335,113.04367064237596L32.325379166666664,112.72364627122879L32.755204166666665,107.92322795391082L33.185854166666665,104.84603442549705L33.386741666666666,115.11154355406762L33.81294583333334,107.50472967624664L34.0143375,106.39694042801857L34.214675,109.69568969607353L34.63785416666666,101.5965221107006L35.05979583333333,105.63379930257797L35.260133333333336,101.69499074220657L35.6824875,100.41488270759582L35.88227500000001,98.02698014974594L36.30513333333334,99.01168228983879L36.503912500000006,94.13741381764412L36.7002625,96.22990520596504L37.122570833333334,101.74422769546509L37.5442375,96.59916653037071L67.05769583333334,55.537135291099545L67.47491666666666,60.60834102630615L67.67025833333334,61.37148742675781L68.0882125,55.167873966693875L68.28245416666667,57.875800895690915L68.47742916666667,54.67552553415298L68.67199166666667,56.05410747528076L122.54472083333333,42.61293618679048L122.97152083333333,38.871075439453136L123.17066666666666,39.65883504152299L123.36990416666667,38.649514424800884L123.79221249999999,42.7360232949257L123.99071666666667,40.421970891952526L124.41375833333333,43.523782896995556L124.83588333333333,41.579002368450176L125.03388333333334,43.917667973041546L125.23234166666667,40.421970891952526L125.42988333333334,42.21905111074449L125.62829583333333,39.33880012035371L159.35090416666668,38.89568864107133L159.53469583333336,40.66814510822297L159.93679166666666,38.255629348754894L160.12443333333334,38.920301842689526L160.31212083333332,41.20973049402238L160.71137499999998,37.517106699943554L161.11539583333334,34.90765367746354L161.5205625,35.6954132795334L161.70967083333332,38.00945513248445L161.89818333333332,42.095964002609264L162.08683333333332,38.2310161471367L162.27585,35.05535398721696L164.4370291666667,33.75062220096589L164.65794583333332,33.03671275377275L164.87822083333333,34.341444540023815L207.13151249999999,21.786506760120403L207.32891666666666,22.992764639854443L207.5282,21.811130511760723L215.625025,22.180391836166393L215.82912083333335,24.10055916309358L216.03523333333334,23.16508870124818L216.47459166666667,21.466482388973247L216.68052083333333,20.85104684829713L216.88667916666665,21.047984111309063L217.32585416666666,21.515719342231762L217.53114166666668,20.23560075759889L217.97027083333333,23.16508870124818L218.40990416666665,22.278855192661297L218.614825,20.949510204792034L218.82171666666667,22.155768084526073L219.02792083333333,21.76189355850221L219.47016666666667,18.635468351840984L219.67719583333331,22.50041620731355L219.88376666666667,21.712656605243694L220.32477500000002,21.638806450366985L220.53152916666667,21.29415832757951L220.97235416666666,21.835743713378918L221.412675,20.334074664115917L221.61997916666667,24.39597033262254L221.82668750000002,22.7219772219658L222.03293749999997,22.69735347032548L222.23978333333332,22.992764639854443L222.6808375,22.229628789424908L223.12170833333334,21.19568442106248L223.32892083333334,22.081917929649364L223.77006666666665,23.780524241924297L224.21020416666664,21.66341965198518L224.41686666666666,21.934217619895946L224.6231625,22.155768084526073L224.82867916666666,22.918914484977734L225.2639125,21.712656605243694L225.700475,20.654099035263073L225.90420416666666,24.346733379364025L226.33847500000002,21.6880434036255L226.54215833333333,21.564956295490276L226.977575,21.860356914997112L227.1809375,20.85104684829713L227.61690416666667,22.672740268707287L241.48909583333332,22.03268097639085L241.92084583333332,23.977472054958355L242.12173333333334,23.337412762641918L242.55504166666668,21.441858637332928L242.75698333333332,22.992764639854443L243.18983333333335,23.09123854637147L243.622225,22.106541681289684L244.05466249999998,21.73726980686189L244.25642083333335,21.121834266185772L244.45827083333333,22.42656605243684L244.65998333333334,20.7525729417801L245.0917333333333,21.343395280838024L245.52394166666667,22.13115488290788L245.72583749999998,20.407924818992626L246.15818333333334,20.92489700317384L246.36182083333335,22.081917929649364L246.56481666666667,23.066625344753277L247.0024791666667,21.171071219444286L247.44151666666667,22.648127067089092L247.6480875,22.229628789424908L247.86157916666664,21.638806450366985L248.303,20.45716177225114L248.5115416666667,22.918914484977734L248.72026666666667,22.549653160572063L248.9295875,23.435886669158947L249.13854166666667,22.303478944301617L249.58179583333333,22.549653160572063L249.78969583333333,21.515719342231762L250.2319875,23.509736824035656L250.4404375,22.771214175224316L250.64920833333332,22.475803005695354L250.85710833333331,22.081917929649364L251.29981249999997,21.712656605243694L251.7422875,20.949510204792034L252.08333333333331,20.604872632026684" style="fill: none;" fill="none"></path></g></g></g></g></g></g><g transform="translate(55, 177)" clip-path="url(#clip_1)"><clipPath id="clip_1"><rect width="275" height="23"></rect></clipPath><g><g><line x1="0" y1="0" x2="0" y2="5" style="visibility: inherit;" fill="rgb(0, 0, 0)" stroke="rgb(204, 204, 204)" stroke-width="1px"></line><line x1="22.916666666666664" y1="0" x2="22.916666666666664" y2="5" style="visibility: inherit;" fill="rgb(0, 0, 0)" stroke="rgb(204, 204, 204)" stroke-width="1px"></line><line x1="45.83333333333333" y1="0" x2="45.83333333333333" y2="5" style="visibility: inherit;" fill="rgb(0, 0, 0)" stroke="rgb(204, 204, 204)" stroke-width="1px"></line><line x1="68.75" y1="0" x2="68.75" y2="5" style="visibility: inherit;" fill="rgb(0, 0, 0)" stroke="rgb(204, 204, 204)" stroke-width="1px"></line><line x1="91.66666666666666" y1="0" x2="91.66666666666666" y2="5" style="visibility: inherit;" fill="rgb(0, 0, 0)" stroke="rgb(204, 204, 204)" stroke-width="1px"></line><line x1="114.58333333333334" y1="0" x2="114.58333333333334" y2="5" style="visibility: inherit;" fill="rgb(0, 0, 0)" stroke="rgb(204, 204, 204)" stroke-width="1px"></line><line x1="137.5" y1="0" x2="137.5" y2="5" style="visibility: inherit;" fill="rgb(0, 0, 0)" stroke="rgb(204, 204, 204)" stroke-width="1px"></line><line x1="160.41666666666669" y1="0" x2="160.41666666666669" y2="5" style="visibility: inherit;" fill="rgb(0, 0, 0)" stroke="rgb(204, 204, 204)" stroke-width="1px"></line><line x1="183.33333333333331" y1="0" x2="183.33333333333331" y2="5" style="visibility: inherit;" fill="rgb(0, 0, 0)" stroke="rgb(204, 204, 204)" stroke-width="1px"></line><line x1="206.25" y1="0" x2="206.25" y2="5" style="visibility: inherit;" fill="rgb(0, 0, 0)" stroke="rgb(204, 204, 204)" stroke-width="1px"></line><line x1="229.16666666666669" y1="0" x2="229.16666666666669" y2="5" style="visibility: inherit;" fill="rgb(0, 0, 0)" stroke="rgb(204, 204, 204)" stroke-width="1px"></line><line x1="252.08333333333331" y1="0" x2="252.08333333333331" y2="5" style="visibility: inherit;" fill="rgb(0, 0, 0)" stroke="rgb(204, 204, 204)" stroke-width="1px"></line><line x1="275" y1="0" x2="275" y2="5" style="visibility: inherit;" fill="rgb(0, 0, 0)" stroke="rgb(204, 204, 204)" stroke-width="1px"></line></g><g transform="translate(0, 8)"><text x="0" y="0" dx="0em" dy="0.95em" style="text-anchor: middle; visibility: hidden; font-family: &quot;Helvetica Neue&quot;, sans-serif; font-size: 12px; font-weight: 200;" fill="rgb(50, 49, 63)" stroke="none" stroke-width="1px">-500k</text><text x="22.916666666666664" y="0" dx="0em" dy="0.95em" style="text-anchor: middle; visibility: inherit; font-family: &quot;Helvetica Neue&quot;, sans-serif; font-size: 12px; font-weight: 200;" fill="rgb(50, 49, 63)" stroke="none" stroke-width="1px">0</text><text x="45.83333333333333" y="0" dx="0em" dy="0.95em" style="text-anchor: middle; visibility: hidden; font-family: &quot;Helvetica Neue&quot;, sans-serif; font-size: 12px; font-weight: 200;" fill="rgb(50, 49, 63)" stroke="none" stroke-width="1px">500k</text><text x="68.75" y="0" dx="0em" dy="0.95em" style="text-anchor: middle; visibility: inherit; font-family: &quot;Helvetica Neue&quot;, sans-serif; font-size: 12px; font-weight: 200;" fill="rgb(50, 49, 63)" stroke="none" stroke-width="1px">1M</text><text x="91.66666666666666" y="0" dx="0em" dy="0.95em" style="text-anchor: middle; visibility: hidden; font-family: &quot;Helvetica Neue&quot;, sans-serif; font-size: 12px; font-weight: 200;" fill="rgb(50, 49, 63)" stroke="none" stroke-width="1px">1.5M</text><text x="114.58333333333334" y="0" dx="0em" dy="0.95em" style="text-anchor: middle; visibility: inherit; font-family: &quot;Helvetica Neue&quot;, sans-serif; font-size: 12px; font-weight: 200;" fill="rgb(50, 49, 63)" stroke="none" stroke-width="1px">2M</text><text x="137.5" y="0" dx="0em" dy="0.95em" style="text-anchor: middle; visibility: hidden; font-family: &quot;Helvetica Neue&quot;, sans-serif; font-size: 12px; font-weight: 200;" fill="rgb(50, 49, 63)" stroke="none" stroke-width="1px">2.5M</text><text x="160.41666666666669" y="0" dx="0em" dy="0.95em" style="text-anchor: middle; visibility: inherit; font-family: &quot;Helvetica Neue&quot;, sans-serif; font-size: 12px; font-weight: 200;" fill="rgb(50, 49, 63)" stroke="none" stroke-width="1px">3M</text><text x="183.33333333333331" y="0" dx="0em" dy="0.95em" style="text-anchor: middle; visibility: hidden; font-family: &quot;Helvetica Neue&quot;, sans-serif; font-size: 12px; font-weight: 200;" fill="rgb(50, 49, 63)" stroke="none" stroke-width="1px">3.5M</text><text x="206.25" y="0" dx="0em" dy="0.95em" style="text-anchor: middle; visibility: inherit; font-family: &quot;Helvetica Neue&quot;, sans-serif; font-size: 12px; font-weight: 200;" fill="rgb(50, 49, 63)" stroke="none" stroke-width="1px">4M</text><text x="229.16666666666669" y="0" dx="0em" dy="0.95em" style="text-anchor: middle; visibility: hidden; font-family: &quot;Helvetica Neue&quot;, sans-serif; font-size: 12px; font-weight: 200;" fill="rgb(50, 49, 63)" stroke="none" stroke-width="1px">4.5M</text><text x="252.08333333333331" y="0" dx="0em" dy="0.95em" style="text-anchor: middle; visibility: inherit; font-family: &quot;Helvetica Neue&quot;, sans-serif; font-size: 12px; font-weight: 200;" fill="rgb(50, 49, 63)" stroke="none" stroke-width="1px">5M</text><text x="275" y="0" dx="0em" dy="0.95em" style="text-anchor: middle; visibility: hidden; font-family: &quot;Helvetica Neue&quot;, sans-serif; font-size: 12px; font-weight: 200;" fill="rgb(50, 49, 63)" stroke="none" stroke-width="1px">5.5M</text></g><line x1="0" y1="0" x2="275" y2="0" fill="rgb(0, 0, 0)" stroke="rgb(204, 204, 204)" stroke-width="1px"></line></g></g></g></g></svg>