<svg viewBox="0 0 330 200" xmlns="http://www.w3.org/2000/svg"><g><g><g><g><g><line x1="55" y1="164.69185588761312" x2="50" y2="164.69185588761312" style="visibility: inherit;" fill="rgb(0, 0, 0)" stroke="rgb(204, 204, 204)" stroke-width="1px"></line><line x1="55" y1="144.5596918643184" x2="50" y2="144.5596918643184" style="visibility: inherit;" fill="rgb(0, 0, 0)" stroke="rgb(204, 204, 204)" stroke-width="1px"></line><line x1="55" y1="124.42752784102372" x2="50" y2="124.42752784102372" style="visibility: inherit;" fill="rgb(0, 0, 0)" stroke="rgb(204, 204, 204)" stroke-width="1px"></line><line x1="55" y1="104.29536381772901" x2="50" y2="104.29536381772901" style="visibility: inherit;" fill="rgb(0, 0, 0)" stroke="rgb(204, 204, 204)" stroke-width="1px"></line><line x1="55" y1="84.16319979443433" x2="50" y2="84.16319979443433" style="visibility: inherit;" fill="rgb(0, 0, 0)" stroke="rgb(204, 204, 204)" stroke-width="1px"></line><line x1="55" y1="64.03103577113963" x2="50" y2="64.03103577113963" style="visibility: inherit;" fill="rgb(0, 0, 0)" stroke="rgb(204, 204, 204)" stroke-width="1px"></line><line x1="55" y1="43.89887174784491" x2="50" y2="43.89887174784491" style="visibility: inherit;" fill="rgb(0, 0, 0)" stroke="rgb(204, 204, 204)" stroke-width="1px"></line><line x1="55" y1="23.76670772455023" x2="50" y2="23.76670772455023" style="visibility: inherit;" fill="rgb(0, 0, 0)" stroke="rgb(204, 204, 204)" stroke-width="1px"></line><line x1="55" y1="3.6345437012555237" x2="50" y2="3.6345437012555237" style="visibility: inherit;" fill="rgb(0, 0, 0)" stroke="rgb(204, 204, 204)" stroke-width="1px"></line></g><g transform="translate(45, 0)"><text x="0" y="164.69185588761312" dx="0em" dy="0.3em" style="text-anchor: end; visibility: inherit; font-family: &quot;Helvetica Neue&quot;, sans-serif; font-size: 12px; font-weight: 200;" fill="rgb(50, 49, 63)" stroke="none" stroke-width="1px">0</text><text x="0" y="144.5596918643184" dx="0em" dy="0.3em" style="text-anchor: end; visibility: hidden; font-family: &quot;Helvetica Neue&quot;, sans-serif; font-size: 12px; font-weight: 200;" fill="rgb(50, 49, 63)" stroke="none" stroke-width="1px">2e-3</text><text x="0" y="124.42752784102372" dx="0em" dy="0.3em" style="text-anchor: end; visibility: inherit; font-family: &quot;Helvetica Neue&quot;, sans-serif; font-size: 12px; font-weight: 200;" fill="rgb(50, 49, 63)" stroke="none" stroke-width="1px">4e-3</text><text x="0" y="104.29536381772901" dx="0em" dy="0.3em" style="text-anchor: end; visibility: hidden; font-family: &quot;Helvetica Neue&quot;, sans-serif; font-size: 12px; font-weight: 200;" fill="rgb(50, 49, 63)" stroke="none" stroke-width="1px">6e-3</text><text x="0" y="84.16319979443433" dx="0em" dy="0.3em" style="text-anchor: end; visibility: inherit; font-family: &quot;Helvetica Neue&quot;, sans-serif; font-size: 12px; font-weight: 200;" fill="rgb(50, 49, 63)" stroke="none" stroke-width="1px">8e-3</text><text x="0" y="64.03103577113963" dx="0em" dy="0.3em" style="text-anchor: end; visibility: hidden; font-family: &quot;Helvetica Neue&quot;, sans-serif; font-size: 12px; font-weight: 200;" fill="rgb(50, 49, 63)" stroke="none" stroke-width="1px">0.01</text><text x="0" y="43.89887174784491" dx="0em" dy="0.3em" style="text-anchor: end; visibility: inherit; font-family: &quot;Helvetica Neue&quot;, sans-serif; font-size: 12px; font-weight: 200;" fill="rgb(50, 49, 63)" stroke="none" stroke-width="1px">0.012</text><text x="0" y="23.76670772455023" dx="0em" dy="0.3em" style="text-anchor: end; visibility: hidden; font-family: &quot;Helvetica Neue&quot;, sans-serif; font-size: 12px; font-weight: 200;" fill="rgb(50, 49, 63)" stroke="none" stroke-width="1px">0.014</text><text x="0" y="3.6345437012555237" dx="0em" dy="0.3em" style="text-anchor: end; visibility: hidden; font-family: &quot;Helvetica Neue&quot;, sans-serif; font-size: 12px; font-weight: 200;" fill="rgb(50, 49, 63)" stroke="none" stroke-width="1px">0.016</text></g><line x1="55" y1="0" x2="55" y2="177" fill="rgb(0, 0, 0)" stroke="rgb(204, 204, 204)" stroke-width="1px"></line></g></g><g transform="translate(55, 0)" clip-path="url(#clip_0)"><clipPath id="clip_0"><rect width="275" height="177"></rect></clipPath><g><g><g><line x1="13.139467289746873" y1="0" x2="13.139467289746873" y2="177" fill="rgb(0, 0, 0)" stroke="rgb(60, 60, 60)" stroke-width="1px" opacity="0.25"></line><line x1="35.29913088081481" y1="0" x2="35.29913088081481" y2="177" fill="rgb(0, 0, 0)" stroke="rgb(60, 60, 60)" stroke-width="1px" opacity="0.25"></line><line x1="57.45879447188274" y1="0" x2="57.45879447188274" y2="177" fill="rgb(0, 0, 0)" stroke="rgb(60, 60, 60)" stroke-width="1px" opacity="0.25"></line><line x1="79.61845806295068" y1="0" x2="79.61845806295068" y2="177" fill="rgb(0, 0, 0)" stroke="rgb(60, 60, 60)" stroke-width="1px" opacity="0.25"></line><line x1="101.7781216540186" y1="0" x2="101.7781216540186" y2="177" fill="rgb(0, 0, 0)" stroke="rgb(60, 60, 60)" stroke-width="1px" opacity="0.25"></line><line x1="123.93778524508654" y1="0" x2="123.93778524508654" y2="177" fill="rgb(0, 0, 0)" stroke="rgb(60, 60, 60)" stroke-width="1px" opacity="0.25"></line><line x1="146.09744883615448" y1="0" x2="146.09744883615448" y2="177" fill="rgb(0, 0, 0)" stroke="rgb(60, 60, 60)" stroke-width="1px" opacity="0.25"></line><line x1="168.2571124272224" y1="0" x2="168.2571124272224" y2="177" fill="rgb(0, 0, 0)" stroke="rgb(60, 60, 60)" stroke-width="1px" opacity="0.25"></line><line x1="190.41677601829036" y1="0" x2="190.41677601829036" y2="177" fill="rgb(0, 0, 0)" stroke="rgb(60, 60, 60)" stroke-width="1px" opacity="0.25"></line><line x1="212.5764396093583" y1="0" x2="212.5764396093583" y2="177" fill="rgb(0, 0, 0)" stroke="rgb(60, 60, 60)" stroke-width="1px" opacity="0.25"></line><line x1="234.73610320042624" y1="0" x2="234.73610320042624" y2="177" fill="rgb(0, 0, 0)" stroke="rgb(60, 60, 60)" stroke-width="1px" opacity="0.25"></line><line x1="256.89576679149417" y1="0" x2="256.89576679149417" y2="177" fill="rgb(0, 0, 0)" stroke="rgb(60, 60, 60)" stroke-width="1px" opacity="0.25"></line></g><g><line x1="0" y1="164.69185588761312" x2="275" y2="164.69185588761312" fill="rgb(0, 0, 0)" stroke="rgb(60, 60, 60)" stroke-width="1px" opacity="0.25"></line><line x1="0" y1="144.5596918643184" x2="275" y2="144.5596918643184" fill="rgb(0, 0, 0)" stroke="rgb(60, 60, 60)" stroke-width="1px" opacity="0.25"></line><line x1="0" y1="124.42752784102372" x2="275" y2="124.42752784102372" fill="rgb(0, 0, 0)" stroke="rgb(60, 60, 60)" stroke-width="1px" opacity="0.25"></line><line x1="0" y1="104.29536381772901" x2="275" y2="104.29536381772901" fill="rgb(0, 0, 0)" stroke="rgb(60, 60, 60)" stroke-width="1px" opacity="0.25"></line><line x1="0" y1="84.16319979443433" x2="275" y2="84.16319979443433" fill="rgb(0, 0, 0)" stroke="rgb(60, 60, 60)" stroke-width="1px" opacity="0.25"></line><line x1="0" y1="64.03103577113963" x2="275" y2="64.03103577113963" fill="rgb(0, 0, 0)" stroke="rgb(60, 60, 60)" stroke-width="1px" opacity="0.25"></line><line x1="0" y1="43.89887174784491" x2="275" y2="43.89887174784491" fill="rgb(0, 0, 0)" stroke="rgb(60, 60, 60)" stroke-width="1px" opacity="0.25"></line><line x1="0" y1="23.76670772455023" x2="275" y2="23.76670772455023" fill="rgb(0, 0, 0)" stroke="rgb(60, 60, 60)" stroke-width="1px" opacity="0.25"></line><line x1="0" y1="3.6345437012555237" x2="275" y2="3.6345437012555237" fill="rgb(0, 0, 0)" stroke="rgb(60, 60, 60)" stroke-width="1px" opacity="0.25"></line></g></g></g><g><g><line x1="0" y1="164.69185588761312" x2="275" y2="164.69185588761312" fill="rgb(0, 0, 0)" stroke="rgb(153, 153, 153)" stroke-width="1.5px"></line></g></g><g><g><line x1="13.139467289746873" y1="0" x2="13.139467289746873" y2="177" fill="rgb(0, 0, 0)" stroke="rgb(153, 153, 153)" stroke-width="1.5px"></line></g></g><g><g><g><g><g><path stroke="rgb(0, 119, 187)" stroke-width="2px" d="M17.933666188347242,164.69185588761312L18.34964739327877,164.69185588761312L18.546646802603362,164.69185588761312L18.962140494935888,164.69185588761312L19.160159248785668,164.69185588761312L19.356405229548166,164.69185588761312L19.769549997540036,155.233725060223L19.96597325561126,164.20949121582703L20.38084647736324,164.6672552893531L20.577890206015013,164.69060125710186L20.992586150458255,155.2336610825547L21.40639570835786,151.59864686068542L21.82211099732629,159.29503681778866L22.237383093022906,158.53294188697924L22.65300974333698,123.84290427138124L23.069434141540327,161.66274631499815L23.263685752579626,161.14818262291607L23.675811176046306,162.11918747287626L23.870550299684613,154.50473263367158L24.06427007879773,161.10136927143682L24.47347042667039,139.60232969132903L24.88147415270913,146.52803024462239L25.07519393182225,163.11588772794073L25.48359653180563,156.02257457440135L25.676784478992563,157.36935614542358L26.085674591574946,156.45191772969287L26.277887513563872,111.34238659223236L26.46775151121214,141.32528582109094L26.87610979186834,162.19770327812563L27.28384760194399,160.88080372718508L55.822391954336744,148.23237518948727L56.225830789675726,144.1214427724686L56.41471976212598,128.97672606402224L56.818867706699876,142.85712711161528L57.00669301529777,124.5878260566019L57.19522743313058,134.1516949607485L57.38336297701875,71.28280054050755L109.47652174353716,113.85935574849131L109.88922331825721,59.461549707252914L110.0817907948636,49.70352884812151L110.27444691012434,35.22419632233755L110.68280519078053,59.29623799550073L110.87475219680637,52.539670312997714L111.28381958669749,101.89265638648672L111.69200059004496,85.18766344896954L111.88346008347179,90.98244956925232L112.07536277017043,116.4890165476845L112.26637907032544,122.80971408886009L112.45823743769691,67.46829869553247L145.0668915211883,104.08912269663223L145.24461202318867,96.11218093337158L145.63342548055752,66.04852257990444L145.81486880604118,39.21569469866819L145.99635645085203,77.61172381402702L146.38242210993562,71.57022599929965L146.77309697904613,65.78890452508173L147.16487983133624,84.83803885830791L147.3477413752897,60.22427398099518L147.53002676798985,57.10570078620053L147.71244511867152,35.997332494634264L147.89521802397064,28.70987210273816L149.98500725858992,58.83082451735851L150.1986264156078,81.38974714920595L150.41162510204512,39.42361337250176L191.2691696379844,60.57241100934816L191.46005298015783,69.48813528680485L191.65275341474575,78.29882581106995L199.48211711608752,55.80608795249408L199.67947108002954,14.723425666092908L199.87877509436763,84.7975022264421L200.3036201647356,70.07748638749699L200.50274690176494,79.57750172142516L200.70209523543016,48.166031063773374L201.1267630284894,78.16873208008323L201.32526929493818,77.57289818232223L201.74989276867024,76.7805031554749L202.17500375500128,77.91009915936158L202.3731554668326,72.33789563124108L202.57321290973275,87.2095451536368L202.7726055627252,91.75089307159605L203.20024275070563,69.52076255198156L203.40043315158732,47.68459594236725L203.6001803591972,80.30337065264253L204.02662092534374,75.97613341423931L204.22654541026233,92.42660807710669L204.65280869910012,81.06295981331388L205.0785844753389,78.7880135711785L205.2790407921837,65.0894930201299L205.47892095777513,83.02590235980503L205.67835793009473,73.94424290783823L205.8783710536677,65.33027327104159L206.30485593914142,71.26882238840633L206.73116354730638,48.18868703803594L206.93153122549683,68.79694887123794L207.35810474962489,72.07149370928505L207.78370324855493,66.74454340815811L207.98353909481918,63.47869930703919L208.18302038646598,67.4150833594456L208.3817482495507,81.46680273556065L208.80260458047223,74.07005475486905L209.2247461718821,94.3427647378622L209.4217455812067,67.4321202092284L209.8416712062574,50.91821798398922L210.03862629625482,60.839637340716266L210.4596599044851,63.041848400959424L210.65630475919224,52.01624157287098L211.07787019934872,67.65396361392277L224.49182368025706,97.20597396066013L224.90931174231278,94.37481000268126L225.1035633533521,92.42848300244444L225.52255827253197,92.46650462687177L225.7178292280965,70.96575955364492L226.13638095400458,86.57498441280163L226.55448948664085,73.20708448529255L226.9726423386043,80.69554799416636L227.16773601686006,82.67189166286859L227.36291833377018,89.3004954503186L227.55796769269878,93.28550268111056L227.97545575475448,99.3369594349726L228.39338701008202,83.99622761908314L228.58861364631932,93.81443854562045L229.0066778596284,99.50425767358585L229.20358863029864,89.70575489962889L229.39987893038833,101.95787545374746L229.82308418565054,88.69576949335226L230.24761902072822,91.17098915949742L230.4473662283381,94.56492714066668L230.6538056543525,96.00445253591704L231.08064509444364,78.41253882809568L231.28229803312237,89.03579145006626L231.48412824910983,86.50063320897131L231.68653461635063,91.66647865099577L231.88858642897398,78.73984328975861L232.31719864215245,77.44389568715778L232.51823111025058,94.60991808660937L232.94591261755818,82.14318117124564L233.14747691758257,87.64119498186173L233.34935145289717,74.48581015048858L233.55038392099536,104.19172623188781L233.9784643022476,92.9061478739211L234.40632308686395,90.3804096540938L234.73610320042624,72.46404079104057" style="fill: none;" fill="none"></path></g></g></g></g><g opacity="0.2"><g><g><g><path stroke="rgb(0, 119, 187)" stroke-width="2px" d="M17.933666188347242,164.69185588761312L18.34964739327877,164.69185588761312L18.546646802603362,164.69185588761312L18.962140494935888,164.69185588761312L19.160159248785668,164.69185588761312L19.356405229548166,164.69185588761312L19.769549997540036,154.72543774335358L19.96597325561126,164.69185588761312L20.38084647736324,164.69185588761312L20.577890206015013,164.69185588761312L20.992586150458255,154.72543774335358L21.40639570835786,151.40329836193374L21.82211099732629,159.70864681548335L22.237383093022906,158.49198631114015L22.65300974333698,121.9786345997316L23.069434141540327,163.6952141171314L23.263685752579626,161.1205295688632L23.675811176046306,162.17137003067182L23.870550299684613,154.09552589310317L24.06427007879773,161.45587766819767L24.47347042667039,138.44695454002712L24.88147415270913,146.90022279279728L25.07519393182225,164.00733212377764L25.48359653180563,155.64137439439028L25.676784478992563,157.4417332372277L26.085674591574946,156.40261387384223L26.277887513563872,108.91816521392838L26.46775151121214,142.93659020536046L26.87610979186834,163.3194032679136L27.28384760194399,160.81003251844118L55.822391954336744,147.5526387770293L56.225830789675726,143.90051805880375L56.41471976212598,128.1628371787422L56.818867706699876,143.60307068740792L57.00669301529777,123.6060195720859L57.19522743313058,134.66566473325796L57.38336297701875,67.90417713120061L109.47652174353716,116.14745302521119L109.88922331825721,56.5381691929187L110.0817907948636,49.17912519815765L110.27444691012434,34.44606570187918L110.68280519078053,60.589888285628575L110.87475219680637,52.17656709718351L111.28381958669749,104.544924341964L111.69200059004496,84.28992410248549L111.88346008347179,91.29386589394613L112.07536277017043,117.85975934631468L112.26637907032544,123.14939330340167L112.45823743769691,64.49420787882045L145.0668915211883,106.0571543342045L145.24461202318867,95.6834938628486L145.63342548055752,64.43287813730504L145.81486880604118,37.77367760494525L145.99635645085203,79.67515635868801L146.38242210993562,71.24555119576846L146.77309697904613,65.47821180096676L147.16487983133624,85.86175419128425L147.3477413752897,58.90151106345783L147.53002676798985,56.93810623094814L147.71244511867152,34.8629523230116L147.89521802397064,28.318238298747957L149.98500725858992,60.44954798748036L150.1986264156078,82.60208124217141L150.41162510204512,37.16832061948605L191.2691696379844,61.70896388551165L191.46005298015783,69.96727326167343L191.65275341474575,78.77231919014004L199.48211711608752,54.597310680853L199.67947108002954,12.515611359869013L199.87877509436763,88.5633377423302L200.3036201647356,69.28642125811217L200.50274690176494,80.08803995328009L200.70209523543016,46.47795413696596L201.1267630284894,79.7811006278512L201.32526929493818,77.54087760404424L201.74989276867024,76.7379192288477L202.17500375500128,77.97080452943348L202.3731554668326,72.03844106861288L202.57321290973275,88.00875919540938L202.7726055627252,91.99494864990577L203.20024275070563,68.3260980035091L203.40043315158732,46.51110332161875L203.6001803591972,82.05632904065519L204.02662092534374,75.74358431080564L204.22654541026233,93.31066941304582L204.65280869910012,80.45226849460636L205.0785844753389,78.66575618619544L205.2790407921837,64.35332384404614L205.47892095777513,83.9898189839604L205.67835793009473,73.4561874473005L205.8783710536677,64.86735182586074L206.30485593914142,71.58796464866514L206.73116354730638,46.94834256715197L206.93153122549683,69.90445293182097L207.35810474962489,72.24747030226756L207.78370324855493,66.45826894518922L207.98353909481918,63.30319029844374L208.18302038646598,67.62662770788893L208.3817482495507,82.22195309191666L208.80260458047223,73.672547750638L209.2247461718821,95.43223598036234L209.4217455812067,65.98592118819538L209.8416712062574,50.03074800138941L210.03862629625482,61.37282215335385L210.4596599044851,63.16019694055099L210.65630475919224,51.42371686451219L211.07787019934872,68.4943469902069L224.49182368025706,98.79412204041104L224.90931174231278,94.22266104392791L225.1035633533521,92.32388587176784L225.52255827253197,92.46854793861654L225.7178292280965,69.81029274781291L226.13638095400458,87.4138363283095L226.55448948664085,72.48868311932524L226.9726423386043,81.09798386239876L227.16773601686006,82.77810191271455L227.36291833377018,89.65672178663044L227.55796769269878,93.49966007707513L227.97545575475448,99.66216943965854L228.39338701008202,83.17180472908277L228.58861364631932,94.342076856741L229.0066778596284,99.81003299026258L229.20358863029864,89.1791757199958L229.39987893038833,102.61631396613949L229.82308418565054,87.98305357767244L230.24761902072822,91.30400939445359L230.4473662283381,94.74732001425953L230.6538056543525,96.08181375315388L231.08064509444364,77.46713566782287L231.28229803312237,89.60669332964528L231.48412824910983,86.36439182825914L231.68653461635063,91.94409521321205L231.88858642897398,78.04515582566682L232.31719864215245,77.3742504524553L232.51823111025058,95.5324335158739L232.94591261755818,81.47320900824927L233.14747691758257,87.93666253122043L233.34935145289717,73.77882951150013L233.55038392099536,105.78814532583023L233.9784643022476,92.29965209282909L234.40632308686395,90.24467451266999L234.73610320042624,71.50120115772582" style="fill: none;" fill="none"></path></g></g></g></g></g></g><g transform="translate(55, 177)" clip-path="url(#clip_1)"><clipPath id="clip_1"><rect width="275" height="23"></rect></clipPath><g><g><line x1="13.139467289746873" y1="0" x2="13.139467289746873" y2="5" style="visibility: inherit;" fill="rgb(0, 0, 0)" stroke="rgb(204, 204, 204)" stroke-width="1px"></line><line x1="35.29913088081481" y1="0" x2="35.29913088081481" y2="5" style="visibility: inherit;" fill="rgb(0, 0, 0)" stroke="rgb(204, 204, 204)" stroke-width="1px"></line><line x1="57.45879447188274" y1="0" x2="57.45879447188274" y2="5" style="visibility: inherit;" fill="rgb(0, 0, 0)" stroke="rgb(204, 204, 204)" stroke-width="1px"></line><line x1="79.61845806295068" y1="0" x2="79.61845806295068" y2="5" style="visibility: inherit;" fill="rgb(0, 0, 0)" stroke="rgb(204, 204, 204)" stroke-width="1px"></line><line x1="101.7781216540186" y1="0" x2="101.7781216540186" y2="5" style="visibility: inherit;" fill="rgb(0, 0, 0)" stroke="rgb(204, 204, 204)" stroke-width="1px"></line><line x1="123.93778524508654" y1="0" x2="123.93778524508654" y2="5" style="visibility: inherit;" fill="rgb(0, 0, 0)" stroke="rgb(204, 204, 204)" stroke-width="1px"></line><line x1="146.09744883615448" y1="0" x2="146.09744883615448" y2="5" style="visibility: inherit;" fill="rgb(0, 0, 0)" stroke="rgb(204, 204, 204)" stroke-width="1px"></line><line x1="168.2571124272224" y1="0" x2="168.2571124272224" y2="5" style="visibility: inherit;" fill="rgb(0, 0, 0)" stroke="rgb(204, 204, 204)" stroke-width="1px"></line><line x1="190.41677601829036" y1="0" x2="190.41677601829036" y2="5" style="visibility: inherit;" fill="rgb(0, 0, 0)" stroke="rgb(204, 204, 204)" stroke-width="1px"></line><line x1="212.5764396093583" y1="0" x2="212.5764396093583" y2="5" style="visibility: inherit;" fill="rgb(0, 0, 0)" stroke="rgb(204, 204, 204)" stroke-width="1px"></line><line x1="234.73610320042624" y1="0" x2="234.73610320042624" y2="5" style="visibility: inherit;" fill="rgb(0, 0, 0)" stroke="rgb(204, 204, 204)" stroke-width="1px"></line><line x1="256.89576679149417" y1="0" x2="256.89576679149417" y2="5" style="visibility: inherit;" fill="rgb(0, 0, 0)" stroke="rgb(204, 204, 204)" stroke-width="1px"></line></g><g transform="translate(0, 8)"><text x="13.139467289746873" y="0" dx="0em" dy="0.95em" style="text-anchor: middle; visibility: inherit; font-family: &quot;Helvetica Neue&quot;, sans-serif; font-size: 12px; font-weight: 200;" fill="rgb(50, 49, 63)" stroke="none" stroke-width="1px">0</text><text x="35.29913088081481" y="0" dx="0em" dy="0.95em" style="text-anchor: middle; visibility: hidden; font-family: &quot;Helvetica Neue&quot;, sans-serif; font-size: 12px; font-weight: 200;" fill="rgb(50, 49, 63)" stroke="none" stroke-width="1px">500k</text><text x="57.45879447188274" y="0" dx="0em" dy="0.95em" style="text-anchor: middle; visibility: inherit; font-family: &quot;Helvetica Neue&quot;, sans-serif; font-size: 12px; font-weight: 200;" fill="rgb(50, 49, 63)" stroke="none" stroke-width="1px">1M</text><text x="79.61845806295068" y="0" dx="0em" dy="0.95em" style="text-anchor: middle; visibility: hidden; font-family: &quot;Helvetica Neue&quot;, sans-serif; font-size: 12px; font-weight: 200;" fill="rgb(50, 49, 63)" stroke="none" stroke-width="1px">1.5M</text><text x="101.7781216540186" y="0" dx="0em" dy="0.95em" style="text-anchor: middle; visibility: inherit; font-family: &quot;Helvetica Neue&quot;, sans-serif; font-size: 12px; font-weight: 200;" fill="rgb(50, 49, 63)" stroke="none" stroke-width="1px">2M</text><text x="123.93778524508654" y="0" dx="0em" dy="0.95em" style="text-anchor: middle; visibility: hidden; font-family: &quot;Helvetica Neue&quot;, sans-serif; font-size: 12px; font-weight: 200;" fill="rgb(50, 49, 63)" stroke="none" stroke-width="1px">2.5M</text><text x="146.09744883615448" y="0" dx="0em" dy="0.95em" style="text-anchor: middle; visibility: inherit; font-family: &quot;Helvetica Neue&quot;, sans-serif; font-size: 12px; font-weight: 200;" fill="rgb(50, 49, 63)" stroke="none" stroke-width="1px">3M</text><text x="168.2571124272224" y="0" dx="0em" dy="0.95em" style="text-anchor: middle; visibility: hidden; font-family: &quot;Helvetica Neue&quot;, sans-serif; font-size: 12px; font-weight: 200;" fill="rgb(50, 49, 63)" stroke="none" stroke-width="1px">3.5M</text><text x="190.41677601829036" y="0" dx="0em" dy="0.95em" style="text-anchor: middle; visibility: inherit; font-family: &quot;Helvetica Neue&quot;, sans-serif; font-size: 12px; font-weight: 200;" fill="rgb(50, 49, 63)" stroke="none" stroke-width="1px">4M</text><text x="212.5764396093583" y="0" dx="0em" dy="0.95em" style="text-anchor: middle; visibility: hidden; font-family: &quot;Helvetica Neue&quot;, sans-serif; font-size: 12px; font-weight: 200;" fill="rgb(50, 49, 63)" stroke="none" stroke-width="1px">4.5M</text><text x="234.73610320042624" y="0" dx="0em" dy="0.95em" style="text-anchor: middle; visibility: inherit; font-family: &quot;Helvetica Neue&quot;, sans-serif; font-size: 12px; font-weight: 200;" fill="rgb(50, 49, 63)" stroke="none" stroke-width="1px">5M</text><text x="256.89576679149417" y="0" dx="0em" dy="0.95em" style="text-anchor: middle; visibility: hidden; font-family: &quot;Helvetica Neue&quot;, sans-serif; font-size: 12px; font-weight: 200;" fill="rgb(50, 49, 63)" stroke="none" stroke-width="1px">5.5M</text></g><line x1="0" y1="0" x2="275" y2="0" fill="rgb(0, 0, 0)" stroke="rgb(204, 204, 204)" stroke-width="1px"></line></g></g></g></g></svg>