<svg viewBox="0 0 330 200" xmlns="http://www.w3.org/2000/svg"><g><g><g><g><g><line x1="55" y1="177" x2="50" y2="177" style="visibility: inherit;" fill="rgb(0, 0, 0)" stroke="rgb(204, 204, 204)" stroke-width="1px"></line><line x1="55" y1="163.3846153846154" x2="50" y2="163.3846153846154" style="visibility: inherit;" fill="rgb(0, 0, 0)" stroke="rgb(204, 204, 204)" stroke-width="1px"></line><line x1="55" y1="149.76923076923077" x2="50" y2="149.76923076923077" style="visibility: inherit;" fill="rgb(0, 0, 0)" stroke="rgb(204, 204, 204)" stroke-width="1px"></line><line x1="55" y1="136.15384615384616" x2="50" y2="136.15384615384616" style="visibility: inherit;" fill="rgb(0, 0, 0)" stroke="rgb(204, 204, 204)" stroke-width="1px"></line><line x1="55" y1="122.53846153846153" x2="50" y2="122.53846153846153" style="visibility: inherit;" fill="rgb(0, 0, 0)" stroke="rgb(204, 204, 204)" stroke-width="1px"></line><line x1="55" y1="108.92307692307692" x2="50" y2="108.92307692307692" style="visibility: inherit;" fill="rgb(0, 0, 0)" stroke="rgb(204, 204, 204)" stroke-width="1px"></line><line x1="55" y1="95.3076923076923" x2="50" y2="95.3076923076923" style="visibility: inherit;" fill="rgb(0, 0, 0)" stroke="rgb(204, 204, 204)" stroke-width="1px"></line><line x1="55" y1="81.6923076923077" x2="50" y2="81.6923076923077" style="visibility: inherit;" fill="rgb(0, 0, 0)" stroke="rgb(204, 204, 204)" stroke-width="1px"></line><line x1="55" y1="68.07692307692307" x2="50" y2="68.07692307692307" style="visibility: inherit;" fill="rgb(0, 0, 0)" stroke="rgb(204, 204, 204)" stroke-width="1px"></line><line x1="55" y1="54.46153846153847" x2="50" y2="54.46153846153847" style="visibility: inherit;" fill="rgb(0, 0, 0)" stroke="rgb(204, 204, 204)" stroke-width="1px"></line><line x1="55" y1="40.84615384615387" x2="50" y2="40.84615384615387" style="visibility: inherit;" fill="rgb(0, 0, 0)" stroke="rgb(204, 204, 204)" stroke-width="1px"></line><line x1="55" y1="27.230769230769226" x2="50" y2="27.230769230769226" style="visibility: inherit;" fill="rgb(0, 0, 0)" stroke="rgb(204, 204, 204)" stroke-width="1px"></line><line x1="55" y1="13.615384615384613" x2="50" y2="13.615384615384613" style="visibility: inherit;" fill="rgb(0, 0, 0)" stroke="rgb(204, 204, 204)" stroke-width="1px"></line><line x1="55" y1="0" x2="50" y2="0" style="visibility: inherit;" fill="rgb(0, 0, 0)" stroke="rgb(204, 204, 204)" stroke-width="1px"></line></g><g transform="translate(45, 0)"><text x="0" y="177" dx="0em" dy="0.3em" style="text-anchor: end; visibility: hidden; font-family: &quot;Helvetica Neue&quot;, sans-serif; font-size: 12px; font-weight: 200;" fill="rgb(50, 49, 63)" stroke="none" stroke-width="1px">-0.02</text><text x="0" y="163.3846153846154" dx="0em" dy="0.3em" style="text-anchor: end; visibility: inherit; font-family: &quot;Helvetica Neue&quot;, sans-serif; font-size: 12px; font-weight: 200;" fill="rgb(50, 49, 63)" stroke="none" stroke-width="1px">0</text><text x="0" y="149.76923076923077" dx="0em" dy="0.3em" style="text-anchor: end; visibility: hidden; font-family: &quot;Helvetica Neue&quot;, sans-serif; font-size: 12px; font-weight: 200;" fill="rgb(50, 49, 63)" stroke="none" stroke-width="1px">0.02</text><text x="0" y="136.15384615384616" dx="0em" dy="0.3em" style="text-anchor: end; visibility: inherit; font-family: &quot;Helvetica Neue&quot;, sans-serif; font-size: 12px; font-weight: 200;" fill="rgb(50, 49, 63)" stroke="none" stroke-width="1px">0.04</text><text x="0" y="122.53846153846153" dx="0em" dy="0.3em" style="text-anchor: end; visibility: hidden; font-family: &quot;Helvetica Neue&quot;, sans-serif; font-size: 12px; font-weight: 200;" fill="rgb(50, 49, 63)" stroke="none" stroke-width="1px">0.06</text><text x="0" y="108.92307692307692" dx="0em" dy="0.3em" style="text-anchor: end; visibility: inherit; font-family: &quot;Helvetica Neue&quot;, sans-serif; font-size: 12px; font-weight: 200;" fill="rgb(50, 49, 63)" stroke="none" stroke-width="1px">0.08</text><text x="0" y="95.3076923076923" dx="0em" dy="0.3em" style="text-anchor: end; visibility: hidden; font-family: &quot;Helvetica Neue&quot;, sans-serif; font-size: 12px; font-weight: 200;" fill="rgb(50, 49, 63)" stroke="none" stroke-width="1px">0.1</text><text x="0" y="81.6923076923077" dx="0em" dy="0.3em" style="text-anchor: end; visibility: inherit; font-family: &quot;Helvetica Neue&quot;, sans-serif; font-size: 12px; font-weight: 200;" fill="rgb(50, 49, 63)" stroke="none" stroke-width="1px">0.12</text><text x="0" y="68.07692307692307" dx="0em" dy="0.3em" style="text-anchor: end; visibility: hidden; font-family: &quot;Helvetica Neue&quot;, sans-serif; font-size: 12px; font-weight: 200;" fill="rgb(50, 49, 63)" stroke="none" stroke-width="1px">0.14</text><text x="0" y="54.46153846153847" dx="0em" dy="0.3em" style="text-anchor: end; visibility: inherit; font-family: &quot;Helvetica Neue&quot;, sans-serif; font-size: 12px; font-weight: 200;" fill="rgb(50, 49, 63)" stroke="none" stroke-width="1px">0.16</text><text x="0" y="40.84615384615387" dx="0em" dy="0.3em" style="text-anchor: end; visibility: hidden; font-family: &quot;Helvetica Neue&quot;, sans-serif; font-size: 12px; font-weight: 200;" fill="rgb(50, 49, 63)" stroke="none" stroke-width="1px">0.18</text><text x="0" y="27.230769230769226" dx="0em" dy="0.3em" style="text-anchor: end; visibility: inherit; font-family: &quot;Helvetica Neue&quot;, sans-serif; font-size: 12px; font-weight: 200;" fill="rgb(50, 49, 63)" stroke="none" stroke-width="1px">0.2</text><text x="0" y="13.615384615384613" dx="0em" dy="0.3em" style="text-anchor: end; visibility: hidden; font-family: &quot;Helvetica Neue&quot;, sans-serif; font-size: 12px; font-weight: 200;" fill="rgb(50, 49, 63)" stroke="none" stroke-width="1px">0.22</text><text x="0" y="0" dx="0em" dy="0.3em" style="text-anchor: end; visibility: hidden; font-family: &quot;Helvetica Neue&quot;, sans-serif; font-size: 12px; font-weight: 200;" fill="rgb(50, 49, 63)" stroke="none" stroke-width="1px">0.24</text></g><line x1="55" y1="0" x2="55" y2="177" fill="rgb(0, 0, 0)" stroke="rgb(204, 204, 204)" stroke-width="1px"></line></g></g><g transform="translate(55, 0)" clip-path="url(#clip_0)"><clipPath id="clip_0"><rect width="275" height="177"></rect></clipPath><g><g><g><line x1="0" y1="0" x2="0" y2="177" fill="rgb(0, 0, 0)" stroke="rgb(60, 60, 60)" stroke-width="1px" opacity="0.25"></line><line x1="22.916666666666664" y1="0" x2="22.916666666666664" y2="177" fill="rgb(0, 0, 0)" stroke="rgb(60, 60, 60)" stroke-width="1px" opacity="0.25"></line><line x1="45.83333333333333" y1="0" x2="45.83333333333333" y2="177" fill="rgb(0, 0, 0)" stroke="rgb(60, 60, 60)" stroke-width="1px" opacity="0.25"></line><line x1="68.75" y1="0" x2="68.75" y2="177" fill="rgb(0, 0, 0)" stroke="rgb(60, 60, 60)" stroke-width="1px" opacity="0.25"></line><line x1="91.66666666666666" y1="0" x2="91.66666666666666" y2="177" fill="rgb(0, 0, 0)" stroke="rgb(60, 60, 60)" stroke-width="1px" opacity="0.25"></line><line x1="114.58333333333334" y1="0" x2="114.58333333333334" y2="177" fill="rgb(0, 0, 0)" stroke="rgb(60, 60, 60)" stroke-width="1px" opacity="0.25"></line><line x1="137.5" y1="0" x2="137.5" y2="177" fill="rgb(0, 0, 0)" stroke="rgb(60, 60, 60)" stroke-width="1px" opacity="0.25"></line><line x1="160.41666666666669" y1="0" x2="160.41666666666669" y2="177" fill="rgb(0, 0, 0)" stroke="rgb(60, 60, 60)" stroke-width="1px" opacity="0.25"></line><line x1="183.33333333333331" y1="0" x2="183.33333333333331" y2="177" fill="rgb(0, 0, 0)" stroke="rgb(60, 60, 60)" stroke-width="1px" opacity="0.25"></line><line x1="206.25" y1="0" x2="206.25" y2="177" fill="rgb(0, 0, 0)" stroke="rgb(60, 60, 60)" stroke-width="1px" opacity="0.25"></line><line x1="229.16666666666669" y1="0" x2="229.16666666666669" y2="177" fill="rgb(0, 0, 0)" stroke="rgb(60, 60, 60)" stroke-width="1px" opacity="0.25"></line><line x1="252.08333333333331" y1="0" x2="252.08333333333331" y2="177" fill="rgb(0, 0, 0)" stroke="rgb(60, 60, 60)" stroke-width="1px" opacity="0.25"></line><line x1="275" y1="0" x2="275" y2="177" fill="rgb(0, 0, 0)" stroke="rgb(60, 60, 60)" stroke-width="1px" opacity="0.25"></line></g><g><line x1="0" y1="177" x2="275" y2="177" fill="rgb(0, 0, 0)" stroke="rgb(60, 60, 60)" stroke-width="1px" opacity="0.25"></line><line x1="0" y1="163.3846153846154" x2="275" y2="163.3846153846154" fill="rgb(0, 0, 0)" stroke="rgb(60, 60, 60)" stroke-width="1px" opacity="0.25"></line><line x1="0" y1="149.76923076923077" x2="275" y2="149.76923076923077" fill="rgb(0, 0, 0)" stroke="rgb(60, 60, 60)" stroke-width="1px" opacity="0.25"></line><line x1="0" y1="136.15384615384616" x2="275" y2="136.15384615384616" fill="rgb(0, 0, 0)" stroke="rgb(60, 60, 60)" stroke-width="1px" opacity="0.25"></line><line x1="0" y1="122.53846153846153" x2="275" y2="122.53846153846153" fill="rgb(0, 0, 0)" stroke="rgb(60, 60, 60)" stroke-width="1px" opacity="0.25"></line><line x1="0" y1="108.92307692307692" x2="275" y2="108.92307692307692" fill="rgb(0, 0, 0)" stroke="rgb(60, 60, 60)" stroke-width="1px" opacity="0.25"></line><line x1="0" y1="95.3076923076923" x2="275" y2="95.3076923076923" fill="rgb(0, 0, 0)" stroke="rgb(60, 60, 60)" stroke-width="1px" opacity="0.25"></line><line x1="0" y1="81.6923076923077" x2="275" y2="81.6923076923077" fill="rgb(0, 0, 0)" stroke="rgb(60, 60, 60)" stroke-width="1px" opacity="0.25"></line><line x1="0" y1="68.07692307692307" x2="275" y2="68.07692307692307" fill="rgb(0, 0, 0)" stroke="rgb(60, 60, 60)" stroke-width="1px" opacity="0.25"></line><line x1="0" y1="54.46153846153847" x2="275" y2="54.46153846153847" fill="rgb(0, 0, 0)" stroke="rgb(60, 60, 60)" stroke-width="1px" opacity="0.25"></line><line x1="0" y1="40.84615384615387" x2="275" y2="40.84615384615387" fill="rgb(0, 0, 0)" stroke="rgb(60, 60, 60)" stroke-width="1px" opacity="0.25"></line><line x1="0" y1="27.230769230769226" x2="275" y2="27.230769230769226" fill="rgb(0, 0, 0)" stroke="rgb(60, 60, 60)" stroke-width="1px" opacity="0.25"></line><line x1="0" y1="13.615384615384613" x2="275" y2="13.615384615384613" fill="rgb(0, 0, 0)" stroke="rgb(60, 60, 60)" stroke-width="1px" opacity="0.25"></line><line x1="0" y1="0" x2="275" y2="0" fill="rgb(0, 0, 0)" stroke="rgb(60, 60, 60)" stroke-width="1px" opacity="0.25"></line></g></g></g><g><g><line x1="0" y1="163.3846153846154" x2="275" y2="163.3846153846154" fill="rgb(0, 0, 0)" stroke="rgb(153, 153, 153)" stroke-width="1.5px"></line></g></g><g><g><line x1="22.916666666666664" y1="0" x2="22.916666666666664" y2="177" fill="rgb(0, 0, 0)" stroke="rgb(153, 153, 153)" stroke-width="1.5px"></line></g></g><g><g><g><g><g><path stroke="rgb(0, 119, 187)" stroke-width="2px" d="M27.874641666666665,155.91935505918585L28.304833333333335,160.8074439831486L28.5085625,162.1411592547036L28.93825,155.83240430114475L29.14303333333333,160.6285647891328L29.345983333333333,160.66384733102012L29.773241666666667,161.32993891039143L29.976375,158.13754199872275L30.405420833333334,160.2564657684147L30.60919583333333,154.85544805140964L31.038058333333336,158.82840576465054L31.466004166666668,156.0319533312173L31.895920833333335,159.02939762573442L32.325379166666664,156.8686873084755L32.755204166666665,157.8060543176173L33.185854166666665,156.4709342789476L33.386741666666666,159.19619329367458L33.81294583333334,152.7659675271803L34.0143375,156.49116669628185L34.214675,155.98684874091674L34.63785416666666,153.53176708383418L35.05979583333333,155.7907403415586L35.260133333333336,154.90044705418632L35.6824875,151.21712023310852L35.88227500000001,150.96072346140016L36.30513333333334,152.54140740195288L36.503912500000006,154.60872704985766L36.7002625,152.62614695343976L37.122570833333334,154.09647438457404L37.5442375,152.38702340136166L67.05769583333334,120.00915191690842L67.47491666666666,120.90346982490428L67.67025833333334,123.7376281592546L68.0882125,112.87047023928048L68.28245416666667,128.13815091807544L68.47742916666667,117.66994887560311L68.67199166666667,127.87982278593586L122.54472083333333,91.29963955689907L122.97152083333333,99.0575037864733L123.17066666666666,93.5421593873513L123.36990416666667,97.34746495016212L123.79221249999999,111.00053668943562L123.99071666666667,96.53378547511302L124.41375833333333,103.4716298472372L124.83588333333333,99.47454130838969L125.03388333333334,99.77122095448497L125.23234166666667,97.54248600503166L125.42988333333334,83.0698105626883L125.62829583333333,98.64328427836922L159.35090416666668,89.91619515433419L159.53469583333336,79.24333168924592L159.93679166666666,85.07956294021407L160.12443333333334,94.72327495028448L160.31212083333332,100.08815196555759L160.71137499999998,86.22390939659871L161.11539583333334,77.18075526430425L161.5205625,94.24529302841312L161.70967083333332,78.31125647432627L161.89818333333332,93.8550861721283L162.08683333333332,80.17142116685682L162.27585,90.5964689532882L164.4370291666667,102.28752295762581L164.65794583333332,107.99532555636868L164.87822083333333,111.25724002328965L207.13151249999999,67.65468282408497L207.32891666666666,66.15392260874566L207.5282,51.754412159983204L215.625025,38.09004830252019L215.82912083333335,50.79335138520079L216.03523333333334,51.98497576339389L216.47459166666667,61.128069588899535L216.68052083333333,56.14953985836841L216.88667916666665,65.07206835169957L217.32585416666666,55.74706784000783L217.53114166666668,49.87457835563673L217.97027083333333,44.3455112527343L218.40990416666665,55.81325067796084L218.614825,49.66421735337981L218.82171666666667,57.05462617110841L219.02792083333333,45.862117293338116L219.47016666666667,49.741379776294906L219.67719583333331,49.078606613689175L219.88376666666667,48.05636371883642L220.32477500000002,45.62736816275478L220.53152916666667,49.888309102629506L220.97235416666666,46.35014602343256L221.412675,28.052797515201576L221.61997916666667,61.78779590524179L221.82668750000002,64.54009144952143L222.03293749999997,59.95362410365507L222.23978333333332,62.5335498369969L222.6808375,55.41461068379671L223.12170833333334,43.24719030930976L223.32892083333334,46.550401065250185L223.77006666666665,49.605104260502756L224.21020416666664,53.949373309310076L224.41686666666666,51.0583055168284L224.6231625,48.63776819421298L224.82867916666666,54.764284058652194L225.2639125,43.67877164358532L225.700475,35.56262265696731L225.90420416666666,51.770794726220615L226.33847500000002,40.177859913902694L226.54215833333333,47.289676693133L226.977575,49.60035270974005L227.1809375,31.871377539930506L227.61690416666667,37.4780711875828L241.48909583333332,42.30595283323231L241.92084583333332,54.54123088593582L242.12173333333334,43.816718703057774L242.55504166666668,46.39954922292915L242.75698333333332,47.080873025798894L243.18983333333335,35.107185510953826L243.622225,32.264984262134845L244.05466249999998,43.80728492303638L244.25642083333335,46.450081017756105L244.45827083333333,50.39020200279785L244.65998333333334,38.26438060101947L245.0917333333333,43.71670306968244L245.52394166666667,48.33033040613557L245.72583749999998,33.61234238689127L246.15818333333334,42.887356559040114L246.36182083333335,44.24401573745382L246.56481666666667,42.105382839737416L247.0024791666667,38.385341191614486L247.44151666666667,40.135659866790576L247.6480875,42.390361415521596L247.86157916666664,39.05111530474426L248.303,28.488464873518893L248.5115416666667,50.93809265019081L248.72026666666667,29.036535017402997L248.9295875,44.99236322467357L249.13854166666667,29.044318919581855L249.58179583333333,36.371394216920294L249.78969583333333,37.22211659439921L250.2319875,37.787377423861784L250.4404375,28.21412867267705L250.64920833333332,42.01622948945513L250.85710833333331,43.45221387578002L251.29981249999997,57.01360528713349L251.7422875,33.43599713414255L252.08333333333331,45.35245576100587" style="fill: none;" fill="none"></path></g></g></g></g><g opacity="0.2"><g><g><g><path stroke="rgb(0, 119, 187)" stroke-width="2px" d="M27.874641666666665,155.91935505918585L28.304833333333335,161.0567365182707L28.5085625,162.21264772697424L28.93825,155.4934118642257L29.14303333333333,160.88631244992408L29.345983333333333,160.66574344167915L29.773241666666667,161.36573519063398L29.976375,157.96598009951413L30.405420833333334,160.37033838406205L30.60919583333333,154.56519314775673L31.038058333333336,159.04191561014608L31.466004166666668,155.88166979686L31.895920833333335,159.19048261943345L32.325379166666664,156.75256905117288L32.755204166666665,157.85642915161756L33.185854166666665,156.39918388698536L33.386741666666666,159.34265083819628L33.81294583333334,152.42040218040347L34.0143375,156.69136180442112L34.214675,155.9597463007443L34.63785416666666,153.39982908118802L35.05979583333333,155.91213932590415L35.260133333333336,154.85260199870055L35.6824875,151.01917537760275L35.88227500000001,150.9469444989585L36.30513333333334,152.6263545894852L36.503912500000006,154.71982641976612L36.7002625,152.5196015531054L37.122570833333334,154.17549092723772L37.5442375,152.29515617254833L67.05769583333334,118.26913985610008L67.47491666666666,120.9515311666406L67.67025833333334,123.88993803812906L68.0882125,112.28646069879716L68.28245416666667,128.95864798300542L68.47742916666667,117.10737953506984L68.67199166666667,128.4285093712119L122.54472083333333,89.33379198610784L122.97152083333333,99.47441745950626L123.17066666666666,93.24576047865244L123.36990416666667,97.55196503836375L123.79221249999999,111.73426341093504L123.99071666666667,95.7563309841431L124.41375833333333,103.8444750137054L124.83588333333333,99.25973465350958L125.03388333333334,99.78716475000748L125.23234166666667,97.42271205095145L125.42988333333334,82.29203769908503L125.62829583333333,99.48021489954913L159.35090416666668,89.44719457970216L159.53469583333336,78.66976368427278L159.93679166666666,85.3932065585485L160.12443333333334,95.24153555356538L160.31212083333332,100.37646463971872L160.71137499999998,85.4788341900477L161.11539583333334,76.69476910967094L161.5205625,95.16235459423983L161.70967083333332,77.45494892505499L161.89818333333332,94.69042370067193L162.08683333333332,79.43605033938701L162.27585,91.15671915045152L164.4370291666667,102.91580931613079L164.65794583333332,108.30206731878793L164.87822083333333,111.43253785027908L207.13151249999999,65.31144740031317L207.32891666666666,66.07327058452827L207.5282,50.980571240186705L215.625025,37.355714733784026L215.82912083333335,51.476036798495514L216.03523333333334,52.04901458666876L216.47459166666667,61.61942658057582L216.68052083333333,55.8819897885506L216.88667916666665,65.55157199043495L217.32585416666666,55.24593504117087L217.53114166666668,49.55898619156619L217.97027083333333,44.04837487523375L218.40990416666665,56.42953593685077L218.614825,49.333763507696304L218.82171666666667,57.45179250377876L219.02792083333333,45.26062313868451L219.47016666666667,49.94985436705443L219.67719583333331,49.04298866712131L219.88376666666667,48.00142758855452L220.32477500000002,45.4968320475175L220.53152916666667,50.117295391284514L220.97235416666666,46.16000238060954L221.412675,27.069483738679168L221.61997916666667,63.600741024200744L221.82668750000002,64.6880019582235L222.03293749999997,59.70714377210692L222.23978333333332,62.672197057650635L222.6808375,55.03203334258154L223.12170833333334,42.59330365061763L223.32892083333334,46.727918187013046L223.77006666666665,49.76926639217598L224.21020416666664,54.18283771551573L224.41686666666666,50.902937279297774L224.6231625,48.50768663103764L224.82867916666666,55.09352779846927L225.2639125,43.08302756226982L225.700475,35.12645448171176L225.90420416666666,52.641834531839095L226.33847500000002,39.55484655728708L226.54215833333333,47.67187127241721L226.977575,49.72453024066412L227.1809375,30.918608589814284L227.61690416666667,37.77937927612891L241.48909583333332,42.56540695749797L241.92084583333332,55.19876426916858L242.12173333333334,43.24037505571661L242.55504166666668,46.53835254907611L242.75698333333332,47.117487898239744L243.18983333333335,34.463710207205565L243.622225,32.11224215076521L244.05466249999998,44.42757716087195L244.25642083333335,46.59210694065462L244.45827083333333,50.60194717691496L244.65998333333334,37.612729503558256L245.0917333333333,44.00971513069595L245.52394166666667,48.57827033675636L245.72583749999998,32.82138623411839L246.15818333333334,43.38580305301227L246.36182083333335,44.31692365958142L246.56481666666667,41.990451040176254L247.0024791666667,38.18542325267424L247.44151666666667,40.229723357237305L247.6480875,42.51153083489493L247.86157916666664,38.87166161491322L248.303,27.92081980292616L248.5115416666667,52.144553152414474L248.72026666666667,27.8595282320793L248.9295875,45.84984187437939L249.13854166666667,28.187258582848784L249.58179583333333,36.765156956819396L249.78969583333333,37.26783507833113L250.2319875,37.81775498160948L250.4404375,27.699654819873672L250.64920833333332,42.757965149787765L250.85710833333331,43.529384796436034L251.29981249999997,57.74240503632106L251.7422875,32.16891808693228L252.08333333333331,45.99285553968872" style="fill: none;" fill="none"></path></g></g></g></g></g></g><g transform="translate(55, 177)" clip-path="url(#clip_1)"><clipPath id="clip_1"><rect width="275" height="23"></rect></clipPath><g><g><line x1="0" y1="0" x2="0" y2="5" style="visibility: inherit;" fill="rgb(0, 0, 0)" stroke="rgb(204, 204, 204)" stroke-width="1px"></line><line x1="22.916666666666664" y1="0" x2="22.916666666666664" y2="5" style="visibility: inherit;" fill="rgb(0, 0, 0)" stroke="rgb(204, 204, 204)" stroke-width="1px"></line><line x1="45.83333333333333" y1="0" x2="45.83333333333333" y2="5" style="visibility: inherit;" fill="rgb(0, 0, 0)" stroke="rgb(204, 204, 204)" stroke-width="1px"></line><line x1="68.75" y1="0" x2="68.75" y2="5" style="visibility: inherit;" fill="rgb(0, 0, 0)" stroke="rgb(204, 204, 204)" stroke-width="1px"></line><line x1="91.66666666666666" y1="0" x2="91.66666666666666" y2="5" style="visibility: inherit;" fill="rgb(0, 0, 0)" stroke="rgb(204, 204, 204)" stroke-width="1px"></line><line x1="114.58333333333334" y1="0" x2="114.58333333333334" y2="5" style="visibility: inherit;" fill="rgb(0, 0, 0)" stroke="rgb(204, 204, 204)" stroke-width="1px"></line><line x1="137.5" y1="0" x2="137.5" y2="5" style="visibility: inherit;" fill="rgb(0, 0, 0)" stroke="rgb(204, 204, 204)" stroke-width="1px"></line><line x1="160.41666666666669" y1="0" x2="160.41666666666669" y2="5" style="visibility: inherit;" fill="rgb(0, 0, 0)" stroke="rgb(204, 204, 204)" stroke-width="1px"></line><line x1="183.33333333333331" y1="0" x2="183.33333333333331" y2="5" style="visibility: inherit;" fill="rgb(0, 0, 0)" stroke="rgb(204, 204, 204)" stroke-width="1px"></line><line x1="206.25" y1="0" x2="206.25" y2="5" style="visibility: inherit;" fill="rgb(0, 0, 0)" stroke="rgb(204, 204, 204)" stroke-width="1px"></line><line x1="229.16666666666669" y1="0" x2="229.16666666666669" y2="5" style="visibility: inherit;" fill="rgb(0, 0, 0)" stroke="rgb(204, 204, 204)" stroke-width="1px"></line><line x1="252.08333333333331" y1="0" x2="252.08333333333331" y2="5" style="visibility: inherit;" fill="rgb(0, 0, 0)" stroke="rgb(204, 204, 204)" stroke-width="1px"></line><line x1="275" y1="0" x2="275" y2="5" style="visibility: inherit;" fill="rgb(0, 0, 0)" stroke="rgb(204, 204, 204)" stroke-width="1px"></line></g><g transform="translate(0, 8)"><text x="0" y="0" dx="0em" dy="0.95em" style="text-anchor: middle; visibility: hidden; font-family: &quot;Helvetica Neue&quot;, sans-serif; font-size: 12px; font-weight: 200;" fill="rgb(50, 49, 63)" stroke="none" stroke-width="1px">-500k</text><text x="22.916666666666664" y="0" dx="0em" dy="0.95em" style="text-anchor: middle; visibility: inherit; font-family: &quot;Helvetica Neue&quot;, sans-serif; font-size: 12px; font-weight: 200;" fill="rgb(50, 49, 63)" stroke="none" stroke-width="1px">0</text><text x="45.83333333333333" y="0" dx="0em" dy="0.95em" style="text-anchor: middle; visibility: hidden; font-family: &quot;Helvetica Neue&quot;, sans-serif; font-size: 12px; font-weight: 200;" fill="rgb(50, 49, 63)" stroke="none" stroke-width="1px">500k</text><text x="68.75" y="0" dx="0em" dy="0.95em" style="text-anchor: middle; visibility: inherit; font-family: &quot;Helvetica Neue&quot;, sans-serif; font-size: 12px; font-weight: 200;" fill="rgb(50, 49, 63)" stroke="none" stroke-width="1px">1M</text><text x="91.66666666666666" y="0" dx="0em" dy="0.95em" style="text-anchor: middle; visibility: hidden; font-family: &quot;Helvetica Neue&quot;, sans-serif; font-size: 12px; font-weight: 200;" fill="rgb(50, 49, 63)" stroke="none" stroke-width="1px">1.5M</text><text x="114.58333333333334" y="0" dx="0em" dy="0.95em" style="text-anchor: middle; visibility: inherit; font-family: &quot;Helvetica Neue&quot;, sans-serif; font-size: 12px; font-weight: 200;" fill="rgb(50, 49, 63)" stroke="none" stroke-width="1px">2M</text><text x="137.5" y="0" dx="0em" dy="0.95em" style="text-anchor: middle; visibility: hidden; font-family: &quot;Helvetica Neue&quot;, sans-serif; font-size: 12px; font-weight: 200;" fill="rgb(50, 49, 63)" stroke="none" stroke-width="1px">2.5M</text><text x="160.41666666666669" y="0" dx="0em" dy="0.95em" style="text-anchor: middle; visibility: inherit; font-family: &quot;Helvetica Neue&quot;, sans-serif; font-size: 12px; font-weight: 200;" fill="rgb(50, 49, 63)" stroke="none" stroke-width="1px">3M</text><text x="183.33333333333331" y="0" dx="0em" dy="0.95em" style="text-anchor: middle; visibility: hidden; font-family: &quot;Helvetica Neue&quot;, sans-serif; font-size: 12px; font-weight: 200;" fill="rgb(50, 49, 63)" stroke="none" stroke-width="1px">3.5M</text><text x="206.25" y="0" dx="0em" dy="0.95em" style="text-anchor: middle; visibility: inherit; font-family: &quot;Helvetica Neue&quot;, sans-serif; font-size: 12px; font-weight: 200;" fill="rgb(50, 49, 63)" stroke="none" stroke-width="1px">4M</text><text x="229.16666666666669" y="0" dx="0em" dy="0.95em" style="text-anchor: middle; visibility: hidden; font-family: &quot;Helvetica Neue&quot;, sans-serif; font-size: 12px; font-weight: 200;" fill="rgb(50, 49, 63)" stroke="none" stroke-width="1px">4.5M</text><text x="252.08333333333331" y="0" dx="0em" dy="0.95em" style="text-anchor: middle; visibility: inherit; font-family: &quot;Helvetica Neue&quot;, sans-serif; font-size: 12px; font-weight: 200;" fill="rgb(50, 49, 63)" stroke="none" stroke-width="1px">5M</text><text x="275" y="0" dx="0em" dy="0.95em" style="text-anchor: middle; visibility: hidden; font-family: &quot;Helvetica Neue&quot;, sans-serif; font-size: 12px; font-weight: 200;" fill="rgb(50, 49, 63)" stroke="none" stroke-width="1px">5.5M</text></g><line x1="0" y1="0" x2="275" y2="0" fill="rgb(0, 0, 0)" stroke="rgb(204, 204, 204)" stroke-width="1px"></line></g></g></g></g></svg>