<svg viewBox="0 0 330 200" xmlns="http://www.w3.org/2000/svg"><g><g><g><g><g><line x1="64" y1="165.62756552816438" x2="59" y2="165.62756552816438" style="visibility: inherit;" fill="rgb(0, 0, 0)" stroke="rgb(204, 204, 204)" stroke-width="1px"></line><line x1="64" y1="149.1732588054753" x2="59" y2="149.1732588054753" style="visibility: inherit;" fill="rgb(0, 0, 0)" stroke="rgb(204, 204, 204)" stroke-width="1px"></line><line x1="64" y1="132.71895208278625" x2="59" y2="132.71895208278625" style="visibility: inherit;" fill="rgb(0, 0, 0)" stroke="rgb(204, 204, 204)" stroke-width="1px"></line><line x1="64" y1="116.26464536009716" x2="59" y2="116.26464536009716" style="visibility: inherit;" fill="rgb(0, 0, 0)" stroke="rgb(204, 204, 204)" stroke-width="1px"></line><line x1="64" y1="99.8103386374081" x2="59" y2="99.8103386374081" style="visibility: inherit;" fill="rgb(0, 0, 0)" stroke="rgb(204, 204, 204)" stroke-width="1px"></line><line x1="64" y1="83.35603191471903" x2="59" y2="83.35603191471903" style="visibility: inherit;" fill="rgb(0, 0, 0)" stroke="rgb(204, 204, 204)" stroke-width="1px"></line><line x1="64" y1="66.90172519202994" x2="59" y2="66.90172519202994" style="visibility: inherit;" fill="rgb(0, 0, 0)" stroke="rgb(204, 204, 204)" stroke-width="1px"></line><line x1="64" y1="50.447418469340874" x2="59" y2="50.447418469340874" style="visibility: inherit;" fill="rgb(0, 0, 0)" stroke="rgb(204, 204, 204)" stroke-width="1px"></line><line x1="64" y1="33.993111746651806" x2="59" y2="33.993111746651806" style="visibility: inherit;" fill="rgb(0, 0, 0)" stroke="rgb(204, 204, 204)" stroke-width="1px"></line><line x1="64" y1="17.53880502396271" x2="59" y2="17.53880502396271" style="visibility: inherit;" fill="rgb(0, 0, 0)" stroke="rgb(204, 204, 204)" stroke-width="1px"></line><line x1="64" y1="1.0844983012736407" x2="59" y2="1.0844983012736407" style="visibility: inherit;" fill="rgb(0, 0, 0)" stroke="rgb(204, 204, 204)" stroke-width="1px"></line></g><g transform="translate(54, 0)"><text x="0" y="165.62756552816438" dx="0em" dy="0.3em" style="text-anchor: end; visibility: inherit; font-family: &quot;Helvetica Neue&quot;, sans-serif; font-size: 12px; font-weight: 200;" fill="rgb(50, 49, 63)" stroke="none" stroke-width="1px">300</text><text x="0" y="149.1732588054753" dx="0em" dy="0.3em" style="text-anchor: end; visibility: hidden; font-family: &quot;Helvetica Neue&quot;, sans-serif; font-size: 12px; font-weight: 200;" fill="rgb(50, 49, 63)" stroke="none" stroke-width="1px">400</text><text x="0" y="132.71895208278625" dx="0em" dy="0.3em" style="text-anchor: end; visibility: inherit; font-family: &quot;Helvetica Neue&quot;, sans-serif; font-size: 12px; font-weight: 200;" fill="rgb(50, 49, 63)" stroke="none" stroke-width="1px">500</text><text x="0" y="116.26464536009716" dx="0em" dy="0.3em" style="text-anchor: end; visibility: hidden; font-family: &quot;Helvetica Neue&quot;, sans-serif; font-size: 12px; font-weight: 200;" fill="rgb(50, 49, 63)" stroke="none" stroke-width="1px">600</text><text x="0" y="99.8103386374081" dx="0em" dy="0.3em" style="text-anchor: end; visibility: inherit; font-family: &quot;Helvetica Neue&quot;, sans-serif; font-size: 12px; font-weight: 200;" fill="rgb(50, 49, 63)" stroke="none" stroke-width="1px">700</text><text x="0" y="83.35603191471903" dx="0em" dy="0.3em" style="text-anchor: end; visibility: hidden; font-family: &quot;Helvetica Neue&quot;, sans-serif; font-size: 12px; font-weight: 200;" fill="rgb(50, 49, 63)" stroke="none" stroke-width="1px">800</text><text x="0" y="66.90172519202994" dx="0em" dy="0.3em" style="text-anchor: end; visibility: inherit; font-family: &quot;Helvetica Neue&quot;, sans-serif; font-size: 12px; font-weight: 200;" fill="rgb(50, 49, 63)" stroke="none" stroke-width="1px">900</text><text x="0" y="50.447418469340874" dx="0em" dy="0.3em" style="text-anchor: end; visibility: hidden; font-family: &quot;Helvetica Neue&quot;, sans-serif; font-size: 12px; font-weight: 200;" fill="rgb(50, 49, 63)" stroke="none" stroke-width="1px">1e+3</text><text x="0" y="33.993111746651806" dx="0em" dy="0.3em" style="text-anchor: end; visibility: inherit; font-family: &quot;Helvetica Neue&quot;, sans-serif; font-size: 12px; font-weight: 200;" fill="rgb(50, 49, 63)" stroke="none" stroke-width="1px">1.1e+3</text><text x="0" y="17.53880502396271" dx="0em" dy="0.3em" style="text-anchor: end; visibility: hidden; font-family: &quot;Helvetica Neue&quot;, sans-serif; font-size: 12px; font-weight: 200;" fill="rgb(50, 49, 63)" stroke="none" stroke-width="1px">1.2e+3</text><text x="0" y="1.0844983012736407" dx="0em" dy="0.3em" style="text-anchor: end; visibility: hidden; font-family: &quot;Helvetica Neue&quot;, sans-serif; font-size: 12px; font-weight: 200;" fill="rgb(50, 49, 63)" stroke="none" stroke-width="1px">1.3e+3</text></g><line x1="64" y1="0" x2="64" y2="177" fill="rgb(0, 0, 0)" stroke="rgb(204, 204, 204)" stroke-width="1px"></line></g></g><g transform="translate(64, 0)" clip-path="url(#clip_0)"><clipPath id="clip_0"><rect width="266" height="177"></rect></clipPath><g><g><g><line x1="18.802853437094683" y1="0" x2="18.802853437094683" y2="177" fill="rgb(0, 0, 0)" stroke="rgb(60, 60, 60)" stroke-width="1px" opacity="0.25"></line><line x1="41.74578469520104" y1="0" x2="41.74578469520104" y2="177" fill="rgb(0, 0, 0)" stroke="rgb(60, 60, 60)" stroke-width="1px" opacity="0.25"></line><line x1="64.6887159533074" y1="0" x2="64.6887159533074" y2="177" fill="rgb(0, 0, 0)" stroke="rgb(60, 60, 60)" stroke-width="1px" opacity="0.25"></line><line x1="87.63164721141375" y1="0" x2="87.63164721141375" y2="177" fill="rgb(0, 0, 0)" stroke="rgb(60, 60, 60)" stroke-width="1px" opacity="0.25"></line><line x1="110.57457846952009" y1="0" x2="110.57457846952009" y2="177" fill="rgb(0, 0, 0)" stroke="rgb(60, 60, 60)" stroke-width="1px" opacity="0.25"></line><line x1="133.51750972762645" y1="0" x2="133.51750972762645" y2="177" fill="rgb(0, 0, 0)" stroke="rgb(60, 60, 60)" stroke-width="1px" opacity="0.25"></line><line x1="156.46044098573282" y1="0" x2="156.46044098573282" y2="177" fill="rgb(0, 0, 0)" stroke="rgb(60, 60, 60)" stroke-width="1px" opacity="0.25"></line><line x1="179.40337224383916" y1="0" x2="179.40337224383916" y2="177" fill="rgb(0, 0, 0)" stroke="rgb(60, 60, 60)" stroke-width="1px" opacity="0.25"></line><line x1="202.34630350194553" y1="0" x2="202.34630350194553" y2="177" fill="rgb(0, 0, 0)" stroke="rgb(60, 60, 60)" stroke-width="1px" opacity="0.25"></line><line x1="225.28923476005187" y1="0" x2="225.28923476005187" y2="177" fill="rgb(0, 0, 0)" stroke="rgb(60, 60, 60)" stroke-width="1px" opacity="0.25"></line><line x1="248.23216601815824" y1="0" x2="248.23216601815824" y2="177" fill="rgb(0, 0, 0)" stroke="rgb(60, 60, 60)" stroke-width="1px" opacity="0.25"></line></g><g><line x1="0" y1="165.62756552816438" x2="266" y2="165.62756552816438" fill="rgb(0, 0, 0)" stroke="rgb(60, 60, 60)" stroke-width="1px" opacity="0.25"></line><line x1="0" y1="149.1732588054753" x2="266" y2="149.1732588054753" fill="rgb(0, 0, 0)" stroke="rgb(60, 60, 60)" stroke-width="1px" opacity="0.25"></line><line x1="0" y1="132.71895208278625" x2="266" y2="132.71895208278625" fill="rgb(0, 0, 0)" stroke="rgb(60, 60, 60)" stroke-width="1px" opacity="0.25"></line><line x1="0" y1="116.26464536009716" x2="266" y2="116.26464536009716" fill="rgb(0, 0, 0)" stroke="rgb(60, 60, 60)" stroke-width="1px" opacity="0.25"></line><line x1="0" y1="99.8103386374081" x2="266" y2="99.8103386374081" fill="rgb(0, 0, 0)" stroke="rgb(60, 60, 60)" stroke-width="1px" opacity="0.25"></line><line x1="0" y1="83.35603191471903" x2="266" y2="83.35603191471903" fill="rgb(0, 0, 0)" stroke="rgb(60, 60, 60)" stroke-width="1px" opacity="0.25"></line><line x1="0" y1="66.90172519202994" x2="266" y2="66.90172519202994" fill="rgb(0, 0, 0)" stroke="rgb(60, 60, 60)" stroke-width="1px" opacity="0.25"></line><line x1="0" y1="50.447418469340874" x2="266" y2="50.447418469340874" fill="rgb(0, 0, 0)" stroke="rgb(60, 60, 60)" stroke-width="1px" opacity="0.25"></line><line x1="0" y1="33.993111746651806" x2="266" y2="33.993111746651806" fill="rgb(0, 0, 0)" stroke="rgb(60, 60, 60)" stroke-width="1px" opacity="0.25"></line><line x1="0" y1="17.53880502396271" x2="266" y2="17.53880502396271" fill="rgb(0, 0, 0)" stroke="rgb(60, 60, 60)" stroke-width="1px" opacity="0.25"></line><line x1="0" y1="1.0844983012736407" x2="266" y2="1.0844983012736407" fill="rgb(0, 0, 0)" stroke="rgb(60, 60, 60)" stroke-width="1px" opacity="0.25"></line></g></g></g><g><g><line x1="0" y1="214.99048569623162" x2="266" y2="214.99048569623162" fill="rgb(0, 0, 0)" stroke="rgb(153, 153, 153)" stroke-width="1.5px"></line></g></g><g><g><line x1="18.802853437094683" y1="0" x2="18.802853437094683" y2="177" fill="rgb(0, 0, 0)" stroke="rgb(153, 153, 153)" stroke-width="1.5px"></line></g></g><g><g><g><g><g><path stroke="rgb(0, 119, 187)" stroke-width="2px" d="M23.766510728923475,132.60217310416598L24.19719543450065,142.65263860612612L24.401158093385213,140.8476552988335L24.83133805447471,139.3975502087427L25.036356088197145,122.97569701687726L25.23953868741894,132.830692534838L25.667286697795074,135.6416049648058L25.870652840466928,129.41901016468725L26.300190399481192,130.29950772860832L26.50419894422828,137.02037027288426L26.93355295979248,132.15599975250424L27.361989258106355,132.79140061121075L27.79239864850843,132.39800669480758L28.222349180285345,125.89802864978839L28.652666798962386,121.91259341124574L29.083810363164723,147.163110452749L29.284928098573282,115.39594138739747L29.711620734111545,96.23620644123184L29.91324321400778,86.12485285646115L30.11381031906615,88.15314308313489L30.537474487678338,122.22206326717821L30.959899738002594,115.51805453388286L31.16046684306096,119.7455600747852L31.58330506614786,115.99678224857439L31.783321540856033,91.87709347334533L32.20666450843061,123.33920974698049L32.40567149416342,116.17243380320407L32.602246529182885,108.75745248410328L33.025038866407264,101.3576614643883L33.44718880155642,121.75186409112277L62.994472251621275,87.99118032835474L63.412171258106355,119.68962921951331L63.607736804150456,121.40749498674111L64.0261699844358,130.934177255435L64.22063426977951,139.86061817221173L64.41583272892348,113.95423384017357L64.6106182153048,126.40082428030836L118.54509044617379,105.80466568310976L118.97237959792476,73.1527657618568L119.17175367055772,76.42787413432917L119.37121951491568,102.88412780973083L119.79401185214007,101.78122741465249L119.9927435226978,63.482895007413575L120.41627003372244,95.81725776229216L120.83887882749674,77.37274348142672L121.03710575356679,103.73677590930963L121.23579153826198,76.31733267577498L121.43355960570686,84.88752487674459L121.63219950453956,92.00547017001865L155.3934570246433,75.67335532622079L155.57745933333334,34.802611279363134L155.98001600518808,72.86552706441378L156.16787272632945,53.05647194635377L156.35577533333333,79.18265740213096L156.75548708171203,78.5641919206214L157.15997095979247,68.33933191940912L157.56560198443577,95.53106304757257L157.75492705317768,54.52629912316182L157.94365560570685,100.64024429008035L158.1325218158236,103.93174668959117L158.32175511284046,82.7281576177596L160.48541118806745,69.67603359947232L160.70658104539558,80.17696147043283L160.9271085006485,55.75131569165055L203.22882629571984,37.38624614696596L203.42645670557718,38.06247378394659L203.62596843579766,46.95371007879305L211.73207313618676,47.16311942861793L211.93640288197145,40.74357277618088L212.14275160570688,51.19878831187185L212.5826134837873,56.62969052436564L212.78877866407262,41.7551705544916L212.99517327367053,44.487731170772236L213.4348516083009,39.097995122388596L213.640374386511,44.41771035435792L214.08000683527885,45.82097983934975L214.52014402853436,52.2343661228895L214.72529971984434,51.93038150974898L214.93242850324253,45.301985922139096L215.13886899870297,59.209081004041224L215.5816216861219,63.0615658718898L215.78888812710764,41.067945426773434L215.9956957094682,58.75408580585923L216.43720947859921,56.04711809027094L216.64420060440983,48.29139385891787L217.0855308300908,38.50726028459323L217.52635631128405,45.32592071091756L217.73389806744484,44.5254108476295L217.940843307393,51.96770850141739L218.14732968871596,44.11742891463575L218.3544125862516,48.45476815431235L218.79597224124512,51.95941147562249L219.2373483527886,48.920814361837785L219.44479833722437,47.1523039824732L219.88644976394292,54.75866462786463L220.32709170168613,54.92923134485025L220.5339910557717,29.604019150522788L220.7405233229572,46.59363776433372L220.94627553047988,51.825313022184275L221.38200768093384,46.16651560770984L221.81907052140076,63.53132309978936L222.02303318028532,45.54073032031124L222.45780172762645,45.38561076944413L222.66171850064848,49.52960679309909L223.0976341945525,39.15262197012319L223.30122976653698,46.38585537061593L223.73769609079116,43.135124519729544L237.6257865551232,58.36454335494177L238.0580313800259,40.62463041392738L238.2591491154345,44.51264781040743L238.69295405966275,42.82280510162849L238.89512716990922,38.56159446796855L239.3284732555123,47.16098284236469L239.76136048249026,41.68698635705272L240.19429359533075,47.40148428412138L240.3962831621271,28.796978058118327L240.5983645006485,34.71938039911717L240.80030818158235,40.44642499827208L241.23255300648506,38.58955490258225L241.66525669001294,34.49095954003991L241.86738391439687,44.80939659764087L242.30022525551232,47.91753842587059L242.50409614267184,39.687578002401835L242.70732462775615,40.69528551318811L243.14548872892348,34.078012431057175L243.58502940596625,49.958991961730604L243.79183698832685,33.32894677550064L244.00557333592735,38.334184440897616L244.44750007782102,47.65904989099445L244.6562807522698,22.620061602336932L244.86524497016862,41.022701605948356L245.07480570428015,40.29707664804326L245.28399935149156,35.02838888715422L245.72776152788583,39.475030233053616L245.9358998002594,28.839605456322943L246.37869837354083,28.4872604770639L246.5873872762646,36.48434326961234L246.79639738002595,35.974061792173586L247.00453565239948,39.85521464428243L247.44774719844358,39.294774724092804L247.8907293151751,38.7448426613681L248.23216601815824,20.487515071069396" style="fill: none;" fill="none"></path></g></g></g></g><g opacity="0.2"><g><g><g><path stroke="rgb(0, 119, 187)" stroke-width="2px" d="M23.766510728923475,132.60217310416598L24.19719543450065,143.1652123467261L24.401158093385213,140.7509063885793L24.83133805447471,139.31963076791843L25.036356088197145,122.09317979155469L25.23953868741894,133.3603074958545L25.667286697795074,135.79266558799424L25.870652840466928,129.08460306824756L26.300190399481192,130.34682635427524L26.50419894422828,137.38155466672754L26.93355295979248,131.8945846876577L27.361989258106355,132.825547548823L27.79239864850843,132.376865398984L28.222349180285345,125.54871476117302L28.652666798962386,121.69841301381086L29.083810363164723,148.52009292810905L29.284928098573282,113.68874895079797L29.711620734111545,95.20654734507329L29.91324321400778,85.58146083030381L30.11381031906615,88.2621449815125L30.537474487678338,124.05295360372848L30.959899738002594,115.15777587698287L31.16046684306096,119.97274951902759L31.58330506614786,115.79532000501617L31.783321540856033,90.58088259079878L32.20666450843061,125.03000840868269L32.40567149416342,115.78728567556172L32.602246529182885,108.35896560604833L33.025038866407264,100.95999092486726L33.44718880155642,122.84786444303369L62.994472251621275,86.17685485743677L63.412171258106355,121.39312858036587L63.607736804150456,121.49981443260899L64.0261699844358,131.44614858915827L64.22063426977951,140.34033206763388L64.41583272892348,112.56200454519576L64.6106182153048,127.06971375601633L118.54509044617379,104.69781205986729L118.97237959792476,71.39802719917618L119.17175367055772,76.60388101209112L119.37121951491568,104.30590751199162L119.79401185214007,101.72195668741435L119.9927435226978,61.42471276002773L120.41627003372244,97.55493163004644L120.83887882749674,76.38152090152774L121.03710575356679,105.15359956981754L121.23579153826198,74.84379041559555L121.43355960570686,85.34809368838783L121.63219950453956,92.38799410042643L155.3934570246433,74.79565473925166L155.57745933333334,32.60618562457944L155.98001600518808,74.91105783895286L156.16787272632945,51.991917877838404L156.35577533333333,80.58669898089241L156.75548708171203,78.53095510338535L157.15997095979247,67.78983996992352L157.56560198443577,96.99236788164667L157.75492705317768,52.32267113565396L157.94365560570685,103.1184436615375L158.1325218158236,104.10863459514971L158.32175511284046,81.58866020715537L160.48541118806745,68.97460227709858L160.70658104539558,80.74128952250761L160.9271085006485,54.438662441157504L203.22882629571984,36.39929298913779L203.42645670557718,38.09881478445871L203.62596843579766,47.43153205038121L211.73207313618676,47.17437325036826L211.93640288197145,40.39858133332069L212.14275160570688,51.760659747404205L212.5826134837873,56.92155144410975L212.78877866407262,40.95580225263322L212.99517327367053,44.63458110905495L213.4348516083009,38.80834650440377L213.640374386511,44.70359599906857L214.08000683527885,45.89639263569808L214.52014402853436,52.57902650272145L214.72529971984434,51.91404513960126L214.93242850324253,44.94577077464896L215.13886899870297,59.95645913805282L215.5816216861219,63.26860141273306L215.78888812710764,39.885991114127535L215.9956957094682,59.70455278092072L216.43720947859921,55.90164353442793L216.64420060440983,47.87459519105798L217.0855308300908,37.98145331695301L217.52635631128405,45.69236083920262L217.73389806744484,44.482390823364284L217.940843307393,52.36766338059884L218.14732968871596,43.69554876824387L218.3544125862516,48.687860147171676L218.79597224124512,52.147753740519036L219.2373483527886,48.75751778354166L219.44479833722437,47.057262855658024L219.88644976394292,55.16743638014594L220.32709170168613,54.93839773322354L220.5339910557717,28.243022499405043L220.7405233229572,47.50667311660382L220.94627553047988,52.106467330035045L221.38200768093384,45.862407422105804L221.81907052140076,64.46452139493798L222.02303318028532,44.57390183585031L222.45780172762645,45.37727452382322L222.66171850064848,49.75230837076653L223.0976341945525,38.59495471409389L223.30122976653698,46.774574973803624L223.73769609079116,42.96042770898643L237.6257865551232,59.18298419856224L238.0580313800259,39.67127365945768L238.2591491154345,44.72159289704652L238.69295405966275,42.73199163677313L238.89512716990922,38.33259368575921L239.3284732555123,47.623120679134104L239.76136048249026,41.392809517483755L240.19429359533075,47.708585858705675L240.3962831621271,27.79715738633101L240.5983645006485,35.03765491902328L240.80030818158235,40.75420084079775L241.23255300648506,38.48976525571166L241.66525669001294,34.270697829302605L241.86738391439687,45.36391745110521L242.30022525551232,48.084572391349724L242.50409614267184,39.24529351178339L242.70732462775615,40.749440500595995L243.14548872892348,33.7223950156845L243.58502940596625,50.81244818519144L243.79183698832685,32.43523517961262L244.00557333592735,38.60316981596105L244.44750007782102,48.160175431515995L244.6562807522698,21.274446847098233L244.86524497016862,42.01167382953548L245.07480570428015,40.258080996986195L245.28399935149156,34.745245498529016L245.72776152788583,39.71399620633167L245.9358998002594,28.2680494356556L246.37869837354083,28.468325183131128L246.5873872762646,36.91411273475455L246.79639738002595,35.94663886767478L247.00453565239948,40.06379082495425L247.44774719844358,39.26465624576858L247.8907293151751,38.71528888349775L248.23216601815824,19.506352049883674" style="fill: none;" fill="none"></path></g></g></g></g></g></g><g transform="translate(64, 177)" clip-path="url(#clip_1)"><clipPath id="clip_1"><rect width="266" height="23"></rect></clipPath><g><g><line x1="18.802853437094683" y1="0" x2="18.802853437094683" y2="5" style="visibility: inherit;" fill="rgb(0, 0, 0)" stroke="rgb(204, 204, 204)" stroke-width="1px"></line><line x1="41.74578469520104" y1="0" x2="41.74578469520104" y2="5" style="visibility: inherit;" fill="rgb(0, 0, 0)" stroke="rgb(204, 204, 204)" stroke-width="1px"></line><line x1="64.6887159533074" y1="0" x2="64.6887159533074" y2="5" style="visibility: inherit;" fill="rgb(0, 0, 0)" stroke="rgb(204, 204, 204)" stroke-width="1px"></line><line x1="87.63164721141375" y1="0" x2="87.63164721141375" y2="5" style="visibility: inherit;" fill="rgb(0, 0, 0)" stroke="rgb(204, 204, 204)" stroke-width="1px"></line><line x1="110.57457846952009" y1="0" x2="110.57457846952009" y2="5" style="visibility: inherit;" fill="rgb(0, 0, 0)" stroke="rgb(204, 204, 204)" stroke-width="1px"></line><line x1="133.51750972762645" y1="0" x2="133.51750972762645" y2="5" style="visibility: inherit;" fill="rgb(0, 0, 0)" stroke="rgb(204, 204, 204)" stroke-width="1px"></line><line x1="156.46044098573282" y1="0" x2="156.46044098573282" y2="5" style="visibility: inherit;" fill="rgb(0, 0, 0)" stroke="rgb(204, 204, 204)" stroke-width="1px"></line><line x1="179.40337224383916" y1="0" x2="179.40337224383916" y2="5" style="visibility: inherit;" fill="rgb(0, 0, 0)" stroke="rgb(204, 204, 204)" stroke-width="1px"></line><line x1="202.34630350194553" y1="0" x2="202.34630350194553" y2="5" style="visibility: inherit;" fill="rgb(0, 0, 0)" stroke="rgb(204, 204, 204)" stroke-width="1px"></line><line x1="225.28923476005187" y1="0" x2="225.28923476005187" y2="5" style="visibility: inherit;" fill="rgb(0, 0, 0)" stroke="rgb(204, 204, 204)" stroke-width="1px"></line><line x1="248.23216601815824" y1="0" x2="248.23216601815824" y2="5" style="visibility: inherit;" fill="rgb(0, 0, 0)" stroke="rgb(204, 204, 204)" stroke-width="1px"></line></g><g transform="translate(0, 8)"><text x="18.802853437094683" y="0" dx="0em" dy="0.95em" style="text-anchor: middle; visibility: inherit; font-family: &quot;Helvetica Neue&quot;, sans-serif; font-size: 12px; font-weight: 200;" fill="rgb(50, 49, 63)" stroke="none" stroke-width="1px">0</text><text x="41.74578469520104" y="0" dx="0em" dy="0.95em" style="text-anchor: middle; visibility: hidden; font-family: &quot;Helvetica Neue&quot;, sans-serif; font-size: 12px; font-weight: 200;" fill="rgb(50, 49, 63)" stroke="none" stroke-width="1px">500k</text><text x="64.6887159533074" y="0" dx="0em" dy="0.95em" style="text-anchor: middle; visibility: inherit; font-family: &quot;Helvetica Neue&quot;, sans-serif; font-size: 12px; font-weight: 200;" fill="rgb(50, 49, 63)" stroke="none" stroke-width="1px">1M</text><text x="87.63164721141375" y="0" dx="0em" dy="0.95em" style="text-anchor: middle; visibility: hidden; font-family: &quot;Helvetica Neue&quot;, sans-serif; font-size: 12px; font-weight: 200;" fill="rgb(50, 49, 63)" stroke="none" stroke-width="1px">1.5M</text><text x="110.57457846952009" y="0" dx="0em" dy="0.95em" style="text-anchor: middle; visibility: inherit; font-family: &quot;Helvetica Neue&quot;, sans-serif; font-size: 12px; font-weight: 200;" fill="rgb(50, 49, 63)" stroke="none" stroke-width="1px">2M</text><text x="133.51750972762645" y="0" dx="0em" dy="0.95em" style="text-anchor: middle; visibility: hidden; font-family: &quot;Helvetica Neue&quot;, sans-serif; font-size: 12px; font-weight: 200;" fill="rgb(50, 49, 63)" stroke="none" stroke-width="1px">2.5M</text><text x="156.46044098573282" y="0" dx="0em" dy="0.95em" style="text-anchor: middle; visibility: inherit; font-family: &quot;Helvetica Neue&quot;, sans-serif; font-size: 12px; font-weight: 200;" fill="rgb(50, 49, 63)" stroke="none" stroke-width="1px">3M</text><text x="179.40337224383916" y="0" dx="0em" dy="0.95em" style="text-anchor: middle; visibility: hidden; font-family: &quot;Helvetica Neue&quot;, sans-serif; font-size: 12px; font-weight: 200;" fill="rgb(50, 49, 63)" stroke="none" stroke-width="1px">3.5M</text><text x="202.34630350194553" y="0" dx="0em" dy="0.95em" style="text-anchor: middle; visibility: inherit; font-family: &quot;Helvetica Neue&quot;, sans-serif; font-size: 12px; font-weight: 200;" fill="rgb(50, 49, 63)" stroke="none" stroke-width="1px">4M</text><text x="225.28923476005187" y="0" dx="0em" dy="0.95em" style="text-anchor: middle; visibility: hidden; font-family: &quot;Helvetica Neue&quot;, sans-serif; font-size: 12px; font-weight: 200;" fill="rgb(50, 49, 63)" stroke="none" stroke-width="1px">4.5M</text><text x="248.23216601815824" y="0" dx="0em" dy="0.95em" style="text-anchor: middle; visibility: inherit; font-family: &quot;Helvetica Neue&quot;, sans-serif; font-size: 12px; font-weight: 200;" fill="rgb(50, 49, 63)" stroke="none" stroke-width="1px">5M</text></g><line x1="0" y1="0" x2="266" y2="0" fill="rgb(0, 0, 0)" stroke="rgb(204, 204, 204)" stroke-width="1px"></line></g></g></g></g></svg>