<svg viewBox="0 0 330 200" xmlns="http://www.w3.org/2000/svg"><g><g><g><g><g><line x1="64" y1="177" x2="59" y2="177" style="visibility: inherit;" fill="rgb(0, 0, 0)" stroke="rgb(204, 204, 204)" stroke-width="1px"></line><line x1="64" y1="154.875" x2="59" y2="154.875" style="visibility: inherit;" fill="rgb(0, 0, 0)" stroke="rgb(204, 204, 204)" stroke-width="1px"></line><line x1="64" y1="132.75" x2="59" y2="132.75" style="visibility: inherit;" fill="rgb(0, 0, 0)" stroke="rgb(204, 204, 204)" stroke-width="1px"></line><line x1="64" y1="110.625" x2="59" y2="110.625" style="visibility: inherit;" fill="rgb(0, 0, 0)" stroke="rgb(204, 204, 204)" stroke-width="1px"></line><line x1="64" y1="88.5" x2="59" y2="88.5" style="visibility: inherit;" fill="rgb(0, 0, 0)" stroke="rgb(204, 204, 204)" stroke-width="1px"></line><line x1="64" y1="66.375" x2="59" y2="66.375" style="visibility: inherit;" fill="rgb(0, 0, 0)" stroke="rgb(204, 204, 204)" stroke-width="1px"></line><line x1="64" y1="44.25" x2="59" y2="44.25" style="visibility: inherit;" fill="rgb(0, 0, 0)" stroke="rgb(204, 204, 204)" stroke-width="1px"></line><line x1="64" y1="22.125" x2="59" y2="22.125" style="visibility: inherit;" fill="rgb(0, 0, 0)" stroke="rgb(204, 204, 204)" stroke-width="1px"></line><line x1="64" y1="0" x2="59" y2="0" style="visibility: inherit;" fill="rgb(0, 0, 0)" stroke="rgb(204, 204, 204)" stroke-width="1px"></line></g><g transform="translate(54, 0)"><text x="0" y="177" dx="0em" dy="0.3em" style="text-anchor: end; visibility: hidden; font-family: &quot;Helvetica Neue&quot;, sans-serif; font-size: 12px; font-weight: 200;" fill="rgb(50, 49, 63)" stroke="none" stroke-width="1px">-200</text><text x="0" y="154.875" dx="0em" dy="0.3em" style="text-anchor: end; visibility: inherit; font-family: &quot;Helvetica Neue&quot;, sans-serif; font-size: 12px; font-weight: 200;" fill="rgb(50, 49, 63)" stroke="none" stroke-width="1px">0</text><text x="0" y="132.75" dx="0em" dy="0.3em" style="text-anchor: end; visibility: hidden; font-family: &quot;Helvetica Neue&quot;, sans-serif; font-size: 12px; font-weight: 200;" fill="rgb(50, 49, 63)" stroke="none" stroke-width="1px">200</text><text x="0" y="110.625" dx="0em" dy="0.3em" style="text-anchor: end; visibility: inherit; font-family: &quot;Helvetica Neue&quot;, sans-serif; font-size: 12px; font-weight: 200;" fill="rgb(50, 49, 63)" stroke="none" stroke-width="1px">400</text><text x="0" y="88.5" dx="0em" dy="0.3em" style="text-anchor: end; visibility: hidden; font-family: &quot;Helvetica Neue&quot;, sans-serif; font-size: 12px; font-weight: 200;" fill="rgb(50, 49, 63)" stroke="none" stroke-width="1px">600</text><text x="0" y="66.375" dx="0em" dy="0.3em" style="text-anchor: end; visibility: inherit; font-family: &quot;Helvetica Neue&quot;, sans-serif; font-size: 12px; font-weight: 200;" fill="rgb(50, 49, 63)" stroke="none" stroke-width="1px">800</text><text x="0" y="44.25" dx="0em" dy="0.3em" style="text-anchor: end; visibility: hidden; font-family: &quot;Helvetica Neue&quot;, sans-serif; font-size: 12px; font-weight: 200;" fill="rgb(50, 49, 63)" stroke="none" stroke-width="1px">1e+3</text><text x="0" y="22.125" dx="0em" dy="0.3em" style="text-anchor: end; visibility: inherit; font-family: &quot;Helvetica Neue&quot;, sans-serif; font-size: 12px; font-weight: 200;" fill="rgb(50, 49, 63)" stroke="none" stroke-width="1px">1.2e+3</text><text x="0" y="0" dx="0em" dy="0.3em" style="text-anchor: end; visibility: hidden; font-family: &quot;Helvetica Neue&quot;, sans-serif; font-size: 12px; font-weight: 200;" fill="rgb(50, 49, 63)" stroke="none" stroke-width="1px">1.4e+3</text></g><line x1="64" y1="0" x2="64" y2="177" fill="rgb(0, 0, 0)" stroke="rgb(204, 204, 204)" stroke-width="1px"></line></g></g><g transform="translate(64, 0)" clip-path="url(#clip_0)"><clipPath id="clip_0"><rect width="266" height="177"></rect></clipPath><g><g><g><line x1="0" y1="0" x2="0" y2="177" fill="rgb(0, 0, 0)" stroke="rgb(60, 60, 60)" stroke-width="1px" opacity="0.25"></line><line x1="22.166666666666664" y1="0" x2="22.166666666666664" y2="177" fill="rgb(0, 0, 0)" stroke="rgb(60, 60, 60)" stroke-width="1px" opacity="0.25"></line><line x1="44.33333333333333" y1="0" x2="44.33333333333333" y2="177" fill="rgb(0, 0, 0)" stroke="rgb(60, 60, 60)" stroke-width="1px" opacity="0.25"></line><line x1="66.5" y1="0" x2="66.5" y2="177" fill="rgb(0, 0, 0)" stroke="rgb(60, 60, 60)" stroke-width="1px" opacity="0.25"></line><line x1="88.66666666666666" y1="0" x2="88.66666666666666" y2="177" fill="rgb(0, 0, 0)" stroke="rgb(60, 60, 60)" stroke-width="1px" opacity="0.25"></line><line x1="110.83333333333334" y1="0" x2="110.83333333333334" y2="177" fill="rgb(0, 0, 0)" stroke="rgb(60, 60, 60)" stroke-width="1px" opacity="0.25"></line><line x1="133" y1="0" x2="133" y2="177" fill="rgb(0, 0, 0)" stroke="rgb(60, 60, 60)" stroke-width="1px" opacity="0.25"></line><line x1="155.16666666666669" y1="0" x2="155.16666666666669" y2="177" fill="rgb(0, 0, 0)" stroke="rgb(60, 60, 60)" stroke-width="1px" opacity="0.25"></line><line x1="177.33333333333331" y1="0" x2="177.33333333333331" y2="177" fill="rgb(0, 0, 0)" stroke="rgb(60, 60, 60)" stroke-width="1px" opacity="0.25"></line><line x1="199.5" y1="0" x2="199.5" y2="177" fill="rgb(0, 0, 0)" stroke="rgb(60, 60, 60)" stroke-width="1px" opacity="0.25"></line><line x1="221.66666666666669" y1="0" x2="221.66666666666669" y2="177" fill="rgb(0, 0, 0)" stroke="rgb(60, 60, 60)" stroke-width="1px" opacity="0.25"></line><line x1="243.83333333333331" y1="0" x2="243.83333333333331" y2="177" fill="rgb(0, 0, 0)" stroke="rgb(60, 60, 60)" stroke-width="1px" opacity="0.25"></line><line x1="266" y1="0" x2="266" y2="177" fill="rgb(0, 0, 0)" stroke="rgb(60, 60, 60)" stroke-width="1px" opacity="0.25"></line></g><g><line x1="0" y1="177" x2="266" y2="177" fill="rgb(0, 0, 0)" stroke="rgb(60, 60, 60)" stroke-width="1px" opacity="0.25"></line><line x1="0" y1="154.875" x2="266" y2="154.875" fill="rgb(0, 0, 0)" stroke="rgb(60, 60, 60)" stroke-width="1px" opacity="0.25"></line><line x1="0" y1="132.75" x2="266" y2="132.75" fill="rgb(0, 0, 0)" stroke="rgb(60, 60, 60)" stroke-width="1px" opacity="0.25"></line><line x1="0" y1="110.625" x2="266" y2="110.625" fill="rgb(0, 0, 0)" stroke="rgb(60, 60, 60)" stroke-width="1px" opacity="0.25"></line><line x1="0" y1="88.5" x2="266" y2="88.5" fill="rgb(0, 0, 0)" stroke="rgb(60, 60, 60)" stroke-width="1px" opacity="0.25"></line><line x1="0" y1="66.375" x2="266" y2="66.375" fill="rgb(0, 0, 0)" stroke="rgb(60, 60, 60)" stroke-width="1px" opacity="0.25"></line><line x1="0" y1="44.25" x2="266" y2="44.25" fill="rgb(0, 0, 0)" stroke="rgb(60, 60, 60)" stroke-width="1px" opacity="0.25"></line><line x1="0" y1="22.125" x2="266" y2="22.125" fill="rgb(0, 0, 0)" stroke="rgb(60, 60, 60)" stroke-width="1px" opacity="0.25"></line><line x1="0" y1="0" x2="266" y2="0" fill="rgb(0, 0, 0)" stroke="rgb(60, 60, 60)" stroke-width="1px" opacity="0.25"></line></g></g></g><g><g><line x1="0" y1="154.875" x2="266" y2="154.875" fill="rgb(0, 0, 0)" stroke="rgb(153, 153, 153)" stroke-width="1.5px"></line></g></g><g><g><line x1="22.166666666666664" y1="0" x2="22.166666666666664" y2="177" fill="rgb(0, 0, 0)" stroke="rgb(153, 153, 153)" stroke-width="1.5px"></line></g></g><g><g><g><g><g><path stroke="rgb(0, 119, 187)" stroke-width="2px" d="M26.962380666666668,99.10796453475952L27.378493333333335,105.89940184895364L27.575554999999998,104.66506020468373L27.99118,103.71300121075281L28.18926133333333,92.67102914918313L28.385569333333333,99.26893152762987L28.798844666666668,101.17164911982705L28.995330000000003,96.99258931961107L29.410334333333335,97.60943524839395L29.607440333333333,102.10462513233813L30.022267333333335,98.82983413990122L30.436207666666668,99.28087719094958L30.852054333333335,99.02676825234437L31.26745766666667,94.67071179296063L31.683215666666666,91.99944859701137L32.09977166666667,108.99069456025605L32.29408466666667,87.61233376432416L32.70634033333334,74.71543418196893L32.901141,67.89622603305091L33.094922,69.29570676135106L33.50425166666666,92.19348348638775L33.91238433333333,87.72789765421996L34.10616533333334,90.54134423315453L34.514697,88.05736202837166L34.70794600000001,71.81307162296234L35.11696533333333,92.94212431386575L35.309239000000005,88.14441870602737L35.499163,83.14099624584547L35.90765033333333,78.18141919518821L36.315517,91.8782993221614L64.86308033333333,69.29142417363337L65.26664666666666,90.61254625895394L65.45559533333333,91.77076659016369L65.859871,98.15706829867403L66.04775566666666,104.1413050174197L66.23634966666667,86.71604694720004L66.42454466666668,95.11767332068355L118.53416633333333,81.2706939472345L118.94699833333334,59.309073961369705L119.13962666666666,61.51617750545881L119.33234366666666,79.31045084852427L119.740831,78.54378423148734L119.93283866666667,52.80420778771412L120.34203533333333,74.5427438444955L120.75034533333333,62.1496655758703L120.94186533333334,79.87463308543691L121.13382866666667,61.43607437501137L121.32490533333333,67.2015178054776L121.51682433333333,71.99504091283247L154.13578366666667,60.98511326460927L154.31356033333336,33.50536726727876L154.7024966666667,59.08745320172345L154.88399733333335,45.77409805476282L155.06554233333333,63.34457884629764L155.45173,62.92503309723388L155.84252833333335,56.04286986277886L156.23443500000002,74.3276529422864L156.41735433333332,46.758200368072664L156.59969733333332,77.76527522488284L156.78217333333333,79.98526843512016L156.965004,65.71988164417826L159.05545366666666,56.92100667175407L159.26914033333333,63.978249917911455L159.48220633333335,47.55345397052969L200.352663,35.22799298263618L200.54360666666665,35.676317314813446L200.736368,41.65257854375801L208.568206,41.77971545306596L208.76562233333334,37.47643839055695L208.96498933333334,44.513122410652784L209.38996866666668,48.16657572361805L209.58915833333333,38.15260326839865L209.78856966666666,39.99805186054516L210.21337166666666,36.37793034024608L210.41194066666668,39.9483859752151L210.83669833333332,40.89012029139491L211.26194366666667,45.204664479358826L211.460158,44.985999284931665L211.66027866666667,40.55048529031376L211.85973433333334,49.89815326092965L212.28750666666664,52.48928444873847L212.4877603333333,37.69773234378445L212.6875706666667,49.59165755170436L213.114146,47.76681575103353L213.31413366666666,42.56001208602976L213.74053166666667,35.971205377587495L214.166442,40.53271847170876L214.36696166666667,40.02797477654812L214.56690500000002,45.029959541782375L214.766405,39.745528521424006L214.96648133333332,42.66893460328953L215.393101,45.034547335109266L215.81954333333334,42.97992708712525L216.01997433333332,41.78925429356653L216.44668266666665,46.901543990227395L216.87241566666665,47.02310276598541L217.07231466666667,29.99842378115011L217.271859,41.41722760462946L217.47064966666667,44.93503241929088L217.891639,41.127433326586356L218.313914,52.802861897202305L218.51097566666667,40.7147273974922L218.931034,40.597799454358295L219.12805133333333,43.39561732169469L219.549218,36.40969938356818L219.745925,41.27470049146848L220.16762366666669,39.08741721926657L233.58581633333333,49.3314540215145L234.00343633333333,37.40753016805198L234.19774933333335,40.01991350558117L234.61687666666668,38.88605563707873L234.81220933333333,36.0097933716402L235.23089333333334,41.77872751992945L235.649134,38.114591085190625L236.067419,41.964758285779L236.26257433333333,29.44069781059048L236.4578183333333,33.43401791858608L236.65292933333333,37.279856082060775L237.07054933333333,36.041984829221974L237.48861266666668,33.283175859011266L237.683901,40.2075641030564L238.10209733333335,42.310101998656506L238.29907033333333,36.77840995138217L238.49542266666666,37.45571280408117L238.91876166666668,32.99724149522007L239.34343066666668,43.6814533058955L239.543241,32.50027641542991L239.74974566666666,35.863686935474306L240.17672,42.13102142779792L240.3784366666667,25.304099492567474L240.58033066666667,37.67299285852951L240.782801,37.188501685620224L240.98491666666666,33.636797919844184L241.41366433333334,36.63001650416902L241.61476033333332,29.480807244987147L242.042577,29.240570281280213L242.244205,34.61629002352376L242.44614333333334,34.28048080745032L242.64723933333332,36.88247333488539L243.07545499999998,36.5152363930699L243.50344900000002,36.13766545318708L243.83333333333331,23.868229382784193" style="fill: none;" fill="none"></path></g></g></g></g><g opacity="0.2"><g><g><g><path stroke="rgb(0, 119, 187)" stroke-width="2px" d="M26.962380666666668,99.10796453475952L27.378493333333335,106.24576515197754L27.575554999999998,104.59889825820923L27.99118,103.6618436050415L28.18926133333333,92.07762897491455L28.385569333333333,99.6235078239441L28.798844666666668,101.27390264511108L28.995330000000003,96.76800338745117L29.410334333333335,97.64258502960205L29.607440333333333,102.34620014190673L30.022267333333335,98.65384431838989L30.436207666666668,99.30511659622192L30.852054333333335,99.01311223983765L31.26745766666667,94.43661392211914L31.683215666666666,91.85589282989503L32.09977166666667,109.90381736755371L32.29408466666667,86.46344398498535L32.70634033333334,74.02234474182129L32.901141,67.52975646972655L33.094922,69.37091594696045L33.50425166666666,93.42402786254883L33.91238433333333,87.48791358947754L34.10616533333334,90.69254104614258L34.514697,87.92387088775635L34.70794600000001,70.94009078979491L35.11696533333333,94.07761608123779L35.309239000000005,87.88658626556398L35.499163,82.87210842132568L35.90765033333333,77.91488765716552L36.315517,92.61438034057618L64.86308033333333,68.077587890625L65.26664666666666,91.75835998535156L65.45559533333333,91.83301025390625L65.859871,98.50027313232422L66.04775566666666,104.46290256500244L66.23634966666667,85.77959999084473L66.42454466666668,95.56918327331543L118.53416633333333,80.52654647827148L118.94699833333334,58.12883937835693L119.13962666666666,61.63478897094727L119.33234366666666,80.26672897338868L119.740831,78.50258296966553L119.93283866666667,51.42094287872315L120.34203533333333,75.71098972320557L120.75034533333333,61.48365188598633L120.94186533333334,80.82718666076661L121.13382866666667,60.44517185211181L121.32490533333333,67.51135723114012L121.51682433333333,72.25264858245849L154.13578366666667,60.39343116760254L154.31356033333336,32.02858428955079L154.7024966666667,60.462254447937L154.88399733333335,45.05862796783447L155.06554233333333,64.28883018493651L155.45173,62.902486381530764L155.84252833333335,55.67301704406738L156.23443500000002,75.31029144287109L156.41735433333332,45.276596488952634L156.59969733333332,79.43161960601806L156.78217333333333,80.10457260131837L156.965004,64.95324863433837L159.05545366666666,56.448148269653316L159.26914033333333,64.35751167297363L159.48220633333335,46.67077262878419L200.352663,34.565613098144524L200.54360666666665,35.70041061401366L200.736368,41.973747482299814L208.568206,41.78654788970948L208.76562233333334,37.245176925659166L208.96498933333334,44.89127929687501L209.38996866666668,48.36291515350342L209.58915833333333,37.61444458007813L209.78856966666666,40.097227706909166L210.21337166666666,36.183382186889645L210.41194066666668,40.14026504516602L210.83669833333332,40.94072982788086L211.26194366666667,45.43653144836426L211.460158,44.974248046875005L211.66027866666667,40.31211730957031L211.85973433333334,50.400504226684575L212.28750666666664,52.628533859252926L212.4877603333333,36.90282279968261L212.6875706666667,50.23084636688232L213.114146,47.66874732971192L213.31413366666666,42.28019439697266L213.74053166666667,35.61711776733398L214.166442,40.77785774230958L214.36696166666667,40.00084945678711L214.56690500000002,45.298770103454586L214.766405,39.4615390777588L214.96648133333332,42.826040725708L215.393101,45.16167720794678L215.81954333333334,42.869510192871104L216.01997433333332,41.72526660919189L216.44668266666665,47.17628242492677L216.87241566666665,47.029635429382324L217.07231466666667,29.08350425720215L217.271859,42.030883026123036L217.47064966666667,45.12408199310303L217.891639,40.92280998229981L218.313914,53.43030853271485L218.51097566666667,40.065101623535156L218.931034,40.59151565551758L219.12805133333333,43.54597423553466L219.549218,36.034270706176756L219.745925,41.536149444580076L220.16762366666669,38.969870910644545L233.58581633333333,49.88197654724121L234.00343633333333,36.76672920227051L234.19774933333335,40.16030502319336L234.61687666666668,38.825121231079095L234.81220933333333,35.855220794677734L235.23089333333334,42.08875453948974L235.649134,37.91767753601073L236.067419,42.171669273376466L236.26257433333333,28.767645034790036L236.4578183333333,33.64862205505372L236.65292933333333,37.48653442382812L237.07054933333333,35.97546066284178L237.48861266666668,33.13491531372071L237.683901,40.57968612670899L238.10209733333335,42.42309402465821L238.29907033333333,36.48113250732422L238.49542266666666,37.49211158752442L238.91876166666668,32.75763977050781L239.34343066666668,44.25563117980957L239.543241,31.899391250610364L239.74974566666666,36.04443923950194L240.17672,42.46783287048339L240.3784366666667,24.39980758666991L240.58033066666667,38.33770683288574L240.782801,37.16246475219725L240.98491666666666,33.44592658996581L241.41366433333334,36.790874404907214L241.61476033333332,29.096603164672842L242.042577,29.227659759521487L242.244205,34.905185394287116L242.44614333333334,34.26243415832519L242.64723933333332,37.02230644226074L243.07545499999998,36.49550079345704L243.50344900000002,36.11737449645997L243.83333333333331,23.20886032104491" style="fill: none;" fill="none"></path></g></g></g></g></g></g><g transform="translate(64, 177)" clip-path="url(#clip_1)"><clipPath id="clip_1"><rect width="266" height="23"></rect></clipPath><g><g><line x1="0" y1="0" x2="0" y2="5" style="visibility: inherit;" fill="rgb(0, 0, 0)" stroke="rgb(204, 204, 204)" stroke-width="1px"></line><line x1="22.166666666666664" y1="0" x2="22.166666666666664" y2="5" style="visibility: inherit;" fill="rgb(0, 0, 0)" stroke="rgb(204, 204, 204)" stroke-width="1px"></line><line x1="44.33333333333333" y1="0" x2="44.33333333333333" y2="5" style="visibility: inherit;" fill="rgb(0, 0, 0)" stroke="rgb(204, 204, 204)" stroke-width="1px"></line><line x1="66.5" y1="0" x2="66.5" y2="5" style="visibility: inherit;" fill="rgb(0, 0, 0)" stroke="rgb(204, 204, 204)" stroke-width="1px"></line><line x1="88.66666666666666" y1="0" x2="88.66666666666666" y2="5" style="visibility: inherit;" fill="rgb(0, 0, 0)" stroke="rgb(204, 204, 204)" stroke-width="1px"></line><line x1="110.83333333333334" y1="0" x2="110.83333333333334" y2="5" style="visibility: inherit;" fill="rgb(0, 0, 0)" stroke="rgb(204, 204, 204)" stroke-width="1px"></line><line x1="133" y1="0" x2="133" y2="5" style="visibility: inherit;" fill="rgb(0, 0, 0)" stroke="rgb(204, 204, 204)" stroke-width="1px"></line><line x1="155.16666666666669" y1="0" x2="155.16666666666669" y2="5" style="visibility: inherit;" fill="rgb(0, 0, 0)" stroke="rgb(204, 204, 204)" stroke-width="1px"></line><line x1="177.33333333333331" y1="0" x2="177.33333333333331" y2="5" style="visibility: inherit;" fill="rgb(0, 0, 0)" stroke="rgb(204, 204, 204)" stroke-width="1px"></line><line x1="199.5" y1="0" x2="199.5" y2="5" style="visibility: inherit;" fill="rgb(0, 0, 0)" stroke="rgb(204, 204, 204)" stroke-width="1px"></line><line x1="221.66666666666669" y1="0" x2="221.66666666666669" y2="5" style="visibility: inherit;" fill="rgb(0, 0, 0)" stroke="rgb(204, 204, 204)" stroke-width="1px"></line><line x1="243.83333333333331" y1="0" x2="243.83333333333331" y2="5" style="visibility: inherit;" fill="rgb(0, 0, 0)" stroke="rgb(204, 204, 204)" stroke-width="1px"></line><line x1="266" y1="0" x2="266" y2="5" style="visibility: inherit;" fill="rgb(0, 0, 0)" stroke="rgb(204, 204, 204)" stroke-width="1px"></line></g><g transform="translate(0, 8)"><text x="0" y="0" dx="0em" dy="0.95em" style="text-anchor: middle; visibility: hidden; font-family: &quot;Helvetica Neue&quot;, sans-serif; font-size: 12px; font-weight: 200;" fill="rgb(50, 49, 63)" stroke="none" stroke-width="1px">-500k</text><text x="22.166666666666664" y="0" dx="0em" dy="0.95em" style="text-anchor: middle; visibility: inherit; font-family: &quot;Helvetica Neue&quot;, sans-serif; font-size: 12px; font-weight: 200;" fill="rgb(50, 49, 63)" stroke="none" stroke-width="1px">0</text><text x="44.33333333333333" y="0" dx="0em" dy="0.95em" style="text-anchor: middle; visibility: hidden; font-family: &quot;Helvetica Neue&quot;, sans-serif; font-size: 12px; font-weight: 200;" fill="rgb(50, 49, 63)" stroke="none" stroke-width="1px">500k</text><text x="66.5" y="0" dx="0em" dy="0.95em" style="text-anchor: middle; visibility: inherit; font-family: &quot;Helvetica Neue&quot;, sans-serif; font-size: 12px; font-weight: 200;" fill="rgb(50, 49, 63)" stroke="none" stroke-width="1px">1M</text><text x="88.66666666666666" y="0" dx="0em" dy="0.95em" style="text-anchor: middle; visibility: hidden; font-family: &quot;Helvetica Neue&quot;, sans-serif; font-size: 12px; font-weight: 200;" fill="rgb(50, 49, 63)" stroke="none" stroke-width="1px">1.5M</text><text x="110.83333333333334" y="0" dx="0em" dy="0.95em" style="text-anchor: middle; visibility: inherit; font-family: &quot;Helvetica Neue&quot;, sans-serif; font-size: 12px; font-weight: 200;" fill="rgb(50, 49, 63)" stroke="none" stroke-width="1px">2M</text><text x="133" y="0" dx="0em" dy="0.95em" style="text-anchor: middle; visibility: hidden; font-family: &quot;Helvetica Neue&quot;, sans-serif; font-size: 12px; font-weight: 200;" fill="rgb(50, 49, 63)" stroke="none" stroke-width="1px">2.5M</text><text x="155.16666666666669" y="0" dx="0em" dy="0.95em" style="text-anchor: middle; visibility: inherit; font-family: &quot;Helvetica Neue&quot;, sans-serif; font-size: 12px; font-weight: 200;" fill="rgb(50, 49, 63)" stroke="none" stroke-width="1px">3M</text><text x="177.33333333333331" y="0" dx="0em" dy="0.95em" style="text-anchor: middle; visibility: hidden; font-family: &quot;Helvetica Neue&quot;, sans-serif; font-size: 12px; font-weight: 200;" fill="rgb(50, 49, 63)" stroke="none" stroke-width="1px">3.5M</text><text x="199.5" y="0" dx="0em" dy="0.95em" style="text-anchor: middle; visibility: inherit; font-family: &quot;Helvetica Neue&quot;, sans-serif; font-size: 12px; font-weight: 200;" fill="rgb(50, 49, 63)" stroke="none" stroke-width="1px">4M</text><text x="221.66666666666669" y="0" dx="0em" dy="0.95em" style="text-anchor: middle; visibility: hidden; font-family: &quot;Helvetica Neue&quot;, sans-serif; font-size: 12px; font-weight: 200;" fill="rgb(50, 49, 63)" stroke="none" stroke-width="1px">4.5M</text><text x="243.83333333333331" y="0" dx="0em" dy="0.95em" style="text-anchor: middle; visibility: inherit; font-family: &quot;Helvetica Neue&quot;, sans-serif; font-size: 12px; font-weight: 200;" fill="rgb(50, 49, 63)" stroke="none" stroke-width="1px">5M</text><text x="266" y="0" dx="0em" dy="0.95em" style="text-anchor: middle; visibility: hidden; font-family: &quot;Helvetica Neue&quot;, sans-serif; font-size: 12px; font-weight: 200;" fill="rgb(50, 49, 63)" stroke="none" stroke-width="1px">5.5M</text></g><line x1="0" y1="0" x2="266" y2="0" fill="rgb(0, 0, 0)" stroke="rgb(204, 204, 204)" stroke-width="1px"></line></g></g></g></g></svg>