<svg viewBox="0 0 330 200" xmlns="http://www.w3.org/2000/svg"><g><g><g><g><g><line x1="46" y1="177" x2="41" y2="177" style="visibility: inherit;" fill="rgb(0, 0, 0)" stroke="rgb(204, 204, 204)" stroke-width="1px"></line><line x1="46" y1="154.875" x2="41" y2="154.875" style="visibility: inherit;" fill="rgb(0, 0, 0)" stroke="rgb(204, 204, 204)" stroke-width="1px"></line><line x1="46" y1="132.75" x2="41" y2="132.75" style="visibility: inherit;" fill="rgb(0, 0, 0)" stroke="rgb(204, 204, 204)" stroke-width="1px"></line><line x1="46" y1="110.625" x2="41" y2="110.625" style="visibility: inherit;" fill="rgb(0, 0, 0)" stroke="rgb(204, 204, 204)" stroke-width="1px"></line><line x1="46" y1="88.5" x2="41" y2="88.5" style="visibility: inherit;" fill="rgb(0, 0, 0)" stroke="rgb(204, 204, 204)" stroke-width="1px"></line><line x1="46" y1="66.375" x2="41" y2="66.375" style="visibility: inherit;" fill="rgb(0, 0, 0)" stroke="rgb(204, 204, 204)" stroke-width="1px"></line><line x1="46" y1="44.25" x2="41" y2="44.25" style="visibility: inherit;" fill="rgb(0, 0, 0)" stroke="rgb(204, 204, 204)" stroke-width="1px"></line><line x1="46" y1="22.125" x2="41" y2="22.125" style="visibility: inherit;" fill="rgb(0, 0, 0)" stroke="rgb(204, 204, 204)" stroke-width="1px"></line><line x1="46" y1="0" x2="41" y2="0" style="visibility: inherit;" fill="rgb(0, 0, 0)" stroke="rgb(204, 204, 204)" stroke-width="1px"></line></g><g transform="translate(36, 0)"><text x="0" y="177" dx="0em" dy="0.3em" style="text-anchor: end; visibility: hidden; font-family: &quot;Helvetica Neue&quot;, sans-serif; font-size: 12px; font-weight: 200;" fill="rgb(50, 49, 63)" stroke="none" stroke-width="1px">-0.5</text><text x="0" y="154.875" dx="0em" dy="0.3em" style="text-anchor: end; visibility: inherit; font-family: &quot;Helvetica Neue&quot;, sans-serif; font-size: 12px; font-weight: 200;" fill="rgb(50, 49, 63)" stroke="none" stroke-width="1px">0</text><text x="0" y="132.75" dx="0em" dy="0.3em" style="text-anchor: end; visibility: hidden; font-family: &quot;Helvetica Neue&quot;, sans-serif; font-size: 12px; font-weight: 200;" fill="rgb(50, 49, 63)" stroke="none" stroke-width="1px">0.5</text><text x="0" y="110.625" dx="0em" dy="0.3em" style="text-anchor: end; visibility: inherit; font-family: &quot;Helvetica Neue&quot;, sans-serif; font-size: 12px; font-weight: 200;" fill="rgb(50, 49, 63)" stroke="none" stroke-width="1px">1</text><text x="0" y="88.5" dx="0em" dy="0.3em" style="text-anchor: end; visibility: hidden; font-family: &quot;Helvetica Neue&quot;, sans-serif; font-size: 12px; font-weight: 200;" fill="rgb(50, 49, 63)" stroke="none" stroke-width="1px">1.5</text><text x="0" y="66.375" dx="0em" dy="0.3em" style="text-anchor: end; visibility: inherit; font-family: &quot;Helvetica Neue&quot;, sans-serif; font-size: 12px; font-weight: 200;" fill="rgb(50, 49, 63)" stroke="none" stroke-width="1px">2</text><text x="0" y="44.25" dx="0em" dy="0.3em" style="text-anchor: end; visibility: hidden; font-family: &quot;Helvetica Neue&quot;, sans-serif; font-size: 12px; font-weight: 200;" fill="rgb(50, 49, 63)" stroke="none" stroke-width="1px">2.5</text><text x="0" y="22.125" dx="0em" dy="0.3em" style="text-anchor: end; visibility: inherit; font-family: &quot;Helvetica Neue&quot;, sans-serif; font-size: 12px; font-weight: 200;" fill="rgb(50, 49, 63)" stroke="none" stroke-width="1px">3</text><text x="0" y="0" dx="0em" dy="0.3em" style="text-anchor: end; visibility: hidden; font-family: &quot;Helvetica Neue&quot;, sans-serif; font-size: 12px; font-weight: 200;" fill="rgb(50, 49, 63)" stroke="none" stroke-width="1px">3.5</text></g><line x1="46" y1="0" x2="46" y2="177" fill="rgb(0, 0, 0)" stroke="rgb(204, 204, 204)" stroke-width="1px"></line></g></g><g transform="translate(46, 0)" clip-path="url(#clip_0)"><clipPath id="clip_0"><rect width="284" height="177"></rect></clipPath><g><g><g><line x1="0" y1="0" x2="0" y2="177" fill="rgb(0, 0, 0)" stroke="rgb(60, 60, 60)" stroke-width="1px" opacity="0.25"></line><line x1="23.666666666666664" y1="0" x2="23.666666666666664" y2="177" fill="rgb(0, 0, 0)" stroke="rgb(60, 60, 60)" stroke-width="1px" opacity="0.25"></line><line x1="47.33333333333333" y1="0" x2="47.33333333333333" y2="177" fill="rgb(0, 0, 0)" stroke="rgb(60, 60, 60)" stroke-width="1px" opacity="0.25"></line><line x1="71" y1="0" x2="71" y2="177" fill="rgb(0, 0, 0)" stroke="rgb(60, 60, 60)" stroke-width="1px" opacity="0.25"></line><line x1="94.66666666666666" y1="0" x2="94.66666666666666" y2="177" fill="rgb(0, 0, 0)" stroke="rgb(60, 60, 60)" stroke-width="1px" opacity="0.25"></line><line x1="118.33333333333334" y1="0" x2="118.33333333333334" y2="177" fill="rgb(0, 0, 0)" stroke="rgb(60, 60, 60)" stroke-width="1px" opacity="0.25"></line><line x1="142" y1="0" x2="142" y2="177" fill="rgb(0, 0, 0)" stroke="rgb(60, 60, 60)" stroke-width="1px" opacity="0.25"></line><line x1="165.66666666666669" y1="0" x2="165.66666666666669" y2="177" fill="rgb(0, 0, 0)" stroke="rgb(60, 60, 60)" stroke-width="1px" opacity="0.25"></line><line x1="189.33333333333331" y1="0" x2="189.33333333333331" y2="177" fill="rgb(0, 0, 0)" stroke="rgb(60, 60, 60)" stroke-width="1px" opacity="0.25"></line><line x1="213" y1="0" x2="213" y2="177" fill="rgb(0, 0, 0)" stroke="rgb(60, 60, 60)" stroke-width="1px" opacity="0.25"></line><line x1="236.66666666666669" y1="0" x2="236.66666666666669" y2="177" fill="rgb(0, 0, 0)" stroke="rgb(60, 60, 60)" stroke-width="1px" opacity="0.25"></line><line x1="260.3333333333333" y1="0" x2="260.3333333333333" y2="177" fill="rgb(0, 0, 0)" stroke="rgb(60, 60, 60)" stroke-width="1px" opacity="0.25"></line><line x1="284" y1="0" x2="284" y2="177" fill="rgb(0, 0, 0)" stroke="rgb(60, 60, 60)" stroke-width="1px" opacity="0.25"></line></g><g><line x1="0" y1="177" x2="284" y2="177" fill="rgb(0, 0, 0)" stroke="rgb(60, 60, 60)" stroke-width="1px" opacity="0.25"></line><line x1="0" y1="154.875" x2="284" y2="154.875" fill="rgb(0, 0, 0)" stroke="rgb(60, 60, 60)" stroke-width="1px" opacity="0.25"></line><line x1="0" y1="132.75" x2="284" y2="132.75" fill="rgb(0, 0, 0)" stroke="rgb(60, 60, 60)" stroke-width="1px" opacity="0.25"></line><line x1="0" y1="110.625" x2="284" y2="110.625" fill="rgb(0, 0, 0)" stroke="rgb(60, 60, 60)" stroke-width="1px" opacity="0.25"></line><line x1="0" y1="88.5" x2="284" y2="88.5" fill="rgb(0, 0, 0)" stroke="rgb(60, 60, 60)" stroke-width="1px" opacity="0.25"></line><line x1="0" y1="66.375" x2="284" y2="66.375" fill="rgb(0, 0, 0)" stroke="rgb(60, 60, 60)" stroke-width="1px" opacity="0.25"></line><line x1="0" y1="44.25" x2="284" y2="44.25" fill="rgb(0, 0, 0)" stroke="rgb(60, 60, 60)" stroke-width="1px" opacity="0.25"></line><line x1="0" y1="22.125" x2="284" y2="22.125" fill="rgb(0, 0, 0)" stroke="rgb(60, 60, 60)" stroke-width="1px" opacity="0.25"></line><line x1="0" y1="0" x2="284" y2="0" fill="rgb(0, 0, 0)" stroke="rgb(60, 60, 60)" stroke-width="1px" opacity="0.25"></line></g></g></g><g><g><line x1="0" y1="154.875" x2="284" y2="154.875" fill="rgb(0, 0, 0)" stroke="rgb(153, 153, 153)" stroke-width="1.5px"></line></g></g><g><g><line x1="23.666666666666664" y1="0" x2="23.666666666666664" y2="177" fill="rgb(0, 0, 0)" stroke="rgb(153, 153, 153)" stroke-width="1.5px"></line></g></g><g><g><g><g><g><path stroke="rgb(0, 119, 187)" stroke-width="2px" d="M28.786902666666666,10.015019953250885L29.231173333333334,23.795436769468694L29.44157,15.487974056048614L29.88532,24.683227321434686L30.096805333333332,24.199093355974526L30.306397333333333,13.112255837028329L30.747638666666667,18.339022868238317L30.957420000000003,20.20148614715268L31.400507333333334,30.20888373157939L31.610951333333333,20.87972618798284L32.05384933333333,19.191739764816106L32.49580066666667,28.812108159122204L32.939787333333335,33.04775473451906L33.38330066666667,38.72976822771423L33.82719266666667,42.097300884097905L34.27193666666667,48.1601588679209L34.47939866666667,39.8856713747378L34.91955133333334,33.79677678471259L35.127534000000004,25.389712395028283L35.334428,39.751146278231886L35.771456666666666,36.88919171066476L36.20720733333333,53.61310279829246L36.414101333333335,42.16993021565287L36.850277999999996,56.815397329663014L37.05660400000001,45.539741140032106L37.493301333333335,36.293044270766416L37.698586000000006,44.57681122353307L37.901362,37.36264244830073L38.33749133333333,43.618970247327184L38.772957999999996,37.91625290127911L69.25231133333334,89.21204982406526L69.68318666666666,93.58410502435306L69.88492133333334,94.98907311151464L70.316554,87.63788122280333L70.51715266666666,80.82831672468323L70.71850866666666,77.67960936656164L70.91943866666666,91.18166627872347L126.55527533333334,107.22337339966303L126.99604333333333,104.41971000260205L127.20170666666667,106.68954310178292L127.40746466666667,109.6937181745503L127.843594,99.71769489610406L128.04859466666667,103.36886162218427L128.48548133333333,103.3711462120166L128.92142133333334,106.51750458791828L129.12590133333333,106.5813032851146L129.33085466666668,105.03513942909656L129.53486133333334,106.511099114382L129.73976733333333,109.79129007617887L164.56602466666666,108.1580069272138L164.75583133333336,108.11171873740648L165.17108666666667,104.94784291615036L165.36486933333336,106.82537808890669L165.55869933333332,109.07046226843846L165.97101999999998,107.69859936535774L166.38826333333333,104.68339282521329L166.80669,106.13824067173088L167.00198733333335,105.63881204560937L167.19666933333335,107.27109831340921L167.39149333333333,110.17056217491785L167.586696,106.25503134891102L169.8186046666667,97.31013291030526L170.04675133333333,96.3346822261554L170.27423533333334,95.21792845621574L213.910362,107.41932593738476L214.11422666666664,105.09097924841173L214.320032,104.51155274579574L222.68184399999998,99.3370803742106L222.89261933333333,104.44494513008726L223.10547733333334,107.38743299933294L223.5592146666667,108.2923424220015L223.77188333333334,102.85515154495562L223.98478866666667,106.22187184606821L224.43833666666666,107.5999570147202L224.6503426666667,105.17873033984068L225.10384333333332,104.47328694727302L225.55786466666666,105.57032404408237L225.76949199999999,99.90683438435529L225.98315466666668,108.21823444413963L226.19610733333334,107.32137167518178L226.65282666666667,107.72714153001017L226.86663133333332,105.79003991804059L227.0799626666667,107.07684444996912L227.535404,105.1385654741056L227.74892466666665,108.13542969652116L228.20417666666665,103.88361826946371L228.658908,94.76377585130842L228.87299666666667,108.1513120609869L229.08647000000002,107.52533658889888L229.29946999999999,104.87431526894318L229.51308533333332,107.82233969799144L229.968574,111.60045905377969L230.42387333333335,106.91222968718203L230.63786733333333,106.27200037149647L231.09345066666666,105.60196157280915L231.54799266666666,108.40267417585055L231.76141866666666,109.16197260280963L231.974466,107.71381900984134L232.18670866666668,107.88323905386709L232.63618599999998,106.62179087136415L233.087036,106.9833162004078L233.29743266666668,109.92849840785966L233.74591600000002,104.86643555757763L233.95626533333333,109.53663804548846L234.405932,105.82499068841648L234.61595,106.64038795076938L235.0661846666667,105.93535550398629L249.39237533333335,108.19835764146957L249.83825533333334,109.39029791994724L250.04571733333336,108.76280391599968L250.49320666666668,109.62755894603032L250.70175733333332,105.10038071686056L251.14877333333334,100.03811790292974L251.595316,106.50805208711844L252.04190599999998,109.86406688051503L252.25026733333334,103.43977766897292L252.45872333333332,108.0898405995465L252.66703733333333,106.25291890328242L253.11291733333331,110.48890023939988L253.5592706666667,109.16888618224037L253.767774,104.0623852770568L254.21426933333333,109.18970569540194L254.42457133333335,109.77115659986958L254.63421066666666,109.73251393584238L255.0861966666667,105.91856529869179L255.53960266666667,108.77781019793386L255.752934,108.52769327676802L255.97341266666666,107.90087309663835L256.42928,107.10018112832758L256.6446466666667,110.01008894809382L256.8602026666667,108.62413466170612L257.076374,109.96706620807403L257.2921666666667,106.1850017314027L257.74992733333335,107.63910569601738L257.96463133333333,108.10196976019469L258.421398,106.82095593475132L258.63667,106.41650876001918L258.85227333333336,109.34341622755345L259.06697733333334,106.40359497702754L259.52416999999997,110.24985721489259L259.981126,107.01799781546796L260.3333333333333,109.16520240650293" style="fill: none;" fill="none"></path></g></g></g></g><g opacity="0.2"><g><g><g><path stroke="rgb(0, 119, 187)" stroke-width="2px" d="M28.786902666666666,10.015019953250885L29.231173333333334,24.498238027095795L29.44157,15.042685747146606L29.88532,25.17732185125351L30.096805333333332,24.173075795173645L30.306397333333333,12.516440749168396L30.747638666666667,18.619913399219513L30.957420000000003,20.301576375961304L31.400507333333334,30.746689081192017L31.610951333333333,20.378369987010956L32.05384933333333,19.10102605819702L32.49580066666667,29.329114258289337L32.939787333333335,33.275381684303284L33.38330066666667,39.03512406349182L33.82719266666667,42.27827471494675L34.27193666666667,48.485981583595276L34.47939866666667,39.44099396467209L34.91955133333334,33.4695548415184L35.127534000000004,24.937910199165344L35.334428,40.522940933704376L35.771456666666666,36.7353880405426L36.20720733333333,54.51185882091522L36.414101333333335,41.55496519804001L36.850277999999996,57.60245615243912L37.05660400000001,44.93377858400345L37.493301333333335,35.79611957073212L37.698586000000006,45.021987318992615L37.901362,36.97494739294052L38.33749133333333,43.95519018173218L38.772957999999996,37.60978442430496L69.25231133333334,91.96872594952583L69.68318666666666,93.81906268000603L69.88492133333334,95.0645771920681L70.316554,87.24282243847847L70.51715266666666,80.46236541867256L70.71850866666666,77.51039537787437L70.91943866666666,91.90727734565735L126.55527533333334,108.08546724915504L126.99604333333333,104.26903894543648L127.20170666666667,106.8115257024765L127.40746466666667,109.85516488552094L127.843594,99.18157562613487L128.04859466666667,103.56507816910744L128.48548133333333,103.37126898765564L128.92142133333334,106.68659234046936L129.12590133333333,106.58473187685013L129.33085466666668,104.95204737782478L129.53486133333334,106.59041833877563L129.73976733333333,109.96757009625435L164.56602466666666,108.07023301720619L164.75583133333336,108.10923117399216L165.17108666666667,104.77781376242638L165.36486933333336,106.92627829313278L165.55869933333332,109.1911148428917L165.97101999999998,107.62487438321114L166.38826333333333,104.52135327458382L166.80669,106.21642532944679L167.00198733333335,105.61197236180305L167.19666933333335,107.35881865024567L167.39149333333333,110.32638162374496L167.586696,106.04460766911507L169.8186046666667,96.82942709326744L170.04675133333333,96.28226074576378L170.27423533333334,95.15791323781013L213.910362,108.07503855228424L214.11422666666664,104.96585208177567L214.320032,104.4804139137268L222.68184399999998,99.05900019407272L222.89261933333333,104.71944576501846L223.10547733333334,107.54556459188461L223.5592146666667,108.34097295999527L223.77188333333334,102.56295266747475L223.98478866666667,106.40280202031136L224.43833666666666,107.67401638627052L224.6503426666667,105.04861173033714L225.10384333333332,104.43537586927414L225.55786466666666,105.62927967309952L225.76949199999999,99.60247403383255L225.98315466666668,108.6648955643177L226.19610733333334,107.27317357063293L226.65282666666667,107.74894791841507L226.86663133333332,105.68593856692314L227.0799626666667,107.14599832892418L227.535404,105.03440085053444L227.74892466666665,108.29648351669312L228.20417666666665,103.6551226079464L228.658908,94.27366840839386L228.87299666666667,108.87076869606972L229.08647000000002,107.49169617891312L229.29946999999999,104.73184731602669L229.51308533333332,107.98076882958412L229.968574,111.80349813401699L230.42387333333335,106.660280585289L230.63786733333333,106.2375939488411L231.09345066666666,105.56595316529274L231.54799266666666,108.55318665504456L231.76141866666666,109.20277789235115L231.974466,107.63599410653114L232.18670866666668,107.89234381914139L232.63618599999998,106.55399966239929L233.087036,107.00274485349655L233.29743266666668,110.08677479624748L233.74591600000002,104.59439635276794L233.95626533333333,109.78761836886406L234.405932,105.62552386522293L234.61595,106.68420803546906L235.0661846666667,105.89746651053429L249.39237533333335,108.31997314095497L249.83825533333334,109.45435371994972L250.04571733333336,108.72908189892769L250.49320666666668,109.67403155565262L250.70175733333332,104.85708662867546L251.14877333333334,99.76606795191765L251.595316,106.85575139522552L252.04190599999998,110.04442173242569L252.25026733333334,103.09453135728836L252.45872333333332,108.33973860740662L252.66703733333333,106.1542012989521L253.11291733333331,110.71654517948627L253.5592706666667,109.09794759750366L253.767774,103.78795793652534L254.21426933333333,109.4652518928051L254.42457133333335,109.80240422487259L254.63421066666666,109.73043724894524L255.0861966666667,105.71360072493553L255.53960266666667,108.93146824836731L255.752934,108.51425179839134L255.97341266666666,107.86718729138374L256.42928,107.05715131759644L256.6446466666667,110.16646966338158L256.8602026666667,108.5496523976326L257.076374,110.03923639655113L257.2921666666667,105.98175063729286L257.74992733333335,107.71725037693977L257.96463133333333,108.12684443593025L258.421398,106.75211325287819L258.63667,106.39477345347404L258.85227333333336,109.50071051716805L259.06697733333334,106.24560669064522L259.52416999999997,110.45655834674835L259.981126,106.84431517124176L260.3333333333333,109.28059485554695" style="fill: none;" fill="none"></path></g></g></g></g></g></g><g transform="translate(46, 177)" clip-path="url(#clip_1)"><clipPath id="clip_1"><rect width="284" height="23"></rect></clipPath><g><g><line x1="0" y1="0" x2="0" y2="5" style="visibility: inherit;" fill="rgb(0, 0, 0)" stroke="rgb(204, 204, 204)" stroke-width="1px"></line><line x1="23.666666666666664" y1="0" x2="23.666666666666664" y2="5" style="visibility: inherit;" fill="rgb(0, 0, 0)" stroke="rgb(204, 204, 204)" stroke-width="1px"></line><line x1="47.33333333333333" y1="0" x2="47.33333333333333" y2="5" style="visibility: inherit;" fill="rgb(0, 0, 0)" stroke="rgb(204, 204, 204)" stroke-width="1px"></line><line x1="71" y1="0" x2="71" y2="5" style="visibility: inherit;" fill="rgb(0, 0, 0)" stroke="rgb(204, 204, 204)" stroke-width="1px"></line><line x1="94.66666666666666" y1="0" x2="94.66666666666666" y2="5" style="visibility: inherit;" fill="rgb(0, 0, 0)" stroke="rgb(204, 204, 204)" stroke-width="1px"></line><line x1="118.33333333333334" y1="0" x2="118.33333333333334" y2="5" style="visibility: inherit;" fill="rgb(0, 0, 0)" stroke="rgb(204, 204, 204)" stroke-width="1px"></line><line x1="142" y1="0" x2="142" y2="5" style="visibility: inherit;" fill="rgb(0, 0, 0)" stroke="rgb(204, 204, 204)" stroke-width="1px"></line><line x1="165.66666666666669" y1="0" x2="165.66666666666669" y2="5" style="visibility: inherit;" fill="rgb(0, 0, 0)" stroke="rgb(204, 204, 204)" stroke-width="1px"></line><line x1="189.33333333333331" y1="0" x2="189.33333333333331" y2="5" style="visibility: inherit;" fill="rgb(0, 0, 0)" stroke="rgb(204, 204, 204)" stroke-width="1px"></line><line x1="213" y1="0" x2="213" y2="5" style="visibility: inherit;" fill="rgb(0, 0, 0)" stroke="rgb(204, 204, 204)" stroke-width="1px"></line><line x1="236.66666666666669" y1="0" x2="236.66666666666669" y2="5" style="visibility: inherit;" fill="rgb(0, 0, 0)" stroke="rgb(204, 204, 204)" stroke-width="1px"></line><line x1="260.3333333333333" y1="0" x2="260.3333333333333" y2="5" style="visibility: inherit;" fill="rgb(0, 0, 0)" stroke="rgb(204, 204, 204)" stroke-width="1px"></line><line x1="284" y1="0" x2="284" y2="5" style="visibility: inherit;" fill="rgb(0, 0, 0)" stroke="rgb(204, 204, 204)" stroke-width="1px"></line></g><g transform="translate(0, 8)"><text x="0" y="0" dx="0em" dy="0.95em" style="text-anchor: middle; visibility: hidden; font-family: &quot;Helvetica Neue&quot;, sans-serif; font-size: 12px; font-weight: 200;" fill="rgb(50, 49, 63)" stroke="none" stroke-width="1px">-500k</text><text x="23.666666666666664" y="0" dx="0em" dy="0.95em" style="text-anchor: middle; visibility: inherit; font-family: &quot;Helvetica Neue&quot;, sans-serif; font-size: 12px; font-weight: 200;" fill="rgb(50, 49, 63)" stroke="none" stroke-width="1px">0</text><text x="47.33333333333333" y="0" dx="0em" dy="0.95em" style="text-anchor: middle; visibility: hidden; font-family: &quot;Helvetica Neue&quot;, sans-serif; font-size: 12px; font-weight: 200;" fill="rgb(50, 49, 63)" stroke="none" stroke-width="1px">500k</text><text x="71" y="0" dx="0em" dy="0.95em" style="text-anchor: middle; visibility: inherit; font-family: &quot;Helvetica Neue&quot;, sans-serif; font-size: 12px; font-weight: 200;" fill="rgb(50, 49, 63)" stroke="none" stroke-width="1px">1M</text><text x="94.66666666666666" y="0" dx="0em" dy="0.95em" style="text-anchor: middle; visibility: hidden; font-family: &quot;Helvetica Neue&quot;, sans-serif; font-size: 12px; font-weight: 200;" fill="rgb(50, 49, 63)" stroke="none" stroke-width="1px">1.5M</text><text x="118.33333333333334" y="0" dx="0em" dy="0.95em" style="text-anchor: middle; visibility: inherit; font-family: &quot;Helvetica Neue&quot;, sans-serif; font-size: 12px; font-weight: 200;" fill="rgb(50, 49, 63)" stroke="none" stroke-width="1px">2M</text><text x="142" y="0" dx="0em" dy="0.95em" style="text-anchor: middle; visibility: hidden; font-family: &quot;Helvetica Neue&quot;, sans-serif; font-size: 12px; font-weight: 200;" fill="rgb(50, 49, 63)" stroke="none" stroke-width="1px">2.5M</text><text x="165.66666666666669" y="0" dx="0em" dy="0.95em" style="text-anchor: middle; visibility: inherit; font-family: &quot;Helvetica Neue&quot;, sans-serif; font-size: 12px; font-weight: 200;" fill="rgb(50, 49, 63)" stroke="none" stroke-width="1px">3M</text><text x="189.33333333333331" y="0" dx="0em" dy="0.95em" style="text-anchor: middle; visibility: hidden; font-family: &quot;Helvetica Neue&quot;, sans-serif; font-size: 12px; font-weight: 200;" fill="rgb(50, 49, 63)" stroke="none" stroke-width="1px">3.5M</text><text x="213" y="0" dx="0em" dy="0.95em" style="text-anchor: middle; visibility: inherit; font-family: &quot;Helvetica Neue&quot;, sans-serif; font-size: 12px; font-weight: 200;" fill="rgb(50, 49, 63)" stroke="none" stroke-width="1px">4M</text><text x="236.66666666666669" y="0" dx="0em" dy="0.95em" style="text-anchor: middle; visibility: hidden; font-family: &quot;Helvetica Neue&quot;, sans-serif; font-size: 12px; font-weight: 200;" fill="rgb(50, 49, 63)" stroke="none" stroke-width="1px">4.5M</text><text x="260.3333333333333" y="0" dx="0em" dy="0.95em" style="text-anchor: middle; visibility: inherit; font-family: &quot;Helvetica Neue&quot;, sans-serif; font-size: 12px; font-weight: 200;" fill="rgb(50, 49, 63)" stroke="none" stroke-width="1px">5M</text><text x="284" y="0" dx="0em" dy="0.95em" style="text-anchor: middle; visibility: hidden; font-family: &quot;Helvetica Neue&quot;, sans-serif; font-size: 12px; font-weight: 200;" fill="rgb(50, 49, 63)" stroke="none" stroke-width="1px">5.5M</text></g><line x1="0" y1="0" x2="284" y2="0" fill="rgb(0, 0, 0)" stroke="rgb(204, 204, 204)" stroke-width="1px"></line></g></g></g></g></svg>