<svg viewBox="0 0 330 200" xmlns="http://www.w3.org/2000/svg"><g><g><g><g><g><line x1="46" y1="177" x2="41" y2="177" style="visibility: inherit;" fill="rgb(0, 0, 0)" stroke="rgb(204, 204, 204)" stroke-width="1px"></line><line x1="46" y1="154.875" x2="41" y2="154.875" style="visibility: inherit;" fill="rgb(0, 0, 0)" stroke="rgb(204, 204, 204)" stroke-width="1px"></line><line x1="46" y1="132.75" x2="41" y2="132.75" style="visibility: inherit;" fill="rgb(0, 0, 0)" stroke="rgb(204, 204, 204)" stroke-width="1px"></line><line x1="46" y1="110.62499999999999" x2="41" y2="110.62499999999999" style="visibility: inherit;" fill="rgb(0, 0, 0)" stroke="rgb(204, 204, 204)" stroke-width="1px"></line><line x1="46" y1="88.49999999999999" x2="41" y2="88.49999999999999" style="visibility: inherit;" fill="rgb(0, 0, 0)" stroke="rgb(204, 204, 204)" stroke-width="1px"></line><line x1="46" y1="66.375" x2="41" y2="66.375" style="visibility: inherit;" fill="rgb(0, 0, 0)" stroke="rgb(204, 204, 204)" stroke-width="1px"></line><line x1="46" y1="44.25" x2="41" y2="44.25" style="visibility: inherit;" fill="rgb(0, 0, 0)" stroke="rgb(204, 204, 204)" stroke-width="1px"></line><line x1="46" y1="22.125" x2="41" y2="22.125" style="visibility: inherit;" fill="rgb(0, 0, 0)" stroke="rgb(204, 204, 204)" stroke-width="1px"></line><line x1="46" y1="0" x2="41" y2="0" style="visibility: inherit;" fill="rgb(0, 0, 0)" stroke="rgb(204, 204, 204)" stroke-width="1px"></line></g><g transform="translate(36, 0)"><text x="0" y="177" dx="0em" dy="0.3em" style="text-anchor: end; visibility: hidden; font-family: &quot;Helvetica Neue&quot;, sans-serif; font-size: 12px; font-weight: 200;" fill="rgb(50, 49, 63)" stroke="none" stroke-width="1px">-0.2</text><text x="0" y="154.875" dx="0em" dy="0.3em" style="text-anchor: end; visibility: inherit; font-family: &quot;Helvetica Neue&quot;, sans-serif; font-size: 12px; font-weight: 200;" fill="rgb(50, 49, 63)" stroke="none" stroke-width="1px">0</text><text x="0" y="132.75" dx="0em" dy="0.3em" style="text-anchor: end; visibility: hidden; font-family: &quot;Helvetica Neue&quot;, sans-serif; font-size: 12px; font-weight: 200;" fill="rgb(50, 49, 63)" stroke="none" stroke-width="1px">0.2</text><text x="0" y="110.62499999999999" dx="0em" dy="0.3em" style="text-anchor: end; visibility: inherit; font-family: &quot;Helvetica Neue&quot;, sans-serif; font-size: 12px; font-weight: 200;" fill="rgb(50, 49, 63)" stroke="none" stroke-width="1px">0.4</text><text x="0" y="88.49999999999999" dx="0em" dy="0.3em" style="text-anchor: end; visibility: hidden; font-family: &quot;Helvetica Neue&quot;, sans-serif; font-size: 12px; font-weight: 200;" fill="rgb(50, 49, 63)" stroke="none" stroke-width="1px">0.6</text><text x="0" y="66.375" dx="0em" dy="0.3em" style="text-anchor: end; visibility: inherit; font-family: &quot;Helvetica Neue&quot;, sans-serif; font-size: 12px; font-weight: 200;" fill="rgb(50, 49, 63)" stroke="none" stroke-width="1px">0.8</text><text x="0" y="44.25" dx="0em" dy="0.3em" style="text-anchor: end; visibility: hidden; font-family: &quot;Helvetica Neue&quot;, sans-serif; font-size: 12px; font-weight: 200;" fill="rgb(50, 49, 63)" stroke="none" stroke-width="1px">1</text><text x="0" y="22.125" dx="0em" dy="0.3em" style="text-anchor: end; visibility: inherit; font-family: &quot;Helvetica Neue&quot;, sans-serif; font-size: 12px; font-weight: 200;" fill="rgb(50, 49, 63)" stroke="none" stroke-width="1px">1.2</text><text x="0" y="0" dx="0em" dy="0.3em" style="text-anchor: end; visibility: hidden; font-family: &quot;Helvetica Neue&quot;, sans-serif; font-size: 12px; font-weight: 200;" fill="rgb(50, 49, 63)" stroke="none" stroke-width="1px">1.4</text></g><line x1="46" y1="0" x2="46" y2="177" fill="rgb(0, 0, 0)" stroke="rgb(204, 204, 204)" stroke-width="1px"></line></g></g><g transform="translate(46, 0)" clip-path="url(#clip_0)"><clipPath id="clip_0"><rect width="284" height="177"></rect></clipPath><g><g><g><line x1="0" y1="0" x2="0" y2="177" fill="rgb(0, 0, 0)" stroke="rgb(60, 60, 60)" stroke-width="1px" opacity="0.25"></line><line x1="23.666666666666664" y1="0" x2="23.666666666666664" y2="177" fill="rgb(0, 0, 0)" stroke="rgb(60, 60, 60)" stroke-width="1px" opacity="0.25"></line><line x1="47.33333333333333" y1="0" x2="47.33333333333333" y2="177" fill="rgb(0, 0, 0)" stroke="rgb(60, 60, 60)" stroke-width="1px" opacity="0.25"></line><line x1="71" y1="0" x2="71" y2="177" fill="rgb(0, 0, 0)" stroke="rgb(60, 60, 60)" stroke-width="1px" opacity="0.25"></line><line x1="94.66666666666666" y1="0" x2="94.66666666666666" y2="177" fill="rgb(0, 0, 0)" stroke="rgb(60, 60, 60)" stroke-width="1px" opacity="0.25"></line><line x1="118.33333333333334" y1="0" x2="118.33333333333334" y2="177" fill="rgb(0, 0, 0)" stroke="rgb(60, 60, 60)" stroke-width="1px" opacity="0.25"></line><line x1="142" y1="0" x2="142" y2="177" fill="rgb(0, 0, 0)" stroke="rgb(60, 60, 60)" stroke-width="1px" opacity="0.25"></line><line x1="165.66666666666669" y1="0" x2="165.66666666666669" y2="177" fill="rgb(0, 0, 0)" stroke="rgb(60, 60, 60)" stroke-width="1px" opacity="0.25"></line><line x1="189.33333333333331" y1="0" x2="189.33333333333331" y2="177" fill="rgb(0, 0, 0)" stroke="rgb(60, 60, 60)" stroke-width="1px" opacity="0.25"></line><line x1="213" y1="0" x2="213" y2="177" fill="rgb(0, 0, 0)" stroke="rgb(60, 60, 60)" stroke-width="1px" opacity="0.25"></line><line x1="236.66666666666669" y1="0" x2="236.66666666666669" y2="177" fill="rgb(0, 0, 0)" stroke="rgb(60, 60, 60)" stroke-width="1px" opacity="0.25"></line><line x1="260.3333333333333" y1="0" x2="260.3333333333333" y2="177" fill="rgb(0, 0, 0)" stroke="rgb(60, 60, 60)" stroke-width="1px" opacity="0.25"></line><line x1="284" y1="0" x2="284" y2="177" fill="rgb(0, 0, 0)" stroke="rgb(60, 60, 60)" stroke-width="1px" opacity="0.25"></line></g><g><line x1="0" y1="177" x2="284" y2="177" fill="rgb(0, 0, 0)" stroke="rgb(60, 60, 60)" stroke-width="1px" opacity="0.25"></line><line x1="0" y1="154.875" x2="284" y2="154.875" fill="rgb(0, 0, 0)" stroke="rgb(60, 60, 60)" stroke-width="1px" opacity="0.25"></line><line x1="0" y1="132.75" x2="284" y2="132.75" fill="rgb(0, 0, 0)" stroke="rgb(60, 60, 60)" stroke-width="1px" opacity="0.25"></line><line x1="0" y1="110.62499999999999" x2="284" y2="110.62499999999999" fill="rgb(0, 0, 0)" stroke="rgb(60, 60, 60)" stroke-width="1px" opacity="0.25"></line><line x1="0" y1="88.49999999999999" x2="284" y2="88.49999999999999" fill="rgb(0, 0, 0)" stroke="rgb(60, 60, 60)" stroke-width="1px" opacity="0.25"></line><line x1="0" y1="66.375" x2="284" y2="66.375" fill="rgb(0, 0, 0)" stroke="rgb(60, 60, 60)" stroke-width="1px" opacity="0.25"></line><line x1="0" y1="44.25" x2="284" y2="44.25" fill="rgb(0, 0, 0)" stroke="rgb(60, 60, 60)" stroke-width="1px" opacity="0.25"></line><line x1="0" y1="22.125" x2="284" y2="22.125" fill="rgb(0, 0, 0)" stroke="rgb(60, 60, 60)" stroke-width="1px" opacity="0.25"></line><line x1="0" y1="0" x2="284" y2="0" fill="rgb(0, 0, 0)" stroke="rgb(60, 60, 60)" stroke-width="1px" opacity="0.25"></line></g></g></g><g><g><line x1="0" y1="154.875" x2="284" y2="154.875" fill="rgb(0, 0, 0)" stroke="rgb(153, 153, 153)" stroke-width="1.5px"></line></g></g><g><g><line x1="23.666666666666664" y1="0" x2="23.666666666666664" y2="177" fill="rgb(0, 0, 0)" stroke="rgb(153, 153, 153)" stroke-width="1.5px"></line></g></g><g><g><g><g><g><path stroke="rgb(0, 119, 187)" stroke-width="2px" d="M28.786902666666666,141.02661730907857L29.231173333333334,140.89095422574678L29.44157,140.82525886488486L29.88532,140.6903057155564L30.096805333333332,140.62636201866343L30.306397333333333,140.54911713826948L30.747638666666667,140.39414863247242L30.957420000000003,140.30979445402818L31.400507333333334,140.15381415906958L31.610951333333333,140.0618211824722L32.05384933333333,139.8747411521419L32.49580066666667,139.65934925378826L32.939787333333335,139.45748291117624L33.38330066666667,139.26619475763687L33.82719266666667,139.05716642281863L34.27193666666667,138.84454262154972L34.47939866666667,138.72529888482796L34.91955133333334,138.5143991219574L35.127534000000004,138.39251192035638L35.334428,138.27954146795025L35.771456666666666,138.07895484113106L36.20720733333333,137.83906751657054L36.414101333333335,137.723702139898L36.850277999999996,137.46995964869677L37.05660400000001,137.35620605555948L37.493301333333335,137.11977887039689L37.698586000000006,137.0042426705897L37.901362,136.8814120675267L38.33749133333333,136.6640437339313L38.772957999999996,136.4326632995777L69.25231133333334,119.07796404214184L69.68318666666666,117.92292661200986L69.88492133333334,117.73539090569099L70.316554,117.46631942517115L70.51715266666666,117.33250318755734L70.71850866666666,117.20876376812325L70.91943866666666,117.06821129910989L126.55527533333334,77.12517119003171L126.99604333333333,74.75474634257401L127.20170666666667,74.48879373057297L127.40746466666667,74.318498998887L127.843594,73.98712188486041L128.04859466666667,73.80927296078873L128.48548133333333,73.49406162250469L128.92142133333334,73.1336241018153L129.12590133333333,72.96570048645836L129.33085466666668,72.81255100591682L129.53486133333334,72.651619800976L129.73976733333333,72.4889088245969L164.56602466666666,46.928496210355036L164.75583133333336,45.48827679284909L165.17108666666667,45.12103057113541L165.36486933333336,44.965506202601574L165.55869933333332,44.823013569608605L165.97101999999998,44.50784704976326L166.38826333333333,44.20712070684675L166.80669,43.93427576931887L167.00198733333335,43.79871522989313L167.19666933333335,43.662684761414226L167.39149333333333,43.52853260104297L167.586696,43.405827306502914L169.8186046666667,42.03274757095423L170.04675133333333,41.83660721477213L170.27423533333334,41.70001519831533L213.910362,32.695052886289744L214.11422666666664,32.22111975590229L214.320032,32.1791528878056L222.68184399999998,31.562390192999374L222.89261933333333,31.511762371105306L223.10547733333334,31.497754190288532L223.5592146666667,31.471484217097412L223.77188333333334,31.461796967646052L223.98478866666667,31.448863043960415L224.43833666666666,31.422710432701706L224.6503426666667,31.410338451503463L225.10384333333332,31.38253749416964L225.55786466666666,31.36009450625221L225.76949199999999,31.347936745771875L225.98315466666668,31.338618800183895L226.19610733333334,31.322399760566327L226.65282666666667,31.289784581630812L226.86663133333332,31.273603849559635L227.0799626666667,31.259850674674368L227.535404,31.235333286746425L227.74892466666665,31.225510149796037L228.20417666666665,31.200129421884384L228.658908,31.17236585643795L228.87299666666667,31.160049381177373L229.08647000000002,31.145041547594815L229.29946999999999,31.133000165746893L229.51308533333332,31.123074922245564L229.968574,31.10020449461277L230.42387333333335,31.073482546834043L230.63786733333333,31.055549915497522L231.09345066666666,31.028979675619922L231.54799266666666,30.996036824891064L231.76141866666666,30.983093272132436L231.974466,30.971332378098992L232.18670866666668,30.961071020491318L232.63618599999998,30.936719200280805L233.087036,30.916016488824937L233.29743266666668,30.90382233280667L233.74591600000002,30.875730085427136L233.95626533333333,30.8619951714484L234.405932,30.84113308424051L234.61595,30.829243674152593L235.0661846666667,30.807436965652272L249.39237533333335,30.216907575970026L249.83825533333334,30.169382262525488L250.04571733333336,30.159111589270992L250.49320666666668,30.144245636482026L250.70175733333332,30.137079811451798L251.14877333333334,30.11896813578332L251.595316,30.104878698463352L252.04190599999998,30.091632658450237L252.25026733333334,30.083110228140782L252.45872333333332,30.07736923956668L252.66703733333333,30.070743877493868L253.11291733333331,30.05785347539083L253.5592706666667,30.043029125923056L253.767774,30.037417278166714L254.21426933333333,30.02417808645393L254.42457133333335,30.01749570507849L254.63421066666666,30.010409338169183L255.0861966666667,29.996757041958517L255.53960266666667,29.983708505634382L255.752934,29.97663536884386L255.97341266666666,29.969816917574605L256.42928,29.956578763901405L256.6446466666667,29.94957104640855L256.8602026666667,29.94283102130592L257.076374,29.936079618587684L257.2921666666667,29.922469435478234L257.74992733333335,29.904442091351342L257.96463133333333,29.896051263444463L258.421398,29.882820523308993L258.63667,29.87572557916033L258.85227333333336,29.870107452235402L259.06697733333334,29.86370111049044L259.52416999999997,29.850534034257947L259.981126,29.835382700315876L260.3333333333333,29.82761411755081" style="fill: none;" fill="none"></path></g></g></g></g><g opacity="0.2"><g><g><g><path stroke="rgb(0, 119, 187)" stroke-width="2px" d="M28.786902666666666,141.02661730907857L29.231173333333334,140.88403540849686L29.44157,140.8217375278473L29.88532,140.68305419012904L30.096805333333332,140.62292565777898L30.306397333333333,140.5449659395963L30.747638666666667,140.38582050427794L30.957420000000003,140.30526119470596L31.400507333333334,140.14543165639043L31.610951333333333,140.05687740817666L32.05384933333333,139.8646873254329L32.49580066666667,139.647773925215L32.939787333333335,139.4466344565153L33.38330066666667,139.25591478310525L33.82719266666667,139.04593307711184L34.27193666666667,138.83311605267227L34.47939866666667,138.71889063343406L34.91955133333334,138.50306520424783L35.127534000000004,138.38596160709858L35.334428,138.2734703477472L35.771456666666666,138.06817515939474L36.20720733333333,137.82617578469217L36.414101333333335,137.71750231459737L36.850277999999996,137.4563233293593L37.05660400000001,137.35009284876287L37.493301333333335,137.10707308910787L37.698586000000006,136.9980336651206L37.901362,136.8748110551387L38.33749133333333,136.65236219018698L38.772957999999996,136.42022873461246L69.25231133333334,118.14530897140503L69.68318666666666,117.86085399985313L69.88492133333334,117.72531259059906L70.316554,117.45185931399465L70.51715266666666,117.32531179860234L70.71850866666666,117.2021139152348L70.91943866666666,117.06065789982677L126.55527533333334,74.97860106825829L126.99604333333333,74.62735786288977L127.20170666666667,74.47450122982264L127.40746466666667,74.30934722721577L127.843594,73.96931342035532L128.04859466666667,73.79971522092819L128.48548133333333,73.47712191939354L128.92142133333334,73.11425390839577L129.12590133333333,72.95667614042759L129.33085466666668,72.80432063341141L129.53486133333334,72.64297123253345L129.73976733333333,72.48016460984945L164.56602466666666,45.55485970526934L164.75583133333336,45.41087827831507L165.17108666666667,45.101294472813606L165.36486933333336,44.95714820176363L165.55869933333332,44.81535590440035L165.97101999999998,44.49090975522995L166.38826333333333,44.1909594386816L166.80669,43.91961286962032L167.00198733333335,43.79143010079861L167.19666933333335,43.65537437796593L167.39149333333333,43.521323159337044L167.586696,43.399233028292656L169.8186046666667,41.95895719528198L170.04675133333333,41.826066479086876L170.27423533333334,41.69267463684082L213.910362,32.21111918985844L214.11422666666664,32.1956502199173L214.320032,32.176897555589676L222.68184399999998,31.529244884848595L222.89261933333333,31.509041592478752L223.10547733333334,31.497001379728317L223.5592146666667,31.47007244825363L223.77188333333334,31.46127636730671L223.98478866666667,31.448167964816093L224.43833666666666,31.42130497097969L224.6503426666667,31.40967357158661L225.10384333333332,31.381043449044228L225.55786466666666,31.358888402581215L225.76949199999999,31.347283378243446L225.98315466666668,31.33811804652214L226.19610733333334,31.321528136730194L226.65282666666667,31.288031816482544L226.86663133333332,31.27273428440094L227.0799626666667,31.25911156833172L227.535404,31.234015703201294L227.74892466666665,31.224982246756554L228.20417666666665,31.198765441775322L228.658908,31.170873820781708L228.87299666666667,31.159387484192848L229.08647000000002,31.144235014915466L229.29946999999999,31.13235305249691L229.51308533333332,31.122541531920433L229.968574,31.09897541999817L230.42387333333335,31.072046488523483L230.63786733333333,31.054586201906204L231.09345066666666,31.027551770210266L231.54799266666666,30.99426645040512L231.76141866666666,30.98239767551422L231.974466,30.970700338482857L232.18670866666668,30.960519567131996L232.63618599999998,30.935410514473915L233.087036,30.914903908967972L233.29743266666668,30.903167009353638L233.74591600000002,30.8742203861475L233.95626533333333,30.861257046461105L234.405932,30.840011939406395L234.61595,30.828604727983475L235.0661846666667,30.80626505613327L249.39237533333335,30.18517206609249L249.83825533333334,30.166828215122223L250.04571733333336,30.158559635281563L250.49320666666668,30.14344672858715L250.70175733333332,30.136694714426994L251.14877333333334,30.11799480021L251.595316,30.104121521115303L252.04190599999998,30.09092080593109L252.25026733333334,30.08265222609043L252.45872333333332,30.077060714364052L252.66703733333333,30.070387825369835L253.11291733333331,30.05716073513031L253.5592706666667,30.04223245382309L253.767774,30.037115693092346L254.21426933333333,30.02346660196781L254.42457133333335,30.017136588692665L254.63421066666666,30.010028511285782L255.0861966666667,29.99602335691452L255.53960266666667,29.9830072671175L255.752934,29.976255252957344L255.97341266666666,29.96945048868656L256.42928,29.95586733520031L256.6446466666667,29.949194446206093L256.8602026666667,29.94246880710125L257.076374,29.935716792941093L257.2921666666667,29.921738013625145L257.74992733333335,29.903473287820816L257.96463133333333,29.895600333809853L258.421398,29.882109493017197L258.63667,29.875344291329384L258.85227333333336,29.86980552971363L259.06697733333334,29.863356828689575L259.52416999999997,29.84982642531395L259.981126,29.834568455815315L260.3333333333333,29.8271966278553" style="fill: none;" fill="none"></path></g></g></g></g></g></g><g transform="translate(46, 177)" clip-path="url(#clip_1)"><clipPath id="clip_1"><rect width="284" height="23"></rect></clipPath><g><g><line x1="0" y1="0" x2="0" y2="5" style="visibility: inherit;" fill="rgb(0, 0, 0)" stroke="rgb(204, 204, 204)" stroke-width="1px"></line><line x1="23.666666666666664" y1="0" x2="23.666666666666664" y2="5" style="visibility: inherit;" fill="rgb(0, 0, 0)" stroke="rgb(204, 204, 204)" stroke-width="1px"></line><line x1="47.33333333333333" y1="0" x2="47.33333333333333" y2="5" style="visibility: inherit;" fill="rgb(0, 0, 0)" stroke="rgb(204, 204, 204)" stroke-width="1px"></line><line x1="71" y1="0" x2="71" y2="5" style="visibility: inherit;" fill="rgb(0, 0, 0)" stroke="rgb(204, 204, 204)" stroke-width="1px"></line><line x1="94.66666666666666" y1="0" x2="94.66666666666666" y2="5" style="visibility: inherit;" fill="rgb(0, 0, 0)" stroke="rgb(204, 204, 204)" stroke-width="1px"></line><line x1="118.33333333333334" y1="0" x2="118.33333333333334" y2="5" style="visibility: inherit;" fill="rgb(0, 0, 0)" stroke="rgb(204, 204, 204)" stroke-width="1px"></line><line x1="142" y1="0" x2="142" y2="5" style="visibility: inherit;" fill="rgb(0, 0, 0)" stroke="rgb(204, 204, 204)" stroke-width="1px"></line><line x1="165.66666666666669" y1="0" x2="165.66666666666669" y2="5" style="visibility: inherit;" fill="rgb(0, 0, 0)" stroke="rgb(204, 204, 204)" stroke-width="1px"></line><line x1="189.33333333333331" y1="0" x2="189.33333333333331" y2="5" style="visibility: inherit;" fill="rgb(0, 0, 0)" stroke="rgb(204, 204, 204)" stroke-width="1px"></line><line x1="213" y1="0" x2="213" y2="5" style="visibility: inherit;" fill="rgb(0, 0, 0)" stroke="rgb(204, 204, 204)" stroke-width="1px"></line><line x1="236.66666666666669" y1="0" x2="236.66666666666669" y2="5" style="visibility: inherit;" fill="rgb(0, 0, 0)" stroke="rgb(204, 204, 204)" stroke-width="1px"></line><line x1="260.3333333333333" y1="0" x2="260.3333333333333" y2="5" style="visibility: inherit;" fill="rgb(0, 0, 0)" stroke="rgb(204, 204, 204)" stroke-width="1px"></line><line x1="284" y1="0" x2="284" y2="5" style="visibility: inherit;" fill="rgb(0, 0, 0)" stroke="rgb(204, 204, 204)" stroke-width="1px"></line></g><g transform="translate(0, 8)"><text x="0" y="0" dx="0em" dy="0.95em" style="text-anchor: middle; visibility: hidden; font-family: &quot;Helvetica Neue&quot;, sans-serif; font-size: 12px; font-weight: 200;" fill="rgb(50, 49, 63)" stroke="none" stroke-width="1px">-500k</text><text x="23.666666666666664" y="0" dx="0em" dy="0.95em" style="text-anchor: middle; visibility: inherit; font-family: &quot;Helvetica Neue&quot;, sans-serif; font-size: 12px; font-weight: 200;" fill="rgb(50, 49, 63)" stroke="none" stroke-width="1px">0</text><text x="47.33333333333333" y="0" dx="0em" dy="0.95em" style="text-anchor: middle; visibility: hidden; font-family: &quot;Helvetica Neue&quot;, sans-serif; font-size: 12px; font-weight: 200;" fill="rgb(50, 49, 63)" stroke="none" stroke-width="1px">500k</text><text x="71" y="0" dx="0em" dy="0.95em" style="text-anchor: middle; visibility: inherit; font-family: &quot;Helvetica Neue&quot;, sans-serif; font-size: 12px; font-weight: 200;" fill="rgb(50, 49, 63)" stroke="none" stroke-width="1px">1M</text><text x="94.66666666666666" y="0" dx="0em" dy="0.95em" style="text-anchor: middle; visibility: hidden; font-family: &quot;Helvetica Neue&quot;, sans-serif; font-size: 12px; font-weight: 200;" fill="rgb(50, 49, 63)" stroke="none" stroke-width="1px">1.5M</text><text x="118.33333333333334" y="0" dx="0em" dy="0.95em" style="text-anchor: middle; visibility: inherit; font-family: &quot;Helvetica Neue&quot;, sans-serif; font-size: 12px; font-weight: 200;" fill="rgb(50, 49, 63)" stroke="none" stroke-width="1px">2M</text><text x="142" y="0" dx="0em" dy="0.95em" style="text-anchor: middle; visibility: hidden; font-family: &quot;Helvetica Neue&quot;, sans-serif; font-size: 12px; font-weight: 200;" fill="rgb(50, 49, 63)" stroke="none" stroke-width="1px">2.5M</text><text x="165.66666666666669" y="0" dx="0em" dy="0.95em" style="text-anchor: middle; visibility: inherit; font-family: &quot;Helvetica Neue&quot;, sans-serif; font-size: 12px; font-weight: 200;" fill="rgb(50, 49, 63)" stroke="none" stroke-width="1px">3M</text><text x="189.33333333333331" y="0" dx="0em" dy="0.95em" style="text-anchor: middle; visibility: hidden; font-family: &quot;Helvetica Neue&quot;, sans-serif; font-size: 12px; font-weight: 200;" fill="rgb(50, 49, 63)" stroke="none" stroke-width="1px">3.5M</text><text x="213" y="0" dx="0em" dy="0.95em" style="text-anchor: middle; visibility: inherit; font-family: &quot;Helvetica Neue&quot;, sans-serif; font-size: 12px; font-weight: 200;" fill="rgb(50, 49, 63)" stroke="none" stroke-width="1px">4M</text><text x="236.66666666666669" y="0" dx="0em" dy="0.95em" style="text-anchor: middle; visibility: hidden; font-family: &quot;Helvetica Neue&quot;, sans-serif; font-size: 12px; font-weight: 200;" fill="rgb(50, 49, 63)" stroke="none" stroke-width="1px">4.5M</text><text x="260.3333333333333" y="0" dx="0em" dy="0.95em" style="text-anchor: middle; visibility: inherit; font-family: &quot;Helvetica Neue&quot;, sans-serif; font-size: 12px; font-weight: 200;" fill="rgb(50, 49, 63)" stroke="none" stroke-width="1px">5M</text><text x="284" y="0" dx="0em" dy="0.95em" style="text-anchor: middle; visibility: hidden; font-family: &quot;Helvetica Neue&quot;, sans-serif; font-size: 12px; font-weight: 200;" fill="rgb(50, 49, 63)" stroke="none" stroke-width="1px">5.5M</text></g><line x1="0" y1="0" x2="284" y2="0" fill="rgb(0, 0, 0)" stroke="rgb(204, 204, 204)" stroke-width="1px"></line></g></g></g></g></svg>