<svg viewBox="0 0 330 200" xmlns="http://www.w3.org/2000/svg"><g><g><g><g><g><line x1="46" y1="177" x2="41" y2="177" style="visibility: inherit;" fill="rgb(0, 0, 0)" stroke="rgb(204, 204, 204)" stroke-width="1px"></line><line x1="46" y1="163.3846153846154" x2="41" y2="163.3846153846154" style="visibility: inherit;" fill="rgb(0, 0, 0)" stroke="rgb(204, 204, 204)" stroke-width="1px"></line><line x1="46" y1="149.76923076923075" x2="41" y2="149.76923076923075" style="visibility: inherit;" fill="rgb(0, 0, 0)" stroke="rgb(204, 204, 204)" stroke-width="1px"></line><line x1="46" y1="136.15384615384616" x2="41" y2="136.15384615384616" style="visibility: inherit;" fill="rgb(0, 0, 0)" stroke="rgb(204, 204, 204)" stroke-width="1px"></line><line x1="46" y1="122.53846153846152" x2="41" y2="122.53846153846152" style="visibility: inherit;" fill="rgb(0, 0, 0)" stroke="rgb(204, 204, 204)" stroke-width="1px"></line><line x1="46" y1="108.9230769230769" x2="41" y2="108.9230769230769" style="visibility: inherit;" fill="rgb(0, 0, 0)" stroke="rgb(204, 204, 204)" stroke-width="1px"></line><line x1="46" y1="95.3076923076923" x2="41" y2="95.3076923076923" style="visibility: inherit;" fill="rgb(0, 0, 0)" stroke="rgb(204, 204, 204)" stroke-width="1px"></line><line x1="46" y1="81.69230769230768" x2="41" y2="81.69230769230768" style="visibility: inherit;" fill="rgb(0, 0, 0)" stroke="rgb(204, 204, 204)" stroke-width="1px"></line><line x1="46" y1="68.07692307692305" x2="41" y2="68.07692307692305" style="visibility: inherit;" fill="rgb(0, 0, 0)" stroke="rgb(204, 204, 204)" stroke-width="1px"></line><line x1="46" y1="54.46153846153847" x2="41" y2="54.46153846153847" style="visibility: inherit;" fill="rgb(0, 0, 0)" stroke="rgb(204, 204, 204)" stroke-width="1px"></line><line x1="46" y1="40.84615384615384" x2="41" y2="40.84615384615384" style="visibility: inherit;" fill="rgb(0, 0, 0)" stroke="rgb(204, 204, 204)" stroke-width="1px"></line><line x1="46" y1="27.230769230769226" x2="41" y2="27.230769230769226" style="visibility: inherit;" fill="rgb(0, 0, 0)" stroke="rgb(204, 204, 204)" stroke-width="1px"></line><line x1="46" y1="13.615384615384613" x2="41" y2="13.615384615384613" style="visibility: inherit;" fill="rgb(0, 0, 0)" stroke="rgb(204, 204, 204)" stroke-width="1px"></line><line x1="46" y1="0" x2="41" y2="0" style="visibility: inherit;" fill="rgb(0, 0, 0)" stroke="rgb(204, 204, 204)" stroke-width="1px"></line></g><g transform="translate(36, 0)"><text x="0" y="177" dx="0em" dy="0.3em" style="text-anchor: end; visibility: hidden; font-family: &quot;Helvetica Neue&quot;, sans-serif; font-size: 12px; font-weight: 200;" fill="rgb(50, 49, 63)" stroke="none" stroke-width="1px">0.24</text><text x="0" y="163.3846153846154" dx="0em" dy="0.3em" style="text-anchor: end; visibility: inherit; font-family: &quot;Helvetica Neue&quot;, sans-serif; font-size: 12px; font-weight: 200;" fill="rgb(50, 49, 63)" stroke="none" stroke-width="1px">0.26</text><text x="0" y="149.76923076923075" dx="0em" dy="0.3em" style="text-anchor: end; visibility: hidden; font-family: &quot;Helvetica Neue&quot;, sans-serif; font-size: 12px; font-weight: 200;" fill="rgb(50, 49, 63)" stroke="none" stroke-width="1px">0.28</text><text x="0" y="136.15384615384616" dx="0em" dy="0.3em" style="text-anchor: end; visibility: inherit; font-family: &quot;Helvetica Neue&quot;, sans-serif; font-size: 12px; font-weight: 200;" fill="rgb(50, 49, 63)" stroke="none" stroke-width="1px">0.3</text><text x="0" y="122.53846153846152" dx="0em" dy="0.3em" style="text-anchor: end; visibility: hidden; font-family: &quot;Helvetica Neue&quot;, sans-serif; font-size: 12px; font-weight: 200;" fill="rgb(50, 49, 63)" stroke="none" stroke-width="1px">0.32</text><text x="0" y="108.9230769230769" dx="0em" dy="0.3em" style="text-anchor: end; visibility: inherit; font-family: &quot;Helvetica Neue&quot;, sans-serif; font-size: 12px; font-weight: 200;" fill="rgb(50, 49, 63)" stroke="none" stroke-width="1px">0.34</text><text x="0" y="95.3076923076923" dx="0em" dy="0.3em" style="text-anchor: end; visibility: hidden; font-family: &quot;Helvetica Neue&quot;, sans-serif; font-size: 12px; font-weight: 200;" fill="rgb(50, 49, 63)" stroke="none" stroke-width="1px">0.36</text><text x="0" y="81.69230769230768" dx="0em" dy="0.3em" style="text-anchor: end; visibility: inherit; font-family: &quot;Helvetica Neue&quot;, sans-serif; font-size: 12px; font-weight: 200;" fill="rgb(50, 49, 63)" stroke="none" stroke-width="1px">0.38</text><text x="0" y="68.07692307692305" dx="0em" dy="0.3em" style="text-anchor: end; visibility: hidden; font-family: &quot;Helvetica Neue&quot;, sans-serif; font-size: 12px; font-weight: 200;" fill="rgb(50, 49, 63)" stroke="none" stroke-width="1px">0.4</text><text x="0" y="54.46153846153847" dx="0em" dy="0.3em" style="text-anchor: end; visibility: inherit; font-family: &quot;Helvetica Neue&quot;, sans-serif; font-size: 12px; font-weight: 200;" fill="rgb(50, 49, 63)" stroke="none" stroke-width="1px">0.42</text><text x="0" y="40.84615384615384" dx="0em" dy="0.3em" style="text-anchor: end; visibility: hidden; font-family: &quot;Helvetica Neue&quot;, sans-serif; font-size: 12px; font-weight: 200;" fill="rgb(50, 49, 63)" stroke="none" stroke-width="1px">0.44</text><text x="0" y="27.230769230769226" dx="0em" dy="0.3em" style="text-anchor: end; visibility: inherit; font-family: &quot;Helvetica Neue&quot;, sans-serif; font-size: 12px; font-weight: 200;" fill="rgb(50, 49, 63)" stroke="none" stroke-width="1px">0.46</text><text x="0" y="13.615384615384613" dx="0em" dy="0.3em" style="text-anchor: end; visibility: hidden; font-family: &quot;Helvetica Neue&quot;, sans-serif; font-size: 12px; font-weight: 200;" fill="rgb(50, 49, 63)" stroke="none" stroke-width="1px">0.48</text><text x="0" y="0" dx="0em" dy="0.3em" style="text-anchor: end; visibility: hidden; font-family: &quot;Helvetica Neue&quot;, sans-serif; font-size: 12px; font-weight: 200;" fill="rgb(50, 49, 63)" stroke="none" stroke-width="1px">0.5</text></g><line x1="46" y1="0" x2="46" y2="177" fill="rgb(0, 0, 0)" stroke="rgb(204, 204, 204)" stroke-width="1px"></line></g></g><g transform="translate(46, 0)" clip-path="url(#clip_0)"><clipPath id="clip_0"><rect width="284" height="177"></rect></clipPath><g><g><g><line x1="0" y1="0" x2="0" y2="177" fill="rgb(0, 0, 0)" stroke="rgb(60, 60, 60)" stroke-width="1px" opacity="0.25"></line><line x1="23.666666666666664" y1="0" x2="23.666666666666664" y2="177" fill="rgb(0, 0, 0)" stroke="rgb(60, 60, 60)" stroke-width="1px" opacity="0.25"></line><line x1="47.33333333333333" y1="0" x2="47.33333333333333" y2="177" fill="rgb(0, 0, 0)" stroke="rgb(60, 60, 60)" stroke-width="1px" opacity="0.25"></line><line x1="71" y1="0" x2="71" y2="177" fill="rgb(0, 0, 0)" stroke="rgb(60, 60, 60)" stroke-width="1px" opacity="0.25"></line><line x1="94.66666666666666" y1="0" x2="94.66666666666666" y2="177" fill="rgb(0, 0, 0)" stroke="rgb(60, 60, 60)" stroke-width="1px" opacity="0.25"></line><line x1="118.33333333333334" y1="0" x2="118.33333333333334" y2="177" fill="rgb(0, 0, 0)" stroke="rgb(60, 60, 60)" stroke-width="1px" opacity="0.25"></line><line x1="142" y1="0" x2="142" y2="177" fill="rgb(0, 0, 0)" stroke="rgb(60, 60, 60)" stroke-width="1px" opacity="0.25"></line><line x1="165.66666666666669" y1="0" x2="165.66666666666669" y2="177" fill="rgb(0, 0, 0)" stroke="rgb(60, 60, 60)" stroke-width="1px" opacity="0.25"></line><line x1="189.33333333333331" y1="0" x2="189.33333333333331" y2="177" fill="rgb(0, 0, 0)" stroke="rgb(60, 60, 60)" stroke-width="1px" opacity="0.25"></line><line x1="213" y1="0" x2="213" y2="177" fill="rgb(0, 0, 0)" stroke="rgb(60, 60, 60)" stroke-width="1px" opacity="0.25"></line><line x1="236.66666666666669" y1="0" x2="236.66666666666669" y2="177" fill="rgb(0, 0, 0)" stroke="rgb(60, 60, 60)" stroke-width="1px" opacity="0.25"></line><line x1="260.3333333333333" y1="0" x2="260.3333333333333" y2="177" fill="rgb(0, 0, 0)" stroke="rgb(60, 60, 60)" stroke-width="1px" opacity="0.25"></line><line x1="284" y1="0" x2="284" y2="177" fill="rgb(0, 0, 0)" stroke="rgb(60, 60, 60)" stroke-width="1px" opacity="0.25"></line></g><g><line x1="0" y1="177" x2="284" y2="177" fill="rgb(0, 0, 0)" stroke="rgb(60, 60, 60)" stroke-width="1px" opacity="0.25"></line><line x1="0" y1="163.3846153846154" x2="284" y2="163.3846153846154" fill="rgb(0, 0, 0)" stroke="rgb(60, 60, 60)" stroke-width="1px" opacity="0.25"></line><line x1="0" y1="149.76923076923075" x2="284" y2="149.76923076923075" fill="rgb(0, 0, 0)" stroke="rgb(60, 60, 60)" stroke-width="1px" opacity="0.25"></line><line x1="0" y1="136.15384615384616" x2="284" y2="136.15384615384616" fill="rgb(0, 0, 0)" stroke="rgb(60, 60, 60)" stroke-width="1px" opacity="0.25"></line><line x1="0" y1="122.53846153846152" x2="284" y2="122.53846153846152" fill="rgb(0, 0, 0)" stroke="rgb(60, 60, 60)" stroke-width="1px" opacity="0.25"></line><line x1="0" y1="108.9230769230769" x2="284" y2="108.9230769230769" fill="rgb(0, 0, 0)" stroke="rgb(60, 60, 60)" stroke-width="1px" opacity="0.25"></line><line x1="0" y1="95.3076923076923" x2="284" y2="95.3076923076923" fill="rgb(0, 0, 0)" stroke="rgb(60, 60, 60)" stroke-width="1px" opacity="0.25"></line><line x1="0" y1="81.69230769230768" x2="284" y2="81.69230769230768" fill="rgb(0, 0, 0)" stroke="rgb(60, 60, 60)" stroke-width="1px" opacity="0.25"></line><line x1="0" y1="68.07692307692305" x2="284" y2="68.07692307692305" fill="rgb(0, 0, 0)" stroke="rgb(60, 60, 60)" stroke-width="1px" opacity="0.25"></line><line x1="0" y1="54.46153846153847" x2="284" y2="54.46153846153847" fill="rgb(0, 0, 0)" stroke="rgb(60, 60, 60)" stroke-width="1px" opacity="0.25"></line><line x1="0" y1="40.84615384615384" x2="284" y2="40.84615384615384" fill="rgb(0, 0, 0)" stroke="rgb(60, 60, 60)" stroke-width="1px" opacity="0.25"></line><line x1="0" y1="27.230769230769226" x2="284" y2="27.230769230769226" fill="rgb(0, 0, 0)" stroke="rgb(60, 60, 60)" stroke-width="1px" opacity="0.25"></line><line x1="0" y1="13.615384615384613" x2="284" y2="13.615384615384613" fill="rgb(0, 0, 0)" stroke="rgb(60, 60, 60)" stroke-width="1px" opacity="0.25"></line><line x1="0" y1="0" x2="284" y2="0" fill="rgb(0, 0, 0)" stroke="rgb(60, 60, 60)" stroke-width="1px" opacity="0.25"></line></g></g></g><g><g><line x1="0" y1="340.38461538461536" x2="284" y2="340.38461538461536" fill="rgb(0, 0, 0)" stroke="rgb(153, 153, 153)" stroke-width="1.5px"></line></g></g><g><g><line x1="23.666666666666664" y1="0" x2="23.666666666666664" y2="177" fill="rgb(0, 0, 0)" stroke="rgb(153, 153, 153)" stroke-width="1.5px"></line></g></g><g><g><g><g><g><path stroke="rgb(255, 112, 67)" stroke-width="2px" d="M25.521991333333332,204.10532124994307L29.529326,155.3449892292869L29.530935333333332,151.091965395453L29.739202000000002,143.62222573997045L30.166953333333336,144.01784920027055L30.367220666666665,143.02870713991067L30.569286666666667,134.41721378991164L31.000872,139.45366315052934L31.431037333333332,127.86850732829588L31.545063333333335,131.80632704162332L31.777517333333332,124.3525760771772L31.885058666666666,126.58999606827604L31.991511333333335,130.35690763606848L32.22652133333333,129.81979488792308L32.32909266666667,142.00806178316776L32.56012666666667,187.30145098289333L32.66392866666666,134.38773479056476L32.89501,129.47921113512314L32.996350666666665,129.6927469194807L33.101714666666666,119.99841397184329L33.334452666666664,144.91690721675553L33.44033733333333,111.91627573566012L33.54532266666667,140.07534174117694L33.648888,117.69979513380433L33.881058,111.57165900410251L34.11266,121.08336562098233L36.976942,92.9375705160988L37.423816,98.0673558429555L37.86761333333333,93.33862746305012L38.07535933333333,97.29273594152801L38.52341666666666,88.29986582976223L52.67314866666667,66.5517992138981L52.88098933333333,65.6194923851538L53.104307999999996,70.79396780522963L53.31058666666667,66.58309063053129L53.750691999999994,65.02333885538157L53.95697066666667,70.60835141250891L56.128008666666666,65.7949391928469L64.03456866666667,55.74640489068618L64.23587733333333,53.326659278415605L78.99848133333333,52.452417089516985L101.14328666666667,42.268482154051526L101.343838,47.92430938644205L101.56284933333333,79.70879887894255L101.99202066666666,46.554163328473095L102.19053666666667,42.94335390888091L102.391372,49.48697249852047L102.82040133333334,42.41178222087066L103.24673266666666,49.86390602321856L103.447568,42.405160394082344L103.64764600000001,37.6662480539396L103.84606733333332,38.152837832291L104.04590866666668,42.607598513153874L104.24584466666667,43.16364119237929L104.67037733333333,39.964480793822474L104.86950866666666,39.95694014844551L105.29593466666667,46.88926164476132L105.72160333333332,37.32637116921387L105.92040333333334,46.337148269870596L106.34569333333333,42.53736350166733L106.545014,45.21114245630872L111.99644133333334,41.18816282767577L116.72650866666666,45.72356580172618L117.15847266666667,44.57549251410927L117.360018,39.500861014939545L117.56189466666666,40.89674711702949L117.99366933333333,43.55574951896102L118.194552,42.997892381211585L118.39609733333333,40.59051551807099L118.82815599999999,45.75178820951507L119.03060066666667,45.39134157439952L119.46573599999999,37.22537828761844L119.67139933333333,45.64271723876513L120.10980066666667,43.369416040527L120.31617399999999,42.594829064886454L120.521364,43.718765385955265L120.958582,44.38303167419522L121.164482,48.85484930000743L121.60274133333333,40.46804766780315L122.03976999999999,49.848500605145986L122.47840799999999,50.79181319148255L122.68364533333335,38.5997523763526L122.888504,38.71320775834138L123.32468066666667,48.09656400071188L123.52793,42.235495559921674L123.96155066666665,40.21774667034268L124.395692,46.44354555976474L124.59894133333333,41.86282358621719L124.79930333333334,41.97942433736631L125.23264,45.58554470328292L125.66555066666666,39.29824727221575L129.57736666666668,41.733225011222174L130.00019533333332,37.430549158163075L130.197528,42.49545135527825L146.21479666666667,41.61219219644909L146.65315066666668,41.31341711382794L147.08421533333333,35.892372176398425L147.291914,35.11516221387237L147.498808,35.810900662260735L147.70376133333335,35.02174439900415L148.14538133333335,34.34684623277022L148.580848,43.5261165398411L148.78409733333334,34.435722798658986L148.98871933333334,36.6871998414054L149.42726266666668,37.03172729137165L149.86471733333335,38.862256103067665L150.29885866666666,38.267654605007294L150.501966,32.98938508990983L150.93544466666665,36.67673707522806L151.13665866666668,41.353174378448784L151.56814933333334,40.5182191393167L151.76983666666666,32.26391392219844L152.201848,34.12488361134848L152.40396133333334,40.89421424254277L152.60574333333332,34.14025273295903L153.03676066666668,32.2935757573087L153.23750133333334,34.127731147519086L153.670412,40.55211974877906L153.87214666666665,30.983256819657868L154.303022,36.91211316803097L154.50452,34.44272508508584L154.93615266666666,33.17854191660706L155.36740666666668,81.2033778403647L155.57141333333334,48.02434357417016L155.77220133333333,39.53237196382091L155.973936,41.54171877824271L156.40651533333332,37.54055021365966L161.83687933333334,35.7013517121965L168.37990800000003,37.108260629181785L168.80799066666668,31.765364806203536L169.00556,33.26388318707046L169.20625333333334,37.04545674979161L169.40779866666668,41.47416801671784L169.83720666666667,28.71796921627103L170.265952,30.745914627190558L170.47341400000002,29.74228237510087L170.905946,28.832812310565373L171.10929000000002,31.184903970989893L171.31400666666667,34.492070507938905L171.5192913333333,31.04345704346551L171.95641466666666,29.471286034986463L172.392544,41.6029764415907L172.82895733333334,31.469314364563218L173.032822,25.660470336280383L173.23768066666665,34.0901105328694L173.44220800000002,33.74384842536327L173.6463566666667,25.151282446485595L174.082486,34.169614149311684L174.28644533333332,35.89130280627714L174.490452,31.734133404715664L174.92572933333332,31.463430796028348L175.360628,36.91542076541086L175.56562866666667,33.84388510866532L176.0027046666667,29.526144925872103L176.20514933333334,25.730697377891232L176.41038666666665,26.39345632580111L176.61515066666666,33.17614437969894L176.82015133333334,30.489145387599706L177.25438733333334,26.978652988595712L177.684032,32.37639444583303L177.88652399999998,30.36958028959694L178.08849533333333,33.857431033107815L178.51885,28.885480383690265L178.94617533333334,24.17131815822694L179.37534666666664,28.939946355866113L179.804944,26.40196547480221L180.00819333333334,27.099844673225164L180.21149000000003,30.07701371480013L180.64672,28.00901770568234L181.08048266666665,42.19014184160906L181.51760599999997,24.46423285002271L181.949286,24.688403757999993L183.99105666666665,31.129408607179755L184.42330466666667,32.17570947944813L184.62664866666668,32.06217215981232L185.06282533333334,24.17670181585015L185.49848133333333,34.889194117913235L185.70206199999998,25.603603490206524L186.13639266666667,26.252869658720783L186.3395,23.619008775745385L186.541708,20.028021085706342L186.97566,29.78329395279374L187.40994333333333,34.52869070440627L187.84498399999998,30.105428878513578L188.04794933333335,25.95750173636668L188.25176666666667,32.064381722245514L188.45610466666665,28.927329853220982L188.88939399999998,30.89439890220035L189.09287999999998,36.86079370360338L189.52531733333333,31.570414882326133L189.72582133333333,30.0354349437751L189.92873933333334,29.331708468256835L190.36051400000002,29.863308232376085L190.564142,47.37535930008184L190.99814133333334,32.32304187186287L191.42949000000002,42.90386691444692L191.63415933333332,36.173441011120445L191.838166,29.193413891090415L192.04155733333332,29.33647099671009L192.47541466666667,31.404448303881736L192.67918466666669,30.276273459969588L193.11138533333335,28.284917948943814L193.31278866666668,31.51748141466973L193.5138606666667,35.42271586037799L193.941044,31.475166854535786L194.36756466666668,34.177549546715454L194.79498466666666,30.7564733826552L194.99307466666667,35.69202694654072L195.1928213333333,35.95185788530017L195.39342,26.604355470529157L195.82155,29.47309669073161L196.02124933333334,31.67433567823298L196.21952866666666,27.22083525116679L196.64609666666666,28.547945941508402L196.84499133333333,26.02196557778771L197.04270266666668,33.696849669307L200.183364,28.65608236939184L200.61655866666666,26.289117982589715L201.051552,28.84367638612045L201.25551133333335,28.190177734205918L201.689558,31.89354331564263L201.89152933333332,32.120680757597995L202.09492066666667,26.193755021110434L202.52333466666664,30.97434357555386L202.72346,31.64728062096168L208.72158733333333,26.148308607993357L208.929144,26.519143553401875L218.72065933333334,30.492038259203525L219.15721466666665,37.464113691996346L219.59296533333335,26.621128033301744L219.799528,25.537412305715407L220.243704,29.541844905123753L220.45220733333332,30.011866984177885L220.660048,29.45783159799808L221.103088,22.00084529155413L221.31211199999998,27.105301542380488L239.251398,24.214403192834766L239.45696666666666,25.30636672103057L239.90213666666665,27.807806902005666L240.11097133333334,25.77971913097352L240.31895400000002,23.01723626447199L240.52636866666666,24.292702437254235L240.73548733333334,24.843129937396128L240.94489000000002,29.73198344629796L241.15585466666667,27.63350860186236L241.60239733333333,26.74731930232423L241.81156333333334,24.265633447300303L242.01987733333334,22.40111218693292L242.227718,21.75136463483898L242.669054,25.58347597572103L243.11034266666667,21.971275009051652L243.31752066666667,25.476201717782857L243.52219,26.454621291941635L243.72846866666669,22.953622877254617L259.56998866666663,26.298050272761913L259.7659013333333,24.69325713156104L259.965506,24.881583188049603L260.1642586666667,28.366185188608455L260.3333333333333,25.876130891646767" style="fill: none;" fill="none"></path></g></g></g></g><g opacity="0.2"><g><g><g><path stroke="rgb(255, 112, 67)" stroke-width="2px" d="M25.521991333333332,202.43179568877585L29.529326,150.16690492630005L29.530935333333332,150.6403168806663L29.739202000000002,142.82897905661508L30.166953333333336,144.05986231106976L30.367220666666665,142.92366550518915L30.569286666666667,133.50271892089108L31.000872,139.98850733041763L31.431037333333332,126.63822529407648L31.545063333333335,132.22450258640143L31.777517333333332,123.5610273021918L31.885058666666666,126.82759819122461L31.991511333333335,130.7569336432677L32.22652133333333,129.76275636599615L32.32909266666667,143.30239101098135L32.56012666666667,192.11136842003236L32.66392866666666,128.76857908872458L32.89501,128.9579519858727L32.996350666666665,129.71542328596115L33.101714666666666,118.96892728713843L33.334452666666664,147.56311888878162L33.44033733333333,108.41178389695975L33.54532266666667,143.06568503379822L33.648888,115.32363089231345L33.881058,110.9208834859041L34.11266,122.09345835905808L36.976942,89.94863652265988L37.423816,98.6121118068695L37.86761333333333,92.83646161739642L38.07535933333333,97.71264126667609L38.52341666666666,87.34487077364555L52.67314866666667,64.24227001575322L52.88098933333333,65.52048635024292L53.104307999999996,71.34346961975098L53.31058666666667,66.1359178332182L53.750691999999994,64.85770149872853L53.95697066666667,71.20145009114192L56.128008666666666,65.28378037305978L64.03456866666667,54.679303902846115L64.23587733333333,53.06969514259926L78.99848133333333,52.35957721104988L101.14328666666667,41.187002337895905L101.343838,48.52492820758087L101.56284933333333,83.08414289584526L101.99202066666666,43.0333170753259L102.19053666666667,42.559905120959655L102.391372,50.1818700478627L102.82040133333334,41.660434580766236L103.24673266666666,50.65528200222896L103.447568,41.61308121222717L103.64764600000001,37.16300072578284L103.84606733333332,38.204511083089386L104.04590866666668,43.08067044386496L104.24584466666667,43.22268997247403L104.67037733333333,39.62474694618811L104.86950866666666,39.95613937194531L105.29593466666667,47.62543737888336L105.72160333333332,36.31084297712033L105.92040333333334,47.29404495312619L106.34569333333333,42.13384653513248L106.545014,45.49508358423526L111.99644133333334,40.760943752068755L116.72650866666666,46.20520151578464L117.15847266666667,44.45357322692871L117.360018,38.96196209467374L117.56189466666666,41.044982809286836L117.99366933333333,43.83812145544934L118.194552,42.93865091525592L118.39609733333333,40.33486487773749L118.82815599999999,46.2998879643587L119.03060066666667,45.35306405562622L119.46573599999999,36.358196345659394L119.67139933333333,46.53659394154181L120.10980066666667,43.12800352389996L120.31617399999999,42.51257204092465L120.521364,43.83812145544934L120.958582,44.45357322692871L121.164482,49.329732587704285L121.60274133333333,39.57741386615314L122.03976999999999,50.84465489937709L122.47840799999999,50.89198797941208L122.68364533333335,37.305020254391906L122.888504,38.72525611749063L123.32468066666667,49.093026610521164L123.52793,41.61308121222717L123.96155066666665,40.00347245198029L124.395692,47.10469234448212L124.59894133333333,41.37637523504404L124.79930333333334,41.99180671801935L125.23264,45.9684955386015L125.66555066666666,38.630569668916564L129.57736666666668,41.99180671801935L130.00019533333332,36.973627828634704L130.197528,43.0333170753259L146.21479666666667,41.518394763653106L146.65315066666668,41.28168878646997L147.08421533333333,35.316685988352845L147.291914,35.032626642630646L147.498808,35.88478439129315L147.70376133333335,34.93794019405658L148.14538133333335,34.275175631046295L148.580848,44.500906306963685L148.78409733333334,33.47037125092285L148.98871933333334,36.9262947485997L149.42726266666668,37.06831427720877L149.86471733333335,39.0566485432478L150.29885866666666,38.204511083089386L150.501966,32.4288608936163L150.93544466666665,37.06831427720877L151.13665866666668,41.84978718941028L151.56814933333334,40.429551326311554L151.76983666666666,31.387350536309754L152.201848,34.32250871108127L152.40396133333334,41.61308121222717L152.60574333333332,33.42301788238379L153.03676066666668,32.09746846785913L153.23750133333334,34.32250871108127L153.670412,41.23435570643497L153.87214666666665,29.96709438470694L154.303022,37.54172623157501L154.50452,34.18048918247223L154.93615266666666,33.04429237659161L155.36740666666668,86.30336041633899L155.57141333333334,44.500906306963685L155.77220133333333,38.630569668916564L155.973936,41.75510074083621L156.40651533333332,37.11564735724377L161.83687933333334,35.50603859699689L168.37990800000003,37.257666885852814L168.80799066666668,31.19797763916162L169.00556,33.42301788238379L169.20625333333334,37.447039783000946L169.40779866666668,41.944473637984345L169.83720666666667,27.363328635692596L170.265952,30.961271661978486L170.47341400000002,29.63570195894974L170.905946,28.736231418756347L171.10929000000002,31.434683616344756L171.31400666666667,34.8432740339866L171.5192913333333,30.677232604760405L171.95641466666666,29.304329821696655L172.392544,42.89129754671683L172.82895733333334,30.393173259038207L173.032822,25.043601943896363L173.23768066666665,34.98529356259567L173.44220800000002,33.70707722810599L173.6463566666667,24.23879756377292L174.082486,35.12731309120471L174.28644533333332,36.074136999937195L174.490452,31.292664087735687L174.92572933333332,31.434683616344756L175.360628,37.49439315154004L175.56562866666667,33.517704330957855L176.0027046666667,29.06762384451352L176.20514933333334,25.327641001114472L176.41038666666665,26.463837806995087L176.61515066666666,33.89642983675003L176.82015133333334,30.203800361890075L177.25438733333334,26.605857335604156L177.684032,32.94960592801755L177.88652399999998,30.156467281855072L178.08849533333333,34.2278222625072L178.51885,28.357485624460082L178.94617533333334,23.67069916083264L179.37534666666664,29.446349350305695L179.804944,26.132445381237915L180.00819333333334,27.173955738544464L180.21149000000003,30.393173259038207L180.64672,27.789407510023835L181.08048266666665,43.69610192684027L181.51760599999997,22.581835434987L181.949286,24.71220951813919L183.99105666666665,31.81340912213693L184.42330466666667,32.28682107650317L184.62664866666668,32.05011509932004L185.06282533333334,23.33930673507544L185.49848133333333,36.02680391990222L185.70206199999998,24.617523069565124L186.13639266666667,26.321818278386047L186.3395,23.33930673507544L186.541708,19.646677260215455L186.97566,30.819252133369446L187.40994333333333,35.032626642630646L187.84498399999998,29.63570195894974L188.04794933333335,25.517013898262604L188.25176666666667,32.71289995083441L188.45610466666665,28.59419160164319L188.88939399999998,31.103291190587555L189.09287999999998,37.49439315154004L189.52531733333333,31.00860474201349L189.72582133333333,29.872428224636963L189.92873933333334,29.256976453157563L190.36051400000002,29.919761304671937L190.564142,49.23504613913022L190.99814133333334,30.72456568479538L191.42949000000002,44.02749435259747L191.63415933333332,35.45870551696191L191.838166,28.45217207303415L192.04155733333332,29.35166290173163L192.47541466666667,31.62405651349289L192.67918466666669,30.156467281855072L193.11138533333335,28.073446567241973L193.31278866666668,31.860762490675995L193.5138606666667,35.83743102275409L193.941044,31.055958110552552L194.36756466666668,34.46452823969034L194.79498466666666,30.393173259038207L194.99307466666667,36.216156528546264L195.1928213333333,35.97945055136313L195.39342,25.61170034683667L195.82155,29.777741776062896L196.02124933333334,31.908095570710998L196.21952866666666,26.747897152717286L196.64609666666666,28.688878050217255L196.84499133333333,25.75371987544574L197.04270266666668,34.5118816082294L200.183364,28.120779647276947L200.61655866666666,26.03775893266385L201.051552,29.114956924548522L201.25551133333335,28.120779647276947L201.689558,32.28682107650317L201.89152933333332,32.144801547894104L202.09492066666667,25.564346978297607L202.52333466666664,31.48201669637973L202.72346,31.718742962066955L208.72158733333333,25.564346978297607L208.929144,26.558524255569154L218.72065933333334,30.913938581943512L219.15721466666665,38.204511083089386L219.59296533333335,25.46966052972354L219.799528,25.422327449688538L220.243704,29.96709438470694L220.45220733333332,30.061780833281006L220.660048,29.39899598176663L221.103088,21.208952940427338L221.31211199999998,27.647367692910706L239.251398,23.907405138015747L239.45696666666666,25.422327449688538L239.90213666666665,28.073446567241973L240.11097133333334,25.564346978297607L240.31895400000002,22.72387525210013L240.52636866666666,24.42815017241699L240.73548733333334,24.901582415287322L240.94489000000002,30.251153730429138L241.15585466666667,27.41066171572757L241.60239733333333,26.65321070414322L241.81156333333334,24.002091586589813L242.01987733333334,22.203109929194824L242.227718,21.68236489479358L242.669054,25.990425852628846L243.11034266666667,21.587678446219513L243.31752066666667,25.848406324019805L243.52219,26.558524255569154L243.72846866666669,22.581835434987L259.56998866666663,26.65321070414322L259.7659013333333,24.522836620991058L259.965506,24.901582415287322L260.1642586666667,28.736231418756347L260.3333333333333,25.61170034683667" style="fill: none;" fill="none"></path></g></g></g></g></g></g><g transform="translate(46, 177)" clip-path="url(#clip_1)"><clipPath id="clip_1"><rect width="284" height="23"></rect></clipPath><g><g><line x1="0" y1="0" x2="0" y2="5" style="visibility: inherit;" fill="rgb(0, 0, 0)" stroke="rgb(204, 204, 204)" stroke-width="1px"></line><line x1="23.666666666666664" y1="0" x2="23.666666666666664" y2="5" style="visibility: inherit;" fill="rgb(0, 0, 0)" stroke="rgb(204, 204, 204)" stroke-width="1px"></line><line x1="47.33333333333333" y1="0" x2="47.33333333333333" y2="5" style="visibility: inherit;" fill="rgb(0, 0, 0)" stroke="rgb(204, 204, 204)" stroke-width="1px"></line><line x1="71" y1="0" x2="71" y2="5" style="visibility: inherit;" fill="rgb(0, 0, 0)" stroke="rgb(204, 204, 204)" stroke-width="1px"></line><line x1="94.66666666666666" y1="0" x2="94.66666666666666" y2="5" style="visibility: inherit;" fill="rgb(0, 0, 0)" stroke="rgb(204, 204, 204)" stroke-width="1px"></line><line x1="118.33333333333334" y1="0" x2="118.33333333333334" y2="5" style="visibility: inherit;" fill="rgb(0, 0, 0)" stroke="rgb(204, 204, 204)" stroke-width="1px"></line><line x1="142" y1="0" x2="142" y2="5" style="visibility: inherit;" fill="rgb(0, 0, 0)" stroke="rgb(204, 204, 204)" stroke-width="1px"></line><line x1="165.66666666666669" y1="0" x2="165.66666666666669" y2="5" style="visibility: inherit;" fill="rgb(0, 0, 0)" stroke="rgb(204, 204, 204)" stroke-width="1px"></line><line x1="189.33333333333331" y1="0" x2="189.33333333333331" y2="5" style="visibility: inherit;" fill="rgb(0, 0, 0)" stroke="rgb(204, 204, 204)" stroke-width="1px"></line><line x1="213" y1="0" x2="213" y2="5" style="visibility: inherit;" fill="rgb(0, 0, 0)" stroke="rgb(204, 204, 204)" stroke-width="1px"></line><line x1="236.66666666666669" y1="0" x2="236.66666666666669" y2="5" style="visibility: inherit;" fill="rgb(0, 0, 0)" stroke="rgb(204, 204, 204)" stroke-width="1px"></line><line x1="260.3333333333333" y1="0" x2="260.3333333333333" y2="5" style="visibility: inherit;" fill="rgb(0, 0, 0)" stroke="rgb(204, 204, 204)" stroke-width="1px"></line><line x1="284" y1="0" x2="284" y2="5" style="visibility: inherit;" fill="rgb(0, 0, 0)" stroke="rgb(204, 204, 204)" stroke-width="1px"></line></g><g transform="translate(0, 8)"><text x="0" y="0" dx="0em" dy="0.95em" style="text-anchor: middle; visibility: hidden; font-family: &quot;Helvetica Neue&quot;, sans-serif; font-size: 12px; font-weight: 200;" fill="rgb(50, 49, 63)" stroke="none" stroke-width="1px">-500k</text><text x="23.666666666666664" y="0" dx="0em" dy="0.95em" style="text-anchor: middle; visibility: inherit; font-family: &quot;Helvetica Neue&quot;, sans-serif; font-size: 12px; font-weight: 200;" fill="rgb(50, 49, 63)" stroke="none" stroke-width="1px">0</text><text x="47.33333333333333" y="0" dx="0em" dy="0.95em" style="text-anchor: middle; visibility: hidden; font-family: &quot;Helvetica Neue&quot;, sans-serif; font-size: 12px; font-weight: 200;" fill="rgb(50, 49, 63)" stroke="none" stroke-width="1px">500k</text><text x="71" y="0" dx="0em" dy="0.95em" style="text-anchor: middle; visibility: inherit; font-family: &quot;Helvetica Neue&quot;, sans-serif; font-size: 12px; font-weight: 200;" fill="rgb(50, 49, 63)" stroke="none" stroke-width="1px">1M</text><text x="94.66666666666666" y="0" dx="0em" dy="0.95em" style="text-anchor: middle; visibility: hidden; font-family: &quot;Helvetica Neue&quot;, sans-serif; font-size: 12px; font-weight: 200;" fill="rgb(50, 49, 63)" stroke="none" stroke-width="1px">1.5M</text><text x="118.33333333333334" y="0" dx="0em" dy="0.95em" style="text-anchor: middle; visibility: inherit; font-family: &quot;Helvetica Neue&quot;, sans-serif; font-size: 12px; font-weight: 200;" fill="rgb(50, 49, 63)" stroke="none" stroke-width="1px">2M</text><text x="142" y="0" dx="0em" dy="0.95em" style="text-anchor: middle; visibility: hidden; font-family: &quot;Helvetica Neue&quot;, sans-serif; font-size: 12px; font-weight: 200;" fill="rgb(50, 49, 63)" stroke="none" stroke-width="1px">2.5M</text><text x="165.66666666666669" y="0" dx="0em" dy="0.95em" style="text-anchor: middle; visibility: inherit; font-family: &quot;Helvetica Neue&quot;, sans-serif; font-size: 12px; font-weight: 200;" fill="rgb(50, 49, 63)" stroke="none" stroke-width="1px">3M</text><text x="189.33333333333331" y="0" dx="0em" dy="0.95em" style="text-anchor: middle; visibility: hidden; font-family: &quot;Helvetica Neue&quot;, sans-serif; font-size: 12px; font-weight: 200;" fill="rgb(50, 49, 63)" stroke="none" stroke-width="1px">3.5M</text><text x="213" y="0" dx="0em" dy="0.95em" style="text-anchor: middle; visibility: inherit; font-family: &quot;Helvetica Neue&quot;, sans-serif; font-size: 12px; font-weight: 200;" fill="rgb(50, 49, 63)" stroke="none" stroke-width="1px">4M</text><text x="236.66666666666669" y="0" dx="0em" dy="0.95em" style="text-anchor: middle; visibility: hidden; font-family: &quot;Helvetica Neue&quot;, sans-serif; font-size: 12px; font-weight: 200;" fill="rgb(50, 49, 63)" stroke="none" stroke-width="1px">4.5M</text><text x="260.3333333333333" y="0" dx="0em" dy="0.95em" style="text-anchor: middle; visibility: inherit; font-family: &quot;Helvetica Neue&quot;, sans-serif; font-size: 12px; font-weight: 200;" fill="rgb(50, 49, 63)" stroke="none" stroke-width="1px">5M</text><text x="284" y="0" dx="0em" dy="0.95em" style="text-anchor: middle; visibility: hidden; font-family: &quot;Helvetica Neue&quot;, sans-serif; font-size: 12px; font-weight: 200;" fill="rgb(50, 49, 63)" stroke="none" stroke-width="1px">5.5M</text></g><line x1="0" y1="0" x2="284" y2="0" fill="rgb(0, 0, 0)" stroke="rgb(204, 204, 204)" stroke-width="1px"></line></g></g></g></g></svg>