<svg viewBox="0 0 330 200" xmlns="http://www.w3.org/2000/svg"><g><g><g><g><g><line x1="46" y1="163.6044251639888" x2="41" y2="163.6044251639888" style="visibility: inherit;" fill="rgb(0, 0, 0)" stroke="rgb(204, 204, 204)" stroke-width="1px"></line><line x1="46" y1="143.90065157908313" x2="41" y2="143.90065157908313" style="visibility: inherit;" fill="rgb(0, 0, 0)" stroke="rgb(204, 204, 204)" stroke-width="1px"></line><line x1="46" y1="124.19687799417747" x2="41" y2="124.19687799417747" style="visibility: inherit;" fill="rgb(0, 0, 0)" stroke="rgb(204, 204, 204)" stroke-width="1px"></line><line x1="46" y1="104.49310440927182" x2="41" y2="104.49310440927182" style="visibility: inherit;" fill="rgb(0, 0, 0)" stroke="rgb(204, 204, 204)" stroke-width="1px"></line><line x1="46" y1="84.78933082436616" x2="41" y2="84.78933082436616" style="visibility: inherit;" fill="rgb(0, 0, 0)" stroke="rgb(204, 204, 204)" stroke-width="1px"></line><line x1="46" y1="65.0855572394605" x2="41" y2="65.0855572394605" style="visibility: inherit;" fill="rgb(0, 0, 0)" stroke="rgb(204, 204, 204)" stroke-width="1px"></line><line x1="46" y1="45.38178365455485" x2="41" y2="45.38178365455485" style="visibility: inherit;" fill="rgb(0, 0, 0)" stroke="rgb(204, 204, 204)" stroke-width="1px"></line><line x1="46" y1="25.67801006964919" x2="41" y2="25.67801006964919" style="visibility: inherit;" fill="rgb(0, 0, 0)" stroke="rgb(204, 204, 204)" stroke-width="1px"></line><line x1="46" y1="5.9742364847435" x2="41" y2="5.9742364847435" style="visibility: inherit;" fill="rgb(0, 0, 0)" stroke="rgb(204, 204, 204)" stroke-width="1px"></line></g><g transform="translate(36, 0)"><text x="0" y="163.6044251639888" dx="0em" dy="0.3em" style="text-anchor: end; visibility: inherit; font-family: &quot;Helvetica Neue&quot;, sans-serif; font-size: 12px; font-weight: 200;" fill="rgb(50, 49, 63)" stroke="none" stroke-width="1px">0</text><text x="0" y="143.90065157908313" dx="0em" dy="0.3em" style="text-anchor: end; visibility: hidden; font-family: &quot;Helvetica Neue&quot;, sans-serif; font-size: 12px; font-weight: 200;" fill="rgb(50, 49, 63)" stroke="none" stroke-width="1px">0.05</text><text x="0" y="124.19687799417747" dx="0em" dy="0.3em" style="text-anchor: end; visibility: inherit; font-family: &quot;Helvetica Neue&quot;, sans-serif; font-size: 12px; font-weight: 200;" fill="rgb(50, 49, 63)" stroke="none" stroke-width="1px">0.1</text><text x="0" y="104.49310440927182" dx="0em" dy="0.3em" style="text-anchor: end; visibility: hidden; font-family: &quot;Helvetica Neue&quot;, sans-serif; font-size: 12px; font-weight: 200;" fill="rgb(50, 49, 63)" stroke="none" stroke-width="1px">0.15</text><text x="0" y="84.78933082436616" dx="0em" dy="0.3em" style="text-anchor: end; visibility: inherit; font-family: &quot;Helvetica Neue&quot;, sans-serif; font-size: 12px; font-weight: 200;" fill="rgb(50, 49, 63)" stroke="none" stroke-width="1px">0.2</text><text x="0" y="65.0855572394605" dx="0em" dy="0.3em" style="text-anchor: end; visibility: hidden; font-family: &quot;Helvetica Neue&quot;, sans-serif; font-size: 12px; font-weight: 200;" fill="rgb(50, 49, 63)" stroke="none" stroke-width="1px">0.25</text><text x="0" y="45.38178365455485" dx="0em" dy="0.3em" style="text-anchor: end; visibility: inherit; font-family: &quot;Helvetica Neue&quot;, sans-serif; font-size: 12px; font-weight: 200;" fill="rgb(50, 49, 63)" stroke="none" stroke-width="1px">0.3</text><text x="0" y="25.67801006964919" dx="0em" dy="0.3em" style="text-anchor: end; visibility: hidden; font-family: &quot;Helvetica Neue&quot;, sans-serif; font-size: 12px; font-weight: 200;" fill="rgb(50, 49, 63)" stroke="none" stroke-width="1px">0.35</text><text x="0" y="5.9742364847435" dx="0em" dy="0.3em" style="text-anchor: end; visibility: hidden; font-family: &quot;Helvetica Neue&quot;, sans-serif; font-size: 12px; font-weight: 200;" fill="rgb(50, 49, 63)" stroke="none" stroke-width="1px">0.4</text></g><line x1="46" y1="0" x2="46" y2="177" fill="rgb(0, 0, 0)" stroke="rgb(204, 204, 204)" stroke-width="1px"></line></g></g><g transform="translate(46, 0)" clip-path="url(#clip_0)"><clipPath id="clip_0"><rect width="284" height="177"></rect></clipPath><g><g><g><line x1="18.62144702842377" y1="0" x2="18.62144702842377" y2="177" fill="rgb(0, 0, 0)" stroke="rgb(60, 60, 60)" stroke-width="1px" opacity="0.25"></line><line x1="43.847545219638235" y1="0" x2="43.847545219638235" y2="177" fill="rgb(0, 0, 0)" stroke="rgb(60, 60, 60)" stroke-width="1px" opacity="0.25"></line><line x1="69.07364341085271" y1="0" x2="69.07364341085271" y2="177" fill="rgb(0, 0, 0)" stroke="rgb(60, 60, 60)" stroke-width="1px" opacity="0.25"></line><line x1="94.29974160206719" y1="0" x2="94.29974160206719" y2="177" fill="rgb(0, 0, 0)" stroke="rgb(60, 60, 60)" stroke-width="1px" opacity="0.25"></line><line x1="119.52583979328166" y1="0" x2="119.52583979328166" y2="177" fill="rgb(0, 0, 0)" stroke="rgb(60, 60, 60)" stroke-width="1px" opacity="0.25"></line><line x1="144.75193798449612" y1="0" x2="144.75193798449612" y2="177" fill="rgb(0, 0, 0)" stroke="rgb(60, 60, 60)" stroke-width="1px" opacity="0.25"></line><line x1="169.9780361757106" y1="0" x2="169.9780361757106" y2="177" fill="rgb(0, 0, 0)" stroke="rgb(60, 60, 60)" stroke-width="1px" opacity="0.25"></line><line x1="195.20413436692508" y1="0" x2="195.20413436692508" y2="177" fill="rgb(0, 0, 0)" stroke="rgb(60, 60, 60)" stroke-width="1px" opacity="0.25"></line><line x1="220.43023255813955" y1="0" x2="220.43023255813955" y2="177" fill="rgb(0, 0, 0)" stroke="rgb(60, 60, 60)" stroke-width="1px" opacity="0.25"></line><line x1="245.65633074935403" y1="0" x2="245.65633074935403" y2="177" fill="rgb(0, 0, 0)" stroke="rgb(60, 60, 60)" stroke-width="1px" opacity="0.25"></line><line x1="270.88242894056845" y1="0" x2="270.88242894056845" y2="177" fill="rgb(0, 0, 0)" stroke="rgb(60, 60, 60)" stroke-width="1px" opacity="0.25"></line></g><g><line x1="0" y1="163.6044251639888" x2="284" y2="163.6044251639888" fill="rgb(0, 0, 0)" stroke="rgb(60, 60, 60)" stroke-width="1px" opacity="0.25"></line><line x1="0" y1="143.90065157908313" x2="284" y2="143.90065157908313" fill="rgb(0, 0, 0)" stroke="rgb(60, 60, 60)" stroke-width="1px" opacity="0.25"></line><line x1="0" y1="124.19687799417747" x2="284" y2="124.19687799417747" fill="rgb(0, 0, 0)" stroke="rgb(60, 60, 60)" stroke-width="1px" opacity="0.25"></line><line x1="0" y1="104.49310440927182" x2="284" y2="104.49310440927182" fill="rgb(0, 0, 0)" stroke="rgb(60, 60, 60)" stroke-width="1px" opacity="0.25"></line><line x1="0" y1="84.78933082436616" x2="284" y2="84.78933082436616" fill="rgb(0, 0, 0)" stroke="rgb(60, 60, 60)" stroke-width="1px" opacity="0.25"></line><line x1="0" y1="65.0855572394605" x2="284" y2="65.0855572394605" fill="rgb(0, 0, 0)" stroke="rgb(60, 60, 60)" stroke-width="1px" opacity="0.25"></line><line x1="0" y1="45.38178365455485" x2="284" y2="45.38178365455485" fill="rgb(0, 0, 0)" stroke="rgb(60, 60, 60)" stroke-width="1px" opacity="0.25"></line><line x1="0" y1="25.67801006964919" x2="284" y2="25.67801006964919" fill="rgb(0, 0, 0)" stroke="rgb(60, 60, 60)" stroke-width="1px" opacity="0.25"></line><line x1="0" y1="5.9742364847435" x2="284" y2="5.9742364847435" fill="rgb(0, 0, 0)" stroke="rgb(60, 60, 60)" stroke-width="1px" opacity="0.25"></line></g></g></g><g><g><line x1="0" y1="163.6044251639888" x2="284" y2="163.6044251639888" fill="rgb(0, 0, 0)" stroke="rgb(153, 153, 153)" stroke-width="1.5px"></line></g></g><g><g><line x1="18.62144702842377" y1="0" x2="18.62144702842377" y2="177" fill="rgb(0, 0, 0)" stroke="rgb(153, 153, 153)" stroke-width="1.5px"></line></g></g><g><g><g><g><g><path stroke="rgb(255, 112, 67)" stroke-width="2px" d="M18.850045930232557,162.19171779222856L19.063811886304908,163.30884099286442L19.26390529715762,162.50653025282415L19.711870348837206,160.2016344331835L20.154033397932817,155.4521568963528L20.599021770025836,151.39724840600041L24.870405620155037,134.98417727787884L24.87212099483204,131.40315746514142L25.09411065891473,123.97740211035449L25.550047157622735,120.02854199234412L25.763510400516797,123.72324025993294L25.978890826873386,128.89512380292385L26.43891395348837,128.61912532342484L26.897423514211884,121.01519022280588L27.018962855297158,115.64631494271691L27.266733591731263,122.57200517320607L27.38136098191214,115.42812167331525L27.494827971576225,117.6575252525734L27.745323126614984,124.6156769639037L27.85465303617571,122.93409061268481L28.100910206718343,138.38311883879982L28.21155187338501,120.74310352635939L28.45785949612403,114.7952743503935L28.56587764857881,117.94832684002819L28.678184237726096,110.17665107215814L28.926257687338502,121.57899592080773L29.039119250645996,105.3374728001654L29.15102222222222,131.59270985032342L29.261411627906977,120.26693404592211L29.50887965116279,111.71126921051473L29.755742248062013,117.3308381933416L32.80875600775193,96.6751278941357L33.28507519379845,105.30117539535284L33.7581149870801,102.77707835562234L33.97954967700258,102.56880814660256L34.45713016795865,96.36067664320008L49.5392088501292,61.14174163395721L49.76074444444445,74.23416891803726L49.99877790697674,77.11441453136409L50.21864857881136,64.64501011764206L50.68775310077519,61.74284045453784L50.90762377260982,66.07906115302973L53.22171466408269,65.42767049397207L61.64924954780362,62.68858331779505L61.86382273901809,58.878480425750325L77.59915645994833,44.794140086336995L101.20311563307494,35.54997748751637L101.4168815891473,42.21404533345955L101.65032390180878,57.057112969921235L102.10777396640827,48.030383692489835L102.31937047803618,39.78098100067942L102.53343914728683,42.63010600954297L102.99073785529716,38.49681004948076L103.4451607881137,44.433602803047336L103.65922945736435,42.54209035244901L103.87249089147288,33.62355652532915L104.08398649870801,45.20530477358517L104.29699567183462,42.133762799309096L104.510105749354,43.63896982693427L104.96261149870801,34.63099663070389L105.1748638888889,38.124056763796744L105.62938772609819,44.75658495099137L106.08310432816538,33.698563531208976L106.29500355297158,42.74400064919482L106.7483165374677,41.61521655947715L106.96077073643411,40.0773506917545L112.77140064599485,43.037241277569365L117.81313908268734,46.492734700588215L118.2735658268734,43.87890786710025L118.48839127906977,38.171751144243274L118.70356989664083,54.18117207865767L119.16379483204135,51.57513709138627L119.37791395348839,60.27918133111545L119.59273940568477,44.15563296711767L120.05326705426357,49.934095218522145L120.26905109819121,37.98236797538678L120.73285813953488,33.96736542583011L120.95207293281653,45.588816939091714L121.41936117571059,43.080608003648166L121.63933275193799,47.03101317733825L121.85804302325582,36.8093464658983L122.32406996124031,40.97852893625213L122.54353701550387,49.207899365117214L123.01067390180879,33.63589830228048L123.47649903100775,38.01370612449114L123.94403953488373,40.41684199086015L124.16280025839792,31.935575980303298L124.38115736434109,35.498575855364805L124.84607435400517,47.10311128737561L125.06271608527133,41.8406333750514L125.52490865633075,38.363891109234345L125.9876562015504,42.176811016256465L126.20429793281653,49.59226409805173L126.41786208010336,41.85497017977474L126.8797519379845,45.46170248671342L127.3411877260982,44.16576834641313L131.51075904392764,39.346085391454665L131.9614485142119,36.22321342281967L132.17178372093025,36.601827344597154L149.24445381136948,37.935591957554635L149.7116916020672,38.054704543054356L150.17115975452197,36.61407583242331L150.39254399224808,40.28274290545377L150.61307054263568,39.12750426456759L150.83152855297158,39.99400427242759L151.30224754521964,34.57572029292331L151.76640775193798,46.173838742248364L151.98304948320416,35.513747167325675L152.20115432816536,39.80482956980768L152.66859392764857,36.82053164902635L153.134873126615,39.4753040209942L153.59762067183462,36.30882197319124L153.81411104651164,25.484314678395975L154.27615226098192,29.458454036473512L154.49062454780363,32.639882910255665L154.95054677002585,26.540142357884207L155.1655235788114,28.46600682678138L155.6260007751938,26.682324471776752L155.84143165374675,33.39311760770394L156.05650936692507,32.63441465066472L156.51592706718347,28.71757997190602L156.72989483204134,32.17758974175956L157.19133062015504,40.68074394153362L157.40635788113696,29.502714785644258L157.8656242248062,33.85287722570774L158.0803992248062,33.02740184782721L158.54047280361758,41.764200787781675L159.00014276485788,47.52558902398249L159.21759173126617,45.851765177448954L159.4316099483204,45.767742761240214L159.64663720930236,41.72834212065837L160.10771983204137,33.90108178829334L165.8958985142119,34.609255701072016L172.87005697674417,36.67893048520477L173.32634664082687,28.548327944823342L173.53693410852713,28.14751433534775L173.75085142118863,28.78590640833835L173.965676873385,32.284871660089976L174.42337919896642,30.534465500635577L174.88037519379844,26.982192397785013L175.10150717054265,28.73665400969955L175.56253934108526,27.49428671644469L175.77928197674422,24.39972730249292L175.99748772609817,34.49005985850417L176.21629890180878,37.44680038290744L176.6822249354005,26.409161886579938L177.14709147286823,32.048104492720796L177.6122607235142,36.02721814780239L177.82955833333332,30.3724088632772L178.0479154392765,34.05647690664267L178.26591937984497,27.675387889997694L178.4835197028424,18.39298540465049L178.94838624031007,27.010237118977216L179.16578475452195,32.50125558615818L179.38323372093024,23.852913454373862L179.84719211886306,25.36738429106157L180.31074689922482,30.367279114328312L180.5292553617571,30.108597832201355L180.99513094315247,27.859267966313183L181.21091498708012,20.419876600139986L181.4296757105943,21.21520662232018L181.6479319121447,29.355936603451852L181.866440374677,30.74566795157193L182.3292888242894,29.22237779279604L182.7872434108527,36.389979351287366L183.00307790697673,35.030503364662735L183.21835742894058,37.75896700945043L183.6770687984496,26.84145750847955L184.13255122739017,20.02991524442487L184.59000129198967,35.921901993703585L185.04790542635658,35.080865280167274L185.26454715762276,20.260039135049084L185.48123934108526,40.53212135656324L185.9451472868217,34.24243178119934L186.40749121447027,34.61240413464756L186.87341724806203,20.184744983586995L187.33354127906978,31.949862908652477L189.50984722222222,40.4785327954896L189.97057667958654,37.74496414862071L190.1873193152455,29.28960315343039L190.65223630490956,24.65365798064869L191.11659832041343,31.167213623885516L191.33359321705424,24.23738714550433L191.7965425710594,29.5898281863862L192.01303294573643,26.618334242650008L192.22856472868216,15.965747749098739L192.69111046511628,32.127218896610884L193.15400936692507,33.73521267979021L193.61771550387596,30.711356401570526L193.83405452196382,30.823277038654766L194.05130167958657,32.43286365421048L194.2691038113695,32.847084089465L194.7309432170543,35.26891120537883L194.94783720930232,28.39912164946921L195.4087684754522,35.9351932497033L195.62248397932814,24.04812959845816L195.83877254521965,23.329874676131197L196.29899748062016,30.01208487106024L196.51604282945735,32.41165162962412L196.97863901808788,31.764628985745276L197.43840988372094,27.45768497494356L197.65656518087854,31.665088355163277L197.87401414728683,26.757223346121492L198.09080723514214,27.552845593069577L198.55325206718345,28.748969095309377L198.77044877260983,33.72088248245325L199.23112777777777,30.198999668194375L199.445801873385,23.77335653225839L199.66012280361755,24.81785998082384L200.115453875969,30.286474916784158L200.57007861757108,31.34271065725605L201.0256619509044,27.38872750924645L201.23680439276484,28.24632248292079L201.4497126614987,35.77509416112926L201.66352906976743,25.347111726350448L202.11986918604651,24.504641977560254L202.332727002584,32.20065861938838L202.54407125323,27.03402437376917L202.99874644702842,31.636095533263386L203.2107465762274,42.485147620302L203.4214854005168,36.97497498657344L206.7690895348837,34.11443046113857L207.2308280361757,25.264002326335458L207.69448372093024,26.860453735293817L207.91188223514212,29.326393548649833L208.37452887596902,33.87246192422924L208.5898083979328,32.62212366122935L208.80660148578812,20.38354143708648L209.2632443152455,29.05652852748321L209.47655620155038,30.033514583123548L215.86990897932816,19.266221755451852L216.09114186046511,24.51855522333804L226.52783456072353,28.57712802116967L226.99315516795866,54.027403854460445L227.4576180878553,34.75450437553681L227.67779147286822,28.859222644591114L228.15123488372092,19.705558187235084L228.37347680878554,24.811194933353022L228.59501240310075,18.156901987963977L229.0672449612403,16.037955248795697L229.29004186046512,23.283696850324077L248.4113738372093,18.281067575081835L248.63048772609818,19.677491193441057L249.10499063307495,26.361626342189822L249.3275857235142,26.935461291702524L249.5492726744186,27.213610626880524L249.7703541989664,22.981935954925405L249.993252002584,27.522079507693434L250.21645251937983,38.07348707179807L250.44131795865633,28.09853039222233L250.91728397932818,29.015996810162306L251.14023223514212,22.43833453873023L251.36227235142118,22.23071643653043L251.58380794573642,19.981043884704746L252.05422422480618,28.38756309572105L252.5245900516796,15.997998626508036L252.7454193152455,25.99860626909205L252.9635746124031,23.842762155394524L253.18344528423773,23.85799171427101L270.06878636950904,23.168388770057703L270.27760801033594,31.01543353969251L270.49036492248064,20.557520812285503L270.70221369509045,26.34914498963667L270.88242894056845,18.476358571584313" style="fill: none;" fill="none"></path></g></g></g></g><g opacity="0.2"><g><g><g><path stroke="rgb(255, 112, 67)" stroke-width="2px" d="M18.850045930232557,162.19171779222856L19.063811886304908,163.41608482012546L19.26390529715762,162.42211432600007L19.711870348837206,159.9570832903163L20.154033397932817,154.94783043883882L20.599021770025836,150.9666421658869L24.870405620155037,133.24119763745452L24.87212099483204,131.02287220386964L25.09411065891473,123.1888263261543L25.550047157622735,119.60919401550068L25.763510400516797,124.11559759805786L25.978890826873386,129.44435037385742L26.43891395348837,128.58981575038072L26.897423514211884,120.20769268999683L27.018962855297158,115.07616889527384L27.266733591731263,123.30747670210758L27.38136098191214,114.66947917775163L27.494827971576225,117.89427607514948L27.745323126614984,125.35459572970868L27.85465303617571,122.75551507096245L28.100910206718343,140.02372360617485L28.21155187338501,118.86982756397634L28.45785949612403,114.16364647329978L28.56587764857881,118.28316427255575L28.678184237726096,109.3513403711454L28.926257687338502,122.78986440031034L29.039119250645996,103.61270928292905L29.15102222222222,134.38087661671187L29.261411627906977,119.06419679235738L29.50887965116279,110.80270303330332L29.755742248062013,117.92760658089844L32.80875600775193,94.48160113669792L33.28507519379845,106.21721583795997L33.7581149870801,102.50903265228811L33.97954967700258,102.54669095626417L34.45713016795865,95.70140604106885L49.5392088501292,57.40167773917037L49.76074444444445,75.62451517829356L49.99877790697674,77.42028132215985L50.21864857881136,63.32082557813176L50.68775310077519,61.43464544606658L50.90762377260982,66.53954476702887L53.22171466408269,65.35849626469162L61.64924954780362,62.39770680351077L61.86382273901809,58.47386772925L77.59915645994833,43.298457926399294L101.20311563307494,34.56829650357085L101.4168815891473,42.921733954267665L101.65032390180878,58.63336794016496L102.10777396640827,47.07179297276264L102.31937047803618,38.90493823694732L102.53343914728683,42.93266795738688L102.99073785529716,38.05787596522637L103.4451607881137,45.064058670682726L103.65922945736435,42.341221773624426L103.87249089147288,32.67645558793592L104.08398649870801,46.43522494154155L104.29699567183462,41.807581350713406L104.510105749354,43.79881482101837L104.96261149870801,33.6743977072104L105.1748638888889,38.49500120270926L105.62938772609819,45.460924227507604L106.08310432816538,32.52426037158605L106.29500355297158,43.704578042255264L106.7483165374677,41.495345682693L106.96077073643411,39.914037502261834L112.77140064599485,43.351565941549694L117.81313908268734,46.85968975436012L118.2735658268734,43.60133333611037L118.48839127906977,37.56568140376288L118.70356989664083,55.8812875761176L119.16379483204135,51.298390013091975L119.37791395348839,61.20350461321057L119.59273940568477,42.443397742622295L120.05326705426357,50.547737227520855L120.26905109819121,36.71315800266444L120.73285813953488,33.54099347366477L120.95207293281653,46.822953382977914L121.41936117571059,42.81424953262763L121.63933275193799,47.450525231181444L121.85804302325582,35.72385973547992L122.32406996124031,41.42127397735166L122.54353701550387,50.08181480889051L123.01067390180879,31.982234472598662L123.47649903100775,38.47860607021261L123.94403953488373,40.67204225985509L124.16280025839792,31.034910563252993L124.38115736434109,35.87694752351294L124.84607435400517,48.33545133325288L125.06271608527133,41.281786163123144L125.52490865633075,37.99467954118299L125.9876562015504,42.58172286478978L126.20429793281653,50.379745841251236L126.41786208010336,41.03331064863025L126.8797519379845,45.844718306919304L127.3411877260982,44.02814702177949L131.51075904392764,38.834260652875L131.9614485142119,35.89158100137172L132.17178372093025,36.642034132750524L149.24445381136948,38.077230677514706L149.7116916020672,38.06735366717825L150.17115975452197,36.46108871271028L150.39254399224808,40.6723358689614L150.61307054263568,39.00482405491596L150.83152855297158,40.08602197237735L151.30224754521964,34.000327303949405L151.76640775193798,47.40549733863685L151.98304948320416,34.38170204432504L152.20115432816536,40.260519736442916L152.66859392764857,36.50361505566903L153.134873126615,39.75722675076071L153.59762067183462,35.9725583928936L153.81411104651164,24.3348094789487L154.27615226098192,29.880486534676464L154.49062454780363,32.97773376410862L154.95054677002585,25.89238229922529L155.1655235788114,28.67052340754924L155.6260007751938,26.492906876555054L155.84143165374675,34.10576820620952L156.05650936692507,32.553844425138436L156.51592706718347,28.30163292637411L156.72989483204134,32.54502440758472L157.19133062015504,41.583733768058295L157.40635788113696,28.31566744165599L157.8656242248062,34.31484137863484L158.0803992248062,32.93974074575135L158.54047280361758,42.69200244512197L159.00014276485788,48.13741786322504L159.21759173126617,45.67401397250734L159.4316099483204,45.75882002677557L159.64663720930236,41.299379220773574L160.10771983204137,33.06986830167051L165.8958985142119,34.68446001039359L172.87005697674417,36.89871895785603L173.32634664082687,27.684901126375763L173.53693410852713,28.104950058235318L173.75085142118863,28.85370025679751L173.965676873385,32.65644319124942L174.42337919896642,30.348581660693554L174.88037519379844,26.604959855889376L175.10150717054265,28.922968517159518L175.56253934108526,27.3623539065415L175.77928197674422,24.07110152402015L175.99748772609817,35.56159959896556L176.21629890180878,37.76079052709184L176.6822249354005,25.237023285199996L177.14709147286823,32.64693025620477L177.6122607235142,36.449778889934976L177.82955833333332,29.77189814279666L178.0479154392765,34.44770537142486L178.26591937984497,26.997750118318606L178.4835197028424,17.407243547799453L178.94838624031007,27.92534349571983L179.16578475452195,33.08437259152251L179.38323372093024,22.934505440379098L179.84719211886306,25.528213052479714L180.31074689922482,30.898241396445172L180.5292553617571,30.08112725356841L180.99513094315247,27.620401077900283L181.21091498708012,19.62985273824546L181.4296757105943,21.299666447684473L181.6479319121447,30.220438902333115L181.866440374677,30.89325004163777L182.3292888242894,29.060612466200325L182.7872434108527,37.151140578737824L183.00307790697673,34.88613423333976L183.21835742894058,38.048715361109345L183.6770687984496,25.68207596855342L184.13255122739017,19.306565623463314L184.59000129198967,37.609546604246475L185.04790542635658,34.991551646871386L185.26454715762276,18.686146093089633L185.48123934108526,42.684908849113384L185.9451472868217,33.57450014487753L186.40749121447027,34.65169323412877L186.87341724806203,18.652604188784096L187.33354127906978,33.19925596264173L189.50984722222222,41.38423225249883L189.97057667958654,37.454673672847036L190.1873193152455,28.391688711463274L190.65223630490956,24.161345218937356L191.11659832041343,31.85891864794604L191.33359321705424,23.501476369039068L191.7965425710594,30.15822900488692L192.01303294573643,26.302777363669207L192.22856472868216,14.834499625889748L192.69111046511628,33.84348131935553L193.15400936692507,33.90597308154378L193.61771550387596,30.39023892069764L193.83405452196382,30.835162416044284L194.05130167958657,32.603793206304886L194.2691038113695,32.891072100288454L194.7309432170543,35.526096385829845L194.94783720930232,27.669586475390332L195.4087684754522,36.73548403910871L195.62248397932814,22.785786555848034L195.83877254521965,23.253599817123046L196.29899748062016,30.7217001129996L196.51604282945735,32.666472878321144L196.97863901808788,31.695918616483794L197.43840988372094,27.000310389725655L197.65656518087854,32.11189225394773L197.87401414728683,26.236034141621502L198.09080723514214,27.637336451152606L198.55325206718345,28.875991060149005L198.77044877260983,34.24887328462779L199.23112777777777,29.824994413582772L199.445801873385,23.090987349681143L199.66012280361755,24.92878070102546L200.115453875969,30.86721278608971L200.57007861757108,31.454877284562826L201.0256619509044,26.968835493528616L201.23680439276484,28.337394515523386L201.4497126614987,36.57460973757617L201.66352906976743,24.23971536159516L202.11986918604651,24.415176163529452L202.332727002584,33.0179347229454L202.54407125323,26.485355250340604L202.99874644702842,32.12481105462561L203.2107465762274,43.63725934635917L203.4214854005168,36.38982391042529L206.7690895348837,33.81065582126942L207.2308280361757,24.324133851843044L207.69448372093024,27.029988398192074L207.91188223514212,29.588263263342526L208.37452887596902,34.35523024729963L208.5898083979328,32.48934437666301L208.80660148578812,19.083868988504975L209.2632443152455,29.977553705224466L209.47655620155038,30.13726531469598L215.86990897932816,18.122792428619476L216.09114186046511,25.076325149131293L226.52783456072353,29.008126902355343L226.99315516795866,56.730088013747945L227.4576180878553,32.707824784854694L227.67779147286822,28.233175027145535L228.15123488372092,18.733487625391973L228.37347680878554,25.35338644621507L228.59501240310075,17.450251409692584L229.0672449612403,15.812934356140659L229.29004186046512,24.053156135442123L248.4113738372093,17.749814908684414L248.63048772609818,19.825783967072113L249.10499063307495,27.07144600400386L249.3275857235142,26.996399516429534L249.5492726744186,27.2431486093773L249.7703541989664,22.53255457383281L249.993252002584,28.004218646040528L250.21645251937983,39.193990529933075L250.44131795865633,27.039242957223138L250.91728397932818,29.113426872244446L251.14023223514212,21.73982173114453L251.36227235142118,22.208668496473763L251.58380794573642,19.742140604864886L252.05422422480618,29.28029079954581L252.5245900516796,14.68229266517568L252.7454193152455,27.060617700162936L252.9635746124031,23.613822957479726L253.18344528423773,23.859609012558792L270.06878636950904,23.095156598990826L270.27760801033594,31.84874802850328L270.49036492248064,19.44694600937501L270.70221369509045,26.964184725284582L270.88242894056845,17.64031045639291" style="fill: none;" fill="none"></path></g></g></g></g></g></g><g transform="translate(46, 177)" clip-path="url(#clip_1)"><clipPath id="clip_1"><rect width="284" height="23"></rect></clipPath><g><g><line x1="18.62144702842377" y1="0" x2="18.62144702842377" y2="5" style="visibility: inherit;" fill="rgb(0, 0, 0)" stroke="rgb(204, 204, 204)" stroke-width="1px"></line><line x1="43.847545219638235" y1="0" x2="43.847545219638235" y2="5" style="visibility: inherit;" fill="rgb(0, 0, 0)" stroke="rgb(204, 204, 204)" stroke-width="1px"></line><line x1="69.07364341085271" y1="0" x2="69.07364341085271" y2="5" style="visibility: inherit;" fill="rgb(0, 0, 0)" stroke="rgb(204, 204, 204)" stroke-width="1px"></line><line x1="94.29974160206719" y1="0" x2="94.29974160206719" y2="5" style="visibility: inherit;" fill="rgb(0, 0, 0)" stroke="rgb(204, 204, 204)" stroke-width="1px"></line><line x1="119.52583979328166" y1="0" x2="119.52583979328166" y2="5" style="visibility: inherit;" fill="rgb(0, 0, 0)" stroke="rgb(204, 204, 204)" stroke-width="1px"></line><line x1="144.75193798449612" y1="0" x2="144.75193798449612" y2="5" style="visibility: inherit;" fill="rgb(0, 0, 0)" stroke="rgb(204, 204, 204)" stroke-width="1px"></line><line x1="169.9780361757106" y1="0" x2="169.9780361757106" y2="5" style="visibility: inherit;" fill="rgb(0, 0, 0)" stroke="rgb(204, 204, 204)" stroke-width="1px"></line><line x1="195.20413436692508" y1="0" x2="195.20413436692508" y2="5" style="visibility: inherit;" fill="rgb(0, 0, 0)" stroke="rgb(204, 204, 204)" stroke-width="1px"></line><line x1="220.43023255813955" y1="0" x2="220.43023255813955" y2="5" style="visibility: inherit;" fill="rgb(0, 0, 0)" stroke="rgb(204, 204, 204)" stroke-width="1px"></line><line x1="245.65633074935403" y1="0" x2="245.65633074935403" y2="5" style="visibility: inherit;" fill="rgb(0, 0, 0)" stroke="rgb(204, 204, 204)" stroke-width="1px"></line><line x1="270.88242894056845" y1="0" x2="270.88242894056845" y2="5" style="visibility: inherit;" fill="rgb(0, 0, 0)" stroke="rgb(204, 204, 204)" stroke-width="1px"></line></g><g transform="translate(0, 8)"><text x="18.62144702842377" y="0" dx="0em" dy="0.95em" style="text-anchor: middle; visibility: inherit; font-family: &quot;Helvetica Neue&quot;, sans-serif; font-size: 12px; font-weight: 200;" fill="rgb(50, 49, 63)" stroke="none" stroke-width="1px">0</text><text x="43.847545219638235" y="0" dx="0em" dy="0.95em" style="text-anchor: middle; visibility: hidden; font-family: &quot;Helvetica Neue&quot;, sans-serif; font-size: 12px; font-weight: 200;" fill="rgb(50, 49, 63)" stroke="none" stroke-width="1px">500k</text><text x="69.07364341085271" y="0" dx="0em" dy="0.95em" style="text-anchor: middle; visibility: inherit; font-family: &quot;Helvetica Neue&quot;, sans-serif; font-size: 12px; font-weight: 200;" fill="rgb(50, 49, 63)" stroke="none" stroke-width="1px">1M</text><text x="94.29974160206719" y="0" dx="0em" dy="0.95em" style="text-anchor: middle; visibility: hidden; font-family: &quot;Helvetica Neue&quot;, sans-serif; font-size: 12px; font-weight: 200;" fill="rgb(50, 49, 63)" stroke="none" stroke-width="1px">1.5M</text><text x="119.52583979328166" y="0" dx="0em" dy="0.95em" style="text-anchor: middle; visibility: inherit; font-family: &quot;Helvetica Neue&quot;, sans-serif; font-size: 12px; font-weight: 200;" fill="rgb(50, 49, 63)" stroke="none" stroke-width="1px">2M</text><text x="144.75193798449612" y="0" dx="0em" dy="0.95em" style="text-anchor: middle; visibility: hidden; font-family: &quot;Helvetica Neue&quot;, sans-serif; font-size: 12px; font-weight: 200;" fill="rgb(50, 49, 63)" stroke="none" stroke-width="1px">2.5M</text><text x="169.9780361757106" y="0" dx="0em" dy="0.95em" style="text-anchor: middle; visibility: inherit; font-family: &quot;Helvetica Neue&quot;, sans-serif; font-size: 12px; font-weight: 200;" fill="rgb(50, 49, 63)" stroke="none" stroke-width="1px">3M</text><text x="195.20413436692508" y="0" dx="0em" dy="0.95em" style="text-anchor: middle; visibility: hidden; font-family: &quot;Helvetica Neue&quot;, sans-serif; font-size: 12px; font-weight: 200;" fill="rgb(50, 49, 63)" stroke="none" stroke-width="1px">3.5M</text><text x="220.43023255813955" y="0" dx="0em" dy="0.95em" style="text-anchor: middle; visibility: inherit; font-family: &quot;Helvetica Neue&quot;, sans-serif; font-size: 12px; font-weight: 200;" fill="rgb(50, 49, 63)" stroke="none" stroke-width="1px">4M</text><text x="245.65633074935403" y="0" dx="0em" dy="0.95em" style="text-anchor: middle; visibility: hidden; font-family: &quot;Helvetica Neue&quot;, sans-serif; font-size: 12px; font-weight: 200;" fill="rgb(50, 49, 63)" stroke="none" stroke-width="1px">4.5M</text><text x="270.88242894056845" y="0" dx="0em" dy="0.95em" style="text-anchor: middle; visibility: inherit; font-family: &quot;Helvetica Neue&quot;, sans-serif; font-size: 12px; font-weight: 200;" fill="rgb(50, 49, 63)" stroke="none" stroke-width="1px">5M</text></g><line x1="0" y1="0" x2="284" y2="0" fill="rgb(0, 0, 0)" stroke="rgb(204, 204, 204)" stroke-width="1px"></line></g></g></g></g></svg>