<svg viewBox="0 0 330 200" xmlns="http://www.w3.org/2000/svg"><g><g><g><g><g><line x1="55" y1="177" x2="50" y2="177" style="visibility: inherit;" fill="rgb(0, 0, 0)" stroke="rgb(204, 204, 204)" stroke-width="1px"></line><line x1="55" y1="163.3846153846154" x2="50" y2="163.3846153846154" style="visibility: inherit;" fill="rgb(0, 0, 0)" stroke="rgb(204, 204, 204)" stroke-width="1px"></line><line x1="55" y1="149.76923076923077" x2="50" y2="149.76923076923077" style="visibility: inherit;" fill="rgb(0, 0, 0)" stroke="rgb(204, 204, 204)" stroke-width="1px"></line><line x1="55" y1="136.15384615384616" x2="50" y2="136.15384615384616" style="visibility: inherit;" fill="rgb(0, 0, 0)" stroke="rgb(204, 204, 204)" stroke-width="1px"></line><line x1="55" y1="122.53846153846153" x2="50" y2="122.53846153846153" style="visibility: inherit;" fill="rgb(0, 0, 0)" stroke="rgb(204, 204, 204)" stroke-width="1px"></line><line x1="55" y1="108.92307692307692" x2="50" y2="108.92307692307692" style="visibility: inherit;" fill="rgb(0, 0, 0)" stroke="rgb(204, 204, 204)" stroke-width="1px"></line><line x1="55" y1="95.3076923076923" x2="50" y2="95.3076923076923" style="visibility: inherit;" fill="rgb(0, 0, 0)" stroke="rgb(204, 204, 204)" stroke-width="1px"></line><line x1="55" y1="81.6923076923077" x2="50" y2="81.6923076923077" style="visibility: inherit;" fill="rgb(0, 0, 0)" stroke="rgb(204, 204, 204)" stroke-width="1px"></line><line x1="55" y1="68.07692307692307" x2="50" y2="68.07692307692307" style="visibility: inherit;" fill="rgb(0, 0, 0)" stroke="rgb(204, 204, 204)" stroke-width="1px"></line><line x1="55" y1="54.46153846153847" x2="50" y2="54.46153846153847" style="visibility: inherit;" fill="rgb(0, 0, 0)" stroke="rgb(204, 204, 204)" stroke-width="1px"></line><line x1="55" y1="40.84615384615387" x2="50" y2="40.84615384615387" style="visibility: inherit;" fill="rgb(0, 0, 0)" stroke="rgb(204, 204, 204)" stroke-width="1px"></line><line x1="55" y1="27.230769230769226" x2="50" y2="27.230769230769226" style="visibility: inherit;" fill="rgb(0, 0, 0)" stroke="rgb(204, 204, 204)" stroke-width="1px"></line><line x1="55" y1="13.615384615384613" x2="50" y2="13.615384615384613" style="visibility: inherit;" fill="rgb(0, 0, 0)" stroke="rgb(204, 204, 204)" stroke-width="1px"></line><line x1="55" y1="0" x2="50" y2="0" style="visibility: inherit;" fill="rgb(0, 0, 0)" stroke="rgb(204, 204, 204)" stroke-width="1px"></line></g><g transform="translate(45, 0)"><text x="0" y="177" dx="0em" dy="0.3em" style="text-anchor: end; visibility: hidden; font-family: &quot;Helvetica Neue&quot;, sans-serif; font-size: 12px; font-weight: 200;" fill="rgb(50, 49, 63)" stroke="none" stroke-width="1px">-0.01</text><text x="0" y="163.3846153846154" dx="0em" dy="0.3em" style="text-anchor: end; visibility: inherit; font-family: &quot;Helvetica Neue&quot;, sans-serif; font-size: 12px; font-weight: 200;" fill="rgb(50, 49, 63)" stroke="none" stroke-width="1px">0</text><text x="0" y="149.76923076923077" dx="0em" dy="0.3em" style="text-anchor: end; visibility: hidden; font-family: &quot;Helvetica Neue&quot;, sans-serif; font-size: 12px; font-weight: 200;" fill="rgb(50, 49, 63)" stroke="none" stroke-width="1px">0.01</text><text x="0" y="136.15384615384616" dx="0em" dy="0.3em" style="text-anchor: end; visibility: inherit; font-family: &quot;Helvetica Neue&quot;, sans-serif; font-size: 12px; font-weight: 200;" fill="rgb(50, 49, 63)" stroke="none" stroke-width="1px">0.02</text><text x="0" y="122.53846153846153" dx="0em" dy="0.3em" style="text-anchor: end; visibility: hidden; font-family: &quot;Helvetica Neue&quot;, sans-serif; font-size: 12px; font-weight: 200;" fill="rgb(50, 49, 63)" stroke="none" stroke-width="1px">0.03</text><text x="0" y="108.92307692307692" dx="0em" dy="0.3em" style="text-anchor: end; visibility: inherit; font-family: &quot;Helvetica Neue&quot;, sans-serif; font-size: 12px; font-weight: 200;" fill="rgb(50, 49, 63)" stroke="none" stroke-width="1px">0.04</text><text x="0" y="95.3076923076923" dx="0em" dy="0.3em" style="text-anchor: end; visibility: hidden; font-family: &quot;Helvetica Neue&quot;, sans-serif; font-size: 12px; font-weight: 200;" fill="rgb(50, 49, 63)" stroke="none" stroke-width="1px">0.05</text><text x="0" y="81.6923076923077" dx="0em" dy="0.3em" style="text-anchor: end; visibility: inherit; font-family: &quot;Helvetica Neue&quot;, sans-serif; font-size: 12px; font-weight: 200;" fill="rgb(50, 49, 63)" stroke="none" stroke-width="1px">0.06</text><text x="0" y="68.07692307692307" dx="0em" dy="0.3em" style="text-anchor: end; visibility: hidden; font-family: &quot;Helvetica Neue&quot;, sans-serif; font-size: 12px; font-weight: 200;" fill="rgb(50, 49, 63)" stroke="none" stroke-width="1px">0.07</text><text x="0" y="54.46153846153847" dx="0em" dy="0.3em" style="text-anchor: end; visibility: inherit; font-family: &quot;Helvetica Neue&quot;, sans-serif; font-size: 12px; font-weight: 200;" fill="rgb(50, 49, 63)" stroke="none" stroke-width="1px">0.08</text><text x="0" y="40.84615384615387" dx="0em" dy="0.3em" style="text-anchor: end; visibility: hidden; font-family: &quot;Helvetica Neue&quot;, sans-serif; font-size: 12px; font-weight: 200;" fill="rgb(50, 49, 63)" stroke="none" stroke-width="1px">0.09</text><text x="0" y="27.230769230769226" dx="0em" dy="0.3em" style="text-anchor: end; visibility: inherit; font-family: &quot;Helvetica Neue&quot;, sans-serif; font-size: 12px; font-weight: 200;" fill="rgb(50, 49, 63)" stroke="none" stroke-width="1px">0.1</text><text x="0" y="13.615384615384613" dx="0em" dy="0.3em" style="text-anchor: end; visibility: hidden; font-family: &quot;Helvetica Neue&quot;, sans-serif; font-size: 12px; font-weight: 200;" fill="rgb(50, 49, 63)" stroke="none" stroke-width="1px">0.11</text><text x="0" y="0" dx="0em" dy="0.3em" style="text-anchor: end; visibility: hidden; font-family: &quot;Helvetica Neue&quot;, sans-serif; font-size: 12px; font-weight: 200;" fill="rgb(50, 49, 63)" stroke="none" stroke-width="1px">0.12</text></g><line x1="55" y1="0" x2="55" y2="177" fill="rgb(0, 0, 0)" stroke="rgb(204, 204, 204)" stroke-width="1px"></line></g></g><g transform="translate(55, 0)" clip-path="url(#clip_0)"><clipPath id="clip_0"><rect width="275" height="177"></rect></clipPath><g><g><g><line x1="0" y1="0" x2="0" y2="177" fill="rgb(0, 0, 0)" stroke="rgb(60, 60, 60)" stroke-width="1px" opacity="0.25"></line><line x1="22.916666666666664" y1="0" x2="22.916666666666664" y2="177" fill="rgb(0, 0, 0)" stroke="rgb(60, 60, 60)" stroke-width="1px" opacity="0.25"></line><line x1="45.83333333333333" y1="0" x2="45.83333333333333" y2="177" fill="rgb(0, 0, 0)" stroke="rgb(60, 60, 60)" stroke-width="1px" opacity="0.25"></line><line x1="68.75" y1="0" x2="68.75" y2="177" fill="rgb(0, 0, 0)" stroke="rgb(60, 60, 60)" stroke-width="1px" opacity="0.25"></line><line x1="91.66666666666666" y1="0" x2="91.66666666666666" y2="177" fill="rgb(0, 0, 0)" stroke="rgb(60, 60, 60)" stroke-width="1px" opacity="0.25"></line><line x1="114.58333333333334" y1="0" x2="114.58333333333334" y2="177" fill="rgb(0, 0, 0)" stroke="rgb(60, 60, 60)" stroke-width="1px" opacity="0.25"></line><line x1="137.5" y1="0" x2="137.5" y2="177" fill="rgb(0, 0, 0)" stroke="rgb(60, 60, 60)" stroke-width="1px" opacity="0.25"></line><line x1="160.41666666666669" y1="0" x2="160.41666666666669" y2="177" fill="rgb(0, 0, 0)" stroke="rgb(60, 60, 60)" stroke-width="1px" opacity="0.25"></line><line x1="183.33333333333331" y1="0" x2="183.33333333333331" y2="177" fill="rgb(0, 0, 0)" stroke="rgb(60, 60, 60)" stroke-width="1px" opacity="0.25"></line><line x1="206.25" y1="0" x2="206.25" y2="177" fill="rgb(0, 0, 0)" stroke="rgb(60, 60, 60)" stroke-width="1px" opacity="0.25"></line><line x1="229.16666666666669" y1="0" x2="229.16666666666669" y2="177" fill="rgb(0, 0, 0)" stroke="rgb(60, 60, 60)" stroke-width="1px" opacity="0.25"></line><line x1="252.08333333333331" y1="0" x2="252.08333333333331" y2="177" fill="rgb(0, 0, 0)" stroke="rgb(60, 60, 60)" stroke-width="1px" opacity="0.25"></line><line x1="275" y1="0" x2="275" y2="177" fill="rgb(0, 0, 0)" stroke="rgb(60, 60, 60)" stroke-width="1px" opacity="0.25"></line></g><g><line x1="0" y1="177" x2="275" y2="177" fill="rgb(0, 0, 0)" stroke="rgb(60, 60, 60)" stroke-width="1px" opacity="0.25"></line><line x1="0" y1="163.3846153846154" x2="275" y2="163.3846153846154" fill="rgb(0, 0, 0)" stroke="rgb(60, 60, 60)" stroke-width="1px" opacity="0.25"></line><line x1="0" y1="149.76923076923077" x2="275" y2="149.76923076923077" fill="rgb(0, 0, 0)" stroke="rgb(60, 60, 60)" stroke-width="1px" opacity="0.25"></line><line x1="0" y1="136.15384615384616" x2="275" y2="136.15384615384616" fill="rgb(0, 0, 0)" stroke="rgb(60, 60, 60)" stroke-width="1px" opacity="0.25"></line><line x1="0" y1="122.53846153846153" x2="275" y2="122.53846153846153" fill="rgb(0, 0, 0)" stroke="rgb(60, 60, 60)" stroke-width="1px" opacity="0.25"></line><line x1="0" y1="108.92307692307692" x2="275" y2="108.92307692307692" fill="rgb(0, 0, 0)" stroke="rgb(60, 60, 60)" stroke-width="1px" opacity="0.25"></line><line x1="0" y1="95.3076923076923" x2="275" y2="95.3076923076923" fill="rgb(0, 0, 0)" stroke="rgb(60, 60, 60)" stroke-width="1px" opacity="0.25"></line><line x1="0" y1="81.6923076923077" x2="275" y2="81.6923076923077" fill="rgb(0, 0, 0)" stroke="rgb(60, 60, 60)" stroke-width="1px" opacity="0.25"></line><line x1="0" y1="68.07692307692307" x2="275" y2="68.07692307692307" fill="rgb(0, 0, 0)" stroke="rgb(60, 60, 60)" stroke-width="1px" opacity="0.25"></line><line x1="0" y1="54.46153846153847" x2="275" y2="54.46153846153847" fill="rgb(0, 0, 0)" stroke="rgb(60, 60, 60)" stroke-width="1px" opacity="0.25"></line><line x1="0" y1="40.84615384615387" x2="275" y2="40.84615384615387" fill="rgb(0, 0, 0)" stroke="rgb(60, 60, 60)" stroke-width="1px" opacity="0.25"></line><line x1="0" y1="27.230769230769226" x2="275" y2="27.230769230769226" fill="rgb(0, 0, 0)" stroke="rgb(60, 60, 60)" stroke-width="1px" opacity="0.25"></line><line x1="0" y1="13.615384615384613" x2="275" y2="13.615384615384613" fill="rgb(0, 0, 0)" stroke="rgb(60, 60, 60)" stroke-width="1px" opacity="0.25"></line><line x1="0" y1="0" x2="275" y2="0" fill="rgb(0, 0, 0)" stroke="rgb(60, 60, 60)" stroke-width="1px" opacity="0.25"></line></g></g></g><g><g><line x1="0" y1="163.3846153846154" x2="275" y2="163.3846153846154" fill="rgb(0, 0, 0)" stroke="rgb(153, 153, 153)" stroke-width="1.5px"></line></g></g><g><g><line x1="22.916666666666664" y1="0" x2="22.916666666666664" y2="177" fill="rgb(0, 0, 0)" stroke="rgb(153, 153, 153)" stroke-width="1.5px"></line></g></g><g><g><g><g><g><path stroke="rgb(255, 112, 67)" stroke-width="2px" d="M23.1243375,163.3846153846154L23.318533333333335,163.3846153846154L23.500308333333333,163.3846153846154L23.907262499999998,163.3846153846154L24.308945833333333,163.3846153846154L24.713195833333334,163.3846153846154L28.5935375,161.8266016250813L28.595095833333332,161.6770324201636L28.7967625,161.66267377756054L29.210958333333334,160.88228859824372L29.404879166666667,160.8073716210807L29.60054166666667,161.579186340859L30.01845,160.09526691149964L30.434983333333335,160.73181753915375L30.545395833333334,163.12994679145106L30.770483333333335,157.1281126298415L30.874616666666668,152.65690208596425L30.977695833333335,158.45972073015727L31.205258333333333,156.6797709279573L31.304579166666667,158.8459161389886L31.528291666666668,162.9489002570352L31.628804166666665,159.4477525545801L31.8525625,158.33263576884696L31.950691666666668,158.2255845574166L32.05271666666667,159.77332114028926L32.278079166666664,161.47991749470253L32.380608333333335,155.41169603160856L32.48226666666667,144.70205831010892L32.58255,149.90598823182532L32.8073625,150.4055655043101L33.031625,160.58061295364854L35.8051375,135.07118530043192L36.23785,147.42341063715125L36.66758333333333,134.58710134407096L36.86874583333333,141.92389090038301L37.30260416666666,141.84921523176618L51.003929166666666,109.90276547925538L51.20518333333333,95.92981094909919L51.421425,127.30669566855059L51.62116666666667,102.27462845820632L52.047324999999994,105.32459768297085L52.24706666666667,118.08150501450893L54.34930416666667,96.71496994448354L62.00530416666667,105.56987793167625L62.20023333333334,76.03868084956775L76.49500833333333,80.99375600471127L97.93804166666666,63.55228525668673L98.1322375,70.44698619112704L98.34430833333333,102.26914402533123L98.75987916666666,81.95387012274091L98.95210416666667,72.99254580429101L99.146575,65.90019894153755L99.56200833333332,60.545298016980354L99.97482916666667,67.82129301804687L100.1693,70.8568109362176L100.3630375,64.13715346215695L100.55517083333332,61.934051412601534L100.74867916666668,64.83858347993537L100.94227916666667,58.88536800062097L101.35335833333333,29.490601412571436L101.54617916666666,50.03890945999456L101.95909166666668,68.37069464862181L102.37127083333333,57.666435740769316L102.56377083333334,51.18577462345597L102.97558333333333,79.38688447302731L103.1685875,71.96710771589574L108.44725833333334,82.16089991592433L113.02742916666666,19.260942190479852L113.44570416666666,45.94083231058261L113.6408625,68.75628670830103L113.83634166666666,77.95762835428324L114.25443333333332,48.459693488620445L114.44895,50.301927367249675L114.64410833333334,66.05892196964994L115.06247499999999,55.10748316551965L115.25850416666667,57.95118237043707L115.67984999999999,67.57225791597871L115.87899583333333,61.48481397414565L116.30350416666667,63.23744175379804L116.5033375,41.59350331281436L116.702025,58.211855236622924L117.1253875,35.65800391540992L117.3247625,45.17793700851141L117.74913333333333,49.20787127913643L118.17231249999999,56.6058121633215L118.59705,23.81872096043506L118.79578333333333,40.92533598074266L118.99414999999999,50.35763651251621L119.41650416666667,48.9261149654981L119.61331249999999,17.628417767284503L120.03319166666665,52.016169694138156L120.453575,45.19030599122374L120.65038333333332,29.73389039171488L120.84439583333334,36.81914745000881L121.26400000000001,42.173376923741756L121.68319166666666,49.698440977021335L125.47104166666666,13.80753290468067L125.88047083333333,56.323400373061034L126.07155,53.39386562622434L141.58122916666665,38.31149760649896L142.00569166666668,38.421605208650874L142.42309583333332,22.073037092786677L142.6242125,32.18867737360162L142.82455,25.369704180332008L143.02300833333334,41.85323783587555L143.45063333333334,32.52956171289259L143.8723,36.30852443081912L144.06910833333333,74.06363570962219L144.26724583333333,82.36216660332207L144.69189166666666,93.28591345700958L145.11548333333334,59.27928928035176L145.53586666666666,63.8047188492166L145.7325375,47.88002164215686L146.15227916666666,49.46727140396641L146.34711666666666,64.42078006512918L146.76493333333332,82.2154599274735L146.96022916666666,76.13367911923264L147.37855,65.42274027374917L147.57425833333335,76.07959296452069L147.76964583333333,82.5556984997923L148.18700416666667,53.575143848322185L148.38138333333333,67.93116568387848L148.800575,51.39218123197166L148.99591666666666,61.489541544526546L149.4131375,53.110807712662236L149.60825,63.99155208474117L150.02620416666664,48.676965098789964L150.44379166666667,124.3284351063655L150.64133333333334,36.55214332074573L150.83575833333333,39.81072212926415L151.0311,53.36666344686542L151.44997083333334,42.20392352739441L156.70824583333334,34.12124247132397L163.043925,51.262458467657595L163.4584416666667,39.664897451322105L163.64975,51.01564187971462L163.84408333333332,55.221343208931415L164.03924166666667,61.07813362829188L164.45504166666666,71.76747339644284L164.87019999999998,71.23564425254361L165.0710875,63.39451399450142L165.4899125,41.6085822479219L165.6868125,40.296140266273056L165.88504166666667,27.706035550074063L166.08382083333333,14.033275211358244L166.50709166666667,45.43897628058693L166.9294,21.967697249669754L167.35198333333332,61.78082094631671L167.54938750000002,58.591822797393576L167.74775416666665,63.73872206685262L167.94580000000002,61.8958019986523L168.14347916666668,45.35974322643429L168.5657875,39.877244254187474L168.76328333333333,51.81503463881248L168.960825,56.07709237982763L169.38230833333333,63.49730794676627L169.803425,49.40851595716333L170.00192916666666,48.834999392184244L170.4251541666667,69.0341267481348L170.62118333333333,56.17211029027696L170.81991666666664,73.63351755406178L171.01819166666667,71.41478449167504L171.21669583333335,52.50561610354292L171.63717083333333,40.56324805038989L172.0532,69.79804438096426L172.24927499999998,61.69848947478427L172.44484583333332,56.24689657805811L172.8615625,52.607513795881275L173.27534583333335,50.70011811674674L173.69091666666665,61.423103485464935L174.1069,53.88343712501511L174.30370833333333,61.72870211025871L174.5005625,51.57575219492696L174.922,60.728156890947446L175.34201666666667,84.97699338164128L175.7652875,63.155668578849244L176.1832875,43.143668020064865L178.16035416666665,31.09542807852921L178.57890416666666,27.601774646073437L178.7758041666667,65.43772224046259L179.19815833333334,56.60586292356325L179.62000833333335,23.818725833418227L179.8171375,42.48335138059463L180.23770416666667,25.57898541898058L180.434375,27.851203616779543L180.630175,39.75443938370617L181.050375,42.455164949376694L181.47089583333334,57.51556728771013L181.89215,44.93924069418384L182.08868333333334,30.488795589221837L182.28604166666668,44.681693009197375L182.48390416666666,36.69612156924157L182.9034625,29.697456153227392L183.10049999999998,30.583599205335588L183.51923333333332,56.37589697628218L183.71338333333333,56.514935164224724L183.90987083333334,72.10841380991519L184.3279625,54.909226916162325L184.5251375,90.65043124704226L184.94538333333333,38.77210721241016L185.3630625,54.045963880870204L185.56124583333332,55.51225412104239L185.7587875,34.6198347422914L185.9557333333333,45.07827276789203L186.37584166666667,55.430363240219265L186.57315416666668,70.44628914356895L186.99165833333333,75.0038387239778L187.18667916666666,41.94406995592885L187.38137916666668,44.22338441635563L187.795025,57.68531635654013L188.20802916666668,60.53566758443955L188.62190416666667,53.01923581249389L188.81371666666666,38.27553314438083L189.00713333333331,35.302131926600254L189.20137499999998,33.45867047764773L189.6159375,35.61871140621281L189.80930833333335,12.45587886588305L190.00130416666667,35.16045834352897L190.41435416666667,38.11910543940576L190.60694583333333,36.06611316254157L190.79839166666667,42.1010856321449L193.839525,65.27164116307986L194.25899166666665,65.93799956200407L194.6802,35.620706304623724L194.87769583333335,55.30144432576829L195.2979875,61.86483080153101L195.4935583333333,64.05293083524981L195.69050416666667,58.03093788070838L196.10534166666665,50.44175936286733L196.299125,45.81817006544452L202.10717083333333,50.04834111862479L202.30815,24.747218672189746L211.78937083333335,31.666391339201567L212.21209166666665,45.57374966721818L212.63403333333335,35.22375324676986L212.83405000000002,43.57823401227637L213.26415,28.02111654969039L213.4660458333333,46.78180904906682L213.6673,35.33972694742732L214.0963,31.12525720157879L214.2987,12.02450726223816L231.6694875,42.13011386378412L231.86854166666666,44.241244631509716L232.29960416666665,56.12901600514931L232.50182083333334,49.48016739679089L232.7032125,41.830819906587266L232.90405416666667,58.23463762962513L233.10654583333334,66.0414546888152L233.3093125,56.66382123860511L233.51359166666668,46.41548800551536L233.94598333333334,46.210655481161524L234.14852083333335,41.516946762686814L234.35023333333334,47.2984012834917L234.5514875,40.06335542766496L234.9788375,30.799718069658837L235.40614166666666,47.82756226100659L235.6067541666667,41.67216981355196L235.8049375,50.42933256046588L236.00467916666668,24.783793850606486L251.34417916666666,30.89089509030677L251.53388333333334,43.94128709527871L251.7271625,31.951006975772515L251.91961666666668,31.57894755032271L252.08333333333331,27.648192515365622" style="fill: none;" fill="none"></path></g></g></g></g><g opacity="0.2"><g><g><g><path stroke="rgb(255, 112, 67)" stroke-width="2px" d="M23.1243375,163.3846153846154L23.318533333333335,163.3846153846154L23.500308333333333,163.3846153846154L23.907262499999998,163.3846153846154L24.308945833333333,163.3846153846154L24.713195833333334,163.3846153846154L28.5935375,161.66114896596767L28.595095833333332,161.66114896596767L28.7967625,161.66114896596767L29.210958333333334,160.7994158358958L29.404879166666667,160.7994158358958L29.60054166666667,161.66114896596767L30.01845,159.93768254731998L30.434983333333335,160.7994158358958L30.545395833333334,163.3846153846154L30.770483333333335,156.49074971002455L30.874616666666668,152.18208326714543L30.977695833333335,159.07594925874415L31.205258333333333,156.49074971002455L31.304579166666667,159.07594925874415L31.528291666666668,163.3846153846154L31.628804166666665,159.07594925874415L31.8525625,158.21421628717619L31.950691666666668,158.21421628717619L32.05271666666667,159.93768254731998L32.278079166666664,161.66114896596767L32.380608333333335,154.7672831328729L32.48226666666667,143.5647516494187L32.58255,150.4586179580253L32.8073625,150.4586179580253L33.031625,161.66114896596767L35.8051375,132.36221953194877L36.23785,148.73515138087365L36.66758333333333,133.22395345454032L36.86874583333333,142.70301899485864L37.30260416666666,141.84128507226706L51.003929166666666,106.51022214270556L51.20518333333333,94.44595737067553L51.421425,130.6387542228286L51.62116666666667,99.61635583409897L52.047324999999994,105.64848822011398L52.24706666666667,119.43622083732716L54.34930416666667,94.44595737067553L62.00530416666667,106.51022214270556L62.20023333333334,72.9026245222642L76.49500833333333,81.51995867605395L97.93804166666666,61.70009367282576L98.1322375,71.17916682133308L98.34430833333333,105.64848822011398L98.75987916666666,79.79649590299681L98.95210416666667,72.04090074392467L99.146575,65.14702936319205L99.56200833333332,59.97663597189464L99.97482916666667,68.59396505355836L100.1693,71.17916682133308L100.3630375,63.42356151800891L100.55517083333332,61.70009367282576L100.74867916666668,65.14702936319205L100.94227916666667,58.253168126711486L101.35335833333333,26.369033279327255L101.54617916666666,52.221030668570464L101.95909166666668,70.31743289874152L102.37127083333333,56.52970028152835L102.56377083333334,50.4975628233873L102.97558333333333,82.38169259864551L103.1685875,71.17916682133308L108.44725833333334,83.2434265212371L113.02742916666666,12.581300662114074L113.44570416666666,48.77409497820415L113.6408625,71.17916682133308L113.83634166666666,78.93476198040523L114.25443333333332,45.327169432089875L114.44895,50.4975628233873L114.64410833333334,67.73223113096678L115.06247499999999,53.944498513753615L115.25850416666667,58.253168126711486L115.67984999999999,68.59396505355836L115.87899583333333,60.838359750234176L116.30350416666667,63.42356151800891L116.5033375,39.29503197394885L116.702025,59.97663597189464L117.1253875,33.26290466005986L117.3247625,46.18890335468146L117.74913333333333,49.63582890079573L118.17231249999999,57.3914342041199L118.59705,20.336905965438262L118.79578333333333,42.741967664315155L118.99414999999999,51.35929674597888L119.41650416666667,48.77409497820415L119.61331249999999,14.30476850729724L120.03319166666665,55.66796635893675L120.453575,44.46543550949832L120.65038333333332,28.09250112451042L120.84439583333334,37.571564128765715L121.26400000000001,42.741967664315155L121.68319166666666,50.4975628233873L125.47104166666666,9.996109038591413L125.88047083333333,60.838359750234176L126.07155,53.08276459116203L141.58122916666665,36.70983020617413L142.00569166666668,38.4332980513573L142.42309583333332,20.336905965438262L142.6242125,33.26290466005986L142.82455,24.645565434144117L143.02300833333334,43.60370158690674L143.45063333333334,31.539436814876694L143.8723,36.70983020617413L144.06910833333333,78.07302805781366L144.26724583333333,83.2434265212371L144.69189166666666,94.44595737067553L145.11548333333334,55.66796635893675L145.53586666666666,64.28529544060046L145.7325375,46.18890335468146L146.15227916666666,49.63582890079573L146.34711666666666,66.00876328578364L146.76493333333332,84.10516044382865L146.96022916666666,75.48782629003894L147.37855,64.28529544060046L147.57425833333335,77.21129413522208L147.76964583333333,83.2434265212371L148.18700416666667,50.4975628233873L148.38138333333333,69.45569897614993L148.800575,49.63582890079573L148.99591666666666,62.56182759541733L149.4131375,52.221030668570464L149.60825,65.14702936319205L150.02620416666664,47.05063727727304L150.44379166666667,132.36221953194877L150.64133333333334,27.230767201918837L150.83575833333333,40.156765896540435L151.0311,54.80623243634517L151.44997083333334,41.01849981913199L156.70824583333334,33.26290466005986L163.043925,53.08276459116203L163.4584416666667,38.4332980513573L163.64975,52.221030668570464L163.84408333333332,55.66796635893675L164.03924166666667,61.70009367282576L164.45504166666666,72.9026245222642L164.87019999999998,71.17916682133308L165.0710875,62.56182759541733L165.4899125,39.29503197394885L165.6868125,40.156765896540435L165.88504166666667,26.369033279327255L166.08382083333333,12.581300662114074L166.50709166666667,48.77409497820415L166.9294,19.475172042846708L167.35198333333332,66.00876328578364L167.54938750000002,58.253168126711486L167.74775416666665,64.28529544060046L167.94580000000002,61.70009367282576L168.14347916666668,43.60370158690674L168.5657875,39.29503197394885L168.76328333333333,53.08276459116203L168.960825,56.52970028152835L169.38230833333333,64.28529544060046L169.803425,47.91236105561259L170.00192916666666,48.77409497820415L170.4251541666667,71.17916682133308L170.62118333333333,54.80623243634517L170.81991666666664,75.48782629003894L171.01819166666667,71.17916682133308L171.21669583333335,50.4975628233873L171.63717083333333,39.29503197394885L172.0532,72.9026245222642L172.24927499999998,60.838359750234176L172.44484583333332,55.66796635893675L172.8615625,52.221030668570464L173.27534583333335,50.4975628233873L173.69091666666665,62.56182759541733L174.1069,53.08276459116203L174.30370833333333,62.56182759541733L174.5005625,50.4975628233873L174.922,61.70009367282576L175.34201666666667,87.55209106206895L175.7652875,60.838359750234176L176.1832875,41.01849981913199L178.16035416666665,29.815968969693557L178.57890416666666,27.230767201918837L178.7758041666667,69.45569897614993L179.19815833333334,55.66796635893675L179.62000833333335,20.336905965438262L179.8171375,44.46543550949832L180.23770416666667,23.783831511552535L180.434375,28.09250112451042L180.630175,41.01849981913199L181.050375,42.741967664315155L181.47089583333334,59.11490204930307L181.89215,43.60370158690674L182.08868333333334,28.954235047102003L182.28604166666668,46.18890335468146L182.48390416666666,35.84809628358255L182.9034625,28.954235047102003L183.10049999999998,30.67770289228514L183.51923333333332,59.11490204930307L183.71338333333333,56.52970028152835L183.90987083333334,73.76435844485576L184.3279625,53.08276459116203L184.5251375,94.44595737067553L184.94538333333333,33.26290466005986L185.3630625,55.66796635893675L185.56124583333332,55.66796635893675L185.7587875,32.40117073746828L185.9557333333333,46.18890335468146L186.37584166666667,56.52970028152835L186.57315416666668,72.04090074392467L186.99165833333333,75.48782629003894L187.18667916666666,38.4332980513573L187.38137916666668,44.46543550949832L187.795025,59.11490204930307L188.20802916666668,60.838359750234176L188.62190416666667,52.221030668570464L188.81371666666666,36.70983020617413L189.00713333333331,34.986372505243025L189.20137499999998,33.26290466005986L189.6159375,35.84809628358255L189.80930833333335,9.996109038591413L190.00130416666667,37.571564128765715L190.41435416666667,38.4332980513573L190.60694583333333,35.84809628358255L190.79839166666667,42.741967664315155L193.839525,67.73223113096678L194.25899166666665,66.00876328578364L194.6802,32.40117073746828L194.87769583333335,57.3914342041199L195.2979875,62.56182759541733L195.4935583333333,64.28529544060046L195.69050416666667,57.3914342041199L196.10534166666665,49.63582890079573L196.299125,45.327169432089875L202.10717083333333,50.4975628233873L202.30815,22.0603738106214L211.78937083333335,32.40117073746828L212.21209166666665,47.05063727727304L212.63403333333335,34.12463858265144L212.83405000000002,44.46543550949832L213.26415,26.369033279327255L213.4660458333333,48.77409497820415L213.6673,34.12463858265144L214.0963,30.67770289228514L214.2987,9.996109038591413L231.6694875,45.327169432089875L231.86854166666666,44.46543550949832L232.29960416666665,57.3914342041199L232.50182083333334,48.77409497820415L232.7032125,41.01849981913199L232.90405416666667,59.97663597189464L233.10654583333334,66.8704972083752L233.3093125,55.66796635893675L233.51359166666668,45.327169432089875L233.94598333333334,46.18890335468146L234.14852083333335,41.01849981913199L234.35023333333334,47.91236105561259L234.5514875,39.29503197394885L234.9788375,29.815968969693557L235.40614166666666,49.63582890079573L235.6067541666667,41.01849981913199L235.8049375,51.35929674597888L236.00467916666668,22.0603738106214L251.34417916666666,31.539436814876694L251.53388333333334,45.327169432089875L251.7271625,30.67770289228514L251.91961666666668,31.539436814876694L252.08333333333331,27.230767201918837" style="fill: none;" fill="none"></path></g></g></g></g></g></g><g transform="translate(55, 177)" clip-path="url(#clip_1)"><clipPath id="clip_1"><rect width="275" height="23"></rect></clipPath><g><g><line x1="0" y1="0" x2="0" y2="5" style="visibility: inherit;" fill="rgb(0, 0, 0)" stroke="rgb(204, 204, 204)" stroke-width="1px"></line><line x1="22.916666666666664" y1="0" x2="22.916666666666664" y2="5" style="visibility: inherit;" fill="rgb(0, 0, 0)" stroke="rgb(204, 204, 204)" stroke-width="1px"></line><line x1="45.83333333333333" y1="0" x2="45.83333333333333" y2="5" style="visibility: inherit;" fill="rgb(0, 0, 0)" stroke="rgb(204, 204, 204)" stroke-width="1px"></line><line x1="68.75" y1="0" x2="68.75" y2="5" style="visibility: inherit;" fill="rgb(0, 0, 0)" stroke="rgb(204, 204, 204)" stroke-width="1px"></line><line x1="91.66666666666666" y1="0" x2="91.66666666666666" y2="5" style="visibility: inherit;" fill="rgb(0, 0, 0)" stroke="rgb(204, 204, 204)" stroke-width="1px"></line><line x1="114.58333333333334" y1="0" x2="114.58333333333334" y2="5" style="visibility: inherit;" fill="rgb(0, 0, 0)" stroke="rgb(204, 204, 204)" stroke-width="1px"></line><line x1="137.5" y1="0" x2="137.5" y2="5" style="visibility: inherit;" fill="rgb(0, 0, 0)" stroke="rgb(204, 204, 204)" stroke-width="1px"></line><line x1="160.41666666666669" y1="0" x2="160.41666666666669" y2="5" style="visibility: inherit;" fill="rgb(0, 0, 0)" stroke="rgb(204, 204, 204)" stroke-width="1px"></line><line x1="183.33333333333331" y1="0" x2="183.33333333333331" y2="5" style="visibility: inherit;" fill="rgb(0, 0, 0)" stroke="rgb(204, 204, 204)" stroke-width="1px"></line><line x1="206.25" y1="0" x2="206.25" y2="5" style="visibility: inherit;" fill="rgb(0, 0, 0)" stroke="rgb(204, 204, 204)" stroke-width="1px"></line><line x1="229.16666666666669" y1="0" x2="229.16666666666669" y2="5" style="visibility: inherit;" fill="rgb(0, 0, 0)" stroke="rgb(204, 204, 204)" stroke-width="1px"></line><line x1="252.08333333333331" y1="0" x2="252.08333333333331" y2="5" style="visibility: inherit;" fill="rgb(0, 0, 0)" stroke="rgb(204, 204, 204)" stroke-width="1px"></line><line x1="275" y1="0" x2="275" y2="5" style="visibility: inherit;" fill="rgb(0, 0, 0)" stroke="rgb(204, 204, 204)" stroke-width="1px"></line></g><g transform="translate(0, 8)"><text x="0" y="0" dx="0em" dy="0.95em" style="text-anchor: middle; visibility: hidden; font-family: &quot;Helvetica Neue&quot;, sans-serif; font-size: 12px; font-weight: 200;" fill="rgb(50, 49, 63)" stroke="none" stroke-width="1px">-500k</text><text x="22.916666666666664" y="0" dx="0em" dy="0.95em" style="text-anchor: middle; visibility: inherit; font-family: &quot;Helvetica Neue&quot;, sans-serif; font-size: 12px; font-weight: 200;" fill="rgb(50, 49, 63)" stroke="none" stroke-width="1px">0</text><text x="45.83333333333333" y="0" dx="0em" dy="0.95em" style="text-anchor: middle; visibility: hidden; font-family: &quot;Helvetica Neue&quot;, sans-serif; font-size: 12px; font-weight: 200;" fill="rgb(50, 49, 63)" stroke="none" stroke-width="1px">500k</text><text x="68.75" y="0" dx="0em" dy="0.95em" style="text-anchor: middle; visibility: inherit; font-family: &quot;Helvetica Neue&quot;, sans-serif; font-size: 12px; font-weight: 200;" fill="rgb(50, 49, 63)" stroke="none" stroke-width="1px">1M</text><text x="91.66666666666666" y="0" dx="0em" dy="0.95em" style="text-anchor: middle; visibility: hidden; font-family: &quot;Helvetica Neue&quot;, sans-serif; font-size: 12px; font-weight: 200;" fill="rgb(50, 49, 63)" stroke="none" stroke-width="1px">1.5M</text><text x="114.58333333333334" y="0" dx="0em" dy="0.95em" style="text-anchor: middle; visibility: inherit; font-family: &quot;Helvetica Neue&quot;, sans-serif; font-size: 12px; font-weight: 200;" fill="rgb(50, 49, 63)" stroke="none" stroke-width="1px">2M</text><text x="137.5" y="0" dx="0em" dy="0.95em" style="text-anchor: middle; visibility: hidden; font-family: &quot;Helvetica Neue&quot;, sans-serif; font-size: 12px; font-weight: 200;" fill="rgb(50, 49, 63)" stroke="none" stroke-width="1px">2.5M</text><text x="160.41666666666669" y="0" dx="0em" dy="0.95em" style="text-anchor: middle; visibility: inherit; font-family: &quot;Helvetica Neue&quot;, sans-serif; font-size: 12px; font-weight: 200;" fill="rgb(50, 49, 63)" stroke="none" stroke-width="1px">3M</text><text x="183.33333333333331" y="0" dx="0em" dy="0.95em" style="text-anchor: middle; visibility: hidden; font-family: &quot;Helvetica Neue&quot;, sans-serif; font-size: 12px; font-weight: 200;" fill="rgb(50, 49, 63)" stroke="none" stroke-width="1px">3.5M</text><text x="206.25" y="0" dx="0em" dy="0.95em" style="text-anchor: middle; visibility: inherit; font-family: &quot;Helvetica Neue&quot;, sans-serif; font-size: 12px; font-weight: 200;" fill="rgb(50, 49, 63)" stroke="none" stroke-width="1px">4M</text><text x="229.16666666666669" y="0" dx="0em" dy="0.95em" style="text-anchor: middle; visibility: hidden; font-family: &quot;Helvetica Neue&quot;, sans-serif; font-size: 12px; font-weight: 200;" fill="rgb(50, 49, 63)" stroke="none" stroke-width="1px">4.5M</text><text x="252.08333333333331" y="0" dx="0em" dy="0.95em" style="text-anchor: middle; visibility: inherit; font-family: &quot;Helvetica Neue&quot;, sans-serif; font-size: 12px; font-weight: 200;" fill="rgb(50, 49, 63)" stroke="none" stroke-width="1px">5M</text><text x="275" y="0" dx="0em" dy="0.95em" style="text-anchor: middle; visibility: hidden; font-family: &quot;Helvetica Neue&quot;, sans-serif; font-size: 12px; font-weight: 200;" fill="rgb(50, 49, 63)" stroke="none" stroke-width="1px">5.5M</text></g><line x1="0" y1="0" x2="275" y2="0" fill="rgb(0, 0, 0)" stroke="rgb(204, 204, 204)" stroke-width="1px"></line></g></g></g></g></svg>