<svg viewBox="0 0 330 200" xmlns="http://www.w3.org/2000/svg"><g><g><g><g><g><line x1="46" y1="177" x2="41" y2="177" style="visibility: inherit;" fill="rgb(0, 0, 0)" stroke="rgb(204, 204, 204)" stroke-width="1px"></line><line x1="46" y1="165.20000000000002" x2="41" y2="165.20000000000002" style="visibility: inherit;" fill="rgb(0, 0, 0)" stroke="rgb(204, 204, 204)" stroke-width="1px"></line><line x1="46" y1="153.4" x2="41" y2="153.4" style="visibility: inherit;" fill="rgb(0, 0, 0)" stroke="rgb(204, 204, 204)" stroke-width="1px"></line><line x1="46" y1="141.6" x2="41" y2="141.6" style="visibility: inherit;" fill="rgb(0, 0, 0)" stroke="rgb(204, 204, 204)" stroke-width="1px"></line><line x1="46" y1="129.8" x2="41" y2="129.8" style="visibility: inherit;" fill="rgb(0, 0, 0)" stroke="rgb(204, 204, 204)" stroke-width="1px"></line><line x1="46" y1="118" x2="41" y2="118" style="visibility: inherit;" fill="rgb(0, 0, 0)" stroke="rgb(204, 204, 204)" stroke-width="1px"></line><line x1="46" y1="106.2" x2="41" y2="106.2" style="visibility: inherit;" fill="rgb(0, 0, 0)" stroke="rgb(204, 204, 204)" stroke-width="1px"></line><line x1="46" y1="94.40000000000002" x2="41" y2="94.40000000000002" style="visibility: inherit;" fill="rgb(0, 0, 0)" stroke="rgb(204, 204, 204)" stroke-width="1px"></line><line x1="46" y1="82.60000000000002" x2="41" y2="82.60000000000002" style="visibility: inherit;" fill="rgb(0, 0, 0)" stroke="rgb(204, 204, 204)" stroke-width="1px"></line><line x1="46" y1="70.8" x2="41" y2="70.8" style="visibility: inherit;" fill="rgb(0, 0, 0)" stroke="rgb(204, 204, 204)" stroke-width="1px"></line><line x1="46" y1="59.00000000000003" x2="41" y2="59.00000000000003" style="visibility: inherit;" fill="rgb(0, 0, 0)" stroke="rgb(204, 204, 204)" stroke-width="1px"></line><line x1="46" y1="47.20000000000002" x2="41" y2="47.20000000000002" style="visibility: inherit;" fill="rgb(0, 0, 0)" stroke="rgb(204, 204, 204)" stroke-width="1px"></line><line x1="46" y1="35.400000000000006" x2="41" y2="35.400000000000006" style="visibility: inherit;" fill="rgb(0, 0, 0)" stroke="rgb(204, 204, 204)" stroke-width="1px"></line><line x1="46" y1="23.600000000000023" x2="41" y2="23.600000000000023" style="visibility: inherit;" fill="rgb(0, 0, 0)" stroke="rgb(204, 204, 204)" stroke-width="1px"></line><line x1="46" y1="11.800000000000011" x2="41" y2="11.800000000000011" style="visibility: inherit;" fill="rgb(0, 0, 0)" stroke="rgb(204, 204, 204)" stroke-width="1px"></line><line x1="46" y1="0" x2="41" y2="0" style="visibility: inherit;" fill="rgb(0, 0, 0)" stroke="rgb(204, 204, 204)" stroke-width="1px"></line></g><g transform="translate(36, 0)"><text x="0" y="177" dx="0em" dy="0.3em" style="text-anchor: end; visibility: hidden; font-family: &quot;Helvetica Neue&quot;, sans-serif; font-size: 12px; font-weight: 200;" fill="rgb(50, 49, 63)" stroke="none" stroke-width="1px">0.22</text><text x="0" y="165.20000000000002" dx="0em" dy="0.3em" style="text-anchor: end; visibility: inherit; font-family: &quot;Helvetica Neue&quot;, sans-serif; font-size: 12px; font-weight: 200;" fill="rgb(50, 49, 63)" stroke="none" stroke-width="1px">0.24</text><text x="0" y="153.4" dx="0em" dy="0.3em" style="text-anchor: end; visibility: hidden; font-family: &quot;Helvetica Neue&quot;, sans-serif; font-size: 12px; font-weight: 200;" fill="rgb(50, 49, 63)" stroke="none" stroke-width="1px">0.26</text><text x="0" y="141.6" dx="0em" dy="0.3em" style="text-anchor: end; visibility: hidden; font-family: &quot;Helvetica Neue&quot;, sans-serif; font-size: 12px; font-weight: 200;" fill="rgb(50, 49, 63)" stroke="none" stroke-width="1px">0.28</text><text x="0" y="129.8" dx="0em" dy="0.3em" style="text-anchor: end; visibility: inherit; font-family: &quot;Helvetica Neue&quot;, sans-serif; font-size: 12px; font-weight: 200;" fill="rgb(50, 49, 63)" stroke="none" stroke-width="1px">0.3</text><text x="0" y="118" dx="0em" dy="0.3em" style="text-anchor: end; visibility: hidden; font-family: &quot;Helvetica Neue&quot;, sans-serif; font-size: 12px; font-weight: 200;" fill="rgb(50, 49, 63)" stroke="none" stroke-width="1px">0.32</text><text x="0" y="106.2" dx="0em" dy="0.3em" style="text-anchor: end; visibility: hidden; font-family: &quot;Helvetica Neue&quot;, sans-serif; font-size: 12px; font-weight: 200;" fill="rgb(50, 49, 63)" stroke="none" stroke-width="1px">0.34</text><text x="0" y="94.40000000000002" dx="0em" dy="0.3em" style="text-anchor: end; visibility: inherit; font-family: &quot;Helvetica Neue&quot;, sans-serif; font-size: 12px; font-weight: 200;" fill="rgb(50, 49, 63)" stroke="none" stroke-width="1px">0.36</text><text x="0" y="82.60000000000002" dx="0em" dy="0.3em" style="text-anchor: end; visibility: hidden; font-family: &quot;Helvetica Neue&quot;, sans-serif; font-size: 12px; font-weight: 200;" fill="rgb(50, 49, 63)" stroke="none" stroke-width="1px">0.38</text><text x="0" y="70.8" dx="0em" dy="0.3em" style="text-anchor: end; visibility: hidden; font-family: &quot;Helvetica Neue&quot;, sans-serif; font-size: 12px; font-weight: 200;" fill="rgb(50, 49, 63)" stroke="none" stroke-width="1px">0.4</text><text x="0" y="59.00000000000003" dx="0em" dy="0.3em" style="text-anchor: end; visibility: inherit; font-family: &quot;Helvetica Neue&quot;, sans-serif; font-size: 12px; font-weight: 200;" fill="rgb(50, 49, 63)" stroke="none" stroke-width="1px">0.42</text><text x="0" y="47.20000000000002" dx="0em" dy="0.3em" style="text-anchor: end; visibility: hidden; font-family: &quot;Helvetica Neue&quot;, sans-serif; font-size: 12px; font-weight: 200;" fill="rgb(50, 49, 63)" stroke="none" stroke-width="1px">0.44</text><text x="0" y="35.400000000000006" dx="0em" dy="0.3em" style="text-anchor: end; visibility: hidden; font-family: &quot;Helvetica Neue&quot;, sans-serif; font-size: 12px; font-weight: 200;" fill="rgb(50, 49, 63)" stroke="none" stroke-width="1px">0.46</text><text x="0" y="23.600000000000023" dx="0em" dy="0.3em" style="text-anchor: end; visibility: inherit; font-family: &quot;Helvetica Neue&quot;, sans-serif; font-size: 12px; font-weight: 200;" fill="rgb(50, 49, 63)" stroke="none" stroke-width="1px">0.48</text><text x="0" y="11.800000000000011" dx="0em" dy="0.3em" style="text-anchor: end; visibility: hidden; font-family: &quot;Helvetica Neue&quot;, sans-serif; font-size: 12px; font-weight: 200;" fill="rgb(50, 49, 63)" stroke="none" stroke-width="1px">0.5</text><text x="0" y="0" dx="0em" dy="0.3em" style="text-anchor: end; visibility: hidden; font-family: &quot;Helvetica Neue&quot;, sans-serif; font-size: 12px; font-weight: 200;" fill="rgb(50, 49, 63)" stroke="none" stroke-width="1px">0.52</text></g><line x1="46" y1="0" x2="46" y2="177" fill="rgb(0, 0, 0)" stroke="rgb(204, 204, 204)" stroke-width="1px"></line></g></g><g transform="translate(46, 0)" clip-path="url(#clip_0)"><clipPath id="clip_0"><rect width="284" height="177"></rect></clipPath><g><g><g><line x1="0" y1="0" x2="0" y2="177" fill="rgb(0, 0, 0)" stroke="rgb(60, 60, 60)" stroke-width="1px" opacity="0.25"></line><line x1="23.666666666666664" y1="0" x2="23.666666666666664" y2="177" fill="rgb(0, 0, 0)" stroke="rgb(60, 60, 60)" stroke-width="1px" opacity="0.25"></line><line x1="47.33333333333333" y1="0" x2="47.33333333333333" y2="177" fill="rgb(0, 0, 0)" stroke="rgb(60, 60, 60)" stroke-width="1px" opacity="0.25"></line><line x1="71" y1="0" x2="71" y2="177" fill="rgb(0, 0, 0)" stroke="rgb(60, 60, 60)" stroke-width="1px" opacity="0.25"></line><line x1="94.66666666666666" y1="0" x2="94.66666666666666" y2="177" fill="rgb(0, 0, 0)" stroke="rgb(60, 60, 60)" stroke-width="1px" opacity="0.25"></line><line x1="118.33333333333334" y1="0" x2="118.33333333333334" y2="177" fill="rgb(0, 0, 0)" stroke="rgb(60, 60, 60)" stroke-width="1px" opacity="0.25"></line><line x1="142" y1="0" x2="142" y2="177" fill="rgb(0, 0, 0)" stroke="rgb(60, 60, 60)" stroke-width="1px" opacity="0.25"></line><line x1="165.66666666666669" y1="0" x2="165.66666666666669" y2="177" fill="rgb(0, 0, 0)" stroke="rgb(60, 60, 60)" stroke-width="1px" opacity="0.25"></line><line x1="189.33333333333331" y1="0" x2="189.33333333333331" y2="177" fill="rgb(0, 0, 0)" stroke="rgb(60, 60, 60)" stroke-width="1px" opacity="0.25"></line><line x1="213" y1="0" x2="213" y2="177" fill="rgb(0, 0, 0)" stroke="rgb(60, 60, 60)" stroke-width="1px" opacity="0.25"></line><line x1="236.66666666666669" y1="0" x2="236.66666666666669" y2="177" fill="rgb(0, 0, 0)" stroke="rgb(60, 60, 60)" stroke-width="1px" opacity="0.25"></line><line x1="260.3333333333333" y1="0" x2="260.3333333333333" y2="177" fill="rgb(0, 0, 0)" stroke="rgb(60, 60, 60)" stroke-width="1px" opacity="0.25"></line><line x1="284" y1="0" x2="284" y2="177" fill="rgb(0, 0, 0)" stroke="rgb(60, 60, 60)" stroke-width="1px" opacity="0.25"></line></g><g><line x1="0" y1="177" x2="284" y2="177" fill="rgb(0, 0, 0)" stroke="rgb(60, 60, 60)" stroke-width="1px" opacity="0.25"></line><line x1="0" y1="165.20000000000002" x2="284" y2="165.20000000000002" fill="rgb(0, 0, 0)" stroke="rgb(60, 60, 60)" stroke-width="1px" opacity="0.25"></line><line x1="0" y1="153.4" x2="284" y2="153.4" fill="rgb(0, 0, 0)" stroke="rgb(60, 60, 60)" stroke-width="1px" opacity="0.25"></line><line x1="0" y1="141.6" x2="284" y2="141.6" fill="rgb(0, 0, 0)" stroke="rgb(60, 60, 60)" stroke-width="1px" opacity="0.25"></line><line x1="0" y1="129.8" x2="284" y2="129.8" fill="rgb(0, 0, 0)" stroke="rgb(60, 60, 60)" stroke-width="1px" opacity="0.25"></line><line x1="0" y1="118" x2="284" y2="118" fill="rgb(0, 0, 0)" stroke="rgb(60, 60, 60)" stroke-width="1px" opacity="0.25"></line><line x1="0" y1="106.2" x2="284" y2="106.2" fill="rgb(0, 0, 0)" stroke="rgb(60, 60, 60)" stroke-width="1px" opacity="0.25"></line><line x1="0" y1="94.40000000000002" x2="284" y2="94.40000000000002" fill="rgb(0, 0, 0)" stroke="rgb(60, 60, 60)" stroke-width="1px" opacity="0.25"></line><line x1="0" y1="82.60000000000002" x2="284" y2="82.60000000000002" fill="rgb(0, 0, 0)" stroke="rgb(60, 60, 60)" stroke-width="1px" opacity="0.25"></line><line x1="0" y1="70.8" x2="284" y2="70.8" fill="rgb(0, 0, 0)" stroke="rgb(60, 60, 60)" stroke-width="1px" opacity="0.25"></line><line x1="0" y1="59.00000000000003" x2="284" y2="59.00000000000003" fill="rgb(0, 0, 0)" stroke="rgb(60, 60, 60)" stroke-width="1px" opacity="0.25"></line><line x1="0" y1="47.20000000000002" x2="284" y2="47.20000000000002" fill="rgb(0, 0, 0)" stroke="rgb(60, 60, 60)" stroke-width="1px" opacity="0.25"></line><line x1="0" y1="35.400000000000006" x2="284" y2="35.400000000000006" fill="rgb(0, 0, 0)" stroke="rgb(60, 60, 60)" stroke-width="1px" opacity="0.25"></line><line x1="0" y1="23.600000000000023" x2="284" y2="23.600000000000023" fill="rgb(0, 0, 0)" stroke="rgb(60, 60, 60)" stroke-width="1px" opacity="0.25"></line><line x1="0" y1="11.800000000000011" x2="284" y2="11.800000000000011" fill="rgb(0, 0, 0)" stroke="rgb(60, 60, 60)" stroke-width="1px" opacity="0.25"></line><line x1="0" y1="0" x2="284" y2="0" fill="rgb(0, 0, 0)" stroke="rgb(60, 60, 60)" stroke-width="1px" opacity="0.25"></line></g></g></g><g><g><line x1="0" y1="306.79999999999995" x2="284" y2="306.79999999999995" fill="rgb(0, 0, 0)" stroke="rgb(153, 153, 153)" stroke-width="1.5px"></line></g></g><g><g><line x1="23.666666666666664" y1="0" x2="23.666666666666664" y2="177" fill="rgb(0, 0, 0)" stroke="rgb(153, 153, 153)" stroke-width="1.5px"></line></g></g><g><g><g><g><g><path stroke="rgb(255, 112, 67)" stroke-width="2px" d="M25.521991333333332,189.70448580704743L29.529326,159.94229398671277L29.530935333333332,156.759906583434L29.739202000000002,146.37258624982599L30.166953333333336,152.3351103244471L30.367220666666665,146.66328806061222L30.569286666666667,144.3626094322941L31.000872,141.67007834846044L31.431037333333332,129.44351283391399L31.545063333333335,129.44055167186744L31.777517333333332,121.83013807253695L31.885058666666666,121.8800644519011L31.991511333333335,132.35693158542705L32.22652133333333,129.59015219119607L32.32909266666667,142.20323766556496L32.56012666666667,224.5888861775275L32.66392866666666,139.35503359775427L32.89501,131.17258375009604L32.996350666666665,136.3060739372451L33.101714666666666,126.97725319818764L33.334452666666664,164.8478550290166L33.44033733333333,116.31821716351604L33.54532266666667,127.5951287238343L33.648888,112.35169239576857L33.881058,109.58744570010775L34.11266,122.721125036806L36.976942,90.09408560965824L37.423816,100.2958930037254L37.86761333333333,96.65715384456477L38.07535933333333,98.45428161876008L38.52341666666666,93.42328275705012L52.67314866666667,70.82538523212874L52.88098933333333,65.85910193217832L53.104307999999996,75.52919373444847L53.31058666666667,67.15623747370924L53.750691999999994,67.4581789596198L53.95697066666667,73.21102329819986L56.128008666666666,73.11285795062028L64.03456866666667,62.176068888654L64.23587733333333,57.678797701697306L78.99848133333333,58.80812773291598L101.14328666666667,47.40376776827273L101.343838,51.12219340188301L101.56284933333333,108.78284924391079L101.99202066666666,53.11195479904477L102.19053666666667,48.743206538462516L102.391372,52.09634944912948L102.82040133333334,50.401892115895436L103.24673266666666,55.442731444570995L103.447568,48.96696109643304L103.64764600000001,42.751516867895845L103.84606733333332,40.98404509460639L104.04590866666668,47.513883366428104L104.24584466666667,45.73412574541493L104.67037733333333,46.08361973706431L104.86950866666666,43.90568058637959L105.29593466666667,50.2660263091547L105.72160333333332,45.15276154260846L105.92040333333334,52.72732433565237L106.34569333333333,49.29167657765176L106.545014,48.506547510025456L111.99644133333334,45.30907077993368L116.72650866666666,55.2790397983603L117.15847266666667,48.43089597513023L117.360018,45.30180823258377L117.56189466666666,46.75759950032406L117.99366933333333,53.20660798163469L118.194552,48.1018548399079L118.39609733333333,46.37596557054394L118.82815599999999,52.19431351825094L119.03060066666667,55.6148038991971L119.46573599999999,45.080849627577635L119.67139933333333,58.44429464310872L120.10980066666667,50.03563724839255L120.31617399999999,51.56998439319953L120.521364,49.05048426235966L120.958582,53.166549557156785L121.164482,56.35857696301535L121.60274133333333,52.892468850294875L122.03976999999999,55.03138840699006L122.47840799999999,60.89555469532378L122.68364533333335,44.67718793828922L122.888504,46.37241675003017L123.32468066666667,55.7713840539395L123.52793,50.23434471469059L123.96155066666665,47.81651756628128L124.395692,58.251611882365964L124.59894133333333,44.16319406661202L124.79930333333334,47.49386246569901L125.23264,51.91136857773587L125.66555066666666,44.00983759222578L129.57736666666668,52.22734059396568L130.00019533333332,41.24328576822586L130.197528,46.95337590742062L146.21479666666667,45.15996630608362L146.65315066666668,47.2643333986467L147.08421533333333,45.51503742728298L147.291914,44.30640356749885L147.498808,39.44215847178518L147.70376133333335,39.690689082454924L148.14538133333335,38.2835676367294L148.580848,47.449769051696904L148.78409733333334,39.02843931377663L148.98871933333334,39.976191245327726L149.42726266666668,41.628227600556414L149.86471733333335,45.88458503638287L150.29885866666666,43.626397893480885L150.501966,40.02733222652935L150.93544466666665,45.27559219761798L151.13665866666668,47.34047732464228L151.56814933333334,42.66041826621225L151.76983666666666,36.48725874530368L152.201848,37.650819122321224L152.40396133333334,46.088148386147196L152.60574333333332,38.7025922086589L153.03676066666668,39.22941178337814L153.23750133333334,38.69459189887627L153.670412,43.7817284775885L153.87214666666665,37.83073749335401L154.303022,43.82888613547496L154.50452,36.8596070223862L154.93615266666666,40.61355327066249L155.36740666666668,112.26204477948805L155.57141333333334,63.65785640993394L155.77220133333333,47.47907867881651L155.973936,44.62503920846274L156.40651533333332,45.782015908291925L161.83687933333334,41.730279885342696L168.37990800000003,46.024469736538975L168.80799066666668,42.14381849530437L169.00556,41.83631981655418L169.20625333333334,45.254123485035365L169.40779866666668,46.88310944537608L169.83720666666667,39.75456607646973L170.265952,41.86712694597932L170.47341400000002,37.84206726754445L170.905946,38.82158218698956L171.10929000000002,36.964300407006505L171.31400666666667,44.65632194090213L171.5192913333333,39.21557527399858L171.95641466666666,38.10786903030095L172.392544,52.181102335287534L172.82895733333334,39.74282267063461L173.032822,32.88993370730364L173.23768066666665,46.41162947120543L173.44220800000002,38.01816414833286L173.6463566666667,32.91949801038763L174.082486,38.349015538302496L174.28644533333332,42.252544817581935L174.490452,40.28570537369302L174.92572933333332,42.30837936096273L175.360628,41.591942298024094L175.56562866666667,36.77494809480754L176.0027046666667,32.99528079047417L176.20514933333334,32.37225736762488L176.41038666666665,36.73542826679744L176.61515066666666,41.902508918292426L176.82015133333334,36.73971864994502L177.25438733333334,37.54496759235016L177.684032,39.053235979804214L177.88652399999998,36.01088156499185L178.08849533333333,41.507733232877484L178.51885,36.50668866292017L178.94617533333334,30.95316883235492L179.37534666666664,35.68858200169501L179.804944,34.38699797492686L180.00819333333334,34.45717742958209L180.21149000000003,36.024966827028805L180.64672,35.00468548183386L181.08048266666665,50.77745142769315L181.51760599999997,30.306803005115057L181.949286,31.333637415330514L183.99105666666665,36.57067691096887L184.42330466666667,37.52873958540843L184.62664866666668,37.555669761746316L185.06282533333334,33.59058079376692L185.49848133333333,46.934198474364166L185.70206199999998,35.46657715630312L186.13639266666667,37.227614487735536L186.3395,34.99005197644502L186.541708,30.48235250841168L186.97566,40.39159987977084L187.40994333333333,44.53003580742927L187.84498399999998,36.66674202926049L188.04794933333335,39.03397016615591L188.25176666666667,39.131136386481245L188.45610466666665,40.89666393002389L188.88939399999998,38.33429738168766L189.09287999999998,42.70643875740515L189.52531733333333,35.58106294674164L189.72582133333333,37.82399968729257L189.92873933333334,36.34818176376905L190.36051400000002,37.63746773209391L190.564142,50.7700231620848L190.99814133333334,42.66443546456509L191.42949000000002,50.927392862360406L191.63415933333332,42.61449911538324L191.838166,40.90584754995689L192.04155733333332,38.4652666900179L192.47541466666667,40.11725819467182L192.67918466666669,36.95859762292736L193.11138533333335,36.65536620803991L193.31278866666668,44.04126969412647L193.5138606666667,47.937464608798706L193.941044,41.2867645565081L194.36756466666668,45.98189226497087L194.79498466666666,40.838854249867296L194.99307466666667,39.43449293933415L195.1928213333333,40.340391595422886L195.39342,36.26453618490791L195.82155,36.52369246958173L196.02124933333334,37.19900987699364L196.21952866666666,33.49129760442233L196.64609666666666,36.1924177254468L196.84499133333333,29.492034333374306L197.04270266666668,41.01201157945883L200.183364,34.83300337398387L200.61655866666666,32.353547214416835L201.051552,39.40044544419749L201.25551133333335,34.80838070581544L201.689558,35.14806857583065L201.89152933333332,40.7094209414264L202.09492066666667,33.11281482211632L202.52333466666664,35.57068881467049L202.72346,40.81503632476341L208.72158733333333,36.0499267172913L208.929144,36.373002279873845L218.72065933333334,36.859324416740066L219.15721466666665,39.70291237480387L219.59296533333335,32.10557623400399L219.799528,32.677108772653696L220.243704,37.80539544821343L220.45220733333332,36.931790320492325L220.660048,37.82358183435599L221.103088,32.64064274661257L221.31211199999998,37.41163166726355L239.251398,35.65815602976298L239.45696666666666,34.70929628366301L239.90213666666665,39.30137815280352L240.11097133333334,36.880273138908024L240.31895400000002,32.745216633074534L240.52636866666666,35.60044322893077L240.73548733333334,32.55730912130838L240.94489000000002,33.89126425718479L241.15585466666667,32.91357866328741L241.60239733333333,33.40511540994814L241.81156333333334,29.67976019394473L242.01987733333334,29.712389135658356L242.227718,30.56109143937107L242.669054,33.17927663645216L243.11034266666667,30.11338655454736L243.31752066666667,32.35577088260922L243.52219,34.84757419239452L243.72846866666669,30.013367758284545L259.56998866666663,34.75279117327602L259.7659013333333,34.297162055398644L259.965506,31.84679956497439L260.1642586666667,40.457542956792565L260.3333333333333,38.55231712989078" style="fill: none;" fill="none"></path></g></g></g></g><g opacity="0.2"><g><g><g><path stroke="rgb(255, 112, 67)" stroke-width="2px" d="M25.521991333333332,188.00853558182718L29.529326,156.78170971870424L29.530935333333332,156.4219539642334L29.739202000000002,145.26950799226762L30.166953333333336,152.9682987213135L30.367220666666665,146.06097065210344L30.569286666666667,144.11828957796098L31.000872,141.3841458439827L31.431037333333332,128.14511649608613L31.545063333333335,129.4402372121811L31.777517333333332,121.0219525575638L31.885058666666666,121.88536636829377L31.991511333333335,133.46951924562455L32.22652133333333,129.29633491039277L32.32909266666667,143.54268037080766L32.56012666666667,233.33780460357664L32.66392866666666,130.30365102291108L32.89501,130.30365102291108L32.996350666666665,136.8512233376503L33.101714666666666,125.98658196926118L33.334452666666664,168.86951186060907L33.44033733333333,111.16462730169297L33.54532266666667,128.79267685413362L33.648888,110.73292039632798L33.881058,109.29389737844468L34.11266,124.11585204601289L36.976942,86.62926726341249L37.423816,101.37927078008653L37.86761333333333,96.27073906660081L38.07535933333333,98.64512704610826L38.52341666666666,92.88901739120485L52.67314866666667,68.42560850381852L52.88098933333333,65.33170901536943L53.104307999999996,76.55610613822938L53.31058666666667,66.26707397699357L53.750691999999994,67.49024354219438L53.95697066666667,73.8219448208809L56.128008666666666,73.10243331193925L64.03456866666667,61.014639961719524L64.23587733333333,57.20121138095858L78.99848133333333,58.92805658578874L101.14328666666667,46.19268529415132L101.343838,51.517070460319545L101.56284933333333,114.90610473155976L101.99202066666666,47.20000140666963L102.19053666666667,48.279268670082104L102.391372,52.45243542194369L102.82040133333334,50.221949744224574L103.24673266666666,55.97804181575778L103.447568,48.279268670082104L103.64764600000001,42.09146969318391L103.84606733333332,40.79634897708894L104.04590866666668,48.20731751918794L104.24584466666667,45.54512493610383L104.67037733333333,46.12073414325715L104.86950866666666,43.67439501285554L105.29593466666667,50.941461253166224L105.72160333333332,44.60975997447969L105.92040333333334,53.531702685356166L106.34569333333333,48.92682902812959L106.545014,48.423170971870434L111.99644133333334,44.96951572895051L116.72650866666666,56.3377975702286L117.15847266666667,47.70365946292878L117.360018,44.96951572895051L117.56189466666666,46.91219680309297L117.99366933333333,53.89145843982699L118.194552,47.55975716114045L118.39609733333333,46.19268529415132L118.82815599999999,52.812191176414515L119.03060066666667,55.97804181575778L119.46573599999999,43.9621996164322L119.67139933333333,59.863421547412884L120.10980066666667,49.1426824808121L120.31617399999999,51.73292391300204L120.521364,48.78292672634126L120.958582,53.60365383625033L121.164482,56.69755332469943L121.60274133333333,52.524386572837855L122.03976999999999,55.25853030681613L122.47840799999999,61.51829801797868L122.68364533333335,42.95488350391389L122.888504,46.55244104862214L123.32468066666667,56.76950447559359L123.52793,49.646340537071254L123.96155066666665,47.55975716114045L124.395692,59.35976349115373L124.59894133333333,42.66707890033723L124.79930333333334,47.84756176471711L125.23264,52.380484271049525L125.66555066666666,43.170736956596386L129.57736666666668,53.099995779991175L130.00019533333332,40.07683746814729L130.197528,47.55975716114045L146.21479666666667,44.96951572895051L146.65315066666668,47.48780601024629L147.08421533333333,45.32927148342134L147.291914,44.178053069114696L147.498808,38.92560147047047L147.70376133333335,39.717081713676464L148.14538133333335,38.13413881063465L148.580848,48.423170971870434L148.78409733333334,38.13413881063465L148.98871933333334,40.07683746814729L149.42726266666668,41.80366508960725L149.86471733333335,46.33658759593965L150.29885866666666,43.38659040927888L150.501966,39.6451305627823L150.93544466666665,45.83292953968049L151.13665866666668,47.55975716114045L151.56814933333334,42.163420844078075L151.76983666666666,35.83170198202137L152.201848,37.77438305616383L152.40396133333334,46.98414795398713L152.60574333333332,37.91828535795216L153.03676066666668,39.28535722494129L153.23750133333334,38.63779686689381L153.670412,44.32195537090303L153.87214666666665,37.19877384901051L154.303022,44.46585767269136L154.50452,36.11950658559803L154.93615266666666,41.012202429771435L155.36740666666668,119.87073414325715L155.57141333333334,58.49634968042375L155.77220133333333,45.76097838878633L155.973936,44.32195537090303L156.40651533333332,45.90488069057466L161.83687933333334,41.300007033348095L168.37990800000003,46.48048989772798L168.80799066666668,41.731713938713085L169.00556,41.80366508960725L169.20625333333334,45.617076086998L169.40779866666668,47.0560991048813L169.83720666666667,38.99755262136463L170.265952,42.09146969318391L170.47341400000002,37.414627301693L170.905946,38.92560147047047L171.10929000000002,36.76706694364552L171.31400666666667,45.47317378520967L171.5192913333333,38.63779686689381L171.95641466666666,37.99023650884632L172.392544,53.675604987144496L172.82895733333334,38.42194341421131L173.032822,32.162193286418955L173.23768066666665,47.84756176471711L173.44220800000002,37.12682269811634L173.6463566666667,32.37804673910145L174.082486,38.92560147047047L174.28644533333332,42.66707890033723L174.490452,40.07683746814729L174.92572933333332,42.5231765985489L175.360628,41.51586048603059L175.56562866666667,36.26340888738636L176.0027046666667,32.593900191783945L176.20514933333334,32.306095588207285L176.41038666666665,37.19877384901051L176.61515066666666,42.451225447654735L176.82015133333334,36.1914577364922L177.25438733333334,37.6304807543755L177.684032,39.21340607404713L177.88652399999998,35.68779968023304L178.08849533333333,42.09146969318391L178.51885,35.9756042838097L178.94617533333334,30.36341451406483L179.37534666666664,36.1914577364922L179.804944,34.24877666234974L180.00819333333334,34.464630115032236L180.21149000000003,36.1914577364922L180.64672,34.896337020397226L181.08048266666665,52.45243542194369L181.51760599999997,28.132928836345684L181.949286,31.442681777477304L183.99105666666665,37.12682269811634L184.42330466666667,37.6304807543755L184.62664866666668,37.55852960348133L185.06282533333334,33.169509398937265L185.49848133333333,48.35121982097627L185.70206199999998,34.24877666234974L186.13639266666667,37.414627301693L186.3395,34.752434718608896L186.541708,30.003658759594003L186.97566,41.443909335136425L187.40994333333333,44.96951572895051L187.84498399999998,35.83170198202137L188.04794933333335,39.28535722494129L188.25176666666667,39.14145492315296L188.45610466666665,41.0841535806656L188.88939399999998,38.06218765974049L189.09287999999998,43.170736956596386L189.52531733333333,34.82438586950306L189.72582133333333,38.06218765974049L189.92873933333334,36.1914577364922L190.36051400000002,37.77438305616383L190.564142,52.16463081836703L190.99814133333334,41.80366508960725L191.42949000000002,51.804875063896205L191.63415933333332,41.731713938713085L191.838166,40.724397826194775L192.04155733333332,38.20608996152882L192.47541466666667,40.292690920829784L192.67918466666669,36.62316464185719L193.11138533333335,36.62316464185719L193.31278866666668,44.82561342716218L193.5138606666667,48.35121982097627L193.941044,40.580495524406444L194.36756466666668,46.48048989772798L194.79498466666666,40.292690920829784L194.99307466666667,39.28535722494129L195.1928213333333,40.436593222618114L195.39342,35.83170198202137L195.82155,36.55121349096302L196.02124933333334,37.27072499990467L196.21952866666666,33.0975582480431L196.64609666666666,36.47926234006886L196.84499133333333,28.78048919439317L197.04270266666668,42.23537199497224L200.183364,34.176825511455576L200.61655866666666,32.09024213552479L201.051552,40.148788619041454L201.25551133333335,34.320727813243906L201.689558,35.184141623973886L201.89152933333332,41.300007033348095L202.09492066666667,32.306095588207285L202.52333466666664,35.83170198202137L202.72346,41.37195818424226L208.72158733333333,35.54389737844471L208.929144,36.40731118917469L218.72065933333334,36.91096924543385L219.15721466666665,40.004886317253124L219.59296533333335,31.298779475688974L219.799528,32.737802493572275L220.243704,38.34999226331715L220.45220733333332,36.83901809453968L220.660048,37.91828535795216L221.103088,32.09024213552479L221.31211199999998,37.91828535795216L239.251398,35.471946227550546L239.45696666666666,34.608532416820566L239.90213666666665,39.78903286457063L240.11097133333334,36.62316464185719L240.31895400000002,32.306095588207285L240.52636866666666,35.90365313291554L240.73548733333334,32.23414443731312L240.94489000000002,34.032923209667246L241.15585466666667,32.80975364446644L241.60239733333333,33.457314002513925L241.81156333333334,29.284147250652325L242.01987733333334,29.715854156017343L242.227718,30.65121911764149L242.669054,33.457314002513925L243.11034266666667,29.78780530691151L243.31752066666667,32.593900191783945L243.52219,35.11219047307972L243.72846866666669,29.500000703334848L259.56998866666663,35.25609277486805L259.7659013333333,34.24877666234974L259.965506,31.586584079265634L260.1642586666667,41.37195818424226L260.3333333333333,38.34999226331715" style="fill: none;" fill="none"></path></g></g></g></g></g></g><g transform="translate(46, 177)" clip-path="url(#clip_1)"><clipPath id="clip_1"><rect width="284" height="23"></rect></clipPath><g><g><line x1="0" y1="0" x2="0" y2="5" style="visibility: inherit;" fill="rgb(0, 0, 0)" stroke="rgb(204, 204, 204)" stroke-width="1px"></line><line x1="23.666666666666664" y1="0" x2="23.666666666666664" y2="5" style="visibility: inherit;" fill="rgb(0, 0, 0)" stroke="rgb(204, 204, 204)" stroke-width="1px"></line><line x1="47.33333333333333" y1="0" x2="47.33333333333333" y2="5" style="visibility: inherit;" fill="rgb(0, 0, 0)" stroke="rgb(204, 204, 204)" stroke-width="1px"></line><line x1="71" y1="0" x2="71" y2="5" style="visibility: inherit;" fill="rgb(0, 0, 0)" stroke="rgb(204, 204, 204)" stroke-width="1px"></line><line x1="94.66666666666666" y1="0" x2="94.66666666666666" y2="5" style="visibility: inherit;" fill="rgb(0, 0, 0)" stroke="rgb(204, 204, 204)" stroke-width="1px"></line><line x1="118.33333333333334" y1="0" x2="118.33333333333334" y2="5" style="visibility: inherit;" fill="rgb(0, 0, 0)" stroke="rgb(204, 204, 204)" stroke-width="1px"></line><line x1="142" y1="0" x2="142" y2="5" style="visibility: inherit;" fill="rgb(0, 0, 0)" stroke="rgb(204, 204, 204)" stroke-width="1px"></line><line x1="165.66666666666669" y1="0" x2="165.66666666666669" y2="5" style="visibility: inherit;" fill="rgb(0, 0, 0)" stroke="rgb(204, 204, 204)" stroke-width="1px"></line><line x1="189.33333333333331" y1="0" x2="189.33333333333331" y2="5" style="visibility: inherit;" fill="rgb(0, 0, 0)" stroke="rgb(204, 204, 204)" stroke-width="1px"></line><line x1="213" y1="0" x2="213" y2="5" style="visibility: inherit;" fill="rgb(0, 0, 0)" stroke="rgb(204, 204, 204)" stroke-width="1px"></line><line x1="236.66666666666669" y1="0" x2="236.66666666666669" y2="5" style="visibility: inherit;" fill="rgb(0, 0, 0)" stroke="rgb(204, 204, 204)" stroke-width="1px"></line><line x1="260.3333333333333" y1="0" x2="260.3333333333333" y2="5" style="visibility: inherit;" fill="rgb(0, 0, 0)" stroke="rgb(204, 204, 204)" stroke-width="1px"></line><line x1="284" y1="0" x2="284" y2="5" style="visibility: inherit;" fill="rgb(0, 0, 0)" stroke="rgb(204, 204, 204)" stroke-width="1px"></line></g><g transform="translate(0, 8)"><text x="0" y="0" dx="0em" dy="0.95em" style="text-anchor: middle; visibility: hidden; font-family: &quot;Helvetica Neue&quot;, sans-serif; font-size: 12px; font-weight: 200;" fill="rgb(50, 49, 63)" stroke="none" stroke-width="1px">-500k</text><text x="23.666666666666664" y="0" dx="0em" dy="0.95em" style="text-anchor: middle; visibility: inherit; font-family: &quot;Helvetica Neue&quot;, sans-serif; font-size: 12px; font-weight: 200;" fill="rgb(50, 49, 63)" stroke="none" stroke-width="1px">0</text><text x="47.33333333333333" y="0" dx="0em" dy="0.95em" style="text-anchor: middle; visibility: hidden; font-family: &quot;Helvetica Neue&quot;, sans-serif; font-size: 12px; font-weight: 200;" fill="rgb(50, 49, 63)" stroke="none" stroke-width="1px">500k</text><text x="71" y="0" dx="0em" dy="0.95em" style="text-anchor: middle; visibility: inherit; font-family: &quot;Helvetica Neue&quot;, sans-serif; font-size: 12px; font-weight: 200;" fill="rgb(50, 49, 63)" stroke="none" stroke-width="1px">1M</text><text x="94.66666666666666" y="0" dx="0em" dy="0.95em" style="text-anchor: middle; visibility: hidden; font-family: &quot;Helvetica Neue&quot;, sans-serif; font-size: 12px; font-weight: 200;" fill="rgb(50, 49, 63)" stroke="none" stroke-width="1px">1.5M</text><text x="118.33333333333334" y="0" dx="0em" dy="0.95em" style="text-anchor: middle; visibility: inherit; font-family: &quot;Helvetica Neue&quot;, sans-serif; font-size: 12px; font-weight: 200;" fill="rgb(50, 49, 63)" stroke="none" stroke-width="1px">2M</text><text x="142" y="0" dx="0em" dy="0.95em" style="text-anchor: middle; visibility: hidden; font-family: &quot;Helvetica Neue&quot;, sans-serif; font-size: 12px; font-weight: 200;" fill="rgb(50, 49, 63)" stroke="none" stroke-width="1px">2.5M</text><text x="165.66666666666669" y="0" dx="0em" dy="0.95em" style="text-anchor: middle; visibility: inherit; font-family: &quot;Helvetica Neue&quot;, sans-serif; font-size: 12px; font-weight: 200;" fill="rgb(50, 49, 63)" stroke="none" stroke-width="1px">3M</text><text x="189.33333333333331" y="0" dx="0em" dy="0.95em" style="text-anchor: middle; visibility: hidden; font-family: &quot;Helvetica Neue&quot;, sans-serif; font-size: 12px; font-weight: 200;" fill="rgb(50, 49, 63)" stroke="none" stroke-width="1px">3.5M</text><text x="213" y="0" dx="0em" dy="0.95em" style="text-anchor: middle; visibility: inherit; font-family: &quot;Helvetica Neue&quot;, sans-serif; font-size: 12px; font-weight: 200;" fill="rgb(50, 49, 63)" stroke="none" stroke-width="1px">4M</text><text x="236.66666666666669" y="0" dx="0em" dy="0.95em" style="text-anchor: middle; visibility: hidden; font-family: &quot;Helvetica Neue&quot;, sans-serif; font-size: 12px; font-weight: 200;" fill="rgb(50, 49, 63)" stroke="none" stroke-width="1px">4.5M</text><text x="260.3333333333333" y="0" dx="0em" dy="0.95em" style="text-anchor: middle; visibility: inherit; font-family: &quot;Helvetica Neue&quot;, sans-serif; font-size: 12px; font-weight: 200;" fill="rgb(50, 49, 63)" stroke="none" stroke-width="1px">5M</text><text x="284" y="0" dx="0em" dy="0.95em" style="text-anchor: middle; visibility: hidden; font-family: &quot;Helvetica Neue&quot;, sans-serif; font-size: 12px; font-weight: 200;" fill="rgb(50, 49, 63)" stroke="none" stroke-width="1px">5.5M</text></g><line x1="0" y1="0" x2="284" y2="0" fill="rgb(0, 0, 0)" stroke="rgb(204, 204, 204)" stroke-width="1px"></line></g></g></g></g></svg>