<svg viewBox="0 0 330 200" xmlns="http://www.w3.org/2000/svg"><g><g><g><g><g><line x1="55" y1="177" x2="50" y2="177" style="visibility: inherit;" fill="rgb(0, 0, 0)" stroke="rgb(204, 204, 204)" stroke-width="1px"></line><line x1="55" y1="159.3" x2="50" y2="159.3" style="visibility: inherit;" fill="rgb(0, 0, 0)" stroke="rgb(204, 204, 204)" stroke-width="1px"></line><line x1="55" y1="141.6" x2="50" y2="141.6" style="visibility: inherit;" fill="rgb(0, 0, 0)" stroke="rgb(204, 204, 204)" stroke-width="1px"></line><line x1="55" y1="123.89999999999999" x2="50" y2="123.89999999999999" style="visibility: inherit;" fill="rgb(0, 0, 0)" stroke="rgb(204, 204, 204)" stroke-width="1px"></line><line x1="55" y1="106.2" x2="50" y2="106.2" style="visibility: inherit;" fill="rgb(0, 0, 0)" stroke="rgb(204, 204, 204)" stroke-width="1px"></line><line x1="55" y1="88.5" x2="50" y2="88.5" style="visibility: inherit;" fill="rgb(0, 0, 0)" stroke="rgb(204, 204, 204)" stroke-width="1px"></line><line x1="55" y1="70.8" x2="50" y2="70.8" style="visibility: inherit;" fill="rgb(0, 0, 0)" stroke="rgb(204, 204, 204)" stroke-width="1px"></line><line x1="55" y1="53.10000000000001" x2="50" y2="53.10000000000001" style="visibility: inherit;" fill="rgb(0, 0, 0)" stroke="rgb(204, 204, 204)" stroke-width="1px"></line><line x1="55" y1="35.400000000000006" x2="50" y2="35.400000000000006" style="visibility: inherit;" fill="rgb(0, 0, 0)" stroke="rgb(204, 204, 204)" stroke-width="1px"></line><line x1="55" y1="17.69999999999999" x2="50" y2="17.69999999999999" style="visibility: inherit;" fill="rgb(0, 0, 0)" stroke="rgb(204, 204, 204)" stroke-width="1px"></line><line x1="55" y1="0" x2="50" y2="0" style="visibility: inherit;" fill="rgb(0, 0, 0)" stroke="rgb(204, 204, 204)" stroke-width="1px"></line></g><g transform="translate(45, 0)"><text x="0" y="177" dx="0em" dy="0.3em" style="text-anchor: end; visibility: hidden; font-family: &quot;Helvetica Neue&quot;, sans-serif; font-size: 12px; font-weight: 200;" fill="rgb(50, 49, 63)" stroke="none" stroke-width="1px">-0.05</text><text x="0" y="159.3" dx="0em" dy="0.3em" style="text-anchor: end; visibility: inherit; font-family: &quot;Helvetica Neue&quot;, sans-serif; font-size: 12px; font-weight: 200;" fill="rgb(50, 49, 63)" stroke="none" stroke-width="1px">0</text><text x="0" y="141.6" dx="0em" dy="0.3em" style="text-anchor: end; visibility: hidden; font-family: &quot;Helvetica Neue&quot;, sans-serif; font-size: 12px; font-weight: 200;" fill="rgb(50, 49, 63)" stroke="none" stroke-width="1px">0.05</text><text x="0" y="123.89999999999999" dx="0em" dy="0.3em" style="text-anchor: end; visibility: inherit; font-family: &quot;Helvetica Neue&quot;, sans-serif; font-size: 12px; font-weight: 200;" fill="rgb(50, 49, 63)" stroke="none" stroke-width="1px">0.1</text><text x="0" y="106.2" dx="0em" dy="0.3em" style="text-anchor: end; visibility: hidden; font-family: &quot;Helvetica Neue&quot;, sans-serif; font-size: 12px; font-weight: 200;" fill="rgb(50, 49, 63)" stroke="none" stroke-width="1px">0.15</text><text x="0" y="88.5" dx="0em" dy="0.3em" style="text-anchor: end; visibility: inherit; font-family: &quot;Helvetica Neue&quot;, sans-serif; font-size: 12px; font-weight: 200;" fill="rgb(50, 49, 63)" stroke="none" stroke-width="1px">0.2</text><text x="0" y="70.8" dx="0em" dy="0.3em" style="text-anchor: end; visibility: hidden; font-family: &quot;Helvetica Neue&quot;, sans-serif; font-size: 12px; font-weight: 200;" fill="rgb(50, 49, 63)" stroke="none" stroke-width="1px">0.25</text><text x="0" y="53.10000000000001" dx="0em" dy="0.3em" style="text-anchor: end; visibility: inherit; font-family: &quot;Helvetica Neue&quot;, sans-serif; font-size: 12px; font-weight: 200;" fill="rgb(50, 49, 63)" stroke="none" stroke-width="1px">0.3</text><text x="0" y="35.400000000000006" dx="0em" dy="0.3em" style="text-anchor: end; visibility: hidden; font-family: &quot;Helvetica Neue&quot;, sans-serif; font-size: 12px; font-weight: 200;" fill="rgb(50, 49, 63)" stroke="none" stroke-width="1px">0.35</text><text x="0" y="17.69999999999999" dx="0em" dy="0.3em" style="text-anchor: end; visibility: inherit; font-family: &quot;Helvetica Neue&quot;, sans-serif; font-size: 12px; font-weight: 200;" fill="rgb(50, 49, 63)" stroke="none" stroke-width="1px">0.4</text><text x="0" y="0" dx="0em" dy="0.3em" style="text-anchor: end; visibility: hidden; font-family: &quot;Helvetica Neue&quot;, sans-serif; font-size: 12px; font-weight: 200;" fill="rgb(50, 49, 63)" stroke="none" stroke-width="1px">0.45</text></g><line x1="55" y1="0" x2="55" y2="177" fill="rgb(0, 0, 0)" stroke="rgb(204, 204, 204)" stroke-width="1px"></line></g></g><g transform="translate(55, 0)" clip-path="url(#clip_0)"><clipPath id="clip_0"><rect width="275" height="177"></rect></clipPath><g><g><g><line x1="0" y1="0" x2="0" y2="177" fill="rgb(0, 0, 0)" stroke="rgb(60, 60, 60)" stroke-width="1px" opacity="0.25"></line><line x1="22.916666666666664" y1="0" x2="22.916666666666664" y2="177" fill="rgb(0, 0, 0)" stroke="rgb(60, 60, 60)" stroke-width="1px" opacity="0.25"></line><line x1="45.83333333333333" y1="0" x2="45.83333333333333" y2="177" fill="rgb(0, 0, 0)" stroke="rgb(60, 60, 60)" stroke-width="1px" opacity="0.25"></line><line x1="68.75" y1="0" x2="68.75" y2="177" fill="rgb(0, 0, 0)" stroke="rgb(60, 60, 60)" stroke-width="1px" opacity="0.25"></line><line x1="91.66666666666666" y1="0" x2="91.66666666666666" y2="177" fill="rgb(0, 0, 0)" stroke="rgb(60, 60, 60)" stroke-width="1px" opacity="0.25"></line><line x1="114.58333333333334" y1="0" x2="114.58333333333334" y2="177" fill="rgb(0, 0, 0)" stroke="rgb(60, 60, 60)" stroke-width="1px" opacity="0.25"></line><line x1="137.5" y1="0" x2="137.5" y2="177" fill="rgb(0, 0, 0)" stroke="rgb(60, 60, 60)" stroke-width="1px" opacity="0.25"></line><line x1="160.41666666666669" y1="0" x2="160.41666666666669" y2="177" fill="rgb(0, 0, 0)" stroke="rgb(60, 60, 60)" stroke-width="1px" opacity="0.25"></line><line x1="183.33333333333331" y1="0" x2="183.33333333333331" y2="177" fill="rgb(0, 0, 0)" stroke="rgb(60, 60, 60)" stroke-width="1px" opacity="0.25"></line><line x1="206.25" y1="0" x2="206.25" y2="177" fill="rgb(0, 0, 0)" stroke="rgb(60, 60, 60)" stroke-width="1px" opacity="0.25"></line><line x1="229.16666666666669" y1="0" x2="229.16666666666669" y2="177" fill="rgb(0, 0, 0)" stroke="rgb(60, 60, 60)" stroke-width="1px" opacity="0.25"></line><line x1="252.08333333333331" y1="0" x2="252.08333333333331" y2="177" fill="rgb(0, 0, 0)" stroke="rgb(60, 60, 60)" stroke-width="1px" opacity="0.25"></line><line x1="275" y1="0" x2="275" y2="177" fill="rgb(0, 0, 0)" stroke="rgb(60, 60, 60)" stroke-width="1px" opacity="0.25"></line></g><g><line x1="0" y1="177" x2="275" y2="177" fill="rgb(0, 0, 0)" stroke="rgb(60, 60, 60)" stroke-width="1px" opacity="0.25"></line><line x1="0" y1="159.3" x2="275" y2="159.3" fill="rgb(0, 0, 0)" stroke="rgb(60, 60, 60)" stroke-width="1px" opacity="0.25"></line><line x1="0" y1="141.6" x2="275" y2="141.6" fill="rgb(0, 0, 0)" stroke="rgb(60, 60, 60)" stroke-width="1px" opacity="0.25"></line><line x1="0" y1="123.89999999999999" x2="275" y2="123.89999999999999" fill="rgb(0, 0, 0)" stroke="rgb(60, 60, 60)" stroke-width="1px" opacity="0.25"></line><line x1="0" y1="106.2" x2="275" y2="106.2" fill="rgb(0, 0, 0)" stroke="rgb(60, 60, 60)" stroke-width="1px" opacity="0.25"></line><line x1="0" y1="88.5" x2="275" y2="88.5" fill="rgb(0, 0, 0)" stroke="rgb(60, 60, 60)" stroke-width="1px" opacity="0.25"></line><line x1="0" y1="70.8" x2="275" y2="70.8" fill="rgb(0, 0, 0)" stroke="rgb(60, 60, 60)" stroke-width="1px" opacity="0.25"></line><line x1="0" y1="53.10000000000001" x2="275" y2="53.10000000000001" fill="rgb(0, 0, 0)" stroke="rgb(60, 60, 60)" stroke-width="1px" opacity="0.25"></line><line x1="0" y1="35.400000000000006" x2="275" y2="35.400000000000006" fill="rgb(0, 0, 0)" stroke="rgb(60, 60, 60)" stroke-width="1px" opacity="0.25"></line><line x1="0" y1="17.69999999999999" x2="275" y2="17.69999999999999" fill="rgb(0, 0, 0)" stroke="rgb(60, 60, 60)" stroke-width="1px" opacity="0.25"></line><line x1="0" y1="0" x2="275" y2="0" fill="rgb(0, 0, 0)" stroke="rgb(60, 60, 60)" stroke-width="1px" opacity="0.25"></line></g></g></g><g><g><line x1="0" y1="159.3" x2="275" y2="159.3" fill="rgb(0, 0, 0)" stroke="rgb(153, 153, 153)" stroke-width="1.5px"></line></g></g><g><g><line x1="22.916666666666664" y1="0" x2="22.916666666666664" y2="177" fill="rgb(0, 0, 0)" stroke="rgb(153, 153, 153)" stroke-width="1.5px"></line></g></g><g><g><g><g><g><path stroke="rgb(255, 112, 67)" stroke-width="2px" d="M23.1243375,154.81599893532695L23.318533333333335,156.21441745252815L23.500308333333333,155.2257596584265L23.907262499999998,151.66055208260866L24.308945833333333,146.59748988186902L24.713195833333334,139.71721811802283L28.5935375,128.45288372001903L28.595095833333332,122.63933624447438L28.7967625,118.21318274485941L29.210958333333334,112.6698069013406L29.404879166666667,110.22820763197868L29.60054166666667,106.93674275397146L30.01845,108.33871161137513L30.434983333333335,103.7016505056435L30.545395833333334,102.36765317176904L30.770483333333335,102.36690248086838L30.874616666666668,99.6737299378072L30.977695833333335,100.01823074388388L31.205258333333333,99.79892995343779L31.304579166666667,101.06187507219151L31.528291666666668,113.81436783852423L31.628804166666665,108.01728346702626L31.8525625,102.88476395391534L31.950691666666668,100.10606285335624L32.05271666666667,96.43685795939373L32.278079166666664,99.152603569579L32.380608333333335,93.11072446122677L32.48226666666667,100.44519643825447L32.58255,100.40573160411458L32.8073625,97.52475582901245L33.031625,96.61649840075502L35.8051375,89.1076954122666L36.23785,87.80674494469365L36.66758333333333,84.82637264751159L36.86874583333333,84.14949711364848L37.30260416666666,82.8933206393037L51.003929166666666,69.66091769574966L51.20518333333333,68.588903189725L51.421425,68.53825969269099L51.62116666666667,61.55235793831049L52.047324999999994,58.24945791600737L52.24706666666667,57.89412197595777L54.34930416666667,54.209722591325416L62.00530416666667,51.103137102116236L62.20023333333334,48.15543689601125L76.49500833333333,44.51905773541006L97.93804166666666,39.128934750716894L98.1322375,40.099285317538715L98.34430833333333,45.816486826662896L98.75987916666666,42.84080897753495L98.95210416666667,39.12414053787015L99.146575,37.748471825769826L99.56200833333332,35.82873790350297L99.97482916666667,37.238793182891555L100.1693,35.56794555218232L100.3630375,33.7508275653785L100.55517083333332,36.03761885558811L100.74867916666668,35.115561778516934L100.94227916666667,34.83017571399887L101.35335833333333,32.793552463235045L101.54617916666666,34.53334952412942L101.95909166666668,36.96556847225969L102.37127083333333,34.3568914898118L102.56377083333334,36.013067036144776L102.97558333333333,36.09993466214709L103.1685875,35.850877426125834L108.44725833333334,36.91119724157943L113.02742916666666,36.998931460639795L113.44570416666666,37.52972431484517L113.6408625,36.814015118501516L113.83634166666666,39.51936831487535L114.25443333333332,41.78513988025972L114.44895,46.26110045533173L114.64410833333334,41.373938439016314L115.06247499999999,40.63580107076453L115.25850416666667,38.11756471743277L115.67984999999999,35.209420175254905L115.87899583333333,35.61698272401128L116.30350416666667,37.91041895016454L116.5033375,37.192689534809745L116.702025,36.63229083346519L117.1253875,37.180240526957476L117.3247625,38.9960781616945L117.74913333333333,36.46334880608194L118.17231249999999,38.14884167443441L118.59705,39.201501922194524L118.79578333333333,37.83474663995764L118.99414999999999,36.7416673380319L119.41650416666667,36.63949335802698L119.61331249999999,35.56839571231069L120.03319166666665,36.1555911841003L120.453575,37.61094704043913L120.65038333333332,39.030255019498185L120.84439583333334,36.588587100405874L121.26400000000001,36.756451253354186L121.68319166666666,35.5899643875716L125.47104166666666,34.899246567342146L125.88047083333333,33.26593383899535L126.07155,33.0466281172705L141.58122916666665,32.921159477059405L142.00569166666668,33.61207575978301L142.42309583333332,32.861367145666264L142.6242125,34.453468460731955L142.82455,33.67160902672606L143.02300833333334,33.04590149792193L143.45063333333334,33.370285268260005L143.8723,35.30799018599566L144.06910833333333,33.72834588562236L144.26724583333333,33.682476476876644L144.69189166666666,32.66848556283037L145.11548333333334,33.28947665263962L145.53586666666666,33.40957973700614L145.7325375,31.416293296228957L146.15227916666666,30.739082899696285L146.34711666666666,32.35823008954924L146.76493333333332,31.87205138647795L146.96022916666666,30.344999873901855L147.37855,30.178027317682165L147.57425833333335,31.483933852767507L147.76964583333333,32.124807714614604L148.18700416666667,30.829000467773284L148.38138333333333,31.783817092607023L148.800575,32.69775974275447L148.99591666666666,30.013775794039816L149.4131375,31.82006917019524L149.60825,31.49304137718582L150.02620416666664,32.597427208971396L150.44379166666667,42.95121619209732L150.64133333333334,41.63718397799184L150.83575833333333,41.055380502838176L151.0311,40.52089232891697L151.44997083333334,35.92596768075168L156.70824583333334,36.26174765785896L163.043925,33.407984096767706L163.4584416666667,30.249807447768575L163.64975,29.32746579800684L163.84408333333332,28.95706993195199L164.03924166666667,32.58481822641363L164.45504166666666,31.28789351839822L164.87019999999998,29.910045895928135L165.0710875,28.07029887792706L165.4899125,27.233821987850916L165.6868125,26.87853896125759L165.88504166666667,28.776998273757727L166.08382083333333,28.96673223032215L166.50709166666667,28.341649054608695L166.9294,30.426070947123748L167.35198333333332,30.240638190909124L167.54938750000002,29.603548554422787L167.74775416666665,31.820807564164596L167.94580000000002,29.984215128365406L168.14347916666668,26.426184976067105L168.5657875,27.49851453063843L168.76328333333333,29.357021611678363L168.960825,27.60587896928058L169.38230833333333,26.865444214492214L169.803425,29.160813107102626L170.00192916666666,30.98968510985941L170.4251541666667,29.64002351975779L170.62118333333333,26.529659201004165L170.81991666666664,25.208408332644723L171.01819166666667,26.51382511185338L171.21669583333335,26.29606376008232L171.63717083333333,25.847834403014446L172.0532,26.98404579561725L172.24927499999998,26.727630903731438L172.44484583333332,28.434312130457556L172.8615625,26.919394741920485L173.27534583333335,26.73972513822784L173.69091666666665,30.08128686993163L174.1069,29.738029524379016L174.30370833333333,27.492114398892568L174.5005625,31.39547591567984L174.922,30.280482675796463L175.34201666666667,32.85616713652951L175.7652875,28.15918458157745L176.1832875,28.1563612929223L178.16035416666665,30.6803383965038L178.57890416666666,30.470129421874447L178.7758041666667,30.13107505054745L179.19815833333334,28.571719824144083L179.62000833333335,29.93274944476417L179.8171375,28.269960097385223L180.23770416666667,27.00407960648107L180.434375,25.65333229204873L180.630175,23.62765217483559L181.050375,24.7379078618319L181.47089583333334,27.675510577656695L181.89215,26.805778386770413L182.08868333333334,26.752980395900465L182.28604166666668,27.927700851408986L182.48390416666666,28.71735952260994L182.9034625,28.97861819960417L183.10049999999998,28.72599456726161L183.51923333333332,31.20574360620168L183.71338333333333,28.873240117616575L183.90987083333334,27.99470655702777L184.3279625,27.81043681969183L184.5251375,33.58232677382193L184.94538333333333,31.92792775393704L185.3630625,33.82339487887131L185.56124583333332,34.876667437653L185.7587875,31.853411227286017L185.9557333333333,29.64935144294509L186.37584166666667,29.739251254255834L186.57315416666668,30.61686090842204L186.99165833333333,30.762798782678345L187.18667916666666,29.369205920989458L187.38137916666668,28.480755854305727L187.795025,28.91010947266645L188.20802916666668,30.854923382040425L188.62190416666667,29.23861883082185L188.81371666666666,30.045788986672136L189.00713333333331,31.93760329198193L189.20137499999998,29.521773868270827L189.6159375,27.952858403604097L189.80930833333335,27.13534106450132L190.00130416666667,25.981981210928268L190.41435416666667,26.58281565011805L190.60694583333333,29.647666785128507L190.79839166666667,30.229297569398653L193.839525,28.763908554914337L194.25899166666665,26.126779819609368L194.6802,26.456432448078175L194.87769583333335,26.150561748891477L195.2979875,27.058603698581095L195.4935583333333,28.010735682588603L195.69050416666667,25.466859199966052L196.10534166666665,25.68832171581093L196.299125,25.659188865553773L202.10717083333333,23.81870753224578L202.30815,23.321568285559948L211.78937083333335,25.564291326484295L212.21209166666665,37.23310914056373L212.63403333333335,34.78957270155473L212.83405000000002,30.78831006151512L213.26415,28.427735401761964L213.4660458333333,26.379115119917657L213.6673,25.38995173415151L214.0963,23.779271209482005L214.2987,24.05877830758311L231.6694875,23.93147018775116L231.86854166666666,23.39928637996178L232.29960416666665,24.962251962750344L232.50182083333334,25.86972320886204L232.7032125,26.09619030959456L232.90405416666667,25.858561806720786L233.10654583333334,25.646194198633594L233.3093125,31.56910582238757L233.51359166666668,28.442844647492905L233.94598333333334,27.993345433667884L234.14852083333335,26.922734645721647L234.35023333333334,26.98642629368146L234.5514875,25.080234224695204L234.9788375,26.06611690944328L235.40614166666666,24.898198230420917L235.6067541666667,25.052927217099295L235.8049375,23.702690382726928L236.00467916666668,22.66457496400352L251.34417916666666,22.369575080368975L251.53388333333334,25.25532253330593L251.7271625,22.41874646512059L251.91961666666668,22.956937662168656L252.08333333333331,22.57758804762622" style="fill: none;" fill="none"></path></g></g></g></g><g opacity="0.2"><g><g><g><path stroke="rgb(255, 112, 67)" stroke-width="2px" d="M23.1243375,154.81599893532695L23.318533333333335,157.05346856284888L23.500308333333333,154.27664817608894L23.907262499999998,147.46786797344686L24.308945833333333,139.9871558725834L24.713195833333334,130.19932537078859L28.5935375,112.3447053015232L28.595095833333332,114.16312821507455L28.7967625,111.68546606898308L29.210958333333334,104.4385398209095L29.404879166666667,106.58795385360717L29.60054166666667,102.01745744347572L30.01845,110.437087225914L30.434983333333335,96.75514333248138L30.545395833333334,100.36822523474693L30.770483333333335,102.36577697396278L30.874616666666668,95.63511078357696L30.977695833333335,100.53489448428154L31.205258333333333,99.47001217603683L31.304579166666667,102.9561773121357L31.528291666666668,132.94240761101247L31.628804166666665,99.3218476653099L31.8525625,95.18608601689338L31.950691666666668,95.93804411888122L32.05271666666667,90.93307669758796L32.278079166666664,103.22621040344238L32.380608333333335,84.04792125821113L32.48226666666667,111.44689314365387L32.58255,100.34653438925743L32.8073625,93.20329375863075L33.031625,95.25411255955696L35.8051375,77.84449242353439L36.23785,85.85531939864158L36.66758333333333,80.35581441521644L36.86874583333333,83.13418384194374L37.30260416666666,81.00905596017837L51.003929166666666,49.812313485145566L51.20518333333333,66.9808814406395L51.421425,68.46229444742202L51.62116666666667,51.07350533008575L52.047324999999994,53.29510788917541L52.24706666666667,57.36111806631088L54.34930416666667,48.68312351703645L62.00530416666667,46.44325886964799L62.20023333333334,43.73388658761979L76.49500833333333,39.06448899507524L97.93804166666666,31.043750274181377L98.1322375,41.55481116771699L98.34430833333333,54.39228909015655L98.75987916666666,38.37729220390321L98.95210416666667,33.54913787841798L99.146575,35.684968757629406L99.56200833333332,32.949137020111095L99.97482916666667,39.353876101970684L100.1693,33.061674106121075L100.3630375,31.025150585174572L100.55517083333332,39.467805790901195L100.74867916666668,33.73247616291047L100.94227916666667,34.402096617221844L101.35335833333333,29.73861758708955L101.54617916666666,37.1430451154709L101.95909166666668,40.61389689445497L102.37127083333333,30.443876016139995L102.56377083333334,38.49733035564424L102.97558333333333,36.230236101150524L103.1685875,35.477291572093975L108.44725833333334,38.50167696475984L113.02742916666666,37.13053278923036L113.44570416666666,38.32591359615327L113.6408625,35.740451323986065L113.83634166666666,43.57739810943605L114.25443333333332,45.183797228336346L114.44895,52.975041317939755L114.64410833333334,34.04319541454316L115.06247499999999,39.52859501838685L115.25850416666667,34.34021018743516L115.67984999999999,30.84720336198808L115.87899583333333,36.228326547145855L116.30350416666667,41.35057328939439L116.5033375,36.11609541177751L116.702025,35.791692781448376L117.1253875,38.002165067195904L117.3247625,41.71983461380006L117.74913333333333,32.66425477266313L118.17231249999999,40.677080976963055L118.59705,40.7804922938347L118.79578333333333,35.78461371660234L118.99414999999999,35.10204838514329L119.41650416666667,36.48623238801957L119.61331249999999,33.96174924373628L120.03319166666665,37.03638439178468L120.453575,39.79398082494737L120.65038333333332,41.15921698808671L120.84439583333334,32.92608522176744L121.26400000000001,37.00824748277665L121.68319166666666,33.840234088897716L125.47104166666666,33.863169836998L125.88047083333333,30.81596474647523L126.07155,32.71766953468324L141.58122916666665,32.73295651674272L142.00569166666668,34.64845018386842L142.42309583333332,31.73530422449113L142.6242125,36.84162043333055L142.82455,32.498819875717174L143.02300833333334,32.10734020471574L143.45063333333334,33.8568609237671L143.8723,38.21454756259919L144.06910833333333,31.35887943506242L144.26724583333333,33.6136723637581L144.69189166666666,31.147499191761028L145.11548333333334,34.22096328735353L145.53586666666666,33.58973436355592L145.7325375,28.426363635063183L146.15227916666666,29.72326730489732L146.34711666666666,34.786950874328625L146.76493333333332,31.142783331871044L146.96022916666666,28.0544226050377L147.37855,29.927568483352673L147.57425833333335,33.44279365539552L147.76964583333333,33.086118507385265L148.18700416666667,28.885289597511303L148.38138333333333,33.21604202985765L148.800575,34.06867371797563L148.99591666666666,25.987799870967876L149.4131375,34.52950923442842L149.60825,31.002499687671673L150.02620416666664,34.25400595664979L150.44379166666667,58.48189966678619L150.64133333333334,39.66613565683366L150.83575833333333,40.18267529010774L151.0311,39.71916006803514L151.44997083333334,29.033580708503735L156.70824583333334,36.76541762351991L163.043925,29.12733875513078L163.4584416666667,25.51254247426988L163.64975,27.94395332336427L163.84408333333332,28.401476132869732L164.03924166666667,38.02644066810609L164.45504166666666,29.342506456375133L164.87019999999998,27.843274462223064L165.0710875,25.310678350925457L165.4899125,25.979106652736675L165.6868125,26.345614421367657L165.88504166666667,31.624687242507946L166.08382083333333,29.251333165168774L166.50709166666667,27.404024291038525L166.9294,33.55270378589631L167.35198333333332,29.96248905658723L167.54938750000002,28.64791409969331L167.74775416666665,35.146696078777325L167.94580000000002,27.229326474666607L168.14347916666668,21.08913974761964L168.5657875,29.107008862495434L168.76328333333333,32.14478223323823L168.960825,24.97916500568391L169.38230833333333,25.754792082309734L169.803425,32.60386644601823L170.00192916666666,33.73299311399461L170.4251541666667,27.61553113460542L170.62118333333333,21.8641127228737L170.81991666666664,23.226532030105602L171.01819166666667,28.471950280666363L171.21669583333335,25.9694217324257L171.63717083333333,25.17549036741258L172.0532,28.688362884521496L172.24927499999998,26.34300856590272L172.44484583333332,30.994333970546734L172.8615625,24.64701865911485L173.27534583333335,26.470220732688915L173.69091666666665,35.09362946748735L174.1069,29.22314350605012L174.30370833333333,24.123241710662853L174.5005625,37.25051819086076L174.922,28.607992815971386L175.34201666666667,36.7196938276291L175.7652875,21.113710749149334L176.1832875,28.152126359939587L178.16035416666665,34.46630405187608L178.57890416666666,30.15481595993043L178.7758041666667,29.622493493556988L179.19815833333334,26.232686984539043L179.62000833333335,31.974293875694286L179.8171375,25.775776076316845L180.23770416666667,25.10525887012483L180.434375,23.62721132040025L180.630175,20.58913199901582L181.050375,26.403291392326366L181.47089583333334,32.0819146513939L181.89215,25.50118010044099L182.08868333333334,26.6737834095955L182.28604166666668,29.689781534671795L182.48390416666666,29.901847529411327L182.9034625,29.37050621509553L183.10049999999998,28.347059118747723L183.51923333333332,34.92536716461183L183.71338333333333,25.374484884738933L183.90987083333334,26.676906216144573L184.3279625,27.534032213687908L184.5251375,42.2401617050171L184.94538333333333,29.44632922410966L185.3630625,36.66659556627275L185.56124583333332,36.45657627582551L185.7587875,27.318526911735546L185.9557333333333,26.343261766433727L186.37584166666667,29.874100971221935L186.57315416666668,31.933275389671337L186.99165833333333,30.981705594062817L187.18667916666666,27.278816628456127L187.38137916666668,27.1480807542801L187.795025,29.55413990020753L188.20802916666668,33.77214424610139L188.62190416666667,26.814162003994L188.81371666666666,31.25654422044755L189.00713333333331,34.775324749946606L189.20137499999998,25.898029732704174L189.6159375,25.599485206604015L189.80930833333335,25.90906505584718L190.00130416666667,24.251941430568706L190.41435416666667,27.484067308902752L190.60694583333333,34.24494348764421L190.79839166666667,31.101743745803844L193.839525,26.565825033187878L194.25899166666665,22.171086716651928L194.6802,26.950911390781414L194.87769583333335,25.6917557001114L195.2979875,28.42066662311555L195.4935583333333,29.438933658599865L195.69050416666667,21.65104447603227L196.10534166666665,26.02051548957826L196.299125,25.61548959016801L202.10717083333333,21.057985532283794L202.30815,22.57585941553117L211.78937083333335,28.9283758878708L212.21209166666665,54.73633586168289L212.63403333333335,31.12426804304124L212.83405000000002,24.7864161014557L213.26415,24.886873412132275L213.4660458333333,23.306184697151195L213.6673,23.90620665550233L214.0963,21.363250422477734L214.2987,24.478038954734814L231.6694875,23.740508008003246L231.86854166666666,22.601010668277752L232.29960416666665,27.306700336933147L232.50182083333334,27.230930078029644L232.7032125,26.43589096069337L232.90405416666667,25.502119052410137L233.10654583333334,25.32764278650285L233.3093125,40.453473258018505L233.51359166666668,23.75345288515092L233.94598333333334,27.31909661293031L234.14852083333335,25.31681846380235L234.35023333333334,27.081963765621197L234.5514875,22.22094612121583L234.9788375,27.54494093656541L235.40614166666666,23.14632021188737L235.6067541666667,25.285020697116863L235.8049375,21.677335131168377L236.00467916666668,21.107401835918438L251.34417916666666,21.927075254917156L251.53388333333334,29.583943712711346L251.7271625,18.16388236284257L251.91961666666668,23.764224457740795L252.08333333333331,22.008563625812542" style="fill: none;" fill="none"></path></g></g></g></g></g></g><g transform="translate(55, 177)" clip-path="url(#clip_1)"><clipPath id="clip_1"><rect width="275" height="23"></rect></clipPath><g><g><line x1="0" y1="0" x2="0" y2="5" style="visibility: inherit;" fill="rgb(0, 0, 0)" stroke="rgb(204, 204, 204)" stroke-width="1px"></line><line x1="22.916666666666664" y1="0" x2="22.916666666666664" y2="5" style="visibility: inherit;" fill="rgb(0, 0, 0)" stroke="rgb(204, 204, 204)" stroke-width="1px"></line><line x1="45.83333333333333" y1="0" x2="45.83333333333333" y2="5" style="visibility: inherit;" fill="rgb(0, 0, 0)" stroke="rgb(204, 204, 204)" stroke-width="1px"></line><line x1="68.75" y1="0" x2="68.75" y2="5" style="visibility: inherit;" fill="rgb(0, 0, 0)" stroke="rgb(204, 204, 204)" stroke-width="1px"></line><line x1="91.66666666666666" y1="0" x2="91.66666666666666" y2="5" style="visibility: inherit;" fill="rgb(0, 0, 0)" stroke="rgb(204, 204, 204)" stroke-width="1px"></line><line x1="114.58333333333334" y1="0" x2="114.58333333333334" y2="5" style="visibility: inherit;" fill="rgb(0, 0, 0)" stroke="rgb(204, 204, 204)" stroke-width="1px"></line><line x1="137.5" y1="0" x2="137.5" y2="5" style="visibility: inherit;" fill="rgb(0, 0, 0)" stroke="rgb(204, 204, 204)" stroke-width="1px"></line><line x1="160.41666666666669" y1="0" x2="160.41666666666669" y2="5" style="visibility: inherit;" fill="rgb(0, 0, 0)" stroke="rgb(204, 204, 204)" stroke-width="1px"></line><line x1="183.33333333333331" y1="0" x2="183.33333333333331" y2="5" style="visibility: inherit;" fill="rgb(0, 0, 0)" stroke="rgb(204, 204, 204)" stroke-width="1px"></line><line x1="206.25" y1="0" x2="206.25" y2="5" style="visibility: inherit;" fill="rgb(0, 0, 0)" stroke="rgb(204, 204, 204)" stroke-width="1px"></line><line x1="229.16666666666669" y1="0" x2="229.16666666666669" y2="5" style="visibility: inherit;" fill="rgb(0, 0, 0)" stroke="rgb(204, 204, 204)" stroke-width="1px"></line><line x1="252.08333333333331" y1="0" x2="252.08333333333331" y2="5" style="visibility: inherit;" fill="rgb(0, 0, 0)" stroke="rgb(204, 204, 204)" stroke-width="1px"></line><line x1="275" y1="0" x2="275" y2="5" style="visibility: inherit;" fill="rgb(0, 0, 0)" stroke="rgb(204, 204, 204)" stroke-width="1px"></line></g><g transform="translate(0, 8)"><text x="0" y="0" dx="0em" dy="0.95em" style="text-anchor: middle; visibility: hidden; font-family: &quot;Helvetica Neue&quot;, sans-serif; font-size: 12px; font-weight: 200;" fill="rgb(50, 49, 63)" stroke="none" stroke-width="1px">-500k</text><text x="22.916666666666664" y="0" dx="0em" dy="0.95em" style="text-anchor: middle; visibility: inherit; font-family: &quot;Helvetica Neue&quot;, sans-serif; font-size: 12px; font-weight: 200;" fill="rgb(50, 49, 63)" stroke="none" stroke-width="1px">0</text><text x="45.83333333333333" y="0" dx="0em" dy="0.95em" style="text-anchor: middle; visibility: hidden; font-family: &quot;Helvetica Neue&quot;, sans-serif; font-size: 12px; font-weight: 200;" fill="rgb(50, 49, 63)" stroke="none" stroke-width="1px">500k</text><text x="68.75" y="0" dx="0em" dy="0.95em" style="text-anchor: middle; visibility: inherit; font-family: &quot;Helvetica Neue&quot;, sans-serif; font-size: 12px; font-weight: 200;" fill="rgb(50, 49, 63)" stroke="none" stroke-width="1px">1M</text><text x="91.66666666666666" y="0" dx="0em" dy="0.95em" style="text-anchor: middle; visibility: hidden; font-family: &quot;Helvetica Neue&quot;, sans-serif; font-size: 12px; font-weight: 200;" fill="rgb(50, 49, 63)" stroke="none" stroke-width="1px">1.5M</text><text x="114.58333333333334" y="0" dx="0em" dy="0.95em" style="text-anchor: middle; visibility: inherit; font-family: &quot;Helvetica Neue&quot;, sans-serif; font-size: 12px; font-weight: 200;" fill="rgb(50, 49, 63)" stroke="none" stroke-width="1px">2M</text><text x="137.5" y="0" dx="0em" dy="0.95em" style="text-anchor: middle; visibility: hidden; font-family: &quot;Helvetica Neue&quot;, sans-serif; font-size: 12px; font-weight: 200;" fill="rgb(50, 49, 63)" stroke="none" stroke-width="1px">2.5M</text><text x="160.41666666666669" y="0" dx="0em" dy="0.95em" style="text-anchor: middle; visibility: inherit; font-family: &quot;Helvetica Neue&quot;, sans-serif; font-size: 12px; font-weight: 200;" fill="rgb(50, 49, 63)" stroke="none" stroke-width="1px">3M</text><text x="183.33333333333331" y="0" dx="0em" dy="0.95em" style="text-anchor: middle; visibility: hidden; font-family: &quot;Helvetica Neue&quot;, sans-serif; font-size: 12px; font-weight: 200;" fill="rgb(50, 49, 63)" stroke="none" stroke-width="1px">3.5M</text><text x="206.25" y="0" dx="0em" dy="0.95em" style="text-anchor: middle; visibility: inherit; font-family: &quot;Helvetica Neue&quot;, sans-serif; font-size: 12px; font-weight: 200;" fill="rgb(50, 49, 63)" stroke="none" stroke-width="1px">4M</text><text x="229.16666666666669" y="0" dx="0em" dy="0.95em" style="text-anchor: middle; visibility: hidden; font-family: &quot;Helvetica Neue&quot;, sans-serif; font-size: 12px; font-weight: 200;" fill="rgb(50, 49, 63)" stroke="none" stroke-width="1px">4.5M</text><text x="252.08333333333331" y="0" dx="0em" dy="0.95em" style="text-anchor: middle; visibility: inherit; font-family: &quot;Helvetica Neue&quot;, sans-serif; font-size: 12px; font-weight: 200;" fill="rgb(50, 49, 63)" stroke="none" stroke-width="1px">5M</text><text x="275" y="0" dx="0em" dy="0.95em" style="text-anchor: middle; visibility: hidden; font-family: &quot;Helvetica Neue&quot;, sans-serif; font-size: 12px; font-weight: 200;" fill="rgb(50, 49, 63)" stroke="none" stroke-width="1px">5.5M</text></g><line x1="0" y1="0" x2="275" y2="0" fill="rgb(0, 0, 0)" stroke="rgb(204, 204, 204)" stroke-width="1px"></line></g></g></g></g></svg>