<svg viewBox="0 0 330 200" xmlns="http://www.w3.org/2000/svg"><g><g><g><g><g><line x1="46" y1="177" x2="41" y2="177" style="visibility: inherit;" fill="rgb(0, 0, 0)" stroke="rgb(204, 204, 204)" stroke-width="1px"></line><line x1="46" y1="154.875" x2="41" y2="154.875" style="visibility: inherit;" fill="rgb(0, 0, 0)" stroke="rgb(204, 204, 204)" stroke-width="1px"></line><line x1="46" y1="132.75" x2="41" y2="132.75" style="visibility: inherit;" fill="rgb(0, 0, 0)" stroke="rgb(204, 204, 204)" stroke-width="1px"></line><line x1="46" y1="110.62499999999999" x2="41" y2="110.62499999999999" style="visibility: inherit;" fill="rgb(0, 0, 0)" stroke="rgb(204, 204, 204)" stroke-width="1px"></line><line x1="46" y1="88.49999999999999" x2="41" y2="88.49999999999999" style="visibility: inherit;" fill="rgb(0, 0, 0)" stroke="rgb(204, 204, 204)" stroke-width="1px"></line><line x1="46" y1="66.375" x2="41" y2="66.375" style="visibility: inherit;" fill="rgb(0, 0, 0)" stroke="rgb(204, 204, 204)" stroke-width="1px"></line><line x1="46" y1="44.25" x2="41" y2="44.25" style="visibility: inherit;" fill="rgb(0, 0, 0)" stroke="rgb(204, 204, 204)" stroke-width="1px"></line><line x1="46" y1="22.125" x2="41" y2="22.125" style="visibility: inherit;" fill="rgb(0, 0, 0)" stroke="rgb(204, 204, 204)" stroke-width="1px"></line><line x1="46" y1="0" x2="41" y2="0" style="visibility: inherit;" fill="rgb(0, 0, 0)" stroke="rgb(204, 204, 204)" stroke-width="1px"></line></g><g transform="translate(36, 0)"><text x="0" y="177" dx="0em" dy="0.3em" style="text-anchor: end; visibility: hidden; font-family: &quot;Helvetica Neue&quot;, sans-serif; font-size: 12px; font-weight: 200;" fill="rgb(50, 49, 63)" stroke="none" stroke-width="1px">-0.1</text><text x="0" y="154.875" dx="0em" dy="0.3em" style="text-anchor: end; visibility: inherit; font-family: &quot;Helvetica Neue&quot;, sans-serif; font-size: 12px; font-weight: 200;" fill="rgb(50, 49, 63)" stroke="none" stroke-width="1px">0</text><text x="0" y="132.75" dx="0em" dy="0.3em" style="text-anchor: end; visibility: hidden; font-family: &quot;Helvetica Neue&quot;, sans-serif; font-size: 12px; font-weight: 200;" fill="rgb(50, 49, 63)" stroke="none" stroke-width="1px">0.1</text><text x="0" y="110.62499999999999" dx="0em" dy="0.3em" style="text-anchor: end; visibility: inherit; font-family: &quot;Helvetica Neue&quot;, sans-serif; font-size: 12px; font-weight: 200;" fill="rgb(50, 49, 63)" stroke="none" stroke-width="1px">0.2</text><text x="0" y="88.49999999999999" dx="0em" dy="0.3em" style="text-anchor: end; visibility: hidden; font-family: &quot;Helvetica Neue&quot;, sans-serif; font-size: 12px; font-weight: 200;" fill="rgb(50, 49, 63)" stroke="none" stroke-width="1px">0.3</text><text x="0" y="66.375" dx="0em" dy="0.3em" style="text-anchor: end; visibility: inherit; font-family: &quot;Helvetica Neue&quot;, sans-serif; font-size: 12px; font-weight: 200;" fill="rgb(50, 49, 63)" stroke="none" stroke-width="1px">0.4</text><text x="0" y="44.25" dx="0em" dy="0.3em" style="text-anchor: end; visibility: hidden; font-family: &quot;Helvetica Neue&quot;, sans-serif; font-size: 12px; font-weight: 200;" fill="rgb(50, 49, 63)" stroke="none" stroke-width="1px">0.5</text><text x="0" y="22.125" dx="0em" dy="0.3em" style="text-anchor: end; visibility: inherit; font-family: &quot;Helvetica Neue&quot;, sans-serif; font-size: 12px; font-weight: 200;" fill="rgb(50, 49, 63)" stroke="none" stroke-width="1px">0.6</text><text x="0" y="0" dx="0em" dy="0.3em" style="text-anchor: end; visibility: hidden; font-family: &quot;Helvetica Neue&quot;, sans-serif; font-size: 12px; font-weight: 200;" fill="rgb(50, 49, 63)" stroke="none" stroke-width="1px">0.7</text></g><line x1="46" y1="0" x2="46" y2="177" fill="rgb(0, 0, 0)" stroke="rgb(204, 204, 204)" stroke-width="1px"></line></g></g><g transform="translate(46, 0)" clip-path="url(#clip_0)"><clipPath id="clip_0"><rect width="284" height="177"></rect></clipPath><g><g><g><line x1="0" y1="0" x2="0" y2="177" fill="rgb(0, 0, 0)" stroke="rgb(60, 60, 60)" stroke-width="1px" opacity="0.25"></line><line x1="23.666666666666664" y1="0" x2="23.666666666666664" y2="177" fill="rgb(0, 0, 0)" stroke="rgb(60, 60, 60)" stroke-width="1px" opacity="0.25"></line><line x1="47.33333333333333" y1="0" x2="47.33333333333333" y2="177" fill="rgb(0, 0, 0)" stroke="rgb(60, 60, 60)" stroke-width="1px" opacity="0.25"></line><line x1="71" y1="0" x2="71" y2="177" fill="rgb(0, 0, 0)" stroke="rgb(60, 60, 60)" stroke-width="1px" opacity="0.25"></line><line x1="94.66666666666666" y1="0" x2="94.66666666666666" y2="177" fill="rgb(0, 0, 0)" stroke="rgb(60, 60, 60)" stroke-width="1px" opacity="0.25"></line><line x1="118.33333333333334" y1="0" x2="118.33333333333334" y2="177" fill="rgb(0, 0, 0)" stroke="rgb(60, 60, 60)" stroke-width="1px" opacity="0.25"></line><line x1="142" y1="0" x2="142" y2="177" fill="rgb(0, 0, 0)" stroke="rgb(60, 60, 60)" stroke-width="1px" opacity="0.25"></line><line x1="165.66666666666669" y1="0" x2="165.66666666666669" y2="177" fill="rgb(0, 0, 0)" stroke="rgb(60, 60, 60)" stroke-width="1px" opacity="0.25"></line><line x1="189.33333333333331" y1="0" x2="189.33333333333331" y2="177" fill="rgb(0, 0, 0)" stroke="rgb(60, 60, 60)" stroke-width="1px" opacity="0.25"></line><line x1="213" y1="0" x2="213" y2="177" fill="rgb(0, 0, 0)" stroke="rgb(60, 60, 60)" stroke-width="1px" opacity="0.25"></line><line x1="236.66666666666669" y1="0" x2="236.66666666666669" y2="177" fill="rgb(0, 0, 0)" stroke="rgb(60, 60, 60)" stroke-width="1px" opacity="0.25"></line><line x1="260.3333333333333" y1="0" x2="260.3333333333333" y2="177" fill="rgb(0, 0, 0)" stroke="rgb(60, 60, 60)" stroke-width="1px" opacity="0.25"></line><line x1="284" y1="0" x2="284" y2="177" fill="rgb(0, 0, 0)" stroke="rgb(60, 60, 60)" stroke-width="1px" opacity="0.25"></line></g><g><line x1="0" y1="177" x2="284" y2="177" fill="rgb(0, 0, 0)" stroke="rgb(60, 60, 60)" stroke-width="1px" opacity="0.25"></line><line x1="0" y1="154.875" x2="284" y2="154.875" fill="rgb(0, 0, 0)" stroke="rgb(60, 60, 60)" stroke-width="1px" opacity="0.25"></line><line x1="0" y1="132.75" x2="284" y2="132.75" fill="rgb(0, 0, 0)" stroke="rgb(60, 60, 60)" stroke-width="1px" opacity="0.25"></line><line x1="0" y1="110.62499999999999" x2="284" y2="110.62499999999999" fill="rgb(0, 0, 0)" stroke="rgb(60, 60, 60)" stroke-width="1px" opacity="0.25"></line><line x1="0" y1="88.49999999999999" x2="284" y2="88.49999999999999" fill="rgb(0, 0, 0)" stroke="rgb(60, 60, 60)" stroke-width="1px" opacity="0.25"></line><line x1="0" y1="66.375" x2="284" y2="66.375" fill="rgb(0, 0, 0)" stroke="rgb(60, 60, 60)" stroke-width="1px" opacity="0.25"></line><line x1="0" y1="44.25" x2="284" y2="44.25" fill="rgb(0, 0, 0)" stroke="rgb(60, 60, 60)" stroke-width="1px" opacity="0.25"></line><line x1="0" y1="22.125" x2="284" y2="22.125" fill="rgb(0, 0, 0)" stroke="rgb(60, 60, 60)" stroke-width="1px" opacity="0.25"></line><line x1="0" y1="0" x2="284" y2="0" fill="rgb(0, 0, 0)" stroke="rgb(60, 60, 60)" stroke-width="1px" opacity="0.25"></line></g></g></g><g><g><line x1="0" y1="154.875" x2="284" y2="154.875" fill="rgb(0, 0, 0)" stroke="rgb(153, 153, 153)" stroke-width="1.5px"></line></g></g><g><g><line x1="23.666666666666664" y1="0" x2="23.666666666666664" y2="177" fill="rgb(0, 0, 0)" stroke="rgb(153, 153, 153)" stroke-width="1.5px"></line></g></g><g><g><g><g><g><path stroke="rgb(255, 112, 67)" stroke-width="2px" d="M23.881134,148.14920264482498L24.081685333333336,151.3852059874823L24.269409333333332,148.07096513031073L24.689682,140.1429776331233L25.10451133333333,131.26541453250076L25.521991333333332,117.0768611455403L29.529326,102.58559753385124L29.530935333333332,102.77771120985997L29.739202000000002,93.89270622612818L30.166953333333336,87.41652335078031L30.367220666666665,90.06042545276232L30.569286666666667,86.41413103257177L31.000872,100.97395361846371L31.431037333333332,86.24080330277498L31.545063333333335,87.82667530502799L31.777517333333332,93.66250010095924L31.885058666666666,84.75387730450667L31.991511333333335,85.13591306680557L32.22652133333333,87.22669110079919L32.32909266666667,85.54201065230875L32.56012666666667,113.13535591850615L32.66392866666666,88.6580492717766L32.89501,80.13477340537541L32.996350666666665,82.51720015079805L33.101714666666666,78.2891940548382L33.334452666666664,82.30766355352985L33.44033733333333,76.41491779725062L33.54532266666667,106.13138385991125L33.648888,97.96214250481592L33.881058,87.23812715954205L34.11266,85.82846213638457L36.976942,73.91118054659097L37.423816,80.06097278345435L37.86761333333333,69.42336255363111L38.07535933333333,77.7011262563958L38.52341666666666,75.67309633267493L52.67314866666667,47.224844224331434L52.88098933333333,51.00581987800145L53.104307999999996,63.29180277214236L53.31058666666667,49.540959766281404L53.750691999999994,47.81246527345394L53.95697066666667,53.82068163967028L56.128008666666666,40.66757524258219L64.03456866666667,44.357662668820694L64.23587733333333,40.3641308936831L78.99848133333333,33.018879280503796L101.14328666666667,32.99743458447611L101.343838,39.32160466486715L101.56284933333333,36.73497228772595L101.99202066666666,33.59123903782475L102.19053666666667,32.69098009075765L102.391372,31.93641336312868L102.82040133333334,31.94057075541113L103.24673266666666,35.2488115641936L103.447568,32.58155085957969L103.64764600000001,31.38800894886677L103.84606733333332,41.659461506767656L104.04590866666668,34.44445355175148L104.24584466666667,33.005871047199435L104.67037733333333,26.940492189728786L104.86950866666666,36.44643678467784L105.29593466666667,39.06082900281075L105.72160333333332,33.57140562311682L105.92040333333334,35.08957051420293L106.34569333333333,36.12704441386134L106.545014,31.899116411149663L111.99644133333334,41.32810003882315L116.72650866666666,34.02965193862977L117.15847266666667,36.43243615245842L117.360018,37.21619066790677L117.56189466666666,45.34985149455872L117.99366933333333,45.05316185741694L118.194552,58.6355801186934L118.39609733333333,34.93415318870041L118.82815599999999,37.36010535234783L119.03060066666667,30.374584900784072L119.46573599999999,29.784683661694288L119.67139933333333,29.368690693095658L120.10980066666667,37.45638617467549L120.31617399999999,34.60900706466833L120.521364,29.38904837969949L120.958582,33.98698317654515L121.164482,37.91445341493852L121.60274133333333,29.56088093820685L122.03976999999999,30.503843908813934L122.47840799999999,32.621468700676644L122.68364533333335,33.949318134089424L122.888504,33.109061887698175L123.32468066666667,32.662466078122776L123.52793,30.71934948126031L123.96155066666665,37.62111062336879L124.395692,34.51130385067836L124.59894133333333,30.650133869044083L124.79930333333334,30.081778823231872L125.23264,34.74835522688821L125.66555066666666,34.71079476985207L129.57736666666668,32.27244399338994L130.00019533333332,31.926860295510295L130.197528,29.107230457332236L146.21479666666667,31.28633593000569L146.65315066666668,35.542208266475285L147.08421533333333,31.676571495029293L147.291914,39.469521430415426L147.498808,31.773640387156718L147.70376133333335,31.34214887849322L148.14538133333335,36.018704977590374L148.580848,36.86421197075447L148.78409733333334,32.90101520685556L148.98871933333334,35.80309254059142L149.42726266666668,34.087840751174895L149.86471733333335,32.467617984329564L150.29885866666666,37.38838115961215L150.501966,30.610544014936295L150.93544466666665,27.862923087379045L151.13665866666668,26.312544735593832L151.56814933333334,27.36358606217607L151.76983666666666,28.849874528430263L152.201848,29.450952779024334L152.40396133333334,28.272203404023116L152.60574333333332,35.0259014725269L153.03676066666668,29.535183736892492L153.23750133333334,34.380367017909236L153.670412,32.32417360421411L153.87214666666665,28.333504760838878L154.303022,32.22531635912199L154.50452,33.746400897004065L154.93615266666666,37.116827958278435L155.36740666666668,35.14931028136755L155.57141333333334,35.069796654748075L155.77220133333333,39.82526560265228L155.973936,35.25327945448245L156.40651533333332,23.416675591299338L161.83687933333334,39.41985466445249L168.37990800000003,29.73080422793842L168.80799066666668,25.521890286388413L169.00556,28.579082430842618L169.20625333333334,26.174386044639874L169.40779866666668,29.562063753752568L169.83720666666667,30.366728784813745L170.265952,27.487080781667117L170.47341400000002,27.386095578337518L170.905946,26.089937314378233L171.10929000000002,28.524819108365733L171.31400666666667,32.97090748310268L171.5192913333333,32.11019534538761L171.95641466666666,27.42371245507769L172.392544,30.325797203811987L172.82895733333334,33.1569985084422L173.032822,31.72671002311884L173.23768066666665,35.91082400480593L173.44220800000002,25.38992621149987L173.6463566666667,23.51382123198161L174.082486,30.973219119325677L174.28644533333332,32.08806056323672L174.490452,25.606428040783896L174.92572933333332,24.311149703142263L175.360628,31.14741186384458L175.56562866666667,35.975606862506L176.0027046666667,33.23765957236773L176.20514933333334,26.492427805309745L176.41038666666665,25.603820398616335L176.61515066666666,27.839646926895853L176.82015133333334,28.26871874381311L177.25438733333334,28.153356171917125L177.684032,31.52459683082307L177.88652399999998,29.237708075343875L178.08849533333333,31.624438629126473L178.51885,25.874896130974406L178.94617533333334,29.599512950374134L179.37534666666664,37.42235896404202L179.804944,34.17648210171757L180.00819333333334,26.719819206994885L180.21149000000003,40.131797359609806L180.64672,33.13807184147586L181.08048266666665,34.29380287804386L181.51760599999997,25.535770297244227L181.949286,33.99556497790286L183.99105666666665,40.76729945855891L184.42330466666667,33.767379139797725L184.62664866666668,28.331247360461873L185.06282533333334,32.33642284915004L185.49848133333333,29.437815161318923L185.70206199999998,31.2697541207572L186.13639266666667,27.68318697038174L186.3395,28.131848680947144L186.541708,24.546270268247014L186.97566,27.72509188755373L187.40994333333333,29.499848992995283L187.84498399999998,28.690824710142294L188.04794933333335,27.640206959038892L188.25176666666667,31.991703440302842L188.45610466666665,33.636684650736214L188.88939399999998,32.22490757151192L189.09287999999998,27.197462638205252L189.52531733333333,30.671522464989266L189.72582133333333,26.442688433326595L189.92873933333334,28.445643315720304L190.36051400000002,26.746600885988016L190.564142,29.76619426391605L190.99814133333334,29.590360854012545L191.42949000000002,27.731962879676132L191.63415933333332,34.81734185756952L191.838166,29.36777620026274L192.04155733333332,27.20725604582671L192.47541466666667,30.39072123175987L192.67918466666669,36.12899667585478L193.11138533333335,34.28421682638128L193.31278866666668,27.046487484953104L193.5138606666667,23.263442102630734L193.941044,30.91728072200391L194.36756466666668,34.87597531410137L194.79498466666666,29.174708954889354L194.99307466666667,32.75837462030876L195.1928213333333,36.46865177429487L195.39342,30.62638451483417L195.82155,29.0229060458675L196.02124933333334,27.62467486233743L196.21952866666666,28.744302982279038L196.64609666666666,30.108542525929295L196.84499133333333,42.74279302219506L197.04270266666668,33.22707154606334L200.183364,31.222408944015086L200.61655866666666,26.0716083416838L201.051552,26.17740411073683L201.25551133333335,29.499980069289876L201.689558,30.605565345486667L201.89152933333332,31.943481181259187L202.09492066666667,27.321312603635334L202.52333466666664,28.85411365781141L202.72346,27.172238350228213L208.72158733333333,23.677782203823625L208.929144,25.072592630965232L218.72065933333334,33.36317799496484L219.15721466666665,26.560782936461266L219.59296533333335,24.669333072161436L219.799528,28.889574326077053L220.243704,24.527406932067777L220.45220733333332,24.29455504464167L220.660048,24.08860977842528L221.103088,22.06462801418698L221.31211199999998,24.17762963514042L239.251398,26.251477689066405L239.45696666666666,24.117953834344746L239.90213666666665,29.139901672235453L240.11097133333334,29.695874433582418L240.31895400000002,31.93014775940088L240.52636866666666,29.76270538184957L240.73548733333334,31.799895167817027L240.94489000000002,44.006562766894746L241.15585466666667,29.243061327454086L241.60239733333333,29.3314418754355L241.81156333333334,29.776504575122573L242.01987733333334,33.10302657748784L242.227718,27.260780178776287L242.669054,32.8028631324311L243.11034266666667,28.3558543360447L243.31752066666667,28.558779500472212L243.52219,24.2199772846744L243.72846866666669,24.753502442379414L259.56998866666663,24.33905416943449L259.7659013333333,35.78893489357739L259.965506,21.198597798911948L260.1642586666667,24.39355411066225L260.3333333333333,23.642842570479957" style="fill: none;" fill="none"></path></g></g></g></g><g opacity="0.2"><g><g><g><path stroke="rgb(255, 112, 67)" stroke-width="2px" d="M23.881134,148.14920264482498L24.081685333333336,151.6958623083774L24.269409333333332,147.72225396428257L24.689682,139.30181232467294L25.10451133333333,130.3227445408702L25.521991333333332,115.57012439891696L29.529326,101.04670348763466L29.530935333333332,102.79811266064644L29.739202000000002,92.94916588068008L30.166953333333336,86.72878711670637L30.367220666666665,90.3411938175559L30.569286666666667,86.02691392600536L31.000872,102.520129468292L31.431037333333332,84.67622096836567L31.545063333333335,87.99508649110794L31.777517333333332,94.28223370760679L31.885058666666666,83.80782886594534L31.991511333333335,85.17648323625326L32.22652133333333,87.44872062653303L32.32909266666667,85.363106533885L32.56012666666667,116.06562267243862L32.66392866666666,86.05868927389383L32.89501,79.22964676469564L32.996350666666665,82.77020122110844L33.101714666666666,77.84020225703716L33.334452666666664,82.73440367728472L33.44033733333333,75.78913948684931L33.54532266666667,109.28711476922035L33.648888,97.09461244940758L33.881058,86.09929367154837L34.11266,85.6787631958723L36.976942,72.64562851935625L37.423816,80.71404806524515L37.86761333333333,68.29370483011007L38.07535933333333,78.58018080890179L38.52341666666666,75.45773032307625L52.67314866666667,44.20379090309143L52.88098933333333,51.4073394164443L53.104307999999996,64.59650892019272L53.31058666666667,48.08069325238466L53.750691999999994,47.62890833616257L53.95697066666667,54.458722315728664L56.128008666666666,39.27078518271446L64.03456866666667,44.74953036010265L64.23587733333333,39.94003902375698L78.99848133333333,32.23885256052017L101.14328666666667,32.99515727162361L101.343838,39.993197947740555L101.56284933333333,36.460285663604736L101.99202066666666,33.25739125907421L102.19053666666667,32.59537737071514L102.391372,31.856282383203506L102.82040133333334,31.941012248396873L103.24673266666666,35.600129172205925L103.447568,32.29830193519592L103.64764600000001,31.261261135339737L103.84606733333332,42.750235229730606L104.04590866666668,33.67825801670551L104.24584466666667,32.8531012237072L104.67037733333333,26.296381160616875L104.86950866666666,37.45591762661934L105.29593466666667,39.3384635746479L105.72160333333332,32.98845800757408L105.92040333333334,35.25079156458378L106.34569333333333,36.237218633294106L106.545014,31.45013290643692L111.99644133333334,42.329408034682274L116.72650866666666,33.25459550321102L117.15847266666667,36.68759907782078L117.360018,37.299421235919L117.56189466666666,46.21360308676958L117.99366933333333,45.02165499329567L118.194552,60.077960819005966L118.39609733333333,32.41718749701977L118.82815599999999,37.61772859096527L119.03060066666667,29.63275972008705L119.46573599999999,29.72203928232193L119.67139933333333,29.32451444864273L120.10980066666667,38.315256491303444L120.31617399999999,34.30663052201271L120.521364,28.834716483950615L120.958582,34.47525943815708L121.164482,38.33152990043163L121.60274133333333,28.673775896430016L122.03976999999999,30.60398156940937L122.47840799999999,32.84634920954704L122.68364533333335,34.09032869338989L122.888504,33.019831135869026L123.32468066666667,32.615039974451065L123.52793,30.513000816106796L123.96155066666665,38.35404101014137L124.395692,34.18105888366699L124.59894133333333,30.240098118782043L124.79930333333334,30.021422535181046L125.23264,35.24392086267471L125.66555066666666,34.70680604875088L129.57736666666668,32.01350408792496L130.00019533333332,31.890161141753197L130.197528,28.807800740003586L146.21479666666667,31.51774536073208L146.65315066666668,35.99415931105614L147.08421533333333,31.266061395406723L147.291914,40.29709133505821L147.498808,30.956378683447838L147.70376133333335,31.296326771378517L148.14538133333335,36.5153304040432L148.580848,36.95400032401085L148.78409733333334,32.48014475405216L148.98871933333334,36.111277744174004L149.42726266666668,33.905690118670464L149.86471733333335,32.29555892944336L150.29885866666666,37.91094008088112L150.501966,29.890773698687553L150.93544466666665,27.571140334010124L151.13665866666668,26.14790278673172L151.56814933333334,27.475201070308685L151.76983666666666,29.007710471749306L152.201848,29.51478409767151L152.40396133333334,28.147026479244232L152.60574333333332,35.743108347058296L153.03676066666668,28.952098667621613L153.23750133333334,34.894899755716324L153.670412,32.10581678152084L153.87214666666665,27.909716919064522L154.303022,32.63860608637333L154.50452,33.90793199837208L154.93615266666666,37.4747494161129L155.36740666666668,34.940370351076126L155.57141333333334,35.06135272979736L155.77220133333333,40.330271154642105L155.973936,34.767758801579475L156.40651533333332,22.159691110253334L161.83687933333334,41.119307309389114L168.37990800000003,28.701878517866135L168.80799066666668,25.07492597401142L169.00556,28.903740003705025L169.20625333333334,25.91902005672455L169.40779866666668,29.921817138791084L169.83720666666667,30.452179938554764L170.265952,27.181277453899384L170.47341400000002,27.375371485948563L170.905946,25.952292189002037L171.10929000000002,28.783390626311302L171.31400666666667,33.44305846095085L171.5192913333333,32.018792286515236L171.95641466666666,26.926032856106758L172.392544,30.633983194828033L172.82895733333334,33.45765705406666L173.032822,31.57482098042965L173.23768066666665,36.35515469312668L173.44220800000002,24.272662729024887L173.6463566666667,23.314588844776154L174.082486,31.765367567539215L174.28644533333332,32.206450805068016L174.490452,24.918113082647324L174.92572933333332,24.173598021268845L175.360628,31.87338660657406L175.56562866666667,36.48833553493023L176.0027046666667,32.946904107928276L176.20514933333334,25.776120007038116L176.41038666666665,25.509455010294914L176.61515066666666,28.077079832553864L176.82015133333334,28.31428389251232L177.25438733333334,28.14110527932644L177.684032,31.88260468840599L177.88652399999998,28.994852632284164L178.08849533333333,31.8778967410326L178.51885,25.264325246214867L178.94617533333334,29.995047479867935L179.37534666666664,38.2531036734581L179.804944,33.83178721368313L180.00819333333334,25.927961200475693L180.21149000000003,41.55607822537422L180.64672,32.395375326275826L181.08048266666665,34.41653537750244L181.51760599999997,24.605713739991188L181.949286,34.89395025372505L183.99105666666665,41.4864217042923L184.42330466666667,33.02402476966381L184.62664866666668,27.75395902991295L185.06282533333334,32.76175121963024L185.49848133333333,29.129998415708542L185.70206199999998,31.46429631114006L186.13639266666667,27.302312582731247L186.3395,28.17949417233467L186.541708,24.16550087928772L186.97566,28.06266586482525L187.40994333333333,29.68831877410412L187.84498399999998,28.604910627007484L188.04794933333335,27.528636932373047L188.25176666666667,32.45380926132202L188.45610466666665,33.81137292087078L188.88939399999998,32.07498434185982L189.09287999999998,26.663574680685997L189.52531733333333,31.040449172258377L189.72582133333333,25.993608713150024L189.92873933333334,28.658346489071846L190.36051400000002,26.56617160141468L190.564142,30.086859047412872L190.99814133333334,29.571688279509544L191.42949000000002,27.534610882401466L191.63415933333332,35.569771483540535L191.838166,28.78906126320362L192.04155733333332,26.97782027721405L192.47541466666667,30.72878833115101L192.67918466666669,36.738371059298515L193.11138533333335,34.08831100165844L193.31278866666668,26.277879059314728L193.5138606666667,22.861702769994736L193.941044,31.730077743530273L194.36756466666668,35.29636766016483L194.79498466666666,28.569264739751816L194.99307466666667,33.13894088566303L195.1928213333333,36.86266350746155L195.39342,30.005966752767563L195.82155,28.852625146508217L196.02124933333334,27.476190134882927L196.21952866666666,28.863201543688774L196.64609666666666,30.253417521715164L196.84499133333333,44.084483340382576L197.04270266666668,32.21655245125294L200.183364,31.009524419903755L200.61655866666666,25.524620667099953L201.051552,26.18863905966282L201.25551133333335,29.852819994091988L201.689558,30.722972631454468L201.89152933333332,32.085560739040375L202.09492066666667,26.830462843179703L202.52333466666664,29.016888990998268L202.72346,26.99363212287426L208.72158733333333,23.306689515709877L208.929144,25.22071409225464L218.72065933333334,34.24359413981438L219.15721466666665,25.838404700160027L219.59296533333335,24.46847113966942L219.799528,29.337741538882256L220.243704,24.06416791677475L220.45220733333332,24.269827410578728L220.660048,24.066739484667778L221.103088,21.84969189763069L221.31211199999998,24.402019187808037L239.251398,26.471709340810776L239.45696666666666,23.891384929418564L239.90213666666665,29.673205867409706L240.11097133333334,29.754915788769722L240.31895400000002,32.16741572320461L240.52636866666666,29.532534509897232L240.73548733333334,32.016233906149864L240.94489000000002,45.30284605175257L241.15585466666667,27.675255864858627L241.60239733333333,29.34082742035389L241.81156333333334,29.823767870664597L242.01987733333334,33.456285551190376L242.227718,26.64036463201046L242.669054,33.391402915120125L243.11034266666667,27.883605614304543L243.31752066666667,28.580329075455666L243.52219,23.759219527244568L243.72846866666669,24.810159981250763L259.56998866666663,24.29504196345806L259.7659013333333,37.004851430654526L259.965506,19.649181470274925L260.1642586666667,24.73284150660038L260.3333333333333,23.563120990991592" style="fill: none;" fill="none"></path></g></g></g></g></g></g><g transform="translate(46, 177)" clip-path="url(#clip_1)"><clipPath id="clip_1"><rect width="284" height="23"></rect></clipPath><g><g><line x1="0" y1="0" x2="0" y2="5" style="visibility: inherit;" fill="rgb(0, 0, 0)" stroke="rgb(204, 204, 204)" stroke-width="1px"></line><line x1="23.666666666666664" y1="0" x2="23.666666666666664" y2="5" style="visibility: inherit;" fill="rgb(0, 0, 0)" stroke="rgb(204, 204, 204)" stroke-width="1px"></line><line x1="47.33333333333333" y1="0" x2="47.33333333333333" y2="5" style="visibility: inherit;" fill="rgb(0, 0, 0)" stroke="rgb(204, 204, 204)" stroke-width="1px"></line><line x1="71" y1="0" x2="71" y2="5" style="visibility: inherit;" fill="rgb(0, 0, 0)" stroke="rgb(204, 204, 204)" stroke-width="1px"></line><line x1="94.66666666666666" y1="0" x2="94.66666666666666" y2="5" style="visibility: inherit;" fill="rgb(0, 0, 0)" stroke="rgb(204, 204, 204)" stroke-width="1px"></line><line x1="118.33333333333334" y1="0" x2="118.33333333333334" y2="5" style="visibility: inherit;" fill="rgb(0, 0, 0)" stroke="rgb(204, 204, 204)" stroke-width="1px"></line><line x1="142" y1="0" x2="142" y2="5" style="visibility: inherit;" fill="rgb(0, 0, 0)" stroke="rgb(204, 204, 204)" stroke-width="1px"></line><line x1="165.66666666666669" y1="0" x2="165.66666666666669" y2="5" style="visibility: inherit;" fill="rgb(0, 0, 0)" stroke="rgb(204, 204, 204)" stroke-width="1px"></line><line x1="189.33333333333331" y1="0" x2="189.33333333333331" y2="5" style="visibility: inherit;" fill="rgb(0, 0, 0)" stroke="rgb(204, 204, 204)" stroke-width="1px"></line><line x1="213" y1="0" x2="213" y2="5" style="visibility: inherit;" fill="rgb(0, 0, 0)" stroke="rgb(204, 204, 204)" stroke-width="1px"></line><line x1="236.66666666666669" y1="0" x2="236.66666666666669" y2="5" style="visibility: inherit;" fill="rgb(0, 0, 0)" stroke="rgb(204, 204, 204)" stroke-width="1px"></line><line x1="260.3333333333333" y1="0" x2="260.3333333333333" y2="5" style="visibility: inherit;" fill="rgb(0, 0, 0)" stroke="rgb(204, 204, 204)" stroke-width="1px"></line><line x1="284" y1="0" x2="284" y2="5" style="visibility: inherit;" fill="rgb(0, 0, 0)" stroke="rgb(204, 204, 204)" stroke-width="1px"></line></g><g transform="translate(0, 8)"><text x="0" y="0" dx="0em" dy="0.95em" style="text-anchor: middle; visibility: hidden; font-family: &quot;Helvetica Neue&quot;, sans-serif; font-size: 12px; font-weight: 200;" fill="rgb(50, 49, 63)" stroke="none" stroke-width="1px">-500k</text><text x="23.666666666666664" y="0" dx="0em" dy="0.95em" style="text-anchor: middle; visibility: inherit; font-family: &quot;Helvetica Neue&quot;, sans-serif; font-size: 12px; font-weight: 200;" fill="rgb(50, 49, 63)" stroke="none" stroke-width="1px">0</text><text x="47.33333333333333" y="0" dx="0em" dy="0.95em" style="text-anchor: middle; visibility: hidden; font-family: &quot;Helvetica Neue&quot;, sans-serif; font-size: 12px; font-weight: 200;" fill="rgb(50, 49, 63)" stroke="none" stroke-width="1px">500k</text><text x="71" y="0" dx="0em" dy="0.95em" style="text-anchor: middle; visibility: inherit; font-family: &quot;Helvetica Neue&quot;, sans-serif; font-size: 12px; font-weight: 200;" fill="rgb(50, 49, 63)" stroke="none" stroke-width="1px">1M</text><text x="94.66666666666666" y="0" dx="0em" dy="0.95em" style="text-anchor: middle; visibility: hidden; font-family: &quot;Helvetica Neue&quot;, sans-serif; font-size: 12px; font-weight: 200;" fill="rgb(50, 49, 63)" stroke="none" stroke-width="1px">1.5M</text><text x="118.33333333333334" y="0" dx="0em" dy="0.95em" style="text-anchor: middle; visibility: inherit; font-family: &quot;Helvetica Neue&quot;, sans-serif; font-size: 12px; font-weight: 200;" fill="rgb(50, 49, 63)" stroke="none" stroke-width="1px">2M</text><text x="142" y="0" dx="0em" dy="0.95em" style="text-anchor: middle; visibility: hidden; font-family: &quot;Helvetica Neue&quot;, sans-serif; font-size: 12px; font-weight: 200;" fill="rgb(50, 49, 63)" stroke="none" stroke-width="1px">2.5M</text><text x="165.66666666666669" y="0" dx="0em" dy="0.95em" style="text-anchor: middle; visibility: inherit; font-family: &quot;Helvetica Neue&quot;, sans-serif; font-size: 12px; font-weight: 200;" fill="rgb(50, 49, 63)" stroke="none" stroke-width="1px">3M</text><text x="189.33333333333331" y="0" dx="0em" dy="0.95em" style="text-anchor: middle; visibility: hidden; font-family: &quot;Helvetica Neue&quot;, sans-serif; font-size: 12px; font-weight: 200;" fill="rgb(50, 49, 63)" stroke="none" stroke-width="1px">3.5M</text><text x="213" y="0" dx="0em" dy="0.95em" style="text-anchor: middle; visibility: inherit; font-family: &quot;Helvetica Neue&quot;, sans-serif; font-size: 12px; font-weight: 200;" fill="rgb(50, 49, 63)" stroke="none" stroke-width="1px">4M</text><text x="236.66666666666669" y="0" dx="0em" dy="0.95em" style="text-anchor: middle; visibility: hidden; font-family: &quot;Helvetica Neue&quot;, sans-serif; font-size: 12px; font-weight: 200;" fill="rgb(50, 49, 63)" stroke="none" stroke-width="1px">4.5M</text><text x="260.3333333333333" y="0" dx="0em" dy="0.95em" style="text-anchor: middle; visibility: inherit; font-family: &quot;Helvetica Neue&quot;, sans-serif; font-size: 12px; font-weight: 200;" fill="rgb(50, 49, 63)" stroke="none" stroke-width="1px">5M</text><text x="284" y="0" dx="0em" dy="0.95em" style="text-anchor: middle; visibility: hidden; font-family: &quot;Helvetica Neue&quot;, sans-serif; font-size: 12px; font-weight: 200;" fill="rgb(50, 49, 63)" stroke="none" stroke-width="1px">5.5M</text></g><line x1="0" y1="0" x2="284" y2="0" fill="rgb(0, 0, 0)" stroke="rgb(204, 204, 204)" stroke-width="1px"></line></g></g></g></g></svg>