<svg viewBox="0 0 330 200" xmlns="http://www.w3.org/2000/svg"><g><g><g><g><g><line x1="46" y1="177" x2="41" y2="177" style="visibility: inherit;" fill="rgb(0, 0, 0)" stroke="rgb(204, 204, 204)" stroke-width="1px"></line><line x1="46" y1="159.29999999999998" x2="41" y2="159.29999999999998" style="visibility: inherit;" fill="rgb(0, 0, 0)" stroke="rgb(204, 204, 204)" stroke-width="1px"></line><line x1="46" y1="141.59999999999997" x2="41" y2="141.59999999999997" style="visibility: inherit;" fill="rgb(0, 0, 0)" stroke="rgb(204, 204, 204)" stroke-width="1px"></line><line x1="46" y1="123.90000000000003" x2="41" y2="123.90000000000003" style="visibility: inherit;" fill="rgb(0, 0, 0)" stroke="rgb(204, 204, 204)" stroke-width="1px"></line><line x1="46" y1="106.20000000000002" x2="41" y2="106.20000000000002" style="visibility: inherit;" fill="rgb(0, 0, 0)" stroke="rgb(204, 204, 204)" stroke-width="1px"></line><line x1="46" y1="88.5" x2="41" y2="88.5" style="visibility: inherit;" fill="rgb(0, 0, 0)" stroke="rgb(204, 204, 204)" stroke-width="1px"></line><line x1="46" y1="70.79999999999998" x2="41" y2="70.79999999999998" style="visibility: inherit;" fill="rgb(0, 0, 0)" stroke="rgb(204, 204, 204)" stroke-width="1px"></line><line x1="46" y1="53.099999999999966" x2="41" y2="53.099999999999966" style="visibility: inherit;" fill="rgb(0, 0, 0)" stroke="rgb(204, 204, 204)" stroke-width="1px"></line><line x1="46" y1="35.39999999999992" x2="41" y2="35.39999999999992" style="visibility: inherit;" fill="rgb(0, 0, 0)" stroke="rgb(204, 204, 204)" stroke-width="1px"></line><line x1="46" y1="17.700000000000017" x2="41" y2="17.700000000000017" style="visibility: inherit;" fill="rgb(0, 0, 0)" stroke="rgb(204, 204, 204)" stroke-width="1px"></line><line x1="46" y1="0" x2="41" y2="0" style="visibility: inherit;" fill="rgb(0, 0, 0)" stroke="rgb(204, 204, 204)" stroke-width="1px"></line></g><g transform="translate(36, 0)"><text x="0" y="177" dx="0em" dy="0.3em" style="text-anchor: end; visibility: hidden; font-family: &quot;Helvetica Neue&quot;, sans-serif; font-size: 12px; font-weight: 200;" fill="rgb(50, 49, 63)" stroke="none" stroke-width="1px">0.52</text><text x="0" y="159.29999999999998" dx="0em" dy="0.3em" style="text-anchor: end; visibility: inherit; font-family: &quot;Helvetica Neue&quot;, sans-serif; font-size: 12px; font-weight: 200;" fill="rgb(50, 49, 63)" stroke="none" stroke-width="1px">0.54</text><text x="0" y="141.59999999999997" dx="0em" dy="0.3em" style="text-anchor: end; visibility: hidden; font-family: &quot;Helvetica Neue&quot;, sans-serif; font-size: 12px; font-weight: 200;" fill="rgb(50, 49, 63)" stroke="none" stroke-width="1px">0.56</text><text x="0" y="123.90000000000003" dx="0em" dy="0.3em" style="text-anchor: end; visibility: inherit; font-family: &quot;Helvetica Neue&quot;, sans-serif; font-size: 12px; font-weight: 200;" fill="rgb(50, 49, 63)" stroke="none" stroke-width="1px">0.58</text><text x="0" y="106.20000000000002" dx="0em" dy="0.3em" style="text-anchor: end; visibility: hidden; font-family: &quot;Helvetica Neue&quot;, sans-serif; font-size: 12px; font-weight: 200;" fill="rgb(50, 49, 63)" stroke="none" stroke-width="1px">0.6</text><text x="0" y="88.5" dx="0em" dy="0.3em" style="text-anchor: end; visibility: inherit; font-family: &quot;Helvetica Neue&quot;, sans-serif; font-size: 12px; font-weight: 200;" fill="rgb(50, 49, 63)" stroke="none" stroke-width="1px">0.62</text><text x="0" y="70.79999999999998" dx="0em" dy="0.3em" style="text-anchor: end; visibility: hidden; font-family: &quot;Helvetica Neue&quot;, sans-serif; font-size: 12px; font-weight: 200;" fill="rgb(50, 49, 63)" stroke="none" stroke-width="1px">0.64</text><text x="0" y="53.099999999999966" dx="0em" dy="0.3em" style="text-anchor: end; visibility: inherit; font-family: &quot;Helvetica Neue&quot;, sans-serif; font-size: 12px; font-weight: 200;" fill="rgb(50, 49, 63)" stroke="none" stroke-width="1px">0.66</text><text x="0" y="35.39999999999992" dx="0em" dy="0.3em" style="text-anchor: end; visibility: hidden; font-family: &quot;Helvetica Neue&quot;, sans-serif; font-size: 12px; font-weight: 200;" fill="rgb(50, 49, 63)" stroke="none" stroke-width="1px">0.68</text><text x="0" y="17.700000000000017" dx="0em" dy="0.3em" style="text-anchor: end; visibility: inherit; font-family: &quot;Helvetica Neue&quot;, sans-serif; font-size: 12px; font-weight: 200;" fill="rgb(50, 49, 63)" stroke="none" stroke-width="1px">0.7</text><text x="0" y="0" dx="0em" dy="0.3em" style="text-anchor: end; visibility: hidden; font-family: &quot;Helvetica Neue&quot;, sans-serif; font-size: 12px; font-weight: 200;" fill="rgb(50, 49, 63)" stroke="none" stroke-width="1px">0.72</text></g><line x1="46" y1="0" x2="46" y2="177" fill="rgb(0, 0, 0)" stroke="rgb(204, 204, 204)" stroke-width="1px"></line></g></g><g transform="translate(46, 0)" clip-path="url(#clip_0)"><clipPath id="clip_0"><rect width="284" height="177"></rect></clipPath><g><g><g><line x1="0" y1="0" x2="0" y2="177" fill="rgb(0, 0, 0)" stroke="rgb(60, 60, 60)" stroke-width="1px" opacity="0.25"></line><line x1="23.666666666666664" y1="0" x2="23.666666666666664" y2="177" fill="rgb(0, 0, 0)" stroke="rgb(60, 60, 60)" stroke-width="1px" opacity="0.25"></line><line x1="47.33333333333333" y1="0" x2="47.33333333333333" y2="177" fill="rgb(0, 0, 0)" stroke="rgb(60, 60, 60)" stroke-width="1px" opacity="0.25"></line><line x1="71" y1="0" x2="71" y2="177" fill="rgb(0, 0, 0)" stroke="rgb(60, 60, 60)" stroke-width="1px" opacity="0.25"></line><line x1="94.66666666666666" y1="0" x2="94.66666666666666" y2="177" fill="rgb(0, 0, 0)" stroke="rgb(60, 60, 60)" stroke-width="1px" opacity="0.25"></line><line x1="118.33333333333334" y1="0" x2="118.33333333333334" y2="177" fill="rgb(0, 0, 0)" stroke="rgb(60, 60, 60)" stroke-width="1px" opacity="0.25"></line><line x1="142" y1="0" x2="142" y2="177" fill="rgb(0, 0, 0)" stroke="rgb(60, 60, 60)" stroke-width="1px" opacity="0.25"></line><line x1="165.66666666666669" y1="0" x2="165.66666666666669" y2="177" fill="rgb(0, 0, 0)" stroke="rgb(60, 60, 60)" stroke-width="1px" opacity="0.25"></line><line x1="189.33333333333331" y1="0" x2="189.33333333333331" y2="177" fill="rgb(0, 0, 0)" stroke="rgb(60, 60, 60)" stroke-width="1px" opacity="0.25"></line><line x1="213" y1="0" x2="213" y2="177" fill="rgb(0, 0, 0)" stroke="rgb(60, 60, 60)" stroke-width="1px" opacity="0.25"></line><line x1="236.66666666666669" y1="0" x2="236.66666666666669" y2="177" fill="rgb(0, 0, 0)" stroke="rgb(60, 60, 60)" stroke-width="1px" opacity="0.25"></line><line x1="260.3333333333333" y1="0" x2="260.3333333333333" y2="177" fill="rgb(0, 0, 0)" stroke="rgb(60, 60, 60)" stroke-width="1px" opacity="0.25"></line><line x1="284" y1="0" x2="284" y2="177" fill="rgb(0, 0, 0)" stroke="rgb(60, 60, 60)" stroke-width="1px" opacity="0.25"></line></g><g><line x1="0" y1="177" x2="284" y2="177" fill="rgb(0, 0, 0)" stroke="rgb(60, 60, 60)" stroke-width="1px" opacity="0.25"></line><line x1="0" y1="159.29999999999998" x2="284" y2="159.29999999999998" fill="rgb(0, 0, 0)" stroke="rgb(60, 60, 60)" stroke-width="1px" opacity="0.25"></line><line x1="0" y1="141.59999999999997" x2="284" y2="141.59999999999997" fill="rgb(0, 0, 0)" stroke="rgb(60, 60, 60)" stroke-width="1px" opacity="0.25"></line><line x1="0" y1="123.90000000000003" x2="284" y2="123.90000000000003" fill="rgb(0, 0, 0)" stroke="rgb(60, 60, 60)" stroke-width="1px" opacity="0.25"></line><line x1="0" y1="106.20000000000002" x2="284" y2="106.20000000000002" fill="rgb(0, 0, 0)" stroke="rgb(60, 60, 60)" stroke-width="1px" opacity="0.25"></line><line x1="0" y1="88.5" x2="284" y2="88.5" fill="rgb(0, 0, 0)" stroke="rgb(60, 60, 60)" stroke-width="1px" opacity="0.25"></line><line x1="0" y1="70.79999999999998" x2="284" y2="70.79999999999998" fill="rgb(0, 0, 0)" stroke="rgb(60, 60, 60)" stroke-width="1px" opacity="0.25"></line><line x1="0" y1="53.099999999999966" x2="284" y2="53.099999999999966" fill="rgb(0, 0, 0)" stroke="rgb(60, 60, 60)" stroke-width="1px" opacity="0.25"></line><line x1="0" y1="35.39999999999992" x2="284" y2="35.39999999999992" fill="rgb(0, 0, 0)" stroke="rgb(60, 60, 60)" stroke-width="1px" opacity="0.25"></line><line x1="0" y1="17.700000000000017" x2="284" y2="17.700000000000017" fill="rgb(0, 0, 0)" stroke="rgb(60, 60, 60)" stroke-width="1px" opacity="0.25"></line><line x1="0" y1="0" x2="284" y2="0" fill="rgb(0, 0, 0)" stroke="rgb(60, 60, 60)" stroke-width="1px" opacity="0.25"></line></g></g></g><g><g><line x1="0" y1="637.2" x2="284" y2="637.2" fill="rgb(0, 0, 0)" stroke="rgb(153, 153, 153)" stroke-width="1.5px"></line></g></g><g><g><line x1="23.666666666666664" y1="0" x2="23.666666666666664" y2="177" fill="rgb(0, 0, 0)" stroke="rgb(153, 153, 153)" stroke-width="1.5px"></line></g></g><g><g><g><g><g><path stroke="rgb(255, 112, 67)" stroke-width="2px" d="M25.521991333333332,243.75405874918323L29.529326,155.75484740445557L29.530935333333332,144.3502483870903L29.739202000000002,137.1681332346417L30.166953333333336,138.21785762447303L30.367220666666665,139.3621937783679L30.569286666666667,127.99319511395831L31.000872,133.51077858642802L31.431037333333332,134.21442549260723L31.545063333333335,132.19489805663318L31.777517333333332,126.26161979824516L31.885058666666666,128.8226175508406L31.991511333333335,119.85060714560986L32.22652133333333,135.6857714001448L32.32909266666667,141.03223214696993L32.56012666666667,154.41568465371242L32.66392866666666,137.61263381494456L32.89501,126.43385233149853L32.996350666666665,131.79578544661135L33.101714666666666,117.87504251791452L33.334452666666664,118.97355114917121L33.44033733333333,110.20901188783661L33.54532266666667,184.6757464950874L33.648888,126.95171496368027L33.881058,104.36590826978347L34.11266,116.11137802865031L36.976942,96.54226968695251L37.423816,105.09892760878515L37.86761333333333,102.09408179089132L38.07535933333333,104.06660533806298L38.52341666666666,89.64656788412151L52.67314866666667,68.26121567688311L52.88098933333333,68.81708071022213L53.104307999999996,66.95727742117776L53.31058666666667,73.21383244295322L53.750691999999994,57.813676984595716L53.95697066666667,68.8576319221962L56.128008666666666,63.83057787212658L64.03456866666667,53.60838087367341L64.23587733333333,62.192738564746136L78.99848133333333,43.01585597752924L101.14328666666667,41.00091635633402L101.343838,46.54693346333394L101.56284933333333,46.73148100606144L101.99202066666666,43.27078269131806L102.19053666666667,40.50365570069107L102.391372,47.542711366825785L102.82040133333334,47.17494578434116L103.24673266666666,54.79216255910211L103.447568,43.00104550787637L103.64764600000001,39.43419831854709L103.84606733333332,42.22237345377215L104.04590866666668,45.09889711198778L104.24584466666667,47.46207323604352L104.67037733333333,34.81874586890552L104.86950866666666,44.90988248400723L105.29593466666667,41.18274290095593L105.72160333333332,39.78142257454945L105.92040333333334,37.559818284247285L106.34569333333333,42.56421427674613L106.545014,42.52285498575927L111.99644133333334,38.51868830871251L116.72650866666666,37.09077338128242L117.15847266666667,40.25819722037215L117.360018,41.95365493490277L117.56189466666666,43.855626314920386L117.99366933333333,38.820545563034216L118.194552,42.3374216820651L118.39609733333333,44.066379129370205L118.82815599999999,41.79745909189978L119.03060066666667,41.927512867847184L119.46573599999999,33.591735560569646L119.67139933333333,42.00936712855079L120.10980066666667,34.295286082586244L120.31617399999999,40.16374164641945L120.521364,33.94419482957929L120.958582,36.303751907741116L121.164482,39.83482074546771L121.60274133333333,35.13004455624383L122.03976999999999,39.200363533457164L122.47840799999999,37.85190671584695L122.68364533333335,36.67889224882276L122.888504,38.131579092688895L123.32468066666667,46.27147708602402L123.52793,42.878752215449964L123.96155066666665,45.85755429999776L124.395692,40.056293262135256L124.59894133333333,39.673283409222705L124.79930333333334,35.6363182782311L125.23264,44.64054702185797L125.66555066666666,41.678668002856426L129.57736666666668,40.52472389732097L130.00019533333332,39.71825275020055L130.197528,35.4667241282427L146.21479666666667,44.276395883914574L146.65315066666668,44.42647954557009L147.08421533333333,29.83144017651898L147.291914,34.6915013278915L147.498808,40.723559616235605L147.70376133333335,34.34575976812624L148.14538133333335,33.73349098270771L148.580848,39.24020559711994L148.78409733333334,39.247116579936744L148.98871933333334,39.24778003428716L149.42726266666668,44.291554837450406L149.86471733333335,37.64496856804121L150.29885866666666,45.181199863124306L150.501966,33.73017830539408L150.93544466666665,35.76147270125256L151.13665866666668,35.956476963255L151.56814933333334,31.453219881028502L151.76983666666666,35.02110338624672L152.201848,34.49401648303635L152.40396133333334,32.70420870090558L152.60574333333332,33.05412077398776L153.03676066666668,33.261671225825864L153.23750133333334,40.58629592643726L153.670412,40.94163748425149L153.87214666666665,31.583972877599535L154.303022,31.033459488805505L154.50452,40.0245651862389L154.93615266666666,37.75711886779172L155.36740666666668,29.71296285771902L155.57141333333334,28.766764987929832L155.77220133333333,28.154196372263357L155.973936,30.182419638026516L156.40651533333332,29.33361414510611L161.83687933333334,35.339402541864985L168.37990800000003,36.43769184812052L168.80799066666668,22.62942042004019L169.00556,29.478129939890778L169.20625333333334,32.222683592763616L169.40779866666668,26.051064605915712L169.83720666666667,23.02368923076665L170.265952,22.211279888485592L170.47341400000002,25.089969850304982L170.905946,20.148654082271833L171.10929000000002,32.022746423421125L171.31400666666667,29.510285516504013L171.5192913333333,30.486563088695874L171.95641466666666,28.66711940338135L172.392544,34.75363774039258L172.82895733333334,31.511658522355987L173.032822,25.982806199156556L173.23768066666665,28.060847535263264L173.44220800000002,28.60816191697404L173.6463566666667,21.52991544710565L174.082486,34.938069880301356L174.28644533333332,33.094660240487514L174.490452,27.178289290530813L174.92572933333332,26.784228886057207L175.360628,32.31189150504005L175.56562866666667,30.40764716405073L176.0027046666667,30.74662101358254L176.20514933333334,26.95287752474792L176.41038666666665,21.37100814545198L176.61515066666666,21.530841198028583L176.82015133333334,33.720732619234184L177.25438733333334,24.28171098021207L177.684032,33.11521239861244L177.88652399999998,31.876150995811884L178.08849533333333,35.58348607953275L178.51885,22.19954656671132L178.94617533333334,21.784292093191738L179.37534666666664,24.353286508967727L179.804944,24.25203987333768L180.00819333333334,27.894693967984665L180.21149000000003,26.679092528370518L180.64672,24.64927614402268L181.08048266666665,24.454413771125303L181.51760599999997,25.82704432320523L181.949286,27.52411308890518L183.99105666666665,31.33940546207998L184.42330466666667,33.79275106887181L184.62664866666668,31.94119470815673L185.06282533333334,27.58933790569384L185.49848133333333,24.04096718725674L185.70206199999998,29.09185712327681L186.13639266666667,23.83733893260009L186.3395,25.76780513870682L186.541708,23.86610004162594L186.97566,28.20546615758488L187.40994333333333,21.143434240759774L187.84498399999998,30.552949085935722L188.04794933333335,18.412111343203065L188.25176666666667,27.507972035813992L188.45610466666665,27.163748529148933L188.88939399999998,26.08714045997553L189.09287999999998,30.6796747834359L189.52531733333333,32.33803189774389L189.72582133333333,23.975060504226718L189.92873933333334,28.38988525481679L190.36051400000002,24.8135122457615L190.564142,23.60052903108084L190.99814133333334,22.962349022304778L191.42949000000002,28.466576159274638L191.63415933333332,26.907904425456593L191.838166,21.88847203418669L192.04155733333332,23.145813964047477L192.47541466666667,30.04948502638223L192.67918466666669,27.407733776243447L193.11138533333335,21.93645565186233L193.31278866666668,24.02002411105562L193.5138606666667,20.741631804292922L193.941044,25.818487353933847L194.36756466666668,20.044680555897997L194.79498466666666,24.186283801387532L194.99307466666667,30.845062643755995L195.1928213333333,34.093116571757236L195.39342,25.88275607235451L195.82155,31.87752770148009L196.02124933333334,36.62713316971036L196.21952866666666,31.86542529029265L196.64609666666666,32.79968635984659L196.84499133333333,36.01996788792448L197.04270266666668,28.85050385066279L200.183364,35.81475757376512L200.61655866666666,30.396099893203825L201.051552,19.788438846678872L201.25551133333335,28.335791989136766L201.689558,36.80890784759217L201.89152933333332,30.839360732935802L202.09492066666667,27.483561844072568L202.52333466666664,28.204920077175245L202.72346,26.534963028130477L208.72158733333333,22.5483621730325L208.929144,28.07896332219994L218.72065933333334,28.7838599253422L219.15721466666665,23.286037581431657L219.59296533333335,23.106069049860736L219.799528,25.871562122786088L220.243704,32.57214559531053L220.45220733333332,31.997927789417133L220.660048,30.551417854073264L221.103088,22.58607173677848L221.31211199999998,25.82164238073011L239.251398,24.219090830304623L239.45696666666666,28.239353273298065L239.90213666666665,24.277279869268938L240.11097133333334,20.418458257536884L240.31895400000002,27.874492546312325L240.52636866666666,22.67695700677791L240.73548733333334,29.1348710387731L240.94489000000002,25.754634600732572L241.15585466666667,31.34344673393764L241.60239733333333,28.227646613157816L241.81156333333334,26.884967189029368L242.01987733333334,20.668796240233917L242.227718,25.463625040239663L242.669054,27.66318373056285L243.11034266666667,27.004689959022528L243.31752066666667,28.50677078965498L243.52219,24.998644463828157L243.72846866666669,25.531468056260138L259.56998866666663,21.234552836477036L259.7659013333333,21.69165269508926L259.965506,20.692019355082493L260.1642586666667,26.335458178976438L260.3333333333333,26.0076245863589" style="fill: none;" fill="none"></path></g></g></g></g><g opacity="0.2"><g><g><g><path stroke="rgb(255, 112, 67)" stroke-width="2px" d="M25.521991333333332,239.71955553889276L29.529326,146.40980572700502L29.530935333333332,143.13914061784743L29.739202000000002,136.40543074607848L30.166953333333336,138.329332780838L30.367220666666665,139.48371620178222L30.569286666666667,126.78586782217026L31.000872,134.09671665430068L31.431037333333332,134.28914905786513L31.545063333333335,131.98043496608733L31.777517333333332,125.63153715133667L31.885058666666666,129.09458191394805L31.991511333333335,118.89782727956772L32.22652133333333,137.36738176345824L32.32909266666667,141.59999788999556L32.56012666666667,155.8369362473488L32.66392866666666,135.82823903560637L32.89501,125.24672509431839L32.996350666666665,132.36519427299498L33.101714666666666,116.3967335343361L33.334452666666664,119.09020693302155L33.44033733333333,109.27826435565949L33.54532266666667,192.58371831178667L33.648888,120.82172931432724L33.881058,101.96741552352906L34.11266,117.35868455171585L36.976942,94.46413428783417L37.423816,106.00759924650193L37.86761333333333,101.7749831199646L38.07535933333333,104.27607686519623L38.52341666666666,88.1152364730835L52.67314866666667,65.99020482301712L52.88098933333333,68.87611062526703L53.104307999999996,66.75977618694306L53.31058666666667,73.87824536561966L53.750691999999994,56.17826224565506L53.95697066666667,70.03044129610062L56.128008666666666,63.29673142433167L64.03456866666667,52.52283782958985L64.23587733333333,63.10435177087784L78.99848133333333,40.97937287092208L101.14328666666667,40.786940467357624L101.343838,47.13589103221892L101.56284933333333,46.75107897520064L101.99202066666666,42.9032749056816L102.19053666666667,40.20980150699614L102.391372,48.29022170305251L102.82040133333334,47.13589103221892L103.24673266666666,55.601070535182956L103.447568,41.748891484737385L103.64764600000001,39.05541808605193L103.84606733333332,42.51846284866332L104.04590866666668,45.40436865091323L104.24584466666667,47.7130299925804L104.67037733333333,33.47609163522719L104.86950866666666,45.98150761127471L105.29593466666667,40.786940467357624L105.72160333333332,39.63260979652404L105.92040333333334,37.323895704746235L106.34569333333333,43.095654559135426L106.545014,42.51846284866332L111.99644133333334,38.09346706867217L116.72650866666666,36.93913639783858L117.15847266666667,40.5945608139038L117.360018,42.133703541755665L117.56189466666666,44.057605576515186L117.99366933333333,38.285846722125996L118.194552,42.71089525222777L118.39609733333333,44.24998522996901L118.82815599999999,41.55651183128356L119.03060066666667,41.94132388830184L119.46573599999999,32.70652027130126L119.67139933333333,42.9032749056816L120.10980066666667,33.47609163522719L120.31617399999999,40.786940467357624L120.521364,33.283711981773365L120.958582,36.5543243408203L121.164482,40.20980150699614L121.60274133333333,34.63042230606078L122.03976999999999,39.63260979652404L122.47840799999999,37.708707761764515L122.68364533333335,36.5543243408203L122.888504,38.285846722125996L123.32468066666667,47.13589103221892L123.52793,42.51846284866332L123.96155066666665,46.173887264728535L124.395692,39.44023014307021L124.59894133333333,39.63260979652404L124.79930333333334,35.20761401653289L125.23264,45.596748304367054L125.66555066666666,41.36413217782973L129.57736666666668,40.40218116044997L130.00019533333332,39.63260979652404L130.197528,35.01523436307906L146.21479666666667,45.211936247348774L146.65315066666668,44.442417633533466L147.08421533333333,28.28152449131011L147.291914,35.20761401653289L147.498808,41.36413217782973L147.70376133333335,33.66847128868102L148.14538133333335,33.66847128868102L148.580848,39.82498944997786L148.78409733333334,39.24785048961638L148.98871933333334,39.24785048961638L149.42726266666668,44.82717694044112L149.86471733333335,36.93913639783858L150.29885866666666,45.98150761127471L150.501966,32.51414061784743L150.93544466666665,35.97718538045882L151.13665866666668,35.97718538045882L151.56814933333334,30.974997889995564L151.76983666666666,35.39999366998671L152.201848,34.43804265260695L152.40396133333334,32.51414061784743L152.60574333333332,33.09127957820891L153.03676066666668,33.283711981773365L153.23750133333334,41.36413217782973L153.670412,40.97937287092208L153.87214666666665,30.59023858308791L154.303022,30.974997889995564L154.50452,40.97937287092208L154.93615266666666,37.51632810831069L155.36740666666668,28.858716201782215L155.57141333333334,28.666283798217762L155.77220133333333,28.08914483785628L155.973936,30.397806179523457L156.40651533333332,29.24347550868987L161.83687933333334,35.97718538045882L168.37990800000003,36.5543243408203L168.80799066666668,21.163055312633503L169.00556,30.20542652606963L169.20625333333334,32.51414061784743L169.40779866666668,25.395671439170826L169.83720666666667,22.70219804048537L170.265952,22.125006330013264L170.47341400000002,25.395671439170826L170.905946,19.623912584781635L171.10929000000002,33.283711981773365L171.31400666666667,29.24347550868987L171.5192913333333,30.59023858308791L171.95641466666666,28.473904144763935L172.392544,35.39999366998671L172.82895733333334,31.16737754344939L173.032822,25.395671439170826L173.23768066666665,28.28152449131011L173.44220800000002,28.666283798217762L173.6463566666667,20.778243255615223L174.082486,36.361944687366474L174.28644533333332,32.898899924755085L174.490452,26.550002110004414L174.92572933333332,26.74238176345824L175.360628,32.898899924755085L175.56562866666667,30.20542652606963L176.0027046666667,30.782618236541737L176.20514933333334,26.550002110004414L176.41038666666665,20.778243255615223L176.61515066666666,21.547814619541157L176.82015133333334,35.01523436307906L177.25438733333334,23.27933700084685L177.684032,34.0532833456993L177.88652399999998,31.744569253921497L178.08849533333333,35.97718538045882L178.51885,20.778243255615223L178.94617533333334,21.740194272994984L179.37534666666664,24.626100075244892L179.804944,24.241288018226612L180.00819333333334,28.28152449131011L180.21149000000003,26.550002110004414L180.64672,24.433720421791065L181.08048266666665,24.433720421791065L181.51760599999997,25.972810399532307L181.949286,27.704332780838L183.99105666666665,31.744569253921497L184.42330466666667,34.0532833456993L184.62664866666668,31.744569253921497L185.06282533333334,27.12719382047652L185.49848133333333,23.66414905786513L185.70206199999998,29.628234815597523L186.13639266666667,23.27933700084685L186.3395,25.972810399532307L186.541708,23.66414905786513L186.97566,28.666283798217762L187.40994333333333,20.39348394870757L187.84498399999998,31.55218960046767L188.04794933333335,17.122818839550007L188.25176666666667,28.473904144763935L188.45610466666665,27.12719382047652L188.88939399999998,25.972810399532307L189.09287999999998,31.16737754344939L189.52531733333333,32.51414061784743L189.72582133333333,23.086957347393025L189.92873933333334,28.858716201782215L190.36051400000002,24.433720421791065L190.564142,23.47171665430068L190.99814133333334,22.894577693939198L191.42949000000002,29.051095855236042L191.63415933333332,26.74238176345824L191.838166,21.35543496608733L192.04155733333332,23.27933700084685L192.47541466666667,30.782618236541737L192.67918466666669,27.12719382047652L193.11138533333335,21.35543496608733L193.31278866666668,24.241288018226612L193.5138606666667,20.39348394870757L193.941044,26.357622456550587L194.36756466666668,19.43153293132781L194.79498466666666,24.626100075244892L194.99307466666667,31.55218960046767L195.1928213333333,34.43804265260695L195.39342,25.010859382152546L195.82155,32.51414061784743L196.02124933333334,37.13151605129241L196.21952866666666,31.359757196903217L196.64609666666666,32.898899924755085L196.84499133333333,36.361944687366474L197.04270266666668,28.08914483785628L200.183364,36.5543243408203L200.61655866666666,29.820667219161976L201.051552,18.661961567401875L201.25551133333335,29.24347550868987L201.689558,37.708707761764515L201.89152933333332,30.20542652606963L202.09492066666667,27.12719382047652L202.52333466666664,28.28152449131011L202.72346,26.357622456550587L208.72158733333333,22.125006330013264L208.929144,28.666283798217762L218.72065933333334,28.858716201782215L219.15721466666665,22.70219804048537L219.59296533333335,23.086957347393025L219.799528,26.16524280309676L220.243704,33.283711981773365L220.45220733333332,31.936948907375324L220.660048,30.397806179523457L221.103088,21.740194272994984L221.31211199999998,26.16524280309676L239.251398,24.048908364772785L239.45696666666666,28.666283798217762L239.90213666666665,23.85652871131896L240.11097133333334,20.00867189168929L240.31895400000002,28.666283798217762L240.52636866666666,22.125006330013264L240.73548733333334,29.820667219161976L240.94489000000002,25.395671439170826L241.15585466666667,31.936948907375324L241.60239733333333,27.896765184402454L241.81156333333334,26.74238176345824L242.01987733333334,20.00867189168929L242.227718,25.972810399532307L242.669054,27.896765184402454L243.11034266666667,26.934761416912067L243.31752066666667,28.666283798217762L243.52219,24.626100075244892L243.72846866666669,25.588051092624653L259.56998866666663,20.778243255615223L259.7659013333333,21.740194272994984L259.965506,20.585863602161396L260.1642586666667,26.934761416912067L260.3333333333333,25.972810399532307" style="fill: none;" fill="none"></path></g></g></g></g></g></g><g transform="translate(46, 177)" clip-path="url(#clip_1)"><clipPath id="clip_1"><rect width="284" height="23"></rect></clipPath><g><g><line x1="0" y1="0" x2="0" y2="5" style="visibility: inherit;" fill="rgb(0, 0, 0)" stroke="rgb(204, 204, 204)" stroke-width="1px"></line><line x1="23.666666666666664" y1="0" x2="23.666666666666664" y2="5" style="visibility: inherit;" fill="rgb(0, 0, 0)" stroke="rgb(204, 204, 204)" stroke-width="1px"></line><line x1="47.33333333333333" y1="0" x2="47.33333333333333" y2="5" style="visibility: inherit;" fill="rgb(0, 0, 0)" stroke="rgb(204, 204, 204)" stroke-width="1px"></line><line x1="71" y1="0" x2="71" y2="5" style="visibility: inherit;" fill="rgb(0, 0, 0)" stroke="rgb(204, 204, 204)" stroke-width="1px"></line><line x1="94.66666666666666" y1="0" x2="94.66666666666666" y2="5" style="visibility: inherit;" fill="rgb(0, 0, 0)" stroke="rgb(204, 204, 204)" stroke-width="1px"></line><line x1="118.33333333333334" y1="0" x2="118.33333333333334" y2="5" style="visibility: inherit;" fill="rgb(0, 0, 0)" stroke="rgb(204, 204, 204)" stroke-width="1px"></line><line x1="142" y1="0" x2="142" y2="5" style="visibility: inherit;" fill="rgb(0, 0, 0)" stroke="rgb(204, 204, 204)" stroke-width="1px"></line><line x1="165.66666666666669" y1="0" x2="165.66666666666669" y2="5" style="visibility: inherit;" fill="rgb(0, 0, 0)" stroke="rgb(204, 204, 204)" stroke-width="1px"></line><line x1="189.33333333333331" y1="0" x2="189.33333333333331" y2="5" style="visibility: inherit;" fill="rgb(0, 0, 0)" stroke="rgb(204, 204, 204)" stroke-width="1px"></line><line x1="213" y1="0" x2="213" y2="5" style="visibility: inherit;" fill="rgb(0, 0, 0)" stroke="rgb(204, 204, 204)" stroke-width="1px"></line><line x1="236.66666666666669" y1="0" x2="236.66666666666669" y2="5" style="visibility: inherit;" fill="rgb(0, 0, 0)" stroke="rgb(204, 204, 204)" stroke-width="1px"></line><line x1="260.3333333333333" y1="0" x2="260.3333333333333" y2="5" style="visibility: inherit;" fill="rgb(0, 0, 0)" stroke="rgb(204, 204, 204)" stroke-width="1px"></line><line x1="284" y1="0" x2="284" y2="5" style="visibility: inherit;" fill="rgb(0, 0, 0)" stroke="rgb(204, 204, 204)" stroke-width="1px"></line></g><g transform="translate(0, 8)"><text x="0" y="0" dx="0em" dy="0.95em" style="text-anchor: middle; visibility: hidden; font-family: &quot;Helvetica Neue&quot;, sans-serif; font-size: 12px; font-weight: 200;" fill="rgb(50, 49, 63)" stroke="none" stroke-width="1px">-500k</text><text x="23.666666666666664" y="0" dx="0em" dy="0.95em" style="text-anchor: middle; visibility: inherit; font-family: &quot;Helvetica Neue&quot;, sans-serif; font-size: 12px; font-weight: 200;" fill="rgb(50, 49, 63)" stroke="none" stroke-width="1px">0</text><text x="47.33333333333333" y="0" dx="0em" dy="0.95em" style="text-anchor: middle; visibility: hidden; font-family: &quot;Helvetica Neue&quot;, sans-serif; font-size: 12px; font-weight: 200;" fill="rgb(50, 49, 63)" stroke="none" stroke-width="1px">500k</text><text x="71" y="0" dx="0em" dy="0.95em" style="text-anchor: middle; visibility: inherit; font-family: &quot;Helvetica Neue&quot;, sans-serif; font-size: 12px; font-weight: 200;" fill="rgb(50, 49, 63)" stroke="none" stroke-width="1px">1M</text><text x="94.66666666666666" y="0" dx="0em" dy="0.95em" style="text-anchor: middle; visibility: hidden; font-family: &quot;Helvetica Neue&quot;, sans-serif; font-size: 12px; font-weight: 200;" fill="rgb(50, 49, 63)" stroke="none" stroke-width="1px">1.5M</text><text x="118.33333333333334" y="0" dx="0em" dy="0.95em" style="text-anchor: middle; visibility: inherit; font-family: &quot;Helvetica Neue&quot;, sans-serif; font-size: 12px; font-weight: 200;" fill="rgb(50, 49, 63)" stroke="none" stroke-width="1px">2M</text><text x="142" y="0" dx="0em" dy="0.95em" style="text-anchor: middle; visibility: hidden; font-family: &quot;Helvetica Neue&quot;, sans-serif; font-size: 12px; font-weight: 200;" fill="rgb(50, 49, 63)" stroke="none" stroke-width="1px">2.5M</text><text x="165.66666666666669" y="0" dx="0em" dy="0.95em" style="text-anchor: middle; visibility: inherit; font-family: &quot;Helvetica Neue&quot;, sans-serif; font-size: 12px; font-weight: 200;" fill="rgb(50, 49, 63)" stroke="none" stroke-width="1px">3M</text><text x="189.33333333333331" y="0" dx="0em" dy="0.95em" style="text-anchor: middle; visibility: hidden; font-family: &quot;Helvetica Neue&quot;, sans-serif; font-size: 12px; font-weight: 200;" fill="rgb(50, 49, 63)" stroke="none" stroke-width="1px">3.5M</text><text x="213" y="0" dx="0em" dy="0.95em" style="text-anchor: middle; visibility: inherit; font-family: &quot;Helvetica Neue&quot;, sans-serif; font-size: 12px; font-weight: 200;" fill="rgb(50, 49, 63)" stroke="none" stroke-width="1px">4M</text><text x="236.66666666666669" y="0" dx="0em" dy="0.95em" style="text-anchor: middle; visibility: hidden; font-family: &quot;Helvetica Neue&quot;, sans-serif; font-size: 12px; font-weight: 200;" fill="rgb(50, 49, 63)" stroke="none" stroke-width="1px">4.5M</text><text x="260.3333333333333" y="0" dx="0em" dy="0.95em" style="text-anchor: middle; visibility: inherit; font-family: &quot;Helvetica Neue&quot;, sans-serif; font-size: 12px; font-weight: 200;" fill="rgb(50, 49, 63)" stroke="none" stroke-width="1px">5M</text><text x="284" y="0" dx="0em" dy="0.95em" style="text-anchor: middle; visibility: hidden; font-family: &quot;Helvetica Neue&quot;, sans-serif; font-size: 12px; font-weight: 200;" fill="rgb(50, 49, 63)" stroke="none" stroke-width="1px">5.5M</text></g><line x1="0" y1="0" x2="284" y2="0" fill="rgb(0, 0, 0)" stroke="rgb(204, 204, 204)" stroke-width="1px"></line></g></g></g></g></svg>