<svg viewBox="0 0 330 200" xmlns="http://www.w3.org/2000/svg"><g><g><g><g><g><line x1="55" y1="177" x2="50" y2="177" style="visibility: inherit;" fill="rgb(0, 0, 0)" stroke="rgb(204, 204, 204)" stroke-width="1px"></line><line x1="55" y1="157.33333333333334" x2="50" y2="157.33333333333334" style="visibility: inherit;" fill="rgb(0, 0, 0)" stroke="rgb(204, 204, 204)" stroke-width="1px"></line><line x1="55" y1="137.66666666666666" x2="50" y2="137.66666666666666" style="visibility: inherit;" fill="rgb(0, 0, 0)" stroke="rgb(204, 204, 204)" stroke-width="1px"></line><line x1="55" y1="118" x2="50" y2="118" style="visibility: inherit;" fill="rgb(0, 0, 0)" stroke="rgb(204, 204, 204)" stroke-width="1px"></line><line x1="55" y1="98.33333333333333" x2="50" y2="98.33333333333333" style="visibility: inherit;" fill="rgb(0, 0, 0)" stroke="rgb(204, 204, 204)" stroke-width="1px"></line><line x1="55" y1="78.66666666666666" x2="50" y2="78.66666666666666" style="visibility: inherit;" fill="rgb(0, 0, 0)" stroke="rgb(204, 204, 204)" stroke-width="1px"></line><line x1="55" y1="59" x2="50" y2="59" style="visibility: inherit;" fill="rgb(0, 0, 0)" stroke="rgb(204, 204, 204)" stroke-width="1px"></line><line x1="55" y1="39.33333333333334" x2="50" y2="39.33333333333334" style="visibility: inherit;" fill="rgb(0, 0, 0)" stroke="rgb(204, 204, 204)" stroke-width="1px"></line><line x1="55" y1="19.666666666666686" x2="50" y2="19.666666666666686" style="visibility: inherit;" fill="rgb(0, 0, 0)" stroke="rgb(204, 204, 204)" stroke-width="1px"></line><line x1="55" y1="0" x2="50" y2="0" style="visibility: inherit;" fill="rgb(0, 0, 0)" stroke="rgb(204, 204, 204)" stroke-width="1px"></line></g><g transform="translate(45, 0)"><text x="0" y="177" dx="0em" dy="0.3em" style="text-anchor: end; visibility: hidden; font-family: &quot;Helvetica Neue&quot;, sans-serif; font-size: 12px; font-weight: 200;" fill="rgb(50, 49, 63)" stroke="none" stroke-width="1px">-0.05</text><text x="0" y="157.33333333333334" dx="0em" dy="0.3em" style="text-anchor: end; visibility: inherit; font-family: &quot;Helvetica Neue&quot;, sans-serif; font-size: 12px; font-weight: 200;" fill="rgb(50, 49, 63)" stroke="none" stroke-width="1px">0</text><text x="0" y="137.66666666666666" dx="0em" dy="0.3em" style="text-anchor: end; visibility: hidden; font-family: &quot;Helvetica Neue&quot;, sans-serif; font-size: 12px; font-weight: 200;" fill="rgb(50, 49, 63)" stroke="none" stroke-width="1px">0.05</text><text x="0" y="118" dx="0em" dy="0.3em" style="text-anchor: end; visibility: inherit; font-family: &quot;Helvetica Neue&quot;, sans-serif; font-size: 12px; font-weight: 200;" fill="rgb(50, 49, 63)" stroke="none" stroke-width="1px">0.1</text><text x="0" y="98.33333333333333" dx="0em" dy="0.3em" style="text-anchor: end; visibility: hidden; font-family: &quot;Helvetica Neue&quot;, sans-serif; font-size: 12px; font-weight: 200;" fill="rgb(50, 49, 63)" stroke="none" stroke-width="1px">0.15</text><text x="0" y="78.66666666666666" dx="0em" dy="0.3em" style="text-anchor: end; visibility: inherit; font-family: &quot;Helvetica Neue&quot;, sans-serif; font-size: 12px; font-weight: 200;" fill="rgb(50, 49, 63)" stroke="none" stroke-width="1px">0.2</text><text x="0" y="59" dx="0em" dy="0.3em" style="text-anchor: end; visibility: hidden; font-family: &quot;Helvetica Neue&quot;, sans-serif; font-size: 12px; font-weight: 200;" fill="rgb(50, 49, 63)" stroke="none" stroke-width="1px">0.25</text><text x="0" y="39.33333333333334" dx="0em" dy="0.3em" style="text-anchor: end; visibility: inherit; font-family: &quot;Helvetica Neue&quot;, sans-serif; font-size: 12px; font-weight: 200;" fill="rgb(50, 49, 63)" stroke="none" stroke-width="1px">0.3</text><text x="0" y="19.666666666666686" dx="0em" dy="0.3em" style="text-anchor: end; visibility: hidden; font-family: &quot;Helvetica Neue&quot;, sans-serif; font-size: 12px; font-weight: 200;" fill="rgb(50, 49, 63)" stroke="none" stroke-width="1px">0.35</text><text x="0" y="0" dx="0em" dy="0.3em" style="text-anchor: end; visibility: hidden; font-family: &quot;Helvetica Neue&quot;, sans-serif; font-size: 12px; font-weight: 200;" fill="rgb(50, 49, 63)" stroke="none" stroke-width="1px">0.4</text></g><line x1="55" y1="0" x2="55" y2="177" fill="rgb(0, 0, 0)" stroke="rgb(204, 204, 204)" stroke-width="1px"></line></g></g><g transform="translate(55, 0)" clip-path="url(#clip_0)"><clipPath id="clip_0"><rect width="275" height="177"></rect></clipPath><g><g><g><line x1="0" y1="0" x2="0" y2="177" fill="rgb(0, 0, 0)" stroke="rgb(60, 60, 60)" stroke-width="1px" opacity="0.25"></line><line x1="22.916666666666664" y1="0" x2="22.916666666666664" y2="177" fill="rgb(0, 0, 0)" stroke="rgb(60, 60, 60)" stroke-width="1px" opacity="0.25"></line><line x1="45.83333333333333" y1="0" x2="45.83333333333333" y2="177" fill="rgb(0, 0, 0)" stroke="rgb(60, 60, 60)" stroke-width="1px" opacity="0.25"></line><line x1="68.75" y1="0" x2="68.75" y2="177" fill="rgb(0, 0, 0)" stroke="rgb(60, 60, 60)" stroke-width="1px" opacity="0.25"></line><line x1="91.66666666666666" y1="0" x2="91.66666666666666" y2="177" fill="rgb(0, 0, 0)" stroke="rgb(60, 60, 60)" stroke-width="1px" opacity="0.25"></line><line x1="114.58333333333334" y1="0" x2="114.58333333333334" y2="177" fill="rgb(0, 0, 0)" stroke="rgb(60, 60, 60)" stroke-width="1px" opacity="0.25"></line><line x1="137.5" y1="0" x2="137.5" y2="177" fill="rgb(0, 0, 0)" stroke="rgb(60, 60, 60)" stroke-width="1px" opacity="0.25"></line><line x1="160.41666666666669" y1="0" x2="160.41666666666669" y2="177" fill="rgb(0, 0, 0)" stroke="rgb(60, 60, 60)" stroke-width="1px" opacity="0.25"></line><line x1="183.33333333333331" y1="0" x2="183.33333333333331" y2="177" fill="rgb(0, 0, 0)" stroke="rgb(60, 60, 60)" stroke-width="1px" opacity="0.25"></line><line x1="206.25" y1="0" x2="206.25" y2="177" fill="rgb(0, 0, 0)" stroke="rgb(60, 60, 60)" stroke-width="1px" opacity="0.25"></line><line x1="229.16666666666669" y1="0" x2="229.16666666666669" y2="177" fill="rgb(0, 0, 0)" stroke="rgb(60, 60, 60)" stroke-width="1px" opacity="0.25"></line><line x1="252.08333333333331" y1="0" x2="252.08333333333331" y2="177" fill="rgb(0, 0, 0)" stroke="rgb(60, 60, 60)" stroke-width="1px" opacity="0.25"></line><line x1="275" y1="0" x2="275" y2="177" fill="rgb(0, 0, 0)" stroke="rgb(60, 60, 60)" stroke-width="1px" opacity="0.25"></line></g><g><line x1="0" y1="177" x2="275" y2="177" fill="rgb(0, 0, 0)" stroke="rgb(60, 60, 60)" stroke-width="1px" opacity="0.25"></line><line x1="0" y1="157.33333333333334" x2="275" y2="157.33333333333334" fill="rgb(0, 0, 0)" stroke="rgb(60, 60, 60)" stroke-width="1px" opacity="0.25"></line><line x1="0" y1="137.66666666666666" x2="275" y2="137.66666666666666" fill="rgb(0, 0, 0)" stroke="rgb(60, 60, 60)" stroke-width="1px" opacity="0.25"></line><line x1="0" y1="118" x2="275" y2="118" fill="rgb(0, 0, 0)" stroke="rgb(60, 60, 60)" stroke-width="1px" opacity="0.25"></line><line x1="0" y1="98.33333333333333" x2="275" y2="98.33333333333333" fill="rgb(0, 0, 0)" stroke="rgb(60, 60, 60)" stroke-width="1px" opacity="0.25"></line><line x1="0" y1="78.66666666666666" x2="275" y2="78.66666666666666" fill="rgb(0, 0, 0)" stroke="rgb(60, 60, 60)" stroke-width="1px" opacity="0.25"></line><line x1="0" y1="59" x2="275" y2="59" fill="rgb(0, 0, 0)" stroke="rgb(60, 60, 60)" stroke-width="1px" opacity="0.25"></line><line x1="0" y1="39.33333333333334" x2="275" y2="39.33333333333334" fill="rgb(0, 0, 0)" stroke="rgb(60, 60, 60)" stroke-width="1px" opacity="0.25"></line><line x1="0" y1="19.666666666666686" x2="275" y2="19.666666666666686" fill="rgb(0, 0, 0)" stroke="rgb(60, 60, 60)" stroke-width="1px" opacity="0.25"></line><line x1="0" y1="0" x2="275" y2="0" fill="rgb(0, 0, 0)" stroke="rgb(60, 60, 60)" stroke-width="1px" opacity="0.25"></line></g></g></g><g><g><line x1="0" y1="157.33333333333334" x2="275" y2="157.33333333333334" fill="rgb(0, 0, 0)" stroke="rgb(153, 153, 153)" stroke-width="1.5px"></line></g></g><g><g><line x1="22.916666666666664" y1="0" x2="22.916666666666664" y2="177" fill="rgb(0, 0, 0)" stroke="rgb(153, 153, 153)" stroke-width="1.5px"></line></g></g><g><g><g><g><g><path stroke="rgb(255, 112, 67)" stroke-width="2px" d="M23.1243375,156.3034083036085L23.318533333333335,154.81801059068954L23.500308333333333,153.8518603392939L23.907262499999998,148.45919533862968L24.308945833333333,141.21582439171047L24.713195833333334,136.39683937732724L28.5935375,116.52236681925046L28.595095833333332,117.14977232296562L28.7967625,112.65956244905976L29.210958333333334,115.8065466923805L29.404879166666667,112.53928636335792L29.60054166666667,112.67146526534418L30.01845,107.78899347759129L30.434983333333335,99.37132122228317L30.545395833333334,100.07840812582312L30.770483333333335,99.35852469337324L30.874616666666668,100.67652505620225L30.977695833333335,106.25643548773185L31.205258333333333,107.3677681899768L31.304579166666667,116.30593774588937L31.528291666666668,137.48774234286662L31.628804166666665,107.81792517725472L31.8525625,105.15939751201361L31.950691666666668,104.17150842183446L32.05271666666667,91.51145259749121L32.278079166666664,115.96010249928909L32.380608333333335,90.9249108796847L32.48226666666667,104.90249730617711L32.58255,93.29273196154045L32.8073625,95.83256577786753L33.031625,96.41651358175623L35.8051375,76.90893146543664L36.23785,83.42210098185441L36.66758333333333,93.43619671034334L36.86874583333333,85.33504502461832L37.30260416666666,75.57009414830509L51.003929166666666,58.693267328261086L51.20518333333333,81.08262472862104L51.421425,57.5608322138921L51.62116666666667,55.178406574395524L52.047324999999994,57.49642816684094L52.24706666666667,58.69120364046235L54.34930416666667,61.936732981830716L62.00530416666667,50.88919395900375L62.20023333333334,52.78842166490233L76.49500833333333,46.68066481726348L97.93804166666666,33.136311282453846L98.1322375,39.074167509371875L98.34430833333333,69.22607780308675L98.75987916666666,47.622133952914396L98.95210416666667,40.329462737007646L99.146575,43.757774512942376L99.56200833333332,38.50111223929491L99.97482916666667,43.31349400552753L100.1693,38.174993938324576L100.3630375,34.48511850097509L100.55517083333332,35.50009615000923L100.74867916666668,36.863621153300784L100.94227916666667,39.3767475593439L101.35335833333333,38.84044874453562L101.54617916666666,38.90470352148441L101.95909166666668,41.079254319548994L102.37127083333333,31.69359966566853L102.56377083333334,43.6714267703222L102.97558333333333,37.78606186935738L103.1685875,42.54653392152417L108.44725833333334,34.43277872459072L113.02742916666666,43.798821676116916L113.44570416666666,42.58305147345942L113.6408625,36.976236840301596L113.83634166666666,40.43715092025255L114.25443333333332,42.257734837673894L114.44895,40.703709621036154L114.64410833333334,40.273111628736274L115.06247499999999,42.208808136995174L115.25850416666667,42.96038289226047L115.67984999999999,36.24273282403021L115.87899583333333,46.417549586087176L116.30350416666667,43.885684128995536L116.5033375,42.54658652875224L116.702025,45.56849483286547L117.1253875,42.81524993384858L117.3247625,46.64155805117764L117.74913333333333,39.405207821534674L118.17231249999999,50.320229091530464L118.59705,49.66463886594316L118.79578333333333,39.05165063275865L118.99414999999999,41.259870506541574L119.41650416666667,44.3486454617707L119.61331249999999,43.17463450239558L120.03319166666665,37.06750056292833L120.453575,45.41038494632676L120.65038333333332,49.5166161829561L120.84439583333334,41.64727951470371L121.26400000000001,43.72815003527009L121.68319166666666,37.59372655378925L125.47104166666666,39.13409104012854L125.88047083333333,35.021297770560665L126.07155,40.84736509143394L141.58122916666665,39.58834357644946L142.00569166666668,37.973991246464266L142.42309583333332,36.967731762387814L142.6242125,34.943658689669775L142.82455,38.796880261740284L143.02300833333334,38.11452685610212L143.45063333333334,34.21711428942595L143.8723,41.373572789811135L144.06910833333333,36.10825484941958L144.26724583333333,34.17277356015893L144.69189166666666,32.395533842430666L145.11548333333334,39.737238667734744L145.53586666666666,33.175878140989454L145.7325375,31.91497326440782L146.15227916666666,35.49832040457454L146.34711666666666,49.900862214141085L146.76493333333332,40.38157362593074L146.96022916666666,33.10758303469294L147.37855,34.079575664392365L147.57425833333335,40.808842246048386L147.76964583333333,34.5431013400694L148.18700416666667,34.364809649105155L148.38138333333333,34.25516141893851L148.800575,39.5381313906756L148.99591666666666,31.07774525432569L149.4131375,35.546804954734284L149.60825,31.253416620902414L150.02620416666664,34.28226972038385L150.44379166666667,73.87200768430856L150.64133333333334,48.78692110535923L150.83575833333333,41.09282278648132L151.0311,42.196102049793666L151.44997083333334,41.25479831220429L156.70824583333334,34.54426726174836L163.043925,32.03898436368863L163.4584416666667,29.051344565589943L163.64975,30.66417581863783L163.84408333333332,34.93158404639013L164.03924166666667,45.35956440506996L164.45504166666666,33.48154624221036L164.87019999999998,32.13961847392778L165.0710875,28.391429014620513L165.4899125,31.720525344621393L165.6868125,29.074498839099704L165.88504166666667,31.911535684609703L166.08382083333333,31.22927908112314L166.50709166666667,29.658734952618005L166.9294,38.55785196926206L167.35198333333332,30.648595891227103L167.54938750000002,27.944297257597896L167.74775416666665,31.36226841197356L167.94580000000002,35.501996600837L168.14347916666668,26.07246035902125L168.5657875,28.591425961400773L168.76328333333333,31.152062748859294L168.960825,31.149502880890225L169.38230833333333,33.68487542764527L169.803425,34.13403141520453L170.00192916666666,31.857942214668924L170.4251541666667,26.137722743135583L170.62118333333333,22.884408911633358L170.81991666666664,24.475847058986176L171.01819166666667,31.303926741297516L171.21669583333335,28.68515700453591L171.63717083333333,26.12051299542179L172.0532,29.048463537530893L172.24927499999998,29.63544782265697L172.44484583333332,33.90457913296828L172.8615625,28.584782466269246L173.27534583333335,24.921172426062583L173.69091666666665,28.987614818501584L174.1069,26.378855505125188L174.30370833333333,27.332160131950673L174.5005625,29.537029956196392L174.922,29.2553582624831L175.34201666666667,36.3387815548856L175.7652875,24.635462400060135L176.1832875,23.951482440319836L178.16035416666665,27.92980298601347L178.57890416666666,30.88108061746226L178.7758041666667,38.11297803401516L179.19815833333334,22.719974053967377L179.62000833333335,34.87721702191686L179.8171375,25.186897368494783L180.23770416666667,26.77259830264387L180.434375,24.89355668572884L180.630175,21.76615711321668L181.050375,29.235136911649903L181.47089583333334,35.728704770283315L181.89215,27.89584758916314L182.08868333333334,27.908863119162362L182.28604166666668,30.070462490896574L182.48390416666666,29.042577536180517L182.9034625,30.221506571891297L183.10049999999998,34.55924834341579L183.51923333333332,44.331133335301786L183.71338333333333,31.094943750330884L183.90987083333334,29.1547037215324L184.3279625,32.779746923300024L184.5251375,51.010557821603044L184.94538333333333,34.72689233664306L185.3630625,44.842007535403866L185.56124583333332,37.2568688333231L185.7587875,30.556785066670102L185.9557333333333,31.436904191310816L186.37584166666667,33.13721263370536L186.57315416666668,29.8010242875051L186.99165833333333,31.158326010662364L187.18667916666666,30.685440198652714L187.38137916666668,37.497293744666365L187.795025,32.56207106630163L188.20802916666668,33.16362184122738L188.62190416666667,29.189532153926393L188.81371666666666,29.804913359939775L189.00713333333331,32.38768672479563L189.20137499999998,24.624389360618636L189.6159375,26.92793951291455L189.80930833333335,30.56553506710557L190.00130416666667,25.404414043291496L190.41435416666667,29.017209909642304L190.60694583333333,26.166982020913906L190.79839166666667,32.66309083868467L193.839525,26.31592079865399L194.25899166666665,23.420075770251742L194.6802,27.936127831716504L194.87769583333335,25.318945283271063L195.2979875,30.31998057313703L195.4935583333333,28.37087584827546L195.69050416666667,21.592122787756153L196.10534166666665,26.57035690160012L196.299125,28.898710591899317L202.10717083333333,25.549727693555212L202.30815,26.460031476849622L211.78937083333335,25.472311023130516L212.21209166666665,66.45474147509778L212.63403333333335,46.7843611170876L212.83405000000002,26.061266729641233L213.26415,31.17547843577782L213.4660458333333,27.38839556508603L213.6673,29.61726394405366L214.0963,28.04081299760537L214.2987,31.14033051636244L231.6694875,25.663139875068424L231.86854166666666,26.131923859787065L232.29960416666665,27.351668897514855L232.50182083333334,27.370520458213036L232.7032125,24.56095909299134L232.90405416666667,24.82586596446515L233.10654583333334,22.238840527570062L233.3093125,31.319784093911096L233.51359166666668,25.351068405693184L233.94598333333334,29.614162830198836L234.14852083333335,25.243132098295064L234.35023333333334,22.909859357876257L234.5514875,22.859135268396017L234.9788375,25.656375170542333L235.40614166666666,22.99858379435159L235.6067541666667,25.544697484084736L235.8049375,25.309762527215526L236.00467916666668,24.90796651646309L251.34417916666666,24.46394568335674L251.53388333333334,23.426428683584504L251.7271625,23.049187980459777L251.91961666666668,28.482716900415426L252.08333333333331,26.194988571704897" style="fill: none;" fill="none"></path></g></g></g></g><g opacity="0.2"><g><g><g><path stroke="rgb(255, 112, 67)" stroke-width="2px" d="M23.1243375,156.3034083036085L23.318533333333335,154.67541241024932L23.500308333333333,153.75020587444305L23.907262499999998,147.88702961305776L24.308945833333333,140.44668218990168L24.713195833333334,135.88509292900562L28.5935375,114.41180501381558L28.595095833333332,117.21639945109686L28.7967625,112.18272600571315L29.210958333333334,116.14073970913887L29.404879166666667,112.19232066472371L29.60054166666667,112.68550196290016L30.01845,107.2705008983612L30.434983333333335,98.4774091243744L30.545395833333334,100.15349700053534L30.770483333333335,99.28207689523697L30.874616666666668,100.81648969650269L30.977695833333335,106.84899234771729L31.205258333333333,107.48578582207362L31.304579166666667,117.2551238934199L31.528291666666668,139.7371375213067L31.628804166666665,104.66714813311896L31.8525625,104.8770759900411L31.950691666666668,104.06659984588624L32.05271666666667,90.16702189048132L32.278079166666664,118.55641930301985L32.380608333333335,88.26630645990372L32.48226666666667,106.38684276739757L32.58255,92.05983652671179L32.8073625,96.10228264331819L33.031625,96.4785257379214L35.8051375,74.83732982476553L36.23785,84.113765001297L36.66758333333333,94.49964050451915L36.86874583333333,84.47474573055904L37.30260416666666,74.53310821453731L51.003929166666666,56.90103793144226L51.20518333333333,83.46025560299556L51.421425,55.06294274330139L51.62116666666667,54.92540562152864L52.047324999999994,57.74258975187938L52.24706666666667,58.81808245182037L54.34930416666667,62.281390964984894L62.00530416666667,49.71600397427878L62.20023333333334,52.990109562873855L76.49500833333333,46.03205347061157L97.93804166666666,31.697972853978484L98.1322375,39.70473631223044L98.34430833333333,72.42805057764055L98.75987916666666,45.32790982723236L98.95210416666667,39.55501977602643L99.146575,44.121843020121275L99.56200833333332,37.942882617314666L99.97482916666667,43.824543396631896L100.1693,37.62931251525879L100.3630375,34.093273321787535L100.55517083333332,35.6078813870748L100.74867916666668,37.00842026869455L100.94227916666667,39.64362823963165L101.35335833333333,38.78349665800732L101.54617916666666,38.911527037620544L101.95909166666668,41.31018006801605L102.37127083333333,30.696892976760864L102.56377083333334,44.943408409754426L102.97558333333333,37.16106736660004L103.1685875,43.05207077662152L108.44725833333334,33.57114100456238L113.02742916666666,44.79344570636749L113.44570416666666,42.45394313335419L113.6408625,36.3808228969574L113.83634166666666,40.80468161900839L114.25443333333332,42.45107118288675L114.44895,40.53868039449057L114.64410833333334,40.22738440831503L115.06247499999999,42.414368828137725L115.25850416666667,43.04019614060721L115.67984999999999,35.529354055722564L115.87899583333333,47.498061100641905L116.30350416666667,43.61681346098584L116.5033375,42.40438147385916L116.702025,45.889405449231475L117.1253875,42.52286994457245L117.3247625,47.04789165655774L117.74913333333333,38.63674585024518L118.17231249999999,51.479346394538894L118.59705,49.595018664995834L118.79578333333333,37.92460763454437L118.99414999999999,41.49437173207602L119.41650416666667,44.67665696144104L119.61331249999999,43.04996077219647L120.03319166666665,36.41895536581677L120.453575,46.29635496934256L120.65038333333332,49.95267613728842L120.84439583333334,40.81159774462381L121.26400000000001,43.949127435684204L121.68319166666666,36.942283352216094L125.47104166666666,39.297669569651276L125.88047083333333,34.58454096317291L126.07155,41.46606250603995L141.58122916666665,39.45464217662811L142.00569166666668,37.80255560080212L142.42309583333332,36.86087234814963L142.6242125,34.728712876637786L142.82455,39.206071933110564L143.02300833333334,38.04206454753876L143.45063333333334,33.80322976907095L143.8723,42.13355068365735L144.06910833333333,35.54910604159039L144.26724583333333,33.967235724131285L144.69189166666666,32.20680042107901L145.11548333333334,40.51688873767853L145.53586666666666,32.47909649213156L145.7325375,31.78107186158499L146.15227916666666,35.87885284423828L146.34711666666666,51.43033568064372L146.76493333333332,39.370675722757966L146.96022916666666,32.335123856862396L147.37855,34.182796120643616L147.57425833333335,41.523454626401275L147.76964583333333,33.877712925275176L148.18700416666667,34.3458760182063L148.38138333333333,34.24351735909781L148.800575,40.099154750506074L148.99591666666666,30.17929716904959L149.4131375,36.021395365397154L149.60825,30.797481576601683L150.02620416666664,34.603917837142944L150.44379166666667,78.0762276450793L150.64133333333334,46.1230181058248L150.83575833333333,40.275750398635864L151.0311,42.31326444943747L151.44997083333334,41.154836853345245L156.70824583333334,33.83164449532828L163.043925,31.772936622301756L163.4584416666667,28.734073082606017L163.64975,30.835449934005737L163.84408333333332,35.38476014137268L164.03924166666667,46.46696054935455L164.45504166666666,32.22016378243765L164.87019999999998,31.99711287021637L165.0710875,27.993391195933043L165.4899125,32.07405769824982L165.6868125,28.79350487391156L165.88504166666667,32.2128139336904L166.08382083333333,31.156827052434295L166.50709166666667,29.49195150534311L166.9294,39.502890944480896L167.35198333333332,29.808674891789764L167.54938750000002,27.65711510181427L167.74775416666665,31.725238800048828L167.94580000000002,35.94161375363669L168.14347916666668,25.071093678474426L168.5657875,28.85892673333487L168.76328333333333,31.423988779385894L168.960825,31.14923103650412L169.38230833333333,33.954118529955565L169.803425,34.181729396184295L170.00192916666666,31.616233627001463L170.4251541666667,25.53026580810547L170.62118333333333,22.53892425696057L170.81991666666664,24.644849340120942L171.01819166666667,32.029032548268646L171.21669583333335,28.407057563463866L171.63717083333333,25.848161419232696L172.0532,29.35939633846283L172.24927499999998,29.697782437006623L172.44484583333332,34.357938210169465L172.8615625,28.019848306973785L173.27534583333335,24.532116492589324L173.69091666666665,29.41944940884909L174.1069,26.101819117863982L174.30370833333333,27.433396021525084L174.5005625,29.771175424257933L174.922,29.225446224212646L175.34201666666667,37.09100349744162L175.7652875,23.392632047335326L176.1832875,23.87884740034741L178.16035416666665,28.352279504140228L178.57890416666666,31.194490631421417L178.7758041666667,38.880967140197754L179.19815833333334,21.08531876405081L179.62000833333335,36.16825167338055L179.8171375,24.15783687432608L180.23770416666667,26.940991322199523L180.434375,24.69401244322458L180.630175,21.434043884277344L181.050375,30.028302907943726L181.47089583333334,36.41828719774884L181.89215,27.064039746920287L182.08868333333334,27.910245299339294L182.28604166666668,30.300012866656004L182.48390416666666,28.93342161178589L182.9034625,30.346702575683594L183.10049999999998,35.019893487294524L183.51923333333332,45.36885563532513L183.71338333333333,29.68933069705963L183.90987083333334,28.948660532633482L184.3279625,33.16470726331076L184.5251375,52.946573138237L184.94538333333333,32.99765352408093L185.3630625,45.916179060935974L185.56124583333332,36.45136737823486L185.7587875,29.845271746317536L185.9557333333333,31.530368169148772L186.37584166666667,33.317776362101256L186.57315416666668,29.446738799413055L186.99165833333333,31.302464246749878L187.18667916666666,30.63522223631543L187.38137916666668,38.22067642211914L187.795025,32.03797662258148L188.20802916666668,33.227503339449555L188.62190416666667,28.767504930496216L188.81371666666666,29.87026357650757L189.00713333333331,32.66196354230246L189.20137499999998,23.799968401591002L189.6159375,27.17256430784863L189.80930833333335,30.951828400294005L190.00130416666667,24.856330394744873L190.41435416666667,29.400869647661864L190.60694583333333,25.86430295308432L190.79839166666667,33.35294310251871L193.839525,25.64188504219055L194.25899166666665,23.112552404403687L194.6802,28.415708581606566L194.87769583333335,25.041014393170684L195.2979875,30.8510639667511L195.4935583333333,28.163891275723785L195.69050416666667,20.872255206108093L196.10534166666665,27.099018931388855L196.299125,29.14596939086914L202.10717083333333,25.194083491961152L202.30815,26.556700905164092L211.78937083333335,25.367420355478913L212.21209166666665,70.8068579832713L212.63403333333335,44.69547116756439L212.83405000000002,23.860584139823914L213.26415,31.718580563863128L213.4660458333333,26.9862274726232L213.6673,29.853957931200682L214.0963,27.8734022776286L214.2987,31.469482819239317L231.6694875,25.081491311391204L231.86854166666666,26.1817062298457L232.29960416666665,27.481199343999236L232.50182083333334,27.372522393862425L232.7032125,24.262598594029754L232.90405416666667,24.853997667630523L233.10654583333334,21.964112162590027L233.3093125,32.28413208325705L233.51359166666668,24.717222491900117L233.94598333333334,30.0668808221817L234.14852083333335,24.77895184357962L234.35023333333334,22.662078181902558L234.5514875,22.85374863942465L234.9788375,25.95342719554901L235.40614166666666,22.71634046236676L235.6067541666667,25.815081238746643L235.8049375,25.28481368223825L236.00467916666668,24.86529791355133L251.34417916666666,24.41679302851361L251.53388333333334,23.316249887148558L251.7271625,23.009127020835876L251.91961666666668,29.059728821118682L252.08333333333331,25.952043970425933" style="fill: none;" fill="none"></path></g></g></g></g></g></g><g transform="translate(55, 177)" clip-path="url(#clip_1)"><clipPath id="clip_1"><rect width="275" height="23"></rect></clipPath><g><g><line x1="0" y1="0" x2="0" y2="5" style="visibility: inherit;" fill="rgb(0, 0, 0)" stroke="rgb(204, 204, 204)" stroke-width="1px"></line><line x1="22.916666666666664" y1="0" x2="22.916666666666664" y2="5" style="visibility: inherit;" fill="rgb(0, 0, 0)" stroke="rgb(204, 204, 204)" stroke-width="1px"></line><line x1="45.83333333333333" y1="0" x2="45.83333333333333" y2="5" style="visibility: inherit;" fill="rgb(0, 0, 0)" stroke="rgb(204, 204, 204)" stroke-width="1px"></line><line x1="68.75" y1="0" x2="68.75" y2="5" style="visibility: inherit;" fill="rgb(0, 0, 0)" stroke="rgb(204, 204, 204)" stroke-width="1px"></line><line x1="91.66666666666666" y1="0" x2="91.66666666666666" y2="5" style="visibility: inherit;" fill="rgb(0, 0, 0)" stroke="rgb(204, 204, 204)" stroke-width="1px"></line><line x1="114.58333333333334" y1="0" x2="114.58333333333334" y2="5" style="visibility: inherit;" fill="rgb(0, 0, 0)" stroke="rgb(204, 204, 204)" stroke-width="1px"></line><line x1="137.5" y1="0" x2="137.5" y2="5" style="visibility: inherit;" fill="rgb(0, 0, 0)" stroke="rgb(204, 204, 204)" stroke-width="1px"></line><line x1="160.41666666666669" y1="0" x2="160.41666666666669" y2="5" style="visibility: inherit;" fill="rgb(0, 0, 0)" stroke="rgb(204, 204, 204)" stroke-width="1px"></line><line x1="183.33333333333331" y1="0" x2="183.33333333333331" y2="5" style="visibility: inherit;" fill="rgb(0, 0, 0)" stroke="rgb(204, 204, 204)" stroke-width="1px"></line><line x1="206.25" y1="0" x2="206.25" y2="5" style="visibility: inherit;" fill="rgb(0, 0, 0)" stroke="rgb(204, 204, 204)" stroke-width="1px"></line><line x1="229.16666666666669" y1="0" x2="229.16666666666669" y2="5" style="visibility: inherit;" fill="rgb(0, 0, 0)" stroke="rgb(204, 204, 204)" stroke-width="1px"></line><line x1="252.08333333333331" y1="0" x2="252.08333333333331" y2="5" style="visibility: inherit;" fill="rgb(0, 0, 0)" stroke="rgb(204, 204, 204)" stroke-width="1px"></line><line x1="275" y1="0" x2="275" y2="5" style="visibility: inherit;" fill="rgb(0, 0, 0)" stroke="rgb(204, 204, 204)" stroke-width="1px"></line></g><g transform="translate(0, 8)"><text x="0" y="0" dx="0em" dy="0.95em" style="text-anchor: middle; visibility: hidden; font-family: &quot;Helvetica Neue&quot;, sans-serif; font-size: 12px; font-weight: 200;" fill="rgb(50, 49, 63)" stroke="none" stroke-width="1px">-500k</text><text x="22.916666666666664" y="0" dx="0em" dy="0.95em" style="text-anchor: middle; visibility: inherit; font-family: &quot;Helvetica Neue&quot;, sans-serif; font-size: 12px; font-weight: 200;" fill="rgb(50, 49, 63)" stroke="none" stroke-width="1px">0</text><text x="45.83333333333333" y="0" dx="0em" dy="0.95em" style="text-anchor: middle; visibility: hidden; font-family: &quot;Helvetica Neue&quot;, sans-serif; font-size: 12px; font-weight: 200;" fill="rgb(50, 49, 63)" stroke="none" stroke-width="1px">500k</text><text x="68.75" y="0" dx="0em" dy="0.95em" style="text-anchor: middle; visibility: inherit; font-family: &quot;Helvetica Neue&quot;, sans-serif; font-size: 12px; font-weight: 200;" fill="rgb(50, 49, 63)" stroke="none" stroke-width="1px">1M</text><text x="91.66666666666666" y="0" dx="0em" dy="0.95em" style="text-anchor: middle; visibility: hidden; font-family: &quot;Helvetica Neue&quot;, sans-serif; font-size: 12px; font-weight: 200;" fill="rgb(50, 49, 63)" stroke="none" stroke-width="1px">1.5M</text><text x="114.58333333333334" y="0" dx="0em" dy="0.95em" style="text-anchor: middle; visibility: inherit; font-family: &quot;Helvetica Neue&quot;, sans-serif; font-size: 12px; font-weight: 200;" fill="rgb(50, 49, 63)" stroke="none" stroke-width="1px">2M</text><text x="137.5" y="0" dx="0em" dy="0.95em" style="text-anchor: middle; visibility: hidden; font-family: &quot;Helvetica Neue&quot;, sans-serif; font-size: 12px; font-weight: 200;" fill="rgb(50, 49, 63)" stroke="none" stroke-width="1px">2.5M</text><text x="160.41666666666669" y="0" dx="0em" dy="0.95em" style="text-anchor: middle; visibility: inherit; font-family: &quot;Helvetica Neue&quot;, sans-serif; font-size: 12px; font-weight: 200;" fill="rgb(50, 49, 63)" stroke="none" stroke-width="1px">3M</text><text x="183.33333333333331" y="0" dx="0em" dy="0.95em" style="text-anchor: middle; visibility: hidden; font-family: &quot;Helvetica Neue&quot;, sans-serif; font-size: 12px; font-weight: 200;" fill="rgb(50, 49, 63)" stroke="none" stroke-width="1px">3.5M</text><text x="206.25" y="0" dx="0em" dy="0.95em" style="text-anchor: middle; visibility: inherit; font-family: &quot;Helvetica Neue&quot;, sans-serif; font-size: 12px; font-weight: 200;" fill="rgb(50, 49, 63)" stroke="none" stroke-width="1px">4M</text><text x="229.16666666666669" y="0" dx="0em" dy="0.95em" style="text-anchor: middle; visibility: hidden; font-family: &quot;Helvetica Neue&quot;, sans-serif; font-size: 12px; font-weight: 200;" fill="rgb(50, 49, 63)" stroke="none" stroke-width="1px">4.5M</text><text x="252.08333333333331" y="0" dx="0em" dy="0.95em" style="text-anchor: middle; visibility: inherit; font-family: &quot;Helvetica Neue&quot;, sans-serif; font-size: 12px; font-weight: 200;" fill="rgb(50, 49, 63)" stroke="none" stroke-width="1px">5M</text><text x="275" y="0" dx="0em" dy="0.95em" style="text-anchor: middle; visibility: hidden; font-family: &quot;Helvetica Neue&quot;, sans-serif; font-size: 12px; font-weight: 200;" fill="rgb(50, 49, 63)" stroke="none" stroke-width="1px">5.5M</text></g><line x1="0" y1="0" x2="275" y2="0" fill="rgb(0, 0, 0)" stroke="rgb(204, 204, 204)" stroke-width="1px"></line></g></g></g></g></svg>