<svg viewBox="0 0 330 200" xmlns="http://www.w3.org/2000/svg"><g><g><g><g><g><line x1="46" y1="177" x2="41" y2="177" style="visibility: inherit;" fill="rgb(0, 0, 0)" stroke="rgb(204, 204, 204)" stroke-width="1px"></line><line x1="46" y1="157.33333333333331" x2="41" y2="157.33333333333331" style="visibility: inherit;" fill="rgb(0, 0, 0)" stroke="rgb(204, 204, 204)" stroke-width="1px"></line><line x1="46" y1="137.66666666666666" x2="41" y2="137.66666666666666" style="visibility: inherit;" fill="rgb(0, 0, 0)" stroke="rgb(204, 204, 204)" stroke-width="1px"></line><line x1="46" y1="118" x2="41" y2="118" style="visibility: inherit;" fill="rgb(0, 0, 0)" stroke="rgb(204, 204, 204)" stroke-width="1px"></line><line x1="46" y1="98.33333333333331" x2="41" y2="98.33333333333331" style="visibility: inherit;" fill="rgb(0, 0, 0)" stroke="rgb(204, 204, 204)" stroke-width="1px"></line><line x1="46" y1="78.66666666666666" x2="41" y2="78.66666666666666" style="visibility: inherit;" fill="rgb(0, 0, 0)" stroke="rgb(204, 204, 204)" stroke-width="1px"></line><line x1="46" y1="59" x2="41" y2="59" style="visibility: inherit;" fill="rgb(0, 0, 0)" stroke="rgb(204, 204, 204)" stroke-width="1px"></line><line x1="46" y1="39.333333333333314" x2="41" y2="39.333333333333314" style="visibility: inherit;" fill="rgb(0, 0, 0)" stroke="rgb(204, 204, 204)" stroke-width="1px"></line><line x1="46" y1="19.66666666666663" x2="41" y2="19.66666666666663" style="visibility: inherit;" fill="rgb(0, 0, 0)" stroke="rgb(204, 204, 204)" stroke-width="1px"></line><line x1="46" y1="0" x2="41" y2="0" style="visibility: inherit;" fill="rgb(0, 0, 0)" stroke="rgb(204, 204, 204)" stroke-width="1px"></line></g><g transform="translate(36, 0)"><text x="0" y="177" dx="0em" dy="0.3em" style="text-anchor: end; visibility: hidden; font-family: &quot;Helvetica Neue&quot;, sans-serif; font-size: 12px; font-weight: 200;" fill="rgb(50, 49, 63)" stroke="none" stroke-width="1px">0.12</text><text x="0" y="157.33333333333331" dx="0em" dy="0.3em" style="text-anchor: end; visibility: inherit; font-family: &quot;Helvetica Neue&quot;, sans-serif; font-size: 12px; font-weight: 200;" fill="rgb(50, 49, 63)" stroke="none" stroke-width="1px">0.14</text><text x="0" y="137.66666666666666" dx="0em" dy="0.3em" style="text-anchor: end; visibility: hidden; font-family: &quot;Helvetica Neue&quot;, sans-serif; font-size: 12px; font-weight: 200;" fill="rgb(50, 49, 63)" stroke="none" stroke-width="1px">0.16</text><text x="0" y="118" dx="0em" dy="0.3em" style="text-anchor: end; visibility: inherit; font-family: &quot;Helvetica Neue&quot;, sans-serif; font-size: 12px; font-weight: 200;" fill="rgb(50, 49, 63)" stroke="none" stroke-width="1px">0.18</text><text x="0" y="98.33333333333331" dx="0em" dy="0.3em" style="text-anchor: end; visibility: hidden; font-family: &quot;Helvetica Neue&quot;, sans-serif; font-size: 12px; font-weight: 200;" fill="rgb(50, 49, 63)" stroke="none" stroke-width="1px">0.2</text><text x="0" y="78.66666666666666" dx="0em" dy="0.3em" style="text-anchor: end; visibility: inherit; font-family: &quot;Helvetica Neue&quot;, sans-serif; font-size: 12px; font-weight: 200;" fill="rgb(50, 49, 63)" stroke="none" stroke-width="1px">0.22</text><text x="0" y="59" dx="0em" dy="0.3em" style="text-anchor: end; visibility: hidden; font-family: &quot;Helvetica Neue&quot;, sans-serif; font-size: 12px; font-weight: 200;" fill="rgb(50, 49, 63)" stroke="none" stroke-width="1px">0.24</text><text x="0" y="39.333333333333314" dx="0em" dy="0.3em" style="text-anchor: end; visibility: inherit; font-family: &quot;Helvetica Neue&quot;, sans-serif; font-size: 12px; font-weight: 200;" fill="rgb(50, 49, 63)" stroke="none" stroke-width="1px">0.26</text><text x="0" y="19.66666666666663" dx="0em" dy="0.3em" style="text-anchor: end; visibility: hidden; font-family: &quot;Helvetica Neue&quot;, sans-serif; font-size: 12px; font-weight: 200;" fill="rgb(50, 49, 63)" stroke="none" stroke-width="1px">0.28</text><text x="0" y="0" dx="0em" dy="0.3em" style="text-anchor: end; visibility: hidden; font-family: &quot;Helvetica Neue&quot;, sans-serif; font-size: 12px; font-weight: 200;" fill="rgb(50, 49, 63)" stroke="none" stroke-width="1px">0.3</text></g><line x1="46" y1="0" x2="46" y2="177" fill="rgb(0, 0, 0)" stroke="rgb(204, 204, 204)" stroke-width="1px"></line></g></g><g transform="translate(46, 0)" clip-path="url(#clip_0)"><clipPath id="clip_0"><rect width="284" height="177"></rect></clipPath><g><g><g><line x1="0" y1="0" x2="0" y2="177" fill="rgb(0, 0, 0)" stroke="rgb(60, 60, 60)" stroke-width="1px" opacity="0.25"></line><line x1="23.666666666666664" y1="0" x2="23.666666666666664" y2="177" fill="rgb(0, 0, 0)" stroke="rgb(60, 60, 60)" stroke-width="1px" opacity="0.25"></line><line x1="47.33333333333333" y1="0" x2="47.33333333333333" y2="177" fill="rgb(0, 0, 0)" stroke="rgb(60, 60, 60)" stroke-width="1px" opacity="0.25"></line><line x1="71" y1="0" x2="71" y2="177" fill="rgb(0, 0, 0)" stroke="rgb(60, 60, 60)" stroke-width="1px" opacity="0.25"></line><line x1="94.66666666666666" y1="0" x2="94.66666666666666" y2="177" fill="rgb(0, 0, 0)" stroke="rgb(60, 60, 60)" stroke-width="1px" opacity="0.25"></line><line x1="118.33333333333334" y1="0" x2="118.33333333333334" y2="177" fill="rgb(0, 0, 0)" stroke="rgb(60, 60, 60)" stroke-width="1px" opacity="0.25"></line><line x1="142" y1="0" x2="142" y2="177" fill="rgb(0, 0, 0)" stroke="rgb(60, 60, 60)" stroke-width="1px" opacity="0.25"></line><line x1="165.66666666666669" y1="0" x2="165.66666666666669" y2="177" fill="rgb(0, 0, 0)" stroke="rgb(60, 60, 60)" stroke-width="1px" opacity="0.25"></line><line x1="189.33333333333331" y1="0" x2="189.33333333333331" y2="177" fill="rgb(0, 0, 0)" stroke="rgb(60, 60, 60)" stroke-width="1px" opacity="0.25"></line><line x1="213" y1="0" x2="213" y2="177" fill="rgb(0, 0, 0)" stroke="rgb(60, 60, 60)" stroke-width="1px" opacity="0.25"></line><line x1="236.66666666666669" y1="0" x2="236.66666666666669" y2="177" fill="rgb(0, 0, 0)" stroke="rgb(60, 60, 60)" stroke-width="1px" opacity="0.25"></line><line x1="260.3333333333333" y1="0" x2="260.3333333333333" y2="177" fill="rgb(0, 0, 0)" stroke="rgb(60, 60, 60)" stroke-width="1px" opacity="0.25"></line><line x1="284" y1="0" x2="284" y2="177" fill="rgb(0, 0, 0)" stroke="rgb(60, 60, 60)" stroke-width="1px" opacity="0.25"></line></g><g><line x1="0" y1="177" x2="284" y2="177" fill="rgb(0, 0, 0)" stroke="rgb(60, 60, 60)" stroke-width="1px" opacity="0.25"></line><line x1="0" y1="157.33333333333331" x2="284" y2="157.33333333333331" fill="rgb(0, 0, 0)" stroke="rgb(60, 60, 60)" stroke-width="1px" opacity="0.25"></line><line x1="0" y1="137.66666666666666" x2="284" y2="137.66666666666666" fill="rgb(0, 0, 0)" stroke="rgb(60, 60, 60)" stroke-width="1px" opacity="0.25"></line><line x1="0" y1="118" x2="284" y2="118" fill="rgb(0, 0, 0)" stroke="rgb(60, 60, 60)" stroke-width="1px" opacity="0.25"></line><line x1="0" y1="98.33333333333331" x2="284" y2="98.33333333333331" fill="rgb(0, 0, 0)" stroke="rgb(60, 60, 60)" stroke-width="1px" opacity="0.25"></line><line x1="0" y1="78.66666666666666" x2="284" y2="78.66666666666666" fill="rgb(0, 0, 0)" stroke="rgb(60, 60, 60)" stroke-width="1px" opacity="0.25"></line><line x1="0" y1="59" x2="284" y2="59" fill="rgb(0, 0, 0)" stroke="rgb(60, 60, 60)" stroke-width="1px" opacity="0.25"></line><line x1="0" y1="39.333333333333314" x2="284" y2="39.333333333333314" fill="rgb(0, 0, 0)" stroke="rgb(60, 60, 60)" stroke-width="1px" opacity="0.25"></line><line x1="0" y1="19.66666666666663" x2="284" y2="19.66666666666663" fill="rgb(0, 0, 0)" stroke="rgb(60, 60, 60)" stroke-width="1px" opacity="0.25"></line><line x1="0" y1="0" x2="284" y2="0" fill="rgb(0, 0, 0)" stroke="rgb(60, 60, 60)" stroke-width="1px" opacity="0.25"></line></g></g></g><g><g><line x1="0" y1="295" x2="284" y2="295" fill="rgb(0, 0, 0)" stroke="rgb(153, 153, 153)" stroke-width="1.5px"></line></g></g><g><g><line x1="23.666666666666664" y1="0" x2="23.666666666666664" y2="177" fill="rgb(0, 0, 0)" stroke="rgb(153, 153, 153)" stroke-width="1.5px"></line></g></g><g><g><g><g><g><path stroke="rgb(255, 112, 67)" stroke-width="2px" d="M25.521991333333332,197.19135694058397L29.529326,147.94315235273717L29.530935333333332,148.77889219906663L29.739202000000002,144.3464551102492L30.166953333333336,134.89560494223105L30.367220666666665,137.7591811615639L30.569286666666667,132.03780907946947L31.000872,137.91755762399845L31.431037333333332,124.3258383596276L31.545063333333335,129.45004682079315L31.777517333333332,129.32378677718037L31.885058666666666,128.69349500324773L31.991511333333335,125.41849348381655L32.22652133333333,133.07852062672185L32.32909266666667,139.37744701243065L32.56012666666667,183.19246634340598L32.66392866666666,136.83212932220744L32.89501,124.59254237773098L32.996350666666665,124.71571662689408L33.101714666666666,115.70220514488076L33.334452666666664,124.2331361414768L33.44033733333333,113.30682039356337L33.54532266666667,142.48656324435495L33.648888,125.01174181999131L33.881058,112.63975626855024L34.11266,112.6883872751035L36.976942,91.55152938313773L37.423816,103.12220182447194L37.86761333333333,95.64037503418467L38.07535933333333,96.59119939322515L38.52341666666666,91.86072502185368L52.67314866666667,65.56694571803357L52.88098933333333,73.4280601946961L53.104307999999996,70.84458096877846L53.31058666666667,62.993044809394945L53.750691999999994,60.199325718249696L53.95697066666667,69.3891765145714L56.128008666666666,61.06062003661714L64.03456866666667,54.202983485402584L64.23587733333333,52.12284956638736L78.99848133333333,48.523204010421125L101.14328666666667,41.377732637566965L101.343838,48.789834134948336L101.56284933333333,50.55229155372035L101.99202066666666,44.354293685579734L102.19053666666667,47.09741885977658L102.391372,47.978929686245294L102.82040133333334,46.70357364568997L103.24673266666666,52.453801896798325L103.447568,44.47503219445176L103.64764600000001,42.163643278661965L103.84606733333332,45.58896831715745L104.04590866666668,48.51412222024089L104.24584466666667,47.249509970572404L104.67037733333333,40.26636881878156L104.86950866666666,41.63597213419297L105.29593466666667,48.13463458667627L105.72160333333332,41.5876824014191L105.92040333333334,49.24271417755574L106.34569333333333,45.5885553373642L106.545014,44.434139334491846L111.99644133333334,45.12693215243007L116.72650866666666,48.03704188314944L117.15847266666667,43.432852423395644L117.360018,41.13631131374419L117.56189466666666,49.693913902480006L117.99366933333333,47.239130511662694L118.194552,53.06156643547513L118.39609733333333,44.347931645696576L118.82815599999999,49.32223891439931L119.03060066666667,44.916212418291934L119.46573599999999,36.147874958541934L119.67139933333333,44.26964428827543L120.10980066666667,45.48205900920743L120.31617399999999,46.711152981503744L120.521364,42.56375681868715L120.958582,46.121910566340944L121.164482,47.761667921948515L121.60274133333333,41.67551706200993L122.03976999999999,42.20397523082045L122.47840799999999,49.734589908317005L122.68364533333335,40.6903824372732L122.888504,40.19305690126711L123.32468066666667,46.01796283467334L123.52793,39.839054888862364L123.96155066666665,43.82035431509445L124.395692,45.43892717178204L124.59894133333333,48.00518692094377L124.79930333333334,42.873430021341534L125.23264,43.988041359685496L125.66555066666666,40.695078102286914L129.57736666666668,43.71708659911502L130.00019533333332,38.38182915075714L130.197528,38.36417578505589L146.21479666666667,40.4024659279319L146.65315066666668,42.761739615758216L147.08421533333333,38.29011584035493L147.291914,45.40255562754814L147.498808,43.4271941713896L147.70376133333335,39.65217407352836L148.14538133333335,39.96974943794291L148.580848,41.112938832013555L148.78409733333334,36.895489345623815L148.98871933333334,39.7669406804053L149.42726266666668,37.87897568215632L149.86471733333335,40.6649721229264L150.29885866666666,37.470655351297296L150.501966,32.589526352190916L150.93544466666665,38.42628552613931L151.13665866666668,43.128390622868494L151.56814933333334,37.459864606482284L151.76983666666666,36.05026287063177L152.201848,32.82406056298342L152.40396133333334,36.84156730194741L152.60574333333332,38.89631443365718L153.03676066666668,35.19907286308063L153.23750133333334,39.54225172173989L153.670412,47.624552022207894L153.87214666666665,37.70605015635064L154.303022,37.92840911265648L154.50452,39.12429070788994L154.93615266666666,40.5990764209287L155.36740666666668,48.09689908226639L155.57141333333334,46.529452763239846L155.77220133333333,42.11358873245621L155.973936,40.02059930073182L156.40651533333332,38.64513717985815L161.83687933333334,43.02576092122075L168.37990800000003,37.51184513146532L168.80799066666668,30.429856244698982L169.00556,33.82992855125832L169.20625333333334,30.818202523149637L169.40779866666668,37.08172979540103L169.83720666666667,34.96306625374456L170.265952,26.97067996330415L170.47341400000002,35.22874708935481L170.905946,33.54881180219476L171.10929000000002,36.54022503969756L171.31400666666667,36.76559422643439L171.5192913333333,35.98361291414716L171.95641466666666,31.82857297620089L172.392544,41.19683562224159L172.82895733333334,40.7980407327064L173.032822,34.26893642870252L173.23768066666665,40.565660783126475L173.44220800000002,37.64656740714466L173.6463566666667,33.78092255270258L174.082486,41.32245469752226L174.28644533333332,35.12289692353875L174.490452,32.17866910638014L174.92572933333332,34.554178911662035L175.360628,36.51310082180174L175.56562866666667,35.77390111055644L176.0027046666667,33.97206496944429L176.20514933333334,23.59921735453642L176.41038666666665,30.94878289962901L176.61515066666666,32.64340389064003L176.82015133333334,32.80608750577704L177.25438733333334,29.298126218823683L177.684032,33.16494463536975L177.88652399999998,30.136193257478567L178.08849533333333,35.77988879412723L178.51885,33.107190056511854L178.94617533333334,28.894307198416584L179.37534666666664,39.24607962280507L179.804944,32.20360275657336L180.00819333333334,26.396686062702827L180.21149000000003,35.482729079770024L180.64672,30.853231913482034L181.08048266666665,32.75787045637463L181.51760599999997,29.10802494533513L181.949286,31.415795452004403L183.99105666666665,36.89181979576165L184.42330466666667,36.922986783421294L184.62664866666668,40.75864313311601L185.06282533333334,30.24701750351639L185.49848133333333,32.39058846814501L185.70206199999998,28.26914912025103L186.13639266666667,31.82979472213742L186.3395,26.731692380333357L186.541708,24.944126451965104L186.97566,32.8087671418148L187.40994333333333,35.97464940296007L187.84498399999998,33.74405788470557L188.04794933333335,31.18087732037469L188.25176666666667,34.14930549533261L188.45610466666665,37.77240756966697L188.88939399999998,35.152984288201L189.09287999999998,38.4869315435281L189.52531733333333,39.54880075018997L189.72582133333333,33.407199120230416L189.92873933333334,33.74486157837296L190.36051400000002,33.220912848672356L190.564142,36.261494311627814L190.99814133333334,37.6042858070949L191.42949000000002,39.21678783868299L191.63415933333332,39.000696144779084L191.838166,32.67457729202391L192.04155733333332,30.769121778604386L192.47541466666667,37.324270472456305L192.67918466666669,35.295435563614774L193.11138533333335,34.72974903115181L193.31278866666668,32.2645663691157L193.5138606666667,38.88964720938296L193.941044,36.37296794497843L194.36756466666668,33.34957159946177L194.79498466666666,31.328452581459487L194.99307466666667,36.5125164989752L195.1928213333333,37.56655096073902L195.39342,31.17691827445981L195.82155,32.04713407687797L196.02124933333334,36.76698235928134L196.21952866666666,30.605628339378768L196.64609666666666,31.12684051255502L196.84499133333333,35.87499093061456L197.04270266666668,36.08356094221665L200.183364,35.052687988307014L200.61655866666666,31.739204183320254L201.051552,35.19196757285752L201.25551133333335,29.40353124485867L201.689558,34.72049054223356L201.89152933333332,35.16908565844034L202.09492066666667,28.72133079498758L202.52333466666664,36.69495767275146L202.72346,31.031438834749537L208.72158733333333,25.91323994499359L208.929144,25.236446907108842L218.72065933333334,33.33136125484967L219.15721466666665,39.98112221709553L219.59296533333335,36.663195490187036L219.799528,28.802958854771816L220.243704,28.17201559817667L220.45220733333332,30.027790451122172L220.660048,30.329557805131884L221.103088,28.00948369253831L221.31211199999998,27.91039603813408L239.251398,26.664515511541907L239.45696666666666,28.708535307377105L239.90213666666665,32.05744823284746L240.11097133333334,26.07356982355222L240.31895400000002,25.313671551791685L240.52636866666666,26.84795482613066L240.73548733333334,33.11517412613938L240.94489000000002,35.44770014777288L241.15585466666667,29.551721032455305L241.60239733333333,26.14210541718748L241.81156333333334,24.887526103503063L242.01987733333334,28.228858919332453L242.227718,25.706025249454797L242.669054,24.969301867805456L243.11034266666667,24.218572637080115L243.31752066666667,27.42282911640538L243.52219,25.56681341203256L243.72846866666669,26.37772509537274L259.56998866666663,23.426525052307852L259.7659013333333,29.26311146156806L259.965506,20.983559983670034L260.1642586666667,26.18501168705933L260.3333333333333,24.45892024013321" style="fill: none;" fill="none"></path></g></g></g></g><g opacity="0.2"><g><g><g><path stroke="rgb(255, 112, 67)" stroke-width="2px" d="M25.521991333333332,195.84608594576517L29.529326,142.71325861414272L29.530935333333332,148.86764332652092L29.739202000000002,143.87575382987657L30.166953333333336,133.8919748365879L30.367220666666665,138.06327775120735L30.569286666666667,131.43022974332172L31.000872,138.54195569952327L31.431037333333332,122.88246994217236L31.545063333333335,129.99421055118242L31.777517333333332,129.310378630956L31.885058666666666,128.6265613635381L31.991511333333335,125.07070571184158L32.22652133333333,133.8919748365879L32.32909266666667,140.04635954896608L32.56012666666667,187.84538875023523L32.66392866666666,131.90890769163767L32.89501,123.29276323318481L32.996350666666665,124.72879707813263L33.101714666666666,114.74501808484395L33.334452666666664,125.13907571633655L33.44033733333333,112.1465036769708L33.54532266666667,145.58529699842134L33.648888,123.15600857138634L33.881058,111.3259170949459L34.11266,112.69355162978172L36.976942,89.30690730611482L37.423816,104.35094580054283L37.86761333333333,94.84584475557008L38.07535933333333,96.69217189153035L38.52341666666666,91.35837376117706L52.67314866666667,62.77468596895535L52.88098933333333,74.26286881168683L53.104307999999996,70.57022919257481L53.31058666666667,62.15925335884094L53.750691999999994,59.90264758467674L53.95697066666667,70.36508987347283L56.128008666666666,60.176171561082185L64.03456866666667,53.4747388958931L64.23587733333333,51.90195038914679L78.99848133333333,48.140940765539796L101.14328666666667,40.618921518325806L101.343838,49.576959957679094L101.56284933333333,50.73945517341295L101.99202066666666,43.69609922170639L102.19053666666667,47.38872418800989L102.391372,48.072541455427796L102.82040133333334,46.568137605985015L103.24673266666666,53.064445604880646L103.447568,43.627729217211396L103.64764600000001,41.91818604866663L103.84606733333332,45.95271964867908L104.04590866666668,48.8247580329577L104.24584466666667,47.115214864412934L104.67037733333333,39.524796307086945L104.86950866666666,41.78141673405963L105.29593466666667,48.8247580329577L105.72160333333332,40.89243084192276L105.92040333333334,50.05563790599503L106.34569333333333,45.20050307114917L106.545014,44.311546484629304L111.99644133333334,45.20050307114917L116.72650866666666,48.346080084641784L117.15847266666667,42.94391194979349L117.360018,40.89243084192276L117.56189466666666,50.602685858805955L117.99366933333333,46.97844554980594L118.194552,53.67987821499506L118.39609733333333,43.422589898109436L118.82815599999999,49.850483934084565L119.03060066666667,44.4483157992363L119.46573599999999,35.216724077860505L119.67139933333333,45.132133066654205L120.10980066666667,45.610811014970125L120.31617399999999,46.841676235198975L120.521364,42.12332536776859L120.958582,46.49976760149002L121.164482,47.935801446437836L121.60274133333333,41.029200156529726L122.03976999999999,42.26009468237558L122.47840799999999,50.53430120150247L122.68364533333335,39.729935626188905L122.888504,40.14024357000986L123.32468066666667,46.636536916096986L123.52793,39.18288767337799L123.96155066666665,44.243147174517304L124.395692,45.610811014970125L124.59894133333333,48.27771008014679L124.79930333333334,42.328464686870575L125.23264,44.106407165527344L125.66555066666666,40.34538288911182L129.57736666666668,44.038007855415344L130.00019533333332,37.815253138542175L130.197528,38.36230109135309L146.21479666666667,40.618921518325806L146.65315066666668,43.01228195428848L147.08421533333333,37.815253138542175L147.291914,46.15785896778107L147.498808,43.21742127339044L147.70376133333335,39.25128698348999L148.14538133333335,40.003474255402864L148.580848,41.234339475631714L148.78409733333334,36.44761860370636L148.98871933333334,40.07187356551486L149.42726266666668,37.67848382393518L149.86471733333335,40.96083015203476L150.29885866666666,37.13143587112427L150.501966,32.071176369984926L150.93544466666665,39.046118358771L151.13665866666668,43.627729217211396L151.56814933333334,36.85789724191031L151.76983666666666,35.90057065089542L152.201848,32.481455008188874L152.40396133333334,37.26820518573123L152.60574333333332,39.114517668882996L153.03676066666668,34.806445439656585L153.23750133333334,40.003474255402864L153.670412,48.48284939924875L153.87214666666665,36.65275792280832L154.303022,37.95202245314914L154.50452,39.25128698348999L154.93615266666666,40.75569083293277L155.36740666666668,48.8931280374527L155.57141333333334,46.36299828688303L155.77220133333333,41.64464741945267L155.973936,39.798334936300904L156.40651533333332,38.49907040596008L161.83687933333334,43.49095990260443L168.37990800000003,36.92629655202228L168.80799066666668,29.677786628405244L169.00556,34.19099817673364L169.20625333333334,30.498373210430145L169.40779866666668,37.74688313404718L169.83720666666667,34.73807543516159L170.265952,26.12193097670874L170.47341400000002,36.105709969997406L170.905946,33.37041159470874L171.10929000000002,36.85789724191031L171.31400666666667,36.789527237415314L171.5192913333333,35.90057065089542L171.95641466666666,31.387329796950013L172.392544,42.19169537226358L172.82895733333334,40.75569083293277L173.032822,33.575580219427735L173.23768066666665,41.234339475631714L173.44220800000002,37.33657519022623L173.6463566666667,33.37041159470874L174.082486,42.12332536776859L174.28644533333332,34.4645368059476L174.490452,31.86600774526596L174.92572933333332,34.806445439656585L175.360628,36.721127927303314L175.56562866666667,35.69540202617645L176.0027046666667,33.78071953852972L176.20514933333334,22.497676014900208L176.41038666666665,31.729267736276L176.61515066666666,32.82336364189783L176.82015133333334,32.82336364189783L177.25438733333334,28.92559935649237L177.684032,33.575580219427735L177.88652399999998,29.814555943012238L178.08849533333333,36.37921929359436L178.51885,32.82336364189783L178.94617533333334,28.446921408176394L179.37534666666664,40.34538288911182L179.804944,31.455729107062012L180.00819333333334,25.780022342999757L180.21149000000003,36.44761860370636L180.64672,30.36160389582315L181.08048266666665,32.96013295650482L181.51760599999997,28.720430731773348L181.949286,31.660868426163972L183.99105666666665,37.47334450483322L184.42330466666667,36.92629655202228L184.62664866666668,41.16596947113672L185.06282533333334,29.13073867559433L185.49848133333333,32.61822432279587L185.70206199999998,27.83147414525348L186.13639266666667,32.207916378974915L186.3395,26.190300981203706L186.541708,24.754296441872896L186.97566,33.64395022392273L187.40994333333333,36.310849289099366L187.84498399999998,33.507180909315736L188.04794933333335,30.9086811542511L188.25176666666667,34.4645368059476L188.45610466666665,38.15716177225113L188.88939399999998,34.87481544415155L189.09287999999998,38.84097903966904L189.52531733333333,39.66156562169394L189.72582133333333,32.75499363740286L189.92873933333334,33.78071953852972L190.36051400000002,33.16527227560678L190.564142,36.584387918313354L190.99814133333334,37.74688313404718L191.42949000000002,39.38802699247995L191.63415933333332,38.977748354276L191.838166,32.002777059872955L192.04155733333332,30.566772520542145L192.47541466666667,38.020392457644135L192.67918466666669,35.079984068870544L193.11138533333335,34.66967612504959L193.31278866666668,32.002777059872955L193.5138606666667,39.593195617198944L193.941044,36.105709969997406L194.36756466666668,33.028502960999816L194.79498466666666,31.11382047335306L194.99307466666667,37.06303656101227L195.1928213333333,37.67848382393518L195.39342,30.498373210430145L195.82155,32.13954637447992L196.02124933333334,37.26820518573123L196.21952866666666,29.95132525761923L196.64609666666666,31.182190477848053L196.84499133333333,36.37921929359436L197.04270266666668,36.105709969997406L200.183364,34.94321475426355L200.61655866666666,31.387329796950013L201.051552,35.55863271156946L201.25551133333335,28.788830041885376L201.689558,35.285123387972504L201.89152933333332,35.216724077860505L202.09492066666667,28.03661346435547L202.52333466666664,37.54171450932819L202.72346,30.43000320593515L208.72158733333333,25.369714399178832L208.929144,25.164575080076844L218.72065933333334,34.19099817673364L219.15721466666665,40.6872915228208L219.59296533333335,36.310849289099366L219.799528,27.968243459860474L220.243704,28.10501277446747L220.45220733333332,30.22486388683319L220.660048,30.36160389582315L221.103088,27.763104140758514L221.31211199999998,27.89987345536551L239.251398,26.53220961491266L239.45696666666666,28.92559935649237L239.90213666666665,32.41308500369388L240.11097133333334,25.438113709290803L240.31895400000002,25.232974390188843L240.52636866666666,27.010887563228607L240.73548733333334,33.78071953852972L240.94489000000002,35.69540202617645L241.15585466666667,28.92559935649237L241.60239733333333,25.780022342999757L241.81156333333334,24.754296441872896L242.01987733333334,28.583690722783388L242.227718,25.438113709290803L242.669054,24.89106575647989L243.11034266666667,24.138849178949982L243.31752066666667,27.763104140758514L243.52219,25.369714399178832L243.72846866666669,26.463839610417665L259.56998866666663,23.11312327782312L259.7659013333333,29.882925947507204L259.965506,20.10431557893753L260.1642586666667,26.737378239631653L260.3333333333333,24.275618493556976" style="fill: none;" fill="none"></path></g></g></g></g></g></g><g transform="translate(46, 177)" clip-path="url(#clip_1)"><clipPath id="clip_1"><rect width="284" height="23"></rect></clipPath><g><g><line x1="0" y1="0" x2="0" y2="5" style="visibility: inherit;" fill="rgb(0, 0, 0)" stroke="rgb(204, 204, 204)" stroke-width="1px"></line><line x1="23.666666666666664" y1="0" x2="23.666666666666664" y2="5" style="visibility: inherit;" fill="rgb(0, 0, 0)" stroke="rgb(204, 204, 204)" stroke-width="1px"></line><line x1="47.33333333333333" y1="0" x2="47.33333333333333" y2="5" style="visibility: inherit;" fill="rgb(0, 0, 0)" stroke="rgb(204, 204, 204)" stroke-width="1px"></line><line x1="71" y1="0" x2="71" y2="5" style="visibility: inherit;" fill="rgb(0, 0, 0)" stroke="rgb(204, 204, 204)" stroke-width="1px"></line><line x1="94.66666666666666" y1="0" x2="94.66666666666666" y2="5" style="visibility: inherit;" fill="rgb(0, 0, 0)" stroke="rgb(204, 204, 204)" stroke-width="1px"></line><line x1="118.33333333333334" y1="0" x2="118.33333333333334" y2="5" style="visibility: inherit;" fill="rgb(0, 0, 0)" stroke="rgb(204, 204, 204)" stroke-width="1px"></line><line x1="142" y1="0" x2="142" y2="5" style="visibility: inherit;" fill="rgb(0, 0, 0)" stroke="rgb(204, 204, 204)" stroke-width="1px"></line><line x1="165.66666666666669" y1="0" x2="165.66666666666669" y2="5" style="visibility: inherit;" fill="rgb(0, 0, 0)" stroke="rgb(204, 204, 204)" stroke-width="1px"></line><line x1="189.33333333333331" y1="0" x2="189.33333333333331" y2="5" style="visibility: inherit;" fill="rgb(0, 0, 0)" stroke="rgb(204, 204, 204)" stroke-width="1px"></line><line x1="213" y1="0" x2="213" y2="5" style="visibility: inherit;" fill="rgb(0, 0, 0)" stroke="rgb(204, 204, 204)" stroke-width="1px"></line><line x1="236.66666666666669" y1="0" x2="236.66666666666669" y2="5" style="visibility: inherit;" fill="rgb(0, 0, 0)" stroke="rgb(204, 204, 204)" stroke-width="1px"></line><line x1="260.3333333333333" y1="0" x2="260.3333333333333" y2="5" style="visibility: inherit;" fill="rgb(0, 0, 0)" stroke="rgb(204, 204, 204)" stroke-width="1px"></line><line x1="284" y1="0" x2="284" y2="5" style="visibility: inherit;" fill="rgb(0, 0, 0)" stroke="rgb(204, 204, 204)" stroke-width="1px"></line></g><g transform="translate(0, 8)"><text x="0" y="0" dx="0em" dy="0.95em" style="text-anchor: middle; visibility: hidden; font-family: &quot;Helvetica Neue&quot;, sans-serif; font-size: 12px; font-weight: 200;" fill="rgb(50, 49, 63)" stroke="none" stroke-width="1px">-500k</text><text x="23.666666666666664" y="0" dx="0em" dy="0.95em" style="text-anchor: middle; visibility: inherit; font-family: &quot;Helvetica Neue&quot;, sans-serif; font-size: 12px; font-weight: 200;" fill="rgb(50, 49, 63)" stroke="none" stroke-width="1px">0</text><text x="47.33333333333333" y="0" dx="0em" dy="0.95em" style="text-anchor: middle; visibility: hidden; font-family: &quot;Helvetica Neue&quot;, sans-serif; font-size: 12px; font-weight: 200;" fill="rgb(50, 49, 63)" stroke="none" stroke-width="1px">500k</text><text x="71" y="0" dx="0em" dy="0.95em" style="text-anchor: middle; visibility: inherit; font-family: &quot;Helvetica Neue&quot;, sans-serif; font-size: 12px; font-weight: 200;" fill="rgb(50, 49, 63)" stroke="none" stroke-width="1px">1M</text><text x="94.66666666666666" y="0" dx="0em" dy="0.95em" style="text-anchor: middle; visibility: hidden; font-family: &quot;Helvetica Neue&quot;, sans-serif; font-size: 12px; font-weight: 200;" fill="rgb(50, 49, 63)" stroke="none" stroke-width="1px">1.5M</text><text x="118.33333333333334" y="0" dx="0em" dy="0.95em" style="text-anchor: middle; visibility: inherit; font-family: &quot;Helvetica Neue&quot;, sans-serif; font-size: 12px; font-weight: 200;" fill="rgb(50, 49, 63)" stroke="none" stroke-width="1px">2M</text><text x="142" y="0" dx="0em" dy="0.95em" style="text-anchor: middle; visibility: hidden; font-family: &quot;Helvetica Neue&quot;, sans-serif; font-size: 12px; font-weight: 200;" fill="rgb(50, 49, 63)" stroke="none" stroke-width="1px">2.5M</text><text x="165.66666666666669" y="0" dx="0em" dy="0.95em" style="text-anchor: middle; visibility: inherit; font-family: &quot;Helvetica Neue&quot;, sans-serif; font-size: 12px; font-weight: 200;" fill="rgb(50, 49, 63)" stroke="none" stroke-width="1px">3M</text><text x="189.33333333333331" y="0" dx="0em" dy="0.95em" style="text-anchor: middle; visibility: hidden; font-family: &quot;Helvetica Neue&quot;, sans-serif; font-size: 12px; font-weight: 200;" fill="rgb(50, 49, 63)" stroke="none" stroke-width="1px">3.5M</text><text x="213" y="0" dx="0em" dy="0.95em" style="text-anchor: middle; visibility: inherit; font-family: &quot;Helvetica Neue&quot;, sans-serif; font-size: 12px; font-weight: 200;" fill="rgb(50, 49, 63)" stroke="none" stroke-width="1px">4M</text><text x="236.66666666666669" y="0" dx="0em" dy="0.95em" style="text-anchor: middle; visibility: hidden; font-family: &quot;Helvetica Neue&quot;, sans-serif; font-size: 12px; font-weight: 200;" fill="rgb(50, 49, 63)" stroke="none" stroke-width="1px">4.5M</text><text x="260.3333333333333" y="0" dx="0em" dy="0.95em" style="text-anchor: middle; visibility: inherit; font-family: &quot;Helvetica Neue&quot;, sans-serif; font-size: 12px; font-weight: 200;" fill="rgb(50, 49, 63)" stroke="none" stroke-width="1px">5M</text><text x="284" y="0" dx="0em" dy="0.95em" style="text-anchor: middle; visibility: hidden; font-family: &quot;Helvetica Neue&quot;, sans-serif; font-size: 12px; font-weight: 200;" fill="rgb(50, 49, 63)" stroke="none" stroke-width="1px">5.5M</text></g><line x1="0" y1="0" x2="284" y2="0" fill="rgb(0, 0, 0)" stroke="rgb(204, 204, 204)" stroke-width="1px"></line></g></g></g></g></svg>