<svg viewBox="0 0 330 200" xmlns="http://www.w3.org/2000/svg"><g><g><g><g><g><line x1="46" y1="177" x2="41" y2="177" style="visibility: inherit;" fill="rgb(0, 0, 0)" stroke="rgb(204, 204, 204)" stroke-width="1px"></line><line x1="46" y1="162.25" x2="41" y2="162.25" style="visibility: inherit;" fill="rgb(0, 0, 0)" stroke="rgb(204, 204, 204)" stroke-width="1px"></line><line x1="46" y1="147.49999999999997" x2="41" y2="147.49999999999997" style="visibility: inherit;" fill="rgb(0, 0, 0)" stroke="rgb(204, 204, 204)" stroke-width="1px"></line><line x1="46" y1="132.75" x2="41" y2="132.75" style="visibility: inherit;" fill="rgb(0, 0, 0)" stroke="rgb(204, 204, 204)" stroke-width="1px"></line><line x1="46" y1="118" x2="41" y2="118" style="visibility: inherit;" fill="rgb(0, 0, 0)" stroke="rgb(204, 204, 204)" stroke-width="1px"></line><line x1="46" y1="103.24999999999999" x2="41" y2="103.24999999999999" style="visibility: inherit;" fill="rgb(0, 0, 0)" stroke="rgb(204, 204, 204)" stroke-width="1px"></line><line x1="46" y1="88.50000000000001" x2="41" y2="88.50000000000001" style="visibility: inherit;" fill="rgb(0, 0, 0)" stroke="rgb(204, 204, 204)" stroke-width="1px"></line><line x1="46" y1="73.75000000000001" x2="41" y2="73.75000000000001" style="visibility: inherit;" fill="rgb(0, 0, 0)" stroke="rgb(204, 204, 204)" stroke-width="1px"></line><line x1="46" y1="59" x2="41" y2="59" style="visibility: inherit;" fill="rgb(0, 0, 0)" stroke="rgb(204, 204, 204)" stroke-width="1px"></line><line x1="46" y1="44.25000000000003" x2="41" y2="44.25000000000003" style="visibility: inherit;" fill="rgb(0, 0, 0)" stroke="rgb(204, 204, 204)" stroke-width="1px"></line><line x1="46" y1="29.5" x2="41" y2="29.5" style="visibility: inherit;" fill="rgb(0, 0, 0)" stroke="rgb(204, 204, 204)" stroke-width="1px"></line><line x1="46" y1="14.75" x2="41" y2="14.75" style="visibility: inherit;" fill="rgb(0, 0, 0)" stroke="rgb(204, 204, 204)" stroke-width="1px"></line><line x1="46" y1="0" x2="41" y2="0" style="visibility: inherit;" fill="rgb(0, 0, 0)" stroke="rgb(204, 204, 204)" stroke-width="1px"></line></g><g transform="translate(36, 0)"><text x="0" y="177" dx="0em" dy="0.3em" style="text-anchor: end; visibility: hidden; font-family: &quot;Helvetica Neue&quot;, sans-serif; font-size: 12px; font-weight: 200;" fill="rgb(50, 49, 63)" stroke="none" stroke-width="1px">0.3</text><text x="0" y="162.25" dx="0em" dy="0.3em" style="text-anchor: end; visibility: inherit; font-family: &quot;Helvetica Neue&quot;, sans-serif; font-size: 12px; font-weight: 200;" fill="rgb(50, 49, 63)" stroke="none" stroke-width="1px">0.32</text><text x="0" y="147.49999999999997" dx="0em" dy="0.3em" style="text-anchor: end; visibility: hidden; font-family: &quot;Helvetica Neue&quot;, sans-serif; font-size: 12px; font-weight: 200;" fill="rgb(50, 49, 63)" stroke="none" stroke-width="1px">0.34</text><text x="0" y="132.75" dx="0em" dy="0.3em" style="text-anchor: end; visibility: inherit; font-family: &quot;Helvetica Neue&quot;, sans-serif; font-size: 12px; font-weight: 200;" fill="rgb(50, 49, 63)" stroke="none" stroke-width="1px">0.36</text><text x="0" y="118" dx="0em" dy="0.3em" style="text-anchor: end; visibility: hidden; font-family: &quot;Helvetica Neue&quot;, sans-serif; font-size: 12px; font-weight: 200;" fill="rgb(50, 49, 63)" stroke="none" stroke-width="1px">0.38</text><text x="0" y="103.24999999999999" dx="0em" dy="0.3em" style="text-anchor: end; visibility: inherit; font-family: &quot;Helvetica Neue&quot;, sans-serif; font-size: 12px; font-weight: 200;" fill="rgb(50, 49, 63)" stroke="none" stroke-width="1px">0.4</text><text x="0" y="88.50000000000001" dx="0em" dy="0.3em" style="text-anchor: end; visibility: hidden; font-family: &quot;Helvetica Neue&quot;, sans-serif; font-size: 12px; font-weight: 200;" fill="rgb(50, 49, 63)" stroke="none" stroke-width="1px">0.42</text><text x="0" y="73.75000000000001" dx="0em" dy="0.3em" style="text-anchor: end; visibility: inherit; font-family: &quot;Helvetica Neue&quot;, sans-serif; font-size: 12px; font-weight: 200;" fill="rgb(50, 49, 63)" stroke="none" stroke-width="1px">0.44</text><text x="0" y="59" dx="0em" dy="0.3em" style="text-anchor: end; visibility: hidden; font-family: &quot;Helvetica Neue&quot;, sans-serif; font-size: 12px; font-weight: 200;" fill="rgb(50, 49, 63)" stroke="none" stroke-width="1px">0.46</text><text x="0" y="44.25000000000003" dx="0em" dy="0.3em" style="text-anchor: end; visibility: inherit; font-family: &quot;Helvetica Neue&quot;, sans-serif; font-size: 12px; font-weight: 200;" fill="rgb(50, 49, 63)" stroke="none" stroke-width="1px">0.48</text><text x="0" y="29.5" dx="0em" dy="0.3em" style="text-anchor: end; visibility: hidden; font-family: &quot;Helvetica Neue&quot;, sans-serif; font-size: 12px; font-weight: 200;" fill="rgb(50, 49, 63)" stroke="none" stroke-width="1px">0.5</text><text x="0" y="14.75" dx="0em" dy="0.3em" style="text-anchor: end; visibility: inherit; font-family: &quot;Helvetica Neue&quot;, sans-serif; font-size: 12px; font-weight: 200;" fill="rgb(50, 49, 63)" stroke="none" stroke-width="1px">0.52</text><text x="0" y="0" dx="0em" dy="0.3em" style="text-anchor: end; visibility: hidden; font-family: &quot;Helvetica Neue&quot;, sans-serif; font-size: 12px; font-weight: 200;" fill="rgb(50, 49, 63)" stroke="none" stroke-width="1px">0.54</text></g><line x1="46" y1="0" x2="46" y2="177" fill="rgb(0, 0, 0)" stroke="rgb(204, 204, 204)" stroke-width="1px"></line></g></g><g transform="translate(46, 0)" clip-path="url(#clip_0)"><clipPath id="clip_0"><rect width="284" height="177"></rect></clipPath><g><g><g><line x1="0" y1="0" x2="0" y2="177" fill="rgb(0, 0, 0)" stroke="rgb(60, 60, 60)" stroke-width="1px" opacity="0.25"></line><line x1="23.666666666666664" y1="0" x2="23.666666666666664" y2="177" fill="rgb(0, 0, 0)" stroke="rgb(60, 60, 60)" stroke-width="1px" opacity="0.25"></line><line x1="47.33333333333333" y1="0" x2="47.33333333333333" y2="177" fill="rgb(0, 0, 0)" stroke="rgb(60, 60, 60)" stroke-width="1px" opacity="0.25"></line><line x1="71" y1="0" x2="71" y2="177" fill="rgb(0, 0, 0)" stroke="rgb(60, 60, 60)" stroke-width="1px" opacity="0.25"></line><line x1="94.66666666666666" y1="0" x2="94.66666666666666" y2="177" fill="rgb(0, 0, 0)" stroke="rgb(60, 60, 60)" stroke-width="1px" opacity="0.25"></line><line x1="118.33333333333334" y1="0" x2="118.33333333333334" y2="177" fill="rgb(0, 0, 0)" stroke="rgb(60, 60, 60)" stroke-width="1px" opacity="0.25"></line><line x1="142" y1="0" x2="142" y2="177" fill="rgb(0, 0, 0)" stroke="rgb(60, 60, 60)" stroke-width="1px" opacity="0.25"></line><line x1="165.66666666666669" y1="0" x2="165.66666666666669" y2="177" fill="rgb(0, 0, 0)" stroke="rgb(60, 60, 60)" stroke-width="1px" opacity="0.25"></line><line x1="189.33333333333331" y1="0" x2="189.33333333333331" y2="177" fill="rgb(0, 0, 0)" stroke="rgb(60, 60, 60)" stroke-width="1px" opacity="0.25"></line><line x1="213" y1="0" x2="213" y2="177" fill="rgb(0, 0, 0)" stroke="rgb(60, 60, 60)" stroke-width="1px" opacity="0.25"></line><line x1="236.66666666666669" y1="0" x2="236.66666666666669" y2="177" fill="rgb(0, 0, 0)" stroke="rgb(60, 60, 60)" stroke-width="1px" opacity="0.25"></line><line x1="260.3333333333333" y1="0" x2="260.3333333333333" y2="177" fill="rgb(0, 0, 0)" stroke="rgb(60, 60, 60)" stroke-width="1px" opacity="0.25"></line><line x1="284" y1="0" x2="284" y2="177" fill="rgb(0, 0, 0)" stroke="rgb(60, 60, 60)" stroke-width="1px" opacity="0.25"></line></g><g><line x1="0" y1="177" x2="284" y2="177" fill="rgb(0, 0, 0)" stroke="rgb(60, 60, 60)" stroke-width="1px" opacity="0.25"></line><line x1="0" y1="162.25" x2="284" y2="162.25" fill="rgb(0, 0, 0)" stroke="rgb(60, 60, 60)" stroke-width="1px" opacity="0.25"></line><line x1="0" y1="147.49999999999997" x2="284" y2="147.49999999999997" fill="rgb(0, 0, 0)" stroke="rgb(60, 60, 60)" stroke-width="1px" opacity="0.25"></line><line x1="0" y1="132.75" x2="284" y2="132.75" fill="rgb(0, 0, 0)" stroke="rgb(60, 60, 60)" stroke-width="1px" opacity="0.25"></line><line x1="0" y1="118" x2="284" y2="118" fill="rgb(0, 0, 0)" stroke="rgb(60, 60, 60)" stroke-width="1px" opacity="0.25"></line><line x1="0" y1="103.24999999999999" x2="284" y2="103.24999999999999" fill="rgb(0, 0, 0)" stroke="rgb(60, 60, 60)" stroke-width="1px" opacity="0.25"></line><line x1="0" y1="88.50000000000001" x2="284" y2="88.50000000000001" fill="rgb(0, 0, 0)" stroke="rgb(60, 60, 60)" stroke-width="1px" opacity="0.25"></line><line x1="0" y1="73.75000000000001" x2="284" y2="73.75000000000001" fill="rgb(0, 0, 0)" stroke="rgb(60, 60, 60)" stroke-width="1px" opacity="0.25"></line><line x1="0" y1="59" x2="284" y2="59" fill="rgb(0, 0, 0)" stroke="rgb(60, 60, 60)" stroke-width="1px" opacity="0.25"></line><line x1="0" y1="44.25000000000003" x2="284" y2="44.25000000000003" fill="rgb(0, 0, 0)" stroke="rgb(60, 60, 60)" stroke-width="1px" opacity="0.25"></line><line x1="0" y1="29.5" x2="284" y2="29.5" fill="rgb(0, 0, 0)" stroke="rgb(60, 60, 60)" stroke-width="1px" opacity="0.25"></line><line x1="0" y1="14.75" x2="284" y2="14.75" fill="rgb(0, 0, 0)" stroke="rgb(60, 60, 60)" stroke-width="1px" opacity="0.25"></line><line x1="0" y1="0" x2="284" y2="0" fill="rgb(0, 0, 0)" stroke="rgb(60, 60, 60)" stroke-width="1px" opacity="0.25"></line></g></g></g><g><g><line x1="0" y1="398.25" x2="284" y2="398.25" fill="rgb(0, 0, 0)" stroke="rgb(153, 153, 153)" stroke-width="1.5px"></line></g></g><g><g><line x1="23.666666666666664" y1="0" x2="23.666666666666664" y2="177" fill="rgb(0, 0, 0)" stroke="rgb(153, 153, 153)" stroke-width="1.5px"></line></g></g><g><g><g><g><g><path stroke="rgb(255, 112, 67)" stroke-width="2px" d="M25.521991333333332,209.90240385538374L29.529326,165.13702109562743L29.530935333333332,159.8195618662924L29.739202000000002,150.5001120348876L30.166953333333336,154.98354282413825L30.367220666666665,151.24127934459196L30.569286666666667,146.61663948948896L31.000872,146.07994446809832L31.431037333333332,137.59034648075647L31.545063333333335,137.19261831823343L31.777517333333332,129.82907655456862L31.885058666666666,130.28126668273848L31.991511333333335,135.70277490135615L32.22652133333333,137.84593806592616L32.32909266666667,148.3906441565065L32.56012666666667,210.92663812009772L32.66392866666666,145.48470217918708L32.89501,136.60594700640235L32.996350666666665,141.68806204794956L33.101714666666666,131.41972929010308L33.334452666666664,158.80811283256483L33.44033733333333,121.5188666073235L33.54532266666667,148.7704873210216L33.648888,122.82704023171445L33.881058,114.86562188031576L34.11266,127.96387368243916L36.976942,97.97264425986002L37.423816,108.26057216897769L37.86761333333333,104.10190946638599L38.07535933333333,106.34538190165046L38.52341666666666,98.91085174641503L52.67314866666667,75.20109133061077L52.88098933333333,70.97771230615264L53.104307999999996,79.24213736953935L53.31058666666667,73.45197920878184L53.750691999999994,69.74343700027887L53.95697066666667,77.54730342764037L56.128008666666666,74.86561866289462L64.03456866666667,64.87194693356618L64.23587733333333,62.197126476664394L78.99848133333333,58.18494412207119L101.14328666666667,48.48079799917079L101.343838,53.02004740219759L101.56284933333333,96.06340530796668L101.99202066666666,54.24983148816473L102.19053666666667,49.86482988945795L102.391372,53.709272166278026L102.82040133333334,52.08472186805595L103.24673266666666,58.14140949426347L103.447568,50.56296502700164L103.64764600000001,44.78186017158097L103.84606733333332,44.134144510157086L104.04590866666668,49.72825055888434L104.24584466666667,48.735315959283014L104.67037733333333,43.864608837068374L104.86950866666666,46.22516432944778L105.29593466666667,50.85626454536329L105.72160333333332,46.20090124727176L105.92040333333334,50.62210136661139L106.34569333333333,51.185640905627466L106.545014,50.173380159194835L111.99644133333334,47.43351894203238L116.72650866666666,50.415908885558494L117.15847266666667,47.966784670120234L117.360018,47.54622942403941L117.56189466666666,49.63855733556363L117.99366933333333,51.13757554169446L118.194552,48.54606750867458L118.39609733333333,48.71455598176644L118.82815599999999,51.60522911434282L119.03060066666667,54.24724900387275L119.46573599999999,45.08919657031305L119.67139933333333,56.49620811880551L120.10980066666667,48.55049339651197L120.31617399999999,49.92040599831972L120.521364,47.455588285636L120.958582,49.67621064932452L121.164482,53.45935066557058L121.60274133333333,49.97440292109596L122.03976999999999,53.024349016351266L122.47840799999999,54.89346748482254L122.68364533333335,44.03851813925843L122.888504,46.19548489020207L123.32468066666667,54.97971342193216L123.52793,48.265825447260994L123.96155066666665,49.38309490483468L124.395692,54.86845073907516L124.59894133333333,43.804302478012005L124.79930333333334,45.523912888805995L125.23264,51.391656972722146L125.66555066666666,45.41777230098302L129.57736666666668,48.83149301688141L130.00019533333332,43.31748413198497L130.197528,46.07991076245625L146.21479666666667,46.25237412367795L146.65315066666668,47.79891925584275L147.08421533333333,41.68836840143777L147.291914,42.724473764205925L147.498808,40.459424610229036L147.70376133333335,39.917436242489L148.14538133333335,38.19633225134737L148.580848,46.42280680123014L148.78409733333334,42.66897701102076L148.98871933333334,43.83859800064809L149.42726266666668,47.010839045419004L149.86471733333335,46.2490136435388L150.29885866666666,46.91769529817827L150.501966,40.3519710379251L150.93544466666665,44.72886096324831L151.13665866666668,47.142659152876206L151.56814933333334,43.66533905139744L151.76983666666666,39.85428564762702L152.201848,39.90569776512686L152.40396133333334,46.07692292019607L152.60574333333332,41.291242699561025L153.03676066666668,39.99729077906488L153.23750133333334,42.42302598489863L153.670412,45.159496291812474L153.87214666666665,39.0241136650406L154.303022,42.65414463091054L154.50452,40.73084193013494L154.93615266666666,41.890734329740894L155.36740666666668,95.319534901969L155.57141333333334,55.19840573911121L155.77220133333333,43.696893699664344L155.973936,43.01000191893087L156.40651533333332,42.944060307980465L161.83687933333334,41.17594707939537L168.37990800000003,45.54977955644941L168.80799066666668,38.412493560529356L169.00556,40.69454193938415L169.20625333333334,44.112680341080306L169.40779866666668,43.97719352033383L169.83720666666667,38.725153408371625L170.265952,39.98276026076542L170.47341400000002,37.41443160083435L170.905946,35.49879894164232L171.10929000000002,37.26216010010913L171.31400666666667,41.325926820403765L171.5192913333333,36.89428829264321L171.95641466666666,37.488836803900426L172.392544,47.74577156020325L172.82895733333334,40.385111496031925L173.032822,33.836742187040386L173.23768066666665,44.335213047218105L173.44220800000002,38.38862477094668L173.6463566666667,31.883296627498368L174.082486,39.00139836084338L174.28644533333332,42.00287666379117L174.490452,39.27743588336344L174.92572933333332,41.05576518828681L175.360628,41.18011006930354L175.56562866666667,37.20483353349579L176.0027046666667,35.80322117613605L176.20514933333334,33.58233990693748L176.41038666666665,36.24363354425398L176.61515066666666,39.837263949113634L176.82015133333334,38.28136530648686L177.25438733333334,35.62839930964091L177.684032,40.79818727251302L177.88652399999998,37.81725624292028L178.08849533333333,42.39920186003582L178.51885,35.05008067190701L178.94617533333334,30.867334363818202L179.37534666666664,35.56571976785281L179.804944,34.16225233740275L180.00819333333334,35.65021783966225L180.21149000000003,35.83943726013507L180.64672,35.11578543128053L181.08048266666665,47.749792551294775L181.51760599999997,32.225611031798934L181.949286,32.21890352315887L183.99105666666665,36.25182810976236L184.42330466666667,37.38080576329625L184.62664866666668,39.15826072587416L185.06282533333334,34.646220727723886L185.49848133333333,41.260255831261844L185.70206199999998,35.54345441880517L186.13639266666667,34.39192891754885L186.3395,33.44685585011311L186.541708,30.435255864223734L186.97566,38.81603158452137L187.40994333333333,40.77965632194329L187.84498399999998,36.934575920094574L188.04794933333335,34.52547658167262L188.25176666666667,37.86416331451605L188.45610466666665,38.55557575287483L188.88939399999998,36.02562202449997L189.09287999999998,40.41904740887773L189.52531733333333,37.317230708702L189.72582133333333,36.694912656526895L189.92873933333334,37.74788552874389L190.36051400000002,36.68990065620332L190.564142,47.85453288063144L190.99814133333334,38.8192090702579L191.42949000000002,47.08533541071441L191.63415933333332,40.8316925960379L191.838166,37.03230099771113L192.04155733333332,36.25028616001009L192.47541466666667,39.884257463273826L192.67918466666669,37.82224857653688L193.11138533333335,36.41885072288085L193.31278866666668,40.27133817331523L193.5138606666667,42.310250076395505L193.941044,39.72419710602685L194.36756466666668,41.701366831322986L194.79498466666666,38.692133236833655L194.99307466666667,38.58870600236972L195.1928213333333,39.923286577533304L195.39342,34.7196632094832L195.82155,36.631005367208985L196.02124933333334,36.99993353574939L196.21952866666666,34.43902131747194L196.64609666666666,36.789503066974646L196.84499133333333,32.74976675383925L197.04270266666668,39.40912314193028L200.183364,38.240263788997254L200.61655866666666,35.068095861349065L201.051552,35.45900990125878L201.25551133333335,35.63562210744129L201.689558,38.52709498760271L201.89152933333332,41.030087325341384L202.09492066666667,34.36228797396345L202.52333466666664,35.85488045137913L202.72346,38.872667568370616L208.72158733333333,34.665178516859555L208.929144,34.863972133574975L218.72065933333334,35.81031253539834L219.15721466666665,37.19933580980617L219.59296533333335,31.12003758931246L219.799528,32.76183590138825L220.243704,37.27758056494699L220.45220733333332,37.618362457345114L220.660048,37.187449411705984L221.103088,31.1188964950949L221.31211199999998,34.24536014278331L239.251398,34.360041462354275L239.45696666666666,34.88103383939006L239.90213666666665,37.8055672159534L240.11097133333334,34.65546647833102L240.31895400000002,33.240341402293524L240.52636866666666,34.86627222892773L240.73548733333334,34.883277129933504L240.94489000000002,34.374926630073105L241.15585466666667,34.557939035741214L241.60239733333333,34.06550538712003L241.81156333333334,30.77281513647867L242.01987733333334,29.4831057947508L242.227718,30.93563721048008L242.669054,32.83686306032388L243.11034266666667,31.48941196162974L243.31752066666667,33.12183949008892L243.52219,34.483997533350305L243.72846866666669,29.65392011424342L259.56998866666663,32.25019011177582L259.7659013333333,32.82397568049714L259.965506,30.097270582030006L260.1642586666667,37.71722445525265L260.3333333333333,36.03786989523178" style="fill: none;" fill="none"></path></g></g></g></g><g opacity="0.2"><g><g><g><path stroke="rgb(255, 112, 67)" stroke-width="2px" d="M25.521991333333332,207.61804562807083L29.529326,160.3831788599491L29.530935333333332,159.254875972867L29.739202000000002,149.5104359537363L30.166953333333336,155.45965936779976L30.367220666666665,150.84387083351612L30.569286666666667,146.12552729249L31.000872,146.02295030653477L31.431037333333332,136.68879625201225L31.545063333333335,137.15038169920444L31.777517333333332,129.04710751771927L31.885058666666666,130.3292868733406L31.991511333333335,136.27851028740406L32.22652133333333,138.07353061437607L32.32909266666667,149.5104359537363L32.56012666666667,217.56762862950563L32.66392866666666,138.53511606156826L32.89501,135.6630703508854L32.996350666666665,142.22775568068027L33.101714666666666,130.3292868733406L33.334452666666664,161.71661373972893L33.44033733333333,117.55894665420055L33.54532266666667,151.66446474194527L33.648888,120.07198390364647L33.881058,114.02016152441502L34.11266,129.35483847558498L36.976942,94.78773494064808L37.423816,109.35309548676014L37.86761333333333,103.66028156876565L38.07535933333333,106.58362676203252L38.52341666666666,98.12134411931038L52.67314866666667,72.68324066698553L52.88098933333333,70.52921187877655L53.104307999999996,80.11977542936802L53.31058666666667,72.83709515631199L53.750691999999994,69.34960950911046L53.95697066666667,78.37603260576726L56.128008666666666,74.58083797991277L64.03456866666667,63.810672059655204L64.23587733333333,61.91307474672794L78.99848133333333,57.7588716596365L101.14328666666667,47.45026920735836L101.343838,53.50209158658983L101.56284933333333,100.6343813687563L101.99202066666666,49.80945196747781L102.19053666666667,49.399166002869634L102.391372,54.11753152310848L102.82040133333334,51.912203252315535L103.24673266666666,58.78459756076336L103.447568,49.758174464106574L103.64764600000001,44.16793753206733L103.84606733333332,44.06536054611206L104.04590866666668,50.32231491804124L104.24584466666667,48.62987157702449L104.67037733333333,43.347365602850914L104.86950866666666,46.4758427888155L105.29593466666667,51.348062798380866L105.72160333333332,45.70652638375762L105.92040333333334,51.09160934388639L106.34569333333333,51.24548581242561L106.545014,50.06588344275953L111.99644133333334,47.142560228705435L116.72650866666666,50.73262286186218L117.15847266666667,47.706700682640076L117.360018,47.50156868994236L117.56189466666666,49.86075145006181L117.99366933333333,51.296763315796866L118.194552,48.270863115787506L118.39609733333333,48.73244856297973L118.82815599999999,51.912203252315535L119.03060066666667,54.52781748771669L119.46573599999999,44.11666002869606L119.67139933333333,57.7075721770525L120.10980066666667,47.706700682640076L120.31617399999999,50.06588344275953L120.521364,47.193837732076645L120.958582,49.912028953433065L121.164482,53.86110004782677L121.60274133333333,49.6043199747801L122.03976999999999,53.348237097263336L122.47840799999999,55.091957941651344L122.68364533333335,42.88578015565875L122.888504,46.4245433062315L123.32468066666667,55.91255185008049L123.52793,47.55284619331363L123.96155066666665,49.50174298882486L124.395692,55.45096640288831L124.59894133333333,42.629348680377035L124.79930333333334,45.70652638375762L125.23264,52.01478023827076L125.66555066666666,44.783377468585996L129.57736666666668,49.19401203095914L130.00019533333332,42.73192566633227L130.197528,46.37326580286029L146.21479666666667,46.27068881690505L146.65315066666668,47.96315413713458L147.08421533333333,41.03946034610274L147.291914,42.83450265228748L147.498808,40.21888841688633L147.70376133333335,39.859879955649404L148.14538133333335,38.0135601460934L148.580848,47.29641471803191L148.78409733333334,42.27034021914005L148.98871933333334,43.96280553936961L149.42726266666668,47.34771420061591L149.86471733333335,46.16811183094978L150.29885866666666,46.98870573937893L150.501966,39.6547259837389L150.93544466666665,45.19366343319419L151.13665866666668,47.39899170398715L151.56814933333334,43.296066120266914L151.76983666666666,39.44957201182845L152.201848,39.911157459020615L152.40396133333334,46.732274264097214L152.60574333333332,40.78302887082103L153.03676066666668,39.859879955649404L153.23750133333334,42.680626183748274L153.670412,45.450094908475904L153.87214666666665,38.37256860733032L154.303022,43.0396346449852L154.50452,40.52659739553931L154.93615266666666,42.01390874385834L155.36740666666668,100.99338982999325L155.57141333333334,50.9377548545599L155.77220133333333,42.47549419105056L155.973936,42.93705765902999L156.40651533333332,42.93705765902999L161.83687933333334,40.988182842731476L168.37990800000003,46.014257341623335L168.80799066666668,37.65455168485644L169.00556,40.936883360147476L169.20625333333334,44.47566848993304L169.40779866666668,43.96280553936961L169.83720666666667,38.167414635419874L170.265952,40.11631143093112L170.47341400000002,37.14168873429301L170.905946,35.295368924737005L171.10929000000002,37.44941969215873L171.31400666666667,41.75747726857662L171.5192913333333,36.423671811819105L171.95641466666666,37.55197469890118L172.392544,48.835003569722204L172.82895733333334,39.60344848036769L173.032822,33.141340136528015L173.23768066666665,45.450094908475904L173.44220800000002,37.75712867081168L173.6463566666667,31.19246532022956L174.082486,39.757302969694166L174.28644533333332,42.32161772251132L174.490452,38.98800854384902L174.92572933333332,41.24461431801319L175.360628,41.19331483542919L175.56562866666667,36.78268027305603L176.0027046666667,35.65437738597396L176.20514933333334,33.34649410843852L176.41038666666665,36.526248797774315L176.61515066666666,40.21888841688633L176.82015133333334,38.11613713204861L177.25438733333334,35.346668407321005L177.684032,41.34719130396846L177.88652399999998,37.500697195529966L178.08849533333333,42.88578015565875L178.51885,34.26964302361014L178.94617533333334,30.42314891517165L179.37534666666664,36.06466335058215L179.804944,34.01321154832843L180.00819333333334,35.808231875300436L180.21149000000003,35.859531357884435L180.64672,35.03893744945529L181.08048266666665,49.091457024216666L181.51760599999997,30.57702538371086L181.949286,32.21819122135642L183.99105666666665,36.68010328710082L184.42330466666667,37.500697195529966L184.62664866666668,39.34701700508597L185.06282533333334,34.16706603765488L185.49848133333333,41.96263124048713L185.70206199999998,34.93636046350002L186.13639266666667,34.26964302361014L186.3395,33.34649410843852L186.541708,30.115439936518698L186.97566,39.7060254663229L187.40994333333333,40.988182842731476L187.84498399999998,36.526248797774315L188.04794933333335,34.26964302361014L188.25176666666667,38.218714118003874L188.45610466666665,38.62900008261204L188.88939399999998,35.75695437192917L189.09287999999998,40.885605856776266L189.52531733333333,36.987834244966535L189.72582133333333,36.62882578372958L189.92873933333334,37.85970565676689L190.36051400000002,36.577548280358315L190.564142,49.04015754163267L190.99814133333334,37.85970565676689L191.42949000000002,47.96315413713458L191.63415933333332,40.16758893430233L191.838166,36.62882578372958L192.04155733333332,36.16724033653739L192.47541466666667,40.2701659202576L192.67918466666669,37.603274181485176L193.11138533333335,36.2698173224926L193.31278866666668,40.68045188486576L193.5138606666667,42.52677169442177L193.941044,39.44957201182845L194.36756466666668,41.91133175790313L194.79498466666666,38.37256860733032L194.99307466666667,38.57772257924083L195.1928213333333,40.06501194834712L195.39342,34.16706603765488L195.82155,36.83397975564003L196.02124933333334,37.039111748337746L196.21952866666666,34.16706603765488L196.64609666666666,37.039111748337746L196.84499133333333,32.32076820731166L197.04270266666668,40.11631143093112L200.183364,38.11613713204861L200.61655866666666,34.73122847080231L201.051552,35.50052289664745L201.25551133333335,35.65437738597396L201.689558,38.83415405452254L201.89152933333332,41.29589182138446L202.09492066666667,33.654203087091446L202.52333466666664,36.013385847210884L202.72346,39.193140536546736L208.72158733333333,34.218365520238876L208.929144,34.88508296012881L218.72065933333334,35.910808861255674L219.15721466666665,37.34684270620346L219.59296533333335,30.47444839775565L219.799528,32.93618616461757L220.243704,37.75712867081168L220.45220733333332,37.65455168485644L220.660048,37.14168873429301L221.103088,30.47444839775565L221.31211199999998,34.57737398147586L239.251398,34.37222000956538L239.45696666666666,34.93636046350002L239.90213666666665,38.11613713204861L240.11097133333334,34.32094250619414L240.31895400000002,33.090062633156805L240.52636866666666,35.03893744945529L240.73548733333334,34.88508296012881L240.94489000000002,34.32094250619414L241.15585466666667,34.57737398147586L241.60239733333333,34.01321154832843L241.81156333333334,30.42314891517165L242.01987733333334,29.34614551067355L242.227718,31.089888334274292L242.669054,33.038763150572805L243.11034266666667,31.346319809556007L243.31752066666667,33.29519462585452L243.52219,34.6286514848471L243.72846866666669,29.140991538763075L259.56998866666663,32.525900200009374L259.7659013333333,32.8849086612463L259.965506,29.807708978652983L260.1642586666667,38.52642309665683L260.3333333333333,35.859531357884435" style="fill: none;" fill="none"></path></g></g></g></g></g></g><g transform="translate(46, 177)" clip-path="url(#clip_1)"><clipPath id="clip_1"><rect width="284" height="23"></rect></clipPath><g><g><line x1="0" y1="0" x2="0" y2="5" style="visibility: inherit;" fill="rgb(0, 0, 0)" stroke="rgb(204, 204, 204)" stroke-width="1px"></line><line x1="23.666666666666664" y1="0" x2="23.666666666666664" y2="5" style="visibility: inherit;" fill="rgb(0, 0, 0)" stroke="rgb(204, 204, 204)" stroke-width="1px"></line><line x1="47.33333333333333" y1="0" x2="47.33333333333333" y2="5" style="visibility: inherit;" fill="rgb(0, 0, 0)" stroke="rgb(204, 204, 204)" stroke-width="1px"></line><line x1="71" y1="0" x2="71" y2="5" style="visibility: inherit;" fill="rgb(0, 0, 0)" stroke="rgb(204, 204, 204)" stroke-width="1px"></line><line x1="94.66666666666666" y1="0" x2="94.66666666666666" y2="5" style="visibility: inherit;" fill="rgb(0, 0, 0)" stroke="rgb(204, 204, 204)" stroke-width="1px"></line><line x1="118.33333333333334" y1="0" x2="118.33333333333334" y2="5" style="visibility: inherit;" fill="rgb(0, 0, 0)" stroke="rgb(204, 204, 204)" stroke-width="1px"></line><line x1="142" y1="0" x2="142" y2="5" style="visibility: inherit;" fill="rgb(0, 0, 0)" stroke="rgb(204, 204, 204)" stroke-width="1px"></line><line x1="165.66666666666669" y1="0" x2="165.66666666666669" y2="5" style="visibility: inherit;" fill="rgb(0, 0, 0)" stroke="rgb(204, 204, 204)" stroke-width="1px"></line><line x1="189.33333333333331" y1="0" x2="189.33333333333331" y2="5" style="visibility: inherit;" fill="rgb(0, 0, 0)" stroke="rgb(204, 204, 204)" stroke-width="1px"></line><line x1="213" y1="0" x2="213" y2="5" style="visibility: inherit;" fill="rgb(0, 0, 0)" stroke="rgb(204, 204, 204)" stroke-width="1px"></line><line x1="236.66666666666669" y1="0" x2="236.66666666666669" y2="5" style="visibility: inherit;" fill="rgb(0, 0, 0)" stroke="rgb(204, 204, 204)" stroke-width="1px"></line><line x1="260.3333333333333" y1="0" x2="260.3333333333333" y2="5" style="visibility: inherit;" fill="rgb(0, 0, 0)" stroke="rgb(204, 204, 204)" stroke-width="1px"></line><line x1="284" y1="0" x2="284" y2="5" style="visibility: inherit;" fill="rgb(0, 0, 0)" stroke="rgb(204, 204, 204)" stroke-width="1px"></line></g><g transform="translate(0, 8)"><text x="0" y="0" dx="0em" dy="0.95em" style="text-anchor: middle; visibility: hidden; font-family: &quot;Helvetica Neue&quot;, sans-serif; font-size: 12px; font-weight: 200;" fill="rgb(50, 49, 63)" stroke="none" stroke-width="1px">-500k</text><text x="23.666666666666664" y="0" dx="0em" dy="0.95em" style="text-anchor: middle; visibility: inherit; font-family: &quot;Helvetica Neue&quot;, sans-serif; font-size: 12px; font-weight: 200;" fill="rgb(50, 49, 63)" stroke="none" stroke-width="1px">0</text><text x="47.33333333333333" y="0" dx="0em" dy="0.95em" style="text-anchor: middle; visibility: hidden; font-family: &quot;Helvetica Neue&quot;, sans-serif; font-size: 12px; font-weight: 200;" fill="rgb(50, 49, 63)" stroke="none" stroke-width="1px">500k</text><text x="71" y="0" dx="0em" dy="0.95em" style="text-anchor: middle; visibility: inherit; font-family: &quot;Helvetica Neue&quot;, sans-serif; font-size: 12px; font-weight: 200;" fill="rgb(50, 49, 63)" stroke="none" stroke-width="1px">1M</text><text x="94.66666666666666" y="0" dx="0em" dy="0.95em" style="text-anchor: middle; visibility: hidden; font-family: &quot;Helvetica Neue&quot;, sans-serif; font-size: 12px; font-weight: 200;" fill="rgb(50, 49, 63)" stroke="none" stroke-width="1px">1.5M</text><text x="118.33333333333334" y="0" dx="0em" dy="0.95em" style="text-anchor: middle; visibility: inherit; font-family: &quot;Helvetica Neue&quot;, sans-serif; font-size: 12px; font-weight: 200;" fill="rgb(50, 49, 63)" stroke="none" stroke-width="1px">2M</text><text x="142" y="0" dx="0em" dy="0.95em" style="text-anchor: middle; visibility: hidden; font-family: &quot;Helvetica Neue&quot;, sans-serif; font-size: 12px; font-weight: 200;" fill="rgb(50, 49, 63)" stroke="none" stroke-width="1px">2.5M</text><text x="165.66666666666669" y="0" dx="0em" dy="0.95em" style="text-anchor: middle; visibility: inherit; font-family: &quot;Helvetica Neue&quot;, sans-serif; font-size: 12px; font-weight: 200;" fill="rgb(50, 49, 63)" stroke="none" stroke-width="1px">3M</text><text x="189.33333333333331" y="0" dx="0em" dy="0.95em" style="text-anchor: middle; visibility: hidden; font-family: &quot;Helvetica Neue&quot;, sans-serif; font-size: 12px; font-weight: 200;" fill="rgb(50, 49, 63)" stroke="none" stroke-width="1px">3.5M</text><text x="213" y="0" dx="0em" dy="0.95em" style="text-anchor: middle; visibility: inherit; font-family: &quot;Helvetica Neue&quot;, sans-serif; font-size: 12px; font-weight: 200;" fill="rgb(50, 49, 63)" stroke="none" stroke-width="1px">4M</text><text x="236.66666666666669" y="0" dx="0em" dy="0.95em" style="text-anchor: middle; visibility: hidden; font-family: &quot;Helvetica Neue&quot;, sans-serif; font-size: 12px; font-weight: 200;" fill="rgb(50, 49, 63)" stroke="none" stroke-width="1px">4.5M</text><text x="260.3333333333333" y="0" dx="0em" dy="0.95em" style="text-anchor: middle; visibility: inherit; font-family: &quot;Helvetica Neue&quot;, sans-serif; font-size: 12px; font-weight: 200;" fill="rgb(50, 49, 63)" stroke="none" stroke-width="1px">5M</text><text x="284" y="0" dx="0em" dy="0.95em" style="text-anchor: middle; visibility: hidden; font-family: &quot;Helvetica Neue&quot;, sans-serif; font-size: 12px; font-weight: 200;" fill="rgb(50, 49, 63)" stroke="none" stroke-width="1px">5.5M</text></g><line x1="0" y1="0" x2="284" y2="0" fill="rgb(0, 0, 0)" stroke="rgb(204, 204, 204)" stroke-width="1px"></line></g></g></g></g></svg>