<svg viewBox="0 0 330 200" xmlns="http://www.w3.org/2000/svg"><g><g><g><g><g><line x1="55" y1="177" x2="50" y2="177" style="visibility: inherit;" fill="rgb(0, 0, 0)" stroke="rgb(204, 204, 204)" stroke-width="1px"></line><line x1="55" y1="157.33333333333334" x2="50" y2="157.33333333333334" style="visibility: inherit;" fill="rgb(0, 0, 0)" stroke="rgb(204, 204, 204)" stroke-width="1px"></line><line x1="55" y1="137.66666666666669" x2="50" y2="137.66666666666669" style="visibility: inherit;" fill="rgb(0, 0, 0)" stroke="rgb(204, 204, 204)" stroke-width="1px"></line><line x1="55" y1="118" x2="50" y2="118" style="visibility: inherit;" fill="rgb(0, 0, 0)" stroke="rgb(204, 204, 204)" stroke-width="1px"></line><line x1="55" y1="98.33333333333334" x2="50" y2="98.33333333333334" style="visibility: inherit;" fill="rgb(0, 0, 0)" stroke="rgb(204, 204, 204)" stroke-width="1px"></line><line x1="55" y1="78.66666666666669" x2="50" y2="78.66666666666669" style="visibility: inherit;" fill="rgb(0, 0, 0)" stroke="rgb(204, 204, 204)" stroke-width="1px"></line><line x1="55" y1="59" x2="50" y2="59" style="visibility: inherit;" fill="rgb(0, 0, 0)" stroke="rgb(204, 204, 204)" stroke-width="1px"></line><line x1="55" y1="39.33333333333334" x2="50" y2="39.33333333333334" style="visibility: inherit;" fill="rgb(0, 0, 0)" stroke="rgb(204, 204, 204)" stroke-width="1px"></line><line x1="55" y1="19.666666666666686" x2="50" y2="19.666666666666686" style="visibility: inherit;" fill="rgb(0, 0, 0)" stroke="rgb(204, 204, 204)" stroke-width="1px"></line><line x1="55" y1="0" x2="50" y2="0" style="visibility: inherit;" fill="rgb(0, 0, 0)" stroke="rgb(204, 204, 204)" stroke-width="1px"></line></g><g transform="translate(45, 0)"><text x="0" y="177" dx="0em" dy="0.3em" style="text-anchor: end; visibility: hidden; font-family: &quot;Helvetica Neue&quot;, sans-serif; font-size: 12px; font-weight: 200;" fill="rgb(50, 49, 63)" stroke="none" stroke-width="1px">-1e-4</text><text x="0" y="157.33333333333334" dx="0em" dy="0.3em" style="text-anchor: end; visibility: inherit; font-family: &quot;Helvetica Neue&quot;, sans-serif; font-size: 12px; font-weight: 200;" fill="rgb(50, 49, 63)" stroke="none" stroke-width="1px">0</text><text x="0" y="137.66666666666669" dx="0em" dy="0.3em" style="text-anchor: end; visibility: hidden; font-family: &quot;Helvetica Neue&quot;, sans-serif; font-size: 12px; font-weight: 200;" fill="rgb(50, 49, 63)" stroke="none" stroke-width="1px">1e-4</text><text x="0" y="118" dx="0em" dy="0.3em" style="text-anchor: end; visibility: inherit; font-family: &quot;Helvetica Neue&quot;, sans-serif; font-size: 12px; font-weight: 200;" fill="rgb(50, 49, 63)" stroke="none" stroke-width="1px">2e-4</text><text x="0" y="98.33333333333334" dx="0em" dy="0.3em" style="text-anchor: end; visibility: hidden; font-family: &quot;Helvetica Neue&quot;, sans-serif; font-size: 12px; font-weight: 200;" fill="rgb(50, 49, 63)" stroke="none" stroke-width="1px">3e-4</text><text x="0" y="78.66666666666669" dx="0em" dy="0.3em" style="text-anchor: end; visibility: inherit; font-family: &quot;Helvetica Neue&quot;, sans-serif; font-size: 12px; font-weight: 200;" fill="rgb(50, 49, 63)" stroke="none" stroke-width="1px">4e-4</text><text x="0" y="59" dx="0em" dy="0.3em" style="text-anchor: end; visibility: hidden; font-family: &quot;Helvetica Neue&quot;, sans-serif; font-size: 12px; font-weight: 200;" fill="rgb(50, 49, 63)" stroke="none" stroke-width="1px">5e-4</text><text x="0" y="39.33333333333334" dx="0em" dy="0.3em" style="text-anchor: end; visibility: inherit; font-family: &quot;Helvetica Neue&quot;, sans-serif; font-size: 12px; font-weight: 200;" fill="rgb(50, 49, 63)" stroke="none" stroke-width="1px">6e-4</text><text x="0" y="19.666666666666686" dx="0em" dy="0.3em" style="text-anchor: end; visibility: hidden; font-family: &quot;Helvetica Neue&quot;, sans-serif; font-size: 12px; font-weight: 200;" fill="rgb(50, 49, 63)" stroke="none" stroke-width="1px">7e-4</text><text x="0" y="0" dx="0em" dy="0.3em" style="text-anchor: end; visibility: hidden; font-family: &quot;Helvetica Neue&quot;, sans-serif; font-size: 12px; font-weight: 200;" fill="rgb(50, 49, 63)" stroke="none" stroke-width="1px">8e-4</text></g><line x1="55" y1="0" x2="55" y2="177" fill="rgb(0, 0, 0)" stroke="rgb(204, 204, 204)" stroke-width="1px"></line></g></g><g transform="translate(55, 0)" clip-path="url(#clip_0)"><clipPath id="clip_0"><rect width="275" height="177"></rect></clipPath><g><g><g><line x1="0" y1="0" x2="0" y2="177" fill="rgb(0, 0, 0)" stroke="rgb(60, 60, 60)" stroke-width="1px" opacity="0.25"></line><line x1="22.916666666666664" y1="0" x2="22.916666666666664" y2="177" fill="rgb(0, 0, 0)" stroke="rgb(60, 60, 60)" stroke-width="1px" opacity="0.25"></line><line x1="45.83333333333333" y1="0" x2="45.83333333333333" y2="177" fill="rgb(0, 0, 0)" stroke="rgb(60, 60, 60)" stroke-width="1px" opacity="0.25"></line><line x1="68.75" y1="0" x2="68.75" y2="177" fill="rgb(0, 0, 0)" stroke="rgb(60, 60, 60)" stroke-width="1px" opacity="0.25"></line><line x1="91.66666666666666" y1="0" x2="91.66666666666666" y2="177" fill="rgb(0, 0, 0)" stroke="rgb(60, 60, 60)" stroke-width="1px" opacity="0.25"></line><line x1="114.58333333333334" y1="0" x2="114.58333333333334" y2="177" fill="rgb(0, 0, 0)" stroke="rgb(60, 60, 60)" stroke-width="1px" opacity="0.25"></line><line x1="137.5" y1="0" x2="137.5" y2="177" fill="rgb(0, 0, 0)" stroke="rgb(60, 60, 60)" stroke-width="1px" opacity="0.25"></line><line x1="160.41666666666669" y1="0" x2="160.41666666666669" y2="177" fill="rgb(0, 0, 0)" stroke="rgb(60, 60, 60)" stroke-width="1px" opacity="0.25"></line><line x1="183.33333333333331" y1="0" x2="183.33333333333331" y2="177" fill="rgb(0, 0, 0)" stroke="rgb(60, 60, 60)" stroke-width="1px" opacity="0.25"></line><line x1="206.25" y1="0" x2="206.25" y2="177" fill="rgb(0, 0, 0)" stroke="rgb(60, 60, 60)" stroke-width="1px" opacity="0.25"></line><line x1="229.16666666666669" y1="0" x2="229.16666666666669" y2="177" fill="rgb(0, 0, 0)" stroke="rgb(60, 60, 60)" stroke-width="1px" opacity="0.25"></line><line x1="252.08333333333331" y1="0" x2="252.08333333333331" y2="177" fill="rgb(0, 0, 0)" stroke="rgb(60, 60, 60)" stroke-width="1px" opacity="0.25"></line><line x1="275" y1="0" x2="275" y2="177" fill="rgb(0, 0, 0)" stroke="rgb(60, 60, 60)" stroke-width="1px" opacity="0.25"></line></g><g><line x1="0" y1="177" x2="275" y2="177" fill="rgb(0, 0, 0)" stroke="rgb(60, 60, 60)" stroke-width="1px" opacity="0.25"></line><line x1="0" y1="157.33333333333334" x2="275" y2="157.33333333333334" fill="rgb(0, 0, 0)" stroke="rgb(60, 60, 60)" stroke-width="1px" opacity="0.25"></line><line x1="0" y1="137.66666666666669" x2="275" y2="137.66666666666669" fill="rgb(0, 0, 0)" stroke="rgb(60, 60, 60)" stroke-width="1px" opacity="0.25"></line><line x1="0" y1="118" x2="275" y2="118" fill="rgb(0, 0, 0)" stroke="rgb(60, 60, 60)" stroke-width="1px" opacity="0.25"></line><line x1="0" y1="98.33333333333334" x2="275" y2="98.33333333333334" fill="rgb(0, 0, 0)" stroke="rgb(60, 60, 60)" stroke-width="1px" opacity="0.25"></line><line x1="0" y1="78.66666666666669" x2="275" y2="78.66666666666669" fill="rgb(0, 0, 0)" stroke="rgb(60, 60, 60)" stroke-width="1px" opacity="0.25"></line><line x1="0" y1="59" x2="275" y2="59" fill="rgb(0, 0, 0)" stroke="rgb(60, 60, 60)" stroke-width="1px" opacity="0.25"></line><line x1="0" y1="39.33333333333334" x2="275" y2="39.33333333333334" fill="rgb(0, 0, 0)" stroke="rgb(60, 60, 60)" stroke-width="1px" opacity="0.25"></line><line x1="0" y1="19.666666666666686" x2="275" y2="19.666666666666686" fill="rgb(0, 0, 0)" stroke="rgb(60, 60, 60)" stroke-width="1px" opacity="0.25"></line><line x1="0" y1="0" x2="275" y2="0" fill="rgb(0, 0, 0)" stroke="rgb(60, 60, 60)" stroke-width="1px" opacity="0.25"></line></g></g></g><g><g><line x1="0" y1="157.33333333333334" x2="275" y2="157.33333333333334" fill="rgb(0, 0, 0)" stroke="rgb(153, 153, 153)" stroke-width="1.5px"></line></g></g><g><g><line x1="22.916666666666664" y1="0" x2="22.916666666666664" y2="177" fill="rgb(0, 0, 0)" stroke="rgb(153, 153, 153)" stroke-width="1.5px"></line></g></g><g><g><g><g><g><path stroke="rgb(255, 112, 67)" stroke-width="2px" d="M23.1243375,0.0000039745743265484634L23.318533333333335,0.0000039745743265484634L23.500308333333333,0.0000039745743265484634L23.907262499999998,0.0000039745743265484634L24.308945833333333,0.000003974574298126754L24.713195833333334,0.0000039745743265484634L28.5935375,17.77867282165593L28.595095833333332,19.48542370731448L28.7967625,19.64927178013886L29.210958333333334,19.665001195017595L29.404879166666667,19.666511218844903L29.60054166666667,19.66665618113231L30.01845,19.666670097511883L30.434983333333335,19.66667143348434L30.545395833333334,19.6666715617377L30.770483333333335,19.666671574050014L30.874616666666668,19.666671575231987L30.977695833333335,19.666671575345475L31.205258333333333,19.66667157535636L31.304579166666667,19.666671575357412L31.528291666666668,19.666671575357498L31.628804166666665,19.666671575357526L31.8525625,19.666671575357526L31.950691666666668,19.666671575357526L32.05271666666667,19.666671575357526L32.278079166666664,19.666671575357526L32.380608333333335,19.666671575357526L32.48226666666667,19.666671575357526L32.58255,19.666671575357526L32.8073625,19.666671575357526L33.031625,19.666671575357526L35.8051375,19.666671575357526L36.23785,19.666671575357526L36.66758333333333,19.666671575357526L36.86874583333333,19.666671575357526L37.30260416666666,19.666671575357526L51.003929166666666,31.800621180795133L51.20518333333333,32.96548034291715L51.421425,33.077306822480864L51.62116666666667,33.08804216451898L52.047324999999994,33.08907275735464L52.24706666666667,33.08917169426687L54.34930416666667,33.08918119221045L62.00530416666667,33.08918210401302L62.20023333333334,33.08918219154606L76.49500833333333,38.705017313710584L97.93804166666666,49.647479044821125L98.1322375,50.69795537100775L98.34430833333333,50.79880109832166L98.75987916666666,50.80848228814379L98.95210416666667,50.809411682366715L99.146575,50.80950090421213L99.56200833333332,50.809509469509294L99.97482916666667,50.8095102917778L100.1693,50.80951037071557L100.3630375,50.809510378293595L100.55517083333332,50.809510379021106L100.74867916666668,50.80951037909095L100.94227916666667,50.80951037909763L101.35335833333333,50.8095103790983L101.54617916666666,50.809510379098356L101.95909166666668,50.809510379098356L102.37127083333333,50.809510379098356L102.56377083333334,50.809510379098356L102.97558333333333,50.809510379098356L103.1685875,50.809510379098356L108.44725833333334,55.62438872891167L113.02742916666666,56.08661705049374L113.44570416666666,56.13099096936563L113.6408625,56.13525086557733L113.83634166666666,56.13565981561365L114.25443333333332,56.135699074817154L114.44895,56.135702843700685L114.64410833333334,56.135703205513494L115.06247499999999,56.13570324024752L115.25850416666667,56.135703243582L115.67984999999999,56.135703243902114L115.87899583333333,56.13570324393285L116.30350416666667,56.13570324393578L116.5033375,56.13570324393608L116.702025,56.135703243936106L117.1253875,56.135703243936106L117.3247625,56.135703243936106L117.74913333333333,56.135703243936106L118.17231249999999,56.135703243936106L118.59705,56.135703243936106L118.79578333333333,56.135703243936106L118.99414999999999,56.135703243936106L119.41650416666667,60.709833019413054L119.61331249999999,61.148949477858835L120.03319166666665,61.191104657869616L120.453575,61.19515155515067L120.65038333333332,61.19554005728965L120.84439583333334,61.19557735349497L121.26400000000001,61.195580933930685L121.68319166666666,61.19558127765252L125.47104166666666,61.19558131064983L125.88047083333333,61.195581313817556L126.07155,61.19558131412168L141.58122916666665,65.54101339711809L142.00569166666668,65.95817487708572L142.42309583333332,65.99822237916264L142.6242125,66.00206693936201L142.82455,66.00243601714116L143.02300833333334,66.00247144860795L143.45063333333334,66.00247485002876L143.8723,66.00247517656516L144.06910833333333,66.00247520791267L144.26724583333333,66.002475210922L144.69189166666666,66.00247521121092L145.11548333333334,66.00247521123865L145.53586666666666,66.00247521124132L145.7325375,66.00247521124157L146.15227916666666,66.00247521124159L146.34711666666666,66.00247521124159L146.76493333333332,66.00247521124159L146.96022916666666,66.00247521124159L147.37855,70.13062404794618L147.57425833333335,70.52692633626984L147.76964583333333,70.56497135594891L148.18700416666667,70.5686236778381L148.38138333333333,70.56897430073946L148.800575,70.56900796053799L148.99591666666666,70.56901119187864L149.4131375,70.56901150208736L149.60825,70.56901153186739L150.02620416666664,70.56901153472627L150.44379166666667,70.56901153500071L150.64133333333334,70.56901153502707L150.83575833333333,70.5690115350296L151.0311,70.56901153502984L151.44997083333334,70.56901153502986L156.70824583333334,70.56901153502986L163.043925,74.49076379587252L163.4584416666667,74.86725201291343L163.64975,74.90339488174936L163.84408333333332,74.90686459715761L164.03924166666667,74.9071976898368L164.45504166666666,74.90722966673401L164.87019999999998,74.90723273651614L165.0710875,74.9072330312152L165.4899125,74.90723305950634L165.6868125,74.90723306222228L165.88504166666667,74.907233062483L166.08382083333333,74.90723306250804L166.50709166666667,74.90723306251044L166.9294,74.90723306251067L167.35198333333332,74.9072330625107L167.54938750000002,74.9072330625107L167.74775416666665,74.9072330625107L167.94580000000002,74.9072330625107L168.14347916666668,74.9072330625107L168.5657875,74.9072330625107L168.76328333333333,74.9072330625107L168.960825,74.9072330625107L169.38230833333333,74.9072330625107L169.803425,74.9072330625107L170.00192916666666,74.9072330625107L170.4251541666667,74.9072330625107L170.62118333333333,74.9072330625107L170.81991666666664,74.9072330625107L171.01819166666667,74.9072330625107L171.21669583333335,74.9072330625107L171.63717083333333,74.9072330625107L172.0532,74.9072330625107L172.24927499999998,74.9072330625107L172.44484583333332,74.9072330625107L172.8615625,74.9072330625107L173.27534583333335,74.9072330625107L173.69091666666665,74.9072330625107L174.1069,74.9072330625107L174.30370833333333,74.9072330625107L174.5005625,74.9072330625107L174.922,78.63289589931568L175.34201666666667,78.99055953164896L175.7652875,79.02489524035295L176.1832875,79.02819146838853L178.16035416666665,79.02850790627997L178.57890416666666,79.02853828431753L178.7758041666667,79.02854120060915L179.19815833333334,79.02854148057311L179.62000833333335,79.02854150744967L179.8171375,79.02854151002983L180.23770416666667,79.02854151027752L180.434375,79.02854151030131L180.630175,79.02854151030358L181.050375,79.0285415103038L181.47089583333334,79.02854151030382L181.89215,79.02854151030382L182.08868333333334,79.02854151030382L182.28604166666668,79.02854151030382L182.48390416666666,79.02854151030382L182.9034625,79.02854151030382L183.10049999999998,79.02854151030382L183.51923333333332,79.02854151030382L183.71338333333333,79.02854151030382L183.90987083333334,79.02854151030382L184.3279625,79.02854151030382L184.5251375,79.02854151030382L184.94538333333333,79.02854151030382L185.3630625,79.02854151030382L185.56124583333332,79.02854151030382L185.7587875,79.02854151030382L185.9557333333333,79.02854151030382L186.37584166666667,79.02854151030382L186.57315416666668,79.02854151030382L186.99165833333333,79.02854151030382L187.18667916666666,79.02854151030382L187.38137916666668,79.02854151030382L187.795025,79.02854151030382L188.20802916666668,79.02854151030382L188.62190416666667,82.56790982186794L188.81371666666666,82.90768917977812L189.00713333333331,82.94030799813748L189.20137499999998,82.94343940469999L189.6159375,82.94374001972997L189.80930833333335,82.94376887877287L190.00130416666667,82.94377164924097L190.41435416666667,82.94377191520591L190.60694583333333,82.94377194073854L190.79839166666667,82.94377194318969L193.839525,82.94377194342499L194.25899166666665,82.94377194344759L194.6802,82.94377194344975L194.87769583333335,82.94377194344997L195.2979875,82.94377194344999L195.4935583333333,82.94377194344999L195.69050416666667,82.94377194344999L196.10534166666665,82.94377194344999L196.299125,82.94377194344999L202.10717083333333,86.30619046681872L202.30815,86.62898264506212L211.78937083333335,86.65997069417348L212.21209166666665,86.6629455468882L212.63403333333335,86.66323113274879L212.83405000000002,86.6632585489914L213.26415,86.6632611809507L213.4660458333333,86.6632614336188L213.6673,86.66326145787492L214.0963,86.66326146020351L214.2987,86.66326146042707L231.6694875,92.89211856837467L231.86854166666666,93.49008885073765L232.29960416666665,93.5474939978445L232.50182083333334,93.55300489196675L232.7032125,93.55353393780248L232.90405416666667,93.55358472620271L233.10654583333334,93.55358960188914L233.3093125,93.55359006995504L233.51359166666668,93.55359011488936L233.94598333333334,93.55359011920305L234.14852083333335,93.55359011961717L234.35023333333334,93.55359011965693L234.5514875,93.55359011966075L234.9788375,93.55359011966111L235.40614166666666,93.55359011966115L235.6067541666667,93.55359011966115L235.8049375,93.55359011966115L236.00467916666668,93.55359011966115L251.34417916666666,96.43643632391468L251.53388333333334,96.71318955952302L251.7271625,96.73975787014142L251.91961666666668,96.7423084279608L252.08333333333331,96.74255328151145" style="fill: none;" fill="none"></path></g></g></g></g><g opacity="0.2"><g><g><g><path stroke="rgb(255, 112, 67)" stroke-width="2px" d="M23.1243375,0.0000039745743265484634L23.318533333333335,0.0000039745743265484634L23.500308333333333,0.0000039745743265484634L23.907262499999998,0.0000039745743265484634L24.308945833333333,0.0000039745743265484634L24.713195833333334,0.0000039745743265484634L28.5935375,19.666671575357526L28.595095833333332,19.666671575357526L28.7967625,19.666671575357526L29.210958333333334,19.666671575357526L29.404879166666667,19.666671575357526L29.60054166666667,19.666671575357526L30.01845,19.666671575357526L30.434983333333335,19.666671575357526L30.545395833333334,19.666671575357526L30.770483333333335,19.666671575357526L30.874616666666668,19.666671575357526L30.977695833333335,19.666671575357526L31.205258333333333,19.666671575357526L31.304579166666667,19.666671575357526L31.528291666666668,19.666671575357526L31.628804166666665,19.666671575357526L31.8525625,19.666671575357526L31.950691666666668,19.666671575357526L32.05271666666667,19.666671575357526L32.278079166666664,19.666671575357526L32.380608333333335,19.666671575357526L32.48226666666667,19.666671575357526L32.58255,19.666671575357526L32.8073625,19.666671575357526L33.031625,19.666671575357526L35.8051375,19.666671575357526L36.23785,19.666671575357526L36.66758333333333,19.666671575357526L36.86874583333333,19.666671575357526L37.30260416666666,19.666671575357526L51.003929166666666,33.089182200841606L51.20518333333333,33.089182200841606L51.421425,33.089182200841606L51.62116666666667,33.089182200841606L52.047324999999994,33.089182200841606L52.24706666666667,33.089182200841606L54.34930416666667,33.089182200841606L62.00530416666667,33.089182200841606L62.20023333333334,33.089182200841606L76.49500833333333,39.30138918509087L97.93804166666666,50.809510379098356L98.1322375,50.809510379098356L98.34430833333333,50.809510379098356L98.75987916666666,50.809510379098356L98.95210416666667,50.809510379098356L99.146575,50.809510379098356L99.56200833333332,50.809510379098356L99.97482916666667,50.809510379098356L100.1693,50.809510379098356L100.3630375,50.809510379098356L100.55517083333332,50.809510379098356L100.74867916666668,50.809510379098356L100.94227916666667,50.809510379098356L101.35335833333333,50.809510379098356L101.54617916666666,50.809510379098356L101.95909166666668,50.809510379098356L102.37127083333333,50.809510379098356L102.56377083333334,50.809510379098356L102.97558333333333,50.809510379098356L103.1685875,50.809510379098356L108.44725833333334,56.135703243936106L113.02742916666666,56.135703243936106L113.44570416666666,56.135703243936106L113.6408625,56.135703243936106L113.83634166666666,56.135703243936106L114.25443333333332,56.135703243936106L114.44895,56.135703243936106L114.64410833333334,56.135703243936106L115.06247499999999,56.135703243936106L115.25850416666667,56.135703243936106L115.67984999999999,56.135703243936106L115.87899583333333,56.135703243936106L116.30350416666667,56.135703243936106L116.5033375,56.135703243936106L116.702025,56.135703243936106L117.1253875,56.135703243936106L117.3247625,56.135703243936106L117.74913333333333,56.135703243936106L118.17231249999999,56.135703243936106L118.59705,56.135703243936106L118.79578333333333,56.135703243936106L118.99414999999999,56.135703243936106L119.41650416666667,61.19558131415397L119.61331249999999,61.19558131415397L120.03319166666665,61.19558131415397L120.453575,61.19558131415397L120.65038333333332,61.19558131415397L120.84439583333334,61.19558131415397L121.26400000000001,61.19558131415397L121.68319166666666,61.19558131415397L125.47104166666666,61.19558131415397L125.88047083333333,61.19558131415397L126.07155,61.19558131415397L141.58122916666665,66.00247521124159L142.00569166666668,66.00247521124159L142.42309583333332,66.00247521124159L142.6242125,66.00247521124159L142.82455,66.00247521124159L143.02300833333334,66.00247521124159L143.45063333333334,66.00247521124159L143.8723,66.00247521124159L144.06910833333333,66.00247521124159L144.26724583333333,66.00247521124159L144.69189166666666,66.00247521124159L145.11548333333334,66.00247521124159L145.53586666666666,66.00247521124159L145.7325375,66.00247521124159L146.15227916666666,66.00247521124159L146.34711666666666,66.00247521124159L146.76493333333332,66.00247521124159L146.96022916666666,66.00247521124159L147.37855,70.56901153502986L147.57425833333335,70.56901153502986L147.76964583333333,70.56901153502986L148.18700416666667,70.56901153502986L148.38138333333333,70.56901153502986L148.800575,70.56901153502986L148.99591666666666,70.56901153502986L149.4131375,70.56901153502986L149.60825,70.56901153502986L150.02620416666664,70.56901153502986L150.44379166666667,70.56901153502986L150.64133333333334,70.56901153502986L150.83575833333333,70.56901153502986L151.0311,70.56901153502986L151.44997083333334,70.56901153502986L156.70824583333334,70.56901153502986L163.043925,74.9072330625107L163.4584416666667,74.9072330625107L163.64975,74.9072330625107L163.84408333333332,74.9072330625107L164.03924166666667,74.9072330625107L164.45504166666666,74.9072330625107L164.87019999999998,74.9072330625107L165.0710875,74.9072330625107L165.4899125,74.9072330625107L165.6868125,74.9072330625107L165.88504166666667,74.9072330625107L166.08382083333333,74.9072330625107L166.50709166666667,74.9072330625107L166.9294,74.9072330625107L167.35198333333332,74.9072330625107L167.54938750000002,74.9072330625107L167.74775416666665,74.9072330625107L167.94580000000002,74.9072330625107L168.14347916666668,74.9072330625107L168.5657875,74.9072330625107L168.76328333333333,74.9072330625107L168.960825,74.9072330625107L169.38230833333333,74.9072330625107L169.803425,74.9072330625107L170.00192916666666,74.9072330625107L170.4251541666667,74.9072330625107L170.62118333333333,74.9072330625107L170.81991666666664,74.9072330625107L171.01819166666667,74.9072330625107L171.21669583333335,74.9072330625107L171.63717083333333,74.9072330625107L172.0532,74.9072330625107L172.24927499999998,74.9072330625107L172.44484583333332,74.9072330625107L172.8615625,74.9072330625107L173.27534583333335,74.9072330625107L173.69091666666665,74.9072330625107L174.1069,74.9072330625107L174.30370833333333,74.9072330625107L174.5005625,74.9072330625107L174.922,79.02854151030382L175.34201666666667,79.02854151030382L175.7652875,79.02854151030382L176.1832875,79.02854151030382L178.16035416666665,79.02854151030382L178.57890416666666,79.02854151030382L178.7758041666667,79.02854151030382L179.19815833333334,79.02854151030382L179.62000833333335,79.02854151030382L179.8171375,79.02854151030382L180.23770416666667,79.02854151030382L180.434375,79.02854151030382L180.630175,79.02854151030382L181.050375,79.02854151030382L181.47089583333334,79.02854151030382L181.89215,79.02854151030382L182.08868333333334,79.02854151030382L182.28604166666668,79.02854151030382L182.48390416666666,79.02854151030382L182.9034625,79.02854151030382L183.10049999999998,79.02854151030382L183.51923333333332,79.02854151030382L183.71338333333333,79.02854151030382L183.90987083333334,79.02854151030382L184.3279625,79.02854151030382L184.5251375,79.02854151030382L184.94538333333333,79.02854151030382L185.3630625,79.02854151030382L185.56124583333332,79.02854151030382L185.7587875,79.02854151030382L185.9557333333333,79.02854151030382L186.37584166666667,79.02854151030382L186.57315416666668,79.02854151030382L186.99165833333333,79.02854151030382L187.18667916666666,79.02854151030382L187.38137916666668,79.02854151030382L187.795025,79.02854151030382L188.20802916666668,79.02854151030382L188.62190416666667,82.94377194344999L188.81371666666666,82.94377194344999L189.00713333333331,82.94377194344999L189.20137499999998,82.94377194344999L189.6159375,82.94377194344999L189.80930833333335,82.94377194344999L190.00130416666667,82.94377194344999L190.41435416666667,82.94377194344999L190.60694583333333,82.94377194344999L190.79839166666667,82.94377194344999L193.839525,82.94377194344999L194.25899166666665,82.94377194344999L194.6802,82.94377194344999L194.87769583333335,82.94377194344999L195.2979875,82.94377194344999L195.4935583333333,82.94377194344999L195.69050416666667,82.94377194344999L196.10534166666665,82.94377194344999L196.299125,82.94377194344999L202.10717083333333,86.66326146045081L202.30815,86.66326146045081L211.78937083333335,86.66326146045081L212.21209166666665,86.66326146045081L212.63403333333335,86.66326146045081L212.83405000000002,86.66326146045081L213.26415,86.66326146045081L213.4660458333333,86.66326146045081L213.6673,86.66326146045081L214.0963,86.66326146045081L214.2987,86.66326146045081L231.6694875,93.55359011966115L231.86854166666666,93.55359011966115L232.29960416666665,93.55359011966115L232.50182083333334,93.55359011966115L232.7032125,93.55359011966115L232.90405416666667,93.55359011966115L233.10654583333334,93.55359011966115L233.3093125,93.55359011966115L233.51359166666668,93.55359011966115L233.94598333333334,93.55359011966115L234.14852083333335,93.55359011966115L234.35023333333334,93.55359011966115L234.5514875,93.55359011966115L234.9788375,93.55359011966115L235.40614166666666,93.55359011966115L235.6067541666667,93.55359011966115L235.8049375,93.55359011966115L236.00467916666668,93.55359011966115L251.34417916666666,96.74257928365842L251.53388333333334,96.74257928365842L251.7271625,96.74257928365842L251.91961666666668,96.74257928365842L252.08333333333331,96.74257928365842" style="fill: none;" fill="none"></path></g></g></g></g></g></g><g transform="translate(55, 177)" clip-path="url(#clip_1)"><clipPath id="clip_1"><rect width="275" height="23"></rect></clipPath><g><g><line x1="0" y1="0" x2="0" y2="5" style="visibility: inherit;" fill="rgb(0, 0, 0)" stroke="rgb(204, 204, 204)" stroke-width="1px"></line><line x1="22.916666666666664" y1="0" x2="22.916666666666664" y2="5" style="visibility: inherit;" fill="rgb(0, 0, 0)" stroke="rgb(204, 204, 204)" stroke-width="1px"></line><line x1="45.83333333333333" y1="0" x2="45.83333333333333" y2="5" style="visibility: inherit;" fill="rgb(0, 0, 0)" stroke="rgb(204, 204, 204)" stroke-width="1px"></line><line x1="68.75" y1="0" x2="68.75" y2="5" style="visibility: inherit;" fill="rgb(0, 0, 0)" stroke="rgb(204, 204, 204)" stroke-width="1px"></line><line x1="91.66666666666666" y1="0" x2="91.66666666666666" y2="5" style="visibility: inherit;" fill="rgb(0, 0, 0)" stroke="rgb(204, 204, 204)" stroke-width="1px"></line><line x1="114.58333333333334" y1="0" x2="114.58333333333334" y2="5" style="visibility: inherit;" fill="rgb(0, 0, 0)" stroke="rgb(204, 204, 204)" stroke-width="1px"></line><line x1="137.5" y1="0" x2="137.5" y2="5" style="visibility: inherit;" fill="rgb(0, 0, 0)" stroke="rgb(204, 204, 204)" stroke-width="1px"></line><line x1="160.41666666666669" y1="0" x2="160.41666666666669" y2="5" style="visibility: inherit;" fill="rgb(0, 0, 0)" stroke="rgb(204, 204, 204)" stroke-width="1px"></line><line x1="183.33333333333331" y1="0" x2="183.33333333333331" y2="5" style="visibility: inherit;" fill="rgb(0, 0, 0)" stroke="rgb(204, 204, 204)" stroke-width="1px"></line><line x1="206.25" y1="0" x2="206.25" y2="5" style="visibility: inherit;" fill="rgb(0, 0, 0)" stroke="rgb(204, 204, 204)" stroke-width="1px"></line><line x1="229.16666666666669" y1="0" x2="229.16666666666669" y2="5" style="visibility: inherit;" fill="rgb(0, 0, 0)" stroke="rgb(204, 204, 204)" stroke-width="1px"></line><line x1="252.08333333333331" y1="0" x2="252.08333333333331" y2="5" style="visibility: inherit;" fill="rgb(0, 0, 0)" stroke="rgb(204, 204, 204)" stroke-width="1px"></line><line x1="275" y1="0" x2="275" y2="5" style="visibility: inherit;" fill="rgb(0, 0, 0)" stroke="rgb(204, 204, 204)" stroke-width="1px"></line></g><g transform="translate(0, 8)"><text x="0" y="0" dx="0em" dy="0.95em" style="text-anchor: middle; visibility: hidden; font-family: &quot;Helvetica Neue&quot;, sans-serif; font-size: 12px; font-weight: 200;" fill="rgb(50, 49, 63)" stroke="none" stroke-width="1px">-500k</text><text x="22.916666666666664" y="0" dx="0em" dy="0.95em" style="text-anchor: middle; visibility: inherit; font-family: &quot;Helvetica Neue&quot;, sans-serif; font-size: 12px; font-weight: 200;" fill="rgb(50, 49, 63)" stroke="none" stroke-width="1px">0</text><text x="45.83333333333333" y="0" dx="0em" dy="0.95em" style="text-anchor: middle; visibility: hidden; font-family: &quot;Helvetica Neue&quot;, sans-serif; font-size: 12px; font-weight: 200;" fill="rgb(50, 49, 63)" stroke="none" stroke-width="1px">500k</text><text x="68.75" y="0" dx="0em" dy="0.95em" style="text-anchor: middle; visibility: inherit; font-family: &quot;Helvetica Neue&quot;, sans-serif; font-size: 12px; font-weight: 200;" fill="rgb(50, 49, 63)" stroke="none" stroke-width="1px">1M</text><text x="91.66666666666666" y="0" dx="0em" dy="0.95em" style="text-anchor: middle; visibility: hidden; font-family: &quot;Helvetica Neue&quot;, sans-serif; font-size: 12px; font-weight: 200;" fill="rgb(50, 49, 63)" stroke="none" stroke-width="1px">1.5M</text><text x="114.58333333333334" y="0" dx="0em" dy="0.95em" style="text-anchor: middle; visibility: inherit; font-family: &quot;Helvetica Neue&quot;, sans-serif; font-size: 12px; font-weight: 200;" fill="rgb(50, 49, 63)" stroke="none" stroke-width="1px">2M</text><text x="137.5" y="0" dx="0em" dy="0.95em" style="text-anchor: middle; visibility: hidden; font-family: &quot;Helvetica Neue&quot;, sans-serif; font-size: 12px; font-weight: 200;" fill="rgb(50, 49, 63)" stroke="none" stroke-width="1px">2.5M</text><text x="160.41666666666669" y="0" dx="0em" dy="0.95em" style="text-anchor: middle; visibility: inherit; font-family: &quot;Helvetica Neue&quot;, sans-serif; font-size: 12px; font-weight: 200;" fill="rgb(50, 49, 63)" stroke="none" stroke-width="1px">3M</text><text x="183.33333333333331" y="0" dx="0em" dy="0.95em" style="text-anchor: middle; visibility: hidden; font-family: &quot;Helvetica Neue&quot;, sans-serif; font-size: 12px; font-weight: 200;" fill="rgb(50, 49, 63)" stroke="none" stroke-width="1px">3.5M</text><text x="206.25" y="0" dx="0em" dy="0.95em" style="text-anchor: middle; visibility: inherit; font-family: &quot;Helvetica Neue&quot;, sans-serif; font-size: 12px; font-weight: 200;" fill="rgb(50, 49, 63)" stroke="none" stroke-width="1px">4M</text><text x="229.16666666666669" y="0" dx="0em" dy="0.95em" style="text-anchor: middle; visibility: hidden; font-family: &quot;Helvetica Neue&quot;, sans-serif; font-size: 12px; font-weight: 200;" fill="rgb(50, 49, 63)" stroke="none" stroke-width="1px">4.5M</text><text x="252.08333333333331" y="0" dx="0em" dy="0.95em" style="text-anchor: middle; visibility: inherit; font-family: &quot;Helvetica Neue&quot;, sans-serif; font-size: 12px; font-weight: 200;" fill="rgb(50, 49, 63)" stroke="none" stroke-width="1px">5M</text><text x="275" y="0" dx="0em" dy="0.95em" style="text-anchor: middle; visibility: hidden; font-family: &quot;Helvetica Neue&quot;, sans-serif; font-size: 12px; font-weight: 200;" fill="rgb(50, 49, 63)" stroke="none" stroke-width="1px">5.5M</text></g><line x1="0" y1="0" x2="275" y2="0" fill="rgb(0, 0, 0)" stroke="rgb(204, 204, 204)" stroke-width="1px"></line></g></g></g></g></svg>