<svg viewBox="0 0 330 200" xmlns="http://www.w3.org/2000/svg"><g><g><g><g><g><line x1="46" y1="177" x2="41" y2="177" style="visibility: inherit;" fill="rgb(0, 0, 0)" stroke="rgb(204, 204, 204)" stroke-width="1px"></line><line x1="46" y1="160.9090909090909" x2="41" y2="160.9090909090909" style="visibility: inherit;" fill="rgb(0, 0, 0)" stroke="rgb(204, 204, 204)" stroke-width="1px"></line><line x1="46" y1="144.8181818181818" x2="41" y2="144.8181818181818" style="visibility: inherit;" fill="rgb(0, 0, 0)" stroke="rgb(204, 204, 204)" stroke-width="1px"></line><line x1="46" y1="128.72727272727272" x2="41" y2="128.72727272727272" style="visibility: inherit;" fill="rgb(0, 0, 0)" stroke="rgb(204, 204, 204)" stroke-width="1px"></line><line x1="46" y1="112.63636363636364" x2="41" y2="112.63636363636364" style="visibility: inherit;" fill="rgb(0, 0, 0)" stroke="rgb(204, 204, 204)" stroke-width="1px"></line><line x1="46" y1="96.54545454545455" x2="41" y2="96.54545454545455" style="visibility: inherit;" fill="rgb(0, 0, 0)" stroke="rgb(204, 204, 204)" stroke-width="1px"></line><line x1="46" y1="80.45454545454547" x2="41" y2="80.45454545454547" style="visibility: inherit;" fill="rgb(0, 0, 0)" stroke="rgb(204, 204, 204)" stroke-width="1px"></line><line x1="46" y1="64.36363636363639" x2="41" y2="64.36363636363639" style="visibility: inherit;" fill="rgb(0, 0, 0)" stroke="rgb(204, 204, 204)" stroke-width="1px"></line><line x1="46" y1="48.27272727272728" x2="41" y2="48.27272727272728" style="visibility: inherit;" fill="rgb(0, 0, 0)" stroke="rgb(204, 204, 204)" stroke-width="1px"></line><line x1="46" y1="32.18181818181819" x2="41" y2="32.18181818181819" style="visibility: inherit;" fill="rgb(0, 0, 0)" stroke="rgb(204, 204, 204)" stroke-width="1px"></line><line x1="46" y1="16.090909090909093" x2="41" y2="16.090909090909093" style="visibility: inherit;" fill="rgb(0, 0, 0)" stroke="rgb(204, 204, 204)" stroke-width="1px"></line><line x1="46" y1="0" x2="41" y2="0" style="visibility: inherit;" fill="rgb(0, 0, 0)" stroke="rgb(204, 204, 204)" stroke-width="1px"></line></g><g transform="translate(36, 0)"><text x="0" y="177" dx="0em" dy="0.3em" style="text-anchor: end; visibility: hidden; font-family: &quot;Helvetica Neue&quot;, sans-serif; font-size: 12px; font-weight: 200;" fill="rgb(50, 49, 63)" stroke="none" stroke-width="1px">-0.2</text><text x="0" y="160.9090909090909" dx="0em" dy="0.3em" style="text-anchor: end; visibility: inherit; font-family: &quot;Helvetica Neue&quot;, sans-serif; font-size: 12px; font-weight: 200;" fill="rgb(50, 49, 63)" stroke="none" stroke-width="1px">0</text><text x="0" y="144.8181818181818" dx="0em" dy="0.3em" style="text-anchor: end; visibility: hidden; font-family: &quot;Helvetica Neue&quot;, sans-serif; font-size: 12px; font-weight: 200;" fill="rgb(50, 49, 63)" stroke="none" stroke-width="1px">0.2</text><text x="0" y="128.72727272727272" dx="0em" dy="0.3em" style="text-anchor: end; visibility: inherit; font-family: &quot;Helvetica Neue&quot;, sans-serif; font-size: 12px; font-weight: 200;" fill="rgb(50, 49, 63)" stroke="none" stroke-width="1px">0.4</text><text x="0" y="112.63636363636364" dx="0em" dy="0.3em" style="text-anchor: end; visibility: hidden; font-family: &quot;Helvetica Neue&quot;, sans-serif; font-size: 12px; font-weight: 200;" fill="rgb(50, 49, 63)" stroke="none" stroke-width="1px">0.6</text><text x="0" y="96.54545454545455" dx="0em" dy="0.3em" style="text-anchor: end; visibility: inherit; font-family: &quot;Helvetica Neue&quot;, sans-serif; font-size: 12px; font-weight: 200;" fill="rgb(50, 49, 63)" stroke="none" stroke-width="1px">0.8</text><text x="0" y="80.45454545454547" dx="0em" dy="0.3em" style="text-anchor: end; visibility: hidden; font-family: &quot;Helvetica Neue&quot;, sans-serif; font-size: 12px; font-weight: 200;" fill="rgb(50, 49, 63)" stroke="none" stroke-width="1px">1</text><text x="0" y="64.36363636363639" dx="0em" dy="0.3em" style="text-anchor: end; visibility: inherit; font-family: &quot;Helvetica Neue&quot;, sans-serif; font-size: 12px; font-weight: 200;" fill="rgb(50, 49, 63)" stroke="none" stroke-width="1px">1.2</text><text x="0" y="48.27272727272728" dx="0em" dy="0.3em" style="text-anchor: end; visibility: hidden; font-family: &quot;Helvetica Neue&quot;, sans-serif; font-size: 12px; font-weight: 200;" fill="rgb(50, 49, 63)" stroke="none" stroke-width="1px">1.4</text><text x="0" y="32.18181818181819" dx="0em" dy="0.3em" style="text-anchor: end; visibility: inherit; font-family: &quot;Helvetica Neue&quot;, sans-serif; font-size: 12px; font-weight: 200;" fill="rgb(50, 49, 63)" stroke="none" stroke-width="1px">1.6</text><text x="0" y="16.090909090909093" dx="0em" dy="0.3em" style="text-anchor: end; visibility: hidden; font-family: &quot;Helvetica Neue&quot;, sans-serif; font-size: 12px; font-weight: 200;" fill="rgb(50, 49, 63)" stroke="none" stroke-width="1px">1.8</text><text x="0" y="0" dx="0em" dy="0.3em" style="text-anchor: end; visibility: hidden; font-family: &quot;Helvetica Neue&quot;, sans-serif; font-size: 12px; font-weight: 200;" fill="rgb(50, 49, 63)" stroke="none" stroke-width="1px">2</text></g><line x1="46" y1="0" x2="46" y2="177" fill="rgb(0, 0, 0)" stroke="rgb(204, 204, 204)" stroke-width="1px"></line></g></g><g transform="translate(46, 0)" clip-path="url(#clip_0)"><clipPath id="clip_0"><rect width="284" height="177"></rect></clipPath><g><g><g><line x1="0" y1="0" x2="0" y2="177" fill="rgb(0, 0, 0)" stroke="rgb(60, 60, 60)" stroke-width="1px" opacity="0.25"></line><line x1="23.666666666666664" y1="0" x2="23.666666666666664" y2="177" fill="rgb(0, 0, 0)" stroke="rgb(60, 60, 60)" stroke-width="1px" opacity="0.25"></line><line x1="47.33333333333333" y1="0" x2="47.33333333333333" y2="177" fill="rgb(0, 0, 0)" stroke="rgb(60, 60, 60)" stroke-width="1px" opacity="0.25"></line><line x1="71" y1="0" x2="71" y2="177" fill="rgb(0, 0, 0)" stroke="rgb(60, 60, 60)" stroke-width="1px" opacity="0.25"></line><line x1="94.66666666666666" y1="0" x2="94.66666666666666" y2="177" fill="rgb(0, 0, 0)" stroke="rgb(60, 60, 60)" stroke-width="1px" opacity="0.25"></line><line x1="118.33333333333334" y1="0" x2="118.33333333333334" y2="177" fill="rgb(0, 0, 0)" stroke="rgb(60, 60, 60)" stroke-width="1px" opacity="0.25"></line><line x1="142" y1="0" x2="142" y2="177" fill="rgb(0, 0, 0)" stroke="rgb(60, 60, 60)" stroke-width="1px" opacity="0.25"></line><line x1="165.66666666666669" y1="0" x2="165.66666666666669" y2="177" fill="rgb(0, 0, 0)" stroke="rgb(60, 60, 60)" stroke-width="1px" opacity="0.25"></line><line x1="189.33333333333331" y1="0" x2="189.33333333333331" y2="177" fill="rgb(0, 0, 0)" stroke="rgb(60, 60, 60)" stroke-width="1px" opacity="0.25"></line><line x1="213" y1="0" x2="213" y2="177" fill="rgb(0, 0, 0)" stroke="rgb(60, 60, 60)" stroke-width="1px" opacity="0.25"></line><line x1="236.66666666666669" y1="0" x2="236.66666666666669" y2="177" fill="rgb(0, 0, 0)" stroke="rgb(60, 60, 60)" stroke-width="1px" opacity="0.25"></line><line x1="260.3333333333333" y1="0" x2="260.3333333333333" y2="177" fill="rgb(0, 0, 0)" stroke="rgb(60, 60, 60)" stroke-width="1px" opacity="0.25"></line><line x1="284" y1="0" x2="284" y2="177" fill="rgb(0, 0, 0)" stroke="rgb(60, 60, 60)" stroke-width="1px" opacity="0.25"></line></g><g><line x1="0" y1="177" x2="284" y2="177" fill="rgb(0, 0, 0)" stroke="rgb(60, 60, 60)" stroke-width="1px" opacity="0.25"></line><line x1="0" y1="160.9090909090909" x2="284" y2="160.9090909090909" fill="rgb(0, 0, 0)" stroke="rgb(60, 60, 60)" stroke-width="1px" opacity="0.25"></line><line x1="0" y1="144.8181818181818" x2="284" y2="144.8181818181818" fill="rgb(0, 0, 0)" stroke="rgb(60, 60, 60)" stroke-width="1px" opacity="0.25"></line><line x1="0" y1="128.72727272727272" x2="284" y2="128.72727272727272" fill="rgb(0, 0, 0)" stroke="rgb(60, 60, 60)" stroke-width="1px" opacity="0.25"></line><line x1="0" y1="112.63636363636364" x2="284" y2="112.63636363636364" fill="rgb(0, 0, 0)" stroke="rgb(60, 60, 60)" stroke-width="1px" opacity="0.25"></line><line x1="0" y1="96.54545454545455" x2="284" y2="96.54545454545455" fill="rgb(0, 0, 0)" stroke="rgb(60, 60, 60)" stroke-width="1px" opacity="0.25"></line><line x1="0" y1="80.45454545454547" x2="284" y2="80.45454545454547" fill="rgb(0, 0, 0)" stroke="rgb(60, 60, 60)" stroke-width="1px" opacity="0.25"></line><line x1="0" y1="64.36363636363639" x2="284" y2="64.36363636363639" fill="rgb(0, 0, 0)" stroke="rgb(60, 60, 60)" stroke-width="1px" opacity="0.25"></line><line x1="0" y1="48.27272727272728" x2="284" y2="48.27272727272728" fill="rgb(0, 0, 0)" stroke="rgb(60, 60, 60)" stroke-width="1px" opacity="0.25"></line><line x1="0" y1="32.18181818181819" x2="284" y2="32.18181818181819" fill="rgb(0, 0, 0)" stroke="rgb(60, 60, 60)" stroke-width="1px" opacity="0.25"></line><line x1="0" y1="16.090909090909093" x2="284" y2="16.090909090909093" fill="rgb(0, 0, 0)" stroke="rgb(60, 60, 60)" stroke-width="1px" opacity="0.25"></line><line x1="0" y1="0" x2="284" y2="0" fill="rgb(0, 0, 0)" stroke="rgb(60, 60, 60)" stroke-width="1px" opacity="0.25"></line></g></g></g><g><g><line x1="0" y1="160.9090909090909" x2="284" y2="160.9090909090909" fill="rgb(0, 0, 0)" stroke="rgb(153, 153, 153)" stroke-width="1.5px"></line></g></g><g><g><line x1="23.666666666666664" y1="0" x2="23.666666666666664" y2="177" fill="rgb(0, 0, 0)" stroke="rgb(153, 153, 153)" stroke-width="1.5px"></line></g></g><g><g><g><g><g><path stroke="rgb(255, 112, 67)" stroke-width="2px" d="M29.530935333333332,-2.237590011146949L29.739202000000002,3.165656895706121L30.166953333333336,7.265260150176715L30.367220666666665,11.269063289561586L30.569286666666667,16.37574746695344L31.000872,18.519584316160348L31.431037333333332,18.50962477686582L31.545063333333335,18.740230727447567L31.777517333333332,19.995353651822313L31.885058666666666,21.729782135679642L31.991511333333335,22.631517115023456L32.22652133333333,25.46007204077597L32.32909266666667,27.91392648943969L32.56012666666667,13.570337304659773L32.66392866666666,14.535747840324746L32.89501,15.610939732631977L32.996350666666665,17.06729504793995L33.101714666666666,17.5620483238429L33.334452666666664,14.522598723920765L33.44033733333333,16.932056508887456L33.54532266666667,15.226882538256262L33.648888,18.550328422749345L33.881058,20.46196372986347L34.11266,22.543323104279267L36.976942,22.712247101624797L37.423816,24.76286940446468L37.86761333333333,25.500197681416893L38.07535933333333,24.977881624811687L38.52341666666666,26.41532408576174L52.67314866666667,26.846310816435704L52.88098933333333,27.93388415535256L53.104307999999996,28.275750187608793L53.31058666666667,28.344888575762297L53.750691999999994,28.73924343091562L53.95697066666667,28.42347851484425L56.128008666666666,29.729062804801202L64.03456866666667,30.535553303935302L64.23587733333333,30.112484111027612L78.99848133333333,32.848710474930755L101.14328666666667,35.770640743084044L101.343838,37.6858642755559L101.56284933333333,36.835525150171804L101.99202066666666,39.2350483731463L102.19053666666667,40.86162701807001L102.391372,42.048627281041604L102.82040133333334,44.25750659756994L103.24673266666666,44.85520346002858L103.447568,46.71657522965447L103.64764600000001,47.701699530836066L103.84606733333332,49.45932766585614L104.04590866666668,50.7604307585334L104.24584466666667,52.405115068456155L104.67037733333333,52.99779391359951L104.86950866666666,53.926003061146744L105.29593466666667,54.1135848227334L105.72160333333332,55.26503609214811L105.92040333333334,56.42258017752614L106.34569333333333,57.5214669891613L106.545014,57.97779578930488L111.99644133333334,58.234325731134035L116.72650866666666,58.78310811883219L117.15847266666667,59.074121391350076L117.360018,59.255745089698365L117.56189466666666,59.88098622342423L117.99366933333333,60.14555064522456L118.194552,60.01407787598443L118.39609733333333,61.00938450230859L118.82815599999999,62.382371720563L119.03060066666667,62.98565995187877L119.46573599999999,62.456983999343066L119.67139933333333,63.22811259397022L120.10980066666667,63.05695140829987L120.31617399999999,63.598013319745036L120.521364,63.925212869724604L120.958582,63.57899207282634L121.164482,63.90470941697053L121.60274133333333,64.30247908432221L122.03976999999999,64.34785219884752L122.47840799999999,64.69234356634472L122.68364533333335,65.35617818345064L122.888504,65.00464809340457L123.32468066666667,64.93064884261348L123.52793,65.20644444256035L123.96155066666665,65.78716422492488L124.395692,65.83119160145912L124.59894133333333,65.59150341791103L124.79930333333334,66.14892692516109L125.23264,66.09064877412254L125.66555066666666,66.81360365632094L129.57736666666668,68.31042879721728L130.00019533333332,69.30661157095695L130.197528,70.21620437316682L146.21479666666667,71.12899054423215L146.65315066666668,71.82936468165074L147.08421533333333,72.30211553594943L147.291914,72.79306715158307L147.498808,73.36869907617694L147.70376133333335,73.9207849506665L148.14538133333335,74.65869923400847L148.580848,75.1937021240835L148.78409733333334,75.08713697558638L148.98871933333334,75.21062726891638L149.42726266666668,75.49712610946061L149.86471733333335,76.12504682756472L150.29885866666666,77.17466079922612L150.501966,77.97726882435303L150.93544466666665,78.06959749509456L151.13665866666668,78.3632430217202L151.56814933333334,78.84267039638738L151.76983666666666,79.29022428796398L152.201848,79.50093893148004L152.40396133333334,79.01471077414391L152.60574333333332,79.48042061372736L153.03676066666668,79.88959447657716L153.23750133333334,79.74175630466169L153.670412,80.13444895208244L153.87214666666665,80.8494688220207L154.303022,80.94981277043424L154.50452,81.12458513274265L154.93615266666666,81.95518686900353L155.36740666666668,77.71211451449877L155.57141333333334,78.51137172118752L155.77220133333333,78.99013553667432L155.973936,79.0610453653429L156.40651533333332,79.75679373169346L161.83687933333334,80.49806971650248L168.37990800000003,80.74427374413924L168.80799066666668,81.07948729759681L169.00556,81.22186069265759L169.20625333333334,80.43891836562061L169.40779866666668,80.0192924425067L169.83720666666667,80.37680142448146L170.265952,80.59669485295987L170.47341400000002,81.24171717220331L170.905946,82.0350928362167L171.10929000000002,82.00111169803777L171.31400666666667,82.40781198499236L171.5192913333333,82.97125335898838L171.95641466666666,83.05203594514703L172.392544,84.09704088620236L172.82895733333334,84.82363747043948L173.032822,85.69925054243275L173.23768066666665,86.28399370516613L173.44220800000002,86.94094419803196L173.6463566666667,87.91347050793063L174.082486,88.44397867801241L174.28644533333332,88.50852375682224L174.490452,88.98640512273339L174.92572933333332,89.51553765066446L175.360628,89.14940000958222L175.56562866666667,89.10509460361422L176.0027046666667,89.87515230819821L176.20514933333334,90.4457620240328L176.41038666666665,90.91790142296844L176.61515066666666,91.54497583762108L176.82015133333334,91.78947712357373L177.25438733333334,91.66089323260043L177.684032,92.08497098955549L177.88652399999998,92.21135949888479L178.08849533333333,92.59644295363917L178.51885,92.53050612933404L178.94617533333334,93.19831347415679L179.37534666666664,93.50794259909291L179.804944,93.83156057299153L180.00819333333334,93.92417597271181L180.21149000000003,93.45145807587761L180.64672,94.00947086779287L181.08048266666665,93.37339697264468L181.51760599999997,93.85860920794154L181.949286,94.27487547346166L183.99105666666665,94.59006918579466L184.42330466666667,94.79501311359034L184.62664866666668,94.88274983912657L185.06282533333334,95.0612050682372L185.49848133333333,95.00738020386233L185.70206199999998,95.35016511653006L186.13639266666667,95.51550117289801L186.3395,95.84405326781935L186.541708,95.63325240568446L186.97566,95.48216919497742L187.40994333333333,95.3059923068126L187.84498399999998,95.34061291464697L188.04794933333335,95.59931854470119L188.25176666666667,95.10892977888835L188.45610466666665,94.96951081383794L188.88939399999998,94.89137805557135L189.09287999999998,94.34067513395723L189.52531733333333,94.10528668643776L189.72582133333333,94.07802030703121L189.92873933333334,94.35436056309045L190.36051400000002,94.27249163971851L190.564142,92.6820726053962L190.99814133333334,93.1653397004736L191.42949000000002,92.21613760539188L191.63415933333332,92.10611705510215L191.838166,92.67641618010548L192.04155733333332,93.20369049216305L192.47541466666667,93.20256342008915L192.67918466666669,93.33204462436312L193.11138533333335,93.48233883229155L193.31278866666668,93.29416758651267L193.5138606666667,92.94755988243907L193.941044,93.44784484887224L194.36756466666668,93.56457287831518L194.79498466666666,93.78664546095034L194.99307466666667,93.72346012148901L195.1928213333333,93.74268416329346L195.39342,93.92182404544357L195.82155,94.16072390600048L196.02124933333334,94.01834660631883L196.21952866666666,94.48003026588951L196.64609666666666,94.76070890743695L196.84499133333333,95.2034490734262L197.04270266666668,95.37241219816931L200.183364,95.82936432291963L200.61655866666666,96.38989662105182L201.051552,96.8105562954402L201.25551133333335,97.26838053376237L201.689558,97.57453676842638L201.89152933333332,97.37545403475099L202.09492066666667,97.74901858084549L202.52333466666664,98.08148108752414L202.72346,98.61620215922991L208.72158733333333,99.06529000057544L208.929144,99.19647643471775L218.72065933333334,99.72356274682582L219.15721466666665,99.07862810482902L219.59296533333335,99.36999854941813L219.799528,99.83698147865879L220.243704,100.0995731922198L220.45220733333332,100.2662013812545L220.660048,100.6827795536799L221.103088,100.99047797494767L221.31211199999998,101.39721101535852L239.251398,101.73094371259035L239.45696666666666,101.96501313619096L239.90213666666665,102.12143037076987L240.11097133333334,102.32144184879103L240.31895400000002,102.70520566521046L240.52636866666666,102.97242729039135L240.73548733333334,103.35951400536415L240.94489000000002,103.0774659920499L241.15585466666667,103.3225984363735L241.60239733333333,103.55046642760112L241.81156333333334,103.72498358485822L242.01987733333334,103.79574548400414L242.227718,103.87516020503065L242.669054,103.86347806676284L243.11034266666667,103.79601220703219L243.31752066666667,104.16856901192023L243.52219,104.36186526218982L243.72846866666669,104.47785376122827L259.56998866666663,104.81152623147177L259.7659013333333,105.1115090931244L259.965506,105.19955710962854L260.1642586666667,105.45816688613537L260.3333333333333,105.61773981922272" style="fill: none;" fill="none"></path></g></g></g></g><g opacity="0.2"><g><g><g><path stroke="rgb(255, 112, 67)" stroke-width="2px" d="M24.269409333333332,-27.386399615894646L24.689682,1.0495449738068885L25.10451133333333,21.697568730874508L25.521991333333332,20.370510220527677L29.529326,40.23766929453069L29.530935333333332,24.962723851203947L29.739202000000002,36.80892169475558L30.166953333333336,35.23196193304929L30.367220666666665,40.83228772336787L30.569286666666667,56.7915459654548L31.000872,36.56017135490072L31.431037333333332,18.421105905012666L31.545063333333335,20.892736315727262L31.777517333333332,32.23960161209109L31.885058666666666,39.33963222937152L31.991511333333335,32.12546955455434L32.22652133333333,56.243069497021764L32.32909266666667,55.44003058563581L32.56012666666667,-151.8588215654546L32.66392866666666,25.957955392924248L32.89501,28.63462068817833L32.996350666666665,35.09488837285477L33.101714666666666,23.810469616543173L33.334452666666664,-24.58333546465093L33.44033733333333,48.47094492478806L33.54532266666667,-7.452957630157471L33.648888,63.41607749462129L33.881058,46.62800951437518L34.11266,51.40192329883577L36.976942,25.082725557413994L37.423816,53.86319550600919L37.86761333333333,36.07369065284732L38.07535933333333,17.414106293158113L38.52341666666666,47.422502907839714L52.67314866666667,33.199001442302375L52.88098933333333,44.09352974458176L53.104307999999996,33.39361098679632L53.31058666666667,29.387220902876436L53.750691999999994,34.72388245842674L53.95697066666667,23.601770997047453L56.128008666666666,49.78128644553098L64.03456866666667,42.98995906656438L64.23587733333333,23.545635288411916L78.99848133333333,75.52480784329502L101.14328666666667,81.54935002326967L101.343838,67.81982936642389L101.56284933333333,23.40287430719897L101.99202066666666,77.28235521099786L102.19053666666667,66.744149110534L102.391372,60.99927842617036L102.82040133333334,79.63295768607746L103.24673266666666,54.455569657412454L103.447568,76.69727975671942L103.64764600000001,63.61027462915942L103.84606733333332,77.91263271461835L104.04590866666668,71.87201613729651L104.24584466666667,79.14975708181208L104.67037733333333,62.655277035453125L104.86950866666666,69.08006787300111L105.29593466666667,57.18164741992952L105.72160333333332,74.13034428249708L105.92040333333334,75.41838689283892L106.34569333333333,75.58217119086875L106.545014,65.48854302276267L111.99644133333334,62.46228835799478L116.72650866666666,67.83933731642637L117.15847266666667,63.88232133605264L117.360018,62.25998688827863L117.56189466666666,70.23418274792759L117.99366933333333,64.5308216051622L118.194552,57.83278519457038L118.39609733333333,77.5375506552783L118.82815599999999,85.20164300094953L119.03060066666667,73.02041481841697L119.46573599999999,53.656664436513736L119.67139933333333,76.07340899380772L120.10980066666667,60.203873894431396L120.31617399999999,72.62265021150763L120.521364,69.38598974184558L120.958582,57.797509756955236L121.164482,69.34669570489365L121.60274133333333,70.95162261616102L122.03976999999999,65.10667058554563L122.47840799999999,70.45617439530115L122.68364533333335,76.46774963899094L122.888504,59.11823825402695L123.32468066666667,63.691059025851175L123.52793,69.8280356688933L123.96155066666665,75.52170997316188L124.395692,66.56945033506915L124.59894133333333,61.57117594372144L124.79930333333334,75.50130047581415L125.23264,65.1126073707234L125.66555066666666,78.94947929815814L129.57736666666668,93.44279278408398L130.00019533333332,86.0366868430918L130.197528,85.49527888948268L146.21479666666667,86.46474439989439L146.65315066666668,83.59857672994788L147.08421533333333,80.24770747531544L147.291914,81.04593653570524L147.498808,83.04656120863828L147.70376133333335,83.20415456186643L148.14538133333335,87.0685269615867L148.580848,84.1922696341168L148.78409733333334,73.2945235750892L148.98871933333334,77.28819608688356L149.42726266666668,80.31764453107661L149.86471733333335,86.691306125034L150.29885866666666,94.83866141601044L150.501966,91.48565817962994L150.93544466666665,79.62368325753647L151.13665866666668,83.30632673068482L151.56814933333334,86.91374854608017L151.76983666666666,86.82527701963078L152.201848,83.048795895143L152.40396133333334,70.82742008295926L152.60574333333332,87.32270576737146L153.03676066666668,86.78025240247901L153.23750133333334,77.25196155634794L153.670412,86.74827144904572L153.87214666666665,92.8925995393233L154.303022,82.639992128719L154.50452,84.06855623830448L154.93615266666666,95.94692685387352L155.36740666666668,6.233451799912899L155.57141333333334,91.97613350369714L155.77220133333333,87.05595804886386L155.973936,80.25571590120143L156.40651533333332,91.47894932465121L161.83687933333334,92.98765523867175L168.37990800000003,84.89262326197192L168.80799066666668,86.72772767868909L169.00556,83.62086604941975L169.20625333333334,67.24595611745661L169.40779866666668,72.94823348522188L169.83720666666667,86.40126203948802L170.265952,84.30223922837864L170.47341400000002,92.11154303767465L170.905946,95.40518321774223L171.10929000000002,81.42844676971437L171.31400666666667,89.26180942492053L171.5192913333333,92.4669013511051L171.95641466666666,84.41347962076014L172.392544,101.70893173326147L172.82895733333334,97.06941563974728L173.032822,100.456668084318L173.23768066666665,96.13925375721672L173.44220800000002,98.01330214196986L173.6463566666667,104.30475988171318L174.082486,97.38542716611516L174.28644533333332,89.59640817208725L174.490452,97.04099292104895L174.92572933333332,98.4340226379308L175.360628,82.97813472422688L175.56562866666667,88.35831991650842L176.0027046666667,102.85468331792138L176.20514933333334,100.06360303271902L176.41038666666665,98.8760349967263L176.61515066666666,102.11467119780454L176.82015133333334,95.91070670973171L177.25438733333334,89.4935166835785L177.684032,99.23314845020121L177.88652399999998,94.34175057844683L178.08849533333333,99.08739509907636L178.51885,91.41907315362585L178.94617533333334,104.45493465120143L179.37534666666664,98.72709745710547L179.804944,99.28653156215495L180.00819333333334,95.48532502217728L180.21149000000003,85.48317993229087L180.64672,103.41553208502857L181.08048266666665,82.65148206190631L181.51760599999997,102.03756012699822L181.949286,101.29165917634965L183.99105666666665,99.90313719619405L184.42330466666667,98.24966100129215L184.62664866666668,96.36169138279828L185.06282533333334,98.06935632770713L185.49848133333333,94.1000735488805L185.70206199999998,101.12837840210308L186.13639266666667,98.30252140760423L186.3395,101.38236538930374L186.541708,92.07983542572369L186.97566,92.93539426543497L187.40994333333333,92.33621534976093L187.84498399999998,95.92420594258743L188.04794933333335,99.96027515693146L188.25176666666667,86.84252151034097L188.45610466666665,92.61934437535027L188.88939399999998,93.57430360533975L189.09287999999998,85.05753449418329L189.52531733333333,90.13736535202374L189.72582133333333,93.61839310689408L189.92873933333334,99.0126098286022L190.36051400000002,92.89243169806221L190.564142,65.87244873697108L190.99814133333334,101.31175696849824L191.42949000000002,76.21546024625952L191.63415933333332,90.25150220502508L191.838166,102.28994542902167L192.04155733333332,102.09195508198306L192.47541466666667,93.18356435407293L192.67918466666669,95.51471162926067L193.11138533333335,96.01585206660359L193.31278866666668,90.12215893376958L193.5138606666667,87.10478067398073L193.941044,101.88117043538529L194.36756466666668,95.5322630297054L194.79498466666666,97.53013510595669L194.99307466666667,92.65834109349686L195.1928213333333,94.06674506989393L195.39342,96.94159732623535L195.82155,98.18787623535503L196.02124933333334,91.61828154867347L196.21952866666666,102.26266882636331L196.64609666666666,99.49213231151755L196.84499133333333,102.66675865108317L197.04270266666668,98.22063884951852L200.183364,103.532248897986L200.61655866666666,105.83884339440954L201.051552,103.90165792270142L201.25551133333335,104.98597001487559L201.689558,102.73544409058312L201.89152933333332,94.01949535716665L202.09492066666667,104.04623638499868L202.52333466666664,103.68583803827113L202.72346,107.63005492362109L208.72158733333333,106.6356146335602L208.929144,101.40790123831142L218.72065933333334,108.60871813514017L219.15721466666665,88.20688873529436L219.59296533333335,104.2816649241881L219.799528,107.70896908911791L220.243704,104.52611373229462L220.45220733333332,103.07507328011773L220.660048,107.7050895582546L221.103088,106.17738880894402L221.31211199999998,108.25356123122302L239.251398,107.35671823674983L239.45696666666666,105.91075138612229L239.90213666666665,104.75817585533316L240.11097133333334,105.69306127049707L240.31895400000002,109.17436236684973L240.52636866666666,107.47701726176523L240.73548733333334,109.88468576561321L240.94489000000002,98.32294529134577L241.15585466666667,107.45482864705L241.60239733333333,107.391667582772L241.81156333333334,106.66684269905092L242.01987733333334,104.9885883385485L242.227718,105.21386487917468L242.669054,103.66655067964035L243.11034266666667,102.65873104333879L243.31752066666667,110.44880983504382L243.52219,107.62028656222604L243.72846866666669,106.43308777700771L259.56998866666663,110.43628887696701L259.7659013333333,110.16836147416723L259.965506,106.68379466642034L260.1642586666667,109.81758762489666L260.3333333333333,108.30768284472552" style="fill: none;" fill="none"></path></g></g></g></g></g></g><g transform="translate(46, 177)" clip-path="url(#clip_1)"><clipPath id="clip_1"><rect width="284" height="23"></rect></clipPath><g><g><line x1="0" y1="0" x2="0" y2="5" style="visibility: inherit;" fill="rgb(0, 0, 0)" stroke="rgb(204, 204, 204)" stroke-width="1px"></line><line x1="23.666666666666664" y1="0" x2="23.666666666666664" y2="5" style="visibility: inherit;" fill="rgb(0, 0, 0)" stroke="rgb(204, 204, 204)" stroke-width="1px"></line><line x1="47.33333333333333" y1="0" x2="47.33333333333333" y2="5" style="visibility: inherit;" fill="rgb(0, 0, 0)" stroke="rgb(204, 204, 204)" stroke-width="1px"></line><line x1="71" y1="0" x2="71" y2="5" style="visibility: inherit;" fill="rgb(0, 0, 0)" stroke="rgb(204, 204, 204)" stroke-width="1px"></line><line x1="94.66666666666666" y1="0" x2="94.66666666666666" y2="5" style="visibility: inherit;" fill="rgb(0, 0, 0)" stroke="rgb(204, 204, 204)" stroke-width="1px"></line><line x1="118.33333333333334" y1="0" x2="118.33333333333334" y2="5" style="visibility: inherit;" fill="rgb(0, 0, 0)" stroke="rgb(204, 204, 204)" stroke-width="1px"></line><line x1="142" y1="0" x2="142" y2="5" style="visibility: inherit;" fill="rgb(0, 0, 0)" stroke="rgb(204, 204, 204)" stroke-width="1px"></line><line x1="165.66666666666669" y1="0" x2="165.66666666666669" y2="5" style="visibility: inherit;" fill="rgb(0, 0, 0)" stroke="rgb(204, 204, 204)" stroke-width="1px"></line><line x1="189.33333333333331" y1="0" x2="189.33333333333331" y2="5" style="visibility: inherit;" fill="rgb(0, 0, 0)" stroke="rgb(204, 204, 204)" stroke-width="1px"></line><line x1="213" y1="0" x2="213" y2="5" style="visibility: inherit;" fill="rgb(0, 0, 0)" stroke="rgb(204, 204, 204)" stroke-width="1px"></line><line x1="236.66666666666669" y1="0" x2="236.66666666666669" y2="5" style="visibility: inherit;" fill="rgb(0, 0, 0)" stroke="rgb(204, 204, 204)" stroke-width="1px"></line><line x1="260.3333333333333" y1="0" x2="260.3333333333333" y2="5" style="visibility: inherit;" fill="rgb(0, 0, 0)" stroke="rgb(204, 204, 204)" stroke-width="1px"></line><line x1="284" y1="0" x2="284" y2="5" style="visibility: inherit;" fill="rgb(0, 0, 0)" stroke="rgb(204, 204, 204)" stroke-width="1px"></line></g><g transform="translate(0, 8)"><text x="0" y="0" dx="0em" dy="0.95em" style="text-anchor: middle; visibility: hidden; font-family: &quot;Helvetica Neue&quot;, sans-serif; font-size: 12px; font-weight: 200;" fill="rgb(50, 49, 63)" stroke="none" stroke-width="1px">-500k</text><text x="23.666666666666664" y="0" dx="0em" dy="0.95em" style="text-anchor: middle; visibility: inherit; font-family: &quot;Helvetica Neue&quot;, sans-serif; font-size: 12px; font-weight: 200;" fill="rgb(50, 49, 63)" stroke="none" stroke-width="1px">0</text><text x="47.33333333333333" y="0" dx="0em" dy="0.95em" style="text-anchor: middle; visibility: hidden; font-family: &quot;Helvetica Neue&quot;, sans-serif; font-size: 12px; font-weight: 200;" fill="rgb(50, 49, 63)" stroke="none" stroke-width="1px">500k</text><text x="71" y="0" dx="0em" dy="0.95em" style="text-anchor: middle; visibility: inherit; font-family: &quot;Helvetica Neue&quot;, sans-serif; font-size: 12px; font-weight: 200;" fill="rgb(50, 49, 63)" stroke="none" stroke-width="1px">1M</text><text x="94.66666666666666" y="0" dx="0em" dy="0.95em" style="text-anchor: middle; visibility: hidden; font-family: &quot;Helvetica Neue&quot;, sans-serif; font-size: 12px; font-weight: 200;" fill="rgb(50, 49, 63)" stroke="none" stroke-width="1px">1.5M</text><text x="118.33333333333334" y="0" dx="0em" dy="0.95em" style="text-anchor: middle; visibility: inherit; font-family: &quot;Helvetica Neue&quot;, sans-serif; font-size: 12px; font-weight: 200;" fill="rgb(50, 49, 63)" stroke="none" stroke-width="1px">2M</text><text x="142" y="0" dx="0em" dy="0.95em" style="text-anchor: middle; visibility: hidden; font-family: &quot;Helvetica Neue&quot;, sans-serif; font-size: 12px; font-weight: 200;" fill="rgb(50, 49, 63)" stroke="none" stroke-width="1px">2.5M</text><text x="165.66666666666669" y="0" dx="0em" dy="0.95em" style="text-anchor: middle; visibility: inherit; font-family: &quot;Helvetica Neue&quot;, sans-serif; font-size: 12px; font-weight: 200;" fill="rgb(50, 49, 63)" stroke="none" stroke-width="1px">3M</text><text x="189.33333333333331" y="0" dx="0em" dy="0.95em" style="text-anchor: middle; visibility: hidden; font-family: &quot;Helvetica Neue&quot;, sans-serif; font-size: 12px; font-weight: 200;" fill="rgb(50, 49, 63)" stroke="none" stroke-width="1px">3.5M</text><text x="213" y="0" dx="0em" dy="0.95em" style="text-anchor: middle; visibility: inherit; font-family: &quot;Helvetica Neue&quot;, sans-serif; font-size: 12px; font-weight: 200;" fill="rgb(50, 49, 63)" stroke="none" stroke-width="1px">4M</text><text x="236.66666666666669" y="0" dx="0em" dy="0.95em" style="text-anchor: middle; visibility: hidden; font-family: &quot;Helvetica Neue&quot;, sans-serif; font-size: 12px; font-weight: 200;" fill="rgb(50, 49, 63)" stroke="none" stroke-width="1px">4.5M</text><text x="260.3333333333333" y="0" dx="0em" dy="0.95em" style="text-anchor: middle; visibility: inherit; font-family: &quot;Helvetica Neue&quot;, sans-serif; font-size: 12px; font-weight: 200;" fill="rgb(50, 49, 63)" stroke="none" stroke-width="1px">5M</text><text x="284" y="0" dx="0em" dy="0.95em" style="text-anchor: middle; visibility: hidden; font-family: &quot;Helvetica Neue&quot;, sans-serif; font-size: 12px; font-weight: 200;" fill="rgb(50, 49, 63)" stroke="none" stroke-width="1px">5.5M</text></g><line x1="0" y1="0" x2="284" y2="0" fill="rgb(0, 0, 0)" stroke="rgb(204, 204, 204)" stroke-width="1px"></line></g></g></g></g></svg>