<svg viewBox="0 0 330 200" xmlns="http://www.w3.org/2000/svg"><g><g><g><g><g><line x1="28" y1="177" x2="23" y2="177" style="visibility: inherit;" fill="rgb(0, 0, 0)" stroke="rgb(204, 204, 204)" stroke-width="1px"></line><line x1="28" y1="164.35714285714286" x2="23" y2="164.35714285714286" style="visibility: inherit;" fill="rgb(0, 0, 0)" stroke="rgb(204, 204, 204)" stroke-width="1px"></line><line x1="28" y1="151.71428571428572" x2="23" y2="151.71428571428572" style="visibility: inherit;" fill="rgb(0, 0, 0)" stroke="rgb(204, 204, 204)" stroke-width="1px"></line><line x1="28" y1="139.07142857142858" x2="23" y2="139.07142857142858" style="visibility: inherit;" fill="rgb(0, 0, 0)" stroke="rgb(204, 204, 204)" stroke-width="1px"></line><line x1="28" y1="126.42857142857143" x2="23" y2="126.42857142857143" style="visibility: inherit;" fill="rgb(0, 0, 0)" stroke="rgb(204, 204, 204)" stroke-width="1px"></line><line x1="28" y1="113.78571428571428" x2="23" y2="113.78571428571428" style="visibility: inherit;" fill="rgb(0, 0, 0)" stroke="rgb(204, 204, 204)" stroke-width="1px"></line><line x1="28" y1="101.14285714285715" x2="23" y2="101.14285714285715" style="visibility: inherit;" fill="rgb(0, 0, 0)" stroke="rgb(204, 204, 204)" stroke-width="1px"></line><line x1="28" y1="88.5" x2="23" y2="88.5" style="visibility: inherit;" fill="rgb(0, 0, 0)" stroke="rgb(204, 204, 204)" stroke-width="1px"></line><line x1="28" y1="75.85714285714286" x2="23" y2="75.85714285714286" style="visibility: inherit;" fill="rgb(0, 0, 0)" stroke="rgb(204, 204, 204)" stroke-width="1px"></line><line x1="28" y1="63.21428571428571" x2="23" y2="63.21428571428571" style="visibility: inherit;" fill="rgb(0, 0, 0)" stroke="rgb(204, 204, 204)" stroke-width="1px"></line><line x1="28" y1="50.57142857142857" x2="23" y2="50.57142857142857" style="visibility: inherit;" fill="rgb(0, 0, 0)" stroke="rgb(204, 204, 204)" stroke-width="1px"></line><line x1="28" y1="37.928571428571445" x2="23" y2="37.928571428571445" style="visibility: inherit;" fill="rgb(0, 0, 0)" stroke="rgb(204, 204, 204)" stroke-width="1px"></line><line x1="28" y1="25.285714285714306" x2="23" y2="25.285714285714306" style="visibility: inherit;" fill="rgb(0, 0, 0)" stroke="rgb(204, 204, 204)" stroke-width="1px"></line><line x1="28" y1="12.642857142857139" x2="23" y2="12.642857142857139" style="visibility: inherit;" fill="rgb(0, 0, 0)" stroke="rgb(204, 204, 204)" stroke-width="1px"></line><line x1="28" y1="0" x2="23" y2="0" style="visibility: inherit;" fill="rgb(0, 0, 0)" stroke="rgb(204, 204, 204)" stroke-width="1px"></line></g><g transform="translate(18, 0)"><text x="0" y="177" dx="0em" dy="0.3em" style="text-anchor: end; visibility: hidden; font-family: &quot;Helvetica Neue&quot;, sans-serif; font-size: 12px; font-weight: 200;" fill="rgb(50, 49, 63)" stroke="none" stroke-width="1px">-2</text><text x="0" y="164.35714285714286" dx="0em" dy="0.3em" style="text-anchor: end; visibility: inherit; font-family: &quot;Helvetica Neue&quot;, sans-serif; font-size: 12px; font-weight: 200;" fill="rgb(50, 49, 63)" stroke="none" stroke-width="1px">-1</text><text x="0" y="151.71428571428572" dx="0em" dy="0.3em" style="text-anchor: end; visibility: hidden; font-family: &quot;Helvetica Neue&quot;, sans-serif; font-size: 12px; font-weight: 200;" fill="rgb(50, 49, 63)" stroke="none" stroke-width="1px">0</text><text x="0" y="139.07142857142858" dx="0em" dy="0.3em" style="text-anchor: end; visibility: inherit; font-family: &quot;Helvetica Neue&quot;, sans-serif; font-size: 12px; font-weight: 200;" fill="rgb(50, 49, 63)" stroke="none" stroke-width="1px">1</text><text x="0" y="126.42857142857143" dx="0em" dy="0.3em" style="text-anchor: end; visibility: hidden; font-family: &quot;Helvetica Neue&quot;, sans-serif; font-size: 12px; font-weight: 200;" fill="rgb(50, 49, 63)" stroke="none" stroke-width="1px">2</text><text x="0" y="113.78571428571428" dx="0em" dy="0.3em" style="text-anchor: end; visibility: inherit; font-family: &quot;Helvetica Neue&quot;, sans-serif; font-size: 12px; font-weight: 200;" fill="rgb(50, 49, 63)" stroke="none" stroke-width="1px">3</text><text x="0" y="101.14285714285715" dx="0em" dy="0.3em" style="text-anchor: end; visibility: hidden; font-family: &quot;Helvetica Neue&quot;, sans-serif; font-size: 12px; font-weight: 200;" fill="rgb(50, 49, 63)" stroke="none" stroke-width="1px">4</text><text x="0" y="88.5" dx="0em" dy="0.3em" style="text-anchor: end; visibility: inherit; font-family: &quot;Helvetica Neue&quot;, sans-serif; font-size: 12px; font-weight: 200;" fill="rgb(50, 49, 63)" stroke="none" stroke-width="1px">5</text><text x="0" y="75.85714285714286" dx="0em" dy="0.3em" style="text-anchor: end; visibility: hidden; font-family: &quot;Helvetica Neue&quot;, sans-serif; font-size: 12px; font-weight: 200;" fill="rgb(50, 49, 63)" stroke="none" stroke-width="1px">6</text><text x="0" y="63.21428571428571" dx="0em" dy="0.3em" style="text-anchor: end; visibility: inherit; font-family: &quot;Helvetica Neue&quot;, sans-serif; font-size: 12px; font-weight: 200;" fill="rgb(50, 49, 63)" stroke="none" stroke-width="1px">7</text><text x="0" y="50.57142857142857" dx="0em" dy="0.3em" style="text-anchor: end; visibility: hidden; font-family: &quot;Helvetica Neue&quot;, sans-serif; font-size: 12px; font-weight: 200;" fill="rgb(50, 49, 63)" stroke="none" stroke-width="1px">8</text><text x="0" y="37.928571428571445" dx="0em" dy="0.3em" style="text-anchor: end; visibility: inherit; font-family: &quot;Helvetica Neue&quot;, sans-serif; font-size: 12px; font-weight: 200;" fill="rgb(50, 49, 63)" stroke="none" stroke-width="1px">9</text><text x="0" y="25.285714285714306" dx="0em" dy="0.3em" style="text-anchor: end; visibility: hidden; font-family: &quot;Helvetica Neue&quot;, sans-serif; font-size: 12px; font-weight: 200;" fill="rgb(50, 49, 63)" stroke="none" stroke-width="1px">10</text><text x="0" y="12.642857142857139" dx="0em" dy="0.3em" style="text-anchor: end; visibility: inherit; font-family: &quot;Helvetica Neue&quot;, sans-serif; font-size: 12px; font-weight: 200;" fill="rgb(50, 49, 63)" stroke="none" stroke-width="1px">11</text><text x="0" y="0" dx="0em" dy="0.3em" style="text-anchor: end; visibility: hidden; font-family: &quot;Helvetica Neue&quot;, sans-serif; font-size: 12px; font-weight: 200;" fill="rgb(50, 49, 63)" stroke="none" stroke-width="1px">12</text></g><line x1="28" y1="0" x2="28" y2="177" fill="rgb(0, 0, 0)" stroke="rgb(204, 204, 204)" stroke-width="1px"></line></g></g><g transform="translate(28, 0)" clip-path="url(#clip_0)"><clipPath id="clip_0"><rect width="302" height="177"></rect></clipPath><g><g><g><line x1="0" y1="0" x2="0" y2="177" fill="rgb(0, 0, 0)" stroke="rgb(60, 60, 60)" stroke-width="1px" opacity="0.25"></line><line x1="25.166666666666664" y1="0" x2="25.166666666666664" y2="177" fill="rgb(0, 0, 0)" stroke="rgb(60, 60, 60)" stroke-width="1px" opacity="0.25"></line><line x1="50.33333333333333" y1="0" x2="50.33333333333333" y2="177" fill="rgb(0, 0, 0)" stroke="rgb(60, 60, 60)" stroke-width="1px" opacity="0.25"></line><line x1="75.5" y1="0" x2="75.5" y2="177" fill="rgb(0, 0, 0)" stroke="rgb(60, 60, 60)" stroke-width="1px" opacity="0.25"></line><line x1="100.66666666666666" y1="0" x2="100.66666666666666" y2="177" fill="rgb(0, 0, 0)" stroke="rgb(60, 60, 60)" stroke-width="1px" opacity="0.25"></line><line x1="125.83333333333334" y1="0" x2="125.83333333333334" y2="177" fill="rgb(0, 0, 0)" stroke="rgb(60, 60, 60)" stroke-width="1px" opacity="0.25"></line><line x1="151" y1="0" x2="151" y2="177" fill="rgb(0, 0, 0)" stroke="rgb(60, 60, 60)" stroke-width="1px" opacity="0.25"></line><line x1="176.16666666666669" y1="0" x2="176.16666666666669" y2="177" fill="rgb(0, 0, 0)" stroke="rgb(60, 60, 60)" stroke-width="1px" opacity="0.25"></line><line x1="201.33333333333331" y1="0" x2="201.33333333333331" y2="177" fill="rgb(0, 0, 0)" stroke="rgb(60, 60, 60)" stroke-width="1px" opacity="0.25"></line><line x1="226.5" y1="0" x2="226.5" y2="177" fill="rgb(0, 0, 0)" stroke="rgb(60, 60, 60)" stroke-width="1px" opacity="0.25"></line><line x1="251.66666666666669" y1="0" x2="251.66666666666669" y2="177" fill="rgb(0, 0, 0)" stroke="rgb(60, 60, 60)" stroke-width="1px" opacity="0.25"></line><line x1="276.8333333333333" y1="0" x2="276.8333333333333" y2="177" fill="rgb(0, 0, 0)" stroke="rgb(60, 60, 60)" stroke-width="1px" opacity="0.25"></line><line x1="302" y1="0" x2="302" y2="177" fill="rgb(0, 0, 0)" stroke="rgb(60, 60, 60)" stroke-width="1px" opacity="0.25"></line></g><g><line x1="0" y1="177" x2="302" y2="177" fill="rgb(0, 0, 0)" stroke="rgb(60, 60, 60)" stroke-width="1px" opacity="0.25"></line><line x1="0" y1="164.35714285714286" x2="302" y2="164.35714285714286" fill="rgb(0, 0, 0)" stroke="rgb(60, 60, 60)" stroke-width="1px" opacity="0.25"></line><line x1="0" y1="151.71428571428572" x2="302" y2="151.71428571428572" fill="rgb(0, 0, 0)" stroke="rgb(60, 60, 60)" stroke-width="1px" opacity="0.25"></line><line x1="0" y1="139.07142857142858" x2="302" y2="139.07142857142858" fill="rgb(0, 0, 0)" stroke="rgb(60, 60, 60)" stroke-width="1px" opacity="0.25"></line><line x1="0" y1="126.42857142857143" x2="302" y2="126.42857142857143" fill="rgb(0, 0, 0)" stroke="rgb(60, 60, 60)" stroke-width="1px" opacity="0.25"></line><line x1="0" y1="113.78571428571428" x2="302" y2="113.78571428571428" fill="rgb(0, 0, 0)" stroke="rgb(60, 60, 60)" stroke-width="1px" opacity="0.25"></line><line x1="0" y1="101.14285714285715" x2="302" y2="101.14285714285715" fill="rgb(0, 0, 0)" stroke="rgb(60, 60, 60)" stroke-width="1px" opacity="0.25"></line><line x1="0" y1="88.5" x2="302" y2="88.5" fill="rgb(0, 0, 0)" stroke="rgb(60, 60, 60)" stroke-width="1px" opacity="0.25"></line><line x1="0" y1="75.85714285714286" x2="302" y2="75.85714285714286" fill="rgb(0, 0, 0)" stroke="rgb(60, 60, 60)" stroke-width="1px" opacity="0.25"></line><line x1="0" y1="63.21428571428571" x2="302" y2="63.21428571428571" fill="rgb(0, 0, 0)" stroke="rgb(60, 60, 60)" stroke-width="1px" opacity="0.25"></line><line x1="0" y1="50.57142857142857" x2="302" y2="50.57142857142857" fill="rgb(0, 0, 0)" stroke="rgb(60, 60, 60)" stroke-width="1px" opacity="0.25"></line><line x1="0" y1="37.928571428571445" x2="302" y2="37.928571428571445" fill="rgb(0, 0, 0)" stroke="rgb(60, 60, 60)" stroke-width="1px" opacity="0.25"></line><line x1="0" y1="25.285714285714306" x2="302" y2="25.285714285714306" fill="rgb(0, 0, 0)" stroke="rgb(60, 60, 60)" stroke-width="1px" opacity="0.25"></line><line x1="0" y1="12.642857142857139" x2="302" y2="12.642857142857139" fill="rgb(0, 0, 0)" stroke="rgb(60, 60, 60)" stroke-width="1px" opacity="0.25"></line><line x1="0" y1="0" x2="302" y2="0" fill="rgb(0, 0, 0)" stroke="rgb(60, 60, 60)" stroke-width="1px" opacity="0.25"></line></g></g></g><g><g><line x1="0" y1="151.71428571428572" x2="302" y2="151.71428571428572" fill="rgb(0, 0, 0)" stroke="rgb(153, 153, 153)" stroke-width="1.5px"></line></g></g><g><g><line x1="25.166666666666664" y1="0" x2="25.166666666666664" y2="177" fill="rgb(0, 0, 0)" stroke="rgb(153, 153, 153)" stroke-width="1.5px"></line></g></g><g><g><g><g><g><path stroke="rgb(255, 112, 67)" stroke-width="2px" d="M25.394727,127.80491827215468L25.607989333333336,127.8738415170809L25.807611333333334,127.68937358476347L26.254521,127.23605692893705L26.695642333333332,126.16402853073014L27.139582333333333,124.6599249990023L31.400903,118.0389011771012L31.402614333333332,113.60586326779745L31.624081,101.67234176356177L32.078943333333335,98.97376621771726L32.29190366666666,94.24883045555057L32.50677666666667,93.09803611055291L32.965716,88.31270181373297L33.42314533333333,83.81168882199088L33.54439833333333,78.74631796874903L33.79158533333333,77.87622775175257L33.90594266666667,79.37200477036109L34.019142333333335,77.4654676226106L34.26904733333333,78.12429259595575L34.37811966666666,80.21598796485965L34.62379666666667,80.23567276266675L34.73417766666667,81.45660163049664L34.979905,83.63384849266467L35.087668666666666,83.74020528652339L35.19971066666667,84.72228183304114L35.44719966666666,83.16986588150313L35.559795333333334,82.16013199470221L35.67143466666667,79.57757111212928L35.781564,80.1006097174654L36.028449,80.92127397842007L36.27473,82.35052131466689L39.320551,83.1478875260844L39.795748,84.7548641166397L40.267673333333335,82.14985327795242L40.48858633333333,82.10624710831371L40.965041666666664,79.09886314764677L56.011587666666664,76.88791527055821L56.23260133333333,75.84620748169372L56.470074,75.37783241136061L56.68942666666667,74.26984180544378L57.157425999999994,74.51458462434829L57.37677866666667,74.7360161151405L59.685417666666666,76.36435247640722L68.09309766666667,77.34583833964216L68.30716533333333,76.77110194557258L84.00542733333333,76.3186977372056L107.55377666666666,76.87913743544568L107.767039,74.99659543590488L107.99993133333334,75.7532545569035L108.45630366666667,72.30230932127233L108.66740166666666,72.05241872105643L108.880966,73.33345061761365L109.33718733333333,73.60367468241179L109.79053966666666,73.72724786344736L110.00410400000001,73.15636892904264L110.216863,71.97423157189564L110.42786033333333,70.5531333647L110.64036766666668,68.45552691896839L110.85297566666667,69.00835329046393L111.30441533333334,66.97259026830596L111.51616766666666,66.95128678649955L111.96962066666667,68.88107376547036L112.42226833333332,67.22756704960732L112.63366833333333,69.00887668509381L113.08591333333334,69.03600787027409L113.297867,68.41758460438633L119.09480733333334,67.36029238664429L124.12466766666667,69.0830880732503L124.58400966666666,69.8869413657565L124.798329,69.62593323523019L125.01300066666666,68.9820271440914L125.47214133333333,67.2361403679401L125.685756,67.23994613697792L125.90007533333333,66.65398016423374L126.359518,66.97781846122994L126.57479366666668,66.19916515365821L127.03750799999999,64.97623139564509L127.25620633333334,65.72221081085947L127.72239366666666,64.88486153934119L127.941847,66.38557754514808L128.160042,64.27911098623291L128.62497100000002,62.534810733877706L128.843921,62.79410860832313L129.30995733333333,62.344228521006414L129.774685,63.047527970297665L130.24112399999999,63.108263605887146L130.45936933333334,62.18127613189303L130.677212,61.01568366595963L131.14103366666666,60.524105807528414L131.357165,61.358519661274485L131.81826866666665,61.316418717249846L132.279926,60.13888624259809L132.49605733333334,57.87654791605715L132.70911833333335,59.51739028133001L133.16992000000002,57.60894870173561L133.63026866666667,54.35288505522004L137.79001666666667,55.885022676269585L138.23964433333333,55.14521450776594L138.449484,56.20093000604405L155.48193166666667,57.88411677069783L155.94806866666667,57.905341681459916L156.40645433333333,56.96218271833445L156.627317,55.93580868528974L156.847324,56.46568004814199L157.06526733333334,55.45254984644734L157.53487733333336,55.949347514869885L157.997944,55.83558712547273L158.2140753333333,54.25611819663972L158.43166633333334,53.44398365845474L158.89800466666668,53.58435566585922L159.36318533333335,55.09152904249163L159.82484266666665,55.251505016563286L160.04082300000002,54.059737415714565L160.50177566666667,52.82088607356144L160.71574266666667,53.50983603014606L161.17458133333332,53.87709758965018L161.38905166666666,54.20404928699078L161.848444,52.48671484161356L162.06336733333333,53.29111900316977L162.2779383333333,53.60132416708562L162.73627366666668,53.144064602634685L162.94973733333333,54.597249498222794L163.410086,54.7821792171098L163.62460666666666,55.7341814148014L164.082791,56.57979327851855L164.29706000000002,55.94707751166193L164.75604966666666,57.52093348492866L165.21463666666668,56.58891562062101L165.43157333333332,58.62657666920491L165.64508733333332,59.412129077094136L165.859608,60.351833707559436L166.31960433333333,61.80218734786118L172.09414633333336,62.0724571010834L179.05187400000003,61.803480025966124L179.50708866666668,61.291253371527944L179.71718,61.03282058631838L179.93059333333332,60.21040370083004L180.14491266666667,56.93657314891759L180.60153666666668,53.32939380173298L181.05745599999997,50.71242158768837L181.27806700000002,50.92502964702382L181.738013,50.72522831023798L181.95424500000001,49.67724410219755L182.17193666666665,51.067461517394676L182.39023233333333,51.90178948097831L182.85506066666665,52.19154603356827L183.318832,53.35492284710635L183.78290533333333,53.769574044738775L183.999691,53.9535953769833L184.21753366666664,54.38032566273897L184.435024,56.15911331666456L184.65211166666668,56.44833289191949L185.115883,56.89896834480106L185.33276933333332,55.8239777933195L185.54970600000001,54.25475305695953L186.01257133333334,53.89082656137511L186.475034,53.91613849007655L186.69302766666667,54.569497276835776L187.1578056666667,55.900673426851L187.37308133333332,56.62462139060898L187.59132666666665,57.237906740754156L187.8090686666667,58.36924147545088L188.02706233333333,56.816602897240614L188.48882033333334,56.455053000656946L188.945696,56.19727518981921L189.16102199999997,55.432369200447525L189.37579433333332,56.966902179903514L189.83342499999998,56.91231571779305L190.28783433333334,57.33103659563943L190.74420666666666,56.1279479065642L191.201032,53.93193121776716L191.41716333333335,51.880682367420064L191.63334500000002,50.607126620717736L192.09616,50.00278741316204L192.55741466666666,51.45049452344766L193.02224299999997,50.80380560739913L193.48128300000002,50.99182787255758L195.65246166666665,51.418661853579465L196.11210566666665,51.95315277709089L196.32833766666667,53.42573663620742L196.79215933333333,52.669409589245475L197.25542733333333,53.027996903082894L197.471911,53.44632833837551L197.93376966666668,54.56819925109379L198.14974999999998,55.145092351095556L198.364774,54.40498466347111L198.82622999999998,53.33095492793903L199.28803833333333,54.06987130892655L199.75065199999997,55.07270343777631L199.96648133333335,53.46671291149262L200.18321666666665,53.96917088222801L200.40050566666665,54.106005507219194L200.861257,53.633260638218204L201.07764,54.82804021138648L201.53748533333334,55.34333622822069L201.7506973333333,54.803999900228874L201.96647633333333,52.962500179006355L202.42561700000002,54.13464174874298L202.642151,52.30161106906354L203.10365733333333,52.899091054836575L203.562345,52.41334583897158L203.7799863333333,51.50088525006605L203.996923,49.0970702758966L204.21320533333332,49.73142538904787L204.67456066666665,49.935562815429705L204.89124566666666,50.17656317534208L205.35083933333334,49.70931155220775L205.56500766666667,48.44200897349393L205.77882366666668,49.170227270939094L206.233082,48.76725546811244L206.68663566666666,48.83413512372579L207.14114566666666,49.99154850529813L207.35179066666666,49.65981727222511L207.5641973333333,48.22263352742476L207.77751,48.22931188302249L208.232775,49.18791359793303L208.44513133333334,49.03854921515767L208.65597766666667,48.57683560584084L209.10958166666666,49.544712335254445L209.32108233333332,48.35738720731857L209.53132466666668,48.17808872476817L212.87104200000002,47.52829085741848L213.33169266666664,46.94472989925828L213.794256,47.87235794024795L214.01114233333334,48.69103117212305L214.472699,47.032314076955004L214.68747133333332,47.680476942292245L214.9037536666667,47.68057239359311L215.35932066666666,47.388018859519406L215.57213,46.46128122545693L221.95042033333334,44.344231139148775L222.171132,45.10511048132341L232.58323633333336,45.67662014291011L233.04746066666667,44.36684281162158L233.51082933333336,43.209906802003246L233.73048400000002,43.58322104552158L234.202812,43.84361240913225L234.4245303333333,43.956054541745175L234.645544,42.91476006778541L235.11666400000001,42.96830522419276L235.338936,42.9930935633397L254.41521899999998,43.477210416244816L254.63381666666666,44.39510414586317L255.10720166666664,43.377660108611735L255.32927233333334,41.918313337574915L255.55043700000002,40.786806592228686L255.77099766666666,39.95455823393203L255.99337033333333,39.38913697308399L256.216045,38.728593996056134L256.44038066666667,38.67301581172188L256.91522533333335,39.35456489023588L257.13764833333335,40.1420450252501L257.35916533333335,38.76375806369762L257.580179,39.549805016103875L258.049487,39.48805024567511L258.5187446666667,38.171324331646076L258.7390536666667,38.48257508698731L258.95669499999997,39.03154909004297L259.17604766666665,39.8875271908457L276.0216076666667,41.25088972699564L276.22993733333334,40.12509896740099L276.442193,40.21117159315219L276.6535426666667,40.51939856624571L276.8333333333333,40.25777309272502" style="fill: none;" fill="none"></path></g></g></g></g><g opacity="0.2"><g><g><g><path stroke="rgb(255, 112, 67)" stroke-width="2px" d="M25.394727,127.80491827215468L25.607989333333336,127.93890506029129L25.807611333333334,127.35084984132222L26.254521,126.02281456334251L26.695642333333332,122.44356281416756L27.139582333333333,118.31239117894853L31.400903,85.41171312332153L31.402614333333332,88.79921068464006L31.624081,27.368385110582608L32.078943333333335,80.5646049295153L32.29190366666666,59.36091726166862L32.50677666666667,83.99031165667942L32.965716,48.04366738455636L33.42314533333333,43.807369300297324L33.54439833333333,31.465495245797314L33.79158533333333,69.3881345476423L33.90594266666667,94.55879933493479L34.019142333333335,57.39241576194763L34.26904733333333,85.29424616268703L34.37811966666666,103.67957379136766L34.62379666666667,80.46270377295357L34.73417766666667,95.90196183749607L34.979905,110.00659990310669L35.087668666666666,85.0567500931876L35.19971066666667,97.12528814588273L35.44719966666666,63.19629039083209L35.559795333333334,68.94309844289508L35.67143466666667,45.227956908089794L35.781564,87.16150965009417L36.028449,92.15434680666243L36.27473,102.16741500582015L39.320551,94.3371765272958L39.795748,107.55942581381117L40.267673333333335,44.79327188219341L40.48858633333333,81.47477643830436L40.965041666666664,35.148128168923535L56.011587666666664,44.29881947381156L56.23260133333333,60.368052516664775L56.470074,68.36608457565308L56.68942666666667,57.56574358258929L57.157425999999994,78.22874563080924L57.37677866666667,78.11725902557373L59.685417666666666,101.37366449832916L68.09309766666667,92.50264825139726L68.30716533333333,67.85008600779942L84.00542733333333,69.26268574169704L107.55377666666666,85.65970495768956L107.767039,45.37683882032124L107.99993133333334,87.70605959211078L108.45630366666667,17.583450589861172L108.66740166666666,68.07609762464251L108.880966,93.78533199855259L109.33718733333333,77.93134352139064L109.79053966666666,75.71211321013314L110.00410400000001,63.96134785243443L110.216863,52.88413207871574L110.42786033333333,47.54773194449288L110.64036766666668,34.41994755608695L110.85297566666667,77.99800760405404L111.30441533333334,33.80058288574219L111.51616766666666,66.60348333631244L111.96962066666667,100.44441553524562L112.42226833333332,40.13661268779208L112.63366833333333,98.24094997133528L113.08591333333334,69.48192123004368L113.297867,58.23891336577279L119.09480733333334,49.9346774646214L124.12466766666667,97.51336015973772L124.58400966666666,83.1684227330344L124.798329,65.30859170641217L125.01300066666666,58.31976270675659L125.47214133333333,38.297303744724815L125.685756,67.30308846064976L125.90007533333333,56.923367806843345L126.359518,72.36006372315543L126.57479366666668,53.24748689787728L127.03750799999999,44.61932311739238L127.25620633333334,78.14857751982552L127.72239366666666,50.92712708881923L127.941847,91.41675557409013L128.160042,29.123366219656788L128.62497100000002,33.40703691755024L128.843921,67.12637860434396L129.30995733333333,54.824003832680845L129.774685,74.80948346001762L130.24112399999999,64.12445722307477L130.45936933333334,46.66493020738872L130.677212,41.49771022796631L131.14103366666666,52.289496660232544L131.357165,75.34104783194405L131.81826866666665,60.610684939793174L132.279926,40.393816198621494L132.49605733333334,19.92999253954204L132.70911833333335,87.04721372468131L133.16992000000002,25.580909933362705L133.63026866666667,-0.30499812534876014L137.79001666666667,81.61029900823321L138.23964433333333,42.72074113573345L138.449484,73.93453093937465L155.48193166666667,86.16339918545314L155.94806866666667,58.26200887135097L156.40645433333333,41.110373701368076L156.627317,38.68251820972989L156.847324,65.37418872969491L157.06526733333334,38.41668176651001L157.53487733333336,64.30421151433673L157.997944,53.922175884246826L158.2140753333333,27.686670235225137L158.43166633333334,39.78084182739258L158.89800466666668,55.94620064326695L159.36318533333335,80.453305210386L159.82484266666665,57.94374786104474L160.04082300000002,34.001551764352L160.50177566666667,31.968411786215626L160.71574266666667,65.10727919851031L161.17458133333332,60.05988335609436L161.38905166666666,59.708633933748516L161.848444,23.571510519300205L162.06336733333333,66.83597568103245L162.2779383333333,58.8250002520425L162.73627366666668,45.443623474666055L162.94973733333333,79.07084839684623L163.410086,57.89680930546352L163.62460666666666,71.76882239750454L164.082791,70.82316061428615L164.29706000000002,45.28923143659321L164.75604966666666,84.03301814624241L165.21463666666668,40.8881721496582L165.43157333333332,92.95422536986216L165.64508733333332,72.64647572381156L165.859608,76.18373537063599L166.31960433333333,86.23813554218837L172.09414633333336,66.62616889817374L179.05187400000003,57.271422079631265L179.50708866666668,52.660399266651694L179.71718,56.67820337840489L179.93059333333332,46.35227578026908L180.14491266666667,1.7697029113769531L180.60153666666668,-7.4559598650251075L181.05745599999997,6.6123921530587495L181.27806700000002,54.50787091255188L181.738013,47.358145032610196L181.95424500000001,32.01615817206246L182.17193666666665,74.49637688909259L182.39023233333333,65.96267499242511L182.85506066666665,57.07486612456185L183.318832,72.96178272792271L183.78290533333333,60.757945162909365L183.999691,57.055056197302676L184.21753366666664,61.57243701389858L184.435024,86.1391100202288L184.65211166666668,61.322938033512656L185.115883,64.49420234135219L185.33276933333332,37.70539324624198L185.54970600000001,27.80580711364746L186.01257133333334,47.75687558310372L186.475034,54.34277210916791L186.69302766666667,65.5819638797215L187.1578056666667,78.33800768852234L187.37308133333332,68.82703614234924L187.59132666666665,67.5751222882952L187.8090686666667,77.43853088787624L188.02706233333333,30.64586101259502L188.48882033333334,50.360862186976846L188.945696,51.852219343185425L189.16102199999997,42.53919635500225L189.37579433333332,82.83293202945164L189.83342499999998,55.99220476831708L190.28783433333334,64.38903369222369L190.74420666666666,35.84850495202201L191.201032,16.915423188890713L191.41716333333335,17.30430303301128L191.63334500000002,29.13967956815449L192.09616,39.815831729343955L192.55741466666666,75.85362216404506L193.02224299999997,39.90293271200997L193.48128300000002,54.16122129985264L195.65246166666665,58.613595894404824L196.11210566666665,60.96282659258161L196.32833766666667,78.24847115789142L196.79215933333333,39.920295034136075L197.25542733333333,59.07257611410958L197.471911,60.4980046749115L197.93376966666668,73.47924021312168L198.14974999999998,64.86962035724095L198.364774,41.929175989968456L198.82622999999998,35.22628273282734L199.28803833333333,66.5256302016122L199.75065199999997,71.97725466319493L199.96648133333335,26.39480495452881L200.18321666666665,62.43902788843427L200.40050566666665,56.41260807854789L200.861257,45.664257594517295L201.07764,74.96831253596714L201.53748533333334,64.02963362421308L201.7506973333333,45.71245009558541L201.96647633333333,21.920462199619834L202.42561700000002,73.89336776733398L202.642151,21.40229334150044L203.10365733333333,62.97079120363507L203.562345,44.22515017645699L203.7799863333333,36.11955009187969L203.996923,8.575974328177296L204.21320533333332,60.42475134985787L204.67456066666665,53.37670959745135L204.89124566666666,54.23911060605731L205.35083933333334,41.832839216504794L205.56500766666667,27.079049246651806L205.77882366666668,61.44583071981158L206.233082,41.97434214183261L206.68663566666666,49.96152877807617L207.14114566666666,69.50212904385158L207.35179066666666,44.06780413218905L207.5641973333333,23.99593489510673L207.77751,48.34188938140869L208.232775,65.34713244438171L208.44513133333334,46.52070236206055L208.65597766666667,40.793692180088584L209.10958166666666,65.86029154913766L209.32108233333332,28.342544010707314L209.53132466666668,45.15563801356723L212.87104200000002,36.57458761760165L213.33169266666664,37.10758679253715L213.794256,63.50947533335004L214.01114233333334,62.49148862702506L214.472699,19.07114839553833L214.68747133333332,58.60662685121808L214.9037536666667,47.68218142645699L215.35932066666666,42.456411838531494L215.57213,30.83916153226582L221.95042033333334,8.656877926417764L222.171132,57.931341035025454L232.58323633333336,55.31062511035374L233.04746066666667,22.287771769932334L233.51082933333336,23.707298346928184L233.73048400000002,49.87622431346348L234.202812,48.23306138174874L234.4245303333333,45.851505415780224L234.645544,25.36152975899833L235.11666400000001,43.870922633579795L235.338936,43.410953726087314L254.41521899999998,51.638029779706685L254.63381666666666,59.868156296866275L255.10720166666664,26.22647483008248L255.32927233333334,17.31791557584492L255.55043700000002,21.712849821363193L255.77099766666666,25.925238541194375L255.99337033333333,29.85775627408711L256.216045,27.593733583177823L256.44038066666667,37.73612696783883L256.91522533333335,50.8435287134988L257.13764833333335,53.41670322418213L257.35916533333335,15.529789311545215L257.580179,52.80030461720058L258.049487,38.44704171589444L258.5187446666667,15.975096702575684L258.7390536666667,43.729371479579385L258.95669499999997,48.28567886352539L259.17604766666665,54.31686728341239L276.0216076666667,64.23327919415065L276.22993733333334,21.147489207131542L276.442193,41.66210971559795L276.6535426666667,45.71522324425834L276.8333333333333,35.84751626423429" style="fill: none;" fill="none"></path></g></g></g></g></g></g><g transform="translate(28, 177)" clip-path="url(#clip_1)"><clipPath id="clip_1"><rect width="302" height="23"></rect></clipPath><g><g><line x1="0" y1="0" x2="0" y2="5" style="visibility: inherit;" fill="rgb(0, 0, 0)" stroke="rgb(204, 204, 204)" stroke-width="1px"></line><line x1="25.166666666666664" y1="0" x2="25.166666666666664" y2="5" style="visibility: inherit;" fill="rgb(0, 0, 0)" stroke="rgb(204, 204, 204)" stroke-width="1px"></line><line x1="50.33333333333333" y1="0" x2="50.33333333333333" y2="5" style="visibility: inherit;" fill="rgb(0, 0, 0)" stroke="rgb(204, 204, 204)" stroke-width="1px"></line><line x1="75.5" y1="0" x2="75.5" y2="5" style="visibility: inherit;" fill="rgb(0, 0, 0)" stroke="rgb(204, 204, 204)" stroke-width="1px"></line><line x1="100.66666666666666" y1="0" x2="100.66666666666666" y2="5" style="visibility: inherit;" fill="rgb(0, 0, 0)" stroke="rgb(204, 204, 204)" stroke-width="1px"></line><line x1="125.83333333333334" y1="0" x2="125.83333333333334" y2="5" style="visibility: inherit;" fill="rgb(0, 0, 0)" stroke="rgb(204, 204, 204)" stroke-width="1px"></line><line x1="151" y1="0" x2="151" y2="5" style="visibility: inherit;" fill="rgb(0, 0, 0)" stroke="rgb(204, 204, 204)" stroke-width="1px"></line><line x1="176.16666666666669" y1="0" x2="176.16666666666669" y2="5" style="visibility: inherit;" fill="rgb(0, 0, 0)" stroke="rgb(204, 204, 204)" stroke-width="1px"></line><line x1="201.33333333333331" y1="0" x2="201.33333333333331" y2="5" style="visibility: inherit;" fill="rgb(0, 0, 0)" stroke="rgb(204, 204, 204)" stroke-width="1px"></line><line x1="226.5" y1="0" x2="226.5" y2="5" style="visibility: inherit;" fill="rgb(0, 0, 0)" stroke="rgb(204, 204, 204)" stroke-width="1px"></line><line x1="251.66666666666669" y1="0" x2="251.66666666666669" y2="5" style="visibility: inherit;" fill="rgb(0, 0, 0)" stroke="rgb(204, 204, 204)" stroke-width="1px"></line><line x1="276.8333333333333" y1="0" x2="276.8333333333333" y2="5" style="visibility: inherit;" fill="rgb(0, 0, 0)" stroke="rgb(204, 204, 204)" stroke-width="1px"></line><line x1="302" y1="0" x2="302" y2="5" style="visibility: inherit;" fill="rgb(0, 0, 0)" stroke="rgb(204, 204, 204)" stroke-width="1px"></line></g><g transform="translate(0, 8)"><text x="0" y="0" dx="0em" dy="0.95em" style="text-anchor: middle; visibility: hidden; font-family: &quot;Helvetica Neue&quot;, sans-serif; font-size: 12px; font-weight: 200;" fill="rgb(50, 49, 63)" stroke="none" stroke-width="1px">-500k</text><text x="25.166666666666664" y="0" dx="0em" dy="0.95em" style="text-anchor: middle; visibility: inherit; font-family: &quot;Helvetica Neue&quot;, sans-serif; font-size: 12px; font-weight: 200;" fill="rgb(50, 49, 63)" stroke="none" stroke-width="1px">0</text><text x="50.33333333333333" y="0" dx="0em" dy="0.95em" style="text-anchor: middle; visibility: hidden; font-family: &quot;Helvetica Neue&quot;, sans-serif; font-size: 12px; font-weight: 200;" fill="rgb(50, 49, 63)" stroke="none" stroke-width="1px">500k</text><text x="75.5" y="0" dx="0em" dy="0.95em" style="text-anchor: middle; visibility: inherit; font-family: &quot;Helvetica Neue&quot;, sans-serif; font-size: 12px; font-weight: 200;" fill="rgb(50, 49, 63)" stroke="none" stroke-width="1px">1M</text><text x="100.66666666666666" y="0" dx="0em" dy="0.95em" style="text-anchor: middle; visibility: hidden; font-family: &quot;Helvetica Neue&quot;, sans-serif; font-size: 12px; font-weight: 200;" fill="rgb(50, 49, 63)" stroke="none" stroke-width="1px">1.5M</text><text x="125.83333333333334" y="0" dx="0em" dy="0.95em" style="text-anchor: middle; visibility: inherit; font-family: &quot;Helvetica Neue&quot;, sans-serif; font-size: 12px; font-weight: 200;" fill="rgb(50, 49, 63)" stroke="none" stroke-width="1px">2M</text><text x="151" y="0" dx="0em" dy="0.95em" style="text-anchor: middle; visibility: hidden; font-family: &quot;Helvetica Neue&quot;, sans-serif; font-size: 12px; font-weight: 200;" fill="rgb(50, 49, 63)" stroke="none" stroke-width="1px">2.5M</text><text x="176.16666666666669" y="0" dx="0em" dy="0.95em" style="text-anchor: middle; visibility: inherit; font-family: &quot;Helvetica Neue&quot;, sans-serif; font-size: 12px; font-weight: 200;" fill="rgb(50, 49, 63)" stroke="none" stroke-width="1px">3M</text><text x="201.33333333333331" y="0" dx="0em" dy="0.95em" style="text-anchor: middle; visibility: hidden; font-family: &quot;Helvetica Neue&quot;, sans-serif; font-size: 12px; font-weight: 200;" fill="rgb(50, 49, 63)" stroke="none" stroke-width="1px">3.5M</text><text x="226.5" y="0" dx="0em" dy="0.95em" style="text-anchor: middle; visibility: inherit; font-family: &quot;Helvetica Neue&quot;, sans-serif; font-size: 12px; font-weight: 200;" fill="rgb(50, 49, 63)" stroke="none" stroke-width="1px">4M</text><text x="251.66666666666669" y="0" dx="0em" dy="0.95em" style="text-anchor: middle; visibility: hidden; font-family: &quot;Helvetica Neue&quot;, sans-serif; font-size: 12px; font-weight: 200;" fill="rgb(50, 49, 63)" stroke="none" stroke-width="1px">4.5M</text><text x="276.8333333333333" y="0" dx="0em" dy="0.95em" style="text-anchor: middle; visibility: inherit; font-family: &quot;Helvetica Neue&quot;, sans-serif; font-size: 12px; font-weight: 200;" fill="rgb(50, 49, 63)" stroke="none" stroke-width="1px">5M</text><text x="302" y="0" dx="0em" dy="0.95em" style="text-anchor: middle; visibility: hidden; font-family: &quot;Helvetica Neue&quot;, sans-serif; font-size: 12px; font-weight: 200;" fill="rgb(50, 49, 63)" stroke="none" stroke-width="1px">5.5M</text></g><line x1="0" y1="0" x2="302" y2="0" fill="rgb(0, 0, 0)" stroke="rgb(204, 204, 204)" stroke-width="1px"></line></g></g></g></g></svg>