<svg viewBox="0 0 330 200" xmlns="http://www.w3.org/2000/svg"><g><g><g><g><g><line x1="46" y1="177" x2="41" y2="177" style="visibility: inherit;" fill="rgb(0, 0, 0)" stroke="rgb(204, 204, 204)" stroke-width="1px"></line><line x1="46" y1="163.3846153846154" x2="41" y2="163.3846153846154" style="visibility: inherit;" fill="rgb(0, 0, 0)" stroke="rgb(204, 204, 204)" stroke-width="1px"></line><line x1="46" y1="149.76923076923077" x2="41" y2="149.76923076923077" style="visibility: inherit;" fill="rgb(0, 0, 0)" stroke="rgb(204, 204, 204)" stroke-width="1px"></line><line x1="46" y1="136.15384615384616" x2="41" y2="136.15384615384616" style="visibility: inherit;" fill="rgb(0, 0, 0)" stroke="rgb(204, 204, 204)" stroke-width="1px"></line><line x1="46" y1="122.53846153846153" x2="41" y2="122.53846153846153" style="visibility: inherit;" fill="rgb(0, 0, 0)" stroke="rgb(204, 204, 204)" stroke-width="1px"></line><line x1="46" y1="108.92307692307693" x2="41" y2="108.92307692307693" style="visibility: inherit;" fill="rgb(0, 0, 0)" stroke="rgb(204, 204, 204)" stroke-width="1px"></line><line x1="46" y1="95.3076923076923" x2="41" y2="95.3076923076923" style="visibility: inherit;" fill="rgb(0, 0, 0)" stroke="rgb(204, 204, 204)" stroke-width="1px"></line><line x1="46" y1="81.6923076923077" x2="41" y2="81.6923076923077" style="visibility: inherit;" fill="rgb(0, 0, 0)" stroke="rgb(204, 204, 204)" stroke-width="1px"></line><line x1="46" y1="68.0769230769231" x2="41" y2="68.0769230769231" style="visibility: inherit;" fill="rgb(0, 0, 0)" stroke="rgb(204, 204, 204)" stroke-width="1px"></line><line x1="46" y1="54.46153846153847" x2="41" y2="54.46153846153847" style="visibility: inherit;" fill="rgb(0, 0, 0)" stroke="rgb(204, 204, 204)" stroke-width="1px"></line><line x1="46" y1="40.84615384615387" x2="41" y2="40.84615384615387" style="visibility: inherit;" fill="rgb(0, 0, 0)" stroke="rgb(204, 204, 204)" stroke-width="1px"></line><line x1="46" y1="27.230769230769226" x2="41" y2="27.230769230769226" style="visibility: inherit;" fill="rgb(0, 0, 0)" stroke="rgb(204, 204, 204)" stroke-width="1px"></line><line x1="46" y1="13.615384615384613" x2="41" y2="13.615384615384613" style="visibility: inherit;" fill="rgb(0, 0, 0)" stroke="rgb(204, 204, 204)" stroke-width="1px"></line><line x1="46" y1="0" x2="41" y2="0" style="visibility: inherit;" fill="rgb(0, 0, 0)" stroke="rgb(204, 204, 204)" stroke-width="1px"></line></g><g transform="translate(36, 0)"><text x="0" y="177" dx="0em" dy="0.3em" style="text-anchor: end; visibility: hidden; font-family: &quot;Helvetica Neue&quot;, sans-serif; font-size: 12px; font-weight: 200;" fill="rgb(50, 49, 63)" stroke="none" stroke-width="1px">-0.1</text><text x="0" y="163.3846153846154" dx="0em" dy="0.3em" style="text-anchor: end; visibility: inherit; font-family: &quot;Helvetica Neue&quot;, sans-serif; font-size: 12px; font-weight: 200;" fill="rgb(50, 49, 63)" stroke="none" stroke-width="1px">0</text><text x="0" y="149.76923076923077" dx="0em" dy="0.3em" style="text-anchor: end; visibility: hidden; font-family: &quot;Helvetica Neue&quot;, sans-serif; font-size: 12px; font-weight: 200;" fill="rgb(50, 49, 63)" stroke="none" stroke-width="1px">0.1</text><text x="0" y="136.15384615384616" dx="0em" dy="0.3em" style="text-anchor: end; visibility: inherit; font-family: &quot;Helvetica Neue&quot;, sans-serif; font-size: 12px; font-weight: 200;" fill="rgb(50, 49, 63)" stroke="none" stroke-width="1px">0.2</text><text x="0" y="122.53846153846153" dx="0em" dy="0.3em" style="text-anchor: end; visibility: hidden; font-family: &quot;Helvetica Neue&quot;, sans-serif; font-size: 12px; font-weight: 200;" fill="rgb(50, 49, 63)" stroke="none" stroke-width="1px">0.3</text><text x="0" y="108.92307692307693" dx="0em" dy="0.3em" style="text-anchor: end; visibility: inherit; font-family: &quot;Helvetica Neue&quot;, sans-serif; font-size: 12px; font-weight: 200;" fill="rgb(50, 49, 63)" stroke="none" stroke-width="1px">0.4</text><text x="0" y="95.3076923076923" dx="0em" dy="0.3em" style="text-anchor: end; visibility: hidden; font-family: &quot;Helvetica Neue&quot;, sans-serif; font-size: 12px; font-weight: 200;" fill="rgb(50, 49, 63)" stroke="none" stroke-width="1px">0.5</text><text x="0" y="81.6923076923077" dx="0em" dy="0.3em" style="text-anchor: end; visibility: inherit; font-family: &quot;Helvetica Neue&quot;, sans-serif; font-size: 12px; font-weight: 200;" fill="rgb(50, 49, 63)" stroke="none" stroke-width="1px">0.6</text><text x="0" y="68.0769230769231" dx="0em" dy="0.3em" style="text-anchor: end; visibility: hidden; font-family: &quot;Helvetica Neue&quot;, sans-serif; font-size: 12px; font-weight: 200;" fill="rgb(50, 49, 63)" stroke="none" stroke-width="1px">0.7</text><text x="0" y="54.46153846153847" dx="0em" dy="0.3em" style="text-anchor: end; visibility: inherit; font-family: &quot;Helvetica Neue&quot;, sans-serif; font-size: 12px; font-weight: 200;" fill="rgb(50, 49, 63)" stroke="none" stroke-width="1px">0.8</text><text x="0" y="40.84615384615387" dx="0em" dy="0.3em" style="text-anchor: end; visibility: hidden; font-family: &quot;Helvetica Neue&quot;, sans-serif; font-size: 12px; font-weight: 200;" fill="rgb(50, 49, 63)" stroke="none" stroke-width="1px">0.9</text><text x="0" y="27.230769230769226" dx="0em" dy="0.3em" style="text-anchor: end; visibility: inherit; font-family: &quot;Helvetica Neue&quot;, sans-serif; font-size: 12px; font-weight: 200;" fill="rgb(50, 49, 63)" stroke="none" stroke-width="1px">1</text><text x="0" y="13.615384615384613" dx="0em" dy="0.3em" style="text-anchor: end; visibility: hidden; font-family: &quot;Helvetica Neue&quot;, sans-serif; font-size: 12px; font-weight: 200;" fill="rgb(50, 49, 63)" stroke="none" stroke-width="1px">1.1</text><text x="0" y="0" dx="0em" dy="0.3em" style="text-anchor: end; visibility: hidden; font-family: &quot;Helvetica Neue&quot;, sans-serif; font-size: 12px; font-weight: 200;" fill="rgb(50, 49, 63)" stroke="none" stroke-width="1px">1.2</text></g><line x1="46" y1="0" x2="46" y2="177" fill="rgb(0, 0, 0)" stroke="rgb(204, 204, 204)" stroke-width="1px"></line></g></g><g transform="translate(46, 0)" clip-path="url(#clip_0)"><clipPath id="clip_0"><rect width="284" height="177"></rect></clipPath><g><g><g><line x1="0" y1="0" x2="0" y2="177" fill="rgb(0, 0, 0)" stroke="rgb(60, 60, 60)" stroke-width="1px" opacity="0.25"></line><line x1="23.666666666666664" y1="0" x2="23.666666666666664" y2="177" fill="rgb(0, 0, 0)" stroke="rgb(60, 60, 60)" stroke-width="1px" opacity="0.25"></line><line x1="47.33333333333333" y1="0" x2="47.33333333333333" y2="177" fill="rgb(0, 0, 0)" stroke="rgb(60, 60, 60)" stroke-width="1px" opacity="0.25"></line><line x1="71" y1="0" x2="71" y2="177" fill="rgb(0, 0, 0)" stroke="rgb(60, 60, 60)" stroke-width="1px" opacity="0.25"></line><line x1="94.66666666666666" y1="0" x2="94.66666666666666" y2="177" fill="rgb(0, 0, 0)" stroke="rgb(60, 60, 60)" stroke-width="1px" opacity="0.25"></line><line x1="118.33333333333334" y1="0" x2="118.33333333333334" y2="177" fill="rgb(0, 0, 0)" stroke="rgb(60, 60, 60)" stroke-width="1px" opacity="0.25"></line><line x1="142" y1="0" x2="142" y2="177" fill="rgb(0, 0, 0)" stroke="rgb(60, 60, 60)" stroke-width="1px" opacity="0.25"></line><line x1="165.66666666666669" y1="0" x2="165.66666666666669" y2="177" fill="rgb(0, 0, 0)" stroke="rgb(60, 60, 60)" stroke-width="1px" opacity="0.25"></line><line x1="189.33333333333331" y1="0" x2="189.33333333333331" y2="177" fill="rgb(0, 0, 0)" stroke="rgb(60, 60, 60)" stroke-width="1px" opacity="0.25"></line><line x1="213" y1="0" x2="213" y2="177" fill="rgb(0, 0, 0)" stroke="rgb(60, 60, 60)" stroke-width="1px" opacity="0.25"></line><line x1="236.66666666666669" y1="0" x2="236.66666666666669" y2="177" fill="rgb(0, 0, 0)" stroke="rgb(60, 60, 60)" stroke-width="1px" opacity="0.25"></line><line x1="260.3333333333333" y1="0" x2="260.3333333333333" y2="177" fill="rgb(0, 0, 0)" stroke="rgb(60, 60, 60)" stroke-width="1px" opacity="0.25"></line><line x1="284" y1="0" x2="284" y2="177" fill="rgb(0, 0, 0)" stroke="rgb(60, 60, 60)" stroke-width="1px" opacity="0.25"></line></g><g><line x1="0" y1="177" x2="284" y2="177" fill="rgb(0, 0, 0)" stroke="rgb(60, 60, 60)" stroke-width="1px" opacity="0.25"></line><line x1="0" y1="163.3846153846154" x2="284" y2="163.3846153846154" fill="rgb(0, 0, 0)" stroke="rgb(60, 60, 60)" stroke-width="1px" opacity="0.25"></line><line x1="0" y1="149.76923076923077" x2="284" y2="149.76923076923077" fill="rgb(0, 0, 0)" stroke="rgb(60, 60, 60)" stroke-width="1px" opacity="0.25"></line><line x1="0" y1="136.15384615384616" x2="284" y2="136.15384615384616" fill="rgb(0, 0, 0)" stroke="rgb(60, 60, 60)" stroke-width="1px" opacity="0.25"></line><line x1="0" y1="122.53846153846153" x2="284" y2="122.53846153846153" fill="rgb(0, 0, 0)" stroke="rgb(60, 60, 60)" stroke-width="1px" opacity="0.25"></line><line x1="0" y1="108.92307692307693" x2="284" y2="108.92307692307693" fill="rgb(0, 0, 0)" stroke="rgb(60, 60, 60)" stroke-width="1px" opacity="0.25"></line><line x1="0" y1="95.3076923076923" x2="284" y2="95.3076923076923" fill="rgb(0, 0, 0)" stroke="rgb(60, 60, 60)" stroke-width="1px" opacity="0.25"></line><line x1="0" y1="81.6923076923077" x2="284" y2="81.6923076923077" fill="rgb(0, 0, 0)" stroke="rgb(60, 60, 60)" stroke-width="1px" opacity="0.25"></line><line x1="0" y1="68.0769230769231" x2="284" y2="68.0769230769231" fill="rgb(0, 0, 0)" stroke="rgb(60, 60, 60)" stroke-width="1px" opacity="0.25"></line><line x1="0" y1="54.46153846153847" x2="284" y2="54.46153846153847" fill="rgb(0, 0, 0)" stroke="rgb(60, 60, 60)" stroke-width="1px" opacity="0.25"></line><line x1="0" y1="40.84615384615387" x2="284" y2="40.84615384615387" fill="rgb(0, 0, 0)" stroke="rgb(60, 60, 60)" stroke-width="1px" opacity="0.25"></line><line x1="0" y1="27.230769230769226" x2="284" y2="27.230769230769226" fill="rgb(0, 0, 0)" stroke="rgb(60, 60, 60)" stroke-width="1px" opacity="0.25"></line><line x1="0" y1="13.615384615384613" x2="284" y2="13.615384615384613" fill="rgb(0, 0, 0)" stroke="rgb(60, 60, 60)" stroke-width="1px" opacity="0.25"></line><line x1="0" y1="0" x2="284" y2="0" fill="rgb(0, 0, 0)" stroke="rgb(60, 60, 60)" stroke-width="1px" opacity="0.25"></line></g></g></g><g><g><line x1="0" y1="163.3846153846154" x2="284" y2="163.3846153846154" fill="rgb(0, 0, 0)" stroke="rgb(153, 153, 153)" stroke-width="1.5px"></line></g></g><g><g><line x1="23.666666666666664" y1="0" x2="23.666666666666664" y2="177" fill="rgb(0, 0, 0)" stroke="rgb(153, 153, 153)" stroke-width="1.5px"></line></g></g><g><g><g><g><g><path stroke="rgb(255, 112, 67)" stroke-width="2px" d="M23.881134,132.01027992367744L24.081685333333336,131.60194230953138L24.269409333333332,131.22435710996245L24.689682,131.0865260916798L25.10451133333333,131.073432465366L25.521991333333332,130.98831951051818L29.529326,128.37002784392146L29.530935333333332,128.11818784153917L29.739202000000002,127.93284318946283L30.166953333333336,127.55528415555148L30.367220666666665,127.36951688766999L30.569286666666667,127.19955723461189L31.000872,126.84691838089846L31.431037333333332,126.4698168349365L31.545063333333335,126.35108145189821L31.777517333333332,126.14991051790993L31.885058666666666,126.0493923480982L31.991511333333335,125.94724991059213L32.22652133333333,125.7431160427436L32.32909266666667,125.65105466022854L32.56012666666667,125.49454392027283L32.66392866666666,125.40800074371253L32.89501,125.20817054849209L32.996350666666665,125.11340804940278L33.101714666666666,125.03145382500396L33.334452666666664,124.87670202695827L33.44033733333333,124.79609405876053L33.54532266666667,124.70671342244157L33.648888,124.62676513045349L33.881058,124.48279955244365L34.11266,124.29097031379348L36.976942,122.21790004775853L37.423816,121.72790471998194L37.86761333333333,121.4287194124908L38.07535933333333,121.2666232694161L38.52341666666666,120.97923659700001L52.67314866666667,112.79853486871221L52.88098933333333,111.89883256682039L53.104307999999996,111.71865158264217L53.31058666666667,111.60617275254886L53.750691999999994,111.38467191790217L53.95697066666667,111.26726532384072L56.128008666666666,110.09553103819304L64.03456866666667,105.62981349066753L64.23587733333333,105.06301299681049L78.99848133333333,97.33471817407954L101.14328666666667,85.89398515534339L101.343838,84.69688385897821L101.56284933333333,84.46741278598942L101.99202066666666,84.24926163814202L102.19053666666667,84.10081383285541L102.391372,83.93582341326707L102.82040133333334,83.64607537455154L103.24673266666666,83.37514115235756L103.447568,83.21954999250266L103.64764600000001,83.10770041329803L103.84606733333332,82.99474586425052L104.04590866666668,82.90563099662428L104.24584466666667,82.78110337411731L104.67037733333333,82.52457038358688L104.86950866666666,82.40145307917567L105.29593466666667,82.12016333497922L105.72160333333332,81.89435983677247L105.92040333333334,81.74102504698931L106.34569333333333,81.50545223723415L106.545014,81.38413435680809L111.99644133333334,78.73208647398002L116.72650866666666,76.02019579862171L117.15847266666667,75.54672677205232L117.360018,75.39196253164152L117.56189466666666,75.22613097194274L117.99366933333333,75.01587928020218L118.194552,74.88299452267297L118.39609733333333,74.78306739513901L118.82815599999999,74.58336825097912L119.03060066666667,74.44320649293965L119.46573599999999,74.1864344729675L119.67139933333333,74.0736604462389L120.10980066666667,73.82720611505817L120.31617399999999,73.68777932109616L120.521364,73.56829644452375L120.958582,73.32502762440468L121.164482,73.15518211845452L121.60274133333333,72.90527375043801L122.03976999999999,72.6256263604911L122.47840799999999,72.37369448270431L122.68364533333335,72.25514189868622L122.888504,72.17187222078051L123.32468066666667,71.97980264935492L123.52793,71.86730497231679L123.96155066666665,71.7193599717036L124.395692,71.51996644819026L124.59894133333333,71.39941467602767L124.79930333333334,71.28740010664107L125.23264,71.0582737152443L125.66555066666666,70.86308166644805L129.57736666666668,69.11736544091178L130.00019533333332,68.7503534130348L130.197528,68.62374635442382L146.21479666666667,61.189001175862515L146.65315066666668,60.28427914003467L147.08421533333333,60.010452294632785L147.291914,59.90904096915689L147.498808,59.84214818881158L147.70376133333335,59.760756596365766L148.14538133333335,59.5662262448363L148.580848,59.352229065464456L148.78409733333334,59.237200831324984L148.98871933333334,59.15031521286866L149.42726266666668,58.928010330931L149.86471733333335,58.71812555916394L150.29885866666666,58.47761548478455L150.501966,58.36500136712499L150.93544466666665,58.14992516837273L151.13665866666668,58.03916579692715L151.56814933333334,57.83902099952104L151.76983666666666,57.73214537451268L152.201848,57.58232644060169L152.40396133333334,57.49042823330558L152.60574333333332,57.432672730475815L153.03676066666668,57.25065295056615L153.23750133333334,57.17215551633318L153.670412,57.01530357904308L153.87214666666665,56.92435153082276L154.303022,56.790506480423744L154.50452,56.69178569395905L154.93615266666666,56.54022592940949L155.36740666666668,56.40232325578158L155.57141333333334,56.34264567403042L155.77220133333333,56.252035368171434L155.973936,56.16312142227565L156.40651533333332,56.01679486342124L161.83687933333334,53.841679488402306L168.37990800000003,51.511299150482785L168.80799066666668,51.132067261437996L169.00556,51.0356058593743L169.20625333333334,50.96320183204503L169.40779866666668,50.89687818275229L169.83720666666667,50.755889583941425L170.265952,50.57948096980397L170.47341400000002,50.516774423163994L170.905946,50.40029157810318L171.10929000000002,50.331995949816175L171.31400666666667,50.27280878774003L171.5192913333333,50.19897971511047L171.95641466666666,49.989050127358226L172.392544,49.84403266814881L172.82895733333334,49.64459739039481L173.032822,49.57867520778595L173.23768066666665,49.51408160037114L173.44220800000002,49.43499424428076L173.6463566666667,49.38008257424386L174.082486,49.23997677207228L174.28644533333332,49.14912840659237L174.490452,49.072237849466816L174.92572933333332,48.957489267738254L175.360628,48.766733488484675L175.56562866666667,48.680904752390774L176.0027046666667,48.53435349473884L176.20514933333334,48.45520405198053L176.41038666666665,48.35749364911035L176.61515066666666,48.27001829127096L176.82015133333334,48.20449270911109L177.25438733333334,48.020098337862464L177.684032,47.85501708391146L177.88652399999998,47.77438221443151L178.08849533333333,47.7012379467223L178.51885,47.5532853306965L178.94617533333334,47.39121828792372L179.37534666666664,47.20118741637981L179.804944,47.00197203502688L180.00819333333334,46.918192343131835L180.21149000000003,46.86028450474967L180.64672,46.74739494563585L181.08048266666665,46.62605784976216L181.51760599999997,46.484607924341674L181.949286,46.357609176717546L183.99105666666665,45.806784456569034L184.42330466666667,45.6234214411719L184.62664866666668,45.50925790734297L185.06282533333334,45.384343101726955L185.49848133333333,45.2706551698825L185.70206199999998,45.194704624340176L186.13639266666667,45.06243177201367L186.3395,45.00194476966112L186.541708,44.93071268822689L186.97566,44.800946978916556L187.40994333333333,44.658167027667616L187.84498399999998,44.48454298189648L188.04794933333335,44.38575227296886L188.25176666666667,44.31795193276588L188.45610466666665,44.23681802175838L188.88939399999998,44.07536987943584L189.09287999999998,43.99226664061038L189.52531733333333,43.83676260891042L189.72582133333333,43.747377878950005L189.92873933333334,43.65338013527824L190.36051400000002,43.5063821237604L190.564142,43.456747838311685L190.99814133333334,43.31744211798372L191.42949000000002,43.15163464792039L191.63415933333332,43.09549207135839L191.838166,43.03551280398608L192.04155733333332,42.96831308854124L192.47541466666667,42.86554333016929L192.67918466666669,42.794888660342394L193.11138533333335,42.676138849224685L193.31278866666668,42.601154955241554L193.5138606666667,42.52916943231858L193.941044,42.42385672067462L194.36756466666668,42.30870522652796L194.79498466666666,42.19572714656914L194.99307466666667,42.114628621099484L195.1928213333333,42.03977449707659L195.39342,41.95684830171453L195.82155,41.85859925884054L196.02124933333334,41.8192571615362L196.21952866666666,41.77568076749759L196.64609666666666,41.67331542191883L196.84499133333333,41.61632312767571L197.04270266666668,41.55023182983598L200.183364,40.77074865768287L200.61655866666666,40.567686682078204L201.051552,40.39310286255417L201.25551133333335,40.306449665917086L201.689558,40.204680875674086L201.89152933333332,40.143006586034915L202.09492066666667,40.08455778099207L202.52333466666664,39.96568120370884L202.72346,39.887038987604114L208.72158733333333,38.49517652432701L208.929144,38.32887440854054L218.72065933333334,36.154665864441085L219.15721466666665,35.885336479261326L219.59296533333335,35.80204478490751L219.799528,35.74685421588964L220.243704,35.66383491457708L220.45220733333332,35.62582281864724L220.660048,35.564136005569L221.103088,35.47756587191853L221.31211199999998,35.427181326236536L239.251398,32.714830360027634L239.45696666666666,32.43798929460792L239.90213666666665,32.38781893730919L240.11097133333334,32.35364995437399L240.31895400000002,32.33455995577941L240.52636866666666,32.30120313564879L240.73548733333334,32.277547212175136L240.94489000000002,32.26039818031978L241.15585466666667,32.23542970219714L241.60239733333333,32.151533515225395L241.81156333333334,32.119841848319254L242.01987733333334,32.096851985847536L242.227718,32.06196897606148L242.669054,32.03181328259552L243.11034266666667,32.00325587789641L243.31752066666667,31.97915099424256L243.52219,31.954299740916582L243.72846866666669,31.936206952887574L259.56998866666663,30.19367796002939L259.7659013333333,30.016872629359938L259.965506,29.982908393367353L260.1642586666667,29.979170965712L260.3333333333333,29.966230378578558" style="fill: none;" fill="none"></path></g></g></g></g><g opacity="0.2"><g><g><g><path stroke="rgb(255, 112, 67)" stroke-width="2px" d="M23.881134,132.01027992367744L24.081685333333336,131.56274189857336L24.269409333333332,131.1846291056046L24.689682,131.07190211919638L25.10451133333333,131.0720421098746L25.521991333333332,130.97928104033838L29.529326,128.0919793890073L29.530935333333332,128.0914437724994L29.739202000000002,127.91316057168521L30.166953333333336,127.51518939091609L30.367220666666665,127.34978939019717L30.569286666666667,127.18150842189789L31.000872,126.8094700070528L31.431037333333332,126.42977065306444L31.545063333333335,126.33847238467291L31.777517333333332,126.12854723288463L31.885058666666666,126.038717852189L31.991511333333335,125.93640292607822L32.22652133333333,125.72143810987473L32.32909266666667,125.64127823022696L32.56012666666667,125.47792331072L32.66392866666666,125.39881031788312L32.89501,125.18694964280496L32.996350666666665,125.10334477516321L33.101714666666666,125.02275072152798L33.334452666666664,124.86026820769678L33.44033733333333,124.78753392054485L33.54532266666667,124.69722167345193L33.648888,124.61827504634857L33.881058,124.46751117247803L34.11266,124.27059906721115L36.976942,121.99775099295837L37.423816,121.67586981791717L37.86761333333333,121.39694752142981L38.07535933333333,121.24940951970908L38.52341666666666,120.94871765833635L52.67314866666667,111.92978778252235L52.88098933333333,111.80328895953986L53.104307999999996,111.69951731883563L53.31058666666667,111.5942280980257L53.750691999999994,111.36114970537332L53.95697066666667,111.25479736694923L56.128008666666666,109.97109907865526L64.03456866666667,105.15557799889491L64.23587733333333,105.00282179392302L78.99848133333333,96.51401429909927L101.14328666666667,84.67904005600856L101.343838,84.5697580575943L101.56284933333333,84.44304417646849L101.99202066666666,84.2260951445653L102.19053666666667,84.0850494641524L102.391372,83.91830230676211L102.82040133333334,83.6153056713251L103.24673266666666,83.34636937654936L103.447568,83.20302703747383L103.64764600000001,83.09582258187808L103.84606733333332,82.98275069090037L104.04590866666668,82.89616747085864L104.24584466666667,82.76787920181567L104.67037733333333,82.49732794211462L104.86950866666666,82.38837867516739L105.29593466666667,82.09029185771942L105.72160333333332,81.87038070421954L105.92040333333334,81.72474170648135L106.34569333333333,81.48043565566724L106.545014,81.3712510420726L111.99644133333334,78.45045307049385L116.72650866666666,75.73220740831816L117.15847266666667,75.49644687542549L117.360018,75.37552739106692L117.56189466666666,75.20852054082431L117.99366933333333,74.99355166692001L118.194552,74.86888286700615L118.39609733333333,74.77245566478142L118.82815599999999,74.56216126221878L119.03060066666667,74.4283220584576L119.46573599999999,74.15916664783771L119.67139933333333,74.06168444340045L120.10980066666667,73.80103397369385L120.31617399999999,73.67297293589667L120.521364,73.55560799745413L120.958582,73.2991937674009L121.164482,73.13714542755714L121.60274133333333,72.87873480870174L122.03976999999999,72.59592929253212L122.47840799999999,72.34694065497473L122.68364533333335,72.24255224374625L122.888504,72.16302942312682L123.32468066666667,71.95940588070796L123.52793,71.85535831634814L123.96155066666665,71.70364899818713L124.395692,71.4987919147198L124.59894133333333,71.38661271792193L124.79930333333334,71.27550475413983L125.23264,71.03394170907828L125.66555066666666,70.84235330728384L129.57736666666668,68.93197964704954L130.00019533333332,68.71137868441069L130.197528,68.61030135704921L146.21479666666667,60.39947071442238L146.65315066666668,60.18820246366354L147.08421533333333,59.98137333759895L147.291914,59.89827162485858L147.498808,59.83504453072182L147.70376133333335,59.75211324141577L148.14538133333335,59.545568154408386L148.580848,59.329503701283386L148.78409733333334,59.22498544362875L148.98871933333334,59.14108842152817L149.42726266666668,58.90440273284912L149.86471733333335,58.695836910834686L150.29885866666666,58.45207459193011L150.501966,58.353042345780594L150.93544466666665,58.127085218062774L151.13665866666668,58.027403739782486L151.56814933333334,57.81776668475226L151.76983666666666,57.72079575061798L152.201848,57.56641646531912L152.40396133333334,57.4806691316458L152.60574333333332,57.42653940274165L153.03676066666668,57.23132341641647L153.23750133333334,57.163819505618164L153.670412,56.99864673614502L153.87214666666665,56.914692906232986L154.303022,56.77629284675305L154.50452,56.681302070617676L154.93615266666666,56.52413108715645L155.36740666666668,56.38767872406886L155.57141333333334,56.336308231720565L155.77220133333333,56.24241303480589L155.973936,56.15367923333095L156.40651533333332,56.00125575982608L161.83687933333334,53.61069378486049L168.37990800000003,51.26382513229663L168.80799066666668,51.09179484844208L169.00556,51.02536217065959L169.20625333333334,50.95551290878883L169.40779866666668,50.88983496335837L169.83720666666667,50.74091734335974L170.265952,50.560747311665466L170.47341400000002,50.510115320865935L170.905946,50.3879217184507L171.10929000000002,50.324743316723755L171.31400666666667,50.26652342539569L171.5192913333333,50.191139459609985L171.95641466666666,49.966756719809325L172.392544,49.82863258398497L172.82895733333334,49.62341842284572L173.032822,49.5716746220222L173.23768066666665,49.507222102238586L173.44220800000002,49.426595586996825L173.6463566666667,49.37425124645233L174.082486,49.22509827980629L174.28644533333332,49.13948079255911L174.490452,49.06407248056853L174.92572933333332,48.94530357764319L175.360628,48.746476237590514L175.56562866666667,48.6717901963454L176.0027046666667,48.51879052932446L176.20514933333334,48.44679880142212L176.41038666666665,48.347117323141845L176.61515066666666,48.26072887273935L176.82015133333334,48.19753424020914L177.25438733333334,48.00051663472104L177.684032,47.83748633127948L177.88652399999998,47.765819219442506L178.08849533333333,47.693470413868255L178.51885,47.53757354846368L178.94617533333334,47.37400762851422L179.37534666666664,47.18100714683533L179.804944,46.98081641930801L180.00819333333334,46.9092953847005L180.21149000000003,46.85413499978873L180.64672,46.73540667387155L181.08048266666665,46.61317249444815L181.51760599999997,46.46958669332358L181.949286,46.34412258404953L183.99105666666665,45.74828979602228L184.42330466666667,45.603949262545655L184.62664866666668,45.49713434622839L185.06282533333334,45.37107781263498L185.49848133333333,45.25858211517334L185.70206199999998,45.186639079680816L186.13639266666667,45.0483850974303L186.3395,44.99552137118121L186.541708,44.92314821940204L186.97566,44.78716654960925L187.40994333333333,44.64300455496863L187.84498399999998,44.46610503013318L188.04794933333335,44.375261224233185L188.25176666666667,44.31075189663815L188.45610466666665,44.22820203120892L188.88939399999998,44.05822494396796L189.09287999999998,43.98344151790326L189.52531733333333,43.820248906429015L189.72582133333333,43.737885695237395L189.92873933333334,43.64339807400336L190.36051400000002,43.49077171545764L190.564142,43.45147694074191L190.99814133333334,43.302648590161255L191.42949000000002,43.134026774993316L191.63415933333332,43.08953002782968L191.838166,43.029143324265135L192.04155733333332,42.96117683557364L192.47541466666667,42.854629727510314L192.67918466666669,42.78738550956433L193.11138533333335,42.663528249813965L193.31278866666668,42.59319206384512L193.5138606666667,42.52152495200818L193.941044,42.412673069880555L194.36756466666668,42.29647674927344L194.79498466666666,42.183729474361144L194.99307466666667,42.10601638830627L195.1928213333333,42.03182538656088L195.39342,41.94804198008319L195.82155,41.848165732163665L196.02124933333334,41.81507923969855L196.21952866666666,41.77105318582977L196.64609666666666,41.66244476575119L196.84499133333333,41.61027084864105L197.04270266666668,41.54321328493265L200.183364,40.687971683648925L200.61655866666666,40.54612257847418L201.051552,40.37456298791443L201.25551133333335,40.29724755653967L201.689558,40.193873570515564L201.89152933333332,40.13645710394931L202.09492066666667,40.07835082824414L202.52333466666664,39.95305714240442L202.72346,39.87868760182306L208.72158733333333,38.347368121147156L208.929144,38.311214006864105L218.72065933333334,35.92377646152789L219.15721466666665,35.85673512862277L219.59296533333335,35.79319964922391L219.799528,35.740993270507204L220.243704,35.655018705588105L220.45220733333332,35.621786135893586L220.660048,35.55758519356067L221.103088,35.46837258338928L221.31211199999998,35.42183075501367L239.251398,32.426793089279755L239.45696666666666,32.4085902434129L239.90213666666665,32.38249111175537L240.11097133333334,32.350021389814515L240.31895400000002,32.332532699291505L240.52636866666666,32.29766081846677L240.73548733333334,32.275035078708925L240.94489000000002,32.258577044193544L241.15585466666667,32.232778182396515L241.60239733333333,32.1426241856355L241.81156333333334,32.11647636156815L242.01987733333334,32.09441058452313L242.227718,32.05826458564172L242.669054,32.028610908068146L243.11034266666667,32.0002232331496L243.31752066666667,31.97659118358905L243.52219,31.951660669766937L243.72846866666669,31.93428559486682L259.56998866666663,30.008630633354187L259.7659013333333,29.998096842032197L259.965506,29.97930157184601L260.1642586666667,29.978774070739746L260.3333333333333,29.964856156936037" style="fill: none;" fill="none"></path></g></g></g></g></g></g><g transform="translate(46, 177)" clip-path="url(#clip_1)"><clipPath id="clip_1"><rect width="284" height="23"></rect></clipPath><g><g><line x1="0" y1="0" x2="0" y2="5" style="visibility: inherit;" fill="rgb(0, 0, 0)" stroke="rgb(204, 204, 204)" stroke-width="1px"></line><line x1="23.666666666666664" y1="0" x2="23.666666666666664" y2="5" style="visibility: inherit;" fill="rgb(0, 0, 0)" stroke="rgb(204, 204, 204)" stroke-width="1px"></line><line x1="47.33333333333333" y1="0" x2="47.33333333333333" y2="5" style="visibility: inherit;" fill="rgb(0, 0, 0)" stroke="rgb(204, 204, 204)" stroke-width="1px"></line><line x1="71" y1="0" x2="71" y2="5" style="visibility: inherit;" fill="rgb(0, 0, 0)" stroke="rgb(204, 204, 204)" stroke-width="1px"></line><line x1="94.66666666666666" y1="0" x2="94.66666666666666" y2="5" style="visibility: inherit;" fill="rgb(0, 0, 0)" stroke="rgb(204, 204, 204)" stroke-width="1px"></line><line x1="118.33333333333334" y1="0" x2="118.33333333333334" y2="5" style="visibility: inherit;" fill="rgb(0, 0, 0)" stroke="rgb(204, 204, 204)" stroke-width="1px"></line><line x1="142" y1="0" x2="142" y2="5" style="visibility: inherit;" fill="rgb(0, 0, 0)" stroke="rgb(204, 204, 204)" stroke-width="1px"></line><line x1="165.66666666666669" y1="0" x2="165.66666666666669" y2="5" style="visibility: inherit;" fill="rgb(0, 0, 0)" stroke="rgb(204, 204, 204)" stroke-width="1px"></line><line x1="189.33333333333331" y1="0" x2="189.33333333333331" y2="5" style="visibility: inherit;" fill="rgb(0, 0, 0)" stroke="rgb(204, 204, 204)" stroke-width="1px"></line><line x1="213" y1="0" x2="213" y2="5" style="visibility: inherit;" fill="rgb(0, 0, 0)" stroke="rgb(204, 204, 204)" stroke-width="1px"></line><line x1="236.66666666666669" y1="0" x2="236.66666666666669" y2="5" style="visibility: inherit;" fill="rgb(0, 0, 0)" stroke="rgb(204, 204, 204)" stroke-width="1px"></line><line x1="260.3333333333333" y1="0" x2="260.3333333333333" y2="5" style="visibility: inherit;" fill="rgb(0, 0, 0)" stroke="rgb(204, 204, 204)" stroke-width="1px"></line><line x1="284" y1="0" x2="284" y2="5" style="visibility: inherit;" fill="rgb(0, 0, 0)" stroke="rgb(204, 204, 204)" stroke-width="1px"></line></g><g transform="translate(0, 8)"><text x="0" y="0" dx="0em" dy="0.95em" style="text-anchor: middle; visibility: hidden; font-family: &quot;Helvetica Neue&quot;, sans-serif; font-size: 12px; font-weight: 200;" fill="rgb(50, 49, 63)" stroke="none" stroke-width="1px">-500k</text><text x="23.666666666666664" y="0" dx="0em" dy="0.95em" style="text-anchor: middle; visibility: inherit; font-family: &quot;Helvetica Neue&quot;, sans-serif; font-size: 12px; font-weight: 200;" fill="rgb(50, 49, 63)" stroke="none" stroke-width="1px">0</text><text x="47.33333333333333" y="0" dx="0em" dy="0.95em" style="text-anchor: middle; visibility: hidden; font-family: &quot;Helvetica Neue&quot;, sans-serif; font-size: 12px; font-weight: 200;" fill="rgb(50, 49, 63)" stroke="none" stroke-width="1px">500k</text><text x="71" y="0" dx="0em" dy="0.95em" style="text-anchor: middle; visibility: inherit; font-family: &quot;Helvetica Neue&quot;, sans-serif; font-size: 12px; font-weight: 200;" fill="rgb(50, 49, 63)" stroke="none" stroke-width="1px">1M</text><text x="94.66666666666666" y="0" dx="0em" dy="0.95em" style="text-anchor: middle; visibility: hidden; font-family: &quot;Helvetica Neue&quot;, sans-serif; font-size: 12px; font-weight: 200;" fill="rgb(50, 49, 63)" stroke="none" stroke-width="1px">1.5M</text><text x="118.33333333333334" y="0" dx="0em" dy="0.95em" style="text-anchor: middle; visibility: inherit; font-family: &quot;Helvetica Neue&quot;, sans-serif; font-size: 12px; font-weight: 200;" fill="rgb(50, 49, 63)" stroke="none" stroke-width="1px">2M</text><text x="142" y="0" dx="0em" dy="0.95em" style="text-anchor: middle; visibility: hidden; font-family: &quot;Helvetica Neue&quot;, sans-serif; font-size: 12px; font-weight: 200;" fill="rgb(50, 49, 63)" stroke="none" stroke-width="1px">2.5M</text><text x="165.66666666666669" y="0" dx="0em" dy="0.95em" style="text-anchor: middle; visibility: inherit; font-family: &quot;Helvetica Neue&quot;, sans-serif; font-size: 12px; font-weight: 200;" fill="rgb(50, 49, 63)" stroke="none" stroke-width="1px">3M</text><text x="189.33333333333331" y="0" dx="0em" dy="0.95em" style="text-anchor: middle; visibility: hidden; font-family: &quot;Helvetica Neue&quot;, sans-serif; font-size: 12px; font-weight: 200;" fill="rgb(50, 49, 63)" stroke="none" stroke-width="1px">3.5M</text><text x="213" y="0" dx="0em" dy="0.95em" style="text-anchor: middle; visibility: inherit; font-family: &quot;Helvetica Neue&quot;, sans-serif; font-size: 12px; font-weight: 200;" fill="rgb(50, 49, 63)" stroke="none" stroke-width="1px">4M</text><text x="236.66666666666669" y="0" dx="0em" dy="0.95em" style="text-anchor: middle; visibility: hidden; font-family: &quot;Helvetica Neue&quot;, sans-serif; font-size: 12px; font-weight: 200;" fill="rgb(50, 49, 63)" stroke="none" stroke-width="1px">4.5M</text><text x="260.3333333333333" y="0" dx="0em" dy="0.95em" style="text-anchor: middle; visibility: inherit; font-family: &quot;Helvetica Neue&quot;, sans-serif; font-size: 12px; font-weight: 200;" fill="rgb(50, 49, 63)" stroke="none" stroke-width="1px">5M</text><text x="284" y="0" dx="0em" dy="0.95em" style="text-anchor: middle; visibility: hidden; font-family: &quot;Helvetica Neue&quot;, sans-serif; font-size: 12px; font-weight: 200;" fill="rgb(50, 49, 63)" stroke="none" stroke-width="1px">5.5M</text></g><line x1="0" y1="0" x2="284" y2="0" fill="rgb(0, 0, 0)" stroke="rgb(204, 204, 204)" stroke-width="1px"></line></g></g></g></g></svg>