<svg viewBox="0 0 330 200" xmlns="http://www.w3.org/2000/svg"><g><g><g><g><g><line x1="46" y1="177" x2="41" y2="177" style="visibility: inherit;" fill="rgb(0, 0, 0)" stroke="rgb(204, 204, 204)" stroke-width="1px"></line><line x1="46" y1="163.3846153846154" x2="41" y2="163.3846153846154" style="visibility: inherit;" fill="rgb(0, 0, 0)" stroke="rgb(204, 204, 204)" stroke-width="1px"></line><line x1="46" y1="149.76923076923077" x2="41" y2="149.76923076923077" style="visibility: inherit;" fill="rgb(0, 0, 0)" stroke="rgb(204, 204, 204)" stroke-width="1px"></line><line x1="46" y1="136.15384615384616" x2="41" y2="136.15384615384616" style="visibility: inherit;" fill="rgb(0, 0, 0)" stroke="rgb(204, 204, 204)" stroke-width="1px"></line><line x1="46" y1="122.53846153846153" x2="41" y2="122.53846153846153" style="visibility: inherit;" fill="rgb(0, 0, 0)" stroke="rgb(204, 204, 204)" stroke-width="1px"></line><line x1="46" y1="108.92307692307693" x2="41" y2="108.92307692307693" style="visibility: inherit;" fill="rgb(0, 0, 0)" stroke="rgb(204, 204, 204)" stroke-width="1px"></line><line x1="46" y1="95.3076923076923" x2="41" y2="95.3076923076923" style="visibility: inherit;" fill="rgb(0, 0, 0)" stroke="rgb(204, 204, 204)" stroke-width="1px"></line><line x1="46" y1="81.6923076923077" x2="41" y2="81.6923076923077" style="visibility: inherit;" fill="rgb(0, 0, 0)" stroke="rgb(204, 204, 204)" stroke-width="1px"></line><line x1="46" y1="68.0769230769231" x2="41" y2="68.0769230769231" style="visibility: inherit;" fill="rgb(0, 0, 0)" stroke="rgb(204, 204, 204)" stroke-width="1px"></line><line x1="46" y1="54.46153846153847" x2="41" y2="54.46153846153847" style="visibility: inherit;" fill="rgb(0, 0, 0)" stroke="rgb(204, 204, 204)" stroke-width="1px"></line><line x1="46" y1="40.84615384615387" x2="41" y2="40.84615384615387" style="visibility: inherit;" fill="rgb(0, 0, 0)" stroke="rgb(204, 204, 204)" stroke-width="1px"></line><line x1="46" y1="27.230769230769226" x2="41" y2="27.230769230769226" style="visibility: inherit;" fill="rgb(0, 0, 0)" stroke="rgb(204, 204, 204)" stroke-width="1px"></line><line x1="46" y1="13.615384615384613" x2="41" y2="13.615384615384613" style="visibility: inherit;" fill="rgb(0, 0, 0)" stroke="rgb(204, 204, 204)" stroke-width="1px"></line><line x1="46" y1="0" x2="41" y2="0" style="visibility: inherit;" fill="rgb(0, 0, 0)" stroke="rgb(204, 204, 204)" stroke-width="1px"></line></g><g transform="translate(36, 0)"><text x="0" y="177" dx="0em" dy="0.3em" style="text-anchor: end; visibility: hidden; font-family: &quot;Helvetica Neue&quot;, sans-serif; font-size: 12px; font-weight: 200;" fill="rgb(50, 49, 63)" stroke="none" stroke-width="1px">-0.1</text><text x="0" y="163.3846153846154" dx="0em" dy="0.3em" style="text-anchor: end; visibility: inherit; font-family: &quot;Helvetica Neue&quot;, sans-serif; font-size: 12px; font-weight: 200;" fill="rgb(50, 49, 63)" stroke="none" stroke-width="1px">0</text><text x="0" y="149.76923076923077" dx="0em" dy="0.3em" style="text-anchor: end; visibility: hidden; font-family: &quot;Helvetica Neue&quot;, sans-serif; font-size: 12px; font-weight: 200;" fill="rgb(50, 49, 63)" stroke="none" stroke-width="1px">0.1</text><text x="0" y="136.15384615384616" dx="0em" dy="0.3em" style="text-anchor: end; visibility: inherit; font-family: &quot;Helvetica Neue&quot;, sans-serif; font-size: 12px; font-weight: 200;" fill="rgb(50, 49, 63)" stroke="none" stroke-width="1px">0.2</text><text x="0" y="122.53846153846153" dx="0em" dy="0.3em" style="text-anchor: end; visibility: hidden; font-family: &quot;Helvetica Neue&quot;, sans-serif; font-size: 12px; font-weight: 200;" fill="rgb(50, 49, 63)" stroke="none" stroke-width="1px">0.3</text><text x="0" y="108.92307692307693" dx="0em" dy="0.3em" style="text-anchor: end; visibility: inherit; font-family: &quot;Helvetica Neue&quot;, sans-serif; font-size: 12px; font-weight: 200;" fill="rgb(50, 49, 63)" stroke="none" stroke-width="1px">0.4</text><text x="0" y="95.3076923076923" dx="0em" dy="0.3em" style="text-anchor: end; visibility: hidden; font-family: &quot;Helvetica Neue&quot;, sans-serif; font-size: 12px; font-weight: 200;" fill="rgb(50, 49, 63)" stroke="none" stroke-width="1px">0.5</text><text x="0" y="81.6923076923077" dx="0em" dy="0.3em" style="text-anchor: end; visibility: inherit; font-family: &quot;Helvetica Neue&quot;, sans-serif; font-size: 12px; font-weight: 200;" fill="rgb(50, 49, 63)" stroke="none" stroke-width="1px">0.6</text><text x="0" y="68.0769230769231" dx="0em" dy="0.3em" style="text-anchor: end; visibility: hidden; font-family: &quot;Helvetica Neue&quot;, sans-serif; font-size: 12px; font-weight: 200;" fill="rgb(50, 49, 63)" stroke="none" stroke-width="1px">0.7</text><text x="0" y="54.46153846153847" dx="0em" dy="0.3em" style="text-anchor: end; visibility: inherit; font-family: &quot;Helvetica Neue&quot;, sans-serif; font-size: 12px; font-weight: 200;" fill="rgb(50, 49, 63)" stroke="none" stroke-width="1px">0.8</text><text x="0" y="40.84615384615387" dx="0em" dy="0.3em" style="text-anchor: end; visibility: hidden; font-family: &quot;Helvetica Neue&quot;, sans-serif; font-size: 12px; font-weight: 200;" fill="rgb(50, 49, 63)" stroke="none" stroke-width="1px">0.9</text><text x="0" y="27.230769230769226" dx="0em" dy="0.3em" style="text-anchor: end; visibility: inherit; font-family: &quot;Helvetica Neue&quot;, sans-serif; font-size: 12px; font-weight: 200;" fill="rgb(50, 49, 63)" stroke="none" stroke-width="1px">1</text><text x="0" y="13.615384615384613" dx="0em" dy="0.3em" style="text-anchor: end; visibility: hidden; font-family: &quot;Helvetica Neue&quot;, sans-serif; font-size: 12px; font-weight: 200;" fill="rgb(50, 49, 63)" stroke="none" stroke-width="1px">1.1</text><text x="0" y="0" dx="0em" dy="0.3em" style="text-anchor: end; visibility: hidden; font-family: &quot;Helvetica Neue&quot;, sans-serif; font-size: 12px; font-weight: 200;" fill="rgb(50, 49, 63)" stroke="none" stroke-width="1px">1.2</text></g><line x1="46" y1="0" x2="46" y2="177" fill="rgb(0, 0, 0)" stroke="rgb(204, 204, 204)" stroke-width="1px"></line></g></g><g transform="translate(46, 0)" clip-path="url(#clip_0)"><clipPath id="clip_0"><rect width="284" height="177"></rect></clipPath><g><g><g><line x1="0" y1="0" x2="0" y2="177" fill="rgb(0, 0, 0)" stroke="rgb(60, 60, 60)" stroke-width="1px" opacity="0.25"></line><line x1="23.666666666666664" y1="0" x2="23.666666666666664" y2="177" fill="rgb(0, 0, 0)" stroke="rgb(60, 60, 60)" stroke-width="1px" opacity="0.25"></line><line x1="47.33333333333333" y1="0" x2="47.33333333333333" y2="177" fill="rgb(0, 0, 0)" stroke="rgb(60, 60, 60)" stroke-width="1px" opacity="0.25"></line><line x1="71" y1="0" x2="71" y2="177" fill="rgb(0, 0, 0)" stroke="rgb(60, 60, 60)" stroke-width="1px" opacity="0.25"></line><line x1="94.66666666666666" y1="0" x2="94.66666666666666" y2="177" fill="rgb(0, 0, 0)" stroke="rgb(60, 60, 60)" stroke-width="1px" opacity="0.25"></line><line x1="118.33333333333334" y1="0" x2="118.33333333333334" y2="177" fill="rgb(0, 0, 0)" stroke="rgb(60, 60, 60)" stroke-width="1px" opacity="0.25"></line><line x1="142" y1="0" x2="142" y2="177" fill="rgb(0, 0, 0)" stroke="rgb(60, 60, 60)" stroke-width="1px" opacity="0.25"></line><line x1="165.66666666666669" y1="0" x2="165.66666666666669" y2="177" fill="rgb(0, 0, 0)" stroke="rgb(60, 60, 60)" stroke-width="1px" opacity="0.25"></line><line x1="189.33333333333331" y1="0" x2="189.33333333333331" y2="177" fill="rgb(0, 0, 0)" stroke="rgb(60, 60, 60)" stroke-width="1px" opacity="0.25"></line><line x1="213" y1="0" x2="213" y2="177" fill="rgb(0, 0, 0)" stroke="rgb(60, 60, 60)" stroke-width="1px" opacity="0.25"></line><line x1="236.66666666666669" y1="0" x2="236.66666666666669" y2="177" fill="rgb(0, 0, 0)" stroke="rgb(60, 60, 60)" stroke-width="1px" opacity="0.25"></line><line x1="260.3333333333333" y1="0" x2="260.3333333333333" y2="177" fill="rgb(0, 0, 0)" stroke="rgb(60, 60, 60)" stroke-width="1px" opacity="0.25"></line><line x1="284" y1="0" x2="284" y2="177" fill="rgb(0, 0, 0)" stroke="rgb(60, 60, 60)" stroke-width="1px" opacity="0.25"></line></g><g><line x1="0" y1="177" x2="284" y2="177" fill="rgb(0, 0, 0)" stroke="rgb(60, 60, 60)" stroke-width="1px" opacity="0.25"></line><line x1="0" y1="163.3846153846154" x2="284" y2="163.3846153846154" fill="rgb(0, 0, 0)" stroke="rgb(60, 60, 60)" stroke-width="1px" opacity="0.25"></line><line x1="0" y1="149.76923076923077" x2="284" y2="149.76923076923077" fill="rgb(0, 0, 0)" stroke="rgb(60, 60, 60)" stroke-width="1px" opacity="0.25"></line><line x1="0" y1="136.15384615384616" x2="284" y2="136.15384615384616" fill="rgb(0, 0, 0)" stroke="rgb(60, 60, 60)" stroke-width="1px" opacity="0.25"></line><line x1="0" y1="122.53846153846153" x2="284" y2="122.53846153846153" fill="rgb(0, 0, 0)" stroke="rgb(60, 60, 60)" stroke-width="1px" opacity="0.25"></line><line x1="0" y1="108.92307692307693" x2="284" y2="108.92307692307693" fill="rgb(0, 0, 0)" stroke="rgb(60, 60, 60)" stroke-width="1px" opacity="0.25"></line><line x1="0" y1="95.3076923076923" x2="284" y2="95.3076923076923" fill="rgb(0, 0, 0)" stroke="rgb(60, 60, 60)" stroke-width="1px" opacity="0.25"></line><line x1="0" y1="81.6923076923077" x2="284" y2="81.6923076923077" fill="rgb(0, 0, 0)" stroke="rgb(60, 60, 60)" stroke-width="1px" opacity="0.25"></line><line x1="0" y1="68.0769230769231" x2="284" y2="68.0769230769231" fill="rgb(0, 0, 0)" stroke="rgb(60, 60, 60)" stroke-width="1px" opacity="0.25"></line><line x1="0" y1="54.46153846153847" x2="284" y2="54.46153846153847" fill="rgb(0, 0, 0)" stroke="rgb(60, 60, 60)" stroke-width="1px" opacity="0.25"></line><line x1="0" y1="40.84615384615387" x2="284" y2="40.84615384615387" fill="rgb(0, 0, 0)" stroke="rgb(60, 60, 60)" stroke-width="1px" opacity="0.25"></line><line x1="0" y1="27.230769230769226" x2="284" y2="27.230769230769226" fill="rgb(0, 0, 0)" stroke="rgb(60, 60, 60)" stroke-width="1px" opacity="0.25"></line><line x1="0" y1="13.615384615384613" x2="284" y2="13.615384615384613" fill="rgb(0, 0, 0)" stroke="rgb(60, 60, 60)" stroke-width="1px" opacity="0.25"></line><line x1="0" y1="0" x2="284" y2="0" fill="rgb(0, 0, 0)" stroke="rgb(60, 60, 60)" stroke-width="1px" opacity="0.25"></line></g></g></g><g><g><line x1="0" y1="163.3846153846154" x2="284" y2="163.3846153846154" fill="rgb(0, 0, 0)" stroke="rgb(153, 153, 153)" stroke-width="1.5px"></line></g></g><g><g><line x1="23.666666666666664" y1="0" x2="23.666666666666664" y2="177" fill="rgb(0, 0, 0)" stroke="rgb(153, 153, 153)" stroke-width="1.5px"></line></g></g><g><g><g><g><g><path stroke="rgb(255, 112, 67)" stroke-width="2px" d="M23.881134,132.01027992367744L24.081685333333336,131.7800648901877L24.269409333333332,131.5700447061178L24.689682,131.4345461556762L25.10451133333333,131.35345797439567L25.521991333333332,131.28177854973669L29.529326,130.74367158330557L29.530935333333332,130.34156655991464L29.739202000000002,130.00552432281768L30.166953333333336,129.68714073669338L30.367220666666665,129.40834647531466L30.569286666666667,129.15854114870362L31.000872,128.9090405782223L31.431037333333332,128.6583014979154L31.545063333333335,128.43381918178258L31.777517333333332,128.21948329200632L31.885058666666666,128.0239535553833L31.991511333333335,127.84287679270784L32.22652133333333,127.66434871498586L32.32909266666667,127.49876074388985L32.56012666666667,127.337523502627L32.66392866666666,127.18643278277688L32.89501,127.03395051812333L32.996350666666665,126.88964465962198L33.101714666666666,126.75266883581106L33.334452666666664,126.6161922916448L33.44033733333333,126.48640466893642L33.54532266666667,126.3612922431162L33.648888,126.2410822388934L33.881058,126.12033077586582L34.11266,125.9958976322678L36.976942,125.7299362792526L37.423816,125.4630628924494L37.86761333333333,125.19800151674855L38.07535933333333,124.9429446664103L38.52341666666666,124.68713854575098L52.67314866666667,123.87662698859333L52.88098933333333,123.11530769376476L53.104307999999996,122.40049702996569L53.31058666666667,121.72829936821472L53.750691999999994,121.08739331330328L53.95697066666667,120.48305161147805L56.128008666666666,119.84046506288811L64.03456866666667,118.94737143903428L64.23587733333333,118.10336878396501L78.99848133333333,116.80254653867732L101.14328666666667,114.87520745686172L101.343838,113.06418782283131L101.56284933333333,111.36022539552027L101.99202066666666,109.7504830356254L102.19053666666667,108.23291811925108L102.391372,106.79970951023382L102.82040133333334,105.43713235230888L103.24673266666666,104.142417891097L103.447568,102.91837739056761L103.64764600000001,101.76246239576683L103.84606733333332,100.66988609369623L104.04590866666668,99.63808483085279L104.24584466666667,98.66073995879441L104.67037733333333,97.72614864224094L104.86950866666666,96.84090950116226L105.29593466666667,95.99101727181483L105.72160333333332,95.17873669596115L105.92040333333334,94.4059822057131L106.34569333333333,93.66464526239682L106.545014,92.96051870321838L111.99644133333334,92.13048805076762L116.72650866666666,91.19357219957934L117.15847266666667,90.29773364270567L117.360018,89.44703034416682L117.56189466666666,88.6361224272889L117.99366933333333,87.85989304522028L118.194552,87.12139875351696L118.39609733333333,86.41999755073473L118.82815599999999,85.747027821133L119.03060066666667,85.10513890250981L119.46573599999999,84.48482857020907L119.67139933333333,83.89454261149602L120.10980066666667,83.32328581675841L120.31617399999999,82.77743790321007L120.521364,82.25611950536207L120.958582,81.75004505794094L121.164482,81.26365203708737L121.60274133333333,80.79035746931984L122.03976999999999,80.32802141183936L122.47840799999999,79.87791198152249L122.68364533333335,79.4474711052824L122.888504,79.03696692129932L123.32468066666667,78.63826216090779L123.52793,78.25628395466242L123.96155066666665,77.88738945218451L124.395692,77.52783661638664L124.59894133333333,77.1823029565956L124.79930333333334,76.85004709389804L125.23264,76.52297436172655L125.66555066666666,76.20359596121403L129.57736666666668,75.7948588396377L130.00019533333332,75.39678041324323L130.197528,75.01546845096712L146.21479666666667,74.19439279812111L146.65315066666668,73.40771284516057L147.08421533333333,72.65372674268437L147.291914,71.93752826396276L147.498808,71.25809392041448L147.70376133333335,70.61223777127452L148.14538133333335,69.99112324282324L148.580848,69.39281672929084L148.78409733333334,68.82228772272421L148.98871933333334,68.27912459941021L149.42726266666668,67.75321156498696L149.86471733333335,67.24515173487337L150.29885866666666,66.75196338905648L150.501966,66.2809241419268L150.93544466666665,65.82366800148765L151.13665866666668,65.38649853523339L151.56814933333334,64.96211927130588L151.76983666666666,64.55612625739327L152.201848,64.16426616769745L152.40396133333334,63.7895908913797L152.60574333333332,63.43290607266586L153.03676066666668,63.08529182556089L153.23750133333334,62.753395891098535L153.670412,62.43086070287272L153.87214666666665,62.121711696240396L154.303022,61.822145401138215L154.50452,61.534055873291905L154.93615266666666,61.253313983502096L155.36740666666668,60.9806677949597L155.57141333333334,60.720429929728056L155.77220133333333,60.46952106507264L155.973936,60.227706626869136L156.40651533333332,59.990907703649725L161.83687933333334,59.63344803608021L168.37990800000003,59.16454150271076L168.80799066666668,58.712278625492914L169.00556,58.281641361197615L169.20625333333334,57.87122527486581L169.40779866666668,57.480129880938506L169.83720666666667,57.10260865069621L170.265952,56.736149572668836L170.47341400000002,56.38738847843943L170.905946,56.05132448752586L171.10929000000002,55.730551376476555L171.31400666666667,55.42448964257393L171.5192913333333,55.13135316566532L171.95641466666666,54.84207160949008L172.392544,54.56126023482025L172.82895733333334,54.28468643378173L173.032822,54.02070852362709L173.23768066666665,53.767908761912494L173.44220800000002,53.52475479888798L173.6463566666667,53.29229011614747L174.082486,53.06449362421519L174.28644533333332,52.84466216046715L174.490452,52.63292118310106L174.92572933333332,52.426388856566845L175.360628,52.220289501691255L175.56562866666667,52.02155146785999L176.0027046666667,51.82537628734508L176.20514933333334,51.6361572204532L176.41038666666665,51.451953775888384L176.61515066666666,51.27322941802362L176.82015133333334,51.10097614630274L177.25438733333334,50.92733676608539L177.684032,50.75429230257161L177.88652399999998,50.58692608745396L178.08849533333333,50.42488185561028L178.51885,50.26318249780364L178.94617533333334,50.10137917157709L179.37534666666664,49.93782924137592L179.804944,49.772227828230456L180.00819333333334,49.61189566438435L180.21149000000003,49.457453840801335L180.64672,49.30501246612381L181.08048266666665,49.15426314199948L181.51760599999997,49.0039153429675L181.949286,48.854961413756996L183.99105666666665,48.680981700582265L184.42330466666667,48.50866217818759L184.62664866666668,48.34001134793712L185.06282533333334,48.17374616390663L185.49848133333333,48.010492429746904L185.70206199999998,47.852352483836256L186.13639266666667,47.695326412405024L186.3395,47.5441337872727L186.541708,47.39735534868939L186.97566,47.25118172360763L187.40994333333333,47.105120922985265L187.84498399999998,46.95733328290737L188.04794933333335,46.81273470756773L188.25176666666667,46.67262134672103L188.45610466666665,46.53573172219413L188.88939399999998,46.39698929237588L189.09287999999998,46.261828731547354L189.52531733333333,46.12509846079746L189.72582133333333,45.99141288406224L189.92873933333334,45.859922511660216L190.36051400000002,45.72724859733319L190.564142,45.59980405181585L190.99814133333334,45.47116207602798L191.42949000000002,45.340281279487556L191.63415933333332,45.214238100571805L191.838166,45.091871776904355L192.04155733333332,44.97255192478514L192.47541466666667,44.85394740400949L192.67918466666669,44.73821912943865L193.11138533333335,44.62203567397091L193.31278866666668,44.50841972448683L193.5138606666667,44.39715296332665L193.941044,44.286021472761234L194.36756466666668,44.17460638475407L194.79498466666666,44.063116726587054L194.99307466666667,43.953518596152406L195.1928213333333,43.84590330230347L195.39342,43.73962262624812L195.82155,43.63370062432915L196.02124933333334,43.53185744934396L196.21952866666666,43.43325206560601L196.64609666666666,43.33408652930191L196.84499133333333,43.23755255021783L197.04270266666668,43.14266927210721L200.183364,43.00520582523569L200.61655866666666,42.86749680224253L201.051552,42.7278921629981L201.25551133333335,42.59177574690304L201.689558,42.45749292875297L201.89152933333332,42.327514651848276L202.09492066666667,42.201561230084195L202.52333466666664,42.075644767468475L202.72346,41.9526149506319L208.72158733333333,41.75072079425152L208.929144,41.55810811342036L218.72065933333334,41.242585075857846L219.15721466666665,40.940977059160474L219.59296533333335,40.652701145563526L219.799528,40.377645163515325L220.243704,40.11317777231861L220.45220733333332,39.861659562768835L220.660048,39.62063114668763L221.103088,39.38810443818721L221.31211199999998,39.16599290547623L239.251398,38.78859738462333L239.45696666666666,38.43131668877524L239.90213666666665,38.09258219159622L240.11097133333334,37.7709985493228L240.31895400000002,37.466444249506395L240.52636866666666,37.176992186971546L240.73548733333334,36.90248241845282L240.94489000000002,36.64242356505454L241.15585466666667,36.395483286981744L241.60239733333333,36.15732305290078L241.81156333333334,35.93103552660179L242.01987733333334,35.71618442983339L242.227718,35.51134082854489L242.669054,35.316307872094825L243.11034266666667,35.13060705959549L243.31752066666667,34.95398210524792L243.52219,34.78585204619051L243.72846866666669,34.62616427231245L259.56998866666663,34.36758230811958L259.7659013333333,34.122891050188144L259.965506,33.890849975098575L260.1642586666667,33.67177366714452L260.3333333333333,33.46418623530943" style="fill: none;" fill="none"></path></g></g></g></g><g opacity="0.2"><g><g><g><path stroke="rgb(255, 112, 67)" stroke-width="2px" d="M23.881134,132.01027992367744L24.081685333333336,131.56274189857336L24.269409333333332,131.1846291056046L24.689682,131.07190211919638L25.10451133333333,131.0720421098746L25.521991333333332,130.97928104033838L29.529326,128.0919793890073L29.530935333333332,128.0914437724994L29.739202000000002,127.91316057168521L30.166953333333336,127.51518939091609L30.367220666666665,127.34978939019717L30.569286666666667,127.18150842189789L31.000872,126.8094700070528L31.431037333333332,126.42977065306444L31.545063333333335,126.33847238467291L31.777517333333332,126.12854723288463L31.885058666666666,126.038717852189L31.991511333333335,125.93640292607822L32.22652133333333,125.72143810987473L32.32909266666667,125.64127823022696L32.56012666666667,125.47792331072L32.66392866666666,125.39881031788312L32.89501,125.18694964280496L32.996350666666665,125.10334477516321L33.101714666666666,125.02275072152798L33.334452666666664,124.86026820769678L33.44033733333333,124.78753392054485L33.54532266666667,124.69722167345193L33.648888,124.61827504634857L33.881058,124.46751117247803L34.11266,124.27059906721115L36.976942,121.99775099295837L37.423816,121.67586981791717L37.86761333333333,121.39694752142981L38.07535933333333,121.24940951970908L38.52341666666666,120.94871765833635L52.67314866666667,111.92978778252235L52.88098933333333,111.80328895953986L53.104307999999996,111.69951731883563L53.31058666666667,111.5942280980257L53.750691999999994,111.36114970537332L53.95697066666667,111.25479736694923L56.128008666666666,109.97109907865526L64.03456866666667,105.15557799889491L64.23587733333333,105.00282179392302L78.99848133333333,96.51401429909927L101.14328666666667,84.67904005600856L101.343838,84.5697580575943L101.56284933333333,84.44304417646849L101.99202066666666,84.2260951445653L102.19053666666667,84.0850494641524L102.391372,83.91830230676211L102.82040133333334,83.6153056713251L103.24673266666666,83.34636937654936L103.447568,83.20302703747383L103.64764600000001,83.09582258187808L103.84606733333332,82.98275069090037L104.04590866666668,82.89616747085864L104.24584466666667,82.76787920181567L104.67037733333333,82.49732794211462L104.86950866666666,82.38837867516739L105.29593466666667,82.09029185771942L105.72160333333332,81.87038070421954L105.92040333333334,81.72474170648135L106.34569333333333,81.48043565566724L106.545014,81.3712510420726L111.99644133333334,78.45045307049385L116.72650866666666,75.73220740831816L117.15847266666667,75.49644687542549L117.360018,75.37552739106692L117.56189466666666,75.20852054082431L117.99366933333333,74.99355166692001L118.194552,74.86888286700615L118.39609733333333,74.77245566478142L118.82815599999999,74.56216126221878L119.03060066666667,74.4283220584576L119.46573599999999,74.15916664783771L119.67139933333333,74.06168444340045L120.10980066666667,73.80103397369385L120.31617399999999,73.67297293589667L120.521364,73.55560799745413L120.958582,73.2991937674009L121.164482,73.13714542755714L121.60274133333333,72.87873480870174L122.03976999999999,72.59592929253212L122.47840799999999,72.34694065497473L122.68364533333335,72.24255224374625L122.888504,72.16302942312682L123.32468066666667,71.95940588070796L123.52793,71.85535831634814L123.96155066666665,71.70364899818713L124.395692,71.4987919147198L124.59894133333333,71.38661271792193L124.79930333333334,71.27550475413983L125.23264,71.03394170907828L125.66555066666666,70.84235330728384L129.57736666666668,68.93197964704954L130.00019533333332,68.71137868441069L130.197528,68.61030135704921L146.21479666666667,60.39947071442238L146.65315066666668,60.18820246366354L147.08421533333333,59.98137333759895L147.291914,59.89827162485858L147.498808,59.83504453072182L147.70376133333335,59.75211324141577L148.14538133333335,59.545568154408386L148.580848,59.329503701283386L148.78409733333334,59.22498544362875L148.98871933333334,59.14108842152817L149.42726266666668,58.90440273284912L149.86471733333335,58.695836910834686L150.29885866666666,58.45207459193011L150.501966,58.353042345780594L150.93544466666665,58.127085218062774L151.13665866666668,58.027403739782486L151.56814933333334,57.81776668475226L151.76983666666666,57.72079575061798L152.201848,57.56641646531912L152.40396133333334,57.4806691316458L152.60574333333332,57.42653940274165L153.03676066666668,57.23132341641647L153.23750133333334,57.163819505618164L153.670412,56.99864673614502L153.87214666666665,56.914692906232986L154.303022,56.77629284675305L154.50452,56.681302070617676L154.93615266666666,56.52413108715645L155.36740666666668,56.38767872406886L155.57141333333334,56.336308231720565L155.77220133333333,56.24241303480589L155.973936,56.15367923333095L156.40651533333332,56.00125575982608L161.83687933333334,53.61069378486049L168.37990800000003,51.26382513229663L168.80799066666668,51.09179484844208L169.00556,51.02536217065959L169.20625333333334,50.95551290878883L169.40779866666668,50.88983496335837L169.83720666666667,50.74091734335974L170.265952,50.560747311665466L170.47341400000002,50.510115320865935L170.905946,50.3879217184507L171.10929000000002,50.324743316723755L171.31400666666667,50.26652342539569L171.5192913333333,50.191139459609985L171.95641466666666,49.966756719809325L172.392544,49.82863258398497L172.82895733333334,49.62341842284572L173.032822,49.5716746220222L173.23768066666665,49.507222102238586L173.44220800000002,49.426595586996825L173.6463566666667,49.37425124645233L174.082486,49.22509827980629L174.28644533333332,49.13948079255911L174.490452,49.06407248056853L174.92572933333332,48.94530357764319L175.360628,48.746476237590514L175.56562866666667,48.6717901963454L176.0027046666667,48.51879052932446L176.20514933333334,48.44679880142212L176.41038666666665,48.347117323141845L176.61515066666666,48.26072887273935L176.82015133333334,48.19753424020914L177.25438733333334,48.00051663472104L177.684032,47.83748633127948L177.88652399999998,47.765819219442506L178.08849533333333,47.693470413868255L178.51885,47.53757354846368L178.94617533333334,47.37400762851422L179.37534666666664,47.18100714683533L179.804944,46.98081641930801L180.00819333333334,46.9092953847005L180.21149000000003,46.85413499978873L180.64672,46.73540667387155L181.08048266666665,46.61317249444815L181.51760599999997,46.46958669332358L181.949286,46.34412258404953L183.99105666666665,45.74828979602228L184.42330466666667,45.603949262545655L184.62664866666668,45.49713434622839L185.06282533333334,45.37107781263498L185.49848133333333,45.25858211517334L185.70206199999998,45.186639079680816L186.13639266666667,45.0483850974303L186.3395,44.99552137118121L186.541708,44.92314821940204L186.97566,44.78716654960925L187.40994333333333,44.64300455496863L187.84498399999998,44.46610503013318L188.04794933333335,44.375261224233185L188.25176666666667,44.31075189663815L188.45610466666665,44.22820203120892L188.88939399999998,44.05822494396796L189.09287999999998,43.98344151790326L189.52531733333333,43.820248906429015L189.72582133333333,43.737885695237395L189.92873933333334,43.64339807400336L190.36051400000002,43.49077171545764L190.564142,43.45147694074191L190.99814133333334,43.302648590161255L191.42949000000002,43.134026774993316L191.63415933333332,43.08953002782968L191.838166,43.029143324265135L192.04155733333332,42.96117683557364L192.47541466666667,42.854629727510314L192.67918466666669,42.78738550956433L193.11138533333335,42.663528249813965L193.31278866666668,42.59319206384512L193.5138606666667,42.52152495200818L193.941044,42.412673069880555L194.36756466666668,42.29647674927344L194.79498466666666,42.183729474361144L194.99307466666667,42.10601638830627L195.1928213333333,42.03182538656088L195.39342,41.94804198008319L195.82155,41.848165732163665L196.02124933333334,41.81507923969855L196.21952866666666,41.77105318582977L196.64609666666666,41.66244476575119L196.84499133333333,41.61027084864105L197.04270266666668,41.54321328493265L200.183364,40.687971683648925L200.61655866666666,40.54612257847418L201.051552,40.37456298791443L201.25551133333335,40.29724755653967L201.689558,40.193873570515564L201.89152933333332,40.13645710394931L202.09492066666667,40.07835082824414L202.52333466666664,39.95305714240442L202.72346,39.87868760182306L208.72158733333333,38.347368121147156L208.929144,38.311214006864105L218.72065933333334,35.92377646152789L219.15721466666665,35.85673512862277L219.59296533333335,35.79319964922391L219.799528,35.740993270507204L220.243704,35.655018705588105L220.45220733333332,35.621786135893586L220.660048,35.55758519356067L221.103088,35.46837258338928L221.31211199999998,35.42183075501367L239.251398,32.426793089279755L239.45696666666666,32.4085902434129L239.90213666666665,32.38249111175537L240.11097133333334,32.350021389814515L240.31895400000002,32.332532699291505L240.52636866666666,32.29766081846677L240.73548733333334,32.275035078708925L240.94489000000002,32.258577044193544L241.15585466666667,32.232778182396515L241.60239733333333,32.1426241856355L241.81156333333334,32.11647636156815L242.01987733333334,32.09441058452313L242.227718,32.05826458564172L242.669054,32.028610908068146L243.11034266666667,32.0002232331496L243.31752066666667,31.97659118358905L243.52219,31.951660669766937L243.72846866666669,31.93428559486682L259.56998866666663,30.008630633354187L259.7659013333333,29.998096842032197L259.965506,29.97930157184601L260.1642586666667,29.978774070739746L260.3333333333333,29.964856156936037" style="fill: none;" fill="none"></path></g></g></g></g></g></g><g transform="translate(46, 177)" clip-path="url(#clip_1)"><clipPath id="clip_1"><rect width="284" height="23"></rect></clipPath><g><g><line x1="0" y1="0" x2="0" y2="5" style="visibility: inherit;" fill="rgb(0, 0, 0)" stroke="rgb(204, 204, 204)" stroke-width="1px"></line><line x1="23.666666666666664" y1="0" x2="23.666666666666664" y2="5" style="visibility: inherit;" fill="rgb(0, 0, 0)" stroke="rgb(204, 204, 204)" stroke-width="1px"></line><line x1="47.33333333333333" y1="0" x2="47.33333333333333" y2="5" style="visibility: inherit;" fill="rgb(0, 0, 0)" stroke="rgb(204, 204, 204)" stroke-width="1px"></line><line x1="71" y1="0" x2="71" y2="5" style="visibility: inherit;" fill="rgb(0, 0, 0)" stroke="rgb(204, 204, 204)" stroke-width="1px"></line><line x1="94.66666666666666" y1="0" x2="94.66666666666666" y2="5" style="visibility: inherit;" fill="rgb(0, 0, 0)" stroke="rgb(204, 204, 204)" stroke-width="1px"></line><line x1="118.33333333333334" y1="0" x2="118.33333333333334" y2="5" style="visibility: inherit;" fill="rgb(0, 0, 0)" stroke="rgb(204, 204, 204)" stroke-width="1px"></line><line x1="142" y1="0" x2="142" y2="5" style="visibility: inherit;" fill="rgb(0, 0, 0)" stroke="rgb(204, 204, 204)" stroke-width="1px"></line><line x1="165.66666666666669" y1="0" x2="165.66666666666669" y2="5" style="visibility: inherit;" fill="rgb(0, 0, 0)" stroke="rgb(204, 204, 204)" stroke-width="1px"></line><line x1="189.33333333333331" y1="0" x2="189.33333333333331" y2="5" style="visibility: inherit;" fill="rgb(0, 0, 0)" stroke="rgb(204, 204, 204)" stroke-width="1px"></line><line x1="213" y1="0" x2="213" y2="5" style="visibility: inherit;" fill="rgb(0, 0, 0)" stroke="rgb(204, 204, 204)" stroke-width="1px"></line><line x1="236.66666666666669" y1="0" x2="236.66666666666669" y2="5" style="visibility: inherit;" fill="rgb(0, 0, 0)" stroke="rgb(204, 204, 204)" stroke-width="1px"></line><line x1="260.3333333333333" y1="0" x2="260.3333333333333" y2="5" style="visibility: inherit;" fill="rgb(0, 0, 0)" stroke="rgb(204, 204, 204)" stroke-width="1px"></line><line x1="284" y1="0" x2="284" y2="5" style="visibility: inherit;" fill="rgb(0, 0, 0)" stroke="rgb(204, 204, 204)" stroke-width="1px"></line></g><g transform="translate(0, 8)"><text x="0" y="0" dx="0em" dy="0.95em" style="text-anchor: middle; visibility: hidden; font-family: &quot;Helvetica Neue&quot;, sans-serif; font-size: 12px; font-weight: 200;" fill="rgb(50, 49, 63)" stroke="none" stroke-width="1px">-500k</text><text x="23.666666666666664" y="0" dx="0em" dy="0.95em" style="text-anchor: middle; visibility: inherit; font-family: &quot;Helvetica Neue&quot;, sans-serif; font-size: 12px; font-weight: 200;" fill="rgb(50, 49, 63)" stroke="none" stroke-width="1px">0</text><text x="47.33333333333333" y="0" dx="0em" dy="0.95em" style="text-anchor: middle; visibility: hidden; font-family: &quot;Helvetica Neue&quot;, sans-serif; font-size: 12px; font-weight: 200;" fill="rgb(50, 49, 63)" stroke="none" stroke-width="1px">500k</text><text x="71" y="0" dx="0em" dy="0.95em" style="text-anchor: middle; visibility: inherit; font-family: &quot;Helvetica Neue&quot;, sans-serif; font-size: 12px; font-weight: 200;" fill="rgb(50, 49, 63)" stroke="none" stroke-width="1px">1M</text><text x="94.66666666666666" y="0" dx="0em" dy="0.95em" style="text-anchor: middle; visibility: hidden; font-family: &quot;Helvetica Neue&quot;, sans-serif; font-size: 12px; font-weight: 200;" fill="rgb(50, 49, 63)" stroke="none" stroke-width="1px">1.5M</text><text x="118.33333333333334" y="0" dx="0em" dy="0.95em" style="text-anchor: middle; visibility: inherit; font-family: &quot;Helvetica Neue&quot;, sans-serif; font-size: 12px; font-weight: 200;" fill="rgb(50, 49, 63)" stroke="none" stroke-width="1px">2M</text><text x="142" y="0" dx="0em" dy="0.95em" style="text-anchor: middle; visibility: hidden; font-family: &quot;Helvetica Neue&quot;, sans-serif; font-size: 12px; font-weight: 200;" fill="rgb(50, 49, 63)" stroke="none" stroke-width="1px">2.5M</text><text x="165.66666666666669" y="0" dx="0em" dy="0.95em" style="text-anchor: middle; visibility: inherit; font-family: &quot;Helvetica Neue&quot;, sans-serif; font-size: 12px; font-weight: 200;" fill="rgb(50, 49, 63)" stroke="none" stroke-width="1px">3M</text><text x="189.33333333333331" y="0" dx="0em" dy="0.95em" style="text-anchor: middle; visibility: hidden; font-family: &quot;Helvetica Neue&quot;, sans-serif; font-size: 12px; font-weight: 200;" fill="rgb(50, 49, 63)" stroke="none" stroke-width="1px">3.5M</text><text x="213" y="0" dx="0em" dy="0.95em" style="text-anchor: middle; visibility: inherit; font-family: &quot;Helvetica Neue&quot;, sans-serif; font-size: 12px; font-weight: 200;" fill="rgb(50, 49, 63)" stroke="none" stroke-width="1px">4M</text><text x="236.66666666666669" y="0" dx="0em" dy="0.95em" style="text-anchor: middle; visibility: hidden; font-family: &quot;Helvetica Neue&quot;, sans-serif; font-size: 12px; font-weight: 200;" fill="rgb(50, 49, 63)" stroke="none" stroke-width="1px">4.5M</text><text x="260.3333333333333" y="0" dx="0em" dy="0.95em" style="text-anchor: middle; visibility: inherit; font-family: &quot;Helvetica Neue&quot;, sans-serif; font-size: 12px; font-weight: 200;" fill="rgb(50, 49, 63)" stroke="none" stroke-width="1px">5M</text><text x="284" y="0" dx="0em" dy="0.95em" style="text-anchor: middle; visibility: hidden; font-family: &quot;Helvetica Neue&quot;, sans-serif; font-size: 12px; font-weight: 200;" fill="rgb(50, 49, 63)" stroke="none" stroke-width="1px">5.5M</text></g><line x1="0" y1="0" x2="284" y2="0" fill="rgb(0, 0, 0)" stroke="rgb(204, 204, 204)" stroke-width="1px"></line></g></g></g></g></svg>