<svg viewBox="0 0 330 200" xmlns="http://www.w3.org/2000/svg"><g><g><g><g><g><line x1="28" y1="177" x2="23" y2="177" style="visibility: inherit;" fill="rgb(0, 0, 0)" stroke="rgb(204, 204, 204)" stroke-width="1px"></line><line x1="28" y1="164.35714285714286" x2="23" y2="164.35714285714286" style="visibility: inherit;" fill="rgb(0, 0, 0)" stroke="rgb(204, 204, 204)" stroke-width="1px"></line><line x1="28" y1="151.71428571428572" x2="23" y2="151.71428571428572" style="visibility: inherit;" fill="rgb(0, 0, 0)" stroke="rgb(204, 204, 204)" stroke-width="1px"></line><line x1="28" y1="139.07142857142858" x2="23" y2="139.07142857142858" style="visibility: inherit;" fill="rgb(0, 0, 0)" stroke="rgb(204, 204, 204)" stroke-width="1px"></line><line x1="28" y1="126.42857142857143" x2="23" y2="126.42857142857143" style="visibility: inherit;" fill="rgb(0, 0, 0)" stroke="rgb(204, 204, 204)" stroke-width="1px"></line><line x1="28" y1="113.78571428571428" x2="23" y2="113.78571428571428" style="visibility: inherit;" fill="rgb(0, 0, 0)" stroke="rgb(204, 204, 204)" stroke-width="1px"></line><line x1="28" y1="101.14285714285715" x2="23" y2="101.14285714285715" style="visibility: inherit;" fill="rgb(0, 0, 0)" stroke="rgb(204, 204, 204)" stroke-width="1px"></line><line x1="28" y1="88.5" x2="23" y2="88.5" style="visibility: inherit;" fill="rgb(0, 0, 0)" stroke="rgb(204, 204, 204)" stroke-width="1px"></line><line x1="28" y1="75.85714285714286" x2="23" y2="75.85714285714286" style="visibility: inherit;" fill="rgb(0, 0, 0)" stroke="rgb(204, 204, 204)" stroke-width="1px"></line><line x1="28" y1="63.21428571428571" x2="23" y2="63.21428571428571" style="visibility: inherit;" fill="rgb(0, 0, 0)" stroke="rgb(204, 204, 204)" stroke-width="1px"></line><line x1="28" y1="50.57142857142857" x2="23" y2="50.57142857142857" style="visibility: inherit;" fill="rgb(0, 0, 0)" stroke="rgb(204, 204, 204)" stroke-width="1px"></line><line x1="28" y1="37.928571428571445" x2="23" y2="37.928571428571445" style="visibility: inherit;" fill="rgb(0, 0, 0)" stroke="rgb(204, 204, 204)" stroke-width="1px"></line><line x1="28" y1="25.285714285714306" x2="23" y2="25.285714285714306" style="visibility: inherit;" fill="rgb(0, 0, 0)" stroke="rgb(204, 204, 204)" stroke-width="1px"></line><line x1="28" y1="12.642857142857139" x2="23" y2="12.642857142857139" style="visibility: inherit;" fill="rgb(0, 0, 0)" stroke="rgb(204, 204, 204)" stroke-width="1px"></line><line x1="28" y1="0" x2="23" y2="0" style="visibility: inherit;" fill="rgb(0, 0, 0)" stroke="rgb(204, 204, 204)" stroke-width="1px"></line></g><g transform="translate(18, 0)"><text x="0" y="177" dx="0em" dy="0.3em" style="text-anchor: end; visibility: hidden; font-family: &quot;Helvetica Neue&quot;, sans-serif; font-size: 12px; font-weight: 200;" fill="rgb(50, 49, 63)" stroke="none" stroke-width="1px">-2</text><text x="0" y="164.35714285714286" dx="0em" dy="0.3em" style="text-anchor: end; visibility: inherit; font-family: &quot;Helvetica Neue&quot;, sans-serif; font-size: 12px; font-weight: 200;" fill="rgb(50, 49, 63)" stroke="none" stroke-width="1px">-1</text><text x="0" y="151.71428571428572" dx="0em" dy="0.3em" style="text-anchor: end; visibility: hidden; font-family: &quot;Helvetica Neue&quot;, sans-serif; font-size: 12px; font-weight: 200;" fill="rgb(50, 49, 63)" stroke="none" stroke-width="1px">0</text><text x="0" y="139.07142857142858" dx="0em" dy="0.3em" style="text-anchor: end; visibility: inherit; font-family: &quot;Helvetica Neue&quot;, sans-serif; font-size: 12px; font-weight: 200;" fill="rgb(50, 49, 63)" stroke="none" stroke-width="1px">1</text><text x="0" y="126.42857142857143" dx="0em" dy="0.3em" style="text-anchor: end; visibility: hidden; font-family: &quot;Helvetica Neue&quot;, sans-serif; font-size: 12px; font-weight: 200;" fill="rgb(50, 49, 63)" stroke="none" stroke-width="1px">2</text><text x="0" y="113.78571428571428" dx="0em" dy="0.3em" style="text-anchor: end; visibility: inherit; font-family: &quot;Helvetica Neue&quot;, sans-serif; font-size: 12px; font-weight: 200;" fill="rgb(50, 49, 63)" stroke="none" stroke-width="1px">3</text><text x="0" y="101.14285714285715" dx="0em" dy="0.3em" style="text-anchor: end; visibility: hidden; font-family: &quot;Helvetica Neue&quot;, sans-serif; font-size: 12px; font-weight: 200;" fill="rgb(50, 49, 63)" stroke="none" stroke-width="1px">4</text><text x="0" y="88.5" dx="0em" dy="0.3em" style="text-anchor: end; visibility: inherit; font-family: &quot;Helvetica Neue&quot;, sans-serif; font-size: 12px; font-weight: 200;" fill="rgb(50, 49, 63)" stroke="none" stroke-width="1px">5</text><text x="0" y="75.85714285714286" dx="0em" dy="0.3em" style="text-anchor: end; visibility: hidden; font-family: &quot;Helvetica Neue&quot;, sans-serif; font-size: 12px; font-weight: 200;" fill="rgb(50, 49, 63)" stroke="none" stroke-width="1px">6</text><text x="0" y="63.21428571428571" dx="0em" dy="0.3em" style="text-anchor: end; visibility: inherit; font-family: &quot;Helvetica Neue&quot;, sans-serif; font-size: 12px; font-weight: 200;" fill="rgb(50, 49, 63)" stroke="none" stroke-width="1px">7</text><text x="0" y="50.57142857142857" dx="0em" dy="0.3em" style="text-anchor: end; visibility: hidden; font-family: &quot;Helvetica Neue&quot;, sans-serif; font-size: 12px; font-weight: 200;" fill="rgb(50, 49, 63)" stroke="none" stroke-width="1px">8</text><text x="0" y="37.928571428571445" dx="0em" dy="0.3em" style="text-anchor: end; visibility: inherit; font-family: &quot;Helvetica Neue&quot;, sans-serif; font-size: 12px; font-weight: 200;" fill="rgb(50, 49, 63)" stroke="none" stroke-width="1px">9</text><text x="0" y="25.285714285714306" dx="0em" dy="0.3em" style="text-anchor: end; visibility: hidden; font-family: &quot;Helvetica Neue&quot;, sans-serif; font-size: 12px; font-weight: 200;" fill="rgb(50, 49, 63)" stroke="none" stroke-width="1px">10</text><text x="0" y="12.642857142857139" dx="0em" dy="0.3em" style="text-anchor: end; visibility: inherit; font-family: &quot;Helvetica Neue&quot;, sans-serif; font-size: 12px; font-weight: 200;" fill="rgb(50, 49, 63)" stroke="none" stroke-width="1px">11</text><text x="0" y="0" dx="0em" dy="0.3em" style="text-anchor: end; visibility: hidden; font-family: &quot;Helvetica Neue&quot;, sans-serif; font-size: 12px; font-weight: 200;" fill="rgb(50, 49, 63)" stroke="none" stroke-width="1px">12</text></g><line x1="28" y1="0" x2="28" y2="177" fill="rgb(0, 0, 0)" stroke="rgb(204, 204, 204)" stroke-width="1px"></line></g></g><g transform="translate(28, 0)" clip-path="url(#clip_0)"><clipPath id="clip_0"><rect width="302" height="177"></rect></clipPath><g><g><g><line x1="0" y1="0" x2="0" y2="177" fill="rgb(0, 0, 0)" stroke="rgb(60, 60, 60)" stroke-width="1px" opacity="0.25"></line><line x1="25.166666666666664" y1="0" x2="25.166666666666664" y2="177" fill="rgb(0, 0, 0)" stroke="rgb(60, 60, 60)" stroke-width="1px" opacity="0.25"></line><line x1="50.33333333333333" y1="0" x2="50.33333333333333" y2="177" fill="rgb(0, 0, 0)" stroke="rgb(60, 60, 60)" stroke-width="1px" opacity="0.25"></line><line x1="75.5" y1="0" x2="75.5" y2="177" fill="rgb(0, 0, 0)" stroke="rgb(60, 60, 60)" stroke-width="1px" opacity="0.25"></line><line x1="100.66666666666666" y1="0" x2="100.66666666666666" y2="177" fill="rgb(0, 0, 0)" stroke="rgb(60, 60, 60)" stroke-width="1px" opacity="0.25"></line><line x1="125.83333333333334" y1="0" x2="125.83333333333334" y2="177" fill="rgb(0, 0, 0)" stroke="rgb(60, 60, 60)" stroke-width="1px" opacity="0.25"></line><line x1="151" y1="0" x2="151" y2="177" fill="rgb(0, 0, 0)" stroke="rgb(60, 60, 60)" stroke-width="1px" opacity="0.25"></line><line x1="176.16666666666669" y1="0" x2="176.16666666666669" y2="177" fill="rgb(0, 0, 0)" stroke="rgb(60, 60, 60)" stroke-width="1px" opacity="0.25"></line><line x1="201.33333333333331" y1="0" x2="201.33333333333331" y2="177" fill="rgb(0, 0, 0)" stroke="rgb(60, 60, 60)" stroke-width="1px" opacity="0.25"></line><line x1="226.5" y1="0" x2="226.5" y2="177" fill="rgb(0, 0, 0)" stroke="rgb(60, 60, 60)" stroke-width="1px" opacity="0.25"></line><line x1="251.66666666666669" y1="0" x2="251.66666666666669" y2="177" fill="rgb(0, 0, 0)" stroke="rgb(60, 60, 60)" stroke-width="1px" opacity="0.25"></line><line x1="276.8333333333333" y1="0" x2="276.8333333333333" y2="177" fill="rgb(0, 0, 0)" stroke="rgb(60, 60, 60)" stroke-width="1px" opacity="0.25"></line><line x1="302" y1="0" x2="302" y2="177" fill="rgb(0, 0, 0)" stroke="rgb(60, 60, 60)" stroke-width="1px" opacity="0.25"></line></g><g><line x1="0" y1="177" x2="302" y2="177" fill="rgb(0, 0, 0)" stroke="rgb(60, 60, 60)" stroke-width="1px" opacity="0.25"></line><line x1="0" y1="164.35714285714286" x2="302" y2="164.35714285714286" fill="rgb(0, 0, 0)" stroke="rgb(60, 60, 60)" stroke-width="1px" opacity="0.25"></line><line x1="0" y1="151.71428571428572" x2="302" y2="151.71428571428572" fill="rgb(0, 0, 0)" stroke="rgb(60, 60, 60)" stroke-width="1px" opacity="0.25"></line><line x1="0" y1="139.07142857142858" x2="302" y2="139.07142857142858" fill="rgb(0, 0, 0)" stroke="rgb(60, 60, 60)" stroke-width="1px" opacity="0.25"></line><line x1="0" y1="126.42857142857143" x2="302" y2="126.42857142857143" fill="rgb(0, 0, 0)" stroke="rgb(60, 60, 60)" stroke-width="1px" opacity="0.25"></line><line x1="0" y1="113.78571428571428" x2="302" y2="113.78571428571428" fill="rgb(0, 0, 0)" stroke="rgb(60, 60, 60)" stroke-width="1px" opacity="0.25"></line><line x1="0" y1="101.14285714285715" x2="302" y2="101.14285714285715" fill="rgb(0, 0, 0)" stroke="rgb(60, 60, 60)" stroke-width="1px" opacity="0.25"></line><line x1="0" y1="88.5" x2="302" y2="88.5" fill="rgb(0, 0, 0)" stroke="rgb(60, 60, 60)" stroke-width="1px" opacity="0.25"></line><line x1="0" y1="75.85714285714286" x2="302" y2="75.85714285714286" fill="rgb(0, 0, 0)" stroke="rgb(60, 60, 60)" stroke-width="1px" opacity="0.25"></line><line x1="0" y1="63.21428571428571" x2="302" y2="63.21428571428571" fill="rgb(0, 0, 0)" stroke="rgb(60, 60, 60)" stroke-width="1px" opacity="0.25"></line><line x1="0" y1="50.57142857142857" x2="302" y2="50.57142857142857" fill="rgb(0, 0, 0)" stroke="rgb(60, 60, 60)" stroke-width="1px" opacity="0.25"></line><line x1="0" y1="37.928571428571445" x2="302" y2="37.928571428571445" fill="rgb(0, 0, 0)" stroke="rgb(60, 60, 60)" stroke-width="1px" opacity="0.25"></line><line x1="0" y1="25.285714285714306" x2="302" y2="25.285714285714306" fill="rgb(0, 0, 0)" stroke="rgb(60, 60, 60)" stroke-width="1px" opacity="0.25"></line><line x1="0" y1="12.642857142857139" x2="302" y2="12.642857142857139" fill="rgb(0, 0, 0)" stroke="rgb(60, 60, 60)" stroke-width="1px" opacity="0.25"></line><line x1="0" y1="0" x2="302" y2="0" fill="rgb(0, 0, 0)" stroke="rgb(60, 60, 60)" stroke-width="1px" opacity="0.25"></line></g></g></g><g><g><line x1="0" y1="151.71428571428572" x2="302" y2="151.71428571428572" fill="rgb(0, 0, 0)" stroke="rgb(153, 153, 153)" stroke-width="1.5px"></line></g></g><g><g><line x1="25.166666666666664" y1="0" x2="25.166666666666664" y2="177" fill="rgb(0, 0, 0)" stroke="rgb(153, 153, 153)" stroke-width="1.5px"></line></g></g><g><g><g><g><g><path stroke="rgb(255, 112, 67)" stroke-width="2px" d="M25.394727,127.80491827215468L25.607989333333336,127.92716899125742L25.807611333333334,127.40571513071323L26.254521,126.15546682840062L26.695642333333332,122.79987823898074L27.139582333333333,118.74318676130478L31.400903,88.61153232833234L31.402614333333332,88.78119356365843L31.624081,33.264014683630364L32.078943333333335,76.02374826875315L32.29190366666666,60.960549038252594L32.50677666666667,81.77945444532321L32.965716,51.28230294238817L33.42314533333333,44.52496292993803L33.54439833333333,32.71920414347477L33.79158533333333,65.86791722884222L33.90594266666667,91.8044746527499L34.019142333333335,60.695973415464636L34.26904733333333,82.93281197895368L34.37811966666666,101.68788465737592L34.62379666666667,82.50032113785812L34.73417766666667,94.61540433033083L34.979905,108.52904512812022L35.087668666666666,87.31009041654112L35.19971066666667,96.18302916386595L35.44719966666666,66.36301731304333L35.559795333333334,68.69541065442928L35.67143466666667,47.48083246773837L35.781564,83.35216464058803L36.028449,91.30933731871929L36.27473,101.12503954785845L39.320551,94.9888113772698L39.795748,106.3526468279032L40.267673333333335,50.70297187698155L40.48858633333333,78.52068320041737L40.965041666666664,39.3118934519469L56.011587666666664,43.82007457571257L56.23260133333333,58.779446634333354L56.470074,67.44576733328637L56.68942666666667,58.514225862656204L57.157425999999994,76.33615173306654L57.37677866666667,77.94627272549305L59.685417666666666,99.12463488813688L68.09309766666667,93.13835896852427L68.30716533333333,70.277760212029L84.00542733333333,69.36013289084892L107.55377666666666,84.09494603927286L107.767039,49.09377711334058L107.99993133333334,83.99928047414883L108.45630366666667,23.959370258752813L108.66740166666666,63.840891797517074L108.880966,90.91066573925318L109.33718733333333,79.17735845430543L109.79053966666666,76.04477675357369L110.00410400000001,65.12135702694381L110.216863,54.05890567374563L110.42786033333333,48.17280462250113L110.64036766666668,35.740221834462716L110.85297566666667,73.94126017017328L111.30441533333334,37.65408790504759L111.51616766666666,63.824341374910986L111.96962066666667,96.9288884158535L112.42226833333332,45.58867115768598L112.63366833333333,93.18633120522495L113.08591333333334,71.75754458766109L113.297867,59.536701963074066L119.09480733333334,50.85647181647286L124.12466766666667,93.03429887878428L124.58400966666666,84.1155468430264L124.798329,67.11405939952715L125.01300066666666,59.16401518926257L125.47214133333333,40.30050804340041L125.685756,64.71084074059382L125.90007533333333,57.670965208483395L126.359518,70.94991026574692L126.57479366666668,54.946919541192784L127.03750799999999,45.61077237407724L127.25620633333334,75.0249482258337L127.72239366666666,53.24051791797261L127.941847,87.75183675910284L128.160042,34.75169939144362L128.62497100000002,33.53612451504398L128.843921,63.90171421177115L129.30995733333333,55.69546402907349L129.774685,72.97453759464699L130.24112399999999,64.97406493874568L130.45936933333334,48.422607141599L130.677212,42.16250033167506L131.14103366666666,51.31730501269104L131.357165,73.03476852129576L131.81826866666665,61.80339696361743L132.279926,42.449135952061084L132.49605733333334,22.09183030714388L132.70911833333335,80.81149691659772L133.16992000000002,30.88304628375326L133.63026866666667,2.6890541379250408L137.79001666666667,74.03385950068362L138.23964433333333,45.72680049876868L138.449484,71.22658881707649L155.48193166666667,84.72946539008899L155.94806866666667,60.802884697149835L156.40645433333333,43.00085475696309L156.627317,39.09707851826428L156.847324,62.85158614939756L157.06526733333334,40.76243258726723L157.53487733333336,62.04420073733803L157.997944,54.70189027014361L158.2140753333333,30.280131358577307L158.43166633333334,38.8687736223863L158.89800466666668,54.30676764926241L159.36318533333335,77.94323760451812L159.82484266666665,59.86369887641821L160.04082300000002,36.48431788711031L160.50177566666667,32.40193877190154L160.71574266666667,61.96756651755585L161.17458133333332,60.24302093959467L161.38905166666666,59.75993508630975L161.848444,27.045599277733118L162.06336733333333,63.016099546315715L162.2779383333333,59.22734578429272L162.73627366666668,46.76686081639019L162.94973733333333,75.96966558912244L163.410086,59.63180350869479L163.62460666666666,70.60366858417876L164.082791,70.80208937939585L164.29706000000002,47.738465799102244L164.75604966666666,80.54874112091696L165.21463666666668,44.69558677089904L165.43157333333332,88.32139606436168L165.64508733333332,74.15126807650437L165.859608,75.98861851039933L166.31960433333333,85.25418190713663L172.09414633333336,68.41445814703418L179.05187400000003,58.341153542101935L179.50708866666668,53.20575167709492L179.71718,56.34484801507912L179.93059333333332,47.31156271481083L180.14491266666667,6.1417214525066015L180.60153666666668,-6.150582458542061L181.05745599999997,5.387146590345054L181.27806700000002,49.79228137762L181.738013,47.591822121731155L181.95424500000001,33.511421911230656L182.17193666666665,70.56182121121783L182.39023233333333,66.40419302942921L182.85506066666665,57.97048150742913L183.318832,71.52261781075532L183.78290533333333,61.79135373710258L183.999691,57.50974076112347L184.21753366666664,61.18241817363216L184.435024,83.7432676029555L184.65211166666668,63.47528967217917L185.115883,64.39638672511158L185.33276933333332,40.26772862021346L185.54970600000001,29.002151578277818L186.01257133333334,45.95642207864043L186.475034,53.537682506237275L186.69302766666667,64.42571286786702L187.1578056666667,77.00242738573944L187.37308133333332,69.6118737017147L187.59132666666665,67.77065042398347L187.8090686666667,76.51041436334252L188.02706233333333,35.048858134266794L188.48882033333334,48.89090979791669L188.945696,51.56793362683962L189.16102199999997,43.405955133098644L189.37579433333332,79.04794224740175L189.83342499999998,58.2055555663092L190.28783433333334,63.7954197921359L190.74420666666666,38.53140877667295L191.201032,18.99055780531782L191.41716333333335,17.46618349115272L191.63334500000002,28.019023944762296L192.09616,38.68333818202413L192.55741466666666,72.28527490177106L193.02224299999997,43.01163756222704L193.48128300000002,53.09086126104057L195.65246166666665,58.08341336960184L196.11210566666665,60.68640292317555L196.32833766666667,76.56251260735868L196.79215933333333,43.43794792116543L197.25542733333333,57.57165180758696L197.471911,60.217074799648344L197.93376966666668,72.20607233342824L198.14974999999998,65.57391974695493L198.364774,44.19907139063912L198.82622999999998,36.08767044397726L199.28803833333333,63.60358606487925L199.75065199999997,71.17338247775662L199.96648133333335,30.693548396758672L200.18321666666665,59.39146185723341L200.40050566666665,56.69857804130167L200.861257,46.72355235740858L201.07764,72.25681555882552L201.53748533333334,64.81944308993586L201.7506973333333,47.54672142304304L201.96647633333333,24.38058308506845L202.42561700000002,69.1401404378365L202.642151,25.985126662748684L203.10365733333333,59.42016740771L203.562345,45.68387183065727L203.7799863333333,37.037724978802345L203.996923,11.308302390637323L204.21320533333332,55.70957224977269L204.67456066666665,53.60066441207421L204.89124566666666,54.17781977143491L205.35083933333334,43.017957349778044L205.56500766666667,28.609184424551927L205.77882366666668,58.293512675466644L206.233082,43.54098251306149L206.68663566666666,49.34515633663476L207.14114566666666,67.56705966395876L207.35179066666666,46.32373266323896L207.5641973333333,26.139403480847392L207.77751,46.21045073495483L208.232775,63.510011000276734L208.44513133333334,48.15167599132931L208.65597766666667,41.50005862596768L209.10958166666666,63.52170918851333L209.32108233333332,31.719743867776685L209.53132466666668,43.86579217557136L212.87104200000002,37.27454325516675L213.33169266666664,37.12361461294958L213.794256,60.976432704191566L214.01114233333334,62.346043258433056L214.472699,23.225538302376208L214.68747133333332,55.210042350529264L214.9037536666667,48.40485607516791L215.35932066666666,43.027462485248606L215.57213,32.00923842375215L221.95042033333334,10.898704534161851L222.171132,53.41620793094256L232.58323633333336,55.12876106113029L233.04746066666667,25.440506741887333L233.51082933333336,23.87368635284426L233.73048400000002,47.37998066924405L234.202812,48.151165633348285L234.4245303333333,46.07227279666674L234.645544,27.349761090614464L235.11666400000001,42.28489112545512L235.338936,43.3028517164266L254.41521899999998,50.83785268563177L254.63381666666666,59.00124715018775L255.10720166666664,29.37285297281258L255.32927233333334,18.47518956595377L255.55043700000002,21.40203443684385L255.77099766666666,25.491010947176704L255.99337033333333,29.4385487227037L256.216045,27.77083583657233L256.44038066666667,36.77945901923724L256.91522533333335,49.49337802284967L257.13764833333335,53.040064004854216L257.35916533333335,19.130775682102893L257.580179,49.568029839431205L258.049487,39.514656575753946L258.5187446666667,18.234894450400816L258.7390536666667,41.281901684778234L258.95669499999997,47.61331625436566L259.17604766666665,53.673326384623905L276.0216076666667,63.21952372443607L276.22993733333334,25.186404520792735L276.442193,40.080442016896654L276.6535426666667,45.174284246431625L276.8333333333333,36.742885990525224" style="fill: none;" fill="none"></path></g></g></g></g><g opacity="0.2"><g><g><g><path stroke="rgb(255, 112, 67)" stroke-width="2px" d="M25.394727,127.80491827215468L25.607989333333336,127.93890506029129L25.807611333333334,127.35084984132222L26.254521,126.02281456334251L26.695642333333332,122.44356281416756L27.139582333333333,118.31239117894853L31.400903,85.41171312332153L31.402614333333332,88.79921068464006L31.624081,27.368385110582608L32.078943333333335,80.5646049295153L32.29190366666666,59.36091726166862L32.50677666666667,83.99031165667942L32.965716,48.04366738455636L33.42314533333333,43.807369300297324L33.54439833333333,31.465495245797314L33.79158533333333,69.3881345476423L33.90594266666667,94.55879933493479L34.019142333333335,57.39241576194763L34.26904733333333,85.29424616268703L34.37811966666666,103.67957379136766L34.62379666666667,80.46270377295357L34.73417766666667,95.90196183749607L34.979905,110.00659990310669L35.087668666666666,85.0567500931876L35.19971066666667,97.12528814588273L35.44719966666666,63.19629039083209L35.559795333333334,68.94309844289508L35.67143466666667,45.227956908089794L35.781564,87.16150965009417L36.028449,92.15434680666243L36.27473,102.16741500582015L39.320551,94.3371765272958L39.795748,107.55942581381117L40.267673333333335,44.79327188219341L40.48858633333333,81.47477643830436L40.965041666666664,35.148128168923535L56.011587666666664,44.29881947381156L56.23260133333333,60.368052516664775L56.470074,68.36608457565308L56.68942666666667,57.56574358258929L57.157425999999994,78.22874563080924L57.37677866666667,78.11725902557373L59.685417666666666,101.37366449832916L68.09309766666667,92.50264825139726L68.30716533333333,67.85008600779942L84.00542733333333,69.26268574169704L107.55377666666666,85.65970495768956L107.767039,45.37683882032124L107.99993133333334,87.70605959211078L108.45630366666667,17.583450589861172L108.66740166666666,68.07609762464251L108.880966,93.78533199855259L109.33718733333333,77.93134352139064L109.79053966666666,75.71211321013314L110.00410400000001,63.96134785243443L110.216863,52.88413207871574L110.42786033333333,47.54773194449288L110.64036766666668,34.41994755608695L110.85297566666667,77.99800760405404L111.30441533333334,33.80058288574219L111.51616766666666,66.60348333631244L111.96962066666667,100.44441553524562L112.42226833333332,40.13661268779208L112.63366833333333,98.24094997133528L113.08591333333334,69.48192123004368L113.297867,58.23891336577279L119.09480733333334,49.9346774646214L124.12466766666667,97.51336015973772L124.58400966666666,83.1684227330344L124.798329,65.30859170641217L125.01300066666666,58.31976270675659L125.47214133333333,38.297303744724815L125.685756,67.30308846064976L125.90007533333333,56.923367806843345L126.359518,72.36006372315543L126.57479366666668,53.24748689787728L127.03750799999999,44.61932311739238L127.25620633333334,78.14857751982552L127.72239366666666,50.92712708881923L127.941847,91.41675557409013L128.160042,29.123366219656788L128.62497100000002,33.40703691755024L128.843921,67.12637860434396L129.30995733333333,54.824003832680845L129.774685,74.80948346001762L130.24112399999999,64.12445722307477L130.45936933333334,46.66493020738872L130.677212,41.49771022796631L131.14103366666666,52.289496660232544L131.357165,75.34104783194405L131.81826866666665,60.610684939793174L132.279926,40.393816198621494L132.49605733333334,19.92999253954204L132.70911833333335,87.04721372468131L133.16992000000002,25.580909933362705L133.63026866666667,-0.30499812534876014L137.79001666666667,81.61029900823321L138.23964433333333,42.72074113573345L138.449484,73.93453093937465L155.48193166666667,86.16339918545314L155.94806866666667,58.26200887135097L156.40645433333333,41.110373701368076L156.627317,38.68251820972989L156.847324,65.37418872969491L157.06526733333334,38.41668176651001L157.53487733333336,64.30421151433673L157.997944,53.922175884246826L158.2140753333333,27.686670235225137L158.43166633333334,39.78084182739258L158.89800466666668,55.94620064326695L159.36318533333335,80.453305210386L159.82484266666665,57.94374786104474L160.04082300000002,34.001551764352L160.50177566666667,31.968411786215626L160.71574266666667,65.10727919851031L161.17458133333332,60.05988335609436L161.38905166666666,59.708633933748516L161.848444,23.571510519300205L162.06336733333333,66.83597568103245L162.2779383333333,58.8250002520425L162.73627366666668,45.443623474666055L162.94973733333333,79.07084839684623L163.410086,57.89680930546352L163.62460666666666,71.76882239750454L164.082791,70.82316061428615L164.29706000000002,45.28923143659321L164.75604966666666,84.03301814624241L165.21463666666668,40.8881721496582L165.43157333333332,92.95422536986216L165.64508733333332,72.64647572381156L165.859608,76.18373537063599L166.31960433333333,86.23813554218837L172.09414633333336,66.62616889817374L179.05187400000003,57.271422079631265L179.50708866666668,52.660399266651694L179.71718,56.67820337840489L179.93059333333332,46.35227578026908L180.14491266666667,1.7697029113769531L180.60153666666668,-7.4559598650251075L181.05745599999997,6.6123921530587495L181.27806700000002,54.50787091255188L181.738013,47.358145032610196L181.95424500000001,32.01615817206246L182.17193666666665,74.49637688909259L182.39023233333333,65.96267499242511L182.85506066666665,57.07486612456185L183.318832,72.96178272792271L183.78290533333333,60.757945162909365L183.999691,57.055056197302676L184.21753366666664,61.57243701389858L184.435024,86.1391100202288L184.65211166666668,61.322938033512656L185.115883,64.49420234135219L185.33276933333332,37.70539324624198L185.54970600000001,27.80580711364746L186.01257133333334,47.75687558310372L186.475034,54.34277210916791L186.69302766666667,65.5819638797215L187.1578056666667,78.33800768852234L187.37308133333332,68.82703614234924L187.59132666666665,67.5751222882952L187.8090686666667,77.43853088787624L188.02706233333333,30.64586101259502L188.48882033333334,50.360862186976846L188.945696,51.852219343185425L189.16102199999997,42.53919635500225L189.37579433333332,82.83293202945164L189.83342499999998,55.99220476831708L190.28783433333334,64.38903369222369L190.74420666666666,35.84850495202201L191.201032,16.915423188890713L191.41716333333335,17.30430303301128L191.63334500000002,29.13967956815449L192.09616,39.815831729343955L192.55741466666666,75.85362216404506L193.02224299999997,39.90293271200997L193.48128300000002,54.16122129985264L195.65246166666665,58.613595894404824L196.11210566666665,60.96282659258161L196.32833766666667,78.24847115789142L196.79215933333333,39.920295034136075L197.25542733333333,59.07257611410958L197.471911,60.4980046749115L197.93376966666668,73.47924021312168L198.14974999999998,64.86962035724095L198.364774,41.929175989968456L198.82622999999998,35.22628273282734L199.28803833333333,66.5256302016122L199.75065199999997,71.97725466319493L199.96648133333335,26.39480495452881L200.18321666666665,62.43902788843427L200.40050566666665,56.41260807854789L200.861257,45.664257594517295L201.07764,74.96831253596714L201.53748533333334,64.02963362421308L201.7506973333333,45.71245009558541L201.96647633333333,21.920462199619834L202.42561700000002,73.89336776733398L202.642151,21.40229334150044L203.10365733333333,62.97079120363507L203.562345,44.22515017645699L203.7799863333333,36.11955009187969L203.996923,8.575974328177296L204.21320533333332,60.42475134985787L204.67456066666665,53.37670959745135L204.89124566666666,54.23911060605731L205.35083933333334,41.832839216504794L205.56500766666667,27.079049246651806L205.77882366666668,61.44583071981158L206.233082,41.97434214183261L206.68663566666666,49.96152877807617L207.14114566666666,69.50212904385158L207.35179066666666,44.06780413218905L207.5641973333333,23.99593489510673L207.77751,48.34188938140869L208.232775,65.34713244438171L208.44513133333334,46.52070236206055L208.65597766666667,40.793692180088584L209.10958166666666,65.86029154913766L209.32108233333332,28.342544010707314L209.53132466666668,45.15563801356723L212.87104200000002,36.57458761760165L213.33169266666664,37.10758679253715L213.794256,63.50947533335004L214.01114233333334,62.49148862702506L214.472699,19.07114839553833L214.68747133333332,58.60662685121808L214.9037536666667,47.68218142645699L215.35932066666666,42.456411838531494L215.57213,30.83916153226582L221.95042033333334,8.656877926417764L222.171132,57.931341035025454L232.58323633333336,55.31062511035374L233.04746066666667,22.287771769932334L233.51082933333336,23.707298346928184L233.73048400000002,49.87622431346348L234.202812,48.23306138174874L234.4245303333333,45.851505415780224L234.645544,25.36152975899833L235.11666400000001,43.870922633579795L235.338936,43.410953726087314L254.41521899999998,51.638029779706685L254.63381666666666,59.868156296866275L255.10720166666664,26.22647483008248L255.32927233333334,17.31791557584492L255.55043700000002,21.712849821363193L255.77099766666666,25.925238541194375L255.99337033333333,29.85775627408711L256.216045,27.593733583177823L256.44038066666667,37.73612696783883L256.91522533333335,50.8435287134988L257.13764833333335,53.41670322418213L257.35916533333335,15.529789311545215L257.580179,52.80030461720058L258.049487,38.44704171589444L258.5187446666667,15.975096702575684L258.7390536666667,43.729371479579385L258.95669499999997,48.28567886352539L259.17604766666665,54.31686728341239L276.0216076666667,64.23327919415065L276.22993733333334,21.147489207131542L276.442193,41.66210971559795L276.6535426666667,45.71522324425834L276.8333333333333,35.84751626423429" style="fill: none;" fill="none"></path></g></g></g></g></g></g><g transform="translate(28, 177)" clip-path="url(#clip_1)"><clipPath id="clip_1"><rect width="302" height="23"></rect></clipPath><g><g><line x1="0" y1="0" x2="0" y2="5" style="visibility: inherit;" fill="rgb(0, 0, 0)" stroke="rgb(204, 204, 204)" stroke-width="1px"></line><line x1="25.166666666666664" y1="0" x2="25.166666666666664" y2="5" style="visibility: inherit;" fill="rgb(0, 0, 0)" stroke="rgb(204, 204, 204)" stroke-width="1px"></line><line x1="50.33333333333333" y1="0" x2="50.33333333333333" y2="5" style="visibility: inherit;" fill="rgb(0, 0, 0)" stroke="rgb(204, 204, 204)" stroke-width="1px"></line><line x1="75.5" y1="0" x2="75.5" y2="5" style="visibility: inherit;" fill="rgb(0, 0, 0)" stroke="rgb(204, 204, 204)" stroke-width="1px"></line><line x1="100.66666666666666" y1="0" x2="100.66666666666666" y2="5" style="visibility: inherit;" fill="rgb(0, 0, 0)" stroke="rgb(204, 204, 204)" stroke-width="1px"></line><line x1="125.83333333333334" y1="0" x2="125.83333333333334" y2="5" style="visibility: inherit;" fill="rgb(0, 0, 0)" stroke="rgb(204, 204, 204)" stroke-width="1px"></line><line x1="151" y1="0" x2="151" y2="5" style="visibility: inherit;" fill="rgb(0, 0, 0)" stroke="rgb(204, 204, 204)" stroke-width="1px"></line><line x1="176.16666666666669" y1="0" x2="176.16666666666669" y2="5" style="visibility: inherit;" fill="rgb(0, 0, 0)" stroke="rgb(204, 204, 204)" stroke-width="1px"></line><line x1="201.33333333333331" y1="0" x2="201.33333333333331" y2="5" style="visibility: inherit;" fill="rgb(0, 0, 0)" stroke="rgb(204, 204, 204)" stroke-width="1px"></line><line x1="226.5" y1="0" x2="226.5" y2="5" style="visibility: inherit;" fill="rgb(0, 0, 0)" stroke="rgb(204, 204, 204)" stroke-width="1px"></line><line x1="251.66666666666669" y1="0" x2="251.66666666666669" y2="5" style="visibility: inherit;" fill="rgb(0, 0, 0)" stroke="rgb(204, 204, 204)" stroke-width="1px"></line><line x1="276.8333333333333" y1="0" x2="276.8333333333333" y2="5" style="visibility: inherit;" fill="rgb(0, 0, 0)" stroke="rgb(204, 204, 204)" stroke-width="1px"></line><line x1="302" y1="0" x2="302" y2="5" style="visibility: inherit;" fill="rgb(0, 0, 0)" stroke="rgb(204, 204, 204)" stroke-width="1px"></line></g><g transform="translate(0, 8)"><text x="0" y="0" dx="0em" dy="0.95em" style="text-anchor: middle; visibility: hidden; font-family: &quot;Helvetica Neue&quot;, sans-serif; font-size: 12px; font-weight: 200;" fill="rgb(50, 49, 63)" stroke="none" stroke-width="1px">-500k</text><text x="25.166666666666664" y="0" dx="0em" dy="0.95em" style="text-anchor: middle; visibility: inherit; font-family: &quot;Helvetica Neue&quot;, sans-serif; font-size: 12px; font-weight: 200;" fill="rgb(50, 49, 63)" stroke="none" stroke-width="1px">0</text><text x="50.33333333333333" y="0" dx="0em" dy="0.95em" style="text-anchor: middle; visibility: hidden; font-family: &quot;Helvetica Neue&quot;, sans-serif; font-size: 12px; font-weight: 200;" fill="rgb(50, 49, 63)" stroke="none" stroke-width="1px">500k</text><text x="75.5" y="0" dx="0em" dy="0.95em" style="text-anchor: middle; visibility: inherit; font-family: &quot;Helvetica Neue&quot;, sans-serif; font-size: 12px; font-weight: 200;" fill="rgb(50, 49, 63)" stroke="none" stroke-width="1px">1M</text><text x="100.66666666666666" y="0" dx="0em" dy="0.95em" style="text-anchor: middle; visibility: hidden; font-family: &quot;Helvetica Neue&quot;, sans-serif; font-size: 12px; font-weight: 200;" fill="rgb(50, 49, 63)" stroke="none" stroke-width="1px">1.5M</text><text x="125.83333333333334" y="0" dx="0em" dy="0.95em" style="text-anchor: middle; visibility: inherit; font-family: &quot;Helvetica Neue&quot;, sans-serif; font-size: 12px; font-weight: 200;" fill="rgb(50, 49, 63)" stroke="none" stroke-width="1px">2M</text><text x="151" y="0" dx="0em" dy="0.95em" style="text-anchor: middle; visibility: hidden; font-family: &quot;Helvetica Neue&quot;, sans-serif; font-size: 12px; font-weight: 200;" fill="rgb(50, 49, 63)" stroke="none" stroke-width="1px">2.5M</text><text x="176.16666666666669" y="0" dx="0em" dy="0.95em" style="text-anchor: middle; visibility: inherit; font-family: &quot;Helvetica Neue&quot;, sans-serif; font-size: 12px; font-weight: 200;" fill="rgb(50, 49, 63)" stroke="none" stroke-width="1px">3M</text><text x="201.33333333333331" y="0" dx="0em" dy="0.95em" style="text-anchor: middle; visibility: hidden; font-family: &quot;Helvetica Neue&quot;, sans-serif; font-size: 12px; font-weight: 200;" fill="rgb(50, 49, 63)" stroke="none" stroke-width="1px">3.5M</text><text x="226.5" y="0" dx="0em" dy="0.95em" style="text-anchor: middle; visibility: inherit; font-family: &quot;Helvetica Neue&quot;, sans-serif; font-size: 12px; font-weight: 200;" fill="rgb(50, 49, 63)" stroke="none" stroke-width="1px">4M</text><text x="251.66666666666669" y="0" dx="0em" dy="0.95em" style="text-anchor: middle; visibility: hidden; font-family: &quot;Helvetica Neue&quot;, sans-serif; font-size: 12px; font-weight: 200;" fill="rgb(50, 49, 63)" stroke="none" stroke-width="1px">4.5M</text><text x="276.8333333333333" y="0" dx="0em" dy="0.95em" style="text-anchor: middle; visibility: inherit; font-family: &quot;Helvetica Neue&quot;, sans-serif; font-size: 12px; font-weight: 200;" fill="rgb(50, 49, 63)" stroke="none" stroke-width="1px">5M</text><text x="302" y="0" dx="0em" dy="0.95em" style="text-anchor: middle; visibility: hidden; font-family: &quot;Helvetica Neue&quot;, sans-serif; font-size: 12px; font-weight: 200;" fill="rgb(50, 49, 63)" stroke="none" stroke-width="1px">5.5M</text></g><line x1="0" y1="0" x2="302" y2="0" fill="rgb(0, 0, 0)" stroke="rgb(204, 204, 204)" stroke-width="1px"></line></g></g></g></g></svg>