<svg viewBox="0 0 330 200" xmlns="http://www.w3.org/2000/svg"><g><g><g><g><g><line x1="28" y1="177" x2="23" y2="177" style="visibility: inherit;" fill="rgb(0, 0, 0)" stroke="rgb(204, 204, 204)" stroke-width="1px"></line><line x1="28" y1="154.875" x2="23" y2="154.875" style="visibility: inherit;" fill="rgb(0, 0, 0)" stroke="rgb(204, 204, 204)" stroke-width="1px"></line><line x1="28" y1="132.75" x2="23" y2="132.75" style="visibility: inherit;" fill="rgb(0, 0, 0)" stroke="rgb(204, 204, 204)" stroke-width="1px"></line><line x1="28" y1="110.625" x2="23" y2="110.625" style="visibility: inherit;" fill="rgb(0, 0, 0)" stroke="rgb(204, 204, 204)" stroke-width="1px"></line><line x1="28" y1="88.5" x2="23" y2="88.5" style="visibility: inherit;" fill="rgb(0, 0, 0)" stroke="rgb(204, 204, 204)" stroke-width="1px"></line><line x1="28" y1="66.375" x2="23" y2="66.375" style="visibility: inherit;" fill="rgb(0, 0, 0)" stroke="rgb(204, 204, 204)" stroke-width="1px"></line><line x1="28" y1="44.25" x2="23" y2="44.25" style="visibility: inherit;" fill="rgb(0, 0, 0)" stroke="rgb(204, 204, 204)" stroke-width="1px"></line><line x1="28" y1="22.125" x2="23" y2="22.125" style="visibility: inherit;" fill="rgb(0, 0, 0)" stroke="rgb(204, 204, 204)" stroke-width="1px"></line><line x1="28" y1="0" x2="23" y2="0" style="visibility: inherit;" fill="rgb(0, 0, 0)" stroke="rgb(204, 204, 204)" stroke-width="1px"></line></g><g transform="translate(18, 0)"><text x="0" y="177" dx="0em" dy="0.3em" style="text-anchor: end; visibility: hidden; font-family: &quot;Helvetica Neue&quot;, sans-serif; font-size: 12px; font-weight: 200;" fill="rgb(50, 49, 63)" stroke="none" stroke-width="1px">5</text><text x="0" y="154.875" dx="0em" dy="0.3em" style="text-anchor: end; visibility: inherit; font-family: &quot;Helvetica Neue&quot;, sans-serif; font-size: 12px; font-weight: 200;" fill="rgb(50, 49, 63)" stroke="none" stroke-width="1px">6</text><text x="0" y="132.75" dx="0em" dy="0.3em" style="text-anchor: end; visibility: hidden; font-family: &quot;Helvetica Neue&quot;, sans-serif; font-size: 12px; font-weight: 200;" fill="rgb(50, 49, 63)" stroke="none" stroke-width="1px">7</text><text x="0" y="110.625" dx="0em" dy="0.3em" style="text-anchor: end; visibility: inherit; font-family: &quot;Helvetica Neue&quot;, sans-serif; font-size: 12px; font-weight: 200;" fill="rgb(50, 49, 63)" stroke="none" stroke-width="1px">8</text><text x="0" y="88.5" dx="0em" dy="0.3em" style="text-anchor: end; visibility: hidden; font-family: &quot;Helvetica Neue&quot;, sans-serif; font-size: 12px; font-weight: 200;" fill="rgb(50, 49, 63)" stroke="none" stroke-width="1px">9</text><text x="0" y="66.375" dx="0em" dy="0.3em" style="text-anchor: end; visibility: inherit; font-family: &quot;Helvetica Neue&quot;, sans-serif; font-size: 12px; font-weight: 200;" fill="rgb(50, 49, 63)" stroke="none" stroke-width="1px">10</text><text x="0" y="44.25" dx="0em" dy="0.3em" style="text-anchor: end; visibility: hidden; font-family: &quot;Helvetica Neue&quot;, sans-serif; font-size: 12px; font-weight: 200;" fill="rgb(50, 49, 63)" stroke="none" stroke-width="1px">11</text><text x="0" y="22.125" dx="0em" dy="0.3em" style="text-anchor: end; visibility: inherit; font-family: &quot;Helvetica Neue&quot;, sans-serif; font-size: 12px; font-weight: 200;" fill="rgb(50, 49, 63)" stroke="none" stroke-width="1px">12</text><text x="0" y="0" dx="0em" dy="0.3em" style="text-anchor: end; visibility: hidden; font-family: &quot;Helvetica Neue&quot;, sans-serif; font-size: 12px; font-weight: 200;" fill="rgb(50, 49, 63)" stroke="none" stroke-width="1px">13</text></g><line x1="28" y1="0" x2="28" y2="177" fill="rgb(0, 0, 0)" stroke="rgb(204, 204, 204)" stroke-width="1px"></line></g></g><g transform="translate(28, 0)" clip-path="url(#clip_0)"><clipPath id="clip_0"><rect width="302" height="177"></rect></clipPath><g><g><g><line x1="0" y1="0" x2="0" y2="177" fill="rgb(0, 0, 0)" stroke="rgb(60, 60, 60)" stroke-width="1px" opacity="0.25"></line><line x1="25.166666666666664" y1="0" x2="25.166666666666664" y2="177" fill="rgb(0, 0, 0)" stroke="rgb(60, 60, 60)" stroke-width="1px" opacity="0.25"></line><line x1="50.33333333333333" y1="0" x2="50.33333333333333" y2="177" fill="rgb(0, 0, 0)" stroke="rgb(60, 60, 60)" stroke-width="1px" opacity="0.25"></line><line x1="75.5" y1="0" x2="75.5" y2="177" fill="rgb(0, 0, 0)" stroke="rgb(60, 60, 60)" stroke-width="1px" opacity="0.25"></line><line x1="100.66666666666666" y1="0" x2="100.66666666666666" y2="177" fill="rgb(0, 0, 0)" stroke="rgb(60, 60, 60)" stroke-width="1px" opacity="0.25"></line><line x1="125.83333333333334" y1="0" x2="125.83333333333334" y2="177" fill="rgb(0, 0, 0)" stroke="rgb(60, 60, 60)" stroke-width="1px" opacity="0.25"></line><line x1="151" y1="0" x2="151" y2="177" fill="rgb(0, 0, 0)" stroke="rgb(60, 60, 60)" stroke-width="1px" opacity="0.25"></line><line x1="176.16666666666669" y1="0" x2="176.16666666666669" y2="177" fill="rgb(0, 0, 0)" stroke="rgb(60, 60, 60)" stroke-width="1px" opacity="0.25"></line><line x1="201.33333333333331" y1="0" x2="201.33333333333331" y2="177" fill="rgb(0, 0, 0)" stroke="rgb(60, 60, 60)" stroke-width="1px" opacity="0.25"></line><line x1="226.5" y1="0" x2="226.5" y2="177" fill="rgb(0, 0, 0)" stroke="rgb(60, 60, 60)" stroke-width="1px" opacity="0.25"></line><line x1="251.66666666666669" y1="0" x2="251.66666666666669" y2="177" fill="rgb(0, 0, 0)" stroke="rgb(60, 60, 60)" stroke-width="1px" opacity="0.25"></line><line x1="276.8333333333333" y1="0" x2="276.8333333333333" y2="177" fill="rgb(0, 0, 0)" stroke="rgb(60, 60, 60)" stroke-width="1px" opacity="0.25"></line><line x1="302" y1="0" x2="302" y2="177" fill="rgb(0, 0, 0)" stroke="rgb(60, 60, 60)" stroke-width="1px" opacity="0.25"></line></g><g><line x1="0" y1="177" x2="302" y2="177" fill="rgb(0, 0, 0)" stroke="rgb(60, 60, 60)" stroke-width="1px" opacity="0.25"></line><line x1="0" y1="154.875" x2="302" y2="154.875" fill="rgb(0, 0, 0)" stroke="rgb(60, 60, 60)" stroke-width="1px" opacity="0.25"></line><line x1="0" y1="132.75" x2="302" y2="132.75" fill="rgb(0, 0, 0)" stroke="rgb(60, 60, 60)" stroke-width="1px" opacity="0.25"></line><line x1="0" y1="110.625" x2="302" y2="110.625" fill="rgb(0, 0, 0)" stroke="rgb(60, 60, 60)" stroke-width="1px" opacity="0.25"></line><line x1="0" y1="88.5" x2="302" y2="88.5" fill="rgb(0, 0, 0)" stroke="rgb(60, 60, 60)" stroke-width="1px" opacity="0.25"></line><line x1="0" y1="66.375" x2="302" y2="66.375" fill="rgb(0, 0, 0)" stroke="rgb(60, 60, 60)" stroke-width="1px" opacity="0.25"></line><line x1="0" y1="44.25" x2="302" y2="44.25" fill="rgb(0, 0, 0)" stroke="rgb(60, 60, 60)" stroke-width="1px" opacity="0.25"></line><line x1="0" y1="22.125" x2="302" y2="22.125" fill="rgb(0, 0, 0)" stroke="rgb(60, 60, 60)" stroke-width="1px" opacity="0.25"></line><line x1="0" y1="0" x2="302" y2="0" fill="rgb(0, 0, 0)" stroke="rgb(60, 60, 60)" stroke-width="1px" opacity="0.25"></line></g></g></g><g><g><line x1="0" y1="287.625" x2="302" y2="287.625" fill="rgb(0, 0, 0)" stroke="rgb(153, 153, 153)" stroke-width="1.5px"></line></g></g><g><g><line x1="25.166666666666664" y1="0" x2="25.166666666666664" y2="177" fill="rgb(0, 0, 0)" stroke="rgb(153, 153, 153)" stroke-width="1.5px"></line></g></g><g><g><g><g><g><path stroke="rgb(255, 112, 67)" stroke-width="2px" d="M25.394727,184.22640645503998L25.607989333333336,172.55343265907607L25.807611333333334,186.50713067649033L27.139582333333333,185.9876034524991L31.400903,137.79373104165495L31.402614333333332,134.7287472926197L31.624081,40.16955142761202L32.078943333333335,114.79796953177213L32.29190366666666,89.78591094113195L32.50677666666667,130.2912373702267L32.965716,72.2279513212221L33.42314533333333,55.387023788758924L33.54439833333333,34.846714489180414L33.79158533333333,95.6583449900168L33.90594266666667,143.068030706978L34.019142333333335,87.01358915728915L34.26904733333333,131.7372543624521L34.37811966666666,164.90473607360346L34.62379666666667,79.80122373693374L34.73417766666667,140.24982007569616L34.979905,169.00081954405454L35.087668666666666,133.88390348148894L35.19971066666667,146.78782148770574L35.44719966666666,82.29646839390954L35.559795333333334,103.34720388955188L35.67143466666667,53.934991496950445L35.781564,133.1368946288252L36.028449,144.4431220693991L36.27473,162.52699322846988L39.320551,144.998909551475L39.795748,171.34139171539053L40.267673333333335,70.11060954694585L40.48858633333333,113.76219396406614L40.965041666666664,52.0796539178984L56.011587666666664,55.773955841937024L56.23260133333333,84.2398890457228L56.470074,96.9501339330833L56.68942666666667,80.07279395899351L57.157425999999994,112.43400845131032L57.37677866666667,112.58368905563424L59.685417666666666,155.70946869342734L68.09309766666667,143.41990816363256L68.30716533333333,98.38325186325889L84.00542733333333,107.96965378356339L107.55377666666666,134.58911305316195L107.767039,69.98778871788777L107.99993133333334,119.69027915343685L108.45630366666667,26.890282976861016L108.66740166666666,95.22045252115585L108.880966,140.99930516804795L109.33718733333333,124.90091632120661L109.79053966666666,113.54620179015431L110.00410400000001,99.37445952937891L110.216863,77.22054373688306L110.42786033333333,70.19064486929587L110.64036766666668,47.233070990475454L110.85297566666667,115.76034332142186L111.30441533333334,48.27829946501339L111.51616766666666,95.27527302496271L111.96962066666667,150.32165936278597L112.42226833333332,64.38039050450067L112.63366833333333,148.34991045374883L113.08591333333334,110.919036270694L113.297867,87.01366360488093L119.09480733333334,70.4003096222902L124.12466766666667,145.01215488481543L124.58400966666666,128.46308371140293L124.798329,98.19888979884503L125.01300066666666,86.19501930207491L125.47214133333333,51.917708183985226L125.685756,92.83076581150638L125.90007533333333,85.22225525359188L126.359518,110.7870601009177L126.57479366666668,79.9571083907208L127.03750799999999,58.494520469893644L127.25620633333334,115.0357319969549L127.72239366666666,73.41612425097095L127.941847,136.54384424366785L128.160042,43.23375013072797L128.62497100000002,38.134263447379624L128.843921,93.8362581244903L129.30995733333333,80.08202853404804L129.774685,108.8841021290811L130.24112399999999,96.03889422446625L130.45936933333334,68.66389090235724L130.677212,53.536486347594916L131.14103366666666,70.26351296902455L131.357165,109.84732823324273L131.81826866666665,91.73731870818332L132.279926,55.759680202835284L132.49605733333334,18.673011316417075L132.70911833333335,124.7390866082724L133.16992000000002,35.063608215349376L133.63026866666667,-11.085166218176113L137.79001666666667,117.3971949660974L138.23964433333333,66.33458653015323L138.449484,110.6631907567238L155.48193166666667,133.29969688696724L155.94806866666667,90.58926125282579L156.40645433333333,58.49190158740477L156.627317,51.75581605729657L156.847324,93.82357536363335L157.06526733333334,55.24205614338656L157.53487733333336,93.42276307984383L157.997944,79.91695671562594L158.2140753333333,34.391350804599995L158.43166633333334,50.13403126991585L158.89800466666668,77.93749854507138L159.36318533333335,120.93077962068756L159.82484266666665,91.43762202784352L160.04082300000002,49.88159877369394L160.50177566666667,39.69361884814222L160.71574266666667,92.04227080671474L161.17458133333332,89.94877889702651L161.38905166666666,89.1560191726207L161.848444,30.949375716357423L162.06336733333333,90.75520358252611L162.2779383333333,87.91565918042L162.73627366666668,66.3107242289674L162.94973733333333,115.0558703084325L163.410086,88.5748173736528L163.62460666666666,109.49308164017674L164.082791,107.43621434030273L164.29706000000002,67.18481537938817L164.75604966666666,127.5435957386405L165.21463666666668,42.7601800610953L165.43157333333332,138.29740129328093L165.64508733333332,114.10540419952042L165.859608,115.6753122426376L166.31960433333333,134.49969989554694L172.09414633333336,105.30461015271817L179.05187400000003,85.34531925389068L179.50708866666668,76.56557620932473L179.71718,81.29684447895988L179.93059333333332,61.33414714303157L180.14491266666667,-9.703903216584678L181.05745599999997,-7.824793354165337L181.27806700000002,71.79685013432581L181.738013,68.93049239343571L181.95424500000001,40.900600338197876L182.17193666666665,107.3520864953248L182.39023233333333,101.0167221890416L182.85506066666665,84.3131141783383L183.318832,112.1220872509154L183.78290533333333,94.30175632198019L183.999691,87.56750281043945L184.21753366666664,92.98472172678765L184.435024,132.82314681306957L184.65211166666668,98.94475417260693L185.115883,98.96762427418172L185.33276933333332,54.6409166104591L185.54970600000001,36.564079927892664L186.01257133333334,66.72021356844814L186.475034,76.1625802265395L186.69302766666667,96.17608564612188L187.1578056666667,121.85841207744305L187.37308133333332,108.5732347317139L187.59132666666665,105.0075133976707L187.8090686666667,121.06159277570123L188.02706233333333,47.025218017398714L188.48882033333334,69.48263118338579L188.945696,76.39500242964934L189.16102199999997,61.098929821487886L189.37579433333332,124.54425004139296L189.83342499999998,86.24363833524204L190.28783433333334,99.06720023332348L190.74420666666666,53.69484645841436L191.201032,19.496814846723453L191.41716333333335,15.873649323437576L191.63334500000002,31.75464510387934L192.09616,54.60949934813189L192.55741466666666,108.63555211953428L193.02224299999997,61.74633322728354L193.48128300000002,79.59756054932846L195.65246166666665,87.92219316049093L196.11210566666665,92.0054423752629L196.32833766666667,119.25859479563906L196.79215933333333,61.64535030408615L197.25542733333333,85.41051066940682L197.471911,91.6835596771485L197.93376966666668,112.09918480168766L198.14974999999998,101.19649370293709L198.364774,61.53508122995461L198.82622999999998,47.31614589713567L199.28803833333333,95.296609019301L199.75065199999997,109.39318295336356L199.96648133333335,39.6251918668905L200.18321666666665,86.67874071402893L200.40050566666665,83.08609711971621L200.861257,65.94940156731293L201.07764,108.5351679778035L201.53748533333334,96.55742991405424L201.7506973333333,67.28322084945458L201.96647633333333,28.16092349548532L202.42561700000002,105.08249160715046L202.642151,22.70295268542111L203.10365733333333,89.34437157463697L203.562345,59.82239295840421L203.7799863333333,47.648197347450406L203.996923,5.88939050908354L204.21320533333332,83.84600786693142L204.67456066666665,77.94996274693224L204.89124566666666,79.31784266393984L205.35083933333334,59.92885409847409L205.56500766666667,33.251149743133084L205.77882366666668,84.2978881787618L206.233082,62.05172742930755L206.68663566666666,70.95634372189302L207.14114566666666,103.2048730384394L207.35179066666666,64.84117759448132L207.5641973333333,29.74382368868052L207.77751,65.5917743264632L208.232775,96.2306204606914L208.44513133333334,67.7504530035956L208.65597766666667,58.59612931617259L209.10958166666666,96.66796925812547L209.32108233333332,41.751192795896145L209.53132466666668,61.962290758863816L212.87104200000002,51.522405326364094L213.33169266666664,51.91587217426277L213.794256,93.21474877622221L214.01114233333334,95.82723480379724L214.472699,26.812409099498865L214.68747133333332,80.55674916425319L214.9037536666667,70.9179500655355L215.35932066666666,61.617382086906616L215.57213,43.31564858509003L221.95042033333334,5.993950072243564L222.171132,79.05888114770077L232.58323633333336,83.36633704795821L233.04746066666667,26.455781614965787L233.51082933333336,27.22518953191627L233.73048400000002,69.5425473599504L234.202812,70.20135156296608L234.4245303333333,66.13137543676653L234.645544,34.46725499484859L235.11666400000001,60.31638734708207L235.338936,62.57957801262853L254.41521899999998,75.14910832218199L254.63381666666666,89.01386773411926L255.10720166666664,36.83322176153612L255.32927233333334,17.958154300513428L255.55043700000002,23.96155627533551L255.77099766666666,30.77514844795681L255.99337033333333,38.24580962244093L256.216045,32.504578454764754L256.44038066666667,50.264939888331625L256.91522533333335,72.67720387592443L257.13764833333335,78.71493132707076L257.35916533333335,18.937531555935493L257.580179,72.21136550857969L258.049487,54.229940124277434L258.5187446666667,16.69794749240151L258.7390536666667,58.93582932664877L258.95669499999997,69.49205533648868L259.17604766666665,79.74881221197636L276.0216076666667,97.13356901392228L276.22993733333334,30.572508949456108L276.442193,55.767821638910036L276.6535426666667,65.37748294249799L276.8333333333333,50.311757594276074" style="fill: none;" fill="none"></path></g></g></g></g><g opacity="0.2"><g><g><g><path stroke="rgb(255, 112, 67)" stroke-width="2px" d="M25.394727,184.22640645503998L25.607989333333336,171.43282717466354L25.807611333333334,187.9752829670906L27.139582333333333,185.25785046815872L31.400903,132.67580169439316L31.402614333333332,134.40326231718063L31.624081,30.127866983413696L32.078943333333335,122.72311127185822L32.29190366666666,87.12976312637329L32.50677666666667,134.5926879644394L32.965716,66.0619386434555L33.42314533333333,53.59860670566559L33.54439833333333,32.66544270515442L33.79158533333333,102.11621725559235L33.90594266666667,148.10268759727478L34.019142333333335,81.0609050989151L34.26904733333333,136.48667013645172L34.37811966666666,168.42694652080536L34.62379666666667,70.76368260383606L34.73417766666667,146.66914004087448L34.979905,172.05402302742004L35.087668666666666,130.1546734571457L35.19971066666667,148.1581490635872L35.44719966666666,75.4478291273117L35.559795333333334,105.58268022537231L35.67143466666667,48.68767690658569L35.781564,141.54771620035172L36.028449,145.643783390522L36.27473,164.4474043250084L39.320551,143.137520134449L39.795748,174.13882344961166L40.267673333333335,59.360437989234924L40.48858633333333,118.39776045084L40.965041666666664,45.529295682907104L56.011587666666664,56.16627109050751L56.23260133333333,87.26282000541687L56.470074,98.29989445209503L56.68942666666667,78.28051006793976L57.157425999999994,115.87059760093689L57.37677866666667,112.5995843410492L59.685417666666666,160.28919750452042L68.09309766666667,142.1148220896721L68.30716533333333,93.60059809684753L84.00542733333333,108.98767876625061L107.55377666666666,137.41595828533173L107.767039,63.1274710893631L107.99993133333334,124.9684197306633L108.45630366666667,17.03541612625122L108.66740166666666,102.47675371170044L108.880966,145.86077624559402L109.33718733333333,123.19135290384293L109.79053966666666,112.3403913974762L110.00410400000001,97.86949574947357L110.216863,74.86791551113129L110.42786033333333,69.44410693645477L110.64036766666668,44.795098543167114L110.85297566666667,123.03757578134537L111.30441533333334,41.112064719200134L111.51616766666666,100.26610207557678L111.96962066666667,156.1672933101654L112.42226833333332,55.253884077072144L112.63366833333333,157.26702761650085L113.08591333333334,106.94407618045807L113.297867,84.47503995895386L119.09480733333334,68.63605964183807L124.12466766666667,152.93553668260574L124.58400966666666,126.70566022396088L124.798329,94.98499310016632L125.01300066666666,84.92027199268341L125.47214133333333,48.277639746665955L125.685756,97.17551529407501L125.90007533333333,84.41427183151245L126.359518,113.50190663337708L126.57479366666668,76.68313121795654L127.03750799999999,56.21530759334564L127.25620633333334,121.04010844230652L127.72239366666666,68.99634289741516L127.941847,143.24767291545868L128.160042,33.324713587760925L128.62497100000002,37.59272503852844L128.843921,99.75151419639587L129.30995733333333,78.62140238285065L129.774685,111.94272941350937L130.24112399999999,94.67480134963989L130.45936933333334,65.7568109035492L130.677212,51.930036306381226L131.14103366666666,72.03983438014984L131.357165,114.05091923475266L131.81826866666665,89.81413185596466L132.279926,51.939046025276184L132.49605733333334,14.734604001045227L132.70911833333335,136.00274062156677L133.16992000000002,25.54054856300354L133.63026866666667,-15.985921025276184L137.79001666666667,131.0413395166397L138.23964433333333,60.91200864315033L138.449484,115.37065315246582L155.48193166666667,135.70357364416122L155.94806866666667,86.05363976955414L156.40645433333333,55.08333241939545L156.627317,51.04047954082489L156.847324,98.29094803333282L157.06526733333334,51.14490365982056L157.53487733333336,97.47735142707825L157.997944,78.48271179199219L158.2140753333333,29.55677318572998L158.43166633333334,51.8058203458786L158.89800466666668,80.89007914066315L159.36318533333335,125.49643778800964L159.82484266666665,88.30560529232025L160.04082300000002,45.4685697555542L160.50177566666667,38.61170947551727L160.71574266666667,97.60141968727112L161.17458133333332,89.72646117210388L161.38905166666666,89.07183229923248L161.848444,24.768139243125916L162.06336733333333,97.10626494884491L162.2779383333333,87.61411464214325L162.73627366666668,64.01639485359192L162.94973733333333,120.2323459982872L163.410086,85.7626701593399L163.62460666666666,111.71449023485184L164.082791,107.2177859544754L164.29706000000002,62.91033053398132L164.75604966666666,133.95337772369385L165.21463666666668,33.75663149356842L165.43157333333332,148.44294691085815L165.64508733333332,111.53634256124496L165.859608,115.84202814102173L166.31960433333333,136.49874991178513L172.09414633333336,102.20424664020538L179.05187400000003,83.22574853897095L179.50708866666668,75.6332141160965L179.71718,81.79928004741669L179.93059333333332,59.21421468257904L180.14491266666667,-17.247766971588135L181.05745599999997,-5.703996062278748L181.27806700000002,80.25224590301514L181.738013,68.62610042095184L181.95424500000001,37.92397463321686L182.17193666666665,114.40888148546219L182.39023233333333,100.34394013881683L182.85506066666665,82.53927969932556L183.318832,115.07525253295898L183.78290533333333,92.40933179855347L183.999691,86.85236084461212L184.21753366666664,93.5600016117096L184.435024,137.0537760257721L184.65211166666668,95.34704875946045L185.115883,98.97005295753479L185.33276933333332,49.93365561962128L185.54970600000001,34.644415855407715L186.01257133333334,69.9226348400116L186.475034,77.1653094291687L186.69302766666667,98.30141365528107L187.1578056666667,124.58573877811432L187.37308133333332,107.16241943836212L187.59132666666665,104.62885272502899L187.8090686666667,122.76645076274872L188.02706233333333,39.16294813156128L188.48882033333334,71.86748921871185L188.945696,77.12905955314636L189.16102199999997,59.474568128585815L189.37579433333332,131.2818061709404L189.83342499999998,82.17631673812866L190.28783433333334,100.42899441719055L190.74420666666666,48.876543402671814L191.201032,15.86516547203064L191.41716333333335,15.488888382911682L191.63334500000002,33.44112253189087L192.09616,57.03656351566315L192.55741466666666,114.37283205986023L193.02224299999997,56.76694715023041L193.48128300000002,81.49326610565186L195.65246166666665,88.80622494220734L196.11210566666665,92.4390617609024L196.32833766666667,122.15273487567902L196.79215933333333,55.52712965011597L197.25542733333333,87.93424451351166L197.471911,92.34972417354584L197.93376966666668,114.26721578836441L198.14974999999998,100.03868579864502L198.364774,57.32324981689453L198.82622999999998,45.80617046356201L199.28803833333333,100.39187943935394L199.75065199999997,110.89016425609589L199.96648133333335,32.21620166301727L200.18321666666665,91.67557775974274L200.40050566666665,82.70457744598389L200.861257,64.12957549095154L201.07764,113.05755025148392L201.53748533333334,95.28545773029327L201.7506973333333,64.17445528507233L201.96647633333333,24.006343245506287L202.42561700000002,113.25115370750427L202.642151,13.954683065414429L203.10365733333333,96.42133641242981L203.562345,56.687315583229065L203.7799863333333,46.35536241531372L203.996923,1.4548269510269165L204.21320533333332,92.12458670139313L204.67456066666665,77.32383406162262L204.89124566666666,79.46310424804688L205.35083933333334,57.86984646320343L205.56500766666667,30.418119192123413L205.77882366666668,89.7187807559967L206.233082,59.689303278923035L206.68663566666666,71.90196669101715L207.14114566666666,106.62949562072754L207.35179066666666,60.76715683937073L207.5641973333333,26.016671061515808L207.77751,69.39863634109497L208.232775,99.48430323600769L208.44513133333334,64.72601044178009L208.65597766666667,57.62398874759674L209.10958166666666,100.71099650859833L209.32108233333332,35.91932272911072L209.53132466666668,64.10860204696655L212.87104200000002,50.41374492645264L213.33169266666664,51.957656264305115L213.794256,97.60047018527985L214.01114233333334,96.10466694831848L214.472699,19.48340106010437L214.68747133333332,86.26411271095276L214.9037536666667,69.89436078071594L215.35932066666666,60.62971115112305L215.57213,41.37210166454315L221.95042033333334,2.0305838584899902L222.171132,86.81798887252808L232.58323633333336,83.82376599311829L233.04746066666667,20.412182807922363L233.51082933333336,27.306896567344666L233.73048400000002,74.0364260673523L234.202812,70.27131307125092L234.4245303333333,65.69916558265686L234.645544,31.10469353199005L235.11666400000001,63.06142795085907L235.338936,62.81991684436798L254.41521899999998,76.48392570018768L254.63381666666666,90.48623156547546L255.10720166666664,31.291914224624634L255.32927233333334,15.953722357749939L255.55043700000002,24.599085688591003L255.77099766666666,31.49871575832367L255.99337033333333,39.039154171943665L256.216045,31.894890189170837L256.44038066666667,52.15099596977234L256.91522533333335,75.05726730823517L257.13764833333335,79.35610592365265L257.35916533333335,12.589489102363586L257.580179,77.86876380443573L258.049487,52.32040822505951L258.5187446666667,12.712249159812927L258.7390536666667,63.4212681055069L258.95669499999997,70.61307048797607L259.17604766666665,80.83802533149719L276.0216076666667,98.97973787784576L276.22993733333334,23.504077792167664L276.442193,58.443430066108704L276.6535426666667,66.39797794818878L276.8333333333333,48.71185755729675" style="fill: none;" fill="none"></path></g></g></g></g></g></g><g transform="translate(28, 177)" clip-path="url(#clip_1)"><clipPath id="clip_1"><rect width="302" height="23"></rect></clipPath><g><g><line x1="0" y1="0" x2="0" y2="5" style="visibility: inherit;" fill="rgb(0, 0, 0)" stroke="rgb(204, 204, 204)" stroke-width="1px"></line><line x1="25.166666666666664" y1="0" x2="25.166666666666664" y2="5" style="visibility: inherit;" fill="rgb(0, 0, 0)" stroke="rgb(204, 204, 204)" stroke-width="1px"></line><line x1="50.33333333333333" y1="0" x2="50.33333333333333" y2="5" style="visibility: inherit;" fill="rgb(0, 0, 0)" stroke="rgb(204, 204, 204)" stroke-width="1px"></line><line x1="75.5" y1="0" x2="75.5" y2="5" style="visibility: inherit;" fill="rgb(0, 0, 0)" stroke="rgb(204, 204, 204)" stroke-width="1px"></line><line x1="100.66666666666666" y1="0" x2="100.66666666666666" y2="5" style="visibility: inherit;" fill="rgb(0, 0, 0)" stroke="rgb(204, 204, 204)" stroke-width="1px"></line><line x1="125.83333333333334" y1="0" x2="125.83333333333334" y2="5" style="visibility: inherit;" fill="rgb(0, 0, 0)" stroke="rgb(204, 204, 204)" stroke-width="1px"></line><line x1="151" y1="0" x2="151" y2="5" style="visibility: inherit;" fill="rgb(0, 0, 0)" stroke="rgb(204, 204, 204)" stroke-width="1px"></line><line x1="176.16666666666669" y1="0" x2="176.16666666666669" y2="5" style="visibility: inherit;" fill="rgb(0, 0, 0)" stroke="rgb(204, 204, 204)" stroke-width="1px"></line><line x1="201.33333333333331" y1="0" x2="201.33333333333331" y2="5" style="visibility: inherit;" fill="rgb(0, 0, 0)" stroke="rgb(204, 204, 204)" stroke-width="1px"></line><line x1="226.5" y1="0" x2="226.5" y2="5" style="visibility: inherit;" fill="rgb(0, 0, 0)" stroke="rgb(204, 204, 204)" stroke-width="1px"></line><line x1="251.66666666666669" y1="0" x2="251.66666666666669" y2="5" style="visibility: inherit;" fill="rgb(0, 0, 0)" stroke="rgb(204, 204, 204)" stroke-width="1px"></line><line x1="276.8333333333333" y1="0" x2="276.8333333333333" y2="5" style="visibility: inherit;" fill="rgb(0, 0, 0)" stroke="rgb(204, 204, 204)" stroke-width="1px"></line><line x1="302" y1="0" x2="302" y2="5" style="visibility: inherit;" fill="rgb(0, 0, 0)" stroke="rgb(204, 204, 204)" stroke-width="1px"></line></g><g transform="translate(0, 8)"><text x="0" y="0" dx="0em" dy="0.95em" style="text-anchor: middle; visibility: hidden; font-family: &quot;Helvetica Neue&quot;, sans-serif; font-size: 12px; font-weight: 200;" fill="rgb(50, 49, 63)" stroke="none" stroke-width="1px">-500k</text><text x="25.166666666666664" y="0" dx="0em" dy="0.95em" style="text-anchor: middle; visibility: inherit; font-family: &quot;Helvetica Neue&quot;, sans-serif; font-size: 12px; font-weight: 200;" fill="rgb(50, 49, 63)" stroke="none" stroke-width="1px">0</text><text x="50.33333333333333" y="0" dx="0em" dy="0.95em" style="text-anchor: middle; visibility: hidden; font-family: &quot;Helvetica Neue&quot;, sans-serif; font-size: 12px; font-weight: 200;" fill="rgb(50, 49, 63)" stroke="none" stroke-width="1px">500k</text><text x="75.5" y="0" dx="0em" dy="0.95em" style="text-anchor: middle; visibility: inherit; font-family: &quot;Helvetica Neue&quot;, sans-serif; font-size: 12px; font-weight: 200;" fill="rgb(50, 49, 63)" stroke="none" stroke-width="1px">1M</text><text x="100.66666666666666" y="0" dx="0em" dy="0.95em" style="text-anchor: middle; visibility: hidden; font-family: &quot;Helvetica Neue&quot;, sans-serif; font-size: 12px; font-weight: 200;" fill="rgb(50, 49, 63)" stroke="none" stroke-width="1px">1.5M</text><text x="125.83333333333334" y="0" dx="0em" dy="0.95em" style="text-anchor: middle; visibility: inherit; font-family: &quot;Helvetica Neue&quot;, sans-serif; font-size: 12px; font-weight: 200;" fill="rgb(50, 49, 63)" stroke="none" stroke-width="1px">2M</text><text x="151" y="0" dx="0em" dy="0.95em" style="text-anchor: middle; visibility: hidden; font-family: &quot;Helvetica Neue&quot;, sans-serif; font-size: 12px; font-weight: 200;" fill="rgb(50, 49, 63)" stroke="none" stroke-width="1px">2.5M</text><text x="176.16666666666669" y="0" dx="0em" dy="0.95em" style="text-anchor: middle; visibility: inherit; font-family: &quot;Helvetica Neue&quot;, sans-serif; font-size: 12px; font-weight: 200;" fill="rgb(50, 49, 63)" stroke="none" stroke-width="1px">3M</text><text x="201.33333333333331" y="0" dx="0em" dy="0.95em" style="text-anchor: middle; visibility: hidden; font-family: &quot;Helvetica Neue&quot;, sans-serif; font-size: 12px; font-weight: 200;" fill="rgb(50, 49, 63)" stroke="none" stroke-width="1px">3.5M</text><text x="226.5" y="0" dx="0em" dy="0.95em" style="text-anchor: middle; visibility: inherit; font-family: &quot;Helvetica Neue&quot;, sans-serif; font-size: 12px; font-weight: 200;" fill="rgb(50, 49, 63)" stroke="none" stroke-width="1px">4M</text><text x="251.66666666666669" y="0" dx="0em" dy="0.95em" style="text-anchor: middle; visibility: hidden; font-family: &quot;Helvetica Neue&quot;, sans-serif; font-size: 12px; font-weight: 200;" fill="rgb(50, 49, 63)" stroke="none" stroke-width="1px">4.5M</text><text x="276.8333333333333" y="0" dx="0em" dy="0.95em" style="text-anchor: middle; visibility: inherit; font-family: &quot;Helvetica Neue&quot;, sans-serif; font-size: 12px; font-weight: 200;" fill="rgb(50, 49, 63)" stroke="none" stroke-width="1px">5M</text><text x="302" y="0" dx="0em" dy="0.95em" style="text-anchor: middle; visibility: hidden; font-family: &quot;Helvetica Neue&quot;, sans-serif; font-size: 12px; font-weight: 200;" fill="rgb(50, 49, 63)" stroke="none" stroke-width="1px">5.5M</text></g><line x1="0" y1="0" x2="302" y2="0" fill="rgb(0, 0, 0)" stroke="rgb(204, 204, 204)" stroke-width="1px"></line></g></g></g></g></svg>