<svg viewBox="0 0 330 200" xmlns="http://www.w3.org/2000/svg"><g><g><g><g><g><line x1="28" y1="177" x2="23" y2="177" style="visibility: inherit;" fill="rgb(0, 0, 0)" stroke="rgb(204, 204, 204)" stroke-width="1px"></line><line x1="28" y1="154.875" x2="23" y2="154.875" style="visibility: inherit;" fill="rgb(0, 0, 0)" stroke="rgb(204, 204, 204)" stroke-width="1px"></line><line x1="28" y1="132.75" x2="23" y2="132.75" style="visibility: inherit;" fill="rgb(0, 0, 0)" stroke="rgb(204, 204, 204)" stroke-width="1px"></line><line x1="28" y1="110.625" x2="23" y2="110.625" style="visibility: inherit;" fill="rgb(0, 0, 0)" stroke="rgb(204, 204, 204)" stroke-width="1px"></line><line x1="28" y1="88.5" x2="23" y2="88.5" style="visibility: inherit;" fill="rgb(0, 0, 0)" stroke="rgb(204, 204, 204)" stroke-width="1px"></line><line x1="28" y1="66.375" x2="23" y2="66.375" style="visibility: inherit;" fill="rgb(0, 0, 0)" stroke="rgb(204, 204, 204)" stroke-width="1px"></line><line x1="28" y1="44.25" x2="23" y2="44.25" style="visibility: inherit;" fill="rgb(0, 0, 0)" stroke="rgb(204, 204, 204)" stroke-width="1px"></line><line x1="28" y1="22.125" x2="23" y2="22.125" style="visibility: inherit;" fill="rgb(0, 0, 0)" stroke="rgb(204, 204, 204)" stroke-width="1px"></line><line x1="28" y1="0" x2="23" y2="0" style="visibility: inherit;" fill="rgb(0, 0, 0)" stroke="rgb(204, 204, 204)" stroke-width="1px"></line></g><g transform="translate(18, 0)"><text x="0" y="177" dx="0em" dy="0.3em" style="text-anchor: end; visibility: hidden; font-family: &quot;Helvetica Neue&quot;, sans-serif; font-size: 12px; font-weight: 200;" fill="rgb(50, 49, 63)" stroke="none" stroke-width="1px">5</text><text x="0" y="154.875" dx="0em" dy="0.3em" style="text-anchor: end; visibility: inherit; font-family: &quot;Helvetica Neue&quot;, sans-serif; font-size: 12px; font-weight: 200;" fill="rgb(50, 49, 63)" stroke="none" stroke-width="1px">6</text><text x="0" y="132.75" dx="0em" dy="0.3em" style="text-anchor: end; visibility: hidden; font-family: &quot;Helvetica Neue&quot;, sans-serif; font-size: 12px; font-weight: 200;" fill="rgb(50, 49, 63)" stroke="none" stroke-width="1px">7</text><text x="0" y="110.625" dx="0em" dy="0.3em" style="text-anchor: end; visibility: inherit; font-family: &quot;Helvetica Neue&quot;, sans-serif; font-size: 12px; font-weight: 200;" fill="rgb(50, 49, 63)" stroke="none" stroke-width="1px">8</text><text x="0" y="88.5" dx="0em" dy="0.3em" style="text-anchor: end; visibility: hidden; font-family: &quot;Helvetica Neue&quot;, sans-serif; font-size: 12px; font-weight: 200;" fill="rgb(50, 49, 63)" stroke="none" stroke-width="1px">9</text><text x="0" y="66.375" dx="0em" dy="0.3em" style="text-anchor: end; visibility: inherit; font-family: &quot;Helvetica Neue&quot;, sans-serif; font-size: 12px; font-weight: 200;" fill="rgb(50, 49, 63)" stroke="none" stroke-width="1px">10</text><text x="0" y="44.25" dx="0em" dy="0.3em" style="text-anchor: end; visibility: hidden; font-family: &quot;Helvetica Neue&quot;, sans-serif; font-size: 12px; font-weight: 200;" fill="rgb(50, 49, 63)" stroke="none" stroke-width="1px">11</text><text x="0" y="22.125" dx="0em" dy="0.3em" style="text-anchor: end; visibility: inherit; font-family: &quot;Helvetica Neue&quot;, sans-serif; font-size: 12px; font-weight: 200;" fill="rgb(50, 49, 63)" stroke="none" stroke-width="1px">12</text><text x="0" y="0" dx="0em" dy="0.3em" style="text-anchor: end; visibility: hidden; font-family: &quot;Helvetica Neue&quot;, sans-serif; font-size: 12px; font-weight: 200;" fill="rgb(50, 49, 63)" stroke="none" stroke-width="1px">13</text></g><line x1="28" y1="0" x2="28" y2="177" fill="rgb(0, 0, 0)" stroke="rgb(204, 204, 204)" stroke-width="1px"></line></g></g><g transform="translate(28, 0)" clip-path="url(#clip_0)"><clipPath id="clip_0"><rect width="302" height="177"></rect></clipPath><g><g><g><line x1="0" y1="0" x2="0" y2="177" fill="rgb(0, 0, 0)" stroke="rgb(60, 60, 60)" stroke-width="1px" opacity="0.25"></line><line x1="25.166666666666664" y1="0" x2="25.166666666666664" y2="177" fill="rgb(0, 0, 0)" stroke="rgb(60, 60, 60)" stroke-width="1px" opacity="0.25"></line><line x1="50.33333333333333" y1="0" x2="50.33333333333333" y2="177" fill="rgb(0, 0, 0)" stroke="rgb(60, 60, 60)" stroke-width="1px" opacity="0.25"></line><line x1="75.5" y1="0" x2="75.5" y2="177" fill="rgb(0, 0, 0)" stroke="rgb(60, 60, 60)" stroke-width="1px" opacity="0.25"></line><line x1="100.66666666666666" y1="0" x2="100.66666666666666" y2="177" fill="rgb(0, 0, 0)" stroke="rgb(60, 60, 60)" stroke-width="1px" opacity="0.25"></line><line x1="125.83333333333334" y1="0" x2="125.83333333333334" y2="177" fill="rgb(0, 0, 0)" stroke="rgb(60, 60, 60)" stroke-width="1px" opacity="0.25"></line><line x1="151" y1="0" x2="151" y2="177" fill="rgb(0, 0, 0)" stroke="rgb(60, 60, 60)" stroke-width="1px" opacity="0.25"></line><line x1="176.16666666666669" y1="0" x2="176.16666666666669" y2="177" fill="rgb(0, 0, 0)" stroke="rgb(60, 60, 60)" stroke-width="1px" opacity="0.25"></line><line x1="201.33333333333331" y1="0" x2="201.33333333333331" y2="177" fill="rgb(0, 0, 0)" stroke="rgb(60, 60, 60)" stroke-width="1px" opacity="0.25"></line><line x1="226.5" y1="0" x2="226.5" y2="177" fill="rgb(0, 0, 0)" stroke="rgb(60, 60, 60)" stroke-width="1px" opacity="0.25"></line><line x1="251.66666666666669" y1="0" x2="251.66666666666669" y2="177" fill="rgb(0, 0, 0)" stroke="rgb(60, 60, 60)" stroke-width="1px" opacity="0.25"></line><line x1="276.8333333333333" y1="0" x2="276.8333333333333" y2="177" fill="rgb(0, 0, 0)" stroke="rgb(60, 60, 60)" stroke-width="1px" opacity="0.25"></line><line x1="302" y1="0" x2="302" y2="177" fill="rgb(0, 0, 0)" stroke="rgb(60, 60, 60)" stroke-width="1px" opacity="0.25"></line></g><g><line x1="0" y1="177" x2="302" y2="177" fill="rgb(0, 0, 0)" stroke="rgb(60, 60, 60)" stroke-width="1px" opacity="0.25"></line><line x1="0" y1="154.875" x2="302" y2="154.875" fill="rgb(0, 0, 0)" stroke="rgb(60, 60, 60)" stroke-width="1px" opacity="0.25"></line><line x1="0" y1="132.75" x2="302" y2="132.75" fill="rgb(0, 0, 0)" stroke="rgb(60, 60, 60)" stroke-width="1px" opacity="0.25"></line><line x1="0" y1="110.625" x2="302" y2="110.625" fill="rgb(0, 0, 0)" stroke="rgb(60, 60, 60)" stroke-width="1px" opacity="0.25"></line><line x1="0" y1="88.5" x2="302" y2="88.5" fill="rgb(0, 0, 0)" stroke="rgb(60, 60, 60)" stroke-width="1px" opacity="0.25"></line><line x1="0" y1="66.375" x2="302" y2="66.375" fill="rgb(0, 0, 0)" stroke="rgb(60, 60, 60)" stroke-width="1px" opacity="0.25"></line><line x1="0" y1="44.25" x2="302" y2="44.25" fill="rgb(0, 0, 0)" stroke="rgb(60, 60, 60)" stroke-width="1px" opacity="0.25"></line><line x1="0" y1="22.125" x2="302" y2="22.125" fill="rgb(0, 0, 0)" stroke="rgb(60, 60, 60)" stroke-width="1px" opacity="0.25"></line><line x1="0" y1="0" x2="302" y2="0" fill="rgb(0, 0, 0)" stroke="rgb(60, 60, 60)" stroke-width="1px" opacity="0.25"></line></g></g></g><g><g><line x1="0" y1="287.625" x2="302" y2="287.625" fill="rgb(0, 0, 0)" stroke="rgb(153, 153, 153)" stroke-width="1.5px"></line></g></g><g><g><line x1="25.166666666666664" y1="0" x2="25.166666666666664" y2="177" fill="rgb(0, 0, 0)" stroke="rgb(153, 153, 153)" stroke-width="1.5px"></line></g></g><g><g><g><g><g><path stroke="rgb(255, 112, 67)" stroke-width="2px" d="M31.400903,177.18689202812166L31.402614333333332,170.70045358736195L31.624081,151.2480528331789L32.078943333333335,147.60120474381569L32.29190366666666,140.38830073367882L32.50677666666667,139.73815244897997L32.965716,131.91282223677388L33.42314533333333,123.9925735466378L33.54439833333333,115.15514421185154L33.79158533333333,113.94283170692836L33.90594266666667,117.00564052779794L34.019142333333335,113.88774904515938L34.26904733333333,115.78954426255918L34.37811966666666,120.09790658081342L34.62379666666667,116.16166013004656L34.73417766666667,118.53921506535764L34.979905,122.6202992952893L35.087668666666666,123.18346675486094L35.19971066666667,125.01588348397978L35.44719966666666,121.4411241760713L35.559795333333334,120.31558330264008L35.67143466666667,115.30684962461467L35.781564,117.11659349158806L36.028449,119.05883306776929L36.27473,122.11216376353175L39.320551,123.51079486251572L39.795748,126.84356544855996L40.267673333333335,122.44448451533015L40.48858633333333,122.18308888497616L40.965041666666664,117.27387630561944L56.011587666666664,113.39153261402521L56.23260133333333,111.74391096953096L56.470074,110.90210098044264L56.68942666666667,108.8728939273803L57.157425999999994,109.30549795073433L57.37677866666667,109.50796266971027L59.685417666666666,112.61217554774088L68.09309766666667,114.40644372281032L68.30716533333333,113.14715680453898L84.00542733333333,112.89653599210182L107.55377666666666,114.36764690195156L107.767039,111.30559151959478L107.99993133333334,112.1190092575483L108.45630366666667,106.4781397629725L108.66740166666666,106.24154282135568L108.880966,108.57687178004385L109.33718733333333,109.4357835852633L109.79053966666666,109.60601934139125L110.00410400000001,108.91994493204704L110.216863,106.93426489277283L110.42786033333333,104.75314205192846L110.64036766666668,101.2724531582452L110.85297566666667,102.53337619932506L111.30441533333334,98.9819092008094L111.51616766666666,99.05602804597912L111.96962066666667,102.34663063154676L112.42226833333332,99.63765054366718L112.63366833333333,102.94769785214709L113.08591333333334,103.1769077260023L113.297867,102.10572416473244L119.09480733333334,100.19113272287213L124.12466766666667,103.2046845219205L124.58400966666666,104.5458906168762L124.798329,104.00083133292722L125.01300066666666,102.914160266842L125.47214133333333,99.80547398573756L125.685756,99.6559698706176L125.90007533333333,98.79026458229838L126.359518,99.62519681885662L126.57479366666668,98.32414191131542L127.03750799999999,95.93782625101142L127.25620633333334,97.35942462180085L127.72239366666666,95.75417477893937L127.941847,98.44053605913616L128.160042,94.75947963191405L128.62497100000002,91.52950602399488L128.843921,91.9938243794938L129.30995733333333,91.23900539720495L129.774685,92.40712572608608L130.24112399999999,92.53501594724233L130.45936933333334,91.02540350735734L130.677212,88.82224058690052L131.14103366666666,87.87682659370704L131.357165,89.35081667026493L131.81826866666665,89.37689998271166L132.279926,87.26988252267535L132.49605733333334,83.18871227617011L132.70911833333335,86.1594876351689L133.16992000000002,82.75053942810624L133.63026866666667,77.19933428527993L137.79001666666667,80.22579020475625L138.23964433333333,79.14039155842886L138.449484,81.17606160585798L155.48193166666667,84.23922659479175L155.94806866666667,84.34113599605566L156.40645433333333,82.69809864597548L156.627317,80.92057378044788L156.847324,81.89574789245934L157.06526733333334,80.16963497840364L157.53487733333336,81.14102696106512L157.997944,80.99184819188457L158.2140753333333,78.10576546475266L158.43166633333334,76.63020857460685L158.89800466666668,76.86918328634052L159.36318533333335,79.59685610593438L159.82484266666665,80.08531464388933L160.04082300000002,78.14389319626942L160.50177566666667,75.92698237425425L160.71574266666667,77.14235962076904L161.17458133333332,77.8479509746502L161.38905166666666,78.47723060754409L161.848444,75.4661686342116L162.06336733333333,76.67928920723429L162.2779383333333,77.29224766511925L162.73627366666668,76.54810284990745L162.94973733333333,78.99658557812754L163.410086,79.37580286548311L163.62460666666666,81.18819752869904L164.082791,82.64693960061219L164.29706000000002,81.5409128221775L164.75604966666666,84.47795780251614L165.21463666666668,81.63578498055236L165.43157333333332,85.37919738568552L165.64508733333332,86.8448148124684L165.859608,88.46951403080887L166.31960433333333,91.16048849081072L172.09414633333336,91.77922920500137L179.05187400000003,91.30002207542597L179.50708866666668,90.4223139114073L179.71718,89.9392333764576L179.93059333333332,88.21799111231643L180.14491266666667,82.30983093744716L180.60153666666668,76.03425176278107L181.05745599999997,71.45547496131779L181.27806700000002,71.94823991172322L181.738013,71.76214813051928L181.95424500000001,69.86671072009737L182.17193666666665,72.36169320157197L182.39023233333333,73.92906725383266L182.85506066666665,74.41134610782329L183.318832,76.68900170602573L183.78290533333333,77.56951420780877L183.999691,78.08945062073164L184.21753366666664,78.95595408146644L184.435024,82.20997310282505L184.65211166666668,82.94576481727032L185.115883,83.84325792085299L185.33276933333332,81.94405457331936L185.54970600000001,79.29492505142346L186.01257133333334,78.77001137831057L186.475034,78.68013749522424L186.69302766666667,79.77905101042072L187.1578056666667,82.28848862701638L187.37308133333332,83.68156663030808L187.59132666666665,84.85472426092443L187.8090686666667,86.97796821276773L188.02706233333333,84.30010412994247L188.48882033333334,83.60382296916518L188.945696,83.24120931347412L189.16102199999997,81.9101841810648L189.37579433333332,84.67517782975371L189.83342499999998,84.53523287383625L190.28783433333334,85.42533596565733L190.74420666666666,83.37848973443354L191.201032,79.59754505250179L191.41716333333335,76.00728232439198L191.63334500000002,73.62346583673292L192.09616,72.69455827694306L192.55741466666666,75.02863893164607L193.02224299999997,74.00594393713742L193.48128300000002,74.42524955879749L195.65246166666665,75.2306124294967L196.11210566666665,76.19431750237287L196.32833766666667,78.76806932520253L196.79215933333333,77.46653829859895L197.25542733333333,78.05274617544693L197.471911,78.85339799656646L197.93376966666668,80.83662102162296L198.14974999999998,81.91196184707859L198.364774,80.5349635137772L198.82622999999998,78.59011049140071L199.28803833333333,79.81103361955763L199.75065199999997,81.55149732229116L199.96648133333335,78.7886722329115L200.18321666666665,79.51035090967565L200.40050566666665,79.68923039587277L200.861257,78.81787684494999L201.07764,80.73532530367143L201.53748533333334,81.55014344955879L201.7506973333333,80.577092816221L201.96647633333333,77.40909366380953L202.42561700000002,79.4162712614376L202.642151,75.75038398653307L203.10365733333333,76.90796874989465L203.562345,75.77560161999465L203.7799863333333,74.12805373077818L203.996923,70.05831923389667L204.21320533333332,71.29403989947454L204.67456066666665,71.63171087147605L204.89124566666666,72.07027196436768L205.35083933333334,71.27504289191144L205.56500766666667,68.98704092074811L205.77882366666668,70.14802517448695L206.233082,69.56233349904998L206.68663566666666,69.69335364396562L207.14114566666666,71.76178782063386L207.35179066666666,71.1460856122209L207.5641973333333,68.61882726324801L207.77751,68.66249675322462L208.232775,70.3885246926535L208.44513133333334,70.07142271937774L208.65597766666667,69.3743639782257L209.10958166666666,71.1292211956618L209.32108233333332,69.15746073411475L209.53132466666668,68.87472381550047L212.87104200000002,67.84090612543432L213.33169266666664,66.95144180038017L213.794256,68.66779163938268L214.01114233333334,70.20426024774098L214.472699,67.36388586642661L214.68747133333332,68.42230077416198L214.9037536666667,68.5047362966089L215.35932066666666,68.06373406994511L215.57213,66.56900003632028L221.95042033333334,62.95484275261204L222.171132,64.29118102183065L232.58323633333336,65.38500739243815L233.04746066666667,62.8665257115329L233.51082933333336,60.87518386389958L233.73048400000002,61.61221434114543L234.202812,62.09712443760711L234.4245303333333,62.29883896461027L234.645544,60.55196499830035L235.11666400000001,60.692495062015496L235.338936,60.8116307925642L254.41521899999998,61.68928007748492L254.63381666666666,63.30191069657573L255.10720166666664,61.50934949249316L255.32927233333334,58.95823248986666L255.55043700000002,57.03411892826526L255.77099766666666,55.6041354101298L255.99337033333333,54.676495884776315L256.216045,53.40072521799874L256.44038066666667,53.33074034137206L256.91522533333335,54.547426487065536L257.13764833333335,55.93671322058361L257.35916533333335,53.50926754000068L257.580179,54.87339993024541L258.049487,54.730432335449336L258.5187446666667,52.377413156197136L258.7390536666667,52.995869261976964L258.95669499999997,53.98243287490331L259.17604766666665,55.48634654788792L276.0216076666667,57.92197721977361L276.22993733333334,55.9945742860276L276.442193,56.13171024771478L276.6535426666667,56.70662138933693L276.8333333333333,56.2589145041821" style="fill: none;" fill="none"></path></g></g></g></g><g opacity="0.2"><g><g><g><path stroke="rgb(255, 112, 67)" stroke-width="2px" d="M25.394727,184.22640645503998L25.607989333333336,171.43282717466354L25.807611333333334,187.9752829670906L27.139582333333333,185.25785046815872L31.400903,132.67580169439316L31.402614333333332,134.40326231718063L31.624081,30.127866983413696L32.078943333333335,122.72311127185822L32.29190366666666,87.12976312637329L32.50677666666667,134.5926879644394L32.965716,66.0619386434555L33.42314533333333,53.59860670566559L33.54439833333333,32.66544270515442L33.79158533333333,102.11621725559235L33.90594266666667,148.10268759727478L34.019142333333335,81.0609050989151L34.26904733333333,136.48667013645172L34.37811966666666,168.42694652080536L34.62379666666667,70.76368260383606L34.73417766666667,146.66914004087448L34.979905,172.05402302742004L35.087668666666666,130.1546734571457L35.19971066666667,148.1581490635872L35.44719966666666,75.4478291273117L35.559795333333334,105.58268022537231L35.67143466666667,48.68767690658569L35.781564,141.54771620035172L36.028449,145.643783390522L36.27473,164.4474043250084L39.320551,143.137520134449L39.795748,174.13882344961166L40.267673333333335,59.360437989234924L40.48858633333333,118.39776045084L40.965041666666664,45.529295682907104L56.011587666666664,56.16627109050751L56.23260133333333,87.26282000541687L56.470074,98.29989445209503L56.68942666666667,78.28051006793976L57.157425999999994,115.87059760093689L57.37677866666667,112.5995843410492L59.685417666666666,160.28919750452042L68.09309766666667,142.1148220896721L68.30716533333333,93.60059809684753L84.00542733333333,108.98767876625061L107.55377666666666,137.41595828533173L107.767039,63.1274710893631L107.99993133333334,124.9684197306633L108.45630366666667,17.03541612625122L108.66740166666666,102.47675371170044L108.880966,145.86077624559402L109.33718733333333,123.19135290384293L109.79053966666666,112.3403913974762L110.00410400000001,97.86949574947357L110.216863,74.86791551113129L110.42786033333333,69.44410693645477L110.64036766666668,44.795098543167114L110.85297566666667,123.03757578134537L111.30441533333334,41.112064719200134L111.51616766666666,100.26610207557678L111.96962066666667,156.1672933101654L112.42226833333332,55.253884077072144L112.63366833333333,157.26702761650085L113.08591333333334,106.94407618045807L113.297867,84.47503995895386L119.09480733333334,68.63605964183807L124.12466766666667,152.93553668260574L124.58400966666666,126.70566022396088L124.798329,94.98499310016632L125.01300066666666,84.92027199268341L125.47214133333333,48.277639746665955L125.685756,97.17551529407501L125.90007533333333,84.41427183151245L126.359518,113.50190663337708L126.57479366666668,76.68313121795654L127.03750799999999,56.21530759334564L127.25620633333334,121.04010844230652L127.72239366666666,68.99634289741516L127.941847,143.24767291545868L128.160042,33.324713587760925L128.62497100000002,37.59272503852844L128.843921,99.75151419639587L129.30995733333333,78.62140238285065L129.774685,111.94272941350937L130.24112399999999,94.67480134963989L130.45936933333334,65.7568109035492L130.677212,51.930036306381226L131.14103366666666,72.03983438014984L131.357165,114.05091923475266L131.81826866666665,89.81413185596466L132.279926,51.939046025276184L132.49605733333334,14.734604001045227L132.70911833333335,136.00274062156677L133.16992000000002,25.54054856300354L133.63026866666667,-15.985921025276184L137.79001666666667,131.0413395166397L138.23964433333333,60.91200864315033L138.449484,115.37065315246582L155.48193166666667,135.70357364416122L155.94806866666667,86.05363976955414L156.40645433333333,55.08333241939545L156.627317,51.04047954082489L156.847324,98.29094803333282L157.06526733333334,51.14490365982056L157.53487733333336,97.47735142707825L157.997944,78.48271179199219L158.2140753333333,29.55677318572998L158.43166633333334,51.8058203458786L158.89800466666668,80.89007914066315L159.36318533333335,125.49643778800964L159.82484266666665,88.30560529232025L160.04082300000002,45.4685697555542L160.50177566666667,38.61170947551727L160.71574266666667,97.60141968727112L161.17458133333332,89.72646117210388L161.38905166666666,89.07183229923248L161.848444,24.768139243125916L162.06336733333333,97.10626494884491L162.2779383333333,87.61411464214325L162.73627366666668,64.01639485359192L162.94973733333333,120.2323459982872L163.410086,85.7626701593399L163.62460666666666,111.71449023485184L164.082791,107.2177859544754L164.29706000000002,62.91033053398132L164.75604966666666,133.95337772369385L165.21463666666668,33.75663149356842L165.43157333333332,148.44294691085815L165.64508733333332,111.53634256124496L165.859608,115.84202814102173L166.31960433333333,136.49874991178513L172.09414633333336,102.20424664020538L179.05187400000003,83.22574853897095L179.50708866666668,75.6332141160965L179.71718,81.79928004741669L179.93059333333332,59.21421468257904L180.14491266666667,-17.247766971588135L181.05745599999997,-5.703996062278748L181.27806700000002,80.25224590301514L181.738013,68.62610042095184L181.95424500000001,37.92397463321686L182.17193666666665,114.40888148546219L182.39023233333333,100.34394013881683L182.85506066666665,82.53927969932556L183.318832,115.07525253295898L183.78290533333333,92.40933179855347L183.999691,86.85236084461212L184.21753366666664,93.5600016117096L184.435024,137.0537760257721L184.65211166666668,95.34704875946045L185.115883,98.97005295753479L185.33276933333332,49.93365561962128L185.54970600000001,34.644415855407715L186.01257133333334,69.9226348400116L186.475034,77.1653094291687L186.69302766666667,98.30141365528107L187.1578056666667,124.58573877811432L187.37308133333332,107.16241943836212L187.59132666666665,104.62885272502899L187.8090686666667,122.76645076274872L188.02706233333333,39.16294813156128L188.48882033333334,71.86748921871185L188.945696,77.12905955314636L189.16102199999997,59.474568128585815L189.37579433333332,131.2818061709404L189.83342499999998,82.17631673812866L190.28783433333334,100.42899441719055L190.74420666666666,48.876543402671814L191.201032,15.86516547203064L191.41716333333335,15.488888382911682L191.63334500000002,33.44112253189087L192.09616,57.03656351566315L192.55741466666666,114.37283205986023L193.02224299999997,56.76694715023041L193.48128300000002,81.49326610565186L195.65246166666665,88.80622494220734L196.11210566666665,92.4390617609024L196.32833766666667,122.15273487567902L196.79215933333333,55.52712965011597L197.25542733333333,87.93424451351166L197.471911,92.34972417354584L197.93376966666668,114.26721578836441L198.14974999999998,100.03868579864502L198.364774,57.32324981689453L198.82622999999998,45.80617046356201L199.28803833333333,100.39187943935394L199.75065199999997,110.89016425609589L199.96648133333335,32.21620166301727L200.18321666666665,91.67557775974274L200.40050566666665,82.70457744598389L200.861257,64.12957549095154L201.07764,113.05755025148392L201.53748533333334,95.28545773029327L201.7506973333333,64.17445528507233L201.96647633333333,24.006343245506287L202.42561700000002,113.25115370750427L202.642151,13.954683065414429L203.10365733333333,96.42133641242981L203.562345,56.687315583229065L203.7799863333333,46.35536241531372L203.996923,1.4548269510269165L204.21320533333332,92.12458670139313L204.67456066666665,77.32383406162262L204.89124566666666,79.46310424804688L205.35083933333334,57.86984646320343L205.56500766666667,30.418119192123413L205.77882366666668,89.7187807559967L206.233082,59.689303278923035L206.68663566666666,71.90196669101715L207.14114566666666,106.62949562072754L207.35179066666666,60.76715683937073L207.5641973333333,26.016671061515808L207.77751,69.39863634109497L208.232775,99.48430323600769L208.44513133333334,64.72601044178009L208.65597766666667,57.62398874759674L209.10958166666666,100.71099650859833L209.32108233333332,35.91932272911072L209.53132466666668,64.10860204696655L212.87104200000002,50.41374492645264L213.33169266666664,51.957656264305115L213.794256,97.60047018527985L214.01114233333334,96.10466694831848L214.472699,19.48340106010437L214.68747133333332,86.26411271095276L214.9037536666667,69.89436078071594L215.35932066666666,60.62971115112305L215.57213,41.37210166454315L221.95042033333334,2.0305838584899902L222.171132,86.81798887252808L232.58323633333336,83.82376599311829L233.04746066666667,20.412182807922363L233.51082933333336,27.306896567344666L233.73048400000002,74.0364260673523L234.202812,70.27131307125092L234.4245303333333,65.69916558265686L234.645544,31.10469353199005L235.11666400000001,63.06142795085907L235.338936,62.81991684436798L254.41521899999998,76.48392570018768L254.63381666666666,90.48623156547546L255.10720166666664,31.291914224624634L255.32927233333334,15.953722357749939L255.55043700000002,24.599085688591003L255.77099766666666,31.49871575832367L255.99337033333333,39.039154171943665L256.216045,31.894890189170837L256.44038066666667,52.15099596977234L256.91522533333335,75.05726730823517L257.13764833333335,79.35610592365265L257.35916533333335,12.589489102363586L257.580179,77.86876380443573L258.049487,52.32040822505951L258.5187446666667,12.712249159812927L258.7390536666667,63.4212681055069L258.95669499999997,70.61307048797607L259.17604766666665,80.83802533149719L276.0216076666667,98.97973787784576L276.22993733333334,23.504077792167664L276.442193,58.443430066108704L276.6535426666667,66.39797794818878L276.8333333333333,48.71185755729675" style="fill: none;" fill="none"></path></g></g></g></g></g></g><g transform="translate(28, 177)" clip-path="url(#clip_1)"><clipPath id="clip_1"><rect width="302" height="23"></rect></clipPath><g><g><line x1="0" y1="0" x2="0" y2="5" style="visibility: inherit;" fill="rgb(0, 0, 0)" stroke="rgb(204, 204, 204)" stroke-width="1px"></line><line x1="25.166666666666664" y1="0" x2="25.166666666666664" y2="5" style="visibility: inherit;" fill="rgb(0, 0, 0)" stroke="rgb(204, 204, 204)" stroke-width="1px"></line><line x1="50.33333333333333" y1="0" x2="50.33333333333333" y2="5" style="visibility: inherit;" fill="rgb(0, 0, 0)" stroke="rgb(204, 204, 204)" stroke-width="1px"></line><line x1="75.5" y1="0" x2="75.5" y2="5" style="visibility: inherit;" fill="rgb(0, 0, 0)" stroke="rgb(204, 204, 204)" stroke-width="1px"></line><line x1="100.66666666666666" y1="0" x2="100.66666666666666" y2="5" style="visibility: inherit;" fill="rgb(0, 0, 0)" stroke="rgb(204, 204, 204)" stroke-width="1px"></line><line x1="125.83333333333334" y1="0" x2="125.83333333333334" y2="5" style="visibility: inherit;" fill="rgb(0, 0, 0)" stroke="rgb(204, 204, 204)" stroke-width="1px"></line><line x1="151" y1="0" x2="151" y2="5" style="visibility: inherit;" fill="rgb(0, 0, 0)" stroke="rgb(204, 204, 204)" stroke-width="1px"></line><line x1="176.16666666666669" y1="0" x2="176.16666666666669" y2="5" style="visibility: inherit;" fill="rgb(0, 0, 0)" stroke="rgb(204, 204, 204)" stroke-width="1px"></line><line x1="201.33333333333331" y1="0" x2="201.33333333333331" y2="5" style="visibility: inherit;" fill="rgb(0, 0, 0)" stroke="rgb(204, 204, 204)" stroke-width="1px"></line><line x1="226.5" y1="0" x2="226.5" y2="5" style="visibility: inherit;" fill="rgb(0, 0, 0)" stroke="rgb(204, 204, 204)" stroke-width="1px"></line><line x1="251.66666666666669" y1="0" x2="251.66666666666669" y2="5" style="visibility: inherit;" fill="rgb(0, 0, 0)" stroke="rgb(204, 204, 204)" stroke-width="1px"></line><line x1="276.8333333333333" y1="0" x2="276.8333333333333" y2="5" style="visibility: inherit;" fill="rgb(0, 0, 0)" stroke="rgb(204, 204, 204)" stroke-width="1px"></line><line x1="302" y1="0" x2="302" y2="5" style="visibility: inherit;" fill="rgb(0, 0, 0)" stroke="rgb(204, 204, 204)" stroke-width="1px"></line></g><g transform="translate(0, 8)"><text x="0" y="0" dx="0em" dy="0.95em" style="text-anchor: middle; visibility: hidden; font-family: &quot;Helvetica Neue&quot;, sans-serif; font-size: 12px; font-weight: 200;" fill="rgb(50, 49, 63)" stroke="none" stroke-width="1px">-500k</text><text x="25.166666666666664" y="0" dx="0em" dy="0.95em" style="text-anchor: middle; visibility: inherit; font-family: &quot;Helvetica Neue&quot;, sans-serif; font-size: 12px; font-weight: 200;" fill="rgb(50, 49, 63)" stroke="none" stroke-width="1px">0</text><text x="50.33333333333333" y="0" dx="0em" dy="0.95em" style="text-anchor: middle; visibility: hidden; font-family: &quot;Helvetica Neue&quot;, sans-serif; font-size: 12px; font-weight: 200;" fill="rgb(50, 49, 63)" stroke="none" stroke-width="1px">500k</text><text x="75.5" y="0" dx="0em" dy="0.95em" style="text-anchor: middle; visibility: inherit; font-family: &quot;Helvetica Neue&quot;, sans-serif; font-size: 12px; font-weight: 200;" fill="rgb(50, 49, 63)" stroke="none" stroke-width="1px">1M</text><text x="100.66666666666666" y="0" dx="0em" dy="0.95em" style="text-anchor: middle; visibility: hidden; font-family: &quot;Helvetica Neue&quot;, sans-serif; font-size: 12px; font-weight: 200;" fill="rgb(50, 49, 63)" stroke="none" stroke-width="1px">1.5M</text><text x="125.83333333333334" y="0" dx="0em" dy="0.95em" style="text-anchor: middle; visibility: inherit; font-family: &quot;Helvetica Neue&quot;, sans-serif; font-size: 12px; font-weight: 200;" fill="rgb(50, 49, 63)" stroke="none" stroke-width="1px">2M</text><text x="151" y="0" dx="0em" dy="0.95em" style="text-anchor: middle; visibility: hidden; font-family: &quot;Helvetica Neue&quot;, sans-serif; font-size: 12px; font-weight: 200;" fill="rgb(50, 49, 63)" stroke="none" stroke-width="1px">2.5M</text><text x="176.16666666666669" y="0" dx="0em" dy="0.95em" style="text-anchor: middle; visibility: inherit; font-family: &quot;Helvetica Neue&quot;, sans-serif; font-size: 12px; font-weight: 200;" fill="rgb(50, 49, 63)" stroke="none" stroke-width="1px">3M</text><text x="201.33333333333331" y="0" dx="0em" dy="0.95em" style="text-anchor: middle; visibility: hidden; font-family: &quot;Helvetica Neue&quot;, sans-serif; font-size: 12px; font-weight: 200;" fill="rgb(50, 49, 63)" stroke="none" stroke-width="1px">3.5M</text><text x="226.5" y="0" dx="0em" dy="0.95em" style="text-anchor: middle; visibility: inherit; font-family: &quot;Helvetica Neue&quot;, sans-serif; font-size: 12px; font-weight: 200;" fill="rgb(50, 49, 63)" stroke="none" stroke-width="1px">4M</text><text x="251.66666666666669" y="0" dx="0em" dy="0.95em" style="text-anchor: middle; visibility: hidden; font-family: &quot;Helvetica Neue&quot;, sans-serif; font-size: 12px; font-weight: 200;" fill="rgb(50, 49, 63)" stroke="none" stroke-width="1px">4.5M</text><text x="276.8333333333333" y="0" dx="0em" dy="0.95em" style="text-anchor: middle; visibility: inherit; font-family: &quot;Helvetica Neue&quot;, sans-serif; font-size: 12px; font-weight: 200;" fill="rgb(50, 49, 63)" stroke="none" stroke-width="1px">5M</text><text x="302" y="0" dx="0em" dy="0.95em" style="text-anchor: middle; visibility: hidden; font-family: &quot;Helvetica Neue&quot;, sans-serif; font-size: 12px; font-weight: 200;" fill="rgb(50, 49, 63)" stroke="none" stroke-width="1px">5.5M</text></g><line x1="0" y1="0" x2="302" y2="0" fill="rgb(0, 0, 0)" stroke="rgb(204, 204, 204)" stroke-width="1px"></line></g></g></g></g></svg>