<svg viewBox="0 0 330 200" xmlns="http://www.w3.org/2000/svg"><g><g><g><g><g><line x1="46" y1="177" x2="41" y2="177" style="visibility: inherit;" fill="rgb(0, 0, 0)" stroke="rgb(204, 204, 204)" stroke-width="1px"></line><line x1="46" y1="160.9090909090909" x2="41" y2="160.9090909090909" style="visibility: inherit;" fill="rgb(0, 0, 0)" stroke="rgb(204, 204, 204)" stroke-width="1px"></line><line x1="46" y1="144.8181818181818" x2="41" y2="144.8181818181818" style="visibility: inherit;" fill="rgb(0, 0, 0)" stroke="rgb(204, 204, 204)" stroke-width="1px"></line><line x1="46" y1="128.72727272727272" x2="41" y2="128.72727272727272" style="visibility: inherit;" fill="rgb(0, 0, 0)" stroke="rgb(204, 204, 204)" stroke-width="1px"></line><line x1="46" y1="112.63636363636364" x2="41" y2="112.63636363636364" style="visibility: inherit;" fill="rgb(0, 0, 0)" stroke="rgb(204, 204, 204)" stroke-width="1px"></line><line x1="46" y1="96.54545454545455" x2="41" y2="96.54545454545455" style="visibility: inherit;" fill="rgb(0, 0, 0)" stroke="rgb(204, 204, 204)" stroke-width="1px"></line><line x1="46" y1="80.45454545454547" x2="41" y2="80.45454545454547" style="visibility: inherit;" fill="rgb(0, 0, 0)" stroke="rgb(204, 204, 204)" stroke-width="1px"></line><line x1="46" y1="64.36363636363639" x2="41" y2="64.36363636363639" style="visibility: inherit;" fill="rgb(0, 0, 0)" stroke="rgb(204, 204, 204)" stroke-width="1px"></line><line x1="46" y1="48.27272727272728" x2="41" y2="48.27272727272728" style="visibility: inherit;" fill="rgb(0, 0, 0)" stroke="rgb(204, 204, 204)" stroke-width="1px"></line><line x1="46" y1="32.18181818181819" x2="41" y2="32.18181818181819" style="visibility: inherit;" fill="rgb(0, 0, 0)" stroke="rgb(204, 204, 204)" stroke-width="1px"></line><line x1="46" y1="16.090909090909093" x2="41" y2="16.090909090909093" style="visibility: inherit;" fill="rgb(0, 0, 0)" stroke="rgb(204, 204, 204)" stroke-width="1px"></line><line x1="46" y1="0" x2="41" y2="0" style="visibility: inherit;" fill="rgb(0, 0, 0)" stroke="rgb(204, 204, 204)" stroke-width="1px"></line></g><g transform="translate(36, 0)"><text x="0" y="177" dx="0em" dy="0.3em" style="text-anchor: end; visibility: hidden; font-family: &quot;Helvetica Neue&quot;, sans-serif; font-size: 12px; font-weight: 200;" fill="rgb(50, 49, 63)" stroke="none" stroke-width="1px">-0.2</text><text x="0" y="160.9090909090909" dx="0em" dy="0.3em" style="text-anchor: end; visibility: inherit; font-family: &quot;Helvetica Neue&quot;, sans-serif; font-size: 12px; font-weight: 200;" fill="rgb(50, 49, 63)" stroke="none" stroke-width="1px">0</text><text x="0" y="144.8181818181818" dx="0em" dy="0.3em" style="text-anchor: end; visibility: hidden; font-family: &quot;Helvetica Neue&quot;, sans-serif; font-size: 12px; font-weight: 200;" fill="rgb(50, 49, 63)" stroke="none" stroke-width="1px">0.2</text><text x="0" y="128.72727272727272" dx="0em" dy="0.3em" style="text-anchor: end; visibility: inherit; font-family: &quot;Helvetica Neue&quot;, sans-serif; font-size: 12px; font-weight: 200;" fill="rgb(50, 49, 63)" stroke="none" stroke-width="1px">0.4</text><text x="0" y="112.63636363636364" dx="0em" dy="0.3em" style="text-anchor: end; visibility: hidden; font-family: &quot;Helvetica Neue&quot;, sans-serif; font-size: 12px; font-weight: 200;" fill="rgb(50, 49, 63)" stroke="none" stroke-width="1px">0.6</text><text x="0" y="96.54545454545455" dx="0em" dy="0.3em" style="text-anchor: end; visibility: inherit; font-family: &quot;Helvetica Neue&quot;, sans-serif; font-size: 12px; font-weight: 200;" fill="rgb(50, 49, 63)" stroke="none" stroke-width="1px">0.8</text><text x="0" y="80.45454545454547" dx="0em" dy="0.3em" style="text-anchor: end; visibility: hidden; font-family: &quot;Helvetica Neue&quot;, sans-serif; font-size: 12px; font-weight: 200;" fill="rgb(50, 49, 63)" stroke="none" stroke-width="1px">1</text><text x="0" y="64.36363636363639" dx="0em" dy="0.3em" style="text-anchor: end; visibility: inherit; font-family: &quot;Helvetica Neue&quot;, sans-serif; font-size: 12px; font-weight: 200;" fill="rgb(50, 49, 63)" stroke="none" stroke-width="1px">1.2</text><text x="0" y="48.27272727272728" dx="0em" dy="0.3em" style="text-anchor: end; visibility: hidden; font-family: &quot;Helvetica Neue&quot;, sans-serif; font-size: 12px; font-weight: 200;" fill="rgb(50, 49, 63)" stroke="none" stroke-width="1px">1.4</text><text x="0" y="32.18181818181819" dx="0em" dy="0.3em" style="text-anchor: end; visibility: inherit; font-family: &quot;Helvetica Neue&quot;, sans-serif; font-size: 12px; font-weight: 200;" fill="rgb(50, 49, 63)" stroke="none" stroke-width="1px">1.6</text><text x="0" y="16.090909090909093" dx="0em" dy="0.3em" style="text-anchor: end; visibility: hidden; font-family: &quot;Helvetica Neue&quot;, sans-serif; font-size: 12px; font-weight: 200;" fill="rgb(50, 49, 63)" stroke="none" stroke-width="1px">1.8</text><text x="0" y="0" dx="0em" dy="0.3em" style="text-anchor: end; visibility: hidden; font-family: &quot;Helvetica Neue&quot;, sans-serif; font-size: 12px; font-weight: 200;" fill="rgb(50, 49, 63)" stroke="none" stroke-width="1px">2</text></g><line x1="46" y1="0" x2="46" y2="177" fill="rgb(0, 0, 0)" stroke="rgb(204, 204, 204)" stroke-width="1px"></line></g></g><g transform="translate(46, 0)" clip-path="url(#clip_0)"><clipPath id="clip_0"><rect width="284" height="177"></rect></clipPath><g><g><g><line x1="0" y1="0" x2="0" y2="177" fill="rgb(0, 0, 0)" stroke="rgb(60, 60, 60)" stroke-width="1px" opacity="0.25"></line><line x1="23.666666666666664" y1="0" x2="23.666666666666664" y2="177" fill="rgb(0, 0, 0)" stroke="rgb(60, 60, 60)" stroke-width="1px" opacity="0.25"></line><line x1="47.33333333333333" y1="0" x2="47.33333333333333" y2="177" fill="rgb(0, 0, 0)" stroke="rgb(60, 60, 60)" stroke-width="1px" opacity="0.25"></line><line x1="71" y1="0" x2="71" y2="177" fill="rgb(0, 0, 0)" stroke="rgb(60, 60, 60)" stroke-width="1px" opacity="0.25"></line><line x1="94.66666666666666" y1="0" x2="94.66666666666666" y2="177" fill="rgb(0, 0, 0)" stroke="rgb(60, 60, 60)" stroke-width="1px" opacity="0.25"></line><line x1="118.33333333333334" y1="0" x2="118.33333333333334" y2="177" fill="rgb(0, 0, 0)" stroke="rgb(60, 60, 60)" stroke-width="1px" opacity="0.25"></line><line x1="142" y1="0" x2="142" y2="177" fill="rgb(0, 0, 0)" stroke="rgb(60, 60, 60)" stroke-width="1px" opacity="0.25"></line><line x1="165.66666666666669" y1="0" x2="165.66666666666669" y2="177" fill="rgb(0, 0, 0)" stroke="rgb(60, 60, 60)" stroke-width="1px" opacity="0.25"></line><line x1="189.33333333333331" y1="0" x2="189.33333333333331" y2="177" fill="rgb(0, 0, 0)" stroke="rgb(60, 60, 60)" stroke-width="1px" opacity="0.25"></line><line x1="213" y1="0" x2="213" y2="177" fill="rgb(0, 0, 0)" stroke="rgb(60, 60, 60)" stroke-width="1px" opacity="0.25"></line><line x1="236.66666666666669" y1="0" x2="236.66666666666669" y2="177" fill="rgb(0, 0, 0)" stroke="rgb(60, 60, 60)" stroke-width="1px" opacity="0.25"></line><line x1="260.3333333333333" y1="0" x2="260.3333333333333" y2="177" fill="rgb(0, 0, 0)" stroke="rgb(60, 60, 60)" stroke-width="1px" opacity="0.25"></line><line x1="284" y1="0" x2="284" y2="177" fill="rgb(0, 0, 0)" stroke="rgb(60, 60, 60)" stroke-width="1px" opacity="0.25"></line></g><g><line x1="0" y1="177" x2="284" y2="177" fill="rgb(0, 0, 0)" stroke="rgb(60, 60, 60)" stroke-width="1px" opacity="0.25"></line><line x1="0" y1="160.9090909090909" x2="284" y2="160.9090909090909" fill="rgb(0, 0, 0)" stroke="rgb(60, 60, 60)" stroke-width="1px" opacity="0.25"></line><line x1="0" y1="144.8181818181818" x2="284" y2="144.8181818181818" fill="rgb(0, 0, 0)" stroke="rgb(60, 60, 60)" stroke-width="1px" opacity="0.25"></line><line x1="0" y1="128.72727272727272" x2="284" y2="128.72727272727272" fill="rgb(0, 0, 0)" stroke="rgb(60, 60, 60)" stroke-width="1px" opacity="0.25"></line><line x1="0" y1="112.63636363636364" x2="284" y2="112.63636363636364" fill="rgb(0, 0, 0)" stroke="rgb(60, 60, 60)" stroke-width="1px" opacity="0.25"></line><line x1="0" y1="96.54545454545455" x2="284" y2="96.54545454545455" fill="rgb(0, 0, 0)" stroke="rgb(60, 60, 60)" stroke-width="1px" opacity="0.25"></line><line x1="0" y1="80.45454545454547" x2="284" y2="80.45454545454547" fill="rgb(0, 0, 0)" stroke="rgb(60, 60, 60)" stroke-width="1px" opacity="0.25"></line><line x1="0" y1="64.36363636363639" x2="284" y2="64.36363636363639" fill="rgb(0, 0, 0)" stroke="rgb(60, 60, 60)" stroke-width="1px" opacity="0.25"></line><line x1="0" y1="48.27272727272728" x2="284" y2="48.27272727272728" fill="rgb(0, 0, 0)" stroke="rgb(60, 60, 60)" stroke-width="1px" opacity="0.25"></line><line x1="0" y1="32.18181818181819" x2="284" y2="32.18181818181819" fill="rgb(0, 0, 0)" stroke="rgb(60, 60, 60)" stroke-width="1px" opacity="0.25"></line><line x1="0" y1="16.090909090909093" x2="284" y2="16.090909090909093" fill="rgb(0, 0, 0)" stroke="rgb(60, 60, 60)" stroke-width="1px" opacity="0.25"></line><line x1="0" y1="0" x2="284" y2="0" fill="rgb(0, 0, 0)" stroke="rgb(60, 60, 60)" stroke-width="1px" opacity="0.25"></line></g></g></g><g><g><line x1="0" y1="160.9090909090909" x2="284" y2="160.9090909090909" fill="rgb(0, 0, 0)" stroke="rgb(153, 153, 153)" stroke-width="1.5px"></line></g></g><g><g><line x1="23.666666666666664" y1="0" x2="23.666666666666664" y2="177" fill="rgb(0, 0, 0)" stroke="rgb(153, 153, 153)" stroke-width="1.5px"></line></g></g><g><g><g><g><g><path stroke="rgb(255, 112, 67)" stroke-width="2px" d="M24.689682,-2.2259702621913107L25.10451133333333,19.401085328646758L25.521991333333332,20.2774461168853L29.529326,38.32148922539184L29.530935333333332,26.245165240008646L29.739202000000002,35.794801081713274L30.166953333333336,35.28599449128723L30.367220666666665,40.29984357312014L30.569286666666667,55.20834253579983L31.000872,38.35039578826601L31.431037333333332,20.33431773380488L31.545063333333335,20.839128131862736L31.777517333333332,31.145156157989163L31.885058666666666,38.552962526518826L31.991511333333335,32.74250887986295L32.22652133333333,53.98701567777452L32.32909266666667,55.30054115448111L32.56012666666667,-131.9715227443408L32.66392866666666,10.79672549174677L32.89501,26.92218274932091L32.996350666666665,34.310308632995515L33.101714666666666,24.818454162122606L33.334452666666664,-19.84076366048069L33.44033733333333,41.91302090060225L33.54532266666667,-2.713823691204567L33.648888,57.06760698078202L33.881058,47.63021087115024L34.11266,51.039838905777955L36.976942,27.574608438856927L37.423816,51.33949114756258L37.86761333333333,37.539207500339955L38.07535933333333,19.346116009047563L38.52341666666666,44.72716976555563L52.67314866666667,34.305705601334694L52.88098933333333,43.15389862683003L53.104307999999996,34.33059860023954L53.31058666666667,29.861785161823292L53.750691999999994,34.257121117952806L53.95697066666667,24.624684608654377L56.128008666666666,47.36625266919083L64.03456866666667,43.41008325241654L64.23587733333333,25.45262229295639L78.99848133333333,70.7178780304625L101.14328666666667,80.50952871196016L101.343838,69.03804050359537L101.56284933333333,27.783850262053022L101.99202066666666,72.53049873589914L102.19053666666667,67.29963867456904L102.391372,61.60411301001663L102.82040133333334,77.90218859717562L103.24673266666666,56.706445075629716L103.447568,74.77815962733482L103.64764600000001,64.68239158898426L103.84606733333332,76.64252956655746L104.04590866666668,72.32998542650556L104.24584466666667,78.49505900290268L104.67037733333333,64.17589610432825L104.86950866666666,68.60926738320853L105.29593466666667,58.2786989364043L105.72160333333332,72.60858632927216L105.92040333333334,75.1486460387365L106.34569333333333,75.54055277626404L106.545014,66.45353595909879L111.99644133333334,62.84544812770076L116.72650866666666,67.35992395430873L117.15847266666667,64.21617118740522L117.360018,62.447780580994774L117.56189466666666,69.48668813990204L117.99366933333333,65.00658479249722L118.194552,58.52146995597134L118.39609733333333,75.71200690814483L118.82815599999999,84.29063793604026L119.03060066666667,74.1023562377088L119.46573599999999,55.61945084942846L119.67139933333333,74.10982901194733L120.10980066666667,61.53884558571292L120.31617399999999,71.55860496743134L120.521364,69.59456080350179L120.958582,58.930026657423724L121.164482,68.34669547633654L121.60274133333333,70.70154961073786L122.03976999999999,65.6437789719641L122.47840799999999,69.99418443466078L122.68364533333335,75.84628737937524L122.888504,60.72413097006037L123.32468066666667,63.40623393249527L123.52793,69.2115427021991L123.96155066666665,74.91593391514945L124.395692,67.37071275875688L124.59894133333333,62.12793147796482L124.79930333333334,74.21745705202059L125.23264,65.98667294012792L125.66555066666666,77.70504988778721L129.57736666666668,91.93196946603949L130.00019533333332,86.60263397489477L130.197528,85.60158497768224L146.21479666666667,86.381881095362L146.65315066666668,83.86577394902763L147.08421533333333,80.59504185679182L147.291914,81.00265064652956L147.498808,82.85034579467585L147.70376133333335,83.17018892021612L148.14538133333335,86.69428650961513L148.580848,84.43246325416462L148.78409733333334,74.36376578428045L148.98871933333334,77.00745077783367L149.42726266666668,79.99986593076528L149.86471733333335,86.04892786638419L150.29885866666666,93.9948469952463L150.501966,91.7265403059291L150.93544466666665,80.78555753418215L151.13665866666668,83.06433288782054L151.56814933333334,86.54420464288724L151.76983666666666,86.79829407146339L152.201848,83.40874772006975L152.40396133333334,72.0352275361219L152.60574333333332,85.85510785717148L153.03676066666668,86.69143852612949L153.23750133333334,78.15815134544695L153.670412,85.92361991910022L153.87214666666665,92.22357749578187L154.303022,83.56001632395702L154.50452,84.01973640652713L154.93615266666666,94.80191657092827L155.36740666666668,14.736024417930366L155.57141333333334,84.56108303146353L155.77220133333333,86.81645004719343L155.973936,80.88554637921665L156.40651533333332,90.46198264188949L161.83687933333334,92.74519066938063L168.37990800000003,85.64646973308317L168.80799066666668,86.62392691591091L169.00556,83.9091598926029L169.20625333333334,68.84562367987066L169.40779866666668,72.55438294390814L169.83720666666667,85.07196164631235L170.265952,84.37613258050028L170.47341400000002,91.3689436337859L170.905946,95.01770421768244L171.10929000000002,82.73301548471929L171.31400666666667,88.63504520666122L171.5192913333333,92.09904316123848L171.95641466666666,85.15129372064605L172.392544,100.11939848405036L172.82895733333334,97.36221399280038L173.032822,100.15960049153229L173.23768066666665,96.525207043711L173.44220800000002,97.870445012537L173.6463566666667,103.68706565427226L174.082486,97.99038446097823L174.28644533333332,90.40222989582078L174.490452,96.40367167062705L174.92572933333332,98.23910894506963L175.360628,84.44318824942778L175.56562866666667,87.98246727646868L176.0027046666667,101.42695057794194L176.20514933333334,100.19448439706042L176.41038666666665,99.00260613915837L176.61515066666666,101.8159129521745L176.82015133333334,96.47760650900622L177.25438733333334,90.16398930681956L177.684032,98.36250917243656L177.88652399999998,94.72774340346984L178.08849533333333,98.66886853629815L178.51885,92.11505351036237L178.94617533333334,103.27030606168087L179.37534666666664,99.1632454831447L179.804944,99.27469609856998L180.00819333333334,95.84910464551098L180.21149000000003,86.47830870475998L180.64672,101.7895586405228L181.08048266666665,84.48873741345349L181.51760599999997,100.35287314649793L181.949286,101.20153571748388L183.99105666666665,100.02778345423788L184.42330466666667,98.42036075677493L184.62664866666668,96.55932364270005L185.06282533333334,97.92439318994644L185.49848133333333,94.46720823442281L185.70206199999998,100.48890606600578L186.13639266666667,98.51241433481077L186.3395,101.1068500880724L186.541708,92.94642883330917L186.97566,92.9364535839509L187.40994333333333,92.39383822024317L187.84498399999998,95.58529064124238L188.04794933333335,99.5402766434253L188.25176666666667,88.06150600311705L188.45610466666665,92.18179189161587L188.88939399999998,93.44062248082227L189.09287999999998,85.86231094090063L189.52531733333333,89.72696012855593L189.72582133333333,93.2448155409736L189.92873933333334,98.45890157698983L190.36051400000002,93.42681280643927L190.564142,68.51766768764004L190.99814133333334,98.16352439753585L191.42949000000002,78.32247440478204L191.63415933333332,89.10631553620173L191.838166,101.02431695931095L192.04155733333332,101.98946182220652L192.47541466666667,94.02893051101374L192.67918466666669,95.37207664190896L193.11138533333335,95.9540496258329L193.31278866666668,90.68202044020765L193.5138606666667,87.44819569153852L193.941044,100.495604859976L194.36756466666668,96.00874384541137L194.79498466666666,97.38408154494432L194.99307466666667,93.1120121768358L195.1928213333333,93.97509071216035L195.39342,96.65681269128414L195.82155,98.04089413512422L196.02124933333334,92.23485235697272L196.21952866666666,101.29999844530181L196.64609666666666,99.66568746036084L196.84499133333333,102.37865581677383L197.04270266666668,98.61980847837502L200.183364,103.06065461770334L200.61655866666666,105.57213727184573L201.051552,104.06202394021926L201.25551133333335,104.89727119170858L201.689558,102.94297949229116L201.89152933333332,94.87614983413859L202.09492066666667,103.16590807611611L202.52333466666664,103.63592476190425L202.72346,107.2466184280963L208.72158733333333,106.69427099783566L208.929144,101.91539273522577L218.72065933333334,107.96615889674838L219.15721466666665,90.10377867079394L219.59296533333335,102.92058784386226L219.799528,107.24928448957338L220.243704,104.78753812499338L220.45220733333332,103.23946990522579L220.660048,107.27639007156382L221.103088,106.28289293015551L221.31211199999998,108.06437707432053L239.251398,107.42465348515661L239.45696666666666,106.05608598762957L239.90213666666665,104.88277522803361L240.11097133333334,105.61527381042058L240.31895400000002,108.83268986543251L240.52636866666666,107.60716183171728L240.73548733333334,109.66604346795921L240.94489000000002,99.41188271630067L241.15585466666667,106.68270583769805L241.60239733333333,107.32360725524491L241.81156333333334,106.72989209644552L242.01987733333334,105.15575349930661L242.227718,105.20828618670734L242.669054,103.81455728831877L243.11034266666667,102.76969036285685L243.31752066666667,109.71161436571387L243.52219,107.82105403136086L243.72846866666669,106.56633253742561L259.56998866666663,110.06477306837104L259.7659013333333,110.15841698721077L259.965506,107.01735840921623L260.1642586666667,109.54876562019135L260.3333333333333,108.42682679117024" style="fill: none;" fill="none"></path></g></g></g></g><g opacity="0.2"><g><g><g><path stroke="rgb(255, 112, 67)" stroke-width="2px" d="M24.269409333333332,-27.386399615894646L24.689682,1.0495449738068885L25.10451133333333,21.697568730874508L25.521991333333332,20.370510220527677L29.529326,40.23766929453069L29.530935333333332,24.962723851203947L29.739202000000002,36.80892169475558L30.166953333333336,35.23196193304929L30.367220666666665,40.83228772336787L30.569286666666667,56.7915459654548L31.000872,36.56017135490072L31.431037333333332,18.421105905012666L31.545063333333335,20.892736315727262L31.777517333333332,32.23960161209109L31.885058666666666,39.33963222937152L31.991511333333335,32.12546955455434L32.22652133333333,56.243069497021764L32.32909266666667,55.44003058563581L32.56012666666667,-151.8588215654546L32.66392866666666,25.957955392924248L32.89501,28.63462068817833L32.996350666666665,35.09488837285477L33.101714666666666,23.810469616543173L33.334452666666664,-24.58333546465093L33.44033733333333,48.47094492478806L33.54532266666667,-7.452957630157471L33.648888,63.41607749462129L33.881058,46.62800951437518L34.11266,51.40192329883577L36.976942,25.082725557413994L37.423816,53.86319550600919L37.86761333333333,36.07369065284732L38.07535933333333,17.414106293158113L38.52341666666666,47.422502907839714L52.67314866666667,33.199001442302375L52.88098933333333,44.09352974458176L53.104307999999996,33.39361098679632L53.31058666666667,29.387220902876436L53.750691999999994,34.72388245842674L53.95697066666667,23.601770997047453L56.128008666666666,49.78128644553098L64.03456866666667,42.98995906656438L64.23587733333333,23.545635288411916L78.99848133333333,75.52480784329502L101.14328666666667,81.54935002326967L101.343838,67.81982936642389L101.56284933333333,23.40287430719897L101.99202066666666,77.28235521099786L102.19053666666667,66.744149110534L102.391372,60.99927842617036L102.82040133333334,79.63295768607746L103.24673266666666,54.455569657412454L103.447568,76.69727975671942L103.64764600000001,63.61027462915942L103.84606733333332,77.91263271461835L104.04590866666668,71.87201613729651L104.24584466666667,79.14975708181208L104.67037733333333,62.655277035453125L104.86950866666666,69.08006787300111L105.29593466666667,57.18164741992952L105.72160333333332,74.13034428249708L105.92040333333334,75.41838689283892L106.34569333333333,75.58217119086875L106.545014,65.48854302276267L111.99644133333334,62.46228835799478L116.72650866666666,67.83933731642637L117.15847266666667,63.88232133605264L117.360018,62.25998688827863L117.56189466666666,70.23418274792759L117.99366933333333,64.5308216051622L118.194552,57.83278519457038L118.39609733333333,77.5375506552783L118.82815599999999,85.20164300094953L119.03060066666667,73.02041481841697L119.46573599999999,53.656664436513736L119.67139933333333,76.07340899380772L120.10980066666667,60.203873894431396L120.31617399999999,72.62265021150763L120.521364,69.38598974184558L120.958582,57.797509756955236L121.164482,69.34669570489365L121.60274133333333,70.95162261616102L122.03976999999999,65.10667058554563L122.47840799999999,70.45617439530115L122.68364533333335,76.46774963899094L122.888504,59.11823825402695L123.32468066666667,63.691059025851175L123.52793,69.8280356688933L123.96155066666665,75.52170997316188L124.395692,66.56945033506915L124.59894133333333,61.57117594372144L124.79930333333334,75.50130047581415L125.23264,65.1126073707234L125.66555066666666,78.94947929815814L129.57736666666668,93.44279278408398L130.00019533333332,86.0366868430918L130.197528,85.49527888948268L146.21479666666667,86.46474439989439L146.65315066666668,83.59857672994788L147.08421533333333,80.24770747531544L147.291914,81.04593653570524L147.498808,83.04656120863828L147.70376133333335,83.20415456186643L148.14538133333335,87.0685269615867L148.580848,84.1922696341168L148.78409733333334,73.2945235750892L148.98871933333334,77.28819608688356L149.42726266666668,80.31764453107661L149.86471733333335,86.691306125034L150.29885866666666,94.83866141601044L150.501966,91.48565817962994L150.93544466666665,79.62368325753647L151.13665866666668,83.30632673068482L151.56814933333334,86.91374854608017L151.76983666666666,86.82527701963078L152.201848,83.048795895143L152.40396133333334,70.82742008295926L152.60574333333332,87.32270576737146L153.03676066666668,86.78025240247901L153.23750133333334,77.25196155634794L153.670412,86.74827144904572L153.87214666666665,92.8925995393233L154.303022,82.639992128719L154.50452,84.06855623830448L154.93615266666666,95.94692685387352L155.36740666666668,6.233451799912899L155.57141333333334,91.97613350369714L155.77220133333333,87.05595804886386L155.973936,80.25571590120143L156.40651533333332,91.47894932465121L161.83687933333334,92.98765523867175L168.37990800000003,84.89262326197192L168.80799066666668,86.72772767868909L169.00556,83.62086604941975L169.20625333333334,67.24595611745661L169.40779866666668,72.94823348522188L169.83720666666667,86.40126203948802L170.265952,84.30223922837864L170.47341400000002,92.11154303767465L170.905946,95.40518321774223L171.10929000000002,81.42844676971437L171.31400666666667,89.26180942492053L171.5192913333333,92.4669013511051L171.95641466666666,84.41347962076014L172.392544,101.70893173326147L172.82895733333334,97.06941563974728L173.032822,100.456668084318L173.23768066666665,96.13925375721672L173.44220800000002,98.01330214196986L173.6463566666667,104.30475988171318L174.082486,97.38542716611516L174.28644533333332,89.59640817208725L174.490452,97.04099292104895L174.92572933333332,98.4340226379308L175.360628,82.97813472422688L175.56562866666667,88.35831991650842L176.0027046666667,102.85468331792138L176.20514933333334,100.06360303271902L176.41038666666665,98.8760349967263L176.61515066666666,102.11467119780454L176.82015133333334,95.91070670973171L177.25438733333334,89.4935166835785L177.684032,99.23314845020121L177.88652399999998,94.34175057844683L178.08849533333333,99.08739509907636L178.51885,91.41907315362585L178.94617533333334,104.45493465120143L179.37534666666664,98.72709745710547L179.804944,99.28653156215495L180.00819333333334,95.48532502217728L180.21149000000003,85.48317993229087L180.64672,103.41553208502857L181.08048266666665,82.65148206190631L181.51760599999997,102.03756012699822L181.949286,101.29165917634965L183.99105666666665,99.90313719619405L184.42330466666667,98.24966100129215L184.62664866666668,96.36169138279828L185.06282533333334,98.06935632770713L185.49848133333333,94.1000735488805L185.70206199999998,101.12837840210308L186.13639266666667,98.30252140760423L186.3395,101.38236538930374L186.541708,92.07983542572369L186.97566,92.93539426543497L187.40994333333333,92.33621534976093L187.84498399999998,95.92420594258743L188.04794933333335,99.96027515693146L188.25176666666667,86.84252151034097L188.45610466666665,92.61934437535027L188.88939399999998,93.57430360533975L189.09287999999998,85.05753449418329L189.52531733333333,90.13736535202374L189.72582133333333,93.61839310689408L189.92873933333334,99.0126098286022L190.36051400000002,92.89243169806221L190.564142,65.87244873697108L190.99814133333334,101.31175696849824L191.42949000000002,76.21546024625952L191.63415933333332,90.25150220502508L191.838166,102.28994542902167L192.04155733333332,102.09195508198306L192.47541466666667,93.18356435407293L192.67918466666669,95.51471162926067L193.11138533333335,96.01585206660359L193.31278866666668,90.12215893376958L193.5138606666667,87.10478067398073L193.941044,101.88117043538529L194.36756466666668,95.5322630297054L194.79498466666666,97.53013510595669L194.99307466666667,92.65834109349686L195.1928213333333,94.06674506989393L195.39342,96.94159732623535L195.82155,98.18787623535503L196.02124933333334,91.61828154867347L196.21952866666666,102.26266882636331L196.64609666666666,99.49213231151755L196.84499133333333,102.66675865108317L197.04270266666668,98.22063884951852L200.183364,103.532248897986L200.61655866666666,105.83884339440954L201.051552,103.90165792270142L201.25551133333335,104.98597001487559L201.689558,102.73544409058312L201.89152933333332,94.01949535716665L202.09492066666667,104.04623638499868L202.52333466666664,103.68583803827113L202.72346,107.63005492362109L208.72158733333333,106.6356146335602L208.929144,101.40790123831142L218.72065933333334,108.60871813514017L219.15721466666665,88.20688873529436L219.59296533333335,104.2816649241881L219.799528,107.70896908911791L220.243704,104.52611373229462L220.45220733333332,103.07507328011773L220.660048,107.7050895582546L221.103088,106.17738880894402L221.31211199999998,108.25356123122302L239.251398,107.35671823674983L239.45696666666666,105.91075138612229L239.90213666666665,104.75817585533316L240.11097133333334,105.69306127049707L240.31895400000002,109.17436236684973L240.52636866666666,107.47701726176523L240.73548733333334,109.88468576561321L240.94489000000002,98.32294529134577L241.15585466666667,107.45482864705L241.60239733333333,107.391667582772L241.81156333333334,106.66684269905092L242.01987733333334,104.9885883385485L242.227718,105.21386487917468L242.669054,103.66655067964035L243.11034266666667,102.65873104333879L243.31752066666667,110.44880983504382L243.52219,107.62028656222604L243.72846866666669,106.43308777700771L259.56998866666663,110.43628887696701L259.7659013333333,110.16836147416723L259.965506,106.68379466642034L260.1642586666667,109.81758762489666L260.3333333333333,108.30768284472552" style="fill: none;" fill="none"></path></g></g></g></g></g></g><g transform="translate(46, 177)" clip-path="url(#clip_1)"><clipPath id="clip_1"><rect width="284" height="23"></rect></clipPath><g><g><line x1="0" y1="0" x2="0" y2="5" style="visibility: inherit;" fill="rgb(0, 0, 0)" stroke="rgb(204, 204, 204)" stroke-width="1px"></line><line x1="23.666666666666664" y1="0" x2="23.666666666666664" y2="5" style="visibility: inherit;" fill="rgb(0, 0, 0)" stroke="rgb(204, 204, 204)" stroke-width="1px"></line><line x1="47.33333333333333" y1="0" x2="47.33333333333333" y2="5" style="visibility: inherit;" fill="rgb(0, 0, 0)" stroke="rgb(204, 204, 204)" stroke-width="1px"></line><line x1="71" y1="0" x2="71" y2="5" style="visibility: inherit;" fill="rgb(0, 0, 0)" stroke="rgb(204, 204, 204)" stroke-width="1px"></line><line x1="94.66666666666666" y1="0" x2="94.66666666666666" y2="5" style="visibility: inherit;" fill="rgb(0, 0, 0)" stroke="rgb(204, 204, 204)" stroke-width="1px"></line><line x1="118.33333333333334" y1="0" x2="118.33333333333334" y2="5" style="visibility: inherit;" fill="rgb(0, 0, 0)" stroke="rgb(204, 204, 204)" stroke-width="1px"></line><line x1="142" y1="0" x2="142" y2="5" style="visibility: inherit;" fill="rgb(0, 0, 0)" stroke="rgb(204, 204, 204)" stroke-width="1px"></line><line x1="165.66666666666669" y1="0" x2="165.66666666666669" y2="5" style="visibility: inherit;" fill="rgb(0, 0, 0)" stroke="rgb(204, 204, 204)" stroke-width="1px"></line><line x1="189.33333333333331" y1="0" x2="189.33333333333331" y2="5" style="visibility: inherit;" fill="rgb(0, 0, 0)" stroke="rgb(204, 204, 204)" stroke-width="1px"></line><line x1="213" y1="0" x2="213" y2="5" style="visibility: inherit;" fill="rgb(0, 0, 0)" stroke="rgb(204, 204, 204)" stroke-width="1px"></line><line x1="236.66666666666669" y1="0" x2="236.66666666666669" y2="5" style="visibility: inherit;" fill="rgb(0, 0, 0)" stroke="rgb(204, 204, 204)" stroke-width="1px"></line><line x1="260.3333333333333" y1="0" x2="260.3333333333333" y2="5" style="visibility: inherit;" fill="rgb(0, 0, 0)" stroke="rgb(204, 204, 204)" stroke-width="1px"></line><line x1="284" y1="0" x2="284" y2="5" style="visibility: inherit;" fill="rgb(0, 0, 0)" stroke="rgb(204, 204, 204)" stroke-width="1px"></line></g><g transform="translate(0, 8)"><text x="0" y="0" dx="0em" dy="0.95em" style="text-anchor: middle; visibility: hidden; font-family: &quot;Helvetica Neue&quot;, sans-serif; font-size: 12px; font-weight: 200;" fill="rgb(50, 49, 63)" stroke="none" stroke-width="1px">-500k</text><text x="23.666666666666664" y="0" dx="0em" dy="0.95em" style="text-anchor: middle; visibility: inherit; font-family: &quot;Helvetica Neue&quot;, sans-serif; font-size: 12px; font-weight: 200;" fill="rgb(50, 49, 63)" stroke="none" stroke-width="1px">0</text><text x="47.33333333333333" y="0" dx="0em" dy="0.95em" style="text-anchor: middle; visibility: hidden; font-family: &quot;Helvetica Neue&quot;, sans-serif; font-size: 12px; font-weight: 200;" fill="rgb(50, 49, 63)" stroke="none" stroke-width="1px">500k</text><text x="71" y="0" dx="0em" dy="0.95em" style="text-anchor: middle; visibility: inherit; font-family: &quot;Helvetica Neue&quot;, sans-serif; font-size: 12px; font-weight: 200;" fill="rgb(50, 49, 63)" stroke="none" stroke-width="1px">1M</text><text x="94.66666666666666" y="0" dx="0em" dy="0.95em" style="text-anchor: middle; visibility: hidden; font-family: &quot;Helvetica Neue&quot;, sans-serif; font-size: 12px; font-weight: 200;" fill="rgb(50, 49, 63)" stroke="none" stroke-width="1px">1.5M</text><text x="118.33333333333334" y="0" dx="0em" dy="0.95em" style="text-anchor: middle; visibility: inherit; font-family: &quot;Helvetica Neue&quot;, sans-serif; font-size: 12px; font-weight: 200;" fill="rgb(50, 49, 63)" stroke="none" stroke-width="1px">2M</text><text x="142" y="0" dx="0em" dy="0.95em" style="text-anchor: middle; visibility: hidden; font-family: &quot;Helvetica Neue&quot;, sans-serif; font-size: 12px; font-weight: 200;" fill="rgb(50, 49, 63)" stroke="none" stroke-width="1px">2.5M</text><text x="165.66666666666669" y="0" dx="0em" dy="0.95em" style="text-anchor: middle; visibility: inherit; font-family: &quot;Helvetica Neue&quot;, sans-serif; font-size: 12px; font-weight: 200;" fill="rgb(50, 49, 63)" stroke="none" stroke-width="1px">3M</text><text x="189.33333333333331" y="0" dx="0em" dy="0.95em" style="text-anchor: middle; visibility: hidden; font-family: &quot;Helvetica Neue&quot;, sans-serif; font-size: 12px; font-weight: 200;" fill="rgb(50, 49, 63)" stroke="none" stroke-width="1px">3.5M</text><text x="213" y="0" dx="0em" dy="0.95em" style="text-anchor: middle; visibility: inherit; font-family: &quot;Helvetica Neue&quot;, sans-serif; font-size: 12px; font-weight: 200;" fill="rgb(50, 49, 63)" stroke="none" stroke-width="1px">4M</text><text x="236.66666666666669" y="0" dx="0em" dy="0.95em" style="text-anchor: middle; visibility: hidden; font-family: &quot;Helvetica Neue&quot;, sans-serif; font-size: 12px; font-weight: 200;" fill="rgb(50, 49, 63)" stroke="none" stroke-width="1px">4.5M</text><text x="260.3333333333333" y="0" dx="0em" dy="0.95em" style="text-anchor: middle; visibility: inherit; font-family: &quot;Helvetica Neue&quot;, sans-serif; font-size: 12px; font-weight: 200;" fill="rgb(50, 49, 63)" stroke="none" stroke-width="1px">5M</text><text x="284" y="0" dx="0em" dy="0.95em" style="text-anchor: middle; visibility: hidden; font-family: &quot;Helvetica Neue&quot;, sans-serif; font-size: 12px; font-weight: 200;" fill="rgb(50, 49, 63)" stroke="none" stroke-width="1px">5.5M</text></g><line x1="0" y1="0" x2="284" y2="0" fill="rgb(0, 0, 0)" stroke="rgb(204, 204, 204)" stroke-width="1px"></line></g></g></g></g></svg>